<?xml version="1.0" encoding="utf-8"?>
<!-- Generator: Adobe Illustrator 25.4.1, SVG Export Plug-In . SVG Version: 6.00 Build 0)  -->
<svg version="1.1" id="Layer_1" xmlns="http://www.w3.org/2000/svg" xmlns:xlink="http://www.w3.org/1999/xlink" x="0px" y="0px"
	 viewBox="0 0 595.3 595.3" style="enable-background:new 0 0 595.3 595.3;" xml:space="preserve">
<style type="text/css">
	.st0{fill:#761214;}
	.st1{fill:#231F20;}
	.st2{fill:#202020;}
</style>
<path id="color_x5F_2" class="st0" d="M223.1,215.7c0,0-0.1-0.1-0.3-0.1c0.1,0.1,0.3,0.2,0.4,0.3L223.1,215.7z M196.7,207.8
	c1.5-0.1,3-0.2,4.4-0.2c-1-0.2-1.8-0.3-2.3-0.2C198.3,207.5,197.5,207.6,196.7,207.8z M437.6,156.4c1.5,0.6,3.6-0.9,3.9-2.4
	c0.2-1.3-0.4-2.4-1.3-3.1c-1,0.5-1.9,1.6-2.5,2.6c-0.1,0.1-0.2,0.3-0.2,0.5C437.2,155.1,437.3,155.8,437.6,156.4
	C437.6,156.3,437.6,156.3,437.6,156.4z M441.8,149.3c0,0-0.1,0-0.3,0c0.1,0.1,0.2,0.1,0.4,0.2L441.8,149.3z M421,152.5
	c0.1,0,0.2,0,0.3,0c0.8-0.3,1.6-0.6,2.3-1c0.9-0.7,1.6-1.8,1.6-3c0-1.9-1.4-2.7-3-3.1c0,0-0.1,0-0.1,0c-0.5,0.2-1.2,0.5-1.8,0.3
	c-1.3-0.3-2.9-0.5-3.9,0.5c-0.6,0.6-1.1,1.4-1,2.3C415.8,151.1,418.8,152.5,421,152.5z M424.5,144.5c0,0-0.1,0-0.3,0
	c0.1,0,0.2,0.1,0.3,0.1L424.5,144.5z M178,200.7c1.3,2.1,3.5,3.5,6.1,4.3c2,0.3,4.6,0.7,7,1c2.2,0,4.4-0.2,6.2-0.5
	c3.8-0.7,7.2-2.4,10.2-4.8c0.2-0.2,0.4-0.4,0.4-0.4l-0.1,0c-3.3,0.7-9.4,2.3-11.5-0.1c-1.6-1.9,1.8-11.3-1.3-12.4
	c-0.6,0.3-1.1,0.8-1.3,1c-1,1.8-2,3.7-3.3,5.4c-3.4,4.8-8.6,8.9-13.2,5.1c0.1,0.3,0.2,0.6,0.4,0.9L178,200.7z M205.7,199.6
	c0,0,0,0-2.4,0.4c0.8-0.1,1.7-0.2,2.5-0.4L205.7,199.6z M415.8,241l4,1.5c2.2,0.8,4.5,1.4,6.8,2c0.4,0.1,0.8,0.2,1.3,0.3
	c5.6,1.1,15.1,2.7,22.2,2.6c2.4-0.3,4.7-0.9,6.7-2c2.9-1.5,4.7-3.6,5.6-6c0.2-0.6,0.3-1.1,0.3-1.6c-2.8-6.9-7.2-13.2-12.9-17.7
	c-4.3-2.8-9-5-11.2-6c-0.8-0.2-1.6-0.4-2.4-0.6c-3.4,0-6.8-0.1-10.2-0.3c0,0.1-0.1,0.1-0.1,0.2c0.3,0,0.5,0.1,0.4,0.3
	c-1.7,7.1-7.3,12.1-13.9,15.6c-1.3,0.8-2.7,1.4-4,1.9c-1.8,0.8-3.7,1.5-5.6,2.1c3.5,2,6.7,4.5,10.2,6.4
	C413.8,240.1,414.8,240.6,415.8,241z M426.6,211.7c0,0-0.1,0.1-0.1,0.2c0.7,0,1.4,0.1,2.1,0.1L426.6,211.7z M398.3,242.1
	c5.7,4.6,12,8.6,18.7,11.5C410.5,250.3,403.6,245.8,398.3,242.1z M467.4,254c-2.3,2.3-5.2,4-8.8,5.1c-25.3,7.3-50.7-4-69-21.4
	c-0.5-0.5,0-1,0.7-1.2c0,0,0,0-0.1,0c-16.9,3.2-35.2,3.1-51.4-2.8c-0.3-0.1-0.1-0.4,0.3-0.6c-18.5-9-18-31.3-19-50.1
	c-2.3,1.2-4.6,2.4-6.8,3.7c0.3,0,0.5,0.1,0.5,0.3c1.2,3.2,0.3,7.6,0.4,10.9c0.2,5.8,0.8,11.8,3,17.3c0.5,1.3,1.2,2.6,1.8,3.9
	c0.8-0.1,1.5,0,0.8,0.5c-0.1,0.1-0.3,0.2-0.4,0.3c6.5,11,18.6,18,29.5,24c12.5,6.9,25.6,12.8,38.9,17.8c5,1.9,10.1,3.6,15.3,5.1
	c2.5,0.7,5.4,1.8,8.1,1.7c1.2,0,0.6,0.7-0.1,1.1c0.1,0,0.1,0,0.2,0c0.5-0.4,1.4-0.7,1.9-0.5c24.2,9.4,25.4,43.9,26.8,65.6
	c1.2,18.8,1.3,37.6,1.8,56.5c0.2,7.4,1.3,15.4-0.4,22.7c-0.3,1.5-0.7,3.1-1.4,4.5c0,0,0,0.1,0.2,0.1l9.3,0.7c3.1,0,6.1-0.1,9.2-0.2
	c0.4-0.1,0.7-0.1,1,0c0.5,0,1,0,1.4,0c0.2,0,0.3,0,0.4,0c0.9-6.4,2.1-12.8,3.1-19.3c1.1-6.8,1.5-13.7,2.6-20.4
	c2.2-13.4,3.7-26.7,4.6-40.2C473.9,310.6,473.4,281.9,467.4,254z M389.3,235.6c0,0-2.8,0.5-6.8,1C384.8,236.4,387.1,236,389.3,235.6
	C389.3,235.6,389.3,235.6,389.3,235.6z M381.5,236.8c0.3,0,0.7-0.1,1-0.1C382.2,236.7,381.8,236.7,381.5,236.8z M353.6,235.9
	c-2.7-0.6-5.4-1.4-8-2.2c0.1,0.1,0,0.2-0.1,0.3C348.2,234.8,350.9,235.4,353.6,235.9z M461.5,420c0,0,0-0.1,0-0.1
	c0,0-0.1,0.1-0.1,0.1L461.5,420z M325.3,119.8c0.1-0.8,1.7-1.3,2.3-0.9c0.1,0,0.2,0,0.2,0c0.3,0,0.6,0.1,0.9,0.1c0.1,0,0.2,0,0.3,0
	c9.7,1.6,18.6,5,25.2,11.9c0.5,0,0.9,0,1.3-0.1c0.9-0.4,2-0.8,3.4-1.1c0.5-0.1,1-0.2,1.5-0.4c7-4.3,4.3-15.7-1.1-22.1
	c-4.4-5.2-9.4-6.4-15.9-4.5c-3.3,1-6.5,2-9.8,2.6c3.4,2.6,6.9,4.7,11.5,4.9c1.3,0-1.1,1.1-1.6,1c-6.2-0.2-10.5-3.6-15.1-7.3
	c-2.6-2.2-5.4-4.5-8.8-5.2c-3.3-0.8-6.7-0.8-10.1-0.8c-0.1,0-0.1,0-0.2,0c-4.7,0.6-14.1,2.1-16,7.3c-0.9,2.6-0.8,5.2,0.4,7.4
	c0.1,0.2,0.2,0.4,0.4,0.6c0.8,1.3,2,2.5,3.6,3.4C304.8,121,316.7,121.9,325.3,119.8z M322.9,121.5c0.8,0,1.6,0,2.5,0.1
	c0-0.3,0-0.6-0.1-0.9c-1.6,0.4-3.1,0.6-4.7,0.8C321.5,121.5,322.3,121.5,322.9,121.5z M332.4,104.4c1.1-0.2,2.2-0.4,3.3-0.6
	c-0.1,0-0.1-0.1-0.1-0.1c-0.9-2.5-2.7-3-4.9-2.1c0.2,0.8,1,1.2,1.1,2c0,0.1,0,0.2-0.1,0.2C331.9,103.9,332.1,104.2,332.4,104.4z
	 M338,103.1c2-0.6,3.9-1.2,5.8-1.7c-2.5,0.3-4.9,0.6-6.1,0.8c0.1,0.2,0.2,0.4,0.3,0.7C338.1,103,338.1,103,338,103.1z M328.6,101.3
	c2.4-1.1,5.4-2,7.5-0.8c-0.6-0.8-1.5-1.5-3.2-1.1c-3.5,0.9-3.5,0.9-3.5,0.9s-1.4-0.3-3.5-0.7c0.8,0.4,1.6,0.9,2.4,1.5
	C328.4,101.1,328.5,101.2,328.6,101.3z"/>
<path class="st1" d="M263.1,177.8c-12.4-0.4-24.6,2.2-37,2.3c-0.5,0-2.9,1-1.6,1c12.4-0.1,24.6-2.8,37-2.3
	C262,178.9,264.4,177.9,263.1,177.8z"/>
<path class="st1" d="M265,139.5c2-2.9,6.1-9.1,2.5-12.2c-3.2-2.7-8.2,0.4-10.8,2.4c-4.6,3.5-8.2,8.1-11.8,12.6
	c0.1-4.5-6.1-5-9.7-4.6c-0.9,0.1-1.6,1-1.2,1.3c0,0,0,0,0,0c-0.8,0.3-1.6,0.8-2.3,1.3c-0.1-0.1-0.2-0.3-0.5-0.3
	c-3.2-1.1-6.9-0.8-9.5,1.2c-2.8,0.6-5.6,1.9-6.9,4.4c-0.6,1.1-0.4,2.4,0.6,3.2c1.6,1.2,4.3,0.9,6.1,0.6c1.2,0.4,2.6,0.4,3.7,0.4
	c0.3,0,0.5-0.1,0.7-0.2c-0.3,4.2,4.1,4.6,7.5,4c0,0.1,0,0.2,0,0.3c0,0,0,0,0,0.1c-0.1,0.2-0.3,0.4-0.4,0.6c-0.4,0.6-0.9,1.2-1.3,1.8
	c-1.5,2-3,3.9-4.6,5.8c-3,3.7-6.1,7.4-9.2,10.9c-0.5,0.1-1,0.3-1.2,0.7c-8.6-1.6-15.3,0.8-20.6,7.8c-1.4,1.9-2.5,3.9-3.7,5.9
	c-0.2,0.1-0.3,0.1-0.5,0.2c-0.3,0.1-0.5,0.3-0.6,0.4c0,0-0.1,0-0.1,0h-1.9c-0.7,0.7-1.5,1.3-2.3,1.9h4.1c0,0,0,0,0.1,0
	c-0.4,0.7-0.8,1.5-1.3,2.2c-1.2,2-2.5,3.9-4.1,5.6c-2.9,3.1-5.6,1.9-7.7-1.2c-0.2-0.3-0.8-0.3-1.3-0.2c-0.6-0.3-2.3,0.2-2.3,1
	c0.5,11,15.6,11.3,23.5,9.8c12.7-2.3,21.5-14.7,24.4-26.6c3.3-0.8,7.2-5.6,9.1-7.2c4.4-3.8,9-9,13.8-12.1c0.2-0.1,0.3-0.1,0.4-0.2
	c0.1-0.1,0.2-0.2,0.3-0.3c0.2-0.6-2,0.1-2.2,0.2c-3.5,2.2-6.5,5.7-9.6,8.4c-0.4,0.4-0.8,0.7-1.2,1c-0.1-0.2-0.3-0.3-0.7-0.3
	c-2.9-0.5-4.3-2.7-4.4-5.5c0-0.1,0-0.1,0-0.2c0.7-0.8,1.3-1.6,2-2.5c1.5-1.8,2.9-3.6,4.3-5.4c0.6-0.8,1.8-2,2-3
	c0-0.2-0.1-0.4-0.2-0.5c3.8-1.4,7.5-4.6,8.8-8.4c0.5-0.1,0.9-0.2,1.1-0.4c3.2-3.7,6.2-7.6,9.6-11.1c2-2,5.8-6.3,9-5.3
	c1.7,0.5,2.3,2,2.3,3.6c0,3.9-3.3,8-5.4,10.9c-2,2.6-4.2,5.4-6.7,7.6c-3.8,0.1-8.3,2.2-10.2,5.5c-2.8,4.8,2.1,5.7,5.9,5.2
	c1.1-0.2,2.2-1.4,0.4-1.1c-5.1,0.8-5.6-2.6-2.7-5.8c4-4.2,12.4-2.9,14,3c1,3.8-3.3,8.3-5.2,11.1c-2.1,3-3.8,6.2-3.6,10
	c0,0.6,2.6,0.1,2.5-0.7c-0.5-6.9,6-11.6,8.4-17.6c2.1-5.2-3.1-8.8-7.7-9.4C259.6,147,262.5,143.1,265,139.5z M207.6,200.8
	c-3,2.4-6.4,4.1-10.2,4.8c-1.8,0.3-4,0.5-6.2,0.5c-2.4,0-4.8-0.3-7-1c-2.6-0.8-4.8-2.2-6.1-4.3c-0.1-0.1-0.2-0.3-0.2-0.4
	c-0.1-0.3-0.3-0.6-0.4-0.9c4.5,3.8,9.8-0.4,13.2-5.1c1.2-1.7,2.3-3.5,3.3-5.4c0.2-0.4,0.4-0.7,0.6-1.1c0.3,0,0.5,0,0.7,0.1
	c3.1,1.1-0.3,10.5,1.3,12.4c2,2.4,8.1,0.8,11.5,0.1c0.1,0,0.2,0,0.3-0.1C207.9,200.5,207.7,200.7,207.6,200.8z M209.6,199
	c-0.1,0-0.1,0-0.2,0c-1.2,0.2-2.3,0.4-3.5,0.7c-0.8,0.2-1.7,0.3-2.5,0.4c-1,0.1-2.1,0.1-3.1,0c-3.6-0.4-1.2-5.5-1.1-7.7
	c0.2-3.8-1.4-5.7-4-5.6c0.6-1.1,1.3-2.3,2-3.4c4.4-6.9,10-9.9,18.2-8.3c0.3,0.1,0.7-0.1,1.1-0.3c-0.1,1.4,0.1,2.7,0.9,3.9
	c0.6,0.9,1.6,1.3,2.6,1.6C218.3,186.9,214.8,193.9,209.6,199z M231,171.7c-1.6,1.4-3.2,2.8-4.8,4.2c-1,0.8-1.9,1.6-2.9,2.4
	c-0.2,0.2-0.4,0.3-0.6,0.5c-0.2-0.1-0.4-0.2-0.8-0.2c-2.5-0.1-3.1-2.1-3-4.2c2.2-2.5,4.4-5,6.5-7.6
	C226.2,169.4,228.1,171.1,231,171.7z M219.5,147.9c0.1,0.2,0.3,0.4,0.5,0.6c-1.8-0.1-3.6-0.8-2.9-3c0.5-1.5,1.8-2.5,3.2-3
	c-0.3,0.3-0.5,0.7-0.8,1.1C218.8,144.8,218.6,146.5,219.5,147.9z M226.1,148.1c-0.2-0.1-0.4-0.1-0.7-0.1c-2.6,0.1-4.9-1.3-3.5-4.1
	c0.5-1,1.1-1.6,2-2.1c0.2,0,0.4,0,0.7,0c0.6,0,1.3-0.2,1.8-0.5c0.2-0.1,0.2-0.2,0.2-0.3c1.1-0.1,2.2,0.1,3.3,0.5c0.1,0,0.2,0,0.3,0
	C228.1,143.3,226.7,145.6,226.1,148.1z M242.3,143.7c-0.6,3.8-4.6,7.1-8.1,8.1c-3.5,1-6.4-0.1-5.6-4c0.7-3.3,3.4-6.4,6.4-7.7
	c0.8-0.4,0.8-0.8,0.5-1C238.8,138.8,242.9,139.5,242.3,143.7z"/>
<path class="st1" d="M342.2,148.8c-0.3-0.9-0.4-2.2,0.7-2.6c0.5-0.2,1.2-0.6,1-1.2c-0.2-0.6-1-0.7-1.5-0.5c-1.1,0.4-2,0.9-2.6,1.9
	c-0.6,0.9-0.5,2.1-0.2,3C340.1,150.6,342.6,149.9,342.2,148.8z"/>
<path class="st1" d="M306,154.1c-0.6,0.1-1.2,0.3-1.4,0.9c-0.2,0.5-0.4,0.9-0.7,1.3c-0.1,0.1-0.2,0.2-0.4,0.3c0,0-0.1,0-0.2,0
	c-0.6-0.1-1.3,0.1-1.8,0.5c-0.4,0.4-0.3,0.9,0.3,1c2.4,0.6,4.6-1,5.4-3.3C307.2,154.1,306.3,154,306,154.1z"/>
<path class="st1" d="M307.3,143.5c1.7,0.2,3.2-0.9,4-2.3c0.6-1.1-1.9-0.9-2.4-0.1c-0.5,0.8-0.6,1.1-1.5,0.6c-0.8-0.4-1.4-1.2-1.9-2
	c-0.5-0.7-2.9,0.1-2.3,1C304.3,142.2,305.5,143.3,307.3,143.5z"/>
<path class="st1" d="M306.9,131.5c2.6,0.1,4.7,1.6,6.8,3c0.7,0.5,3.1-0.6,2-1.3c-2.4-1.6-4.9-3.1-7.9-3.3
	C306.8,129.9,305.2,131.4,306.9,131.5z"/>
<path class="st1" d="M328.1,145.7c-1.6-2.9-7.9-6.5-10.2-2.2c-1.8,3.4,1.3,7,4.9,6.1c1.6-0.4,1.1-2-0.4-1.7
	c-1.6,0.4-2.4-1.7-2.5-2.9c-0.1-2.3,2.8-1.4,3.8-0.9c1.2,0.7,1.9,2,2.4,3.2c1.1,2.5,0.1,5.2-2.3,6.5c-2.2,1.1-5.2-0.5-7.1-1.4
	c-5.2-2.5-9.9-4.8-15.2-1.3c-1.4,0.9,0.7,1.7,1.7,1.1c6.6-4.2,12.2,4.4,18.8,3.8C327,155.6,330.9,150.7,328.1,145.7z"/>
<path class="st1" d="M229.1,236.5c0.3-0.6,0.6-1.3,0.8-2c0.2-0.7-0.3-1-0.9-1c-0.1,0-0.2,0-0.3,0C228.8,234.6,229,235.6,229.1,236.5
	z"/>
<path class="st1" d="M478.8,179.6c-6.5-8.6-18.2-12.2-28.5-12.3c-0.5,0-1.4,0.5-1.7,0.8c-8.1,2.6-13.8,10.5-21.3,14.3
	c-4.6-0.5-9.2-3.4-13.3-5.6c9.2-3.8,17.6-11.4,27.8-11.6c8.3-0.1,18.2,5.4,24.9-2.4c5.6-6.5-2.3-13.2-7.3-16.9
	c-7.1-5.1-16.4-8.1-25-9c-4.4-0.5-8.8-0.4-13.1,0.6c-0.2-0.1-0.4-0.1-0.7-0.1c-14.1,1.1-30.4,9-34,24c-1.3,5.5,0.6,11.1,5.1,14.5
	c1.5,1.1,3.1,1.9,4.7,2.5c-3.1-0.7-6.2-1.5-9.3-2.3c-12.8-3.2-28.2-8.7-41.6-5.7c-0.2-1.3-0.5-2.5-0.8-3.8c0.4,0,0.8-0.1,1-0.2
	c11-6.9,20.8-18.3,12-31c-0.8-1.2-1.7-2.3-2.6-3.3c3.9-0.5,7.4-1.9,10-5c3.8-4.6,2.1-11.2-0.3-16c-2.7-5.3-7.5-10.7-13.9-10.7
	c-2.5,0-4.9,0.4-7.3,1c-2,0.5-3.9,1.1-5.8,1.7c0-0.1,0.1-0.1,0-0.2c-0.1-0.2-0.2-0.5-0.3-0.7c-0.4-0.8-1-1.4-1.7-1.8
	c-2.1-1.2-5.1-0.3-7.5,0.8c-0.1-0.1-0.2-0.2-0.3-0.3c-0.8-0.6-1.6-1.1-2.4-1.5c-4.8-2.6-10.1-2.6-15.5-2.6c-0.1,0-0.2,0-0.3,0
	c-0.7,0-1.3,0-2,0c-0.3,0-1,0.3-1.5,0.5c-4.7,0.9-9.5,2.5-13.3,5.3c-2.3,1.8-3,4.3-3.2,7.1c-0.2,2.3,2.2,4.8,3.6,6.3
	c1.8,2,4.5,3.2,7.4,3.9c-0.7,0.1-1.3,0.4-1.4,0.8c-0.6,7.3,0.7,17.6-6.6,21.9c-1.5,0.9-3.8,1.5-4.7,3.1c-1,1.8,4.8,4,5.6,4.4
	c0.2,0.1,0.5,0.1,0.8,0c-0.4,4.8-1.7,9.7-1.2,14.6c0.5,5.2,4,6.7,8.9,6.5c3.6-0.1,6.8-0.8,10.5,0c3.5,0.7,6.6,2.7,9.3,5
	c0.8,0.7,1.6,1.5,2.3,2.3c-16.1,6.6-29.2,18.4-44.2,26.9c-2.8,1.6-5.8,2.9-8.9,3.9c-3.1,1-4.6-0.3-5.4-3.2c-2.5-8.3-2-17.9-2-26.4
	c0-1.3-2.5-1-2.5,0.2c0,9-0.4,18.9,2.3,27.7c1.5,4.8,5.9,4.4,9.8,3c8.4-2.9,15.9-8.4,23.2-13.4c4.8-3.3,9.6-6.6,14.5-9.7
	c1.1,3.2,0.3,7.5,0.4,10.8c0.1,6.3,1.1,12.4,3.4,18.3c0.4,1.1,1,2.2,1.5,3.3c-15.2,9.7-31.2,19.4-49.2,22.7
	c-5.3,1-11.2,1.3-16.7,0.4c0,0,0,0,0,0c-0.1-0.4-0.8-0.4-1.5-0.2c-2.7-0.5-5.4-1.3-7.8-2.5c-4.8-2.2-8.2-6.7-10.5-11.3
	c-4.6-9.1-5.4-20.1-5.6-30.1c-0.1-5.7-0.2-11.9,1.1-17.5c0,0,0,0,0,0c0.1-0.1,0.1-0.2,0-0.3c0,0,0,0,0,0c-0.5-0.4-2.3,0-2.4,0.7
	c-1.4,6.4-1.2,13.7-1,20.2c0.1,4.8,0.5,9.8,1.4,14.7c-0.4-0.3-0.8-0.7-1.2-1c-0.1-0.1-0.2-0.1-0.3-0.2c0.7,1.3,1.3,2.6,1.9,3.9
	c0,0,0,0,0.1,0c0,0,0,0,0,0c0,0,0,0,0,0c0,0.1,0.1,0.3,0.1,0.4c1,2.4,1.8,4.9,2.4,7.4c0.6,1.4,1.2,2.8,2,4.1
	c0.6,1.1,1.2,2.1,1.9,3.1c4,5.7,10.3,8.5,17.1,9.7c0.3,1.1,0.6,2.3,0.9,3.4c1,0.2,2,0.4,2.9,0.8c-0.3-1.3-0.7-2.5-1-3.8
	c6.5,0.6,13.3-0.1,19-1.4c17.2-3.8,32.4-12.8,47.1-22.2c6.4,10.9,19.1,17.8,29.7,23.8c12.7,7.1,26.2,13,39.9,18.1
	c4.9,1.8,9.8,3.4,14.8,4.9c2.7,0.8,5.8,1.8,8.6,1.7c0.3,0,0.6-0.1,0.9-0.3c0.7-0.4,1.3-1.1,0.1-1.1c-2.7,0.1-5.5-1-8.1-1.7
	c-5.2-1.4-10.2-3.2-15.3-5.1c-13.4-4.9-26.5-10.8-38.9-17.8c-10.9-6.1-23-13-29.5-24c0.1-0.1,0.3-0.2,0.4-0.3c0.7-0.4,0-0.6-0.8-0.5
	c-0.7-1.2-1.3-2.5-1.8-3.9c-2.2-5.5-2.8-11.4-3-17.3c-0.1-3.4,0.8-7.7-0.4-10.9c-0.1-0.2-0.3-0.3-0.5-0.3c2.2-1.3,4.5-2.6,6.8-3.7
	c0.9,18.7,0.5,41,19,50.1c-0.4,0.2-0.6,0.5-0.3,0.6c16.2,5.9,34.6,6,51.4,2.8c0.8-0.1,1.5-0.3,2.3-0.4c2.3-0.5,4.8-1.1,7.4-1.8
	c0.1,0.1,0.1,0.1,0.2,0.2c4.3,2.3,8.1,5.5,12.5,7.6c5.1,2.5,10.9,3.9,16.4,5.1c8.9,2,21.4,4.2,29.7-0.9c3.2-2,5.1-4.5,6.1-7.3
	c0.4-0.2,0.8-0.4,0.7-0.6c-0.1-0.3-0.2-0.5-0.3-0.8c1.9-8.8-4.6-19.7-11.6-25.3c1.6-0.3,3.2-0.6,4.7-0.9c0,0.1,0.1,0.3,0.2,0.4
	c7.7,7.3,12.7,15,12.7,25.9c0,10.4-4.9,17.9-15.2,20.4c-13.4,3.4-26.8,1.2-38.9-4.3c-6.7-3-13-7-18.7-11.5c-2.2-1.8-4.4-3.7-6.4-5.6
	c-0.4-0.3-1-0.3-1.6-0.1c-0.7,0.2-1.2,0.8-0.7,1.2c18.3,17.4,43.7,28.7,69,21.4c3.6-1,6.5-2.8,8.8-5.1c6,28,6.4,56.6,4.5,85
	c-0.9,13.5-2.4,26.9-4.6,40.2c-1.1,6.8-1.5,13.7-2.6,20.4c-1.1,6.4-2.2,12.8-3.1,19.3c-0.1,0-0.2,0-0.4,0c-0.5,0-1,0-1.4,0
	c-0.3-0.1-0.7-0.1-1,0c-3.1,0.1-6.1,0.2-9.2,0.2c-0.9,0-1.8,0-2.7,0c-0.2,0-1.3-0.1-2.6-0.2c-0.2-0.1-0.6-0.1-0.9-0.1
	c-1.4-0.1-2.7-0.3-3.1-0.4c-0.1,0-0.2-0.1-0.2-0.1c0.7-1.4,1-3,1.4-4.5c1.7-7.3,0.6-15.3,0.4-22.7c-0.5-18.9-0.7-37.6-1.8-56.5
	c-1.4-21.7-2.6-56.2-26.8-65.6c-0.5-0.2-1.4,0.1-1.9,0.5c-0.4,0.3-0.6,0.6-0.1,0.8c21.7,8.4,24.2,38.2,25.8,58.1
	c1.2,14.7,1.9,29.4,2.2,44.2c0.2,8,0,16,0.3,24.1c0.3,7.4,1,15.7-2.2,22.6c-0.2,0.4,0,0.7,0.4,0.8c1.3,0.2,2.5,0.3,3.8,0.4
	c-10.2,11.5-27.6,14.1-40.6,21.4c-0.4,0.2-0.5,0.4-0.5,0.6l-0.4,0.2l0.6,0.1c0.1,0.1,0.3,0.2,0.5,0.2c-0.6,0.3-0.9,0.8-0.1,1
	c19.2,3.8,39.1,1,58.4,0.9c0.1,0,0.3,0,0.4-0.1c0.7,0.4,2.2-0.1,2.2-0.8c-0.1-7.8-1.5-15.6-1.7-23.4c0.3,0,0.7-0.2,1-0.4
	c0,0,0.1-0.1,0.1-0.1c0,0,0,0.1,0,0.1c-0.1,0.5-0.1,1-0.2,1.5c-0.1,1.1,2.4,0.6,2.5-0.3c1.8-14.1,4.6-28.1,6.1-42.3
	c0.3-3,1.3-5.9,1.7-8.9c0.5-3.8,0.8-7.7,1.2-11.5c0.7-7.1,1.3-14.3,1.8-21.5c1.9-28.2,1.2-56.6-4.8-84.3c-0.1-0.3-0.5-0.5-0.9-0.5
	c2.6-3.4,4.2-7.6,4.6-12.4c1.2-12.1-4.2-21.3-12.7-29.3c6.3-1.8,12.2-4.5,16.6-8.9C483.9,195.3,484.2,186.8,478.8,179.6z
	 M438.8,426.8l-5.4,2.2c2.3-1.3,4.6-2.8,6.6-4.6L438.8,426.8z M425.3,183.3c-0.3,0.1-0.6,0.2-0.9,0.3c-8.4-0.9-16.7-2.6-25-4.5
	c4.1,0.6,8.4-0.1,12.3-1.5C416,180,420.5,182.6,425.3,183.3z M388.7,164.1c0.4-14.8,17.1-23.4,30-24.9c0.1,0.3,0.6,0.4,1.2,0.2
	c8.5-2.6,17.9-0.8,26.1,2.1c7.1,2.5,15.5,6.9,19.3,13.8c3.1,5.7-2.7,10.2-8.2,10.5c-4.4,0.2-8.8-1.4-13.1-1.9
	c-6.9-0.7-13.7,2.9-19.6,6.1c-4,2.1-8.1,4.6-12.5,6.3c-0.3,0.1-0.5,0.2-0.8,0.3c-3.9,1.4-8,2-12.2,0.9
	C392.7,175.8,388.5,170.4,388.7,164.1z M335.5,103.6c0,0.1,0.1,0.1,0.1,0.1c-1.1,0.3-2.2,0.5-3.3,0.6c-0.3-0.2-0.5-0.4-0.8-0.6
	c0.1-0.1,0.1-0.2,0.1-0.2c-0.1-0.9-0.9-1.3-1.1-2C332.8,100.6,334.6,101.1,335.5,103.6z M297.6,116.7c-1.5-0.9-2.7-2.1-3.6-3.4
	c-0.1-0.2-0.2-0.4-0.4-0.6c-1.1-2.2-1.3-4.8-0.4-7.4c1.9-5.2,11.3-6.6,16-7.3c0.1,0,0.1,0,0.2,0c3.4,0,6.7,0,10.1,0.8
	c3.4,0.8,6.2,3.1,8.8,5.2c4.6,3.8,8.9,7.1,15.1,7.3c0.5,0,2.9-1,1.6-1c-4.6-0.2-8.1-2.3-11.5-4.9c3.3-0.6,6.5-1.7,9.8-2.6
	c6.5-1.9,11.5-0.8,15.9,4.5c5.4,6.4,8.1,17.8,1.1,22.1c-1.3,0.8-2.9,1.3-5,1.6c-0.4,0-0.9,0.1-1.3,0.1c-6.7-6.9-15.5-10.3-25.2-11.9
	c-0.1,0-0.2,0-0.3,0c-0.3,0-0.6-0.1-0.9-0.1c-0.1,0-0.1,0-0.2,0c-0.6-0.4-2.2,0.1-2.3,0.9C316.7,121.9,304.8,121,297.6,116.7z
	 M313.9,169.5c-4.8-1.2-15.9,2.6-17.5-3.4c-1.3-5,0.6-10.9,1-16c0.1-0.9-0.9-1.1-1.7-0.8c-2.6-1.2-7-3-3-5.1c2-1.1,4.5-2.1,5.8-4.1
	c3.8-5.5,3.1-13.2,3.6-19.6c3.1,0.7,6.4,0.9,9,1.1c3.1,0.2,6.3,0.2,9.4-0.1c1.6-0.2,3.2-0.4,4.7-0.8c0,0.3,0,0.6,0.1,0.9
	c0.2,4.3,0.4,8.5,1.4,12.5c0.2,1.3,0.5,2.5,0.9,3.5c3.2,8.1,9,9.8,9,9.8l1.2-0.6c0,0,0-0.8,0.1-1.9c0.2-0.1,0.4-0.3,0.4-0.5
	c0.2-1.5,0.5-2.9,1.5-4c1-1.2,3.1,0,4.2,0.6c2.3,1.4,4,3.7,4.8,6.2c0.9,2.8,0.1,7.2-2.9,8.5c-3.3,1.4-7.1-2.8-8.4-5.2
	c-0.4-0.7-2.8,0.1-2.5,0.7c1.1,2,2.6,3.7,4.4,4.7c-0.1,0.1-0.1,0.2-0.1,0.3c3.3,9.6,4.1,19.9,7,29.6c0.2,0.8,2.7,0.1,2.5-0.7
	c-0.6-2.1-1.1-4.1-1.6-6.2c9,4.1,2.6,21.7-5.3,24.1c-9.2,2.9-12.6-8.2-11.7-15.9c1.1,2.1,2.1,4.2,3.1,6.2c0.5,1.1,2.9,0.1,2.3-1.1
	C330.8,182.3,325.2,172.4,313.9,169.5z M462.9,232.6c-4.8-8.9-12.3-16.1-21.7-19.2c3-0.1,6.1-0.4,9.2-0.8
	C455.8,216.4,461.9,224.8,462.9,232.6z M457.8,209.9c-1.9,0.5-3.8,0.8-5.7,1.1c-0.1,0-0.1-0.1-0.2-0.1c-0.5-0.3-1.6,0-2.1,0.5
	c-4.3,0.6-8.6,0.8-12.9,0.8c-1.8-0.3-3.6-0.5-5.5-0.6c-0.3,0-0.9,0.2-1.4,0.5c-0.5,0-0.9,0-1.4-0.1c-0.7,0-1.4-0.1-2.1-0.1
	c-15.3-0.8-30.3-3.4-45.6-2.7c-0.8,0-2.7,1.3-1,1.2c15.4-0.6,30.7,1.9,46,2.7c3.4,0.2,6.8,0.3,10.2,0.3c0.8,0.2,1.6,0.4,2.4,0.6
	c4.1,1.3,7.9,3.4,11.2,6c5.7,4.6,10.1,10.8,12.9,17.7c0,0.1,0.1,0.2,0.1,0.3c-0.1,0.4-0.3,0.9-0.4,1.3c-0.9,2.4-2.7,4.5-5.6,6
	c-2,1.1-4.3,1.7-6.7,2c-7.2,1-15.7-1-22.2-2.6c-0.4-0.1-0.9-0.2-1.3-0.3c-2.2-0.6-4.5-1.2-6.8-2c-1.3-0.5-2.7-1-4-1.5
	c-1-0.4-2-0.9-2.9-1.4c-3.5-1.9-6.7-4.4-10.2-6.4c1.9-0.6,3.7-1.3,5.6-2.1c1.3-0.6,2.7-1.2,4-1.9c6.7-3.5,12.2-8.5,13.9-15.6
	c0-0.2-0.1-0.3-0.4-0.3c-0.7-0.1-1.9,0.3-2.1,0.7c-3.3,13.7-20.8,18.8-32.8,21.2c-0.5,0.1-1,0.2-1.5,0.3c-2.6,0.5-5.2,0.9-7.8,1.1
	c-9.2,1-18.8,0.8-27.9-0.9c-2.7-0.5-5.4-1.1-8-1.9c0.1-0.1,0.2-0.2,0.1-0.3c0,0-0.1-0.1-0.1-0.1c-22.8-7.5-21.8-32.1-22.9-52
	c1.1-0.5,2.2-1,3.3-1.4c0.9,1.2,1.8,2.5,2.6,3.8c-0.1,0.1-0.2,0.2-0.2,0.3c-1.4,4.5-0.7,10.3,1.1,14.6c2.5,6,8.3,6.9,14,5.2
	c9.7-3,16.7-24.6,3.6-27.4c0,0-0.1,0-0.1,0c-0.3-1.6-0.6-3.1-0.9-4.7c6.5-1.4,13.5-0.1,19.9,1.1c8.4,1.6,16.7,3.9,25,5.9
	c18.1,4.4,36.7,8.4,55.4,6.5c1.3-0.1,2-1.8,0.3-1.6c-6.7,0.7-13.5,0.6-20.1-0.1c0.3-0.1,0.5-0.2,0.8-0.4c0.4,0,0.8,0,1.3,0
	c0.6,0,2.8-1.1,1.1-0.9c-0.2,0-0.4,0-0.6,0c2.2-1.3,4.2-2.8,6.2-4.2c4.4-3.2,9.8-8.5,15.3-9.7c9.6,0.4,19.3,3.9,25.6,11.4
	c5.5,6.5,5.5,15-0.4,21.2C471.1,206,464.1,208.3,457.8,209.9z"/>
<path class="st1" d="M436.7,157.9c2.5,0.3,5.9-1,7-3.4c0.9-2.2-0.2-4-1.9-5c-0.1-0.1-0.2-0.1-0.4-0.2c-0.4-0.2-0.9-0.4-1.4-0.5
	c-0.8-0.2-3,1-1.5,1.4c0,0,0,0,0,0c-1.5,0.9-2.7,2.2-3.5,3.7C434.2,155.6,434.4,157.6,436.7,157.9z M437.5,154
	c0.1-0.2,0.2-0.4,0.2-0.5c0.5-1,1.4-2.1,2.5-2.6c1,0.7,1.6,1.8,1.3,3.1c-0.2,1.5-2.4,3-3.9,2.4c0,0,0,0-0.1,0
	C436.8,155.9,437.1,154.7,437.5,154z"/>
<path class="st1" d="M418.4,153.4c3.1,0.4,7-0.8,8.7-3.6c1.7-2.7-0.3-4.5-2.7-5.2c-0.1,0-0.2-0.1-0.3-0.1c-0.4-0.1-0.7-0.2-1.1-0.2
	c-0.6-0.1-1.2,0.1-1.8,0.3c0,0-0.1,0-0.1,0c-2.8-0.3-6.1,0.3-7.7,2.7C411.3,150.6,415.9,153,418.4,153.4z M416.5,146.3
	c1.1-1,2.6-0.8,3.9-0.5c0.5,0.1,1.3-0.1,1.8-0.3c0,0,0,0,0.1,0c1.6,0.4,3,1.2,3,3.1c0,1.2-0.7,2.2-1.6,3c-0.7,0.6-1.5,0.9-2.3,1
	c-0.1,0-0.2,0-0.3,0c-2.2,0-5.3-1.4-5.5-3.9C415.4,147.7,415.9,146.9,416.5,146.3z"/>
<path class="st1" d="M399.7,170.5c4.8-0.9,9.5-5.8,9.7-10.8c0-0.5-0.4-0.8-0.9-0.8c0-0.2,0-0.3,0-0.5c-0.2-3-3.5-2.7-5.6-2
	c-2.9,0.9-5.7,3.5-5.6,6.7c0.1,3.1,3.4,3.7,6,3.5c-1.2,1-2.6,1.8-4.1,2.1C397.6,169.1,398.1,170.8,399.7,170.5z M399.8,162.8
	c-0.5-2.5,1.8-5,3.9-5.8c1.7-0.7,2.3,1.7,2.3,2.9c-0.1,2-1.3,4-2.9,5.1c-0.9,0.6,0.9,0.4,1.6,0.2c-0.2,0.2-0.3,0.4-0.5,0.6
	C402.2,165.9,400.2,165,399.8,162.8z"/>
<path class="st2" d="M198.1,329.9c-21.9,0-43.7,0-65.6,0c-0.9,0-1.7,0-2.6,0c-1.7,0-3.4-0.1-4.1-2c-0.8-1.9,0.2-3.3,1.6-4.5
	c6.7-6,13.3-12,19.9-18c15.9-14.4,31.9-28.9,47.8-43.3c2.4-2.2,3.7-2.2,6.2,0.1c22.4,20.3,44.9,40.7,67.3,61
	c0.1,0.1,0.3,0.2,0.4,0.3c1.2,1.2,2.3,2.4,1.5,4.3c-0.8,1.8-2.2,2.1-4,2.1c-14,0-28.1,0-42.1,0C215.7,329.9,206.9,329.9,198.1,329.9
	z"/>
<path class="st2" d="M257.5,336.7c0,2.2,0,4.2,0,6.6c-1,0-1.9,0-2.9,0c-8.8,0-17.6,0-26.3,0c-6,0-10.1,4-10.2,10
	c0,14.4-0.1,28.8,0,43.1c0.1,9,7.1,16,16,16.2c1.1,0,2.2,0,3.5,0c0,2.2,0,4.2,0,6.5c-10.8,0-21.7,0-32.9,0c0-0.9,0-1.8,0-2.7
	c0-17.1,0-34.3,0-51.4c0-4.4-0.7-5.1-5.1-5.1c-12.1,0-24.1,0-36.2,0c-4.1,0-4.9,0.7-4.9,4.8c0,17.2,0,34.4,0,51.7c0,0.9,0,1.8,0,3
	c-5.9,0-11.5,0.1-17-0.1c-2.3-0.1-2.9-2-2.9-4.1c0-10.2,0-20.3,0-30.5c0-14.9,0-29.8,0-44.7c0-1,0-2,0-3.2
	C178.4,336.7,217.9,336.7,257.5,336.7z"/>
<path class="st2" d="M277.5,349.8c3.6,0,6.8-0.1,10.1,0c1.8,0.1,3,1.2,3,3c0.1,11,0,22,0,33.2c-22,0-43.8,0-65.8,0
	c-0.1-0.7-0.2-1.4-0.2-2c0-9.8,0-19.6,0-29.5c0-3.9,0.9-4.7,4.7-4.7c9.3,0,18.6,0,28.3,0c0,1.6,0,3,0,4.4c0,4.7,0,9.3,0,14
	c0,3.1,1.1,4.6,3.3,4.6c2.2,0,3.3-1.4,3.3-4.5c0-5.2,0-10.3,0-15.5c0-0.9,0-1.8,0-2.9c2.3,0,4.4,0,6.7,0c0,4,0,7.9,0,11.9
	c0,3,1.3,4.6,3.4,4.5c2-0.1,3.2-1.8,3.2-4.5C277.5,358,277.5,354.1,277.5,349.8z"/>
<path class="st2" d="M270.9,406.1c0,3.3,0,6.4,0,9.5c0,5.5,0,11,0,16.5c-0.1,7.8-5.8,13.7-13.2,13.6c-7.7,0-13.2-5.6-13.2-13.5
	c0-7.7,0-15.5,0-23.2c0-0.8,0-1.7,0-2.9c-3,0-5.9-0.2-8.6,0c-7.3,0.5-12.5-5.5-11-13.1c21.8,0,43.6,0,65.4,0c1.6,7.4-2.8,13-10.3,13
	C277,406.1,274.1,406.1,270.9,406.1z"/>
<path class="st2" d="M165.3,366.5c10.9,0,21.8,0,32.7,0c0,17.6,0,35,0,52.6c-10.9,0-21.7,0-32.7,0
	C165.3,401.6,165.3,384.1,165.3,366.5z"/>
</svg>
