<?xml version="1.0" standalone="no"?>
<svg version="1.1" id="Layer_1" xmlns="http://www.w3.org/2000/svg" xmlns:xlink="http://www.w3.org/1999/xlink" x="0px" y="0px" width="595.28px" height="595.28px" viewBox="0 0 595.28 595.28" enable-background="new 0 0 595.28 595.28" xml:space="preserve">
<path id="color_x5F_2" fill="#761214" d="M289.975,316.18c-0.291-0.021-0.623-0.045-0.989-0.075
	c0.268-0.054,0.536-0.107,0.802-0.175C289.816,316.029,289.881,316.112,289.975,316.18z M363.73,298.916
	c-3.554-5.873-6.656-11.952-9.177-18.338c-2.77-7.017-5.299-14.586-9.951-20.633c-4.099-5.328-9.049-10.404-13.944-15.008
	c-5.043-4.744-10.271-8.511-16.897-10.64c-1.082-0.348-2.446-0.833-3.951-1.325c-5.522-1.145-10.244-1.354-14.032-0.963
	c-0.001,0-0.002,0.001-0.002,0.001c-0.36,0.235-1.454,0.38-2.104,0.308c-9.336,3.022-14.65,15.605-18.356,23.68
	c-6.102,13.293-11.816,26.8-19.263,39.417c0.014,0.019,0.029,0.035,0.035,0.058c1.453,6.168,7.563,10.767,12.764,13.797
	c5.467,3.186,14.764,8.063,21.375,5.648c1.582-2.365,3.1-4.763,4.563-7.187c0.024-0.106,0.045-0.21,0.076-0.318
	c0.045-0.158,0.182-0.301,0.371-0.424c8.315-13.93,14.721-28.792,19.603-44.342c0.381-1.213,3.344-1.552,2.932-0.238
	c-5.028,16.014-11.592,31.301-20.216,45.61c-0.531,6.095,10.498,8.781,14.572,11.105c7.382,4.211,10.994,13.065,11.198,21.187
	c22.271,3.893,46.078,2.198,66.08-8.883c-4.294-5.261-8.417-10.564-12.548-15.95C372.554,309.867,367.412,305,363.73,298.916z
	 M261.864,244.912c-3.052,4.202-3.47,9.157-5.371,13.996c-1.885,4.797-4.259,9.335-6.796,13.814
	c-2.109,3.728-8.596,7.836-5.413,12.361c2.658,3.778,6.498,5.942,10.755,7.396c7.044-12.594,12.259-26.035,18.639-38.946
	C268.939,252.125,265.095,248.895,261.864,244.912z"></path>
<path id="color_x5F_1" d="M217.646,205.945c0.718,1.05,1.66,1.982,2.107,3.195c0.376,1.02-2.497,1.861-2.898,0.775
	c-0.391-1.059-1.263-1.886-1.893-2.805C214.25,206.068,217.054,205.08,217.646,205.945z M218.572,197.512
	c-2.309,0.049-4.785,0.879-6.262,2.734c-0.414,0.52,0.354,0.646,0.727,0.633c0.611-0.023,1.521-0.224,1.928-0.734
	c0.651-0.817,1.361-1.244,2.406-1.266c0.633-0.014,1.492-0.238,1.928-0.734C219.75,197.633,218.912,197.505,218.572,197.512z
	 M433.088,445.141c0.413,1.25,2.217,2.205,0.115,3.483c-3,1.823-8.754,1.586-12.178,1.85c-10.859,0.836-21.737,0.562-32.617,0.542
	c-0.504-0.001-0.742-0.111-0.805-0.272c-0.037-0.046-0.066-0.099-0.081-0.159c-1.683-7.059,0.635-16.149-3.288-22.5
	c-3.245-5.251-8.192-3.039-13.413-3.66c-17.651-2.099-35.3-4.077-53.1-4.146c-0.764-0.003-0.898-0.234-0.726-0.513
	c-1.861,0.848-3.715,1.711-5.578,2.552c-1.58,0.713-3.162,1.422-4.74,2.139c-0.463,0.21-0.926,0.419-1.385,0.635
	c-0.706,0.33-0.471,0.289-0.196-0.004c-0.725,0.728-2.371,0.873-2.575-0.168c0-0.003,0-0.005-0.001-0.008
	c-0.082-0.418,0.122-0.853,0.477-1.09c5.847-3.908,13.505-6.178,19.863-9.119c12.643-5.85,25.245-11.84,37.517-18.438
	c10.988-5.909,24.106-12.161,30.205-23.698c5.623-10.637,7.779-27.8,0.795-38.758c-0.034-0.023-0.068-0.048-0.094-0.078
	c-0.194-0.234-0.382-0.471-0.575-0.705c-10.063,5.59-21.113,8.906-32.465,10.361c-0.645,0.082-1.29,0.156-1.936,0.228
	c-10.806,1.184-21.845,0.718-32.532-1.028c-14.408,15.368-31.456,27.957-46.278,42.903c-4.63,4.669-9.135,9.561-13.177,14.791
	c0.393,0.718-0.357,1.36-1.186,1.569c-2.236,3.005-4.323,6.115-6.169,9.374c-3.308,5.839-7.286,12.874-7.271,19.825
	c0.025,10.725,9.708,16.742,18.788,19.942c13.983,4.928,29.308,6.117,44.024,6.521c15.623,0.429,31.291-0.216,46.844-1.739
	c9.558-0.936,19.934-1.525,29.133-4.52c1.063-0.346,2.949-0.091,0.975,0.553c-9.203,2.994-19.387,3.816-28.953,4.795
	c-15.601,1.594-31.332,2.416-47.016,2.086c-14.452-0.304-29.396-1.189-43.333-5.314c-8.671-2.565-20.095-7.05-22.737-16.802
	c-1.494-5.511,0.109-10.937,2.313-16.027c3.029-7.001,7.027-13.476,11.629-19.517c-7.807-12.845-17.188-28.561-16.086-44.138
	c-1.402,0.633-2.808,1.25-4.213,1.84c-10.938,4.592-22.405,7.853-34.044,10.113c-6.179,1.2-12.389,2.17-18.635,2.943
	c-6.016,0.745-12.108,0.356-17.998,1.885c-0.044,0.103-0.103,0.208-0.19,0.322c-3.94,5.074-14.291,9.173-22.634,8.506
	c-1.375,3.769-3.34,7.255-5.146,10.83c-0.111,0.22-0.375,0.4-0.703,0.537c15.574-0.033,31.146-0.067,46.721-0.068
	c0.554,0,0.9,0.172,1.086,0.415c0.76-0.158,1.561-0.026,1.559,0.618c-0.018,4.835-0.232,9.665-0.25,14.5
	c-0.001,0.249-0.196,0.474-0.482,0.65c0.027,0.594-0.56,1.28-1.502,1.28c-2.864,0-5.729,0-8.592,0
	c-0.107,1.427-0.854,3.279-1.044,4.025c-1.207,4.764-2.517,9.502-3.832,14.236c-1.382,4.974-2.784,9.941-4.166,14.914
	c-0.58,2.087-1.621,4.469-1.761,6.649c-0.05,0.784-1.113,1.244-1.947,1.173c-0.152,0.043-0.3,0.068-0.432,0.068
	c-19.563,0-39.126,0-58.689,0c-0.968,0.492-2.57,0.228-2.138-0.986c0.359-1.011-1.849-6.549-2.349-8.229
	c-1.42-4.765-2.883-9.516-4.334-14.271c-1.354-4.438-2.742-8.869-3.974-13.342c-0.294-1.065-1.247-3.074-0.637-4.238
	c-2.258,0-4.515,0-6.772,0c-0.639,0-1.007-0.227-1.161-0.531c-0.099-0.032-0.16-0.08-0.16-0.146c0-5.333,0-10.666,0-16
	c0-0.832,2.898-1.25,2.898-0.775c0,0.045,0,0.09,0,0.135c12.567-0.003,25.136-0.03,37.703-0.056
	c-4.541-6.763-8.119-13.812-10.862-21.069c-14.403,2.958-27.504-5.314-33.936-18.383c-0.195-0.396,1.563-0.82,1.736-0.854
	c9.654-1.884,21.203-0.973,27.982,5.29c-4.289-18.443-4.008-37.848-1.06-57.037c-0.042-0.029-0.064-0.064-0.05-0.108
	c0.051-0.152,0.092-0.305,0.14-0.457c0.039-0.252,0.08-0.504,0.12-0.756c-0.202,0.043-0.377,0.063-0.492,0.045
	c-16.614-2.568-19.133-20.04-15.412-33.89c0.162-0.606,2.314-1.028,2.794-0.749c7.668,4.466,13.687,11.526,16.015,19.631
	c1.856-8.176,4.106-16.247,6.596-24.123c-8.77-13.229,1.791-26.908,13.754-33.992c0.284-0.169,2.383-0.983,2.545-0.396
	c3.842,13.923-0.305,29.517-13.687,36.38c-0.105,0.054-0.332,0.115-0.604,0.171c-3.03,9.873-5.657,20.033-7.584,30.299
	c-0.088,2.199-0.459,4.432-1.148,6.674c-1.429,9.139-2.255,18.329-2.274,27.443c3.481-8.495,13.427-14.344,22.835-16.949
	c0.129-0.036,1.549-0.377,1.551-0.012c0.087,15.15-8.568,28.676-23.641,32.051c1.865,17.838,7.368,35.098,18.111,50.787
	c2.87-0.006,5.741-0.007,8.611-0.014c-0.002-0.041,0.006-0.086,0.031-0.138c1.887-3.734,3.954-7.369,5.333-11.334
	c0.033-0.095,0.099-0.183,0.182-0.265c-3.079-0.666-5.718-2.123-7.394-4.618c-0.275-0.41-0.189-0.805,0.081-1.117
	c-3.39-1.384-6.142-4.021-7.541-7.813c-0.071-0.192,0.175-0.414,0.549-0.604c-1.852-1.343-3.147-3.083-3.351-5.348
	c-2.534-1.552-3.984-3.775-3.221-7.005c0.195-0.824,1.131-1.35,1.962-1.193c8.534,1.609,17.147,1.916,25.794,1.973
	c-2.946-4.521-10.566-15.571-3.399-16.021c1.218-0.076,2.463,0.045,3.699,0.314c-0.017-0.035-0.031-0.072-0.033-0.115
	c-0.196-3.865-0.166-7.725-0.015-11.578c-0.166-0.043-0.14-0.133,0.009-0.246c0.22-5.389,0.688-10.768,1.188-16.145
	c-14.628,0.27-25.645-11.069-29.148-24.809c-0.15-0.591,2.07-0.934,2.402-0.929c11.232,0.163,23.926,4.575,27.731,14.678
	c0.394-4.931,0.673-9.862,0.671-14.801c-12.797-8.325-9.295-24.741-1.531-36.023c0.356-0.519,2.398-1.224,2.873-0.663
	c9.224,10.916,12.114,26.598,3,38.385c-0.231,0.299-0.861,0.468-1.471,0.551c-0.163,7.514-0.9,15.014-1.601,22.519
	c0.203,0.027,0.158,0.123-0.022,0.249c-0.073,0.783-0.146,1.567-0.218,2.352c5.442-7.734,16.861-11.385,26.772-11.903
	c0.025-0.001,0.528,0,0.496,0.153c-3.055,14.199-13.797,25.469-28.277,26.568c-0.127,3.618-0.146,7.239,0.038,10.867
	c0.031,0.619-0.996,1.066-1.837,1.152c3.17,0.908,6.208,2.753,8.459,4.843c4.121,3.827,7.931,9.388,13.546,10.661
	c0.132-0.087,0.28-0.166,0.458-0.228c16.328-5.702,29.539-17.595,45.623-23.862c7.021-2.736,17.533-1.692,22.398-8.432
	c2.225-3.081,3.95-6.54,6.362-9.484c2.676-3.268,5.456-6.346,7.492-10.078c0.055-0.101,0.135-0.188,0.226-0.271
	c-2.217-2.273-3.926-4.882-4.627-7.858c-0.018-0.076,0.012-0.154,0.075-0.231c-0.094-0.117-0.101-0.28,0.03-0.501
	c0.168-0.285,0.328-0.573,0.495-0.859c-2.365-0.771-4.948-1.828-7.21-3.279c-3.226,6.279-5.851,14.354-11.281,18.637
	c-5.773,4.553-13.356,5.2-19.368,9.279c-9.813,6.66-19.024,15.367-30.286,19.263c-0.051,0.485-0.686,1.101-1.514,1.192
	c-1.09,0.122-2.179,0.166-3.255,0.118c-1.157,0.237-2.334,0.428-3.539,0.55c-1.512,0.154-0.266-0.596,0.667-0.945
	c-1.16-0.288-2.285-0.738-3.352-1.4c-2.686-1.667-5.15-4.14-8.33-4.834c-0.985-0.215-5.065-1.801-4.749,0.408
	c0.163,1.137,0.561,2.213,1.106,3.223c1.48,2.737,3.463,5.183,5.632,7.401c0.61,0.624-0.616,1.36-1.652,1.444
	c-0.465,0.316-1.118,0.485-1.623,0.485c-0.667,0-1.333,0-2,0c-0.325,0-1.183-0.104-0.722-0.614c0.433-0.481,1.304-0.729,1.929-0.729
	c0.274,0,0.55,0,0.823,0c-2.844-3.053-10.365-12.054-3.945-13.893c3.184-0.912,7.467,0.28,10.254,1.892
	c4.531,2.619,7.387,5.757,13.105,5.117c0.134-0.016,0.253-0.02,0.361-0.017c11.931-3.953,20.282-14.769,31.531-20.288
	c6.498-3.189,14.63-4.088,18.955-10.49c3.663-5.422,6.117-11.501,9.408-17.137c-1.261-1.045-2.337-2.252-3.097-3.65
	c-2.327-4.281-1.532-4.328,0.775-7.996c4.125-6.558,8.657-12.444,11.292-19.875c1.965-5.541,2.6-11.111,6.593-15.654
	c-1.712-2.37-3.243-4.919-4.646-7.455c-6.806-2.385-12.868-1.988-19.688,0.158c-3.274,1.03-6.894,2.309-10.377,1.48
	c-6.785-1.615-9.265-8.701-11.733-14.465c-0.01-0.024-0.011-0.047-0.019-0.071c-0.471,0.182-0.99,0.279-1.473,0.271
	c-2.413-0.044-5.89-0.493-5.453-3.676c0.321-2.338,2.019-4.469,3.401-6.344c-3.305-4.955-5.006-10.788-7.457-16.18
	c-0.291-0.642,2.525-1.598,2.898-0.777c2.385,5.247,4.027,10.987,7.22,15.831c0.315,0.018,0.58,0.09,0.427,0.301
	c-0.039,0.054-0.08,0.108-0.119,0.162c0.131,0.19,0.246,0.389,0.382,0.575c0.355,0.488-0.761,1.064-1.683,1.21
	c-0.873,1.24-1.677,2.557-2.051,3.973c-0.791,2.997,1.808,3.703,4.315,3.749c0.008,0,0.011,0.003,0.018,0.004
	c0.739-0.51,2.141-0.623,2.491,0.195c3.43,8.01,6.736,15.688,16.971,12.466c7.133-2.245,13.473-3.31,20.424-1.656
	c-0.937-1.779-1.818-3.517-2.662-5.14c-6.82-13.119-14.043-27.449-15.924-42.283c-16.906,5.578-33.508,11.724-51.047,15.249
	c-3.904,1.894-12.965,4.798-16.188,1.577c-4.567-4.564,5.966-7.98,8.715-8.699c3.962-1.037,7.95-1.907,11.896-2.998
	c2.737-0.757,7.803-1.219,8.559-4.543c0.687-3.014,0.014-6.299-0.444-9.303c-1.531-10.055-1.914-19.047,7.239-25.314
	c9.048-6.196,20.932-10.177,31.456-12.873c9.729-2.494,20.56-3.072,28.812,3.708c4.164,3.421,7.193,7.647,9.469,12.51
	c1.005,2.147,2.393,6.054,5.091,6.559c0.463,0.087,0.981,0.11,1.536,0.087c1.114-0.33,2.229-0.657,3.342-0.991
	c0.563-0.169,3.12-1.286,2.041-0.528c0.416-0.293,1.043-0.354,1.554-0.253c1.947-0.769,3.762-1.654,5.034-2.38
	c0.992-0.565,15.936-8.264,14.137-1.549c-1.921,7.171-13.934,10.981-20.584,13.352c7.952,12.744,17.478,24.393,27.837,35.254
	c9.056,9.494,19.765,18.039,27.688,28.529c3.176,4.205,17.663,29.577,10.036,33.675c0.116,0.233,0.245,0.454,0.356,0.69
	c3.518,7.449,5.92,15.387,9.772,22.679c4.139,7.833,9.037,14.229,14.668,20.991c3.602,4.326,6.589,9.042,10.207,13.349
	c1.726,2.055,3.44,4.119,5.155,6.183c0.291,0.049,0.551,0.17,0.729,0.393c7.974,9.944,7.373,27.736,2.504,38.755
	c-5.556,12.569-16.325,19.258-27.849,25.696c-13.155,7.35-26.754,13.904-40.415,20.252c-2.569,1.193-5.151,2.357-7.728,3.535
	c9.784,0.048,19.561,0.605,29.303,1.509c8.992,0.834,18.507,3.077,27.527,2.782c3.732-0.121,7.373-0.63,9.859,2.307
	c0.001-0.002,0.002-0.002,0.003-0.003c6.851-4.744,12.349-3.47,17.225,3.161c3.272,4.451,6.431,8.517,11.866,10.514
	c5.778,2.123,11.862,2.962,17.441,5.636C432.716,444.728,432.997,444.865,433.088,445.141z M156.048,327.23
	c0.042,0.257-0.407,0.51-0.964,0.691c0,0.002,0,0.003,0,0.005c10.183-0.226,17.694-6.895,22.023-15.774
	c1.115-2.288,2.093-4.649,2.811-7.095c0.166-0.566,0.327-1.135,0.463-1.71C167.03,304.57,153.539,311.874,156.048,327.23z
	 M154.19,273.25c-0.135-0.999,2.78-1.648,2.898-0.777c0.605,4.487,0.835,8.965,0.839,13.438c0.156,0.1,0.321,0.196,0.482,0.294
	c6.311-10.702,3.823-23.815-3.583-33.655c-5.99,10.01-8.427,23.027,0.152,31.076C154.888,280.17,154.658,276.713,154.19,273.25z
	 M127.411,288.084c3.399,11.889,12.608,22.151,25.031,23.337C154.202,296.346,140.592,289.112,127.411,288.084z M122.258,257.611
	c0.641-1.95,1.293-3.889,1.957-5.812c0.24-0.693,3-0.979,2.85-0.543c-1.072,3.103-2.115,6.244-3.119,9.417
	c0.189,0.285,0.387,0.57,0.594,0.854c10.191-7.207,13.095-20.633,10.145-32.653C124.902,235.536,117.368,246.593,122.258,257.611z
	 M111.746,299.172c0.264-1.582,0.545-3.161,0.842-4.738c0.363-10.455-5.781-20.104-14.637-26.134
	C95.264,280.866,97.846,295.93,111.746,299.172z M115.149,341.209c0.142,0.354-1.61,1.018-2.463,0.971
	c0.005,0.049,0.009,0.098,0.015,0.146c0.1-0.033,0.199-0.063,0.295-0.083c13.525-2.865,20.431-17.048,20.517-29.965
	C120.824,316.36,109.51,327.042,115.149,341.209z M116.32,372.061c-0.005-0.012-0.009-0.023-0.014-0.035
	c-0.603,0.098-1.133,0.085-1.148-0.096c-1.27-15.228-16.17-19.645-29.332-17.751C91.567,365.396,103.398,374.475,116.32,372.061z
	 M177.167,411.26c-26.447,0-52.895,0-79.343,0c0.016,0.33-0.275,0.664-0.687,0.909c0.026-0.003,0.053-0.005,0.079-0.007
	c0.995-0.827,0.625,0.189,0.981,1.511c0.452,1.677,0.936,3.346,1.429,5.012c1.388,4.683,2.824,9.351,4.25,14.021
	c1.346,4.406,2.711,8.808,3.971,13.238c0.344,1.208,1.271,3.23,1.288,4.787c19.147,0,38.294,0,57.441,0
	c0.261-2.02,1.165-4.172,1.696-6.077c1.209-4.341,2.432-8.679,3.64-13.021c1.302-4.68,2.609-9.359,3.828-14.061
	c0.415-1.604,0.84-3.207,1.193-4.825C177.076,412.1,177.028,411.467,177.167,411.26z M177.881,411.311
	c-0.048-0.016-0.095-0.032-0.14-0.051c-0.092,0-0.185,0-0.276,0c0.039,0.023,0.072,0.038,0.119,0.076
	C177.684,411.328,177.782,411.319,177.881,411.311z M130.065,396.012c-0.45,0.115-0.874,0.149-1.104,0.002
	c-13.069,0.027-26.138,0.055-39.207,0.058c0,4.353,0,8.704,0,13.058c32.727,0,65.454,0,98.182,0c0.029-4.402,0.2-8.801,0.234-13.202
	C168.803,395.929,149.434,395.972,130.065,396.012z M351.099,265.02c0.003,0.005,0.006,0.011,0.009,0.016
	c0.001-0.019,0.004-0.031,0.004-0.051C351.107,264.996,351.104,265.007,351.099,265.02z M266.51,174.466
	c5.481-1.749,10.949-3.576,16.337-5.609c0.011-0.35,1.616-1.053,2.463-0.946c1.774-0.695,3.54-1.412,5.291-2.164
	c3.757-1.612,11.87-4.514,13.108-9.139c1.32-4.93-6.131-0.965-7.966,0.096c-1.741,1.005-3.473,1.693-5.351,2.439
	c-0.61,0.242-1.271,0.523-1.961,0.816c0.041,0.225-0.096,0.497-0.525,0.799c-2.535,1.781-7.029,2.229-9.924,3.084
	c-7.574,2.235-15.137,4.534-22.756,6.611c-14.729,4.017-29.275,8.583-43.687,13.62c-1.745,0.61-2.172-1.161-0.471-1.756
	c13.975-4.885,28.077-9.363,42.36-13.258c7.603-2.073,15.151-4.338,22.709-6.568c0.274-0.081,0.548-0.163,0.822-0.243
	c-3.912-1.258-4.987-5.671-6.838-9.037c-2.705-4.923-6.403-9.612-11.452-12.312c-13.702-7.326-30.568,0.239-43.687,5.887
	c-5.693,2.45-13.049,6.151-15.133,12.52c-2.364,7.225,0.378,14.453,0.745,21.729c0.45,8.934-8.743,9.971-15.841,11.589
	c-3.363,0.767-13.41,1.634-14.356,5.67c-1.233,5.266,7.472,3.429,11.511,1.964c0.291-0.283,0.81-0.576,1.312-0.672
	c16.329-3.1,31.913-8.461,47.588-13.869C242.612,181.644,254.617,178.262,266.51,174.466z M283.425,169.809
	c-3.994,1.484-8.021,2.869-12.065,4.191l12.331-3.775C283.603,170.086,283.513,169.948,283.425,169.809z M255.039,292.48
	c7.044-12.594,12.259-26.035,18.639-38.946c-4.738-1.409-8.583-4.64-11.813-8.622c-3.052,4.202-3.47,9.157-5.371,13.996
	c-1.885,4.797-4.259,9.335-6.796,13.814c-2.109,3.728-8.596,7.836-5.413,12.361C246.942,288.862,250.782,291.026,255.039,292.48z
	 M247.969,354.391c6.338-3.148,12.346-7.028,16.775-12.393c6.603-7.997,14.316-15.648,18.369-25.333
	c0.038-0.091,0.112-0.175,0.209-0.251c-4.091-0.323-8.184-1.688-11.815-3.369c-3.755-1.738-8.212-4.117-11.833-7.209
	c-2.08,3.402-4.758,6.229-7.163,9.43c-2.6,3.461-4.582,7.317-7.333,10.667c-4.613,5.618-13.792,5.567-20.145,7.36
	c-16.529,4.665-29.702,17.081-45.528,23.611c0.468,0.421-0.329,1.359-1.394,1.441c-10.916,0.845-14.001-9.417-22.367-13.852
	c-1.098-0.582-7.844-3.696-7.405-1.453c0.318,1.628,1.042,3.139,1.841,4.583c1.646,2.977,3.555,5.803,5.175,8.794
	c0.356,0,0.712,0.002,1.067,0.002c1.962,0,1.459,2.217-0.232,2.217c-9.789-0.002-19.557-0.091-29.224-1.709
	c0.061,1.086,0.519,2,1.253,2.777c0.907-0.433,2.355-0.467,2.201,0.301c-0.085,0.423-0.124,0.826-0.137,1.216
	c5.178,2.744,14.949,2.838,18.513,3.21c1.957,0.205,0.495,2.347-0.98,2.193c-3.327-0.348-11.083-0.523-16.853-2.41
	c2.476,4.632,11.049,6.014,15.568,6.544c1.623,0.19-0.901,1.643-1.783,1.539c-2.893-0.34-7.17-1.026-10.759-2.537
	c2.444,4.368,7.081,6.927,12.272,6.499c1.914-0.158-0.471,1.14-1.244,1.203c-1.287,0.105-2.553,0.063-3.777-0.116
	c6.125,6.162,21.902,1.652,26.51-4.281c0.497-0.64,1.632-0.715,2.267-0.377c9.813-2.743,20.632-2.056,30.669-3.775
	c12.298-2.106,24.604-4.969,36.201-9.654c2.795-1.129,5.666-2.323,8.505-3.637c0.009-0.08,0.013-0.16,0.022-0.24
	C245.522,354.449,247.199,353.972,247.969,354.391z M281.781,323.973c13.622,2.888,26.928,7.529,38.546,15.293
	c-0.775-9.111-5.654-16.755-14.179-20.651c-3.196-1.46-8.846-3.504-10.816-6.999c-0.865,1.362-1.742,2.719-2.646,4.063
	c-0.484,0.721-2.128,0.919-2.711,0.502c-0.094-0.067-0.158-0.15-0.188-0.25c-0.266,0.067-0.534,0.121-0.802,0.175
	c-1.034,0.209-2.082,0.335-3.138,0.37C284.715,319.128,283.342,321.609,281.781,323.973z M321.779,342.242
	c-0.143-0.025-0.285-0.051-0.428-0.077c-0.534,0.216-1.159,0.255-1.582-0.043c-0.175-0.123-0.354-0.238-0.529-0.36
	c-0.372-0.073-0.744-0.144-1.115-0.221c-0.844-0.175-1.014-0.641-0.823-1.084c-11.192-7.278-23.944-11.66-36.979-14.385
	c-1.167,1.611-2.409,3.178-3.719,4.713c-3.7,4.338-7.121,9.176-11.168,13.186c-4.909,4.862-10.889,8.477-17.123,11.497
	c-1.578,15.074,7.325,30.484,14.967,43.086c1.767-2.195,3.609-4.332,5.516-6.411c6.206-6.771,12.922-13.005,19.767-19.103
	c-0.104-0.061-0.194-0.136-0.258-0.237c-2.083-3.341-2.632-7.719-5.334-10.667c-0.891-0.972,1.872-2.085,2.67-1.215
	c2.597,2.834,3.212,6.93,5.08,10.207c10.563-9.341,21.337-18.458,30.948-28.796C321.696,342.302,321.734,342.271,321.779,342.242z
	 M389.405,331.429c-4.294-5.261-8.417-10.564-12.548-15.95c-4.304-5.611-9.445-10.479-13.127-16.563
	c-3.554-5.873-6.656-11.952-9.177-18.338c-2.77-7.017-5.299-14.586-9.951-20.633c-4.099-5.328-9.049-10.404-13.944-15.008
	c-5.043-4.744-10.271-8.511-16.897-10.64c-1.082-0.348-2.446-0.833-3.951-1.325c-5.522-1.145-10.244-1.354-14.032-0.963
	c-0.001,0-0.002,0.001-0.002,0.001c-0.36,0.235-1.454,0.38-2.104,0.308c-9.336,3.022-14.65,15.605-18.356,23.68
	c-6.102,13.293-11.816,26.8-19.263,39.417c0.014,0.019,0.029,0.035,0.035,0.058c1.453,6.168,7.563,10.767,12.764,13.797
	c5.467,3.186,14.764,8.063,21.375,5.648c1.582-2.365,3.1-4.763,4.563-7.187c0.024-0.106,0.045-0.21,0.076-0.318
	c0.045-0.158,0.182-0.301,0.371-0.424c8.315-13.93,14.721-28.792,19.603-44.342c0.381-1.213,3.344-1.552,2.932-0.238
	c-5.028,16.014-11.592,31.301-20.216,45.61c-0.531,6.095,10.498,8.781,14.572,11.105c7.382,4.211,10.994,13.065,11.198,21.187
	C345.597,344.204,369.403,342.51,389.405,331.429z M430.232,446.059c-7.91-3.852-17.994-3.697-24.615-9.996
	c-4.889-4.65-8.924-16.328-17.507-10.384c-0.307,0.212-1.148,0.355-1.792,0.347c0.068,0.102,0.141,0.193,0.207,0.301
	c4.244,6.87,2.141,15.426,3.808,23.055c7.981,0.027,15.976,0.24,23.952-0.089c4.241-0.175,8.499-0.423,12.707-1.015
	C429.77,447.887,430.953,448.367,430.232,446.059z M230.445,223.77c-0.2,0.086-1.294,0.571-0.83,0.947
	c0.45,0.365,1.424,0.102,1.885-0.094c3.528-1.504,5.62-4.207,4.922-8.148c-0.133-0.75-3.049-0.074-2.898,0.777
	C234.008,219.982,233.142,222.621,230.445,223.77z M474.18,329.146c0.008-0.045,0.02-0.088,0.027-0.133
	c-0.096-0.027-0.191-0.049-0.287-0.077c-1.391,1.752-2.732,3.523-3.94,5.356c-0.051,0.077-0.129,0.146-0.219,0.213
	c0,5.986,0,11.973,0,17.959c12.314-0.093,24.629-0.182,36.944-0.187c0.352,0,0.619,0.07,0.817,0.183
	c0.759-0.157,1.557-0.025,1.556,0.618c-0.016,9.001-0.234,17.999-0.25,27c-0.001,0.827-2.133,1.397-2.736,0.768
	c-1.466,0-2.932,0-4.396,0c0.2,2.938-1.137,7.503-1.384,9.507c-1.01,8.201-2.094,16.394-3.2,24.582
	c-1.15,8.513-2.317,17.023-3.552,25.524c-0.423,2.913-0.165,8.388-1.784,10.977c-0.553,0.883-1.922,1.271-2.712,0.472
	c-0.004-0.004-0.007-0.008-0.011-0.011c-0.018-0.018-0.025-0.036-0.041-0.054c-15.59,0-31.18,0-46.771,0c-0.122,0-0.243,0-0.366,0
	c-0.063,0-0.126,0-0.189,0c-0.804,0-0.928-0.27-0.728-0.587c-1.556-2.079-1.381-8.153-1.681-10.263
	c-1.172-8.23-2.271-16.471-3.343-24.716c-1.073-8.261-2.132-16.525-3.089-24.801c-0.256-2.204-2.016-8.202-1.038-10.631
	c-1.698,0-3.397,0-5.097,0c-0.639,0-1.008-0.227-1.162-0.53c-0.098-0.033-0.16-0.08-0.16-0.146
	c0.003-8.758,0.039-17.516,0.041-26.273c0-0.109,0.053-0.211,0.139-0.306c0.176-0.472,0.695-0.897,1.438-0.898
	c12.676-0.005,25.352-0.098,38.026-0.194c-5.972-4.237-11.281-9.246-15.763-14.854c-15.299,7.795-29.628-3.295-36.972-17.114
	c-0.235-0.444,1.896-0.881,2.093-0.91c9.872-1.492,20.312,0.723,27.547,6.957c-2.681-4.969-4.779-10.24-6.209-15.732
	c-0.199,0.021-0.383,0.021-0.515-0.039c-15.229-6.848-13.008-24.377-5.831-36.654c0.292-0.5,2.315-1.176,2.794-0.749
	c10.55,9.401,15.044,24.251,6.876,36.582c-0.074,0.111-0.207,0.204-0.371,0.285c4.273,16.202,14.359,30.468,28.169,40.563
	c0-11.056,0-22.112,0-33.169c-0.291,0.087-0.545,0.143-0.675,0.137c-17.383-0.72-22.145-19.06-20.591-33.721
	c0.078-0.734,2.275-1.104,2.819-0.863c8.384,3.696,15.377,10.388,18.446,18.578c0-9.13,0-18.26,0-27.39
	c-12.229-9.746-6.875-25.812,2.26-36.257c0.375-0.43,2.449-1.302,2.873-0.662c7.964,12.008,8.907,27.9-1.577,38.606
	c-0.109,0.112-0.352,0.218-0.646,0.308c0,18.114,0,36.228,0,54.342c2.281-3.008,4.794-5.932,7.153-8.944
	c0.575-0.92,1.224-1.765,1.931-2.548c2.786-3.827,5.158-7.868,6.348-12.469c0.604-2.335,1.069-4.699,1.487-7.07
	c-0.378-0.006-0.522-0.092-0.061-0.324c0.047-0.023,0.087-0.052,0.133-0.076c0.054-0.307,0.105-0.614,0.158-0.922
	c-9.883-13.623,1.039-27.728,13.371-34.879c0.282-0.164,2.388-0.985,2.545-0.396c3.613,13.584-0.374,28.66-12.982,35.674
	c-0.637,3.715-1.43,7.395-2.795,10.938c-0.695,1.806-1.563,3.523-2.541,5.183c8.033-4.243,19.109-4.201,27.904-2.006
	c0.1,0.024,0.344,0.083,0.224,0.251c-8.394,11.872-23.325,19.725-37.685,16.063C474.506,329.242,474.168,329.217,474.18,329.146z
	 M487.648,293.954c0.979-5.854,2.088-11.661,4.64-17.126c0.404-0.864,3.299-1.211,2.701,0.07
	c-3.013,6.448-3.772,13.435-4.886,20.339c9.956-7.183,12.877-20.405,10.063-32.308C490.205,271.582,482.49,282.754,487.648,293.954z
	 M477.131,328.109c10.371,2.808,20.071-1.317,27.669-8.758c1.659-1.624,3.257-3.33,4.649-5.192c0.455-0.608,0.567-0.234-0.652-0.479
	c-9.14-1.828-19.672-1.589-26.111,4.071c-1.229,1.787-2.563,3.518-3.935,5.226C478.029,324.486,477.48,326.191,477.131,328.109z
	 M448.308,285.458c-0.778,12.739,3.207,28.458,16.878,30.938C467.609,303.233,459.657,291.547,448.308,285.458z M437.982,307.387
	c5.18-10.84,1.459-23.063-6.976-31.543c-5.646,11.083-7.052,25.375,4.112,32.482c-1.124-5.097-1.678-10.366-1.596-15.742
	c0.014-0.904,2.906-1.333,2.898-0.775C436.341,297.129,436.883,302.342,437.982,307.387z M446.403,337.945
	c-4.759-12.715-17.888-18.637-30.861-17.563C421.438,331.082,433.65,343.471,446.403,337.945z M498.41,380.847
	c-21.204,0-42.41,0-63.614,0c-0.041,0.122-0.11,0.236-0.2,0.343c-0.608,2.129,1.14,9.474,1.408,11.733
	c0.935,7.856,1.931,15.705,2.955,23.55c1.003,7.681,2.022,15.359,3.114,23.028c0.364,2.561,0.728,5.122,1.137,7.677
	c0.13,0.814,0.892,3.273,0.285,2.741c0.122,0.107,0.2,0.218,0.257,0.329c15.214,0,30.428,0,45.643,0
	c0.93-2.599,0.969-7.761,1.333-10.289c1.145-7.942,2.243-15.891,3.317-23.842c1.084-8.024,2.155-16.051,3.15-24.087
	c0.352-2.849,0.707-5.697,1.006-8.552C498.256,382.961,498.314,381.606,498.41,380.847z M428.325,354.818
	c-0.006,7.966-0.034,15.932-0.037,23.897c23.811,0,47.62,0,71.43,0c0.354-0.084,0.768-0.119,1.096,0c1.709,0,3.418,0,5.127,0
	c0.036-8.103,0.206-16.203,0.233-24.306C480.224,354.422,454.275,354.793,428.325,354.818z M469.761,255.373
	c0,6.069,0,12.14,0,18.209c0.087,0.068,0.178,0.134,0.266,0.201c7.458-9.912,6.343-23.338,0.069-33.902
	c-7.098,9.293-10.975,21.967-3.245,30.939c0-5.045,0-10.09,0-15.135C466.851,254.616,469.761,254.043,469.761,255.373z" fill="#231f20"></path>
</svg>