<?xml version="1.0" encoding="utf-8"?>
<!-- Generator: Adobe Illustrator 25.4.1, SVG Export Plug-In . SVG Version: 6.00 Build 0)  -->
<svg version="1.1" id="Layer_1" xmlns="http://www.w3.org/2000/svg" xmlns:xlink="http://www.w3.org/1999/xlink" x="0px" y="0px"
	 viewBox="0 0 595.3 595.3" style="enable-background:new 0 0 595.3 595.3;" xml:space="preserve">
<style type="text/css">
	.st0{fill:#761214;}
	.st1{fill:#231F20;}
</style>
<path id="color_x5F_2" class="st0" d="M486.6,367.5c-8.4,0-16.8,0-25.2,0c-0.1,0-0.2,0-0.3,0c0.6-2.5,1.2-5.1,1.7-7.6
	c7.1,0,14.1,0,21.2,0c0.2,0,0.5-0.1,0.8-0.2C485.4,362.3,486,364.9,486.6,367.5z M419.4,359.9c-7.1,0-14.1,0-21.2,0
	c-0.6,2.5-1.2,5.1-1.7,7.6c0.1,0,0.2,0,0.3,0c8.4,0,16.7,0,25.1,0c-0.6-2.6-1.2-5.1-1.8-7.7C419.8,359.8,419.5,359.9,419.4,359.9z
	 M227.5,339c0.8,0,1.7,0,2.5,0c0.3,0,0.6-0.1,0.8,0c2.9,0,5.7,0,8.6,0c0.3,0,0.6-0.1,0.8,0c1.9,0,3.8,0,5.7,0l3.6-0.1
	c0-7.3,0-14.6,0-21.9c-7.2,7.2-14.3,14.5-21.5,21.8C227.9,338.9,227.7,339,227.5,339z M222.3,306.6l-0.1,0.2
	C222.2,306.7,222.3,306.6,222.3,306.6C222.3,306.6,222.3,306.6,222.3,306.6z M224.6,306.6c-10.7,10.7-21.2,21.5-31.9,32.2
	c-0.1,0.1-0.3,0.2-0.5,0.3c5.2,0,10.5,0,15.7,0c0,0,0-0.1,0.1-0.2c10.7-10.7,21.3-21.6,32-32.3C234.8,306.6,229.7,306.6,224.6,306.6
	z M189.3,306.6c-10.7,10.7-21.2,21.5-31.9,32.2c-0.1,0.1-0.3,0.2-0.5,0.3c5.2,0,10.5,0,15.7,0c0,0,0-0.1,0.1-0.2
	c10.7-10.7,21.3-21.6,32-32.3C199.5,306.6,194.4,306.6,189.3,306.6z M151.3,306.6c-7.7,7.7-15.5,15.5-23.2,23.2c0,3.1,0,6.2,0,9.2
	c3.1,0,6.2,0,9.3,0c0,0,0-0.1,0-0.1c0.1-0.2,0.2-0.3,0.4-0.4c10.6-10.6,21-21.3,31.6-31.9C163.3,306.6,157.3,306.6,151.3,306.6z
	 M337.6,308.8c-3.6-2-7-4.4-10.4-6.8c-3.8,1.9-7.8,4.1-12,6c0.6-0.1,1.2,0,1.2,0.5c-0.3,5-0.7,9.9-0.7,14.9c0.5-0.2,1-0.3,1.3-0.2
	c6.9,2.3,13.9,1.4,20.9,0.3c-0.1-4.7-0.5-9.3-0.7-14C337.1,309.2,337.3,308.9,337.6,308.8z M315.6,324.6h0.4c-0.1,0-0.3-0.1-0.4-0.1
	C315.6,324.5,315.6,324.5,315.6,324.6z M337.6,245.9c-4.4,3.7-10,5.9-15.3,3.4c-2.3,9.9-4.9,20.2-5,30.3c0,0.4-0.4,0.7-0.8,0.9
	c1.1,0.1,2.2,0.2,3.1,0.4c6,1,11.5,3.6,17.4,4.5c0.3,0,0.7,0.1,1,0.1c-0.1-13.2,0.1-26.2,2.4-39.3c0-0.2,0.2-0.4,0.5-0.5
	c-0.4-0.2-0.8-0.4-1.1-0.6C339.5,245.7,338.2,246.1,337.6,245.9z M286.8,279.2c6-0.9,11.8-0.9,17.2,2c1.1-11.7,3.4-22.3,8.3-33
	c-5.7,0.8-11.5,1.8-15.4,5.5C290.3,259.9,289.6,271,286.8,279.2z M362.3,249.6c-3.2-1.1-6.7-1.4-10.2-1.7c0,0,0,0.1,0,0.1
	c1,12.2,0,24.5,0,36.7c0,0.1,0,0.1,0,0.2c6.1,2.3,12.8,2.6,19,0.9l1-0.6C371,274.8,374.5,254,362.3,249.6z M322.3,192.3
	c-11.5,0.5-18.6,7.8-18.8,19.2c0,0.3-0.3,0.6-0.8,0.8c13.7,0,27.3,0,41,0c0,0,0-0.1,0-0.1c0-0.4,0.2-0.7,0.6-0.9
	C345,199.8,332.9,191.9,322.3,192.3z"/>
<path id="color_x5F_1" class="st1" d="M312.9,229c-0.5,0.3-1.2,0.5-1.8,0.5c-1.2,0-2.4,0-3.5-0.5c0,0-0.1-0.1-0.1-0.1
	c0-1.2,0.7-1.9,1.2-2.9c0.2-0.5,1-0.6,1.5-0.7c0.1,0,1.3-0.1,1,0.3c-0.4,0.7-1,1.4-1.1,2.2c-0.1,0.6,0.6,0.6,1,0.6
	c0.5,0,1.1,0,1.6,0C313.3,228.4,313.3,228.8,312.9,229z M324.6,230.5c0.3-0.5-0.3-0.6-0.6-0.5c-0.5,0-1.4,0.2-1.7,0.6
	c-0.2,0.3-0.5,0.7-0.8,0.9c0,0,0,0,0,0c-0.2,0-0.4,0-0.7,0c-0.6,0-1.3,0.2-1.7,0.6c-0.4,0.5,0.3,0.5,0.6,0.5
	C321.6,232.7,323.5,232.1,324.6,230.5z M308.9,222.1c0-0.4,0-0.8,0-1.2c0-0.6-0.6-0.7-1.1-0.7c-0.4,0-1.4,0.4-1.4,0.9
	c0,0.4,0,0.8,0,1.2c0,0.6,0.6,0.7,1.1,0.7C307.9,223,308.9,222.7,308.9,222.1z M320.1,223c0.4,0,1.4-0.4,1.4-0.9c0-0.4,0-0.8,0-1.2
	c0-0.6-0.6-0.7-1.1-0.7c-0.4,0-1.4,0.4-1.4,0.9c0,0.4,0,0.8,0,1.2C319,223,319.6,223.1,320.1,223z M321.2,217.2
	c0.4-0.4-0.4-0.5-0.6-0.5c-0.7,0-1.3,0-2,0c-0.5,0-1.3,0.2-1.7,0.6c-0.4,0.4,0.4,0.5,0.6,0.5c0.7,0,1.3,0,2,0
	C320.1,217.9,320.8,217.6,321.2,217.2z M309.7,217.2c0.4-0.4-0.4-0.5-0.6-0.5c-0.7,0-1.3,0-2,0c-0.5,0-1.3,0.2-1.7,0.6
	c-0.4,0.4,0.4,0.5,0.6,0.5c0.7,0,1.3,0,2,0C308.6,217.9,309.4,217.6,309.7,217.2z M268.8,403.5c-15.5,0-31.1,0-46.6,0
	c-1.3,0,1.1-1.1,1.7-1.1c1.6,0,3.2,0,4.7,0c0,0,0,0,0,0c0-20.7,0-41.4,0-62.1c-16.4,0-32.8,0-49.1,0c0,11.2,0,22.4,0,33.6
	c0.3,0.1,0.2,0.3,0,0.5c0,8.6,0,17.2,0,25.8c0,0.4-0.5,0.7-1.1,0.9c-0.1,0.3-1.6,0.9-2,0.9c-20,0-40.1,0-60.1,0
	c-1.3,0,1.1-1.1,1.6-1.1c6.5,0,13,0,19.5,0c0-20.2,0-40.4,0-60.7c-3.7,0-7.3,0-11,0c-0.5,0-0.8,0-0.8-0.3c0-11.1,0-22.3,0-33.4
	c0-0.1,0-0.2,0.1-0.2c-0.1-0.3,1.2-1,1.7-1c3.3,0,6.7,0,10,0c-0.2-55.7-0.1-111.4,0-167h-5.1v-10.7h-9.1v-11.5h-30v-5.8h-30V93.9h30
	v-3.3h30v-14h70.3v7h10.2v6.6c6.9,0,13.8,0,20.7,0c0.2,0,0.4,0,0.5,0c6.9,0,13.8,0,20.7,0c0.3-0.1,0.7-0.1,1,0c6.9,0,13.8,0,20.8,0
	c0.2,0,0.4,0,0.6,0c7,0,14.1,0,21.1,0c0,0,0,0,0,0c0.1,0,0.1,0,0.2,0c0.1,0,0.1,0,0.2,0c0,0,0,0,0,0c6.9,0,13.8,0,20.7,0
	c0.2,0,0.4,0,0.5,0c6.9,0,13.8,0,20.7,0c0.3-0.1,0.7-0.1,1,0c6.9,0,13.8,0,20.8,0c0.2,0,0.4,0,0.6,0c7.2,0,14.3,0,21.5,0
	c0.6,0,0.8,0.2,0.7,0.4c0.1,0.1,0.1,0.2,0.1,0.4c0,7.9,0,15.7,0,23.6c0,0.1,0,0.2-0.1,0.2c0,0,0,0,0,0c0.3,0.4-0.3,0.8-0.9,1
	c-0.3,0.1-0.6,0.2-0.8,0.2c-28.7,0.1-57.3,0.1-86,0c-28.2,0.1-56.4,0.1-84.7,0v6.1h-10.2v5.3h-8.2v10.7h-5.8
	c-0.1,22.7-0.2,45.5-0.2,68.2c0.1,0.1,0.1,0.2,0,0.4c0,11.5,0,23.1,0,34.6c0,0.1,0,0.2,0,0.3c0,21.2,0.1,42.4,0.2,63.5
	c24,0,47.9,0,71.9,0c0.6,0,0.8,0.2,0.6,0.4c0.1,0,0.1,0.1,0.1,0.2c0,11.1,0,22.3,0,33.4c0,0.5-0.9,0.8-1.6,0.9c0,0,0,0-0.1,0
	c-0.1,0-0.3,0-0.4,0c-3.2,0-6.3,0-9.5,0c0,20.5,0,41,0,61.5c0,0.3-0.3,0.5-0.6,0.7c10.2,0,20.4,0,30.6,0
	C271.7,402.4,269.3,403.5,268.8,403.5z M204,112.6c2.8-3,5.4-6.1,8-9.2c-2.6-3.1-5.3-6.2-8-9.2C204,100.4,204,106.5,204,112.6z
	 M221.8,114.6c-3-3.1-5.7-6.3-8.5-9.6c-2.8,3.3-5.5,6.5-8.5,9.6C210.5,114.6,216.1,114.6,221.8,114.6z M225.5,112.6
	c2.8-3,5.4-6.1,8-9.2c-2.6-3.1-5.3-6.2-8-9.2C225.5,100.4,225.5,106.5,225.5,112.6z M223,93.9c-2.8,3-5.4,6.1-8,9.2
	c2.6,3.1,5.3,6.2,8,9.2C223,106.1,223,100,223,93.9z M243.4,114.6c-3-3.1-5.8-6.4-8.5-9.6c-2.8,3.3-5.6,6.5-8.5,9.6
	C232,114.6,237.7,114.6,243.4,114.6z M247.1,112.6c2.8-3,5.4-6.1,8-9.2c-2.6-3.1-5.3-6.2-8-9.2C247.1,100.4,247.1,106.5,247.1,112.6
	z M244.5,93.9c-2.8,3-5.4,6.1-8,9.2c2.6,3.1,5.3,6.2,8,9.2C244.5,106.1,244.5,100,244.5,93.9z M264.9,114.6c-3-3.1-5.7-6.3-8.5-9.6
	c-2.8,3.3-5.6,6.5-8.6,9.6C253.5,114.6,259.2,114.6,264.9,114.6z M268.6,112.6c2.8-3,5.4-6.1,8-9.2c-2.6-3.1-5.3-6.2-8-9.2
	C268.6,100.4,268.6,106.5,268.6,112.6z M266,93.9c-2.8,3-5.4,6.1-8,9.2c2.6,3.1,5.3,6.2,8,9.2C266,106.1,266,100,266,93.9z
	 M286.4,114.6c-2.9-3.1-5.7-6.3-8.5-9.6c-2.8,3.3-5.6,6.5-8.5,9.6C275.1,114.6,280.8,114.6,286.4,114.6z M290.2,112.2
	c2.6-2.9,5.1-5.8,7.7-8.8c-2.5-3-5-5.9-7.7-8.8C290.2,100.5,290.2,106.4,290.2,112.2z M287.2,94.3c-2.6,2.9-5.1,5.8-7.7,8.8
	c2.5,3,5,6,7.7,8.8C287.2,106,287.2,100.1,287.2,94.3z M307.6,114.6c-2.9-3.1-5.7-6.3-8.5-9.6c-2.8,3.3-5.5,6.5-8.5,9.6
	C296.3,114.6,302,114.6,307.6,114.6z M311.3,112.6c2.8-3,5.4-6.1,8-9.2c-2.6-3.1-5.3-6.2-8-9.2C311.3,100.4,311.3,106.5,311.3,112.6
	z M308.8,93.9c-2.8,3-5.4,6.1-8,9.2c2.6,3.1,5.3,6.2,8,9.2C308.8,106.1,308.8,100,308.8,93.9z M329.2,114.6c-3-3.1-5.8-6.4-8.5-9.6
	c-2.8,3.3-5.6,6.5-8.5,9.6C317.8,114.6,323.5,114.6,329.2,114.6z M332.9,112.6c2.8-3,5.4-6.1,8-9.2c-2.6-3.1-5.3-6.2-8-9.2
	C332.9,100.4,332.9,106.5,332.9,112.6z M330.3,93.9c-2.8,3-5.4,6.1-8,9.2c2.6,3.1,5.3,6.2,8,9.2C330.3,106.1,330.3,100,330.3,93.9z
	 M350.7,114.6c-3-3.1-5.7-6.3-8.5-9.6c-2.8,3.3-5.6,6.5-8.6,9.6C339.3,114.6,345,114.6,350.7,114.6z M354.4,112.6
	c2.8-3,5.4-6.1,8-9.2c-2.6-3.1-5.3-6.2-8-9.2C354.4,100.4,354.4,106.5,354.4,112.6z M351.8,93.9c-2.8,3-5.4,6.1-8,9.2
	c2.6,3.1,5.3,6.2,8,9.2C351.8,106.1,351.8,100,351.8,93.9z M372.2,114.6c-2.9-3.1-5.7-6.3-8.5-9.6c-2.8,3.3-5.6,6.5-8.5,9.6
	C360.9,114.6,366.6,114.6,372.2,114.6z M373.4,93.9c-2.8,3-5.4,6.1-8,9.2c2.6,3.1,5.3,6.2,8,9.2C373.4,106.1,373.4,100,373.4,93.9z
	 M355.5,91.8c3,3.1,5.8,6.4,8.6,9.7c2.8-3.3,5.6-6.6,8.7-9.8C367,91.8,361.2,91.8,355.5,91.8z M334,91.9c3,3.1,5.8,6.4,8.6,9.7
	c2.8-3.3,5.6-6.6,8.6-9.7C345.4,91.8,339.7,91.9,334,91.9z M312.4,91.8c3,3.1,5.8,6.4,8.6,9.7c2.8-3.3,5.6-6.6,8.6-9.7
	C323.8,91.9,318.1,91.8,312.4,91.8z M290.8,91.8c3,3.1,5.8,6.4,8.6,9.8c2.8-3.3,5.6-6.6,8.6-9.7C302.3,91.8,296.6,91.8,290.8,91.8z
	 M269.7,91.8c3,3.1,5.8,6.4,8.6,9.7c2.8-3.3,5.6-6.6,8.7-9.8C281.2,91.8,275.4,91.8,269.7,91.8z M248.2,91.9c3,3.1,5.8,6.4,8.6,9.7
	c2.8-3.3,5.6-6.6,8.6-9.7C259.6,91.8,253.9,91.9,248.2,91.9z M226.6,91.8c3,3.1,5.8,6.4,8.6,9.7c2.8-3.3,5.6-6.6,8.6-9.7
	C238,91.9,232.3,91.8,226.6,91.8z M205,91.8c3,3.1,5.8,6.4,8.6,9.8c2.8-3.3,5.6-6.6,8.6-9.7C216.5,91.8,210.7,91.8,205,91.8z
	 M193.7,119.7h7.2V86.2h-7.2V119.7z M245.8,339c1.2,0,2.4,0,3.6,0c0,0,0-0.1,0-0.1c0-7.3,0-14.6,0-21.9
	c-7.2,7.2-14.3,14.5-21.5,21.8c-0.1,0.1-0.3,0.2-0.5,0.3c0.8,0,1.7,0,2.5,0c0.3,0,0.6-0.1,0.8,0c2.9,0,5.7,0,8.6,0
	c0.3,0,0.6-0.1,0.8,0C242,339,243.9,339,245.8,339z M192.2,339c5.2,0,10.5,0,15.7,0c0,0,0-0.1,0.1-0.2c10.7-10.7,21.3-21.6,32-32.3
	c-5.1,0-10.3,0-15.4,0c-10.7,10.7-21.2,21.5-31.9,32.2C192.6,338.9,192.4,339,192.2,339z M149.2,362.4c2.3-1.9,4.6-3.8,7-5.7
	c-2.3-1.9-4.7-3.8-7-5.8C149.2,354.7,149.2,358.5,149.2,362.4z M149.2,373.8c9,0,18,0,27,0c-5.9-5.8-12.4-11-18.8-16.2
	c-2.6,2.1-5.1,4.2-7.7,6.3c-0.1,0.1-0.3,0.2-0.5,0.2C149.2,367.4,149.2,370.6,149.2,373.8z M176.8,341.1c-5.6,5.3-11.6,10.2-17.6,15
	c6,4.9,12,9.7,17.6,15C176.8,361.1,176.8,351.1,176.8,341.1z M175.4,340.2c-8.7,0-17.5,0-26.2,0c0,2.6,0,5.1,0,7.7
	c0.2,0,0.3,0.1,0.5,0.2c2.8,2.4,5.6,4.7,8.4,7C164,350.3,169.9,345.6,175.4,340.2z M172.7,338.9c10.7-10.7,21.3-21.6,32-32.3
	c-5.1,0-10.3,0-15.4,0c-10.7,10.7-21.2,21.5-31.9,32.2c-0.1,0.1-0.3,0.2-0.5,0.3c5.2,0,10.5,0,15.7,0
	C172.6,339,172.6,338.9,172.7,338.9z M187,306.6c-5.1,0-10.3,0-15.4,0c-10.6,10.7-21.1,21.4-31.8,32.1c0,0.1,0,0.2,0,0.4
	c5,0,10.1,0,15.1,0c0,0,0-0.1,0.1-0.2C165.7,328.2,176.3,317.3,187,306.6z M139.8,169.6c5.4-5.2,11.2-10,16.9-14.9
	c-5.7-4.8-11.4-9.7-16.8-14.8C139.8,149.8,139.8,159.7,139.8,169.6z M141.7,138.4c5.4,5.2,11.1,10,16.8,14.8
	c5.7-4.8,11.4-9.7,16.8-14.8H141.7z M176.7,209.4c-5.4,5.2-11.1,10-16.9,14.8c5.7,4.8,11.4,9.7,16.9,14.8
	C176.7,229.1,176.7,219.2,176.7,209.4z M176.7,244.3c-5.4,5.2-11.1,10-16.9,14.8c5.8,4.8,11.5,9.7,16.9,14.9
	C176.7,264.1,176.7,254.2,176.7,244.3z M176.7,174.4c-5.4,5.2-11.2,10-16.9,14.9c5.7,4.8,11.4,9.7,16.9,14.8
	C176.7,194.2,176.7,184.3,176.7,174.4z M175.8,172.8c-11.5,0-23.1,0-34.6,0c5.5,5.4,11.4,10.4,17.3,15.3
	C164.4,183.2,170.3,178.2,175.8,172.8z M158,190.8c-5.9,5-11.8,10-17.3,15.3c11.5,0,23.1,0,34.6,0
	C169.8,200.7,163.9,195.7,158,190.8z M141.2,207.8c5.5,5.4,11.4,10.4,17.3,15.3c5.9-5,11.8-10,17.3-15.3
	C164.2,207.8,152.7,207.8,141.2,207.8z M175.3,241c-5.5-5.4-11.4-10.4-17.3-15.3c-5.9,5-11.8,10-17.3,15.3
	C152.2,241,163.8,241,175.3,241z M141.2,242.7c5.5,5.4,11.4,10.4,17.3,15.3c5.9-5,11.8-10,17.3-15.3
	C164.2,242.7,152.7,242.7,141.2,242.7z M175.3,171.1c-5.5-5.4-11.4-10.4-17.3-15.3c-5.9,5-11.8,10-17.3,15.3
	C152.2,171.1,163.8,171.1,175.3,171.1z M139.8,174.8c0,9.9,0,19.9,0,29.8c5.4-5.2,11.2-10.1,16.9-14.9
	C150.9,184.8,145.2,180,139.8,174.8z M139.7,209.7c0,9.9,0,19.9,0,29.8c5.4-5.2,11.2-10.1,16.9-14.9
	C150.9,219.8,145.2,214.9,139.7,209.7z M139.7,244.7c0,9.9,0,19.8,0,29.8c5.4-5.2,11.2-10,16.9-14.9
	C150.9,254.7,145.2,249.9,139.7,244.7z M140.7,276c11.5,0,23.1,0,34.6,0c-5.5-5.4-11.4-10.4-17.3-15.3
	C152.1,265.6,146.2,270.6,140.7,276z M176.8,139.3c-5.5,5.2-11.2,10.1-17,15c5.8,4.8,11.5,9.7,16.9,14.9
	C176.8,159.2,176.8,149.3,176.8,139.3z M141.1,277.7c5.6,5.5,11.5,10.8,17.5,15.9c5.8-5.2,11.5-10.5,17-15.9
	C164.1,277.7,152.6,277.7,141.1,277.7z M168.6,305.4c-3.5-3-7-6-10.4-9c-3.4,3-6.8,6-10.2,9C154.9,305.4,161.7,305.4,168.6,305.4z
	 M128,339c3.1,0,6.2,0,9.3,0c0,0,0-0.1,0-0.1c0.1-0.2,0.2-0.3,0.4-0.4c10.6-10.6,21-21.3,31.6-31.9c-6,0-12.1,0-18.1,0
	c-7.7,7.7-15.5,15.5-23.2,23.2C128,332.9,128,336,128,339z M176.8,305.4c0-8.8-0.1-17.5-0.1-26.3c-5.5,5.4-11.1,10.6-16.8,15.7
	c4.1,3.5,8.2,7,12.2,10.6C173.7,305.4,175.3,305.4,176.8,305.4z M93.1,107.7V96.6H65.8v11.1H93.1z M123.1,113.5V93.3H95.8v0.7v16.4
	v3.1H123.1z M132.2,125h53h5.5V79.2h-65v11.4v25.5v8.9L132.2,125L132.2,125z M134.8,135.7h47.7v-8.1h-47.7V135.7z M139.8,305.4
	c1.8,0,3.7,0,5.5,0c0-0.1,0.1-0.2,0.2-0.3c3.8-3.3,7.5-6.6,11.3-9.9c-5.8-5-11.5-10.1-17-15.5C139.8,288.2,139.8,296.8,139.8,305.4z
	 M128,306.6c0,7,0,14,0,21c7-7,14-14,21-21C142,306.6,135,306.6,128,306.6z M139.8,400.9c2.3,0,4.5,0,6.8,0c0-20.2,0-40.4,0-60.6
	c0,0,0,0,0-0.1c-2.3,0-4.5,0-6.8,0C139.8,360.4,139.8,380.6,139.8,400.9C139.8,400.8,139.8,400.9,139.8,400.9z M176.9,400.9
	C176.9,400.9,176.8,400.9,176.9,400.9c0-8.7,0-17.3,0-25.9c-9.2,0-18.4,0-27.7,0c0,8.6,0,17.2,0,25.8c0,0,0,0.1,0,0.1
	C158.4,400.9,167.6,400.9,176.9,400.9z M190.2,339c0,0,0-0.1,0.1-0.2c10.7-10.7,21.2-21.5,31.8-32.1c0.1-0.1,0.1-0.1,0.2-0.2
	c0,0,0,0,0,0c-5.1,0-10.3,0-15.4,0c-10.7,10.7-21.2,21.5-31.9,32.2c-0.1,0.1-0.3,0.2-0.5,0.3C179.8,339,185,339,190.2,339z
	 M225.6,339c0,0,0-0.1,0.1-0.2c8-8,15.8-16.1,23.8-24.1c0,0,0,0,0,0c0-2.7,0-5.4,0-8.2c0,0,0,0,0,0c-2.4,0-4.8,0-7.2,0
	c-10.7,10.7-21.2,21.5-31.9,32.2c-0.1,0.1-0.3,0.2-0.5,0.3C215.1,339,220.3,339,225.6,339z M237.9,402.4
	C237.9,402.4,237.9,402.4,237.9,402.4c0-20.8,0-41.5,0-62.2c-2.3,0-4.5,0-6.8,0c0,20.5,0,41,0,61.5c0,0.3-0.3,0.5-0.6,0.7
	C233,402.4,235.4,402.4,237.9,402.4z M438.9,396.6c0.1,0.8-1.3,1.3-2,1.2c-0.2,0.1-0.3,0.1-0.4,0.1c-18.3,0-36.6,0-54.9,0
	c0,0,0,0-0.1,0c-0.7,0.5-2.3,0.7-2.3,0.2c-0.2-5.7,4.7-9.2,9.9-9.5c3.7-16.2,7.4-32.5,11.1-48.7c0.1-0.6,1-1,1.7-1
	c0.3-0.4,1.1-0.8,1.6-0.8c4.3,0,8.5,0,12.8,0c1,0,0.8,0.4,0.3,0.8c0.6-0.2,1.3-0.1,1.5,0.5c3.7,16.3,7.4,32.6,11.2,49
	c0,0,0.1,0,0.1,0C433.5,389.5,438.3,391.8,438.9,396.6z M420,359.7c-0.3,0.1-0.5,0.2-0.7,0.2c-7.1,0-14.1,0-21.2,0
	c-0.6,2.5-1.2,5.1-1.7,7.6c0.1,0,0.2,0,0.3,0c8.4,0,16.7,0,25.1,0C421.2,364.9,420.6,362.3,420,359.7z M398.4,358.8
	c7.1,0,14.3,0,21.4,0c-1.4-6.3-2.9-12.5-4.3-18.8c-0.1-0.3,0.1-0.5,0.3-0.8c-0.2,0.1-0.4,0.1-0.5,0.1c-4.2,0-8.3,0-12.5,0
	c0,0.1,0,0.1,0,0.2C401.4,346,399.9,352.4,398.4,358.8z M391.6,388.6c11.7,0,23.3,0,35,0c-1.5-6.7-3-13.4-4.6-20
	c-8.6,0-17.2,0-25.8,0C394.7,375.2,393.2,381.9,391.6,388.6z M436.2,396.8c-0.8-3.8-4.5-5.7-8-6.8c-0.5,0.1-1.1,0.1-1.4-0.3
	c-12,0-24,0-35.9,0c-0.6,0.3-1.5,0.4-1.9,0.1c-4.2,0.1-7.5,3.1-7.4,7.5c0.5-0.3,1.2-0.5,1.4-0.5
	C400.9,396.8,418.6,396.8,436.2,396.8z M503.6,396.6c0.1,0.8-1.3,1.3-2,1.2c-0.2,0.1-0.3,0.1-0.4,0.1c-18.3,0-36.6,0-54.9,0
	c0,0,0,0-0.1,0c-0.7,0.5-2.3,0.7-2.3,0.2c-0.1-5.3,5-8.4,9.9-9.3c2.4-10.6,4.8-21.3,7.3-31.9c0,0-0.1,0-0.1,0c-0.4,0-0.6,0-0.6-0.1
	c0-0.2,0-0.3,0-0.5c-8-8.5-17.2-16.8-27.6-22.9c-0.2,0-0.3-0.1-0.3-0.2c-5.4-3.1-11.2-5.7-17.2-7.2c-8.9-2.3-18.4-2.7-27.2,0.4
	c-1.3,0.4-2.5,0.9-3.7,1.5c-0.3,0.4-1,0.7-1.6,0.8c-7.9,3.9-14.7,9.7-20.6,16.3c-0.1,0.1-0.3,0.2-0.5,0.3c4.3,17.9,7,36,5.5,54.5
	c0.9,0,1.8,0,2.7,0c0.8-0.3,1.7,0,1.6,0.8c-1.3,7.5-2.2,15.1-2.9,22.6c-0.4,3.7-0.7,7.5-1.1,11.2c-0.3,2.4-0.7,4,1.5,5.5
	c2.6,1.8,6,2.9,8.2,5.4c2.5,3,1.8,6.5,0.1,9.8c-0.1,0.2-0.2,0.3-0.4,0.4c-0.2,0.2-0.6,0.4-1,0.4c-6.4,0.3-12.9,0.6-19.3,0.6
	c-2.7,0-5.7,0.3-8.3-0.4c-2.3-0.6-1.7-5.1-2-6.9c-2.2-16.1-4.6-32.2-7.1-48.2c-0.2-1,1.5-1.7,2.2-1.2c0.3,0,0.7,0,1,0
	c-1.1-10.4-2.9-20.9-6.1-31c-2.4,2.4-4.8,4.8-7.2,7.2c-0.2,0.2-0.4,0.3-0.7,0.3c-1,7.8-1.7,15.5-0.6,23.4c0,0,0.1,0,0.1,0
	c0.7-0.3,1.6-0.2,1.7,0.5c1.9,11.7,3.7,23.5,5,35.3c0.3,3,0.6,6,1,9c0.2,1.6,0.4,3.2,0.6,4.7c0.2,1.4,1.1,3.9,0.8,5.2
	c-0.4,1.7-3.1,1.6-4.5,1.6c-4,0.2-7.9,0.1-11.9,0c-6.2-0.1-12.5-0.3-18.7-0.6c-0.6,0.5-1.6,0.6-2-0.1c-1.7-3.3-2.8-7.3,0.1-10.3
	c2.3-2.3,6-3.3,8-5.8c1.7-2.2,0-6.5-0.8-8.8c-1-3.4-2.2-6.7-3.5-10c-2.5-6.4-5.2-12.8-6.5-19.5c-0.2-1,1.4-1.7,2.2-1.2
	c1.4,0,2.8,0,4.2,0c-6.1-23.8-3.3-48.2-5-72.5c0-0.2,0-0.3,0.1-0.5c-0.5-0.2-1.1-0.4-1.6-0.6c-0.7,0.1-1.5-0.1-1.4-0.8
	c0.6-4.5,1.2-9,2.1-13.5c0-0.2,0.1-0.4,0.3-0.5c-2-0.3-3.9-0.9-5.9-1.9c-10.3-5.3-6.8-19.6-5.9-28.9c-0.4,0.1-0.8,0.1-1.2,0.2
	c-1.1,0.2-1.1-0.3-0.7-0.8c0,0,0-0.1,0-0.1c3.2-9,3.8-21.8,12.3-27.7c4.7-3.3,10.7-4.2,16.4-5.1c0.6-0.4,1.9-0.6,2.2-0.3
	c1.7-0.3,3.4-0.5,5-0.9c0,0,0,0,0,0c-0.7-3.3-1.8-5.9-5.8-6c-3.2-0.1-6-1-8.7-2.9c-7.1-4.9-3.2-16-5.9-22.9c0-0.1,0-0.1,0-0.2
	c-3.1,0-6.2,0-9.3,0c-1.7,0,0-1.5,1-1.5c3.2,0,6.4,0,9.5,0c0,0,0-0.1,0-0.1c0.2-12.6,8.5-20.2,20.8-21.2c11.8-1,26,6.8,25.1,20.1
	c0,0.2-0.2,0.4-0.6,0.6c1.1,9.5,2.5,19-7,24.5c-0.4,0.2-1.1,0.2-1.5,0.1c0.6,2,1.3,3.9,1.7,5.9c0.1,0,0.2,0.1,0.2,0.1
	c7.2,6.6,18.4,2.3,26.4,7c11,6.5,7.2,25.3,8.6,35.9c0.1,0.4-0.5,0.7-0.8,0.8c-0.2,0.1-0.4,0.1-0.7,0.2c0.1,0.1,0.2,0.1,0.2,0.2
	c0.2,8.4-2.2,18.1-9.6,23.2c-2.4,1.7-5.2,2.8-8,3.4c0,0,0,0,0,0.1c0.8,4.1,0.7,8.2,1.2,12.3c0.1,0.5-0.2,0.8-0.6,1.1
	c1.6,5.7,3.2,11.4,4.6,17.1c6-6.3,13-11.8,20.7-15.5c0-28.6,0-57.1,0-85.7c0-0.8,1.8-1.3,2.4-1c0.3-0.2,0.7-0.3,0.9-0.3
	c12.4,0,24.8,0,37.1,0c0-12.6,0-25.2,0-37.7c0-0.7,1.3-1.1,2-1.1c0.2-0.1,0.3-0.1,0.5-0.1c17.9,0,35.9,0,53.8,0
	c0.5,0,0.7,0.1,0.7,0.3c0,0,0.1,0.1,0.1,0.2c0,12.8,0,25.6,0,38.4c6.3,0,12.6,0,18.9,0c0.6,0,0.8,0.2,0.7,0.4c0,0.1,0.1,0.1,0.1,0.2
	c0,49.6,0,99.1,0,148.7C501.4,391.8,503.2,393.7,503.6,396.6z M353.4,313.4c-3.3,0.2-6.6-0.3-9.8-1.6c-1.3-0.5-2.6-1.2-3.8-1.8
	c0.3,4.4,0.6,8.7,0.7,13.1c0.5,0.1,0.4,0.4,0,0.7c0,0.6,0,1.2,0,1.8c0.1,0,0.1,0,0.2,0c4.8,1.2,9.1,2.1,13.9,0.2
	c-0.5-4-0.4-8-1.2-12C353.4,313.6,353.4,313.5,353.4,313.4z M316.4,308.4c-0.3,5-0.7,9.9-0.7,14.9c0.5-0.2,1-0.3,1.3-0.2
	c6.9,2.3,13.9,1.4,20.9,0.3c-0.1-4.7-0.5-9.3-0.7-14c0-0.2,0.2-0.5,0.4-0.6c-3.6-2-7-4.4-10.4-6.8c-3.8,1.9-7.8,4.1-12,6
	C315.8,307.8,316.4,308,316.4,308.4z M370.9,287.2c0-0.1,0-0.2,0.1-0.2c-4.9,1.3-10.1,1.6-15,0.7c0.4,0.2,0.8,0.5,1.2,0.7
	c0.3,0.2-1.9,1.2-2.4,0.8c-4.2-3-10.7-2-15.7-2.4c-5.3-0.5-10-2.1-15-3.5c-6.1-1.7-21.1-5.3-19.9,5.2c3-0.6,6.9-1.2,8.7,0.2
	c1.1,0.8,2.2,1.7,3.2,2.5c5.8,4.4,11.7,8.7,17.7,12.7c7,4.7,16.4,11.2,25.2,7.2C368,306.8,371.1,296.4,370.9,287.2z M312.2,248.3
	c-5.7,0.8-11.5,1.8-15.4,5.5c-6.5,6.1-7.3,17.3-10,25.4c6-0.9,11.8-0.9,17.2,2C305,269.5,307.3,258.9,312.2,248.3z M302.7,212.4
	c13.7,0,27.3,0,41,0c0,0,0-0.1,0-0.1c0-0.4,0.2-0.7,0.6-0.9c0.6-11.5-11.4-19.5-22.1-19c-11.5,0.5-18.6,7.8-18.8,19.2
	C303.5,211.9,303.2,212.2,302.7,212.4z M339.7,245.1c-0.2,0.7-1.5,1-2.2,0.8c-4.4,3.7-10,5.9-15.3,3.4c-2.3,9.9-4.9,20.2-5,30.3
	c0,0.4-0.4,0.7-0.8,0.9c1.1,0.1,2.2,0.2,3.1,0.4c6,1,11.5,3.6,17.4,4.5c0.3,0,0.7,0.1,1,0.1c-0.1-13.2,0.1-26.2,2.4-39.3
	c0-0.2,0.2-0.4,0.5-0.5C340.5,245.5,340.1,245.3,339.7,245.1z M362.3,249.6c-3.2-1.1-6.7-1.4-10.2-1.7c0,0,0,0.1,0,0.1
	c1,12.2,0,24.5,0,36.7c0,0.1,0,0.1,0,0.2c6.1,2.3,12.8,2.6,19,0.9c0.3-0.1,0.7-0.2,1-0.3c0-0.1,0-0.2,0-0.3
	C371,274.8,374.5,254,362.3,249.6z M349.5,248.7c0-0.4,0.2-0.7,0.5-1c-2.5-0.2-4.9-0.6-7.2-1.3c-2.2,12.9-2.4,25.7-2.3,38.8
	c0,0.1,0,0.2-0.1,0.3c3,0.1,6.4,0,9.5,0.4c-0.2-0.1-0.4-0.2-0.6-0.2c-0.4-0.2-0.2-0.4,0.2-0.6c0-0.1,0-0.1,0-0.2
	C349.5,272.9,350.5,260.7,349.5,248.7z M323.1,247.2c0,0.1,0,0.2,0,0.3c5.1,3.3,9.9,0.7,13.8-3.1c0,0,0.1-0.1,0.2-0.1
	c-0.5-3.9-2.2-7.4-2.9-11.2c-0.1-0.8,1.8-1.4,2.4-1c2.1-0.7,3.1-3.9,2.8-5.9c-0.4-2.4-1.9-4-4.3-4.3c-0.1,0-0.1-0.1-0.1-0.2l0,0
	c-0.2,0.1-0.5,0.3-0.8,0.3c-5,0.5-10.1-2.9-10-8.2c-7.2,0-14.4,0-21.6,0c2.8,8.1-1.7,21.6,9.9,24c2.1,0.4,5-0.2,6.9,0.9
	C322.1,240.5,322.6,244.4,323.1,247.2z M314.8,247.9c-5,10.7-7.3,21.4-8.3,33.2c0,0.1-0.1,0.2-0.2,0.3c2.5-0.9,5.7-1.2,8.6-1
	c-0.2-0.1-0.3-0.3-0.3-0.6c0.2-10.8,3.1-22,5.5-32.5c0-0.1,0.1-0.2,0.1-0.3C318.6,247.4,316.7,247.6,314.8,247.9z M326.1,301.2
	c-1.5-1.1-3-2.2-4.5-3.3c-3-2.2-6-4.4-8.9-6.6c-3.4-2.6-6.6-2.3-10.9-1.1c-1.5,0.4-1.8-0.7-0.3-1.1c0,0,0,0,0.1,0
	c-0.3-2.7,0.5-4.6,2-5.9c-0.3,0-0.5,0-0.7-0.1c-4.4-2.9-9.3-3.2-14.2-2.7c-0.8,8-3.8,19.5,2.5,25.8
	C301.3,316.1,315.7,306.3,326.1,301.2z M313.2,326.2c-0.1-0.1-0.1-0.1-0.1-0.2c0-5.8,0.5-11.5,0.8-17.2c0-0.1,0.1-0.2,0.2-0.3
	c-4.5,1.9-9.2,3.3-13.8,3.1c0,0,0,0.1,0,0.1c-0.9,4.4-1.4,8.7-2,13.1C303.2,327,307.9,327.3,313.2,326.2z M335.4,366.5
	c-1.3-3.9-2.9-7.7-4.7-11.4c-0.4,6.1-1.4,12.2-2.2,18.3C330.8,371.1,333.1,368.8,335.4,366.5z M353.9,326.8
	c-4.9,1.5-9.4,1.1-14.5-0.2c-0.7,0.2-1.4,0.1-1.4-0.2c0-0.7,0-1.3,0-2c-7.3,1.2-14.7,2.1-21.9,0.1c-0.1,0-0.3-0.1-0.4-0.1
	c0,0,0,0.1,0,0.1c0,0.2,0,0.5,0,0.7c0,0.3-0.3,0.6-0.7,0.7c0.3,0.2,0,0.5-0.9,0.8c-4.5,1.1-8.8,1.4-13,0.6c1.7,24.2-1,48.6,5.2,72.3
	c6.2,0,12.5,0,18.7,0c-2-16.5,3.3-32.5,3.5-48.9c0,0,0,0,0-0.1c-1.6-2.9-3.4-5.6-5.4-8.3c-0.7-0.9,1.8-1.9,2.4-1.1
	c5.6,7.4,9.6,15.8,12.6,24.6c0.2,0.1,0.3,0.3,0.2,0.5c3.6,10.7,5.5,22.1,6.7,33.2c6.5,0,13.1,0,19.6,0
	C366.5,374.8,360.8,350.6,353.9,326.8z M424.8,241.2c3.3,0,6.6,0,9.8,0c0-9.6,0-19.3,0-28.9c0-0.2,0.2-0.4,0.5-0.5
	c0.1-0.4,0.6-0.8,1.3-0.8c9.8,0,19.6,0,29.4,0c0.5,0,0.8,0.1,0.9,0.3c0.1,0.1,0.2,0.2,0.2,0.3c0,9.8,0,19.5,0,29.3
	c0,0.1,0,0.2-0.1,0.3c3.3,0,6.6,0,9.9,0c0-12.5,0-25,0-37.5c-17.3,0-34.7,0-52,0C424.8,216.2,424.8,228.7,424.8,241.2z M437.2,241.2
	c9.1,0,18.1,0,27.2,0c0-9.5,0-19,0-28.5c-9.1,0-18.1,0-27.2,0C437.2,222.2,437.2,231.7,437.2,241.2z M435,332.5
	c5.3,3.1,10.4,6.8,15.1,10.8c0-5.1,0-10.2,0-15.3c-5,0-10.1,0-15.1,0C435,329.5,435,331,435,332.5C435,332.5,435,332.5,435,332.5z
	 M460.3,352.8c0-8.4,0-16.8,0-25.2c0-0.3,0.5-0.5,1.1-0.7c0.3-0.2,0.8-0.4,1.1-0.4c8.7,0,17.3,0,26,0c1,0,0.9,0.5,0.4,1
	c0.2,0.1,0.4,0.3,0.4,0.6c0,13.1,0,26.1,0,39.2c1.6,7,3.1,14,4.7,21c0,0,0.1,0,0.1,0c0.8,0.2,1.6,0.5,2.5,0.9c0-48.9,0-97.7,0-146.6
	c-6.3,0-12.5,0-18.8,0c-0.1,0-0.3,0-0.4,0c-31,0-61.9,0-92.9,0c0,28.1,0,56.2,0,84.4c7.7-3.2,16.1-4.7,24.9-3.6
	c8.2,1,15.9,3.8,23.1,7.7c0-0.9,0-1.8,0-2.7c0-0.2,0.2-0.4,0.5-0.6c-0.1-0.3,1.1-1.1,1.7-1.1c5.5,0,11.1,0,16.6,0
	c0.6-0.1,1.3-0.1,1.3,0.1c0,6,0,12.1,0,18.1c0,0.1-0.1,0.3-0.2,0.4C455.1,347.7,457.8,350.3,460.3,352.8z M463.1,358.8
	c7.2,0,14.4,0,21.5,0c-1.5-6.5-2.9-13-4.4-19.5c-0.1,0-0.2,0-0.3,0c-4.2,0-8.3,0-12.5,0c0,0.1,0,0.1,0,0.2
	C466.1,346,464.6,352.4,463.1,358.8z M462.9,359.9c-0.6,2.5-1.2,5.1-1.7,7.6c0.1,0,0.2,0,0.3,0c8.4,0,16.8,0,25.2,0
	c-0.6-2.6-1.2-5.2-1.7-7.8c-0.3,0.1-0.6,0.2-0.8,0.2C477,359.9,469.9,359.9,462.9,359.9z M486.7,328.2c-8,0-15.9,0-23.9,0
	c0,6.9,0,13.8,0,20.7c0.7-3.1,1.4-6.1,2.1-9.2c0.1-0.3,0.4-0.6,0.7-0.7c0.1-0.4,1.1-1,1.7-1c4.6,0,9.1,0,13.7,0
	c0.7-0.3,1.6-0.3,1.8,0.4c1.3,5.8,2.6,11.6,3.9,17.4c0-9.1,0-18.3,0-27.4C486.7,328.3,486.7,328.3,486.7,328.2z M456.3,388.5
	c0.3,0,0.5,0,0.8,0c0.1,0,0.2,0,0.3,0c11.3,0,22.6,0,33.9,0c-1.5-6.5-2.9-13-4.4-19.5c-0.2-0.1-0.2-0.3-0.2-0.5v0
	c-8.6,0-17.2,0-25.8,0C459.4,375.2,457.9,381.9,456.3,388.5z M500.9,396.8c-0.8-3.8-4.5-5.7-8-6.8c-0.5,0.1-1.1,0.1-1.4-0.3
	c-11.6,0-23.1,0-34.7,0c-0.3,0.1-0.6,0.2-0.8,0.2c-0.3,0-0.5,0-0.8,0c-0.4,0.1-0.8,0.2-1.1,0.1c-3.9,0.5-7.8,3-7.7,7.3
	c0.5-0.3,1.2-0.5,1.4-0.5C465.6,396.8,483.3,396.8,500.9,396.8z M424.8,295c0,7.3,0,14.5,0,21.7c0,0.8-2,1.2-2.5,0.9
	c-0.1,0-0.2,0-0.3,0c-9.8,0-19.6,0-29.3,0c-0.4,0-0.4-0.1-0.2-0.3c-0.4-0.1-0.8-0.3-0.8-0.9c0-6.8,0-13.5,0-20.3
	c0-0.5,0.5-0.9,1.1-1c0.5-0.3,1.3-0.6,1.6-0.6c9.9,0,19.9,0,29.8,0c0.3,0,0.4,0.1,0.3,0.1C424.7,294.8,424.8,294.9,424.8,295z
	 M422.2,316.6c0-7,0-13.9,0-20.9c0,0,0,0,0-0.1c-9.4,0-18.7,0-28.1,0c0.1,0.1,0.1,0.2,0.1,0.4c0,6.8,0,13.5,0,20.3
	c0,0.1,0,0.2-0.1,0.3c0.1,0,0.1,0,0.2,0C403.6,316.6,412.9,316.6,422.2,316.6z M424.8,284.3c0.1,0.1,0.1,0.3,0,0.5
	c0,0.1,0,0.2,0,0.3c0,0.7-2.6,1-2.6,0.7c0,0,0,0,0,0c-10,0-20,0-30.1,0c-1,0-0.9-0.5-0.5-1c0-9.8,0-19.6,0-29.5c0-0.3,0.5-0.6,1-0.8
	c0.4-0.2,0.8-0.4,1.2-0.4c9.6,0,19.3,0,28.9,0c0.7-0.3,2.1-0.5,2.1-0.2C424.8,264.1,424.8,274.2,424.8,284.3z M422.2,284.1
	c0-9.5,0-19.1,0-28.6c-9.3,0-18.7,0-28,0c0,9.5,0,19.1,0,28.6C403.5,284.1,412.9,284.1,422.2,284.1z M460.3,317.4
	c0-7.1,0-14.2,0-21.3c0-0.1,0-0.2,0.1-0.3c-0.5-0.4,0.7-1.5,1.6-1.5c8.2,0,16.5,0,24.7,0c0.3,0,0.5,0.1,0.7,0.2
	c0.8-0.3,1.9-0.3,1.9,0.5c0,7.1,0,14.2,0,21.4c0,0.1-0.1,0.3-0.2,0.4c0.5,0.2-1.5,0.9-1.9,0.9c-8.2,0-16.5,0-24.7,0
	C461.7,318.1,460.3,318.2,460.3,317.4z M485.8,296c-7.6,0-15.3,0-22.9,0c0,6.9,0,13.8,0,20.7c8,0,15.9,0,23.9,0c0,0,0-0.1,0-0.1
	c0-7,0-13.9,0-20.9C486.4,295.9,486.1,296,485.8,296z M460.3,284.9c0-9.8,0-19.6,0-29.4c0-0.1,0.1-0.2,0.2-0.4
	c0.1-0.4,1-1.1,1.7-1.1c8.5,0,17,0,25.5,0c0.3-0.1,0.6-0.1,0.9,0c0.5,0,0.6,0.2,0.6,0.4c0.1,0.1,0.1,0.2,0.1,0.4
	c0,9.7,0,19.5,0,29.2c0,0.1,0,0.2-0.1,0.3c0.2,0.4-1.1,1.1-1.7,1.1c-8.7,0-17.4,0-26.1,0c-0.6,0-0.8-0.2-0.7-0.4
	C460.5,285.1,460.3,285.1,460.3,284.9z M486.7,255.6c-7.9,0-15.9,0-23.8,0c0,9.6,0,19.1,0,28.7c0,0,0,0,0,0c7.9,0,15.9,0,23.8,0
	C486.7,274.7,486.7,265.2,486.7,255.6z M452.6,295.1c0,7,0,14.1,0,21.1c0,0.3-0.3,0.5-0.6,0.7c-0.4,0.3-1.6,0.7-1.9,0.7
	c-5.3,0-10.6,0-15.9,0c-0.7,0.3-1.7,0.3-1.7-0.1c0-7,0-14.1,0-21.1c0-0.3,0.3-0.6,0.7-0.7c-0.3-0.3,1-1.1,1.7-1.1
	c5.4,0,10.9,0,16.3,0C451.8,294.3,452.6,294.4,452.6,295.1z M450.1,316.7c0-0.1,0-0.1,0-0.2c0-6.9,0-13.8,0-20.7c-5,0-10,0-15.1,0
	c0,7,0,13.9,0,20.9C440,316.7,445.1,316.7,450.1,316.7z M452.6,254.2c0,10.3,0,20.5,0,30.8c0,0.6-0.9,1-1.7,1
	c-0.4,0.3-0.9,0.5-1.3,0.5c-5.4,0-10.9,0-16.3,0c-0.9,0-0.8-0.3-0.5-0.6c-0.3-0.1-0.4-0.4-0.4-0.7c0-10.2,0-20.5,0-30.7c0,0,0,0,0,0
	c0,0,0-0.1,0-0.1c0.1-0.8,1.3-1.2,2-0.9c0,0,0,0,0,0c5.8,0,11.6,0,17.3,0c0.3,0,0.4,0,0.4,0.1C452.4,253.6,452.6,253.8,452.6,254.2z
	 M450.1,285.2c0-10.2,0-20.5,0-30.7c-5,0-10,0-15,0c0,10.1,0,20.3,0,30.4c0,0.1,0,0.2,0,0.2C440,285.2,445,285.2,450.1,285.2z"/>
</svg>
