<?xml version="1.0" standalone="no"?>
<svg version="1.1" id="Layer_1" xmlns="http://www.w3.org/2000/svg" xmlns:xlink="http://www.w3.org/1999/xlink" x="0px" y="0px" width="595.279px" height="595.281px" viewBox="0 0 595.279 595.281" enable-background="new 0 0 595.279 595.281" xml:space="preserve">
<path id="color_x5F_2" fill="#761214" d="M351.252,452.544c-1.465-2.586-2.775-5.25-4.281-7.824
	c-3.972-6.787-5.32-13.766,2.613-17.582c-0.216,0.723-0.297,1.52-0.205,2.402c0.523,5.029,4.127,9.363,6.628,13.57
	c0.705,1.188,3.451,0.053,2.646-1.307c-3.463-5.822-11.247-15.053-1.041-18.461c0.61-0.205,0.938-0.596,1.036-0.99
	c14.979-6.92,29.239-15.752,44.681-21.592c0.61,0.115,1.412-0.174,1.817-0.662c1.617-0.582,3.244-1.145,4.893-1.652
	c1.684-0.52,1.388-1.715-0.318-1.188c-1.528,0.471-3.038,0.984-4.541,1.52c-3.932-7.76-8.271-15.297-11.957-23.186
	c-3.479-7.449-8.104-17.063-6.313-25.506c0.308-1.453-2.661-1.102-2.939,0.211c-1.764,8.324,2.499,17.465,5.804,24.863
	c3.77,8.436,8.438,16.408,12.619,24.637c-15.328,5.852-29.483,14.5-44.364,21.408c-0.26-0.086-0.586-0.092-0.978,0.039
	c-1.712,0.572-3.538,1.367-4.985,2.498c-1.183-15.734-4.81-31.258-6.157-46.998c-0.813-9.477-1.091-19.121,0.423-28.539
	c1.165-7.246,3.879-15.275,10.656-19.053c1.703-0.949-0.906-1.168-1.754-0.695c-0.153,0.086-0.297,0.182-0.445,0.271
	c0.013-0.08,0.017-0.162,0.004-0.246c-1.334-9.117,6.351-13.807,13.525-17.219c6.414-3.051,12.117-7.594,18.797-10.074l2.463-0.537
	c0.602,0.258,1.178,0.557,1.739,0.877l5.829,4.998l0.01,0.004c0.205,0.24,0.41,0.479,0.606,0.729
	c-0.034,0.01-0.067,0.02-0.102,0.031c-7.578,3.057-14.15,7.891-21.385,11.611c-1.771,0.91-0.162,2.189,1.221,1.479
	c7.229-3.719,13.815-8.559,21.387-11.611c0.104-0.041,0.195-0.086,0.278-0.131c0.191,0.014,0.416-0.014,0.647-0.063
	c2.565,0.576,4.961,1.441,7.216,2.541c2.426,1.504,7.436,4.836,12.969,9.83c1.137,1.172,2.244,2.381,3.324,3.623
	c8.896,10.23,14.56,21.945,19.409,34.516c0.152,0.396,0.293,0.795,0.442,1.191c2.877,9.715,5.27,17.268,7.023,22.611
	c1.164,4.842,2.114,9.734,2.829,14.656c-0.491,5.094-1.328,12.805-2.231,17.006c-0.738,1.754-1.628,3.455-2.658,5.084
	c-8.771,13.873-26.525,20.746-41.503,25.242c-14.499,4.354-29.614,6.775-44.682,8.043c0.39-1.443-0.26-3.258-1.334-5.352
	c-0.455-0.885-3.249,0.096-2.898,0.777c0.5,0.971,1.011,1.93,1.446,2.934C360.854,455.183,353.055,455.724,351.252,452.544z
	 M350.523,332.082c0.772-0.803,1.621-1.539,2.539-2.217c-0.398,0.035-0.77-0.031-0.984-0.236
	C351.89,329.916,351.307,330.82,350.523,332.082z M463.81,479.195l-0.347-0.578c-0.653,0.104-1.339-0.066-1.568-0.65
	c-3.713-9.451-5.707-19.889-8.254-29.693c-0.75-2.885-1.495-5.771-2.229-8.662l-4.404-14.65
	c-9.665,10.84-24.182,17.049-37.751,21.223c-15.519,4.775-31.67,7.5-47.834,8.846c-0.456,0.037-0.769-0.049-0.967-0.201
	c-0.595,0.381-1.366,0.705-2.36,0.967c-0.691,0.182-1.389,0.361-2.086,0.51c-0.095,3.387,0.985,7.229,1.544,10.502
	c0.624,3.654,1.018,7.76,2.537,11.18c0.087,0.197,0.044,0.389-0.08,0.563L463.81,479.195z M317.546,360.443
	c0.058-0.082,0.151-0.16,0.271-0.23c-0.695-0.66-1.396-1.316-2.079-1.99c-0.467,0.076-0.902,0.045-1.123-0.172
	c-7.086-7.014-21.883,11.166-14.901,17.141c0.199,0.043,0.349,0.131,0.407,0.277c0.02,0.047,0.041,0.092,0.06,0.137
	c0.001,0.002,0.003,0.006,0.003,0.008c0.18,0.438,0.372,0.865,0.565,1.295C306.669,371.841,313.085,366.849,317.546,360.443z
	 M340.937,433.556c0.305-1.139,0.804-2.135,1.46-3.014c-0.517,0.432-0.977,0.799-1.254,0.982
	C340.886,431.697,340.85,432.484,340.937,433.556z M349.429,425.744c-0.108-0.061-0.182-0.146-0.188-0.262
	c-0.959-13.975-3.856-27.727-5.545-41.635c-0.166-0.057-0.313-0.143-0.431-0.264c-7.492-7.865-16.029-14.594-23.977-21.973
	c-4.841,6.408-11.563,11.496-17.559,16.721c-0.059,0.051-0.143,0.098-0.236,0.141c4.719,9.43,12.729,16.979,19.806,24.637
	c7.831,8.471,15.36,17.217,24.3,24.563C346.768,426.927,348.07,426.298,349.429,425.744z M344.675,342.367
	c-0.31,0.625-0.604,1.242-0.865,1.828c-0.646,1.455-0.978,4.426-1.11,8.08C343.052,348.865,343.669,345.501,344.675,342.367z
	 M352.473,322.593c0.013-0.035,0.021-0.072,0.032-0.107c-0.01,0.014-0.029,0.041-0.029,0.041L352.473,322.593z M324.262,239.884
	c2.074,1.662,4.269,3.404,6.646,4.676l0.325-0.674c0.705-1.779,1.514-3.506,2.485-5.148l0.423-0.877l1.093-3.549
	c-4.322-1.563-9.1-3.475-13.581-4.172C312.846,228.769,322.627,238.573,324.262,239.884z M377.073,257.396
	c9.713,10.35,17.335,22.396,26.585,33.131c0.119-0.16,0.245-0.318,0.36-0.48l1.998-2.996c1.529-2.461,2.834-5.006,3.895-7.611
	c0.995-3.277,2.427-8.486,3.263-13.744c0.836-11.574-3.151-23.137-12.951-32.084c-17.817-16.271-43.485-16.314-61.603-0.666
	c0.814,0.316,1.624,0.639,2.421,0.969C354.267,239.388,367.21,246.892,377.073,257.396z M315.18,233.776
	c-0.266-0.875-0.369-1.756-0.259-2.629c0.039-0.309,0.124-0.582,0.229-0.842c-0.754,0.527-1.149,1.404-0.342,2.887
	C314.907,233.37,315.035,233.569,315.18,233.776z M329.812,246.833c-0.886-0.424-1.903-0.959-2.988-1.59
	c1.573,1.375,2.652,2.283,2.652,2.283L329.812,246.833z M341.476,221.526l-0.886,0.773c0.619-0.389,1.244-0.77,1.875-1.141
	C341.838,221.39,341.476,221.526,341.476,221.526z M398.884,229.114c4.012,3.059,7.619,6.766,10.517,10.941
	c-4.708-11.361-17.975-20.496-28.728-23.494c-17.696-4.936-34.79,2.896-47.976,14.258c1.321,0.438,2.637,0.893,3.935,1.369
	C354.229,217.212,379.962,214.687,398.884,229.114z"></path>
<path id="color_x5F_1" d="M346.558,278.312c0.156,0.584-0.912,0.922-1.272,1.043c-2.369,0.787-4.708,1.246-7.188,0.693
	c-0.563-0.125-0.729-0.529-0.248-0.926c0.511-0.416,1.394-0.695,2.049-0.549c1.817,0.404,3.31,0.047,5.034-0.527
	C345.294,277.927,346.409,277.757,346.558,278.312z M335.68,259.372c0.661,0.158,1.566-0.055,2.049-0.551
	c1.099-1.127,2.067-2.482,2.112-4.113c0.036-1.289-2.878-0.717-2.906,0.328c-0.036,1.293-0.673,2.309-1.556,3.215
	C334.949,258.692,335.052,259.22,335.68,259.372z M339.367,246.624c2.001,0.531,3.269,1.678,4.409,3.363
	c0.675,1,3.458-0.059,2.663-1.23c-1.345-1.99-3.021-3.344-5.367-3.967c-0.697-0.188-1.55,0.01-2.05,0.549
	C338.59,245.804,338.726,246.452,339.367,246.624z M369.119,284.087c0.678,0.012,1.479-0.236,1.914-0.785
	c0.462-0.582,0.974-1.154,1.584-1.586c0.129-0.092,0.236-0.129,0.296-0.152c0.32,0.145,0.579,0.615,0.728,0.865
	c0.475,0.801,3.297-0.104,2.693-1.125c-2.021-3.414-6.361-0.102-7.994,1.955C367.902,283.81,368.709,284.081,369.119,284.087z
	 M517.556,270.956c0,0.191-0.081,0.365-0.208,0.518c0.055,0.033,0.107,0.066,0.161,0.1c1.295,0.805-1.33,2.119-2.27,1.535
	c-9.771-6.063-19.509-12.182-29.226-18.33c0.045,74.331,1.69,148.647,1.701,222.979c0.001,1.143-2.918,1.678-2.918,0.283
	c-0.011-75.041-1.692-150.07-1.707-225.114c-4.367-2.77-8.73-5.541-13.09-8.32c0.011,48.285,0.23,96.571,0.406,144.856
	c0.204,0.115,0.174,0.305,0.002,0.51c0.018,4.828,0.035,9.654,0.051,14.482c0.984,0.047,0.646,0.592,0.004,1.02
	c0.079,24.094,0.143,48.189,0.144,72.283c0,1.143-2.918,1.678-2.918,0.283c-0.001-24.01-0.063-48.02-0.144-72.029
	c-3.877,0.066-7.753,0.172-11.631,0.211c-0.701,5.27-2.57,10.303-5.698,14.738c-0.035,0.049-0.075,0.096-0.11,0.145
	c0.07,0.125,0.119,0.27,0.129,0.439c0.162,3.209,1.432,6.646,2.191,9.744c1.5,6.104,3.059,12.193,4.65,18.273
	c2.39,9.127,4.257,18.826,7.716,27.627c0.283,0.723-0.497,1.297-1.33,1.43c-0.653,0.102-1.339-0.066-1.568-0.65
	c-3.713-9.453-5.707-19.889-8.254-29.693c-0.75-2.887-1.495-5.773-2.229-8.664c-0.772-3.037-1.532-6.082-2.269-9.129
	c-0.484-2.014-1.14-4.115-1.53-6.217c-0.2,0.234-0.401,0.467-0.605,0.695c-9.665,10.84-24.182,17.049-37.751,21.223
	c-15.519,4.775-31.67,7.5-47.834,8.846c-0.456,0.037-0.769-0.049-0.967-0.201c-0.596,0.381-1.366,0.707-2.36,0.967
	c-0.691,0.182-1.389,0.363-2.086,0.51c-0.095,3.387,0.985,7.23,1.544,10.502c0.624,3.654,1.018,7.76,2.537,11.18
	c0.087,0.197,0.044,0.389-0.08,0.563c-0.509,0.707-2.425,1.102-2.818,0.217c-1.767-3.977-2.178-8.846-2.852-13.1
	c-0.456-2.873-1.325-6.115-1.242-9.076c-0.531-0.025-1.06-0.102-1.584-0.252c-0.043,0.059-0.086,0.117-0.146,0.182
	c-3.452,3.566-22.155,29.951-27.262,17.494c-0.095-0.232-0.065-0.451,0.046-0.643c-2.952,0.168-5.881-0.904-7.376-3.635
	c-0.143-0.258,0.024-0.523,0.338-0.742c-4.124-0.889-7.486-3.852-6.522-8.369c-2.542-0.127-5.592-0.891-4.891-3.918
	c0.59-2.543,2.175-4.834,3.957-6.877c-4.062-2.582-7.689-6.441-11.35-9.537c-3.543-2.998-7.945-5.887-11.081-9.381
	c-4.249,3.201-9.063,6.234-14.315,6.986c-4.627,0.662-8.006-5.586-10.006-8.863c-2.383-3.906-3.804-6.668-0.48-10.299
	c3.55-3.881,7.894-7.025,12.282-9.889c1.453-0.945,2.929-1.883,4.427-2.795c-47.541,0.248-95.083,0.432-142.623,0.006
	c-0.076,23.9-0.137,47.801-0.138,71.701c0,1.143-2.919,1.676-2.919,0.283c0.001-29.145,0.09-58.285,0.192-87.428
	c-0.083-0.039-0.072-0.102,0-0.174c0.177-50.002,0.406-100.002,0.415-150.004c-4.522,2.832-9.051,5.658-13.576,8.486
	c-0.011,76.28-1.213,152.553-1.221,228.834c0,1.143-2.919,1.678-2.919,0.283c0.008-75.766,1.191-151.525,1.218-227.292
	c-12.448,7.775-24.901,15.545-37.375,23.281c-0.082,0.053-0.174,0.092-0.27,0.127c-0.719,0.707-2.653,0.854-2.653-0.275
	c0-6.578,0-13.158,0-19.736c-0.369-0.225-0.456-0.578,0.085-0.986c0.181-0.354,0.647-0.617,1.156-0.734
	c73.049-45.324,145.979-90.842,219.029-136.166c0.761-0.473,2.212-0.232,2.404,0.313c72.08,44.723,144.16,89.447,216.24,134.168
	c0.695-0.064,1.361,0.174,1.372,0.854c0.231,0.143,0.463,0.287,0.694,0.43c0.222,0.139-0.149,0.447-0.692,0.707
	C517.556,258.804,517.556,264.88,517.556,270.956z M136.982,238.604c-0.001,11.051-0.033,22.102-0.054,33.152
	c0.49-0.211,1.017-0.379,1.249-0.377c50.462,0.477,100.927,0.219,151.389-0.066c0.582-42.859,1.316-85.729,0.573-128.59
	C238.967,174.489,188.03,206.636,136.982,238.604z M297.652,341.652c-0.931,1.215-3.321,4.451-0.291,4.643
	c1.857,0.113,3.54-0.297,5.258-0.969c1.438-0.563,3.104,0.822,1.241,1.551c-1.621,0.633-8.385,2.758-10.366,0.521
	c-0.101,0.053-0.2,0.104-0.302,0.152c0.693,2.746,0.837,5.973-1.975,7.473c-1.589,0.848-3.442,0.787-5.159,0.258
	c0.199,1.584-0.093,3.156-1.641,4c0.004,0.004,0.01,0.006,0.014,0.01c1.515,1.346,3.295,3.521,1.68,5.469
	c-1.137,1.371-3.168,1.865-4.964,1.912c3.955,3.082,9.235,4.57,13.875,6.412c-1.436-6.318,6.576-16.066,14.2-18.016
	c0.28-4.018-0.819-8.801-2.983-12.152c-1.907-2.953-4.864-5.457-7.949-2.035C298.255,341.179,298.001,341.451,297.652,341.652z
	 M319.936,284.271c0.986,6.693,6.063,10.365,11.802,13.213c5.02,2.493,10.588,4.223,15.262,7.36
	c4.356,2.926,7.428,6.654,9.88,11.195c1.668-1.57,3.635-2.926,5.749-4.064c6.979-3.764,14.079-8.561,21.552-11.631
	c-2.822-0.75-5.433-2.559-7.713-4.356c-1.7,0.387-3.676,0.305-5.911-0.393c-1.761-0.549,0.36-2.418,1.656-2.014
	c7.392,2.305,9.6-5.381,8.264-11.285c-0.351-1.553-0.911-3.227-1.794-4.654c-0.654-0.77-1.344-1.543-2.008-2.225
	c-0.144-0.105-0.278-0.223-0.432-0.314c-2.934-1.791-5.957-0.012-8.268,2.027c-0.004,0.072-0.014,0.15-0.017,0.225
	c-0.034,0.896-1.577,1.385-2.408,1.035c-0.931-0.057-1.702-0.578-0.888-1.369c0.14-0.137,0.285-0.271,0.431-0.408
	c0.031-0.396,0.071-0.799,0.119-1.201c-0.144,0.068-0.236,0.113-0.236,0.113s0.917-5.105,1.423-9.352
	c0.051-3.566-0.99-6.711-5.194-8.748c-4.771-2.314-6.204-5.162-4.96-10.125c-6.922,0.006-16.372-2.537-19.737-8.867
	c-3.718,6.195-4.907,13.777-7.705,20.371c-0.14,0.33-0.67,0.576-1.239,0.713c-0.107,0.063-0.199,0.109-0.237,0.123
	c-0.585,0.234-1.329,0.381-1.897,0.045c-1.312-0.773-2.647-1.188-3.067,0.613c-0.426,1.824,0.747,3.35,2.105,4.42
	c0.036,0.029,0.058,0.059,0.075,0.09c0.393-0.002,0.663,0.055,0.607,0.18C322.593,270.759,318.976,277.759,319.936,284.271z
	 M330.962,244.591c0.089-0.236,0.179-0.471,0.271-0.705c0.705-1.779,1.514-3.506,2.485-5.148c0.335-0.564,0.684-1.125,1.062-1.668
	c0.142-0.203,0.519-0.381,0.949-0.5c-0.188-0.615-0.33-1.262-0.407-1.938c-0.012-0.098,0.001-0.189,0.022-0.279
	c-0.037-0.012-0.074-0.025-0.11-0.039c-4.322-1.563-9.1-3.475-13.581-4.172c-8.809-1.371,0.974,8.434,2.607,9.742
	c2.074,1.664,4.269,3.406,6.646,4.678C330.926,244.569,330.944,244.581,330.962,244.591z M454.955,389.158
	c4.179,0.014,8.354,0.131,12.532,0.172c-0.122-33.682-0.251-67.359-0.334-101.04c-0.139,0.037-0.272,0.061-0.396,0.061
	c-19.563-0.004-39.126-0.166-58.688-0.176c-0.827,1.229-1.699,2.438-2.62,3.615c-0.149,0.191-0.46,0.348-0.82,0.457
	c-0.337,0.787-2.121,1.309-2.798,0.537c-0.113-0.129-0.221-0.264-0.334-0.393c-3.054,2.621-6.104,5.395-9.746,7.057
	c3.595,1.459,6.469,3.977,8.886,7.006c0.721,0.152,1.44,0.316,2.146,0.523c23.686,6.947,36.412,33.223,44.073,54.652
	C449.967,370.328,453.21,379.738,454.955,389.158z M400.222,233.608c-17.817-16.27-43.485-16.314-61.603-0.666
	c0.814,0.316,1.624,0.641,2.421,0.971c13.227,5.475,26.17,12.979,36.032,23.482c9.713,10.35,17.335,22.396,26.585,33.131
	c0.119-0.16,0.245-0.318,0.36-0.48c0.707-0.98,1.368-1.982,1.998-2.996c1.529-2.461,2.834-5.006,3.895-7.611
	c1.818-4.473,2.928-9.107,3.263-13.744C414.009,254.12,410.021,242.558,400.222,233.608z M338.603,235.647l2.242,0.822
	c-0.754-0.32-1.514-0.629-2.275-0.928C338.579,235.579,338.592,235.612,338.603,235.647z M392.889,297.226
	c2.6-1.922,5.028-4.057,7.517-6.117c-0.111-0.133-0.225-0.262-0.334-0.395l-10.646,8.092c0.026,0.01,0.04,0.029,0.063,0.041
	C390.59,298.597,391.72,298.091,392.889,297.226z M467.128,272.749c-17.338,0.211-34.675,0.264-52.013,0.281
	c-1.265,4.729-3.326,9.242-5.978,13.484c19.337,0.01,38.675,0.168,58.014,0.176C467.14,282.044,467.137,277.396,467.128,272.749z
	 M332.698,230.819c1.321,0.438,2.637,0.893,3.935,1.369c17.597-14.977,43.33-17.502,62.252-3.074
	c4.012,3.059,7.619,6.766,10.517,10.941c-4.708-11.361-17.975-20.496-28.728-23.494
	C362.977,211.626,345.883,219.458,332.698,230.819z M317.684,287.911c-2.949,0.012-5.897,0.076-8.848,0.105
	c0.018,0.068,0.029,0.141,0.028,0.223c-0.115,17.389-0.184,34.776-0.187,52.165c0,0.172-0.063,0.326-0.168,0.467
	c2.771,3.887,3.897,9.881,3.653,13.854c1.72,0.066,3.341,0.656,4.749,1.883c0.534-0.1,1.087-0.043,1.415,0.281
	c8,7.896,16.896,14.799,24.891,22.693c-0.266-2.629-0.481-5.266-0.617-7.912c-0.289-5.684-0.604-12.629,0.098-19.395
	c0.354-3.41,0.971-6.773,1.977-9.908c1.253-3.906,3.114-7.455,5.849-10.285c0.772-0.803,1.621-1.539,2.539-2.215
	c-0.398,0.033-0.77-0.033-0.984-0.238c-0.1-0.094-0.165-0.215-0.188-0.367c-0.355-2.434-0.109-4.652,0.583-6.668
	c0.013-0.035,0.021-0.072,0.032-0.107c0.567-1.604,1.426-3.074,2.497-4.418c-0.224-0.012-0.395-0.07-0.462-0.203
	c-3.03-6-7.252-10.764-13.304-13.799c-5.23-2.621-10.86-4.494-15.833-7.622C321.935,294.263,319.005,291.503,317.684,287.911z
	 M342.396,430.544c0.402-0.539,0.863-1.031,1.37-1.488c-0.264,0.012-0.489-0.025-0.629-0.139
	c-8.747-7.137-16.142-15.629-23.759-23.908c-0.04,0.006-0.08,0.012-0.11,0.012c-3.378,0.033-6.752,0.146-10.128,0.217
	c0.895,1.408,1.505,2.949,1.667,4.57c0.602,6.021-3.854,9.748-8.736,12.305c5.89,5.48,11.161,11.588,17.313,16.789
	c0.1-0.123,0.194-0.248,0.307-0.363c1.361-1.408,3.83-1.604,5.604-1.943c4.868-0.938,9.805-0.285,14.665-1.221
	c0.255-0.049,0.478-0.043,0.68-0.01c0.047-0.641,0.147-1.242,0.299-1.809C341.241,432.419,341.74,431.421,342.396,430.544z
	 M300.747,376.906c5.922-5.064,12.338-10.057,16.799-16.463c0.058-0.082,0.151-0.16,0.271-0.23c-0.695-0.66-1.396-1.316-2.079-1.99
	c-0.467,0.076-0.902,0.045-1.123-0.172c-7.086-7.014-21.883,11.166-14.901,17.141c0.199,0.043,0.349,0.131,0.407,0.277
	c0.02,0.047,0.041,0.092,0.061,0.137c0,0.002,0.002,0.006,0.002,0.008C300.36,376.05,300.554,376.478,300.747,376.906z
	 M349.429,425.744c-0.108-0.061-0.182-0.146-0.188-0.262c-0.959-13.975-3.856-27.727-5.545-41.635
	c-0.166-0.057-0.313-0.143-0.431-0.264c-7.492-7.865-16.029-14.594-23.977-21.973c-4.841,6.408-11.563,11.496-17.559,16.721
	c-0.059,0.051-0.143,0.098-0.236,0.141c4.719,9.43,12.729,16.979,19.806,24.637c7.831,8.471,15.36,17.217,24.3,24.563
	C346.768,426.927,348.07,426.298,349.429,425.744z M277.789,363.847c0.332,0.029,0.631,0.143,0.822,0.377
	c0.018,0.021,0.036,0.039,0.054,0.061c0.589,0.24,1.238,0.416,1.963,0.492c1.009,0.107,2.602,0.15,3.021-0.529
	c0.835-1.359-1.011-2.982-1.892-3.766c-0.156-0.139-0.198-0.289-0.164-0.436c-1.475,0.074-2.967-0.301-4.308-1.021
	c-0.682-0.363-1.413-0.832-2.072-1.391C274.805,360.216,275.725,362.58,277.789,363.847z M279.049,350.064
	c-1.587,0.619-3.409,1.814-2.935,3.787c0.397,1.646,1.816,2.904,3.225,3.734c0.699,0.41,1.584,0.797,2.32,0.941
	c0.475,0.094,0.687,0.119,0.989,0.105v-0.002c-0.109,0.002-0.056-0.018,0.034-0.035c0.012-0.014,0.018-0.018,0.037-0.041
	c0.093-0.111,0.171-0.205,0.221-0.314c0.164-0.352,0.265-0.729,0.293-1.117c0.088-1.182-0.288-2.393-0.678-3.488
	c-0.023-0.064-0.019-0.131-0.003-0.197c-1.249-0.938-2.414-2.129-3.244-3.498C279.202,350,279.104,350.042,279.049,350.064z
	 M284.535,339.292c-2.025,1.529-3.788,3.633-3.531,6.291c0.24,2.479,1.72,4.715,3.686,6.199c0.939,0.713,1.972,1.348,3.109,1.682
	c0.432,0.125,0.857,0.225,1.31,0.238c0.271,0.008,0.603-0.074,0.603-0.074c1.455-0.682,1.087-3.326,0.598-5.256
	c-1.229,0.092-2.447-0.188-3.487-1.063C284.781,345.591,284.1,342.205,284.535,339.292z M295.009,340.917
	c-0.577-0.844-1.174-1.67-1.84-2.441c-0.906-1.047-1.916-2.119-3.19-2.719c-0.337-0.158-0.63-0.227-0.887-0.238
	c-0.003,0.004-0.021,0.01-0.039,0.014c-0.021,0.008-0.039,0.014-0.038,0.008c-0.002,0-0.006,0-0.008,0
	c-0.044,0.027-0.087,0.059-0.13,0.09c-0.033,0.027-0.068,0.061-0.085,0.078c-0.186,0.188-0.229,0.246-0.246,0.271
	c-0.234,0.338-0.433,0.701-0.584,1.084c-0.289,0.721-0.488,1.824-0.536,2.729c-0.096,1.838,0.212,4.02,1.302,5.492
	c0.396,0.533,0.766,0.885,1.213,1.088c0.385-0.752,2.007-1.146,2.638-0.553c0.116-0.053,0.238-0.1,0.365-0.137
	C292.938,344.123,293.775,342.408,295.009,340.917z M288.779,333.738c-0.03-15.074,0.122-30.148,0.293-45.225
	c-50.723-0.004-101.446-0.254-152.171-0.262c-0.085,33.766-0.215,67.534-0.334,101.301c50.682,0.004,101.361,0.254,152.042,0.262
	c-0.053-0.111-0.089-0.24-0.089-0.393c0.008-5.4,0.126-10.799,0.151-16.199c-4.753-1.799-9.518-3.824-12.714-7.732l0,0l0,0
	c-3.047-1.652-4.664-4.891-3.33-8.896c0.121-0.363,0.537-0.645,1.019-0.814c-0.229-0.428-0.399-0.879-0.468-1.361
	c-0.394-2.818,2.568-4.453,4.787-5.318c0.204-0.08,0.491-0.172,0.79-0.223c-0.352-0.799-0.59-1.639-0.646-2.516
	c-0.268-4.221,2.774-7.287,6.169-9.32c0.303-0.182,0.671-0.334,1.042-0.389c0.089-0.182,0.181-0.357,0.28-0.523
	c0.718-1.189,1.881-2.041,3.186-2.357C288.784,333.759,288.779,333.751,288.779,333.738z M281.969,404.384
	c3.076-1.75,6.245-3.338,9.521-4.592c3.022-1.156,6.608-2.57,9.777-1.156c2.516,1.123,5.168,3.041,7.046,5.436
	c3.335-0.035,6.668-0.143,10.002-0.209c-0.6-0.648-1.195-1.299-1.801-1.941c-7.188-7.658-15.045-15.477-19.142-25.326
	c-0.478-0.342-0.862-0.729-1.197-1.139c-0.45,0.227-0.985,0.32-1.402,0.141c-1.027-0.443-2.097-0.861-3.181-1.271
	c-0.036,4.957-0.132,9.912-0.138,14.871c-0.001,0.535-0.509,0.922-1.101,1.088c-0.573,0.301-1.541,0.639-1.849,0.639
	c-50.647-0.004-101.295-0.252-151.942-0.264c-0.016,4.576-0.033,9.154-0.048,13.73C185,404.832,233.484,404.638,281.969,404.384z
	 M311.329,448.011c0.339-0.35,0.676-0.689,1.006-1.02c1.298-1.299,2.619-2.631,4.069-3.762c0.736-0.576,1.2-1.313,1.619-2.076
	c-0.186-0.035-0.356-0.105-0.498-0.225c-6.545-5.459-12.052-11.979-18.331-17.721c-0.97-0.887,0.277-1.951,1.356-1.988
	c4.888-2.662,9.371-7.242,6.644-13.156c-0.44-0.955-1.004-1.895-1.648-2.789c-0.215-0.027-0.244-0.105-0.161-0.213
	c-1.665-2.234-3.899-4.143-6.44-5.086c-3.092-1.146-6.932,1.025-9.698,2.348c-4.086,1.951-8.049,4.197-11.842,6.672
	c-4,2.607-16.556,9.359-13.64,15.549c1.809,3.838,4.459,7.914,7.611,10.813c3.687,3.393,12.344-3.865,15.341-6.219
	c0.58-0.455,2.813-0.58,2.601,0.037c0.063,0.035,0.119,0.076,0.162,0.129c3.151,3.715,7.815,6.729,11.523,9.861
	C304.212,441.882,308.034,445.734,311.329,448.011z M349.634,455.32c-1.386-1.33-1.971-3.764-2.86-5.248
	c-2.244-3.744-5.603-8.244-6.104-12.813c-0.066,0.02-0.113,0.051-0.188,0.064c-3.208,0.617-6.309,0.57-9.562,0.688
	c-1.397,0.051-8.288-0.064-9.218,1.826c-1.045,2.125-2.308,3.707-4.078,5.268c-2.892,2.545-14.765,13.984-4.77,13.418
	c1.524-0.088,1.505,1.143,0.673,1.754c-0.795,3.635,1.645,6.273,5.215,6.859c1.165,0.189,1.037,0.938,0.462,1.461
	c0.203,0.066,0.371,0.182,0.468,0.357c1.21,2.207,3.692,3.02,6.072,2.611c0.396-0.066,1.407,0.016,1.261,0.658
	c-0.054,0.234-0.209,0.416-0.408,0.559c0.179,0.104,0.323,0.246,0.406,0.447c2.301,5.615,10.531-4.336,12.494-6.529
	c3.219-3.598,6.097-7.537,9.452-11.004C349.12,455.523,349.363,455.398,349.634,455.32z M453.034,397.63
	c-0.004-0.027-0.011-0.057-0.015-0.084c-0.715-4.922-1.666-9.814-2.83-14.656c-1.845-7.682-4.229-15.236-7.022-22.613
	c-0.149-0.395-0.29-0.795-0.442-1.189c-4.851-12.568-10.514-24.285-19.41-34.516c-1.079-1.242-2.188-2.451-3.323-3.623
	c-3.854-3.973-8.08-7.443-12.97-9.83c-2.254-1.1-4.648-1.965-7.215-2.541c-0.231,0.049-0.456,0.074-0.647,0.063
	c-0.083,0.045-0.174,0.09-0.278,0.131c-7.57,3.053-14.157,7.895-21.387,11.611c-1.383,0.711-2.991-0.566-1.222-1.479
	c7.234-3.721,13.808-8.557,21.386-11.611c0.033-0.014,0.066-0.021,0.102-0.031c-0.197-0.248-0.402-0.488-0.606-0.729
	c-1.685-1.982-3.605-3.727-5.84-5.002c-0.562-0.32-1.138-0.619-1.738-0.879c-0.152-0.064-0.316-0.113-0.473-0.176
	c-0.091,0.043-0.164,0.092-0.271,0.125c-0.582,0.178-1.154,0.379-1.721,0.59c-6.68,2.48-12.383,7.023-18.798,10.074
	c-7.175,3.412-14.858,8.1-13.524,17.219c0.013,0.084,0.009,0.166-0.004,0.246c0.148-0.09,0.292-0.186,0.444-0.271
	c0.849-0.473,3.457-0.254,1.755,0.695c-6.777,3.777-9.491,11.807-10.656,19.053c-1.515,9.418-1.234,19.063-0.423,28.537
	c1.349,15.742,4.976,31.266,6.157,47c1.447-1.131,3.273-1.926,4.985-2.498c0.391-0.131,0.718-0.125,0.978-0.041
	c14.881-6.906,29.036-15.557,44.364-21.406c-4.183-8.229-8.851-16.201-12.619-24.637c-3.305-7.398-7.566-16.541-5.804-24.863
	c0.278-1.313,3.247-1.664,2.939-0.211c-1.789,8.441,2.834,18.057,6.313,25.506c3.688,7.889,8.025,15.426,11.957,23.186
	c1.503-0.533,3.013-1.049,4.541-1.52c1.706-0.527,2.002,0.67,0.318,1.188c-1.647,0.508-3.274,1.07-4.893,1.652
	c-0.405,0.488-1.207,0.775-1.817,0.662c-15.44,5.84-29.702,14.672-44.681,21.592c-0.099,0.395-0.426,0.785-1.036,0.99
	c-10.206,3.408-2.422,12.639,1.041,18.461c0.807,1.357-1.939,2.494-2.646,1.307c-2.501-4.207-6.104-8.541-6.628-13.572
	c-0.092-0.881-0.011-1.678,0.205-2.4c-7.936,3.814-6.585,10.795-2.613,17.582c1.506,2.574,2.816,5.238,4.281,7.824
	c1.803,3.182,9.602,2.639,7.907-1.264c-0.437-1.004-0.946-1.963-1.446-2.934c-0.351-0.684,2.443-1.662,2.898-0.777
	c1.074,2.094,1.724,3.906,1.334,5.352c15.066-1.268,30.183-3.689,44.682-8.043c14.977-4.496,32.729-11.369,41.503-25.242
	c1.03-1.629,1.92-3.33,2.658-5.084C453.023,409.246,453.875,403.445,453.034,397.63z M467.541,404.5
	c-0.016-4.549-0.032-9.1-0.049-13.648c-4.089-0.021-8.175-0.133-12.265-0.168c0.535,3.193,0.892,6.383,0.994,9.543
	c0.05,1.527-0.017,3.041-0.152,4.545c0.152-0.045,0.3-0.07,0.429-0.072C460.181,404.667,463.861,404.57,467.541,404.5z
	 M467.079,242.741c-52.422-33.469-104.361-67.691-157.178-100.543c-0.034,43.061-0.72,86.113-1.087,129.168
	c3.652,0,7.304,0.109,10.954,0.115c0.73-1.867,1.536-3.709,2.349-5.543c-0.144-0.021-0.267-0.066-0.358-0.141
	c-2.016-1.588-3.434-4.436-1.396-6.615c1.589-1.699,4.003-1.932,6.108-1.287c1.377-3.541,2.397-7.285,3.634-10.926
	c-0.096-0.043-0.193-0.092-0.294-0.139c-0.886-0.424-1.903-0.959-2.988-1.59c-4.58-2.662-10.285-7.002-11.644-11.465
	c-0.266-0.875-0.369-1.756-0.259-2.629c0.039-0.309,0.124-0.584,0.229-0.842c1.061-2.617,5.234-2.801,7.502-2.291
	c2.519,0.566,5.063,1.254,7.595,2.025c3.192-2.797,6.662-5.424,10.343-7.74c0.619-0.391,1.244-0.771,1.875-1.143
	c11.702-6.895,25.338-10.557,38.845-6.791c14.496,4.043,32.855,17.381,32.782,33.98c0,0.113-0.032,0.219-0.076,0.318
	c1.021,2.627,1.756,5.367,2.146,8.195c0.724,5.242,0.37,10.336-0.816,15.215c0.372-0.141,0.722-0.24,0.896-0.24
	c16.963-0.018,33.923-0.07,50.884-0.266C467.11,261.962,467.08,252.351,467.079,242.741z M514.63,269.776c0-5.762,0-11.525,0-17.289
	c-72.165-44.773-144.328-89.553-216.494-134.326c-72.69,45.104-145.262,90.396-217.952,135.496c0,6.033,0,12.064,0,18.098
	c18.055-11.207,36.081-22.463,54.091-33.74c0.177-0.203,0.446-0.365,0.753-0.473c51.583-32.303,103.05-64.789,154.765-96.881
	c0.554-0.344,1.472-0.311,2.007-0.059c0.639-0.098,1.219,0.031,1.227,0.475c0.774,43.406,0.031,86.816-0.558,130.221
	c0.898-0.004,1.798-0.01,2.697-0.016c1.427-0.008-1.262,1.193-1.875,1.197c-0.333,0.002-0.667,0.004-1,0.006
	c-0.599,0.73-2.625,1.008-2.727,0.016c-50.878,0.287-101.759,0.557-152.636,0.082c-0.008,4.561-0.011,9.119-0.022,13.68
	c51.076,0.006,102.152,0.26,153.229,0.264c0.146,0,0.273,0.016,0.392,0.035c0.75-0.088,1.509,0.205,1.5,1.012
	c-0.175,15.325-0.333,30.651-0.302,45.977c0,0.158-0.042,0.303-0.11,0.434c2.292,0.836,4.067,2.873,5.504,4.9
	c1.263-0.967,2.633-1.643,3.854-1.787c1.836-0.217,3.427,0.211,4.788,1.074c0.008-16.557,0.07-33.113,0.182-49.668
	c0.002-0.295,0.182-0.549,0.448-0.74c0.058-0.381,1.364-1.021,1.967-1.023c2.981-0.004,5.963-0.074,8.942-0.107
	c-0.308-1.244-0.438-2.578-0.332-4.018c0.243-3.307,1.098-6.463,2.211-9.543c-3.66,0.008-7.319-0.104-10.979-0.113
	c-0.858,0.479-2.319,0.455-2.312-0.537c0.371-44.094,1.087-88.188,1.098-132.281c0-0.605,0.802-1.035,1.564-1.109
	c0.426-0.096,0.85-0.092,1.126,0.08c53.616,33.285,106.307,68.023,159.492,101.982c0.346,0.053,0.627,0.207,0.752,0.479
	C484.775,251.052,499.667,260.47,514.63,269.776z" fill="#231f20"></path>
</svg>