<?xml version="1.0" encoding="utf-8"?>
<!-- Generator: Adobe Illustrator 25.4.1, SVG Export Plug-In . SVG Version: 6.00 Build 0)  -->
<svg version="1.1" id="Layer_1" xmlns="http://www.w3.org/2000/svg" xmlns:xlink="http://www.w3.org/1999/xlink" x="0px" y="0px"
	 viewBox="0 0 595.3 595.3" style="enable-background:new 0 0 595.3 595.3;" xml:space="preserve">
<style type="text/css">
	.st0{fill:#761214;}
	.st1{fill:#231F20;}
	.st2{fill:#303030;}
</style>
<path id="color_x5F_2" class="st0" d="M399.5,461.3c-1.1,2.5-2.3,5.1-3.5,7.6c-1.9-2.7-5.6-1.9-8.1-0.4c-0.1,0-0.1,0.1-0.2,0.1
	c0,0-0.1,0-0.1,0.1c-1.1,0.7-1.9,1.6-2.4,2.7c-0.5,0.4-0.7,0.9-0.5,1.4c-0.2,1.2-0.1,2.5,0.8,3.8c0.1,0.2,0.3,0.4,0.5,0.6
	c0,0.1-0.1,0.1-0.1,0.2c-1.5,3.6-4,8.3-0.7,11.5c-5,0-9.9,0-14.9,0c0-25.9,0-51.7,0-77.6c0-0.1,0-0.1-0.1-0.2
	c-0.5-8.3-5.2-15.7-14-16.2c-0.1,0-0.2,0-0.4,0c-4,0-8,0-12,0c-2-6-2.3-12.4-4.1-18.5c-0.3-1.2-3.2-0.4-2.9,0.8
	c1.7,5.8,2.1,11.9,3.9,17.7c-25.9,0-51.8,0-77.7,0c2.5-12.5,14.4-23.8,17.7-36.1c6,1.7,12,2.1,16.8,0.3c1.1-0.4,2.2-0.9,3.1-1.6
	c3.4-2.2,6-5.9,7.1-11.3c5.5,2.2,25.9,1.6,37-5.9c0.5-0.3,0.9-0.6,1.3-1c4.7,4.1,7.5,16.8,8.6,20.2c4.3,13.6,8.5,27.2,14.9,40
	c7.2,14.5,15.5,28.4,22.2,43.3C394.4,448.9,396.8,455.1,399.5,461.3z M389.7,469.1c0.6-0.2,1.1-0.3,1.4-0.4
	C390.7,468.7,390.3,468.8,389.7,469.1C389.8,469.1,389.7,469.1,389.7,469.1z M400.8,464.4c-0.5,1.1-1,2.1-1.5,3.2
	c0.7-0.7,1.5-1.2,2.3-1.5C401.3,465.5,401.1,465,400.8,464.4z M348.1,337.3L348.1,337.3c-0.2,0.2-0.3,0.3-0.5,0.5
	c0.2,0.1,0.4,0.3,0.6,0.4C348.2,337.9,348.1,337.6,348.1,337.3z M237.4,394.7C237.4,394.7,237.4,394.7,237.4,394.7c0,0-0.1,0-0.1,0
	C237.3,394.7,237.3,394.7,237.4,394.7z M239.9,348.9c-0.1,0.1-0.3,0.3-0.7,0.5c-7,3.2-13.8,6.3-21.6,6.6c-1,0-2.1,0.1-3.3,0.1
	c-0.6,0.3-1.3,0.5-1.6,0.5c-2.3-0.4-4.4,5.7-5.4,8.7l-3.7,13.9c-0.5,2.6-1,5.1-1.5,7.7c-3.2,17-5.5,34.1-8.6,51.1
	c-2,11.1-9.5,30.9,1.1,40c2.6,2.2,5.7,3.2,9,3.9c0.2,0,0.5,0.1,0.9,0.1c0-23.4,0-46.7,0-70.1c0-0.1,0-0.2,0.1-0.3
	c0.5-9.1,6-17.2,16.1-16.9c0.5,0,0.7,0.1,0.8,0.3c0.3-0.2,0.6-0.3,1-0.3c4.4,0,8.8,0,13.1,0c-0.1-0.1-0.1-0.2,0-0.4
	c11.1-15,12.9-33.2,12.3-51.3C245.3,345.2,242.7,347.2,239.9,348.9z M221.1,354.1c2.5-0.4,5-1,7.4-1.8
	C226.1,352.9,223.5,353.5,221.1,354.1z"/>
<path id="color_x5F_1" class="st1" d="M292.6,300.1c-4.4,1.5-7.9,1.9-12.4-0.1c0,0,0,0,0,0c0,0,0,0,0,0c-0.7-0.4-2.5,0.1-2.6,0.9
	c-0.4,4.9,0.7,14.2,7.5,13.1c2.7-0.4,4.2-3.2,5.4-5.3c1.5-2.6,2.9-5.4,4.1-8.2C295,299.6,292.8,300,292.6,300.1z M285.2,312.3
	c-1.5,1.5-3.7-3.6-4-4.5c-0.6-1.8-0.8-3.7-0.8-5.6c3.7,1.1,7.1,0.8,10.8-0.3C289.7,305.6,287.9,309.6,285.2,312.3z M292.6,274
	c-1.2-1.3-2.1-2.9-1.7-4.7c0.2-1.1,3.2-1.5,2.9-0.3c-0.3,1.5,0.4,2.8,1.5,3.9C296.1,273.7,293.3,274.8,292.6,274z M267.9,284.8
	c0.8,0.9-1.9,1.9-2.7,1.2c-1.2-1.3-2.1-2.9-1.7-4.7c0.2-1.1,3.2-1.5,2.9-0.3C266.1,282.4,266.9,283.7,267.9,284.8z M267,274.1
	c2,0,1.4,2.1-0.2,2.2c-2.5,0.1-4.6,1.2-5.9,3.4c-0.4,0.6-1.1,1-1.9,0.9c-0.6-0.1-1.3-0.6-0.9-1.3C260,276.1,263.2,274.2,267,274.1z
	 M448.8,488.8c-10.4,0-20.8,0-31.2,0c3-2,5.3-6.2,7.5-8.3c0.4-0.4,0.4-0.8,0.1-1c0,0,0-0.1,0-0.1c-1.3-2.4-3.3-3.1-5.2-2.6
	c-1.2-2.2-2.9-3.6-4.9-3.6c0-0.1,0-0.3-0.1-0.4c-1.6-3.3-4-4.4-6.6-3.6c-1-1.9-2.3-3-3.8-3.4c-0.8-1.6-1.5-3.3-2.2-5
	c3.5-7.9,6.8-16,10.1-23.9c0.4-1-2.5-0.7-2.9,0.3c-2.8,6.8-5.6,13.6-8.5,20.4c-2.6-6.1-5-12.3-7.8-18.3c-7.5-16.4-17.2-31.6-24.4-48
	c-5.8-13.2-9.3-27.1-14-40.7c-1.3-3.7-3.1-9.6-6.6-12.4c-0.2-0.2-0.4-0.3-0.6-0.4c0.2-0.2,0.3-0.3,0.5-0.5
	c4.3-4.5,5.6-10.2,5.1-15.7c0.4-3.2-0.3-6.4-2.6-9.1c-0.1-0.1-0.3-0.3-0.4-0.4c-0.8-1.4-1.6-2.7-2.5-3.9c-4.5-5.6-8.8-5.4-10.5-6.5
	c0.5-1.1,0.9-2.3,1.3-3.5c1-3.8,0.8-8.1,0.4-12c-0.7-7.2-4.4-13-10.3-17.1c-6.7-4.7-13.9-6.9-17.2-15c-2.8-6.9-3.3-14.4-7.4-20.7
	c-7.1-11.2-21.2-16.9-33.8-18.5c-14.2-1.8-28.5,2.4-39.2,11.8c-14.6,5-25.2,16.8-29.2,31.7c-1.8,6.6-1.9,13.9,0.1,20.4
	c1,3.1,3.6,5.6,4.3,8.7c1,4,4.6,7.7,3.6,12c-1,4.7-6.2,8.8-8.3,13.2c-1,2-1.1,4.2-1.1,6.4c0,2.8,2.9,4.5,2.6,7.4
	c-0.1,1.9-3.1,4.1-4.2,5.4c-1.1,1.4-2,2.9-2.8,4.6c-2.9,3.7-5.9,8.3-8,14.4c-4.8,13.9,8.8,24.6,13,27.5c-3.8,16.6-5.9,33.6-8.7,50.4
	c-1.5,9.2-3.6,18.3-5.1,27.5c-1.1,6.5-1.3,13.9,2.2,19.8c2,3.3,5.3,5.2,8.8,6.3c0.9,0.3,6.1,0.7,6.2,1.9c0,1.5,0,3,0,4.6
	c-22.2,0-44.5,0-66.7,0c-1.2,0-3,1.9-1.1,1.9c71.6,0,143.1,0,214.7,0c32.1,0,64.3,0,96.4,0C449,490.6,450.8,488.8,448.8,488.8z
	 M422.3,480.1c-1.1,1.2-2.1,2.6-3.2,3.9c-0.7,0.8-2.5,3.4-3.9,3.9c0.3-2.2,1.4-4.3,2.5-6.2c0.6-1,1.5-2.2,2.5-2.8
	C421.1,478.3,421.8,479.2,422.3,480.1z M417.3,478c0,0.1,0.1,0.2,0.1,0.2c-0.1,0.1-0.3,0.2-0.4,0.4c-0.2,0.2-0.5,0.5-0.7,0.7
	c-0.4,0.1-0.7,0.2-0.9,0.5c-1.7,1.9-4.9,7.8-8,7.9c0.3-3,1.6-5.9,3.1-8.4c0.8-1.4,1.9-2.8,3.2-3.8
	C415.4,474.3,416.7,476.7,417.3,478z M412.2,473.5c0.1,0.1,0.2,0.2,0.3,0.3c-0.6,0.3-1.2,0.8-1.8,1.4c-0.8,0.8-1.6,1.7-2.3,2.8
	c-0.1,0.1-0.2,0.1-0.3,0.2c-1.4,1.6-3.3,5.9-5.7,6c0.3-3.2,1.7-6.4,3.3-9.1c0.9-1.5,1.9-3,3.4-4C410.4,470,411.7,472.4,412.2,473.5z
	 M406,470.6c-0.3,0.2-0.5,0.5-0.8,0.8c-0.6,0.6-1.2,1.4-1.7,2.1c-1.8,2.2-4.7,7.5-7.6,7.5c0.3-3.2,1.7-6.4,3.3-9.1
	c0.9-1.5,1.9-3,3.4-4c0,0,0.1,0,0.1-0.1c0.3,0.1,0.8,0,1.2-0.1c0.9,0.4,1.6,1.8,1.9,2.5C405.8,470.4,405.9,470.5,406,470.6z
	 M194.7,478c-10.7-9.1-3.2-28.9-1.1-40c3.1-17,5.4-34.1,8.6-51.1c0.5-2.6,1-5.1,1.5-7.7c0.9-4.2,1.9-8.5,3.2-12.6
	c0.1-0.3,0.2-0.8,0.4-1.3c1-3,3.1-9.1,5.4-8.7c0.3,0.1,1.1-0.2,1.6-0.5c1.2,0,2.3-0.1,3.3-0.1c7.8-0.3,14.6-3.4,21.6-6.6
	c0.4-0.2,0.6-0.3,0.7-0.5c2.7-1.7,5.4-3.7,7.9-5.9c0.6,18.1-1.2,36.3-12.3,51.3c-0.1,0.2-0.1,0.3,0,0.4c-4.4,0-8.8,0-13.1,0
	c-0.3,0-0.6,0.1-1,0.3c-0.1-0.2-0.4-0.3-0.8-0.3c-10-0.2-15.5,7.9-16.1,16.9c0,0.1-0.1,0.2-0.1,0.3c0,23.4,0,46.7,0,70.1
	c-0.4,0-0.7-0.1-0.9-0.1C200.3,481.2,197.2,480.2,194.7,478z M281,356.9c0.5-2.7,0.6-5.5,0-8.4c1,0.1,2.1,0,3.1-0.5
	c5.9-2.4,3.6-9.9-0.1-13.4c-6.3-6-17.4-9.9-25.1-6.2c2.8-6.7,2.8-14.1-1.9-21.6c-1.8-2.8-5.4-4.5-7.8-6.8c-3.6-3.5-0.4-9.4,0.3-13.5
	c1.6-9.4-1.1-20.2-5-28.7c-0.1-0.1-0.2-0.2-0.4-0.3c8.8,1.2,17.1,4,26.1,2.8c8.3-1.1,16.4-3,23.5-7.4c0.2,0.6,0.4,1.3,0.6,1.9
	c-4.8,1.2-8.9,4-11.1,9c-1.6,3.5-1.5,7.4-0.2,10.8c-2.1,0.7-3.9,1.9-5.2,3.6c-1.7-2.7-4-5.1-6.9-6.6c-0.1-0.1-0.3-0.1-0.4-0.1
	c-0.1,0-0.1,0-0.2,0c-8-0.8-16.1,1.7-19.5,9.5c-3.1,7.1,0.2,15.6,7,19c7.3,3.7,17.1,0.9,20.9-6.3c2.3-4.3,2-9.2,0.2-13.4
	c0.2-0.1,0.4-0.2,0.5-0.4c0.8-1.8,2.1-3.7,4-4.4c0.4,0.9,0.8,1.7,1.4,2.5c-0.4,0.3-0.6,0.6-0.4,1.1c1,2.2,2.8,4,4.2,5.9
	c1.7,2.1,3.9,5.1,0.1,6.1c-1.8,0.5-1.3,2.4,0.5,2c3-0.8,5.6-2.7,4.1-6c-0.6-1.5-1.6-2.7-2.6-3.9c6.3,2.9,14.3,1.2,18.7-4
	c1.8,2.8,3.4,5.7,4.5,8.8c5.9,15.4-6.2,30.7-20.2,35.6c-1.7,0.6-1.2,2.7,0.6,2.1c0.5-0.2,0.9-0.3,1.4-0.5c-0.6,3.6-1.2,7.4,0.4,10.7
	c1.8,3.8,6.2,6.7,9.5,9.4c-0.2,0.1-0.4,0.3-0.4,0.4c-0.9,4.8-2.5,9.4-6.7,12.2C293.4,361,286,358.6,281,356.9z M285.2,266.5
	c0.1-0.3,0.1-0.6,0.2-0.9c0.2,0,0.4,0,0.4,0c0.6-0.1,1.3-0.3,1.7-0.8c1.1-1.4,2.5-2.1,4.2-2.4c0.5-0.1,1.4-0.3,1.7-0.8
	c0.2-0.4-1-0.3-1.1-0.2c-2.4,0.4-4.6,1.2-6.4,2.7c1.5-4.2,4.9-6.6,9-7.6c3.1,7.5,8.5,13.9,13.1,20.6c-3.1,5.4-10.2,7.1-16.3,4
	C286.4,278.4,284.4,272,285.2,266.5z M298,256c1.1-0.1,2.1-0.1,3.2,0c6,3.3,9.2,9.7,8.3,16.6c0,0.3-0.1,0.5-0.1,0.8
	C305.3,267.7,300.7,262.2,298,256z M289.2,254.2c-2,1.1-4,1.9-6.2,2.7C285.5,255.9,287.5,255,289.2,254.2z M243,257.7
	c0-0.1-0.1-0.1-0.1-0.2c0.3,0,0.5,0.1,0.8,0.1C243.5,257.6,243.3,257.6,243,257.7z M228.5,352.3c-2.4,0.8-4.8,1.4-7.4,1.8
	C223.5,353.5,226.1,352.9,228.5,352.3z M268.7,273.3c6,3.3,9.2,9.7,8.3,16.6c-1.1,8.8-10.2,12.4-17.8,8.5c-5.3-2.7-7.4-9.1-6.5-14.7
	C254.1,275.7,261.4,272.7,268.7,273.3z M237.3,394.7c0.1,0,0.1,0,0.1,0c0.4-0.1,0.7-0.3,0.8-0.4c11.5-15.6,13.2-34.4,12.5-53.2
	c0-0.2-0.2-0.2-0.4-0.3c1.5-1.5,2.9-3.1,4.2-4.8c0.3-0.2,0.6-0.4,0.7-0.6c0.2-0.4,0.3-0.7,0.5-1.1c0.4-0.6,0.9-1.3,1.2-1.9
	c5.2-6.5,15.1-3,21.5,1.4c3.5,2.4,5.7,4.8,6.4,9.2c0.6,3.8-2.7,4.3-4.8,2.6c-0.4-1.1-0.9-2.2-1.5-3.3c0-0.3-0.3-0.4-0.7-0.4
	c0.3-0.1,0.6-0.3,0.7-0.6c0.4-0.8,1.2-1.5,1.8-2.2c0.5-0.5-0.4-0.6-0.7-0.6c-0.7,0-1.5,0.2-1.9,0.7c-0.8,0.8-1.6,1.5-2.1,2.5
	c-0.2,0.4,0.3,0.4,0.8,0.4c-0.4,0.2-0.7,0.5-0.8,0.8c0,0,0,0.1,0,0.1c0,1.7,0.7,3,1.8,4c5.8,17.2-13.6,31.4-17.2,47.7
	c-7.6,0-15.2,0-22.8,0C237.3,394.7,237.3,394.7,237.3,394.7z M401.6,466.1c-0.8,0.3-1.5,0.8-2.3,1.5c0.5-1.1,1-2.1,1.5-3.2
	C401.1,465,401.3,465.5,401.6,466.1z M393.5,470.6c0.4,0.9,0.4,1.8,0.3,2.7c-0.4,0.9-0.9,1.7-1.3,2.6c-1.5,1.6-3.7,0.9-4.7-1
	c-1-2.2,0.1-4.5,1.9-5.8c0,0,0,0,0,0c0.5-0.3,1-0.4,1.4-0.4C392.2,468.7,393,469.4,393.5,470.6z M386.7,486.2
	c-1.1-2.4,0.4-5.6,1.5-8c1,0.2,2.1,0,3.2-0.3C389.9,480.7,388.3,483.5,386.7,486.2z M354.6,359.5c4.3,13.6,8.5,27.2,14.9,40
	c7.2,14.5,15.5,28.4,22.2,43.3c2.8,6.1,5.2,12.3,7.8,18.5c-1.1,2.5-2.3,5.1-3.5,7.6c-1.9-2.7-5.6-1.9-8.1-0.4
	c-0.1,0-0.1,0.1-0.2,0.1c0,0-0.1,0-0.1,0.1c-1.1,0.7-1.9,1.6-2.4,2.7c-0.2,0.5-0.4,0.9-0.5,1.4c-0.2,1.2-0.1,2.5,0.8,3.8
	c0.1,0.2,0.3,0.4,0.5,0.6c0,0.1-0.1,0.1-0.1,0.2c-1.5,3.6-4,8.3-0.7,11.5c-5,0-9.9,0-14.9,0c0-25.9,0-51.7,0-77.6
	c0-0.1,0-0.1-0.1-0.2c-0.5-8.3-5.2-15.7-14-16.2c-0.1,0-0.2,0-0.4,0c-4,0-8,0-12,0c-2-6-2.3-12.4-4.1-18.5c-0.3-1.2-3.2-0.4-2.9,0.8
	c1.7,5.8,2.1,11.9,3.9,17.7c-25.9,0-51.8,0-77.7,0c2.5-12.5,14.4-23.8,17.7-36.1c6,1.7,12,2.1,16.8,0.3c1.1-0.4,2.2-0.9,3.1-1.6
	c3.4-2.2,6-5.9,7.1-11.3c5.5,2.1,25.9,1.6,37-5.9c0.5-0.3,0.9-0.6,1.3-1C350.7,343.3,353.5,356,354.6,359.5z M234.6,488.8
	c-9.1,0-18.2,0-27.3,0c0-1.8,0-3.6,0-5.3c0-23.2,0-46.4,0-69.6c0-0.1,0.1-0.2,0.1-0.3c-0.4-7.6,3.2-17.1,12.1-16.9
	c0.3,0,0.6-0.1,0.9-0.3c0.1,0.2,0.3,0.3,0.8,0.3c40.2,0,80.4,0,120.7,0c0.1,0,0.2,0,0.3,0c4.1,0,8.3,0,12.4,0c0,0,0.1,0,0.1,0
	c9,0,12.8,9.6,12.5,17.4c0,0.1,0,0.2,0.1,0.3c0,24.8,0,49.6,0,74.4C323.1,488.8,278.9,488.8,234.6,488.8z M388,488.8
	c0-0.1,0.1-0.1,0.1-0.2c0,0,0,0,0-0.1c1.7-2.8,3.4-5.6,4.9-8.5c-0.1,0.7-0.2,1.3-0.2,2c0,0.4,0.2,0.7,0.6,0.9
	c2.5,0.7,4.6-0.1,6.4-1.5c-0.3,1.3-0.6,2.7-0.6,3.9c0,0.4,0.2,0.7,0.6,0.9c2.1,0.6,3.6,0.3,4.9-0.6c-0.2,1.1-0.4,2.1-0.4,3.1
	c0,0,0,0.1,0,0.1C398.9,488.8,393.4,488.8,388,488.8z M412.4,487.1c-0.1,0.6-0.2,1.1-0.2,1.6c-0.6,0-1.2,0-1.9,0
	C411,488.3,411.7,487.8,412.4,487.1z"/>
<g>
	<path class="st2" d="M509.1,94.6c1.1,25.6,2.8,51.1,3.3,76.7c0.6,30.5,0.6,61-5.4,91.1c-4.6,23.2-4.6,46.5-1.2,69.8
		c0.2,1.6,0.2,3.3,0.3,5.2c-8.9-4.7-17.2-9.1-26.2-13.9c0.6-1.7,1.7-4.1,2.4-6.7c3.1-11.2,6.5-22.4,8.9-33.8
		c1.4-6.7-1.9-14.6,6.5-19.4c-14,4.1-27.6,5.8-40.4-0.3c-21-9.9-40.7-22-57.6-38.2c-15.9-15.2-26.7-32.8-29.7-55.5
		c-5.9-44.3-51.1-80.6-94.8-78.1c-2.4,0.1-5.4-0.6-7.4-1.9c-4.7-3.3-9-7.2-13.2-10.6c4.3-3.4,8.8-7.5,13.8-10.8
		c1.4-0.9,4.7-0.5,6.2,0.6c8.3,6.1,17.5,8,27.7,8c56.6-0.1,113.2-0.1,169.8-0.1c16.7,0,34,2.5,47.1-10.4c6.4,4.8,11.8,8.9,17.7,13.3
		c-2.3,1.1-5.4,1.8-7.2,3.8c-5.7,6-11.2,11.6-20.7,0.9C509.1,89.8,509,92.2,509.1,94.6z M412,194.2c-4.1-10.6-7.3-21.7-10.2-32.7
		c-12.3-46.2-53.8-79.2-101.5-80.5c-2-0.1-4,0.5-6.1,2.5c4,0.8,8.1,1.6,12.1,2.5c46.5,11.1,77,38.6,87.8,86.1
		c7.1,31.3,21.9,57.9,47.6,77.7c2.3,1.8,4.7,3.4,7.1,5.1c0.5-0.5,1-1.1,1.5-1.6C433.4,236.3,420.6,216.6,412,194.2z M409.8,80.7
		c-15.1,25.9,19.4,143.9,48.3,170C430.4,198.1,405.3,144.8,409.8,80.7z M469,247.2c-8.6-25.7-18.3-52.3-26.2-79.4
		c-8-27.5-9.7-55.9-6.2-84.6C421.9,107.8,445.9,223.9,469,247.2z M488.9,248.6c-9.1-26.5-16.7-53.3-19.2-81.3
		c-2.5-28.2-1.5-56.2,3.2-84.2C456.4,110.4,467.4,223.2,488.9,248.6z"/>
	<path class="st2" d="M435.5,299.2c3.8,4.9,8.6,11.1,14,18c12.4-11.6,20.6-24.8,22.8-41.3c0.2-1.4-1.9-4.4-3-4.5
		c-3.4-0.2-8.2-0.5-10.1,1.5C451,281,443.8,289.9,435.5,299.2z"/>
	<path class="st2" d="M487.8,271.6c-8.1-1.9-10.8,0.4-12.9,7.7c-3.5,12-9.4,23.3-14.6,35.6c3.2,3.3,7.6,8,12.8,13.6
		C482.6,310.4,488.9,292.2,487.8,271.6z"/>
	<path class="st2" d="M423.3,292.2c10.6,4.6,26.3-6.7,33.1-23.6c-2.4-0.5-5.3-2.1-6.8-1.2C438.7,273.3,430.2,281.7,423.3,292.2z"/>
</g>
</svg>
