<?xml version="1.0" encoding="utf-8"?>
<!-- Generator: Adobe Illustrator 25.4.1, SVG Export Plug-In . SVG Version: 6.00 Build 0)  -->
<svg version="1.1" id="Layer_1" xmlns="http://www.w3.org/2000/svg" xmlns:xlink="http://www.w3.org/1999/xlink" x="0px" y="0px"
	 viewBox="0 0 595.3 595.3" style="enable-background:new 0 0 595.3 595.3;" xml:space="preserve">
<style type="text/css">
	.st0{fill:#761214;}
	.st1{fill:#231F20;}
</style>
<path id="color_x5F_2" class="st0" d="M327.9,211.7c0.2,0.2,0.2,0.4,0.2,0.5c0,0-0.1-0.1-0.1-0.1C328,212,328,211.8,327.9,211.7z
	 M447.5,168.3v84h-138v-84H447.5z M359.2,210.2c0.1,0,0.2-0.3,0.7-0.8c1-1,2-2,3-3c2.9-2.9,5.9-5.7,8.9-8.6c2.5-2.5,5-5,7.4-7.6
	c0.7-0.8,2.9-2.7,2.4-4c-0.5-1.4-3.4-0.6-2.9,0.8c0.1,0.3-3.3,3.7-3.9,4.3c-2.7,2.8-5.4,5.4-8.2,8.1c-2.4,2.3-4.8,4.6-7.2,7
	c-0.9,0.9-2.9,2.3-3.3,3.7c0,0.1,0,0.2-0.1,0.3c0,0.1,0,0.2,0,0.3c0.3,1.2,2,2.3,2.8,3.2c2.5,2.5,5.1,5,7.7,7.5
	c2.8,2.7,5.5,5.4,8.2,8.1c0.7,0.7,4.1,4.3,4.1,4.4c-0.6,1.5,2.3,1.4,2.8,0.3c0.5-1.3-1.1-2.6-1.9-3.4c-2.5-2.8-5.2-5.4-7.8-8
	c-2.8-2.7-5.5-5.4-8.3-8.1c-1.1-1.1-2.2-2.1-3.2-3.2c-0.3-0.3-0.6-0.6-0.9-0.9C359.3,210.3,359.2,210.3,359.2,210.2z M409.9,212.2
	c0-0.1,0-0.1,0-0.2c0,0,0,0,0-0.1c-0.3-1.2-2-2.4-2.8-3.2c-2.4-2.4-4.8-4.7-7.2-7c-2.9-2.8-5.8-5.7-8.6-8.6
	c-0.9-0.9-1.8-1.9-2.7-2.9c-0.4-0.5-1.2-1.9-1.4-1.4c0.6-1.6-2.3-1.6-2.8-0.4c-1,2.9,7.6,9.4,9.3,11.1c2.8,2.7,5.6,5.4,8.4,8.2
	c1.2,1.2,2.4,2.4,3.6,3.6c0.3,0.3,0.6,0.6,0.9,0.9c0.2,0.2,0.2,0.3,0.3,0.3c0,0.1-0.1,0.1-0.2,0.2c-0.3,0.3-0.6,0.6-0.9,0.9
	c-1.1,1.1-2.1,2.1-3.2,3.2c-2.8,2.7-5.5,5.4-8.3,8.1c-2.5,2.5-5,5-7.4,7.6c-0.7,0.7-2.9,2.7-2.5,3.9c0.5,1.3,3.3,0.4,2.9-0.8
	c-0.2-0.5,3.3-3.8,3.9-4.4c2.7-2.8,5.4-5.4,8.2-8.1c2.6-2.5,5.1-4.9,7.7-7.5c0.8-0.8,2.2-1.9,2.8-3
	C409.8,212.5,409.9,212.4,409.9,212.2z M273.8,222.9h-152v-91.3h152L273.8,222.9L273.8,222.9z M185.1,207.1c-17.4,0-34.9,0-52.3,0
	c-1.3,0-3,1.9-1,1.9c17.4,0,34.9,0,52.3,0C185.4,209.1,187.1,207.1,185.1,207.1z M261.5,207.1c-20.7,0-41.4,0-62.2,0
	c-1.3,0-3,1.9-1,1.9c20.7,0,41.4,0,62.2,0C261.7,209.1,263.4,207.1,261.5,207.1z M262.6,186.2c-43.3,0-86.5,0-129.8,0
	c-1.3,0-3,1.9-1,1.9c43.3,0,86.5,0,129.8,0C262.8,188.1,264.5,186.2,262.6,186.2z M131.8,165.7c17.4,0,34.9,0,52.3,0
	c1.3,0,3-1.9,1-1.9c-17.4,0-34.9,0-52.3,0C131.5,163.8,129.8,165.7,131.8,165.7z M198.3,165.7c20.7,0,41.4,0,62.2,0
	c1.3,0,3-1.9,1-1.9c-20.7,0-41.4,0-62.2,0C198,163.8,196.3,165.7,198.3,165.7z M262.6,142.8c-43.3,0-86.5,0-129.8,0
	c-1.3,0-3,1.9-1,1.9c43.3,0,86.5,0,129.8,0C262.8,144.8,264.5,142.8,262.6,142.8z M124.7,434.9c-2.3-4.3-3.8-9.2-4.7-14.3
	C120.6,426.3,122.3,431.1,124.7,434.9z M265.2,384.2c2.4-0.2,4.7-1,6.8-2.3C269.9,382.7,267.6,383.6,265.2,384.2z M270.3,390.4
	c-2.7,0.2-5.3,0.9-7.8,1.8C264.7,391.6,267.3,391,270.3,390.4z M320.5,353.9c-6.7-0.1-14.9-0.8-19.2-6.3c-0.5,0-0.9-0.1-1.1-0.4
	c-0.1-0.1-0.1-0.2-0.2-0.2c-9.5,13.8-19.1,42.2-40,38.1c-0.5-0.1-0.9-0.2-1.4-0.3c-1.2-0.2-2.5-0.7-3.8-1.4
	c-7.9-3.9-13.2-12.3-18-19.5c-1.4-2.1-3.1-4.9-5-7.7c-1.9-2.6-3.9-5.3-5.6-7.4c-1.7-1.8-3.4-3.4-5.3-4.6c-1.9-0.7-4.6-1.6-6.8-2.2
	c-0.4,0-0.7,0-1.1,0c-0.9,0.1-0.8-0.2-0.4-0.5c-0.5-0.1-0.9-0.3-1.2-0.4c-1.3,0.3-2.6,1.3-3.7,2.6c0.7,4,1.5,20.1-6.9,16.8
	c-4.7-1.8-7.7-8.3-8.6-12.9c-1-5-1-10-0.3-15c-0.7-0.1-1.7-0.3-2.6-0.5c-0.7-0.1-1.5-0.2-2.2-0.3c-1.2,0-7.8,0.3-13.1,0.8
	c-9.7,2-18.7,7.3-26.1,14.6c-1.5,1.4-2.8,3-4.2,4.5l-11.1,15.9c-5.8,10.7-9.5,22.6-10.3,34.7c-0.6,10.5-0.3,22.1,4.8,31.6
	c5.5,10.2,15.4,15.9,26.4,18.3c1.9,0.3,4,0.7,6.2,1c19,2.4,38.9-1.1,57.1-6.4c1.9-0.5,3.7-1.1,5.5-1.7c0,0,0,0,0,0
	c0.4-1.1,0.7-2.2,1-3.3c0,0,0-0.1,0-0.1c0.6-3.2,1.5-7.7,2.3-11.7c0.5-5.2,0.3-10.4-1-15.3c-0.5-0.2-0.7-0.6-0.3-1
	c-0.3-1-0.7-2-1.1-2.9c-8.5,5.2-19.2,7.7-28.8,9.2c-9.5,1.5-22.5,3.3-31.2-2.1c-8.6-5.3-6.9-16.7-4.7-25.1
	c2.7-10.1,7.3-19.4,10.3-29.4c0.4-1.1,3.3-1.5,2.9-0.3c-2.6,8.4-6.5,16.4-9,24.8c-2.2,7.3-6.3,20.2,0.2,26.5
	c7.4,7,21.4,5.2,30.5,3.8c6.5-1,13.5-2.4,19.9-4.9c-4.6-14.3-1.6-27.6,1.4-41.9c0.3-1.3,3.2-1.7,2.9-0.2c-3,14-5.9,27-1.6,41
	c2.3-1,4.5-2.2,6.5-3.5c0.5-0.3,1.3-0.3,1.9-0.1c0.5-0.1,1,0,1.2,0.3c0.5,1,0.9,2,1.2,3c14.5-9.5,29.7-24.6,47.9-23.6
	c0.1,0,0.2,0,0.3,0c7.7-1.2,15.5,4.5,20.8,9.4c0.5,0.4,1,0.9,1.5,1.4l0.1,0.1c6.7-5.5,12.2-12.9,16.5-20.4
	c4.2-7.4,8.2-15.9,8.2-24.6c0,0,0,0-0.1,0C321,354.6,319.5,354.4,320.5,353.9z"/>
<path id="color_x5F_1" class="st1" d="M206.7,311.1c0-2.2-0.5-5.6-3.4-5c-0.3,0-1.4,0.1-1.2-0.5c0.2-0.6,1.2-0.8,1.7-0.9
	c1.5-0.3,3.4-0.3,4.5,0.9c1.2,1.3,1.4,3.1,1.4,4.8C209.6,311.3,206.7,311.8,206.7,311.1z M253.8,330.6c3.9-2.6,3.8-7.5,3.2-11.7
	c-0.2-1.3-3.1-0.6-2.9,0.8c0.5,3.2,0.9,7.6-2.2,9.7C250.2,330.5,252.6,331.4,253.8,330.6z M244.6,340.8c0.7,0.1,1.6-0.1,2-0.5
	c0.1-0.1,0.3-0.3,0.4-0.4c0,0,0.4-0.3,0.3-0.2c0.1,0,0.1-0.1,0.2-0.1c0,0,0,0,0.1,0c0,0,0,0,0.1,0c0.7,0,1.5-0.2,1.9-0.8
	c0.4-0.6-0.3-0.9-0.8-0.9c-1.8,0-3.2,0.7-4.4,1.9C243.9,340.2,244,340.7,244.6,340.8z M72.7,333.8c-1.2,0-3.1,1.7-1.1,1.7
	c17.4,0.5,18.8,26.1,20.2,38.7c2.6,24.9,10.8,48.7,10.9,73.9c0,1.3,2.9,0.7,2.9-0.3c-0.2-26.3-8.4-51.3-11.2-77.2
	C92.9,357.2,90.4,334.3,72.7,333.8z M412.9,409.6c2.8,5.8-7.2,12-10.8,14.4c-10.6,7-22.3,12.5-33.9,17.7c-13.3,6-26.7,11.5-40.2,17
	c-8,3.2-16.3,6.1-24,10.1c-0.5,0.3-1,0.2-1.4,0.1c-1,0.5-2.2,0.7-3.7,0.8c-7.2,0.3-14.2-1.4-21.3-2.7c-4.5-0.8-9-1.2-13.5-2.1
	c-9.1-1.8-18-4-27-6.1c-2.4-0.6-4.8-1.2-7.2-1.7c-2.5-0.6-1.6-8.5-1.3-10.1c-0.8-0.3-0.8-1.4,0.6-1.7c14.7-3.2,29.4-7.7,43.2-13.7
	c-0.7-0.4-1.4-0.9-2.1-1.6c-3.6-3.4-6.4-10.5-11.4-11.9c-7.5-2.1-12.7,10.7-15.7,15.5c-3.9,6.1-9.1,9.5-16.4,9.7
	c-0.3,0-0.5,0-0.7-0.1c-0.3,0.9-0.7,1.7-1.2,2.3c-1.1,1.3-4.4,1.7-5.9,2.1c-5.1,1.5-10.3,2.9-15.5,4c-19,4-41,7-59.6,0
	c-9.2-3.5-15.2-9.3-19.1-16.5c-2.3-4.3-3.8-9.2-4.7-14.3c-1-6.1-1.1-12.6-0.7-19.1c2-27.8,21.4-59.4,48.4-68.7
	c-0.2-0.1-0.4-0.2-0.4-0.4c-1.9-5.8-3.4-11.9-6-17.4c-1.7-3.6-4.9-10.3-9.5-10.7c-6.1-0.5-12.7,0.9-18.8,2.3c0,0.2-0.1,0.3-0.1,0.5
	c-0.2,0.7-3,1-2.9,0.5c0-0.1,0.1-0.2,0.1-0.3c-0.5,0.1-1.1,0.3-1.6,0.4c-9.7,2.3-19.4,5-28.9,7.9c-3.9,1.2-8,2.3-12,3.8
	c-1.6,1.3-3.6,2.2-6.1,2.6c-0.1,0-0.1,0.1-0.2,0.1c-0.5,0.3-1.1,0.3-1.5,0.1c-0.1,0-0.3,0-0.4,0C59.7,330,59.4,356,61.4,374.6
	c1.7,15,4.3,29.6,7.9,44.3c1.3,5.3,2.5,10.6,4.1,15.8c1,3.3,2.1,9.9,5.3,11.9c1.3,0.8-1.4,2.1-2.3,1.5c-3.3-2.1-4.5-8-5.6-11.5
	c-1.8-5.9-3.2-11.9-4.6-17.8c-3.9-15.7-6.8-31.6-8.1-47.8c-1.4-18.4,0.7-40.3,17.8-49.1c-21.3-4.2-21.6-52.2-7.5-51.5
	c0.3-0.4,0.9-0.7,1.5-0.6c13.4-6.1,32.9-14.8,45.9-5.7c6.5,4.6,10.8,12.5,13.7,19.7c2.6,6.5,4.9,13.9,3.9,21
	c0.2-0.1,0.5-0.1,0.7-0.2c6.2-1.3,14.8-3.9,21-1.8c4.4,1.5,7.3,7.4,9.1,11.3c2.5,5.6,4.1,11.6,6,17.4c0.1,0.2,0,0.3,0,0.5
	c6.8-2,14.1-2.5,21.6-1.2c0,0,0,0,0,0c0.1,0,0.1-0.1,0.2-0.2c0.1-0.3,0.5-0.5,0.9-0.6c3.3-2.4,6.2-5.4,9-8.5c-3.1,0.8-6.4,0.3-8.3-3
	c-2.9-5-2.6-11.8,0.9-16.4c1.2-1.6,2.6-2.9,4.2-4c-0.5,0.1-0.8,0.2-0.8,0.2l0.1-0.8c-0.4-0.1-0.7-0.3-0.7-0.7
	c0.1-18.7,5.6-40,24.7-48c3.4-1.4,6.8-2.2,10.2-2.5c1.3-0.2,2.6-0.3,4-0.1c9.1,0.4,17.7,4.6,23.5,11.9c0.5-3.2,2.5-5.8,6.7-4.8
	c7.5,1.9,9.2,11.4,6.4,17.7c-1.1,2.5-2.7,4.5-4.6,6c-0.3,0.4-0.9,0.8-1.7,1.1c-9.3,5.6-24.7,2.2-35.2,1c-0.3,4.6-1.1,8.9-2.7,12.9
	c-0.1,0.3-0.2,0.6-0.3,0.8c-0.2,0.5-0.4,0.9-0.8,1.4c-2.1,4.1-5.1,7.6-9.2,10.3c3.5,0.8,6.9,2.1,10.5,2.6c0.2-5.6,1.5-11.7,4.5-15.7
	c0.3-0.4,1.6-0.7,2.3-0.6c10.7-6.1,15.4,5.8,14.1,16.3c2,0,4.1,0,6.1,0c0.1,0,0.1,0,0.2,0c0.5-5.4,1.9-11,4.6-15.1
	c0.3-0.4,1.2-0.7,1.9-0.7c0.7-0.5,1.5-0.9,2.2-1.2c-0.1-3.5-0.2-7-0.2-10.1c0-1.1,2.9-1.7,2.9-0.3c0,3.3,0.1,6.5,0.1,9.8
	c3.3-0.1,5.8,2.6,6.3,7.4c0.8,6.3,0.4,17.5-5.4,21.6c-0.8,0.6-1.6,1-2.4,1.4c-1.3,7.7-3.7,15.4-8.9,21.2
	c-7.6,8.4-18.4,10.7-28.9,6.6c-0.1,0-0.1-0.1-0.2-0.1c1.7,1.8,3.2,3.8,4.6,5.7c6.3,8.6,11.6,19.1,19.9,25.9c4.5,3.7,8.6,5,12.3,4.7
	c2.4-0.2,4.7-1,6.8-2.3c11.3-6.8,19.4-26.7,26-35.6c0.2-0.2,0.5-0.4,0.9-0.5c-5.6-7.7-10.9-21.8-4.2-29.9c2.5-3.1,6.2-4.6,9.9-5.7
	c1-0.3,2-0.7,3-1c7.1-10.3-1.1-37.9,17.3-37.4c10.4,0.3,9.1,17.1,7,28.2c0.3-0.1,0.5-0.2,0.7-0.2c4.6,0,7.3,1.5,8.9,3.9
	c6,0.7,8.9,4.5,9.8,9.2c11.2,2.8,5.2,16.7,0.3,23.1c-1.2,1.6-4.3,4.6-7.2,6.2c0.2,0,0.4,0.1,0.2,0.3c-5.4,5.7-12.6,8.5-19.9,10.8
	c0.1,9.3-4.2,18.5-9,26.3c-4.7,7.7-10.3,15.2-17.6,20.7c4.3,4.4,8.9,10.4,8.4,16.5c12.3-3.9,24.1-9.6,36.1-14.3c0.9-0.3,1.8,0,2,0.5
	c22.4,0.2,44.9,1.8,66.9,5.9c0.2,0,0.5,0,0.6,0.1C412.8,409.2,413,409.4,412.9,409.6z M80.2,320.1c1-0.3,2-0.6,3.1-0.9
	c0.9-0.4,1.8-0.7,2.7-1.1c5.9-4.6,4.5-16,2.5-22.4c-2.7-9-8.7-20.8-18.6-23.6c-0.4,0.4-1,0.6-1.5,0.5c-8.3-1.7-6.7,21.2-6,25.1
	C63.8,307.4,68.2,320.9,80.2,320.1z M130.5,305.4c1.8-12.1-5.4-27.5-12.9-36.1c-12.2-14-31.8-5.7-46.3,0.9
	c11.6,3.4,18.7,17.2,20.9,28.2c1.2,6.2,1.1,13.4-2.1,18.3c3.7-1.2,7.4-2.2,11-3.3C110.8,310.3,120.6,307.6,130.5,305.4z
	 M351.7,315.2c0.3,5.6-1.8,12.1-4.8,16.3c-1.6,2.3-3.6,5-5.9,7.1c0.3,3.7,2.1,4.3,4.9,1.6c2.7-2.7,5-5.9,6.7-9.4
	C355,325.5,356.6,318.3,351.7,315.2z M342.7,306.2c1.9,6.6-1.9,16.8-5.3,22.3c-1,1.6-2.2,3.5-3.7,5.2c0.1,1.7,0.4,6.7,2.7,5.5
	c1.7-0.9,3.1-2.3,4.4-3.7c2.3-2.6,4.5-5.5,6-8.6c1.7-3.6,2.6-8.7,1.9-13c-0.1,0-0.2,0-0.3-0.1c-0.3-0.1-0.1-0.2,0.2-0.4
	C347.8,310.1,346,307.3,342.7,306.2z M330.3,307.5c0.9,2.3,1,5,0.2,7.2c-1.5,4.4-5.1,7.7-9.4,9.9c0.8-0.2,1.8-0.1,1.8,0.6
	c0,1.7,0,13.4,4.5,11.2c1.2-0.6,2.3-1.5,3.3-2.5c0-0.1,0-0.3,0-0.4c0-0.6,0.6-1,1.3-1.1c1.7-2.2,3.1-4.7,4.2-6.9
	c3.7-7.3,8.8-23.9-4.6-23.9C331.2,304,330.7,306,330.3,307.5z M311.1,307.8c2.6-1.1,5.3-2.2,8-3.3c2.5-1,6.6-2.2,9-0.3
	c0.1,0.1,0.2,0.1,0.2,0.2c1-4.7,1.6-9.5,1.8-14.2c0.2-4.8,0.5-13.5-4.4-16.4c-9.1-5.4-10.4,10.5-10.8,15.6
	C314.4,295.4,314.4,302.6,311.1,307.8z M301.8,344.8c0.5-0.1,1-0.1,1.1,0.2c3.7,7.2,13,7.8,20.2,7.8c0.2,0,0.4,0,0.4,0.1
	c0.2,0,0.4-0.1,0.6-0.1c6.4-2.1,12.7-4.6,17.6-9.4c-1.6,0.2-3-0.5-3.4-2.9c-0.7,0.3-1.4,0.6-2.1,0.8c-3.5,0.9-4.8-2-5.2-4.9
	c-1.5,1.2-3.3,2-5.2,2c-6,0.2-5.8-8.9-5.7-12.8c0-0.2,0.1-0.4,0.3-0.5c-3.5,1.7-7.4,2.6-11,2.7c-2,0.1-1.3-2,0.3-2
	c6.8-0.2,18.5-4.8,18.4-13.1c-0.1-4.7-1.9-8.4-7.2-6.6c-3,1-5.7,2.6-8.6,3.8c-6.1,2.5-15.3,2.8-16.8,10.8
	C293.9,329.1,296.7,338,301.8,344.8z M267.8,291.2c0.1,7.1,0.2,14.2-0.5,21.3c-0.2,1.8-0.4,3.6-0.6,5.5c3.7-3.1,4.6-10.2,4.7-14.5
	C271.5,300.6,271.3,292,267.8,291.2z M264.1,319.3c1.4-8.9,1.2-18.5,0.9-27.4c-0.1,0.1-0.2,0.1-0.4,0.2c-0.2,0.2-0.8,0.3-1.3,0.3
	C260.6,297.4,255.5,321.5,264.1,319.3z M241.6,318.8c9.3-4,6.6-33.5-4.3-27c-0.3,0.2-0.9,0.3-1.5,0.2
	C231.7,298.7,228.2,324.6,241.6,318.8z M215.7,300.1c0.1,0.2,0.2,0.4,0.2,0.5l0-0.3C216,300.3,215.9,300.2,215.7,300.1z
	 M194.8,331.1c0,0.1,0,0.2-0.1,0.4c0.2,0.1,0.1,0.3-0.1,0.5c-1.2,7.6-0.9,16.5,3.8,22.9c0.6,0.8,3.9,5.7,5.2,3.4
	c0.7-1.2,1.1-2.6,1.3-4c0.3-2.3,0.4-4.6,0.2-6.9c-1.2,2-2.1,4.1-2.9,5.4c-0.6,1-3.5,1.1-2.7-0.2c3.2-5.3,7.1-14.8,14.9-13.4
	c5.3,1,9.6,4.5,14.6,6.4c8.2,3.1,16.9,3.7,23.8-2.6c6.3-5.8,9.5-13.6,11.1-22.1c-3.9,0.6-7.3-1.7-7.7-7c-0.1-1.7-0.1-3.5,0-5.3
	c-0.4,0.2-0.8,0.3-1.2,0.3c-1.7,0-3.5,0-5.2,0c-0.8,4.3-2.6,8.2-5.4,10.2c-6.1,4.3-13.9,1.7-15-5.8c-0.2-1.5-0.3-3.2-0.3-5
	c-0.5,0.4-1.3,0.6-1.7,0.6c-3.8-0.6-7.4-2-11.2-2.8c0,0-0.1,0-0.1,0.1c-0.6,0.5-1,0.8-1,0.8l0.1-0.4c-1,0.2-2.5,0.1-1.1-0.6
	c0.1,0,0.1-0.1,0.2-0.1c-0.6-0.1-1.3-0.1-1.9-0.2c-2-0.1,0-1.7,1.1-1.7c0.1,0,0.3,0,0.4,0c-0.8-3.8-3-7.6-7.6-7.1
	c-3.9,0.5-7.7,3-9.6,6.4c-3.4,6.2-2.1,22.3,8.5,15c0.7-0.5,3.3-0.4,2.1,0.8C203.3,323.2,199.6,327.6,194.8,331.1z M225.5,430
	c0.5-5.2,0.3-10.4-1-15.3c-0.5-0.2-0.7-0.6-0.3-1c-0.3-1-0.7-2-1.1-2.9c-8.5,5.2-19.2,7.7-28.8,9.2c-9.5,1.5-22.5,3.3-31.2-2.1
	c-8.6-5.3-6.9-16.7-4.7-25.1c2.7-10.1,7.3-19.4,10.3-29.4c0.4-1.1,3.3-1.5,2.9-0.3c-2.6,8.4-6.5,16.4-9,24.8
	c-2.2,7.3-6.3,20.2,0.2,26.5c7.4,7,21.4,5.2,30.5,3.8c6.5-1,13.5-2.4,19.9-4.9c-4.6-14.3-1.6-27.6,1.4-41.9c0.3-1.3,3.2-1.7,2.9-0.2
	c-3,14-5.9,27-1.6,41c2.3-1,4.5-2.2,6.5-3.5c0.5-0.3,1.3-0.3,1.9-0.1c0.5-0.1,1,0,1.2,0.3c0.5,1,0.9,2,1.2,3
	c14.5-9.5,29.7-24.6,47.9-23.6c0.1,0,0.2,0,0.3,0c7.7-1.2,15.5,4.5,20.8,9.4c0.5,0.4,1,0.9,1.5,1.4c0,0,0.1,0.1,0.1,0.1c0,0,0,0,0,0
	c6.7-5.5,12.2-12.9,16.5-20.4c4.2-7.4,8.2-15.9,8.2-24.6c0,0,0,0-0.1,0c-0.9,0.3-2.5,0.1-1.5-0.4c-6.7-0.1-14.9-0.8-19.2-6.3
	c-0.5,0-0.9-0.1-1.1-0.4c-0.1-0.1-0.1-0.2-0.2-0.2c-9.5,13.8-19.1,42.2-40,38.1c-0.5-0.1-0.9-0.2-1.4-0.3c-1.3-0.4-2.6-0.8-3.8-1.4
	c-7.9-3.9-13.2-12.3-18-19.5c-1.4-2.1-3.1-4.9-5-7.7c-1.7-2.5-3.6-5.1-5.6-7.4c-1.7-1.8-3.4-3.4-5.3-4.6c-2.1-1.4-4.4-2.2-6.8-2.2
	c-0.4,0-0.7,0-1.1,0c-0.9,0.1-0.8-0.2-0.4-0.5c0.2-0.1,0.5-0.3,0.8-0.4c-0.3,0-0.7-0.1-1-0.1c-0.3,0-0.6,0-0.9,0.1
	c-1.3,0.3-2.6,1.3-3.7,2.6c0.7,4,1.5,20.1-6.9,16.8c-4.7-1.8-7.7-8.3-8.6-12.9c-1-5-1-10-0.3-15c0,0,0,0,0,0
	c-0.9-0.2-1.7-0.3-2.6-0.4c-0.7-0.1-1.5-0.2-2.2-0.3c-4.5-0.4-8.9-0.1-13.1,0.8c-9.7,2-18.7,7.3-26.1,14.6c-1.5,1.4-2.8,3-4.2,4.5
	c-4.2,4.9-8,10.2-11.1,15.9c-5.8,10.7-9.5,22.6-10.3,34.7c-0.6,10.5-0.3,22.1,4.8,31.6c5.5,10.2,15.4,15.9,26.4,18.3
	c0.8,0.2,1.5,0.3,2.3,0.4c1.3,0.2,2.6,0.4,3.9,0.6c19,2.4,38.9-1.1,57.1-6.4c1.9-0.5,3.7-1.1,5.5-1.7c0,0,0,0,0,0
	c0.4-1.1,0.7-2.2,1-3.3c0,0,0-0.1,0-0.1C224.3,437.9,225.1,433.9,225.5,430z M280.5,429.3c0.1-0.1,0.2-0.1,0.3-0.1
	c2.1-6.1-2.9-14.8-6.7-19.2c-6-7-14.2-5.9-22.5-5.8c-2,0,0-1.7,1.1-1.7c8.6-0.1,18.1-1.2,24.1,6.4c3,3.8,6.8,9.6,7.4,15.1
	c2.8-9.3-2.7-19.5-10.1-25.4c-0.7-0.6,1.9-1.7,2.7-1.1c3.6,2.9,6.7,6.7,8.7,11c0.6-0.1,1.2,0.1,1.4,0.5c1.6,4.4,5.6,8.2,9.7,10.4
	c1.3,0.7,5.5,2.9,6.5,0.7c0.1-0.2,0.1-0.3,0.2-0.5c-0.8-0.3-0.7-1.3,0.4-1.7c0.1-1.6-0.2-3.4-0.7-4.9c-1.7-6-6.3-10.9-10.9-14.8
	c-4.6-3.8-11.1-8.9-17.5-7.9c-0.3,0-0.5,0-0.7,0c-0.1,0-0.3,0-0.4,0c-1.1-0.1-2.2,0-3.4,0.1c-2.7,0.2-5.3,0.9-7.8,1.8
	c-5.5,2-10.6,5.2-15.2,8.2c-6.7,4.4-13,9.3-19.8,13.6c1.7,6.2,1.6,12.9,0.5,19.3c-0.3,1.9-0.6,5-1.2,7.7c0.1,0,0.2,0,0.3,0
	c9.9-0.3,13.1-7.6,17.6-15c2.6-4.3,6.7-9.4,12-10.2C267,413.9,271,435.3,280.5,429.3z M286,426.4c3.6-0.9,6.9-2.9,10-4.8
	c-3.1-1.4-6.1-3.5-8.4-6.1C288.1,419.2,287.6,422.9,286,426.4z M234.3,445.9c22.5,5.6,46.1,4.9,68.7,9.7c0.6-0.6,2-0.8,2.4-0.3
	c16.5-8.3,34.1-14.8,51.1-22c11.3-4.8,22.5-9.6,33.5-15.1c4.8-2.4,9.6-5,14.6-7.1c0.7-0.3,1.5-0.6,2.2-0.9
	c-21.3-3.8-43.2-5.2-64.9-5.2c-11.8,4.7-23.4,10.2-35.6,14c-1.1,3.6-4.9,4.4-8.4,3.5c-3.9,2.3-7.9,4.8-12.3,5.7
	c-0.6,0.1-1,0-1.2-0.1c-0.2,0-0.3,0.1-0.5,0.1c-0.1,0.4-0.2,0.8-0.4,1.1c-0.1,0.2-0.3,0.4-0.6,0.6c0.1,0.3,0,0.6-0.5,1
	c-2.7,1.7-5.3,2.3-7.8,1.7c-0.1,0.1-0.3,0.3-0.6,0.4C261.4,438.3,247.9,442.7,234.3,445.9z M302.9,466.2c0.9-2.6,0.2-5.9-0.1-8.7
	c-0.1,0-0.1,0-0.2,0c-23.4-5.2-47.9-4.3-71.1-10.3c-0.4,2.7-0.3,5.4,0.6,7.9c0.1,0,0.2,0.1,0.5,0.1c2.4,0.6,4.8,1.2,7.2,1.7
	c7.2,1.7,14.5,3.4,21.7,5c8.6,1.9,17.4,3.2,26.1,4.7C290.2,467.1,301.6,469.9,302.9,466.2z M410.2,410.8c-0.2,0-0.3-0.1-0.5-0.1
	c-2.1-0.1-5.2,1.8-7,2.7c-2.2,1.1-4.4,2.1-6.6,3.2c-5.4,2.7-10.7,5.4-16.2,7.9c-8.7,4-17.5,7.7-26.4,11.4c-16,6.7-32.5,12.9-48,20.8
	c0.3,3.3,0.7,6.7-0.2,9.2c6.4-3,13.2-5.4,19.7-8.1c12.4-5,24.8-10.1,37-15.5C374,437,386,431.6,397,424.8
	C400.4,422.7,412.3,416.4,410.2,410.8z M323.6,414.9c-18.3,6.9-35.8,15.5-54,22.7c-1.9,0.8-0.1,1.3,1,0.8
	c18.2-7.2,35.7-15.7,54-22.7C326.6,415,324.8,414.5,323.6,414.9z M331.6,418.3c-18.3,6.9-35.8,15.5-54,22.7c-1.9,0.8-0.1,1.3,1,0.8
	c18.2-7.2,35.7-15.7,54-22.7C334.6,418.4,332.8,417.8,331.6,418.3z M305,449c-1.5,0-3-0.1-4.5-0.2c-0.8,0.3-1.6,0.7-2.5,1
	c-1.2,0.5-3-0.1-1-0.8c0.3-0.1,0.6-0.3,1-0.4c-3.7-0.4-7.3-0.9-11-1.2c-1.4,0.6-2.9,1.2-4.3,1.7c-1.2,0.5-3-0.1-1-0.8
	c0.9-0.4,1.8-0.7,2.7-1.1c-1.1-0.1-2.3-0.1-3.4-0.2c-2,0-0.3-2,1-2c2.2,0,4.4,0.2,6.5,0.4c2.8-1.2,5.6-2.4,8.4-3.6
	c-1.3-0.1-2.6-0.2-3.9-0.2c-2,0-0.3-2,1-2c2.3,0,4.5,0.2,6.8,0.4c2.7-1.2,5.3-2.4,8-3.6c-1.3-0.1-2.6-0.2-3.8-0.2c-2,0-0.3-2,1-2
	c2.2,0,4.4,0.2,6.6,0.4c2.6-1.2,5.2-2.4,7.8-3.6c-1.1-0.1-2.3-0.1-3.4-0.2c-2,0-0.3-2,1-2c2,0,4.1,0.2,6.1,0.4
	c1.7-0.8,3.4-1.6,5.1-2.4c0.9-0.4,1.7-0.8,2.6-1.2c-1-0.1-1.9-0.1-2.9-0.1c-2,0-0.3-2,1-2c1.9,0,3.8,0.2,5.7,0.3
	c2.6-1.2,5.2-2.4,7.9-3.6c-0.9,0-1.7-0.1-2.6-0.1c-2,0-0.3-2,1-2c1.8,0,3.6,0.2,5.4,0.3c2.5-1.2,5.1-2.4,7.6-3.6
	c-0.7,0-1.3-0.1-2-0.1c-2,0-0.3-2,1-2c1.5,0,3.1,0.1,4.6,0.2c2.7-1.4,5.4-2.7,8-4.2c0.8-0.4,3.4-0.4,1.7,0.5
	c-2.4,1.3-4.9,2.6-7.4,3.9c3.8,0.4,7.6,0.9,11.4,1.2c3.2-1.6,6.4-3.2,9.6-5c0.8-0.4,3.4-0.4,1.7,0.5c-2.9,1.6-5.9,3.1-8.9,4.6
	c1.1,0.1,2.1,0.1,3.2,0.1c2,0,0.3,2-1,2c-1.9,0-3.8-0.2-5.8-0.3c-2.5,1.2-5.1,2.4-7.6,3.6c0.8,0,1.6,0.1,2.4,0.1c2,0,0.3,2-1,2
	c-1.7,0-3.5-0.1-5.2-0.3c-2.6,1.2-5.2,2.4-7.8,3.6c0.7,0,1.4,0.1,2.1,0.1c2,0,0.3,2-1,2c-1.6,0-3.3-0.1-4.9-0.3
	c-0.9,0.4-1.9,0.9-2.8,1.3c-1.6,0.8-3.2,1.5-4.9,2.3c0.5,0,1.1,0.1,1.6,0.1c2,0,0.3,2-1,2c-1.5,0-3-0.1-4.5-0.2
	c-2.5,1.2-5.1,2.4-7.6,3.6c0.4,0,0.8,0,1.1,0c2,0,0.3,2-1,2c-1.4,0-2.7-0.1-4-0.2c-2.6,1.2-5.2,2.4-7.8,3.5c0.3,0,0.6,0,0.9,0
	c2,0,0.3,2-1,2c-1.3,0-2.6-0.1-3.9-0.2c-2.7,1.2-5.5,2.4-8.2,3.5c0.4,0,0.8,0,1.2,0C308,447.1,306.3,449,305,449z M349.8,418.9
	c3.8,0.4,7.5,0.9,11.3,1.2c2.6-1.2,5.2-2.4,7.8-3.7c-3.8-0.4-7.6-0.9-11.4-1.2C354.9,416.5,352.4,417.7,349.8,418.9z M338.1,424.3
	c3.8,0.4,7.5,0.9,11.3,1.2c2.6-1.2,5.3-2.4,8-3.6c-3.8-0.4-7.5-0.9-11.3-1.2C343.4,421.8,340.8,423,338.1,424.3z M326.5,429.6
	c3.8,0.4,7.6,0.9,11.4,1.2c2.3-1.1,4.5-2.1,6.8-3.2c0.3-0.2,0.7-0.3,1-0.5c-3.8-0.4-7.5-0.9-11.3-1.2c-1.5,0.7-3,1.4-4.5,2.1
	C328.7,428.6,327.6,429.1,326.5,429.6z M314.9,435c3.8,0.4,7.6,0.9,11.4,1.2c2.6-1.2,5.2-2.4,7.8-3.6c-3.8-0.4-7.5-0.9-11.3-1.2
	C320.2,432.6,317.5,433.8,314.9,435z M303.2,440.4c3.8,0.4,7.5,0.9,11.3,1.2c2.7-1.2,5.3-2.4,8-3.6c-3.8-0.4-7.5-0.9-11.3-1.2
	C308.6,437.9,305.9,439.2,303.2,440.4z M302.1,446.8c2.8-1.2,5.6-2.4,8.4-3.6c-3.7-0.4-7.4-0.9-11.2-1.2c-2.8,1.2-5.6,2.4-8.4,3.6
	C294.7,446.1,298.4,446.6,302.1,446.8z M537,250.9c0,31,0,61.9,0,92.9c0,0.5-0.5,0.8-1.1,1c0.2,0.4-0.1,1.1-1,1.4
	c-14.8,4.9-27.6,13.9-41.8,20.1c0,8.3,0,16.6,0,24.8c11-8.5,26.2-4.7,38.4-0.2c1-0.3,3.1-0.2,1.9,0.6c1.1-0.8,1.5,4.3,0.6,5.5
	c-5.2,6.8-14.7,10.9-22,15c-9.8,5.6-19.5,11.2-29.3,16.6c-3.7,2.1-7.6,4.7-11.6,6c-1.9,0.6-3.5,0.9-5.5,0.9c-0.6,0-1.2-0.3-1.8-0.5
	c-0.3,0.1-0.7,0.1-1,0c-0.2-0.1-0.4-0.2-0.6-0.3c-0.5,0-0.8-0.1-0.9-0.3c-4.6-1.6-9.8-1.7-14.2-3.8c-2.9-1.4-7.9-5.5-6.1-9.4
	c1.1-2.4,5-4.8,7.1-6.3c3-2,6-3.8,9.3-5.3c7.5-3.6,15.3-6.5,22.3-11c0.2-0.1,0.4-0.2,0.6-0.2c0-8.3,0-16.7,0-25
	c-12.7,7.1-25.1,14.6-37.7,21.8c-6.3,3.6-12.6,7.2-19.1,10.5c-0.1,0-0.2,0.1-0.2,0.1c0,0,0,0,0,0c0,0.8-1.7,1.4-2.5,1
	c-1,0.3-2,0.5-3,0.7c-2,0.4-3.4-0.9-5.2-0.8c0,0-0.1,0-0.1,0c-0.9,0.4-2.1,0.3-2.1-0.6c0-22.4,0-44.9,0-67.3c0-15.8,0-31.7,0-47.5
	c-0.7-0.1-0.7-0.7,0-1c0-0.1,0-0.2,0-0.3c-1.1,0.1-2-0.5-0.4-1.1c20.9-8.3,42.4-15.2,63.6-22.4c11.8-4,23.6-8.2,35.3-12.6
	c6.2-2.4,12.7-5.7,19.3-6.6c1.9-0.3,5.2,0.1,7.3,1.3c0.8-0.2,1.8-0.1,1.8,0.7c0,0.3,0,0.5,0,0.8c0,0,0.1,0,0.1,0
	C537.9,250.2,537.6,250.6,537,250.9z M412.9,289c0,0.1,0,0.1,0,0.2c0,0.2,0,0.5,0,0.7c1.5,0.1,3,0.5,4.7,0.5
	c3.5,0.2,7.3-1.7,10.6-2.9c5.9-2.1,11.9-4.1,17.8-6.1c12.7-4.3,25.5-8.5,38.3-12.7c10.8-3.6,21.4-7.8,32-12.1
	c4.7-1.9,9.5-3.9,14.3-5.5c0.9-0.3,1.9-0.7,2.9-1c-3.8-4.8-16.6,1.7-21,3.4c-6.1,2.3-12.1,4.7-18.2,6.9c-9.4,3.4-19,6.5-28.5,9.8
	C448.2,276.3,430.3,282.1,412.9,289z M420,405.4c0-22.2,0-44.4,0-66.6c0-15.6,0-31.1,0-46.7c0-0.2,0.1-0.3,0.2-0.5
	c-0.3,0.1-0.7,0.1-1,0.2c-2,0.2-4.2-0.5-6.3-0.7c0,15.8,0,31.6,0,47.3c0,22.2,0,44.4,0,66.6C416,405.1,416.6,406.6,420,405.4z
	 M483.6,347.6c0.1,0.3-0.2,0.6-0.7,0.8c0,20.3,0,40.5,0,60.8c0,0,0,0,0,0.1c2.4,1.2,5.2,2,7.3,0.7c-0.1-0.1-0.2-0.3-0.2-0.5
	c0-22.4,0-44.9,0-67.3c0,0,0-0.1,0-0.1c-0.4,0-0.7-0.1-0.7-0.4c-0.1-1.7-2.2-2.3-3.6-1.7C482.9,341.3,483,345.1,483.6,347.6z
	 M493,393.2c0,4.6,0,9.3,0,13.9c0.9-0.3,2.1-0.3,2,0c-2.6,6.2-10.5,5.5-15.5,2.7c-0.1-0.1,0.2-0.3,0.6-0.5c0-2.8,0-5.7,0-8.5
	c-10.5,6.3-23.1,9.4-32.6,17.2c-12.3,10.2,11.3,12.4,16.9,14.9c0.2,0.1,0.4,0.2,0.5,0.4c0,0,0.1,0,0.1,0c4,1.1,7.7-1.1,11-2.9
	c4.4-2.3,8.7-4.8,13-7.2c8.1-4.7,16.4-9.2,24.5-13.9c4.3-2.5,8.8-5,12.8-7.9c1.6-1.2,6.7-4.3,5.7-7.1c-0.2-0.6-0.8-1.2-1.2-1.7
	c-0.2,0-0.3,0-0.4,0c-11.4-4.3-26.8-9.6-36.9,0.3C493.4,393,493.2,393.1,493,393.2z M534.2,344.6c-0.1-0.1-0.1-0.3-0.1-0.4
	c0-31,0-61.9,0-92.9c-3,0.2-7.5,2.8-9.8,3.7c-5.5,2.2-11,4.5-16.5,6.7c-9.7,3.9-19.5,7.2-29.4,10.5c-12.2,4-24.4,8-36.6,12.2
	c-5.6,1.9-11.2,3.8-16.8,5.8c-0.9,0.3-1.8,0.7-2.7,1c0.4,0.1,0.7,0.3,0.7,0.7c0,15.6,0,31.1,0,46.7c0,21.8,0,43.7,0,65.5
	c2.6-1.4,5.3-2.8,7.9-4.2c5.5-3,10.9-6.1,16.3-9.3c11-6.4,21.9-12.8,32.9-19c0-8,0-16,0-24c0-0.3,0.2-0.5,0.4-0.6
	c-0.4-3.5,1-6.7,4.7-8c2-0.7,7-1.2,7.1,2.1c0,0.1,0,0.1,0,0.2c0.4,0.1,0.7,0.3,0.7,0.7c0,7.5,0,15,0,22.5
	C506.9,358.1,519.6,349.5,534.2,344.6z M457.7,162.3c0,32.3-0.7,64.7-0.7,97c-52.1,0-104.2,0-156.3,0c-0.6,0-3.3,1.2-1.9,1.2
	c52.7,0,105.4,0,158.2,0c0,0.3,0,0.6,0,0.9c0,0.8,2.9,0.3,2.9-0.8c0-33,0.7-66.1,0.7-99.1C460.6,160.7,457.7,161.2,457.7,162.3z
	 M299.8,258.5c0-32.3,0.7-64.7,0.7-97c52.3,0,104.7,0,157,0c0.6,0,3.3-1.2,1.9-1.2c-52.9,0-105.8,0-158.7,0c-0.1,0-0.1,0-0.2,0
	c0-0.3,0-0.6,0-0.9c0-0.8-2.9-0.3-2.9,0.8c0,33-0.7,66.1-0.7,99.1C296.9,260.1,299.8,259.5,299.8,258.5z M328.1,212.2
	c0-0.1,0-0.3-0.2-0.5C328,211.8,328,212,328.1,212.2C328,212.1,328.1,212.2,328.1,212.2z M278.2,129.1c0,32.8-0.7,65.5-0.7,98.3
	c-52.8,0-105.5,0-158.3,0c-0.6,0-3.3,1.2-1.9,1.2c53.4,0,106.8,0,160.2,0c0,0.3,0,0.6,0,0.9c0,0.8,2.9,0.3,2.9-0.8
	c0-33.4,0.7-66.9,0.7-100.3C281.1,127.5,278.2,128,278.2,129.1z M118.3,226.4c0-32.8,0.7-65.5,0.7-98.3c53,0,106,0,159,0
	c0.6,0,3.3-1.2,1.9-1.2c-53.6,0-107.1,0-160.7,0c-0.1,0-0.1,0-0.2,0c0-0.3,0-0.6,0-0.9c0-0.8-2.9-0.3-2.9,0.8
	c0,33.4-0.7,66.9-0.7,100.3C115.4,228,118.3,227.5,118.3,226.4z M262.6,142.8c-43.3,0-86.5,0-129.8,0c-1.3,0-3,1.9-1,1.9
	c43.3,0,86.5,0,129.8,0C262.8,144.8,264.5,142.8,262.6,142.8z M131.8,165.7c17.4,0,34.9,0,52.3,0c1.3,0,3-1.9,1-1.9
	c-17.4,0-34.9,0-52.3,0C131.5,163.8,129.8,165.7,131.8,165.7z M199.3,163.8c-1.3,0-3,1.9-1,1.9c20.7,0,41.4,0,62.2,0
	c1.3,0,3-1.9,1-1.9C240.8,163.8,220,163.8,199.3,163.8z M131.8,188.1c43.3,0,86.5,0,129.8,0c1.3,0,3-1.9,1-1.9
	c-43.3,0-86.5,0-129.8,0C131.5,186.2,129.8,188.1,131.8,188.1z M131.8,209.1c17.4,0,34.9,0,52.3,0c1.3,0,3-1.9,1-1.9
	c-17.4,0-34.9,0-52.3,0C131.5,207.1,129.8,209.1,131.8,209.1z M199.3,207.1c-1.3,0-3,1.9-1,1.9c20.7,0,41.4,0,62.2,0
	c1.3,0,3-1.9,1-1.9C240.8,207.1,220,207.1,199.3,207.1z"/>
</svg>
