<?xml version="1.0" encoding="utf-8"?>
<!-- Generator: Adobe Illustrator 25.4.1, SVG Export Plug-In . SVG Version: 6.00 Build 0)  -->
<svg version="1.1" id="Layer_1" xmlns="http://www.w3.org/2000/svg" xmlns:xlink="http://www.w3.org/1999/xlink" x="0px" y="0px"
	 viewBox="0 0 595.3 595.3" style="enable-background:new 0 0 595.3 595.3;" xml:space="preserve">
<style type="text/css">
	.st0{fill:#761214;}
	.st1{fill:#231F20;}
</style>
<path id="color_x5F_2" class="st0" d="M356,419.7c3.4,14,6.5,28.2,6.9,42.6h-41.6c0-0.1,0.1-0.3,0.1-0.4c-2.4-24.5-4.3-49-7.8-73.4
	c-1.8-12.9-5-25.5-8.8-37.9c0-0.1,0-0.2-0.1-0.3c-1.5-5-3.1-10.1-4.8-15.1c9.8,8.1,29.4,10.9,35.7-0.2c0.1,0.4,0.2,0.9,0.3,1.3
	c3.2,13.9,6.6,27.8,9.9,41.6C349.3,391.8,352.7,405.7,356,419.7z M334.4,330.5c0-0.1,0.1-0.3,0.2-0.4c-0.5-2.4-0.8-4.9-1.2-7.3
	l-1.6,0.7c-11.3,9.4-26,5.1-36.9-3.5c1,3.1,2,6.3,3.1,9.4c0.3,0,0.5,0.1,0.6,0.3C305.4,340.3,331.5,347.4,334.4,330.5z M380.6,207.3
	c-6.9-3.9-16.1-4.4-23.8-4.9c-8.2-0.6-16.4-0.8-24.6-0.6c-20.6,0.5-41.7,0.9-61.4,7.6c-8.4,2.9-17.9,6.6-24.9,12.3
	c-1.5,1.2-5,5.3-0.8,6.3c1.8,0.4,3.7,0.4,5.6,0.3c2.7-0.2,5.3-0.5,7.9-0.9c0.5-0.1,0.8,0,0.9,0.1c-0.2-1-0.4-2.1-0.5-3.1
	c0,0-0.1,0.1-0.1,0.1c-1.2,0.8-3.5-0.2-1.9-1.3c12.4-9,30.5-10.6,45.4-11.3c18-0.9,37.1-3.9,54.5,1.8c0.8-0.5,2.5-0.6,2.5-0.3
	c0,0.5,0,1,0,1.5c0,0.1,0,0.1,0,0.2c0,0.1,0,0.3,0,0.4l3,0.6c0,0,0.3,1.2,0.6,3.1l1.1-0.1c3-1,6-2,8.9-3.2
	C375.2,215,386.4,210.6,380.6,207.3z M260.9,211.4c-0.5,0.1-0.9,0-1-0.3c-0.8-2.3-0.5-4.9-0.8-7.3c-0.1-1.2-0.2-2.5-0.6-3.6
	c-0.1-0.4-0.3-1-0.6-1.4c0,0,0,0,0,0c-2.3,4.3-2.1,10.1-2,14.9C257.5,212.9,259.2,212.1,260.9,211.4z M372.9,202l-1.5-0.9
	c0,0.1,0,0.2,0,0.3c0,0.2-0.2,0.3-0.4,0.5c0.8,0.1,1.5,0.2,2.3,0.3L372.9,202z M339.3,199.9C339.3,199.9,339.3,199.9,339.3,199.9
	c7.5,0,15,0.2,22.4,1c0-1.3,0.3-2.6,1.2-3.6c0.5-0.6,1.2-1,2-1.3l-0.1,0c-0.8,0.4-2.2,0.6-2.3,0.2c-4.3-17.5-15.6-32.4-32.4-38.6
	c2.3,4.1,3.9,8.6,5.1,13C337.7,180.1,339,190,339.3,199.9z M364.7,201.2c1.1,0.1,2.4,0.2,3.8,0.4c0.1-1.9-0.5-4.3-2.5-4.8
	c0,0-0.1,0-0.1,0c-0.3,0.2-0.5,0.5-0.6,0.8C364.7,198.7,364.6,200,364.7,201.2z M259.3,228.6c0.1,0,0.3-0.1,0.4-0.1
	c0-0.1,0-0.2-0.1-0.4C259.6,228.3,259.4,228.5,259.3,228.6z M307.7,153.1c0.8,0,1.5-0.1,2.3-0.1c1.9-0.1-0.3,1.4-1.2,1.4
	c2.1,2.9,3.2,6.6,4.3,9.8c2,6,3.6,12.1,4.7,18.2c0.7,3.6,3.6,14.4,0,17.9c1.7-0.1,3.4-0.2,5.2-0.2c0.3-3.5,2-8.1,6.1-8.5
	c4.2-0.5,4.9,4.2,4.8,7.4c0,0.4-0.4,0.7-0.8,0.9c1.1,0,2.3,0,3.4-0.1c-0.4-9.2-1.4-18.5-3.8-27.3c-1.5-5.5-3.5-11.5-6.7-16.4
	c-0.2-0.1-0.5-0.1-0.7-0.2c-0.3-0.1-0.1-0.3,0.3-0.5c-1.9-2.8-4.3-5.3-7.2-7.1c-0.3-0.2-0.3-0.4-0.2-0.5c-0.2,0-0.4,0.1-0.5,0.1
	c-6.6-1-11.1,1.6-15.6,5.7c1.2-0.1,2.5-0.3,3.7-0.4C306.3,152.9,307.2,152.8,307.7,153.1z M330.1,194.6c-0.3-0.4-0.9-1.2-1.4-1
	c-2.2,0.7-2.7,4.7-2.8,6.6c0,0,0,0,0,0.1c1.5,0,3-0.1,4.5-0.1c0.3,0,0.6,0,0.9,0c-0.2-0.1-0.3-0.3-0.3-0.6
	C331,197.9,331,195.9,330.1,194.6z M262.8,210.4c0,0.1,0,0.2-0.1,0.3c16.7-6.7,34.3-9,52.1-10c0.3-0.3,0.7-0.6,1.2-0.7
	c-1.1,0.2-0.3-0.1-0.1-1c0.2-0.7,0.3-1.4,0.3-2.2c0.1-2,0-3.9-0.2-5.9c-0.5-4.7-1.4-9.3-2.5-13.9c-1.7-7-3.4-16.8-8.3-22.5
	c-1.7,0.1-3.4,0.3-5,0.5c0,0-0.1,0.1-0.1,0.1c-0.5,0.5-2.5,0.7-2.8,0.4c0,0-0.1,0-0.1,0c-2.5,0.6-7.6,1.9-12.8,4
	c-4.4,2.1-8.4,5-11.7,8.8c-7.2,8.3-10.5,18.7-14.2,28.8C263.3,197.1,261.8,207.4,262.8,210.4z M293.8,214.4c0,0.1,0,0.2,0,0.3
	c2.4-0.3,4.8-0.6,7.4-0.8C298.8,214.1,296.4,214.2,293.8,214.4z M318.9,212.9c14-0.4,24.2,0.3,28.1,0.7
	C337.8,212,328.3,212.3,318.9,212.9z M379.6,215c1.9-0.8,3.4-1.8,4-2.7C382.5,213.2,381.2,214.1,379.6,215z"/>
<path id="color_x5F_1" class="st1" d="M332.8,251.1c-0.4-4.5-1.7-9.5-1.3-14c0.1-0.8,2.9-1.1,2.9-0.8c-0.5,5.7,6.9,36.9-8.3,29.4
	c-0.3-0.1,2-1.3,2.7-1C334.3,267.5,333,254.1,332.8,251.1z M342.4,247.7c0,2.2-0.1,4.3-1,6.3c-0.3,0.7,2.5,0.4,2.9-0.4
	c1-2.1,1-4.4,1-6.7C345.3,246.2,342.4,246.7,342.4,247.7z M314.3,252.3c1-2.1,1-4.4,1-6.7c0-0.7-2.9-0.2-2.9,0.8
	c0,2.2-0.1,4.3-1,6.3C311.1,253.5,313.9,253.2,314.3,252.3z M315.8,271.5c-3.2-1-5.5-3.4-6.4-6.6c-0.3-1-3.2-0.2-2.9,0.8
	c1.1,3.7,3.9,6.3,7.6,7.4C314.9,273.3,317.4,272,315.8,271.5z M301.5,229c7.9,1,24,18.4,27.8,2.6c0.2-1-2.7-0.6-2.9,0.4
	c-1.8,7.5-8,3.4-12.4,0.7c-3.3-2-6.8-4.7-10.7-5.2C302.4,227.4,299.9,228.8,301.5,229z M351.8,227.9c1.6-1.1-0.8-1.9-1.9-1.2
	c-1.9,1.4-3.5,3.1-5.1,4.8c-2.4,2.5-4.7,4.1-7.8,1.5c-0.9-0.8-3.5,0.6-2.3,1.6C341.7,240.4,346.8,231.4,351.8,227.9z M415.8,416.4
	c-1.6-12.5-4-25-6-37.5c-0.1-0.9-3.1-0.3-2.9,0.8c2,12.5,4.4,24.9,6,37.5c1.2,9.2,2.4,18.4,3.6,27.6c0.7,5.9,1.9,12,2,17.9
	c0,0.9,2.9,0.3,2.9-0.8c-0.1-6-1.2-12-2-17.9C418.2,434.8,417,425.6,415.8,416.4z M452,429.9c3.8,10.5,7.3,21.2,10.3,32
	c0.2,0.6-2.7,1.4-2.9,0.8c-4.9-17.6-11.3-34.7-17.6-51.9c-3.3-9-6.7-18.1-9.9-27.2c-0.7-1.9-1.3-3.8-1.9-5.7c-0.6,0-0.5-0.3-0.2-0.6
	c-1.7-5-3.3-9.9-5.6-14.7c-11.6-24.8-36.2-55.8-67.1-51.1c2.6,7,4.4,14.6,6.1,20.9c1.3,1.3,1.9,3.1,1.6,5.6
	c-0.1,0.7-2.6,1.4-2.9,0.6c-0.6-1.8-1.2-3.7-1.7-5.6c-2.9-2.1-8.5-0.7-11.5,2.5c-2.8,3.1-5.1,6.5-7.4,10c0,0.1-0.1,0.1-0.1,0.1
	c2.5,10.5,5,21,7.6,31.4c3.4,13.9,6.8,27.8,10.2,41.7c3.4,14.1,6.5,28.4,6.9,43c0,0.7-2.9,1.2-2.9,0.8c0-0.1,0-0.3,0-0.4
	c-0.4-14.5-3.5-28.6-6.9-42.6c-3.4-13.9-6.8-27.8-10.2-41.7c-3.4-13.9-6.8-27.7-9.9-41.6c-0.1-0.4-0.2-0.9-0.3-1.3
	c-6.3,11.1-25.9,8.3-35.7,0.2c1.6,5,3.2,10,4.8,15.1c0.1,0.1,0.1,0.2,0.1,0.3c3.7,12.4,7,25,8.8,37.9c3.5,24.4,5.4,48.9,7.8,73.4
	c0,0.1,0,0.3-0.1,0.4c-0.4,1.1-2.7,1.5-2.8,0.4c-2.4-24.5-4.3-49-7.8-73.4c-1.9-12.9-5.1-25.5-8.8-38c-5.3-3.4-7.9-9.1-12.6-13.1
	c-4.5-3.9-8.6-3.6-12.6,0.9c-1.5,1.7-3,3.4-4.7,5c-0.3,0.3-2.6,1.1-2.6,0.2c-0.6-12.1-8.6-57.5,14.2-54.1c-2.1-7.8-2.8-16-6.5-23.3
	c-0.2,0.1-0.3,0.1-0.4,0.1c-3.8,0.5-8.6,0.3-11.1-3.1c-2-2.7-2.2-6.3-1.1-9.4c0.6-1.7,1.6-3.2,2.8-4.3c-0.4,0-0.7-0.1-0.9-0.4
	c-3.7-6.6-5.4-13.8-6.7-21.1c0-0.1,0-0.2-0.1-0.4c-0.1,0.2-0.2,0.3-0.3,0.5c-0.3,0.3-0.6,0.5-1.1,0.5c-4.4,0.7-16.4,3.7-18-2.7
	c-1.2-4.6,8.2-9.3,13.2-11.6c-0.3,0-0.4-0.1-0.4-0.2c0-3.3,0.1-6.7,0.6-10c0.3-1.9,0.6-4.4,1.9-5.9c0-0.1-0.1-0.1,0-0.2
	c4.7-12.4,8.6-26.1,19.6-34.5c7.2-5.5,15.2-8.5,23.8-9.9c5.8-5.4,12.1-8.7,20.4-7.5c0.5,0.1,0.5,0.2,0.4,0.4c0.3,0,0.6,0,0.8,0.1
	c3.3,2.1,6,4.9,8.1,8.2c19.1,5.4,32,21.1,36.7,40.1c0,0.2-0.2,0.4-0.6,0.5c-0.8,0.4-2.2,0.6-2.3,0.2c-4.3-17.5-15.6-32.4-32.4-38.6
	c2.3,4.1,3.9,8.6,5.1,13c2.6,9.6,3.8,19.4,4.2,29.3c0,0,0,0,0,0c7.5,0,15,0.2,22.5,1c0-1.3,0.3-2.6,1.2-3.6c0.5-0.6,1.2-1,2-1.3
	c0.7-0.3,1.4-0.4,2.1-0.4c3.2-0.2,4.6,2.8,4.4,5.6c0,0.1,0,0.2,0,0.3c0,0.2-0.2,0.3-0.4,0.5c0.8,0.1,1.5,0.2,2.3,0.3
	c4.7,0.8,9.4,2.2,11.6,5.4c1.1,1.6,0.4,3.2-1.3,4.8c-1,0.9-2.4,1.8-4,2.7c-4.8,2.6-11.7,4.9-16.3,6.2c0.2,1.8,0.2,4,0,6.3
	c-0.5,4-1.6,8.4-2.3,10.9c4.1-1.9,7.2,7.9,7.4,10.9c0.3,7.6-3.1,13.1-10.6,13c-1.3,5.5-3.3,10.7-6.4,15.4
	c-3.7,5.8-8.7,10.3-14.4,13.1c10.1,1.2,15.9,9.8,19.8,19.9c30.6-5.4,55.4,21.7,68.1,46.5c3.1,6.1,5.7,12.6,8.1,19.1
	c5-1,11.8-2.4,14.9,2.1c2.5,3.6,3.9,7.7,5.3,11.8c0.9,2.6,2.3,5.1,3.1,7.8c0.8,2.8,0.5,6.1-2.6,5.7
	C457.2,411.3,462.1,426.9,452,429.9z M359.9,241.2c-0.1,6.5-0.5,12.9-1.8,19.1c5.7,0.1,7.5-4.7,7.3-9.9c-0.1-1.5-3-10.8-3.8-9.8
	C361.3,241.1,360.5,241.3,359.9,241.2z M364.7,201.2c1.1,0.1,2.4,0.2,3.8,0.4c0.1-1.9-0.5-4.3-2.5-4.8c0,0-0.1,0-0.1,0
	c-0.3,0.2-0.5,0.5-0.6,0.8C364.7,198.7,364.6,200,364.7,201.2z M325.9,156.2c-0.2-0.1-0.5-0.1-0.7-0.2c-0.3-0.1-0.1-0.3,0.3-0.5
	c-1.9-2.8-4.3-5.3-7.2-7.1c-0.3-0.2-0.3-0.4-0.2-0.5c-0.2,0-0.4,0.1-0.5,0.1c-6.6-1-11.1,1.6-15.6,5.7c1.2-0.1,2.5-0.3,3.7-0.4
	c0.7-0.3,1.6-0.5,2.1-0.1c0.8,0,1.5-0.1,2.3-0.1c1.9-0.1-0.3,1.4-1.2,1.4c2.1,2.9,3.2,6.6,4.3,9.8c2,6,3.6,12.1,4.7,18.2
	c0.7,3.6,3.6,14.4,0,17.9c1.7-0.1,3.4-0.2,5.2-0.2c0.3-3.5,2-8.1,6.1-8.5c4.2-0.5,4.9,4.2,4.8,7.4c0,0.4-0.4,0.7-0.8,0.9
	c1.1,0,2.3,0,3.4-0.1c-0.4-9.2-1.4-18.5-3.8-27.3C331.1,167.1,329.1,161.1,325.9,156.2z M330.9,199.4c0.1-1.5,0.1-3.5-0.8-4.8
	c-0.3-0.4-0.9-1.2-1.4-1c-2.2,0.7-2.7,4.7-2.8,6.6c0,0,0,0,0,0.1c1.5,0,3-0.1,4.5-0.1c0.3,0,0.6,0,0.9,0
	C331,199.9,330.9,199.7,330.9,199.4z M284.6,159.6c-4.4,2.1-8.4,5-11.7,8.8c-7.2,8.3-10.5,18.7-14.2,28.8c4.6-0.1,3.2,10.2,4.2,13.2
	c0,0.1,0,0.2-0.1,0.3c16.7-6.7,34.3-9,52.1-10c0.3-0.3,0.7-0.6,1.2-0.7c-1.1,0.2-0.3-0.1-0.1-1c0.2-0.7,0.3-1.4,0.3-2.2
	c0.1-2,0-3.9-0.2-5.9c-0.5-4.7-1.4-9.3-2.5-13.9c-1.7-7-3.4-16.8-8.3-22.5c-1.7,0.1-3.4,0.3-5,0.5c0,0-0.1,0.1-0.1,0.1
	c-0.5,0.5-2.5,0.7-2.8,0.4c0,0-0.1,0-0.1,0C292.9,156.4,288.6,157.7,284.6,159.6z M255.8,213.7c1.7-0.8,3.4-1.6,5.1-2.3
	c-0.5,0.1-0.9,0-1-0.3c-0.8-2.3-0.5-4.9-0.8-7.3c-0.1-1.2-0.2-2.5-0.6-3.6c-0.1-0.4-0.3-1-0.6-1.4c0,0,0,0,0,0
	C255.6,203.2,255.8,208.9,255.8,213.7z M259.5,227.5c-0.2-1-0.4-2.1-0.5-3.1c0,0-0.1,0.1-0.1,0.1c-1.2,0.8-3.5-0.2-1.9-1.3
	c12.4-9,30.5-10.6,45.4-11.3c18-0.9,37.1-3.9,54.5,1.8c0.8-0.5,2.5-0.6,2.5-0.3c0,0.5,0,1,0,1.5c0,0.1,0,0.1,0,0.2
	c0,0.1,0,0.3,0,0.4l3,0.6c0,0,0.3,1.2,0.6,3.1c0,0.1,0,0.1,0,0.2c0.4-0.1,0.7-0.2,1-0.3c3-1,6-2,8.9-3.2c2.2-0.9,13.4-5.4,7.6-8.6
	c-6.9-3.9-16.1-4.4-23.8-4.9c-8.2-0.6-16.4-0.8-24.6-0.6c-20.6,0.5-41.7,0.9-61.4,7.6c-8.4,2.9-17.9,6.6-24.9,12.3
	c-1.5,1.2-5,5.3-0.8,6.3c1.8,0.4,3.7,0.4,5.6,0.3c2.7-0.2,5.3-0.5,7.9-0.9C259,227.3,259.3,227.3,259.5,227.5z M287.3,291.9
	c0.1,0.3-0.1,0.6-0.4,0.8c2.1,8.2,4.6,16.3,7.2,24.4c0.6-0.2,1.3-0.2,1.6,0.1c9.9,8.7,24.5,15.1,35.5,4.3c0.4-0.4,1.4-0.5,2-0.4
	c-1.2-9.4-1.6-18.8-1.3-28.4c-5.2,1.5-10.9,1.5-16.7-0.4c-0.8-0.3,1.7-1.3,2.4-1.1c5.2,1.6,10.2,1.5,14.6,0.2
	c0.4-0.4,1.3-0.8,1.8-0.8c0.1,0,0.3,0,0.4,0c9.3-3.8,16.3-13.3,19.1-23.7c4.6-16.5,3.1-33.9,3-50.9c-3.1-1.1-6.2-1.9-9.4-2.5
	c-9.2-1.6-18.7-1.3-28.1-0.7c-5.3,0.3-10.5,0.8-15.7,1c-0.6,0-1.3,0.1-2,0.1c-2.4,0.1-4.9,0.3-7.4,0.5c0,0.1,0,0.2,0,0.3
	c-0.2,13.2-4.2,24.6-13.7,33.9c-0.1,0.1-0.1,0.1-0.2,0.2c0.5,0.3,0.9,0.6,1.4,0.9c0.3,0.3-2.1,1.4-2.7,1c-1.7-1.3-3.9-2.7-6-2.5
	c-0.5,0.1-0.9,0.3-1.3,0.4c-0.3,0.2-0.6,0.4-0.9,0.6c-1.9,1.7-3.2,4.3-3.4,6.8c-0.7,6.6,4,10,10,9.7c0.2-0.8,2.4-1.4,2.9-0.5
	C284.2,273.7,284.6,283.1,287.3,291.9z M300.5,346.7c-5.7-18.5-12.4-36.8-17-55.6c0,0,0,0,0,0c-0.5,0.3-1.1,0.4-1.4,0.4
	c-15.7-2.4-11,36.6-9.8,49.4c3.3-3.8,7-8.4,12.2-7.8C291.9,334.2,295.5,341.5,300.5,346.7z M334.7,330.1c-0.5-2.4-0.8-4.9-1.2-7.3
	c0-0.2-0.1-0.4-0.1-0.6c-0.5,0.5-1,0.9-1.5,1.3c-11.3,9.4-26,5.1-36.9-3.5c1,3.1,2,6.3,3.1,9.4c0.3,0,0.5,0.1,0.6,0.3
	c6.7,10.5,32.8,17.7,35.7,0.7C334.5,330.3,334.5,330.2,334.7,330.1z M353.4,311.3c-3.4-8.4-8.8-18.2-18.6-19.2
	c-0.5,14.8,0.7,29.1,4,43.5c0.6,2.5,1.1,4.9,1.7,7.4c3.6-5.4,7.7-10.7,14.3-12.2c1.6-0.4,3.2-0.4,4.7-0.1
	C357.7,324.1,356,317.5,353.4,311.3z M451.7,429.1c8-1.9,0.7-21.3-1.3-25.4c-0.1-0.2,0.4-0.6,1.1-0.8c-5.4-3-6.6-12.5-8.1-17.7
	c-0.2-0.7,2.7-1.5,2.9-0.8c1.4,4.8,2.4,10.3,5.1,14.6c0.8,1.3,2.8,2.2,2.5,3.6c0.1-0.7,0-1.5-0.1-2.2c-0.5-1.9-1.1-3.8-1.9-5.7
	c-2-4.4-3-9.4-5.6-13.6c-2.2-3.6-4.2-4.6-8.4-4.2c-1.5,0.1-3,0.3-4.4,0.6c3.5,9.8,6.6,19.7,10.1,29.3
	C446.3,414.2,449,421.6,451.7,429.1z M407.3,405.4c0.2,0.8-0.9,1.4-1.8,1.4c1.6,13.1,3.9,28.2-9.2,36.1c-1.1,0.7-3.6-0.2-1.9-1.2
	c12.8-7.6,9.5-23.1,8-35.6c-5.2,1.1-9.2,6.5-10.7,11.4c-0.4,1.2-3,1.3-2.8-0.2c-6.1-7-11.1-12.8-21.3-11c-1.5,0.3-2.2-1.1-1.3-1.8
	c-1.5-3.7-1.9-7.8-1.9-11.8c0-1.1,2.9-1.6,2.9-0.8c0,0.1,0,0.2,0,0.4c11.7,0.1,23.6,1.3,35.1-1c0,0,0-0.1,0-0.1
	c-0.1-1.3,2.8-2,2.9-0.8c0,0.1,0,0.3,0,0.4c1,0.2,1.2,1.3,0.1,1.8C405.8,396.9,406.1,401.2,407.3,405.4z M403.8,403.7
	c-0.7-3.4-0.9-6.9-1.2-10.4c-11.6,2.3-23.5,1.2-35.2,1c0.2,3.3,0.7,6.5,1.9,9.5c4-0.5,8.1-0.3,11.7,1.8c3.6,2.2,6.4,5.4,9.1,8.6
	C392.7,408.9,397.9,404.1,403.8,403.7z M382.6,439.2c-11.8-3.3-10.8-23.3-12.2-32.8c-0.1-0.5-3,0.1-2.9,0.8
	c1.5,10,0.4,29.7,12.8,33.2C380.8,440.5,383.4,439.5,382.6,439.2z M288.1,403.9c6.5,7.7,15.6,22.3,4.2,26.1
	c-12.9,4.3-18.2-11.3-22.9-20.9c-1.1,3.3-1.5,7.1-3.7,9.8c-0.9,4.9-4.6,7.9-9.5,9.2c-7.3,10.7-14.2,21.7-20.2,33.2
	c-0.4,0.8-3.3,1.2-2.7,0c5.9-11.2,12.6-22,19.7-32.5c-12.5,1.6-30.4-5.1-35.2-15.5c-8.5,6.4-15.4,14.7-23.4,21.8
	c-6.6,5.9-15.4,10.2-18.9,18.9c-0.4,1.1-3.3,1.2-2.8-0.3c3.7-9.2,13.1-13.9,20.2-20.2c8.1-7.3,15.2-15.8,24.1-22.2
	c-1.3-4.6,0-9.8,5.3-15.3c2-6.9,6.8-13,11.4-18.5c4-4.7,8.2-10,13.7-13c-0.8-1.1-1.5-3.1-1.9-3.9c-2-4.1-4-8.2-6-12.3
	c-3.5-7.4-6.8-15-10.8-22.2c-3.1,0.6-6.2,1.1-9.3,1.5c-0.6,0.2-1.5,0.4-2,0.3c-5.5,0.9-11.1,1.8-16.6,3c-2.7,1.1-6.1,1.1-9.5,0.3
	c-0.9,5.2-3.2,9.9-5.5,14.7c-2.3,4.8-4.1,9.7-5.7,14.8c-3.5,11.2-6.6,22.6-9.8,33.9c-3.2,11.4-6.4,22.9-8.2,34.6
	c-1.6,10.1-3.6,22,0.8,31.6c0.3,0.7-2.5,1.6-2.9,0.8c-4.4-9.6-2.4-21.9-0.8-32c1.9-11.7,5-23.2,8.2-34.6c3.2-11.3,6.2-22.7,9.8-33.9
	c1.8-5.6,3.9-11,6.4-16.3c2.2-4.6,4.3-9.2,5-14.3c0,0,0,0,0-0.1c-5.5-1.9-10.7-5.6-13-9.3c-3.4-5.3-1.7-14.9-0.1-20.5
	c0.9-3.4,2.2-7.2,4.9-9.3c-0.4-0.3-0.4-0.8,0.6-1.1c0.5-0.2,1.1-0.4,1.6-0.6c-1.7,0-0.6-1.4,0.7-1.5c1.1-0.1,2.2-0.1,3.3-0.1
	c12.4-4.7,25.2-8.6,38.2-11.5c9.4-2.1,19.6-3.9,28.9-0.7c10.1,3.4,16.6,15.3,14.9,25.7c-2,12.1-12.9,17.5-23.5,20.9
	c8.8,13.8,15.5,28.7,21.8,43.8c14.6-2.2,31.8,17,27.4,31.3C293.6,400.6,291.2,403.1,288.1,403.9z M263.8,367.1
	c0.1-0.1,0.3-0.1,0.4-0.2c-0.1-0.2-0.1-0.3-0.2-0.5C264,366.7,263.9,366.9,263.8,367.1z M206.8,324.1c-0.7,2.4-1.8,4.2-3.3,5.4
	c4.6-1,9.3-1.7,13.9-2.5c0.4-10.8,9.8-17.4,19.7-19.2c3.2-0.6,8.4-1.1,11.2,1c3.1,2.3,3.1,6.2,2.6,9.8c9.6-4.4,17.4-11.9,14.7-23.9
	c-2.2-9.7-8.6-17.2-18.8-18.5c-9.1-1.2-18.3,1-27,3.3c-9.9,2.6-19.7,5.5-29.3,9c15.4,2.7,25.3,18.6,17.3,34.2
	c-0.4,0.9-3.3,1.1-2.9,0.4c7.6-14.8-1.6-32-17.6-33.4c-0.7,0.3-1.4,0.5-2.1,0.8c-0.4,0.3-1.1,0.6-1.5,0.6c-0.2,0-0.4,0.1-0.5,0.1
	c-0.1,0-0.2,0.1-0.2,0.1c-3.3,1.5-4.8,10.6-5.2,13.1c-0.7,4.5-1.5,10.2,0.2,14.5c1.7,4.3,6.9,7.5,10.9,9.3c5.7,2.5,13,3.9,15-3.7
	C204.2,323.6,207.1,323.2,206.8,324.1z M228.5,325.2c-0.2-0.4-0.4-0.7-0.6-1.1c-0.7,0-1.2-0.3-0.8-1c2.8-5.2,8.8-9.6,13.8-5.8
	c0.6-0.1,1.1-0.1,1.4,0.3c0.8,1.1,1.5,2.2,2.3,3.4c1.2-0.4,2.4-0.8,3.6-1.2c0.6-5.5-0.1-11.3-7.1-11.3c-10.6-0.1-20.4,7.1-20.6,18.1
	C223.1,326.2,225.8,325.7,228.5,325.2z M250.3,363.2c3.6-1.6,7.8-2.8,11.5-1.6c0.1,0,0.2,0.1,0.2,0.1c-6.1-14.4-12.8-28.5-21.6-41.5
	c-0.4,0-0.7-0.1-0.9-0.3c-3.6-4-7.1-1-9.3,2.6c0.4,0.7,0.9,1.4,1.3,2.2c1.3-0.2,1,0.3,0.4,0.7c3.5,6.2,6.3,12.8,9.4,19.2
	c2.1,4.4,4.2,8.8,6.4,13.2C248.2,358.8,249.3,362,250.3,363.2z M284.8,404.1c-5.4-0.5-10.7-3.3-14,2.1c0.3,0,0.5,0.1,0.5,0.2
	c2.5,4.6,4.3,9.5,7,14c2.1,3.4,10.9,15.4,15.4,7.1c1.7-3.1,1.2-6.9-0.4-10.7c-0.6,0.3-1.3,0.5-2,0.5c-1.9,0-3.7,0.2-5.2,1.3
	c-0.6,0.4-1.3,0.6-1.9,0.7c-0.2,0-1.2,0-0.7-0.4c2.8-2,6.2-2.6,9.6-2.7C291.2,411.8,287.8,407.4,284.8,404.1z M286.6,402.1
	c2-0.1,3.8-0.9,4.8-3.7c4.6-11.9-10.7-32.1-23.6-30.5c0,0,0,0,0,0c0.4,1.1-2.4,1.9-2.9,0.8c0,0,0,0,0-0.1c-0.9,0.3-1.7,0.8-2.5,1.4
	c-0.4,0.7-0.8,1.4-1.2,1.9c-0.5,0.8-3,1-2.8,0.2c-0.5-0.1-0.7-0.5-0.2-1.1c0.5-0.6,1.1-1.1,1.7-1.5c1.7-3.4,2.3-7.2-3.3-6.3
	c-1.9,0.3-3.8,0.9-5.7,1.7c0,0,0,0.1-0.1,0.1c-0.4,0.3-0.8,0.5-1.3,0.6c-1.7,0.9-3.4,2-4.7,3.3c-7.4,7.1-16.1,16.3-19.2,26.4
	c0.3,0.3,0.3,0.8-0.3,1.3c-5.3,5.1-6.6,9.9-5.3,14.2c0.3,0.2,0.5,0.5,0.3,0.8c3.9,10.6,23.5,17.3,34.7,14.6c0.2-0.3,0.4-0.5,0.5-0.8
	c0.4-0.6,2.5-0.9,2.8-0.4c1.7-0.9,3-2.1,3.8-3.7c-2.6,0.5-5.6-0.6-7.9-1.6c-1.3-0.6,1.3-2,2.3-1.5c2.3,1,5,1.8,6.8,0.2c0,0,0,0,0,0
	c0.4-0.4,0.8-0.9,1-1.6c0.7-1.8,1.1-3.6,1.6-5.5c0.9-3,2.2-6.3,4.8-8.2c2.5-1.9,5.2-2.4,8.3-2c1,0.1,2.1,0.4,3.2,0.6
	c-0.1-0.1-0.2-0.2-0.3-0.3c-0.4-0.3,2.2-1.4,2.7-1C285.3,400.8,285.9,401.4,286.6,402.1z M287.5,83.5v4.7l68.4,33.4l68.5-33.5v-4.7
	l-68.5-33L287.5,83.5z M355.9,116.5v5.1 M355.9,116.5l-68.4-33l68.4-33.1l68.5,33L355.9,116.5z M355.8,113.8l-62.7-30.2l62.7-30.4
	l62.8,30.3L355.8,113.8z M517.2,60.7l-24.4,11.9l-24.4-11.9l24.4-11.9L517.2,60.7z M541.6,72.6l-24.4,11.9l-24.4-11.9l24.4-11.9
	L541.6,72.6z M566,84.5l-24.4,11.9l-24.4-11.9l24.4-11.9L566,84.5z M492.8,72.6l-24.4,11.9L444,72.6l24.4-11.9L492.8,72.6z
	 M517.2,84.5l-24.4,11.9l-24.4-11.9l24.4-11.9L517.2,84.5z M541.6,96.4l-24.4,11.9l-24.4-11.9l24.4-11.9L541.6,96.4z M468.4,84.5
	L444,96.4l-24.4-11.9L444,72.6L468.4,84.5z M492.8,96.4l-24.4,11.9L444,96.4l24.4-11.9L492.8,96.4z M517.2,108.3l-24.4,11.9
	l-24.4-11.9l24.4-11.9L517.2,108.3z M355.9,116.6v4.7l68.4,33.4l68.5-33.5v-4.7l-68.5-33L355.9,116.6z M424.3,149.5v5.1 M424.3,150
	l-68.4-33.4l68.4-33.1l68.5,33L424.3,150z"/>
</svg>
