<?xml version="1.0" encoding="utf-8"?>
<!-- Generator: Adobe Illustrator 25.4.1, SVG Export Plug-In . SVG Version: 6.00 Build 0)  -->
<svg version="1.1" id="Layer_1" xmlns="http://www.w3.org/2000/svg" xmlns:xlink="http://www.w3.org/1999/xlink" x="0px" y="0px"
	 viewBox="0 0 595.3 595.3" style="enable-background:new 0 0 595.3 595.3;" xml:space="preserve">
<style type="text/css">
	.st0{fill:#761214;}
	.st1{fill:#231F20;}
</style>
<path id="color_x5F_2" class="st0" d="M479.5,348.9c-6.6,0.5-13.2,0.8-19.8,0.9c-0.2-0.8-0.4-1.7-0.7-2.5c-1.7-4.8-6.3-5.2-10.4-3.7
	l-1.7-0.4l-0.1,0.7c-0.5,0.2-1,0.5-1.1,0.9c-0.4,1.7-0.8,3.4-0.9,5.2l-7.2-0.1c-12.8-0.3-25.5-0.7-38.3-0.3l-10.2-0.1
	c-0.2-0.7-0.3-1.5-0.6-2.2c0-0.1-0.1-0.2-0.1-0.3c0.3-1.1,0-2.2-1.7-2.6c-2.4-2.1-6-1.9-9.2-0.5c-0.7-0.1-2,0.2-2.2,0.9
	c-0.4,1.7-0.8,3.5-1,5.4c-4.8,0.1-9.5,0.4-14.3-0.3c-0.2,0-0.5,0-0.7,0.1c-0.5-5.2-1.9-15.3,4.1-15.5c0.4,0,1.2-0.4,1.6-0.7
	c27.1,0,54.3-0.5,81.4-0.8c0.2,0.4,1.3,0.3,2,0c9.2-0.1,18.3-0.1,27.5-0.2c0.9,0.4,1.8,1,2.7,1.8
	C480.9,338.1,479.8,344.8,479.5,348.9z M381.2,344.6c-0.7,0-1.5,0.2-2.3,0.5C379.6,345,380.4,344.8,381.2,344.6z M374.3,352
	c0-0.1,0-0.1,0-0.2c-0.5,0-1,0-1.4,0L374.3,352z M205.9,400.3v40.6H291c0-13.5,0-27.1,0-40.6c0,0,0,0,0,0
	C262.6,400.3,234.3,400.3,205.9,400.3z M141.6,428.4c0,8.2,0,16.4,0,24.6c0.3-0.2,0.7-0.3,1-0.3c15.9,0,31.8,0,47.7,0v-24.3
	c0,0-0.1,0-0.1,0C174,428.4,157.8,428.4,141.6,428.4z M353.5,151l-0.5,1.4C353.2,152,353.4,151.5,353.5,151L353.5,151z M404.5,201.1
	c-0.1,0.3-0.3,0.5-0.4,0.8C404.3,201.6,404.4,201.3,404.5,201.1C404.5,201.1,404.5,201.1,404.5,201.1z M377.4,256
	c0.5-0.2,1.2-0.2,1.5,0c0,0,0,0,0,0c-3.5-11.8-2.9-25.1-2.9-37.2c0-0.9,2.7-1.3,2.7-0.7c0,0.1,0,0.2,0,0.3l2.5-0.8
	c-3.7,0.4-7.4,0-10.7-1.5c-0.1,0,0.2-0.3,0.6-0.5c-0.1,0-0.1-0.1-0.1-0.2c-2-12.2,0.4-24.6-1.1-36.9c-0.1-0.8,2.6-1.4,2.7-0.7
	c1.5,12.3-0.9,24.7,1.1,36.9c0,0.2-0.1,0.4-0.4,0.6c11.1,4.8,24.8-4,29-14.5c0-0.1,0.2-0.2,0.3-0.3c-2.7-5.6-4.9-11.5-7.4-17.3
	c-3.3-6.1-8.1-14.5-11.5-20.1c-7.3-8.3-17.2-10.4-27.4-13.1c-0.9,9.7-21.7,11.9-22.8,1.2c0-0.1,0-0.3,0.1-0.4c0,0-0.1-0.1-0.1-0.1
	c-0.1-0.4-0.3-0.9-0.5-1.3l-4,1.2c0,0-8.1,3.5-15.1,7.4c-9.8,7.7-16.4,19.5-19.8,31.8c-0.1,0.2-0.2,0.4-0.5,0.5
	c3.2,6.1,10.1,9.9,16.7,11.3c1.9-10,4.1-20,6.2-30c0.2-1.1,3-1.5,2.7-0.2c-6,27.8-12.2,55.7-12.3,84.3c0.1,0,0.1,0,0.2,0.1
	c0.4,0.1,1.4,0.4,2.9,0.8c10.3,1.9,20.6,4.1,31,4.9c3.6,0.2,7.1,0.3,10.6,0.1c5.7-0.7,12.3-1.9,17.7-2.9
	C372.2,257.8,374.8,257,377.4,256z M306.6,221.7l-0.2,5.3c0.3-2.6,0.7-5.1,1-7.7C307.2,220.1,306.9,220.9,306.6,221.7z M310.1,203.6
	c0.1-0.4,0.2-0.9,0.3-1.3c-0.2,0.1-0.5,0.2-0.8,0.3l-0.5,3.2c0.2-0.5,0.3-1,0.5-1.5C309.6,204,309.8,203.7,310.1,203.6z M395,212.3
	c1.4-0.6,2.9-1.8,4.1-3.2c0-0.1-0.1-0.3-0.1-0.4c-1.5,1.4-3.1,2.7-4.8,3.9C394.5,212.5,394.8,212.4,395,212.3z M401.2,206.6
	c0.6-0.8,1.1-1.6,1.5-2.3c-0.5,0.8-1.1,1.6-1.7,2.3C401.1,206.5,401.2,206.5,401.2,206.6z"/>
<path id="color_x5F_1" class="st1" d="M351.4,128.3c0.3-0.1,0.6-0.3,0.8-0.5c0.4-0.5-0.3-0.7-0.7-0.6c-0.6,0-1.1,0.2-1.7,0.4
	c-0.2,0.1-0.3,0.2-0.4,0.3c-0.3,0.1-0.6,0.3-0.8,0.5c-0.4,0.5,0.3,0.7,0.7,0.6c0.6,0,1.1-0.2,1.7-0.4
	C351.2,128.5,351.3,128.4,351.4,128.3z M351.7,128.1C351.7,128.1,351.7,128.1,351.7,128.1C351.7,128.1,351.7,128.1,351.7,128.1
	C351.7,128.1,351.7,128.1,351.7,128.1z M349.2,128.2C349.2,128.2,349.2,128.2,349.2,128.2C349.2,128.2,349.2,128.2,349.2,128.2
	C349.2,128.2,349.2,128.2,349.2,128.2z M324.3,115.1c-2,3-4.8,7.1-1.1,10c0.8,0.7-1.7,1.7-2.5,1.1c-4-3.2-1.1-7.9,1.1-11.2
	C322.3,114.1,325,113.9,324.3,115.1z M333.2,117.8c-0.4,0.5-1.2,0.8-1.8,0.7c-1.2-0.1-2.1-1-2.9-1.9c-0.7-0.7,1.9-1.6,2.5-1
	c0.3,0.3,0.7,0.7,1,1c0.2,0.1,0.3,0.3,0.5,0.4c0.2,0.1,0.6,0.2,0,0.1C332.9,117.1,333.6,117.3,333.2,117.8z M330.5,131
	c-0.1,1.3-1.9,1.5-3,1.5c-0.5,0-1.1-0.3-0.7-0.9c0.2-0.4,0.7-0.6,1.2-0.7C328.6,130.3,330.6,130,330.5,131z M478.7,331.3
	c0-0.2-0.3-0.4-0.8-0.4c-0.1,0-0.3,0-0.4,0c-0.5-0.1-1-0.2-1.6-0.2c-0.2,0-0.5,0.1-0.9,0.2c-6.3,0-12.7,0-19,0.1
	c0.3-0.2,0.5-0.4,0.4-0.6c-1.8-7.4,0.7-23.5-11.5-20.9c1.7-8.9-5.4-13.1-11.1-19c-7.3-12.9-11.5-26.9-17.1-40.6
	c-5.7-14.1-12.9-27.9-15.1-43.1c0-0.2-0.1-0.2-0.3-0.3c0,0-0.1,0-0.1,0c0.6-0.7,1.2-1.5,1.7-2.3c0.5-0.8,1-1.6,1.4-2.4
	c0.1-0.3,0.3-0.5,0.4-0.8c0,0,0,0,0,0c0.6-0.2,1.1-0.6,0.9-0.9c-5.9-11.9-9.7-24.9-17.5-35.9c-8.1-11.5-20.9-13-33.4-16.7
	c0-0.9-0.1-1.9-0.2-2.8c0.3,0,0.6-0.1,0.9-0.2c15.8-10.3,22.6-39.7,5.4-52c-12.4-8.8-39.2-7.8-46.1,7.8c-0.3,0.7,0.2,0.9,0.9,0.9
	c0.1,0.1,0.3,0.1,0.4,0.1c-0.4,0.2-0.8,0.5-0.9,0.9c-2.6,10.1-9.1,22.3-4.5,32.7c1.8,4,6.9,6.3,10.9,7.3c5.2,1.4,9.4,2,11.6,7.1
	c0.2,0.4,0.3,0.8,0.5,1.3c0,0.1,0,0.1,0.1,0.1c-0.1,0.1-0.1,0.3-0.1,0.4c1.1,10.6,21.9,8.5,22.8-1.2c10.2,2.8,20.1,4.9,27.4,13.1
	c0.3,0.4,0.7,0.8,1,1.2c4.5,5.6,7.6,12.2,10.5,18.9c2.5,5.8,4.7,11.8,7.4,17.3c-0.2,0.1-0.3,0.2-0.3,0.3
	c-4.2,10.5-17.9,19.3-29,14.5c0.2-0.2,0.4-0.4,0.4-0.6c-2-12.2,0.3-24.6-1.1-36.9c-0.1-0.7-2.8-0.1-2.7,0.7
	c1.5,12.3-0.9,24.7,1.1,36.9c0,0.1,0.1,0.1,0.1,0.2c-0.4,0.2-0.7,0.4-0.6,0.5c3.3,1.5,7,1.9,10.7,1.5c0.1,0,0.3,0,0.4,0
	c0,0,0,0.1,0,0.1c3.5,26.6,8.8,53,17.9,78.3c0.1,0.4,0.5,0.5,1,0.5c-0.4,3-0.6,6.6,1.9,8.6c0.4,0.3,0.9,0.6,1.4,0.8
	c-10.4,1.5-7.5,17.4-8.1,25.9c0,0,0,0,0,0l-14.2-72.5c0.7-0.2,1.3-0.6,1.1-0.9c-4.6-12.4-3.9-26.9-3.9-40c0-0.1,0-0.2,0-0.3
	c0-0.6-2.7-0.2-2.7,0.7c0,12.1-0.6,25.4,2.9,37.2c0,0,0,0,0,0c0,0,0,0,0,0c-0.3-0.2-1-0.2-1.5,0c-2.6,1-5.2,1.8-7.8,2.5
	c-5.4,1-12,2.1-17.7,2.9c-3.5,0.2-7,0.2-10.6-0.1c-10.4-0.7-20.7-2.9-31-4.9c-1.5-0.4-2.5-0.7-2.9-0.8c-0.1,0-0.2,0-0.2,0
	c0,0,0,0,0,0c0.1-28.6,6.3-56.5,12.3-84.3c0.3-1.2-2.4-0.9-2.7,0.2c-2.2,10-4.3,20-6.2,30c-6.6-1.4-13.5-5.1-16.7-11.3
	c0.2-0.1,0.4-0.3,0.5-0.5c3.4-12.3,9.9-24.1,19.8-31.8c4.9-3.8,10.6-6.7,17.1-8.1c1.7-0.3,1.2-1.9-0.4-1.6
	c-20.7,4.4-33.8,22.2-39.1,41.7c0,0.1,0,0.1,0,0.2c-0.4,0.2-0.6,0.4-0.5,0.6c1,2,2.4,3.7,4,5.3c-0.3,0.2-0.6,0.4-0.6,0.7
	c-1.8,8-5.9,15.5-11.1,21.9c-3.1,3.8-7.9,8.2-12.9,5.1c-3.6-2.2-6.1-6.5-8.7-9.8c0,0-0.1-0.1-0.1-0.1c0.1-0.1,0.1-0.1,0.2-0.2
	c5.5-8.6-0.7-17.3-9.1-20.5c0.1-0.1,0.1-0.1,0.2-0.2c5.1-11.6-4.6-16.8-14.7-18.6c-7.1-1.2-14.1-1.6-20,1.4c-1-1-6.9-1.8-7.4-1.8
	c-8.4-1.1-16.9-1.8-25.4-2.4c-16.7-1.3-33.5-2.6-50.3-3c-0.7,0-2.1,0.8-1.7,1.1c-0.6,0.1-1.2,0.4-1.4,0.9c-1.5,4.9-3.4,9.7-4.4,14.7
	c0,0,0,0,0,0.1c-0.6,0.4-0.9,1-0.1,1.3c2.4,0.8,4.8-0.1,6.8-1.6c-0.1,1.8,0.1,3.4,0.8,5.1c0.2,0.5,0.9,0.7,1.6,0.5c0,0,0,0-0.1,0
	c-0.4,0.3-0.8,0.9-0.2,1.2c0.6,0.3,1.4,0.1,1.9-0.2c1.4-1,2.8-2,4.2-3c0.6,1.5,1.5,2.8,2.4,4.1c0,0,0,0,0,0c0.3,0.5,2.2,0.1,2.5-0.4
	c0.7-1.1,1.5-2,2.4-2.9c0.9,2.3,2.6,4.5,5.1,5.1c2,0.5,3.4-1.2,4.4-3c1.2,1.5,2.8,2.4,4.9,2.3c1.6-0.1,2.9-1,3.8-2.1
	c1,1.8,2.2,3.4,4,4.2c1.8,0.7,3.4,0.1,4.7-1.1c0.6,1.6,1.6,3.1,3.4,3.3c1.5,0.2,2.8-0.4,3.9-1.4c0.8,1.6,1.8,3,3.4,3.9
	c0.7,0.4,2.1,0,2.6-0.7c0.7-1.1,1.5-2.1,2.3-3.1c0.5,1.1,1.3,2.2,2.4,2.6c1.3,0.5,2.6,0,3.7-0.7c0.4,1.3,1.2,2.7,2.5,3.1
	c0.6,0.2,1.2,0.3,1.9,0.2c-0.2,1.1-0.3,2.2-0.3,3.2c-0.5,9.3,5.5,14.5,14,16.3c1.5,0.3,3.5,0.6,5.7,0.8c-0.3,0.3-0.3,0.7,0.2,1.1
	c9.3,5.9,16.4,15.1,24.4,22.5c7.7,7,17.2,14.5,28.2,13.8c10.6-0.7,18.1-10.5,22.9-18.9c3.5-6.1,6.2-12.6,8.6-19.3
	c0.3-0.8,0.5-1.6,0.8-2.4c-0.4,2.6-0.7,5.1-1,7.7c-1.1,9.2-1.9,18.4-2,27.8c-0.3,0.2-0.6,0.4-0.6,0.7c0,64.3-5.4,130,11.8,192.7
	c0.1,0.5,0.1,0.7,0.1,0.7s0,0,0.1,0c0.1,0.4,0.2,0.8,0.3,1.3c0.1,0.4,0.6,0.5,1.1,0.5c0.2,0.2,0.4,0.4,0.7,0.6
	c-8.1,0.3-13.9,6.3-15.2,14.4c-0.1,0.4,0.3,0.6,0.7,0.6c-0.7,0.4-1.1,1.1,0.1,1.1c16.2,0.1,33,3.9,49.1,0.2c1-0.2,1.2-0.8,0.9-1.2
	c0,0,0-0.1,0-0.1c-1.6-3.4-2.6-6.9-3.5-10.5c5.4-0.3,7.7-1.9,8.7-3c0.8-0.1,1.6-0.6,1.5-1.1c-0.1-0.2-0.1-0.5-0.2-0.7
	c0.3-0.3,0.2-0.4-0.1-0.5c-13.3-48.6-17.2-99.7-17.5-150c2,6.4,5.8,18.3,8.9,28.1c0.6,2,1.2,4.1,1.9,6.1c1.8,5.7,3.1,9.6,3.1,9.6
	s0.1-0.4,0.3-0.9c-0.1,3.1,0.3,6.5,0.4,9.2c0,0.7,2.7,0.2,2.7-0.7c0-0.1,0-0.1,0-0.2c0.2,0,0.5,0.1,0.7,0.1c0,15,0,29.9,0,44.9
	c0,0.1,0.3,0.2,0.7,0.2c-0.3,0.4-0.2,0.9,0.7,0.9c2.4,0,4.9,0,7.3,0l14,47.5c0,0,0.5,0.2,1.4,0.4c-0.2,0.4,0.8,0.6,1.6,0.4
	c0.1,0,0.1,0,0.2,0.1c2.3,1,4.7,1.8,7.2,2.5c0,0.1-0.1,0.2-0.1,0.3c0,3.3-0.1,6.6-1,9.8c-0.1,0.4,0,0.7,0.2,0.9
	c-0.4,0.4-0.5,0.8,0.1,1.2c13,7.5,33.1,11.5,45.5,1c0.6-0.5,0.5-1.1,0.1-1.4c0.2-0.2,0.4-0.5,0.3-0.8c-1.1-5.9-4.8-10.1-9.8-12.6
	c1.8-1,2.8-1.9,2.8-1.9l-13.7-39.5c-0.4-1.6-1-3.4-1.7-4.9l-1.3-3.6c21.1-0.4,42.1-0.8,63.2-0.8c1.1,0,2.5-1.5,1.3-1.8
	c0-14.5,0-29.1,0-43.6c0.5,0,1-0.1,1.4-0.1c0.7-0.1,1.2-0.5,1.3-1c0.1-0.1,0.1-0.2,0.1-0.4C482.2,344,484.5,334,478.7,331.3z
	 M354.2,143.1c0-0.1,0-0.2,0-0.2c0.9-0.7,2.5-2,4.2-3.4C357,140.8,355.6,142.1,354.2,143.1z M360.4,95.4c0.6,0.5,1.2,1.1,1.8,1.7
	c-1.5-1.4-3.2-2.7-4.7-3.8C358.5,93.9,359.5,94.6,360.4,95.4z M353,152.4c-3,5.6-16,5.5-16.8-2c0,0,0,0,0-0.1c0.1-0.2,0.1-0.3,0-0.5
	c-3.2-10.2-13.5-7.3-20.6-13.1c-5.5-4.5-4.7-12.4-2.6-20c0.3,0.2,0.7,0.3,1,0.3c1.1,0,2.4-0.1,3.2-0.9c0.4-0.4,0.7-1,0.1-1.4
	c-0.5-0.4-1.4-0.3-1.9,0.2c0,0-0.1,0.1-0.1,0.1c0,0,0,0-0.1,0c0,0-0.1,0-0.1,0c0,0,0,0,0,0c-0.3,0-0.6,0-0.9,0
	c-0.3,0-0.6,0.1-0.9,0.3c1.5-5,3.4-9.8,4.3-13.4c0.1-0.5-0.1-0.7-0.5-0.8c9.8-1.3,19.8-0.4,28.3,5c0.1,0,0.1,0.1,0.2,0.1
	c-1.5,4.5-3.1,13.5,2.5,15.6c-1.2,1.1,1.4,1.5,2.2,0.7c2.9-2.7,6.3-1.7,7.7,1.9c1.9,4.7-3.2,7.3-7,8c-0.6,0.1-1.6,0.5-1.5,1.3
	c1,4.7,1.9,9.3,2.2,14.1c-0.5,0.3-0.7,0.6-0.2,0.8c0.1,0,0.2,0.1,0.3,0.1c0,0.2,0,0.3,0,0.5c0,0.8,0.9,1,1.7,0.8
	c0,0.4-0.1,0.7-0.1,1C353.4,151.5,353.2,152,353,152.4z M202.5,200.4c-0.8-0.8-1.2-2-1.5-3c-0.1-0.3-0.6-0.3-1.2-0.2
	c-0.1-0.2-0.2-0.3-0.5-0.4c-0.6-0.2-1.4,0-1.9,0.5c-0.2,0.2-0.5,0.6-0.9,0.7c0.2-0.1-0.2-0.1-0.4-0.3c-0.8-0.7-1.3-1.9-1.7-2.9
	c-0.1-0.1-0.1-0.2-0.2-0.3c0.3-0.5,0.6-1,0.9-1.6c0.2-0.5-2.3-0.3-2.6,0.4c-1,2-2.4,3.7-3.8,5.5c-0.9-0.9-1.6-2-2.2-3.2
	c-0.1-0.3-0.6-0.3-1.1-0.2c0.2-0.3,0.4-0.7,0.6-1c0.2-0.5-2.3-0.3-2.6,0.4c-0.4,0.8-0.9,1.6-1.6,2.3c0,0-0.1,0.1-0.1,0.1
	c0,0,0,0,0,0c-0.3-0.1-0.5-0.3-0.7-0.5c-1.2-1-1.8-2.9-2.1-4.4c-0.1-0.6-2.3-0.1-2.6,0.5c-0.2,0.1-0.5,0.2-0.6,0.4
	c-0.4,0.6-0.9,1.7-1.8,1.3c-0.7-0.3-1.3-0.9-1.8-1.5c-1-1.1-1.7-2.5-2.4-3.9c0.2-0.5,0.4-0.9,0.5-1.4c0.3-0.9-2.4-0.6-2.7,0.3
	c-0.1,0.2-0.1,0.4-0.2,0.7c-0.4,0.2-0.6,0.5-0.4,0.8c0,0,0,0.1,0.1,0.1c-0.5,1.2-1.3,2.6-2.4,2.8c-1.7,0.3-3.3-2.4-4-3.6
	c0,0,0,0,0-0.1c0,0,0-0.1,0-0.1c0.6-1.5-2.1-1.5-2.6-0.4c-0.6,1.5-1.3,2.9-2.3,4.2c-1.7-0.7-2.8-2.6-3.5-4.3
	c-0.1-0.3-0.3-0.4-0.5-0.5c0-0.2-0.1-0.4-0.5-0.5c-0.7-0.1-1.4,0.1-1.9,0.5c-1.1,0.8-2.1,1.7-2.9,2.7c-0.6-0.8-1.1-1.7-1.4-2.7
	c-0.1-0.3-0.7-0.2-1.3-0.1c0.3-0.3,0.5-0.8,0-1c-0.6-0.3-1.4-0.1-1.9,0.2c-1.4,1-2.7,1.9-4.1,2.9c0-0.1,0-0.3,0-0.5
	c-0.8-1.8-0.9-3.4-0.7-5.3c0-0.6-0.5-0.9-1-0.9c0-0.7-1.9-0.7-2.5-0.1c-0.9,1-2,1.9-3.3,1.9c0,0,0-0.1,0-0.1c1-5.1,2.8-9.8,4.4-14.7
	c0.1-0.2,0-0.4-0.1-0.5c14.8,0.4,29.5,1.5,44.2,2.5c8.4,0.6,16.7,1.3,25.1,2.2c2.8,0.3,5.6,0.6,8.4,1.1c0.5,0.1,3.3,0.9,3.5,0.8
	c-0.3,0.3,0,0.4,0.5,0.4c-1.3,0.9-2.6,2-3.8,3.4c0,0-0.1,0.1-0.1,0.1c-0.1,0.1-0.2,0.3-0.3,0.4c0,0-0.1,0.1-0.1,0.1
	c-0.1,0.1-0.2,0.3,0,0.4c0,0,0,0,0,0c0,0,0.1,0.1,0.1,0.1c-4.2,5.7-7.4,12.4-8.7,19.4C203,200.8,202.7,200.6,202.5,200.4z
	 M215.1,219.7c-8.9-2.9-10.8-10.5-9.4-18.5c0.1-0.1,0.3-0.2,0.4-0.3c0.4-0.3,0.4-0.6-0.2-0.6c0,0-0.1,0-0.1,0
	c1.4-7.3,5.3-14.8,8.9-19.4c0.2-0.2,0.1-0.3-0.1-0.4c0-0.1,0.1-0.1,0.1-0.2c0,0,0-0.1,0.1-0.1c0.7-0.6,2.1-2,2.5-2.3
	c2.5-2.2,5.2-3.1,8.5-3.1c4.8,0,9.6,0.5,14.3,1.6c8.6,2.1,13.8,7.6,10.5,16.1c-2.3-0.6-4.7-0.7-7-0.4c1.2-3.1,2.5-7.1-0.5-9.5
	c-1.3-1.1-3.2-1.4-4.9-1.8c-3-0.6-6.1-1-9.1-1.5c-1.3-0.2-2.4,1.4-1.3,1.9c-3.4,0-6.6,1.9-8.2,4.9c-5.4,3.1-7.8,12.6-7.4,18
	c-0.9,1.7-1.4,3.6-1.2,5.5c0,0.3,1.1,0.2,1.9-0.1c-0.1,0.2,0,0.4,0.4,0.5c7.5,2,24,6,28.3-3.4c2.4,1.9,5.2,3.1,8.1,3.6
	C250.7,225.4,223.9,222.6,215.1,219.7z M237.2,201.4c0.6,1.3,1.4,2.5,2.4,3.6c0,0.1-0.1,0.1-0.1,0.2c-2.3,9.9-17.8,5.5-24.7,3.6
	c-0.3-0.1-0.8,0-1.3,0.3c0,0,0,0,0,0c-0.1-1.6,0.2-3.3,0.9-4.8c0.2-0.2,0.4-0.4,0.3-0.7c0,0,0,0,0,0c1.9-3.6,5.8-6.2,10.1-5.5
	c2.4,0.4,4.5,2,5.3,4.2c1.4,3.8-3.8,5.7-6.5,6.2c-1,0.2-2.4,1.3-0.5,0.9c2.8-0.6,7.3-1.5,8.9-4.2c2.2-3.8-0.6-6.6-4-7.8
	c2.7-2.2,3.1-5.3,2-7.7c0.2-0.1,0.4-0.1,0.5-0.2c1.5-1.1,3.4-2.7,3-4.8c-0.3-1.4-1.6-2.3-2.9-2.8c3.1,0.4,6.3,0.8,9.2,1.9
	c3.7,1.5,1.8,6.1,0.7,8.8c-0.1,0.2-0.1,0.3-0.1,0.5C236.8,194.5,235.5,197.5,237.2,201.4z M226.2,188.3c2.8,2.3,2.8,6.2-0.2,8.4
	c0,0-0.1,0-0.1,0.1c-3.9-0.5-8.1,1.1-11.1,3.9c0.4-3.8,1.9-7.6,3.7-10.7c0.5-0.8,1-1.5,1.6-2c0.6-0.1,1.2-0.4,1.3-0.7
	c0-0.1,0-0.1,0.1-0.2C223,186.7,224.5,186.9,226.2,188.3z M222.5,185.2c1.3-2.2,3.5-3.4,6.2-2.3c3,1.2,2.7,3.8,0.9,5.6
	C228.2,186.3,225.5,184.8,222.5,185.2z M298.3,235.2c-4.7,9.9-12.5,22.6-24.9,22.7c-10.5,0.1-20-9.1-27.1-15.8
	c-6.7-6.4-12.9-14-20.6-19.2c11.6,0.6,27.1-1.2,26.5-13c0.4-0.2,0.6-0.4,0.3-0.4c-5.5-0.7-16.6-7.4-13-14.4c0.4-0.7,0.9-1.2,1.6-1.5
	c0.6,0.2,1.5,0,1.9-0.5c2.8-0.3,6.4,0.7,8.2,1.4c2.4,0.9,4.5,2.6,6.3,4.4c4.1,4.2,4.7,10.3,1.5,15.2c0,0.1,0,0.1,0.1,0.1
	c-0.2,0.2-0.3,0.5,0,0.7c3.1,4,6.1,8.8,10.8,11.1c3.6,1.7,7.6-0.1,10.6-2.2c8-5.6,13.8-16.9,16.1-26.3c3.5,2.6,7.7,4.4,11.8,5.2
	c0.2,0,0.6,0,1-0.2c0.3-0.1,0.5-0.2,0.8-0.3c-0.1,0.4-0.2,0.9-0.3,1.3c-0.3,0.1-0.5,0.4-0.6,0.6c-0.2,0.5-0.3,1-0.5,1.5
	C305.9,215.7,302.8,225.7,298.3,235.2z M476.9,332.7c0.8,0.4,1.3,1.1,1.8,1.8c2.2,3.6,1.1,10.2,0.8,14.4c-6.6,0.5-13.2,0.8-19.8,0.9
	c-0.2-0.8-0.4-1.7-0.7-2.5c-1.7-4.8-6.3-5.2-10.4-3.7c-0.2,0.1-0.4,0.2-0.6,0.2c-0.3-0.1-0.7,0-1.1,0.1c-0.5,0.2-1,0.5-1.1,0.9
	c-0.4,1.7-0.8,3.4-0.9,5.2c0,0,0,0.1,0,0.1c-2.4,0-4.8-0.1-7.2-0.2c-12.8-0.3-25.5-0.7-38.3-0.3c-3.4,0.1-6.7,0.2-10,0.4
	c0-0.2-0.1-0.3-0.1-0.5c-0.2-0.7-0.3-1.5-0.6-2.2c0-0.1-0.1-0.2-0.1-0.3c-0.4-1.1-1-2-1.7-2.6c-2.4-2.1-6-1.9-9.2-0.5
	c-0.7-0.1-2,0.2-2.2,0.9c-0.4,1.7-0.8,3.5-1,5.4c-4.8,0.1-9.5,0.4-14.3-0.3c-0.2,0-0.5,0-0.7,0.1c-0.5-5.2-1.9-15.3,4.1-15.5
	c0.4,0,1.2-0.4,1.6-0.7c27.1,0,54.3-0.5,81.4-0.8c0.2,0.4,1.3,0.3,2,0c9.2-0.1,18.3-0.1,27.5-0.2
	C476.3,332.7,476.6,332.7,476.9,332.7z M456.6,362.2c-0.2,0-0.3,0.1-0.5,0.1c-9.8,4.3-9.2-10.5-7.8-16.9c0.2,0,0.3-0.1,0.5-0.1
	C458.6,341.1,458,355.9,456.6,362.2z M377.1,351.3c0.5-0.5,0.8-1,0.1-1.2c0.1-1.7,0.4-3.4,0.7-4.6c0.2,0,0.3-0.1,0.5-0.1
	c0.2-0.1,0.4-0.1,0.5-0.2c0.9-0.3,1.6-0.5,2.3-0.5c3.2-0.2,4.7,2.3,5.4,5.7c-0.8,0.3-1.6,0.9-0.3,0.8c0.2,0,0.3,0,0.5,0
	c0.5,3.8,0.1,8.3-0.5,11.1c-0.2,0-0.3,0.1-0.5,0.1C378.2,365.6,376.8,358,377.1,351.3z M422.1,328c2.2,0.2,3.9-0.6,5.3-1.9
	c0.2,0.1,0.6,0.1,1,0c1.4-0.4,2.6-1.1,3.6-1.9c0,0,0,0,0,0c2.9-0.2,5.3-1.5,7.2-3.4c5-0.8,7.3,6,7.3,10.4c-13.5,0.1-27,0.3-40.5,0.5
	c0.5-3.2,0.6-6.6,1.7-9.7c1.3-3.8,5.7-3.4,9-3.4c0.2,0,0.7-0.2,1.2-0.4c-0.2,1-0.5,2-0.7,3C416.3,325.2,417.9,327.7,422.1,328z
	 M444.6,310.7c0.1,0,0.3,0,0.5-0.1c8.9-2,7.4,15.3,8.6,20.4c-1.5,0-3,0-4.4,0c0.4-5.6-2.9-11.8-8.7-11.8c1.9-2.4,3.1-5.3,4-8.2
	C444.5,310.9,444.6,310.8,444.6,310.7z M403.2,294.8c0.1-0.5-0.7-0.5-1.4-0.4c-8.9-25-14.1-51.1-17.6-77.4c3.5-0.8,7-2.4,10-4.4
	c1.7-1.2,3.4-2.5,4.8-3.9c0,0.1,0.1,0.3,0.1,0.4c2.4,14,8.8,27,14.3,40.1c5.8,13.9,10,28.3,17.4,41.5c-0.1,0.1-0.1,0.2,0,0.3
	c0.1,0.1,0.2,0.2,0.4,0.4c0.2,0.4,0.4,0.8,0.7,1.2c0.1,0.3,0.5,0.3,0.9,0.3c4.2,3.8,9,7,9.7,13.1c0.4,3.5-1.2,9.8-4.2,13.6
	c-0.6,0.2-0.8,0.6-0.7,0.8c-1.2,1.3-2.6,2.2-4.1,2.4c3.4-3.6,4.9-9,5-14c0-1.3-2.7-0.9-2.7,0.2c-0.1,5.1-1.7,12.3-6.7,14.8
	c2.6-4.7,3-12,2.7-15.8c-0.1-1.2-2.8-0.6-2.7,0.7c0.3,3.5-0.2,7.1-1,10.4c-0.5,2.1-1.4,4.5-3.1,6c-1.8,1.7-5.2,0.7-5.4-1.8
	c-0.2-3.7,1.8-7.3,1.8-11c0-3.8-2.5-6-5.9-7.1c-0.4-0.1-1,0-1.5,0.3c0,0-0.1,0-0.1,0c-2.8-0.2-6.3,0.1-8.8-1.4
	C402.1,302.4,402.8,297.6,403.2,294.8z M406.5,307.7c0.7,0.1,1.5-0.5,1.7-1c1.4,0.1,2.8,0.1,4,0.2c0.2,0,0.7-0.1,1.2-0.3
	c0,0.2,0.2,0.5,0.6,0.6c5.3,1.7,5,6,4,10.3c-3.8,0-8.2,0.1-11.3,2.6c-3,2.4-2.8,8.1-3.3,11.7c-1.7,0-3.4,0-5.2,0.1
	C398.8,324.4,395.3,306.2,406.5,307.7z M379,256.5c0,0,0,0.1,0,0.1c-0.1,0-0.1,0-0.2,0C378.9,256.5,379,256.5,379,256.5z
	 M343.9,455.6c1.2,0.1,2.2,0.2,3.2,0.2c0.9,3.7,1.9,7.3,3.5,10.8c-14.9,3-30.6-0.5-45.7-0.7c0.2-0.1,0.4-0.3,0.4-0.5
	c1.2-7.2,5.9-13.3,13.8-12.5c0.4,0,1-0.2,1.3-0.5c3.2,1.1,6.7,1.7,10,2.3C334.8,455.4,339.4,455.8,343.9,455.6z M426.1,448.2
	c5,2.3,8.6,6.4,9.6,12.1c0,0.1,0.1,0.2,0.2,0.3c-11.3,9.3-29.6,5.3-41.3-1.4c0-0.1,0.1-0.1,0.1-0.2c1-3.2,1.2-6.5,1.2-9.8
	c5.1,1.2,10.5,1.8,15.7,1.5C417.8,451,422.8,449.7,426.1,448.2z M476.6,394.4c-20.8,0-41.6,0.5-62.5,0.8l0,0l-1.6,0.1
	c-16.5,0.3-33,0.6-49.5,0.6c0-14.6,0-29.3,0-43.9c3.3,0.2,6.6,0.1,9.9,0c0.5,0,1,0,1.4,0c0,0.1,0,0.1,0,0.2
	c-0.1,2.9,0.2,5.8,1.1,8.4c1.8,5.1,6.7,5.2,11.1,3.4c0.7,0.2,2-0.2,2.2-0.9c1-3.7,1.5-8,0.9-12c18.3-0.9,36.7-0.1,55,0.2
	c0.1,0,0.2,0,0.3,0c-0.2,3.2,0,6.4,1.1,9.3c1.8,5.1,6.7,5.2,11.1,3.4c0.7,0.2,2-0.2,2.2-0.9c0.9-3.5,1.4-7.5,1-11.3
	c5.5-0.1,11-0.3,16.5-0.7C476.6,365.5,476.6,379.9,476.6,394.4z M293.3,353.3c0-0.2-0.2-0.4-0.8-0.4c-0.1,0-0.3,0-0.4,0
	c-0.3-0.1-0.7-0.1-1.1-0.1c-0.2,0-0.4,0.1-0.7,0.2c-27.9,0.1-55.9,0.8-83.8,0.8c-0.8,0-1.8,0.8-1.8,1.3c-6.5,1.7-4.5,10.7-4.5,16.2
	c0,0.6,2.1,0.3,2.6-0.4c0,33,0,65.9,0,98.9c0,0.1,0.2,0.2,0.5,0.2c-0.2,0.4-0.1,0.8,0.7,0.8c29.4,0,58.8-1.2,88.2-1.2
	c1.1,0,2.4-1.4,1.4-1.7c0-32.6,0-65.2,0-97.8c0.2,0,0.5,0,0.7-0.1c0.7-0.1,1.2-0.5,1.3-1c0.1-0.1,0.1-0.2,0.1-0.4
	C295.9,364.2,297.8,355.6,293.3,353.3z M291,467.6c-28.5,0.1-57,1.2-85.5,1.2c0-8.7,0-17.4,0-26.1c28.4,0,56.8,0,85.1,0
	c0.1,0,0.3,0,0.4-0.1C291,451,291,459.3,291,467.6z M291,441.2c-28.2,0-56.4,0-84.6,0c-0.3,0-0.6,0.1-1,0.3c0-13.7,0-27.5,0-41.2
	c0.1,0,0.3,0,0.4,0c28.4,0,56.7,0,85.1,0c0,0,0,0,0,0c0,13.5,0,27.1,0,40.6C291,441,291,441.1,291,441.2z M206.7,371.7
	c5.5,15.1,26.7,23.7,41.7,22.4c8.6-0.8,17.5-2.4,25.1-6.6c6.4-3.5,11.2-9.3,15.6-15c1-1.3-1.5-1.5-2.2-0.7c-3.9,5-8,9.9-13.3,13.5
	c-6.4,4.3-14.4,5.6-21.9,6.6c-15,2-36.7-5.5-42.3-20.9c2.6,0,5.2-0.1,7.7-0.1c9.7,0.1,19.5,0.1,29.2,0c14.9,0,29.8-0.1,44.7-0.2
	c0,9.2,0,18.5,0,27.7c-28.5,0-57,0-85.5,0c0-9.2,0-18.4,0-27.6c0.5,0,0.9,0.1,1.4,0.1C206.7,371.1,206.6,371.4,206.7,371.7z
	 M293.3,368c-5,0.4-10,0.6-15,0.7c-0.4,0-0.8,0.2-1,0.4c-2.8,0-5.6,0-8.5,0c-0.1,0-0.2,0-0.3-0.1c-14.9-0.3-29.8-1.1-44.7,0
	c-0.1,0-0.3,0.1-0.6,0.1c-1.5,0-3,0-4.5,0c-5.1,0-10.6,0.5-15.6-0.4c-0.1,0-0.3,0-0.4,0c-0.4-4.2-1.3-12.5,2.7-12.7
	c0.4,0,1-0.3,1.4-0.6c28.2,0,56.4-0.8,84.6-0.8C294.7,356.9,293.6,364,293.3,368z M192.8,402.7c0-0.2-0.2-0.4-0.8-0.4
	c-16.7,0-33.4,0.5-50.1,0.5c-0.7,0-1.4,0.6-1.7,1.1c-3.7,1.3-2.7,6.1-2.7,9.7c0,0.4,0.8,0.4,1.5,0.2c0,19.1,0,38.1,0,57.2
	c0,0.1,0.1,0.1,0.3,0.1c-0.1,0.3,0.1,0.6,0.8,0.6c17.1,0,34.3-0.7,51.4-0.7c1,0,2.2-1.2,1.6-1.7c0-18.8,0-37.6,0-56.4
	c0.6-0.1,1-0.5,1.2-0.9c0.1-0.1,0.1-0.2,0.1-0.3C194.4,409.1,195.4,404.2,192.8,402.7z M190.4,469.2c-16.3,0.1-32.5,0.7-48.8,0.7
	c0-5.2,0-10.5,0-15.7c16.1,0,32.1,0,48.2,0c0.2,0,0.4,0,0.6-0.1C190.4,459.1,190.4,464.1,190.4,469.2z M190.4,452.7
	C190.4,452.7,190.3,452.7,190.4,452.7c-16,0-31.9,0-47.8,0c-0.3,0-0.6,0.1-1,0.3c0-8.2,0-16.4,0-24.6c16.2,0,32.4,0,48.6,0
	c0,0,0.1,0,0.1,0c0,0,0,0,0.1,0C190.4,436.5,190.4,444.6,190.4,452.7z M190.4,426.5c-16.3,0-32.5,0-48.8,0c0-4.3,0-8.5,0-12.8
	c0.3,0,0.6,0.1,0.8,0.1c3.8,8.1,15.2,12.1,23.6,11.5c9.9-0.7,17-4.1,23.3-11.6c0.1-0.1,0.1-0.1,0.1-0.2c0.3,0,0.6,0,0.9,0
	C190.4,417.8,190.4,422.2,190.4,426.5z M145.6,413.9c6.4,0.2,13.1-0.3,19.4-0.4c7.2,0,14.5-0.1,21.7-0.1c-5.3,6.2-10.6,8.8-18.8,9.8
	C160.4,424.3,149.6,421,145.6,413.9z M191.8,411.2c-2.7,0.2-5.4,0.3-8.2,0.4c-0.3,0-0.6,0.1-0.8,0.3c-2.8,0-5.6,0-8.4,0
	c-7.5-0.2-14.9-0.4-22.4,0.1c-0.2,0-0.7,0.2-1.1,0.4c-2.2,0-4.4,0-6.5-0.2c-0.3-0.1-0.6-0.1-1-0.1c-1.1-0.1-2.3-0.2-3.4-0.4
	c0-0.9-0.1-1.8-0.1-2.7c0-0.5-0.1-4.1,0.9-4.2c0.3,0,0.7-0.1,1.1-0.2c16.3,0,32.6-0.5,49-0.5C192.4,405.4,192,408.9,191.8,411.2z"/>
</svg>
