<?xml version="1.0" standalone="no"?>
<svg version="1.1" id="Layer_1" xmlns="http://www.w3.org/2000/svg" xmlns:xlink="http://www.w3.org/1999/xlink" x="0px" y="0px" width="595.279px" height="595.281px" viewBox="0 0 595.279 595.281" enable-background="new 0 0 595.279 595.281" xml:space="preserve">
<path id="color_x5F_2" fill="#761214" d="M338.168,228.368c-0.04-0.041-0.087-0.07-0.134-0.104
	c28.416-28.418,56.834-56.834,85.252-85.252c28.508,28.506,57.015,57.014,85.521,85.521c0.061,0.061,0.139,0.105,0.221,0.145
	c-0.016,0.012-0.035,0.025-0.049,0.039c-28.41,28.408-56.82,56.82-85.229,85.229C395.222,285.42,366.694,256.893,338.168,228.368z
	 M329.972,382.333c-0.076,0.141-0.154,0.279-0.23,0.422c7.771,15.324,15.541,30.65,23.313,45.975
	c0.068,0.135,0.079,0.266,0.047,0.391h31.725c-7.907-15.598-15.814-31.191-23.723-46.787
	C350.726,382.333,340.348,382.333,329.972,382.333z M410.7,382.333c7.842,15.465,15.684,30.932,23.525,46.396
	c0.068,0.135,0.079,0.266,0.047,0.389h31.725c-7.907-15.596-15.814-31.191-23.723-46.785
	C431.75,382.333,421.226,382.333,410.7,382.333z M539.229,429.118c-7.906-15.596-15.813-31.191-23.722-46.785
	c-10.524,0-21.049,0-31.573,0c7.842,15.465,15.684,30.932,23.524,46.396c0.067,0.135,0.078,0.266,0.047,0.389H539.229z
	 M247.588,379.223c-0.164,0.045-0.33,0.074-0.498,0.082c-1.528,1.02-3.083,1.842-4.66,2.51c-0.832,0.709-2.35,1.139-4.055,1.391
	c-2.317,0.627-4.674,1.014-7.059,1.271c0.455,14.264,0.274,28.555,0.503,42.82c0.23,14.264-0.352,29.27,2.172,43.379
	c0.336-0.197,0.735-0.313,1.124-0.258c8.04,1.176,21.357,2.52,23.315-8.186c1.405-7.68-0.93-15.918-2.42-23.426
	C252.183,419.516,246.474,399.081,247.588,379.223z M254.109,471.45c1.392-0.061,2.453-1.008,3.321-2.332
	c-1.139,0.979-2.384,1.752-3.708,2.35C253.859,471.461,253.989,471.456,254.109,471.45z M92.519,429.709
	c-5.008,9.055-12.189,23.438-8.176,33.633c1.062,2.697,2.912,4.738,5.244,6.307l10.345,3.938c6.235,1.283,12.985,1.463,17.862,1.912
	c6.34,0.586,14.02,2.293,19.778-1.271c4.926-3.051,7.667-8.305,9.821-13.508c6.039-14.59,12.014-30.018,12.694-45.955
	C138.918,425.51,116.826,433.575,92.519,429.709z M156.28,414.913c-3.142,1.436-7.352,3.334-11.755,5.246
	C148.467,418.542,152.401,416.795,156.28,414.913z M135.31,476.315c-0.927,0.293-1.877,0.539-2.854,0.727
	C133.43,476.952,134.381,476.709,135.31,476.315z M215.947,277.999c-0.342-0.973-0.684-1.945-1.052-2.906
	C215.087,276.467,215.411,277.616,215.947,277.999z M245.838,322.018c-0.619-0.016-1.172-0.305-1.196-0.959
	c-0.29-7.873-0.394-15.924-2.292-23.615c-0.917-3.721-2.056-7.396-3.67-10.881c-0.187-0.402-0.363-0.828-0.537-1.26
	c-0.258-0.205-0.33-0.436-0.264-0.662c-0.801-2.063-1.578-4.277-2.897-5.918c-1.313-1.635-3.972-1.871-6.305-2.424
	c-0.416-0.006-0.681-0.01-0.681-0.01l-0.246-0.238c-0.646-0.195-1.247-0.436-1.757-0.766c-2.011-1.307-8.703-9.293-10.642-5.631
	c0.332,0.033,0.6,0.156,0.708,0.404c9.388,21.625,11.417,46.67,11.495,70.047c2.428-0.064,4.379,0.854,6.181,2.482
	C237.768,335.733,241.803,328.875,245.838,322.018z M158.266,318.065c-1.015-3.629-2.174-7.58-3.487-11.822
	c-1.445-4.221-3.083-8.369-4.985-12.391c-5.142-10.863-12.313-22.344-23.285-28.133c-2.968-1.564-7.714,0.666-10.729,1.604
	c-0.86,0.268-1.729,0.541-2.599,0.818c-2.862,1.035-5.873,2.152-8.494,3.188c-0.809,0.375-1.608,0.764-2.384,1.189
	c-3.595,1.975-7.443,5.896-2,7.563c0.229,0.016,0.411,0.07,0.511,0.174c15.274,2.779,19.454,23.432,21.243,36.141
	c2.003,14.227,2.795,29.629,0.357,43.91c0.178-0.078,0.356-0.156,0.535-0.234c4.2-3.906,12.685-6.387,16.616-1.039
	c2.545-0.371,5.216-0.285,7.382,0.885c2.425,1.311,2.095,3.619,0.75,5.217c4.717-1.473,9.606-2.088,14.547-2.455
	c1.683-9.922,0.542-20.555-1.063-30.373C160.402,327.542,159.439,322.78,158.266,318.065z M231.042,184.405
	c2.098-0.195,5.805-0.25,9.085-0.854c2.675-0.869,4.644-1.855,5.958-2.805c2.234-3.43-8.264-6.691-10.906-7.604
	c-3.081,2.244-6.436,3.891-9.971,5.066c-0.427,0.4-1.195,0.617-1.791,0.547c-6.184,1.764-12.836,2.219-19.439,2.068
	c-0.663,0.258-1.49,0.281-1.833-0.059c-4.481-0.174-8.917-0.596-13.141-1.045c-17.824-1.895-35.629-4.342-53.309-7.33
	c-0.021,0.16-0.042,0.32-0.062,0.48c19.173,2.396,37.979,7.246,57.184,9.602C205.63,184.045,218.143,185.596,231.042,184.405z
	 M207.36,123.19c0.144,0.043,0.177,0.111,0.137,0.193c17.128,8.811,20.284,35.316,18.132,53.367
	c2.857-1.084,5.559-2.529,8.033-4.439c0.129-0.1,0.364-0.186,0.638-0.254c0.225-5.938,0.181-12.131-0.638-18.174
	c-0.574-2.98-1.239-6.172-1.972-9.225c-0.619-2.021-1.364-3.994-2.261-5.906c-4.887-10.408-13.822-20.232-26.052-19.76
	c-0.141,0.328-0.462,0.637-0.996,0.807c-0.876,0.281-1.665,0.688-2.439,1.102c2.439,0.43,4.675,1.139,6.719,2.098
	C206.894,123.065,207.128,123.122,207.36,123.19z M204.951,179.555c6.063,0.172,12.103-0.227,17.669-1.811
	c2.566-19.951-1.318-53.436-26.852-55.264c-0.149,0.018-0.292,0.047-0.447,0.053c-0.505,0.02-0.842-0.109-1.04-0.313l-5.729-0.705
	c-0.636-0.033-1.273-0.055-1.911-0.07C204.05,131.161,207.322,161.506,204.951,179.555z M193.905,178.651
	c-0.004,0.033-0.018,0.063-0.026,0.094c2.701,0.289,5.453,0.539,8.217,0.689c1.407-10.863,1.301-22.846-1.886-33.326
	c-4.017-13.209-14.142-27.193-29.435-25.813c-1.694,0.326-3.246,1.086-4.515,2.219C191.921,123.606,196.478,158.858,193.905,178.651
	z M191.038,178.426c2.207-18.035-1.439-50.705-23.604-53.742c-19.09,7.482-28.639,26.75-31.508,46.057
	c15.847,2.705,31.794,4.945,47.759,6.809C186.049,177.825,188.513,178.133,191.038,178.426z"></path>
<path id="color_x5F_1" d="M213.984,196.362c1.214,8.314,2.983,17.225,1.876,25.637c-0.319,2.422-0.842,5.908-3.313,7.156
	c-3.519,1.775-7.472-2.471-10.92-2.92c-1.95-0.256-0.54-2.436,0.969-2.236c2.011,0.262,8.388,4.4,9.285,2.336
	c1.343-3.092,1.341-6.768,1.243-10.084c-0.189-6.426-1.109-12.762-2.037-19.111C210.872,195.665,213.774,194.922,213.984,196.362z
	 M190.058,203.5c0-2.109,0-4.221,0-6.332c0-0.477-2.897-0.059-2.897,0.777c0,2.109,0,4.221,0,6.332
	C187.161,204.754,190.058,204.336,190.058,203.5z M219.892,203.5c0-2.109,0-4.221,0-6.332c0-0.477-2.897-0.059-2.897,0.777
	c0,2.109,0,4.221,0,6.332C216.994,204.754,219.892,204.336,219.892,203.5z M192.566,232.301c-3.413-1.676-4.948-4.924-5.341-8.574
	c-0.137-1.273-3.042-0.572-2.897,0.777c0.427,3.975,2.298,7.611,5.993,9.426c0.67,0.328,1.462,0.254,2.074-0.189
	C192.812,233.436,193.23,232.627,192.566,232.301z M194.14,187.899c-3.427-1.078-6.896-1.336-10.424-0.643
	c-1.808,0.357-1.31,2.049,0.455,1.701c2.783-0.549,5.564-0.15,8.242,0.691C193.48,189.987,195.832,188.432,194.14,187.899z
	 M149.48,203.393c-2.326,1.111-3.446,3.842-3.5,6.283c-0.032,1.447,2.899,0.961,2.926-0.256c0.034-1.527,0.409-3.02,1.473-4.158
	c0.744-0.797,1.279,0.15,1.616,0.908c0.54,1.217,3.404,0.365,2.897-0.777C153.883,203.122,151.765,202.301,149.48,203.393z
	 M542.336,429.208c0,0.367,0,0.732,0,1.102c0,1.143-2.919,1.678-2.919,0.285c0-0.084,0-0.168,0-0.252c-10.627,0-21.254,0-31.881,0
	c5.453,13.619,10.906,27.236,16.359,40.855c0.449,1.125-2.422,1.967-2.897,0.777c-5.491-13.713-10.981-27.424-16.472-41.137
	c-0.069-0.176-0.051-0.342,0.019-0.498c-6.979,0-13.958,0-20.937,0c5.453,13.619,10.906,27.238,16.359,40.857
	c0.45,1.123-2.421,1.967-2.896,0.775c-5.492-13.711-10.981-27.424-16.473-41.135c-0.07-0.176-0.053-0.344,0.018-0.498
	c-42.858,0-85.717,0-128.576,0c-0.012,0.068-0.029,0.141-0.061,0.221c-5.49,13.711-10.981,27.424-16.473,41.135
	c-0.425,1.063-3.328,1.244-2.74-0.223c5.489-13.711,10.979-27.422,16.471-41.133c-7.043,0-14.084,0-21.125,0
	c-0.012,0.068-0.029,0.141-0.062,0.221c-5.489,13.711-10.979,27.424-16.471,41.135c-0.425,1.063-3.329,1.244-2.741-0.223
	c5.49-13.711,10.98-27.422,16.471-41.133c-6.645,0-13.287,0-19.932,0c-7.186,7.58-16.95,14.096-27.813,12.725
	c-10.376-1.311-15.261-7.828-20.803-15.02c1.503,6.881,2.991,13.721,4.11,20.488c1.026,6.205,2.37,14.869-2.629,19.855
	c-0.261,0.26-0.538,0.49-0.812,0.727c-1.139,0.979-2.384,1.75-3.708,2.35c-5.938,2.682-13.414,1.92-19.621,1.014
	c-0.502-0.074-0.768-0.26-0.866-0.492c-0.822,0.355-1.973,0.408-2.075-0.148c-2.675-14.609-2.038-30.199-2.256-44.984
	c-0.208-14.031-0.038-28.088-0.5-42.113c-6.407,0.48-12.976,0.441-19.477,2.195c-1.319,0.354-2.597,0.793-3.856,1.266
	c0.306,13.58-1.342,27.359-2.447,40.861c-1.15,14.063-2.531,28.113-3.553,42.188c-0.064,0.891-2.967,1.488-2.888,0.398
	c1.021-14.074,2.409-28.123,3.553-42.189c1.076-13.234,2.7-26.75,2.442-40.064c-10.688,4.832-19.552,13.229-29.85,18.873
	c-3.092,1.693-6.198,3.369-9.323,4.994c-0.326,10.172-2.764,20.039-6.13,29.623c-2.667,7.594-5.291,15.445-9.031,22.598
	c-3.099,5.926-7.415,9.213-12.535,10.832c-0.927,0.293-1.877,0.539-2.854,0.727c-3.631,0.699-7.591,0.727-11.769,0.344
	c-7.798-0.715-15.712-1.264-23.37-2.982c-5.107-1.145-11.458-2.502-14.405-7.332c-6.333-10.379,0.41-25.291,5.937-35.518
	c-0.181,0.033-0.37,0.037-0.561,0.002c-5.125-0.973-10.204-2.881-15.062-4.73c-3.139-1.193-8.605-2.543-10.874-5.424
	c-0.437-0.086-0.75-0.342-0.705-0.816c0.127-1.307,0.307-2.607,0.51-3.904c-0.15-0.063-0.28-0.15-0.379-0.271
	c-7.529-9.303-10.652-21.699-7.888-33.383c3.249-13.736,7.218-27.328,10.915-40.949c3.325-12.25,5.604-25.223,9.903-37.162
	c3.891-10.807,11.478-17.598,21.198-23.283c1.145-0.67,3.587,0.236,1.896,1.227c-10.97,6.416-18.389,14.193-21.659,26.74
	c-3.13,12.012-6.18,24.035-9.44,36.014c-3.353,12.318-7.264,24.668-9.886,37.164c-2.234,10.648-0.19,21.404,6.021,30.25
	c2.678-12.348,8.985-23.766,19.33-31.49c11.185-8.352,24.41-14.236,37.245-19.902c2.583-14.354,1.879-30.131-0.257-44.459
	c-1.843-12.357-5.686-32.867-20.535-35.742c-0.151-0.002-0.277-0.012-0.357-0.033c-2.48-0.674-5.454-3.004-3.036-5.604
	c5.435-5.846,15.476-8.283,22.908-10.332c2.719-0.748,5.583-1.682,8.424-1.824c1.912-0.096,4.508,2.053,5.957,3.086
	c0.005,0.004,0.01,0.008,0.015,0.01c0.183-0.145,0.42-0.279,0.761-0.373c2.988-0.814,5.884-1.838,8.322-3.807
	c0.459-0.371,1.096-0.588,1.704-0.572c1.563-3.813,6.776-8.867,10.679-10.029c0.152-9.605,1.521-19.141,1.642-28.75
	c-3.399,0.773-7.444,0.291-10.265-1.059c-5.47-2.619-6.375-6.91-5.069-12.588c0.643-2.789,1.548-5.371,2.946-7.57
	c-4.525-2.045-9.006-15.184-9.538-18.961c-0.414-0.096-0.581-0.334-0.089-0.768c2.501-2.199,5.123-4.076,6.627-7.129
	c-1.868-0.303-3.738-0.578-5.611-0.824c-0.901,0.355-2.109,0.209-1.998-0.732c0.065-0.553,0.139-1.104,0.214-1.656
	c-0.229-0.039-0.456-0.074-0.684-0.113c-1.121-0.195-0.078-0.889,0.879-1.213c2.91-18.979,12.259-37.654,30-46.18
	c-0.647-0.17-1.054-0.658-0.495-1.398c2.168-2.869,5.491-4.498,9.007-4.971c0.376-0.051,0.858,0.076,1.132,0.363
	c4.355-0.217,8.191,0.477,11.555,1.885c3.489-0.082,6.942,0.051,10.365,0.406c0.248-0.184,0.566-0.313,0.946-0.328
	c2.276-0.088,4.139-1.918,6.271-2.6c0.42-0.133,0.768-0.119,1.035-0.016c10.777-0.939,19.917,4.605,25.78,13.621
	c7.803,11.996,9.091,26.324,8.534,40.301c-0.002,0.051-0.016,0.098-0.032,0.145c0.049,0.006,0.096,0.014,0.134,0.027
	c3.007,1.086,12.246,3.232,11.984,7.646c-0.148,2.49-4.739,3.699-6.548,4.18c-4.306,1.141-8.873,1.887-13.489,2.313
	c0.506,9.678-1.384,19.154-1.05,28.822c0.314,9.098,1.258,19.996-5.582,27.158c-4.758,4.98-11.066,7.264-17.792,7.885
	c-0.433,3.303-0.943,6.596-1.501,9.879c-0.119,0.699-0.183,1.6-0.293,2.506c0.554-0.119,1.063-0.113,1.208,0.162
	c0.75,1.441,1.359,2.842,1.845,4.221c0.022,0.008,0.05,0.006,0.071,0.018c2.076,1.063,4.175,2.076,6.281,3.076
	c1.553-4.063,5.165-4.818,8.876-1.941c2.512,1.947,4.791,5.057,7.813,6.199c2.031,0.77,4.276,0.975,6.265,1.777
	c1.71,0.691,2.527,1.996,3.346,3.604c0.767,1.502,1.496,3.064,2.197,4.645c7.051,4.412,12.849,9.758,17.499,16.648
	c0.413-0.701,0.826-1.402,1.239-2.105c0.119-0.201,0.311-0.361,0.537-0.486c-6.843-11.727-10.4-25.305,2.421-34.084
	c0.034-0.846,1.783-1.633,2.608-1.021c3.385,2.5,6.771,5,10.156,7.5c0.608,0.449,0.42,0.992-0.062,1.383
	c0.445,0.25,0.64,0.705,0.171,1.318c-0.838,1.094-1.671,2.193-2.496,3.297c-0.624,0.832-1.247,1.666-1.852,2.514
	c-0.171,0.238-0.341,0.48-0.507,0.725c-0.017,0.143-0.076,0.293-0.177,0.449c1.041,2.826,2.083,5.652,3.124,8.479
	c2.351,0.518,4.754,0.936,7.161,1.068c1.042-1.408,2.083-2.816,3.116-4.23c0.358-0.49,3.275-4.217,3.681-5.039
	c-0.382-0.646,1.783-1.6,2.572-1.213c3.623,1.775,7.245,3.553,10.868,5.328c0.775-0.152,1.599-0.145,1.578-0.033
	c-2.966,15.615-16.66,21.854-31.146,20.752c-2.041,3.469-4.083,6.938-6.124,10.406c0.031,0.051,0.062,0.1,0.083,0.16
	c3.696,10.697,7.907,21.201,11.875,31.799c2.772,7.402,4.047,14.592,8.513,21.217c1.385-1.244,2.777-2.477,4.179-3.699
	c9.176-7.996,19.194-15.381,27.7-24.113c-0.359-8.826,0.854-18.014,2.829-26.598c1.396-6.064,3.111-15.031,9.251-18.23
	c5.357-2.791,6.674,2.748,6.501,7.072c-0.087,2.203-0.405,4.371-0.646,6.539c2.018-4.65,4.105-9.256,6.74-13.623
	c1.936-3.211,6.694-10.65,11.619-8.746c3.471,1.342,3.475,5.508,2.014,10.381c2.375-3.092,5.678-6.787,9.992-5.861
	c4.693,1.01,2.43,7.223-1.082,13.371c2.351-2.328,5.072-4.232,8.649-5.248c0.255-0.074,1.386-0.396,1.552-0.002
	c2.232,5.297-0.535,10.256-4.164,14.707c1.76-0.984,3.605-1.652,5.493-1.578c5.099,0.201,5.576,5.721,3.062,9.18
	c-1.967,2.707-5.041,4.594-7.625,6.643c-3.789,3.004-6.062,7.029-8.473,11.154c-2.211,3.781-4.438,7.59-7.885,10.396
	c-1.708,1.391-3.501,2.67-5.258,3.992c-0.084,0.135-0.232,0.277-0.48,0.432c-0.193,0.119-0.375,0.246-0.563,0.369
	c-1.538,1.191-3.031,2.438-4.387,3.854c-0.131,0.139-0.342,0.25-0.588,0.33c-3.359,3.563-5.852,7.861-8.271,12.258
	c-1.755,3.189-3.605,6.283-5.35,9.438c10.291,0,20.582,0,30.873,0c0.679-0.432,1.879-0.572,2.365,0c14.647,0,29.295,0,43.942,0
	c0.678-0.432,1.879-0.572,2.364,0c10.834,0,21.668,0,32.5,0c0.679-0.432,1.88-0.572,2.365,0c12.002,0,24.002,0,36.004,0
	c0.678-0.432,1.879-0.572,2.365,0c10.832,0,21.666,0,32.5,0c0.678-0.432,1.879-0.572,2.364,0c7.872,0,15.743,0,23.614,0
	c0.552,0,0.441,0.176,0.08,0.387c0.256,0.131,0.428,0.352,0.428,0.688c0,15.484,0,30.969,0,46.455
	C542.403,428.918,542.396,429.067,542.336,429.208z M518.8,382.333c6.873,13.553,13.745,27.107,20.617,40.662
	c0-13.469,0-26.936,0-40.4c0-0.092,0.025-0.18,0.061-0.262C532.584,382.333,525.692,382.333,518.8,382.333z M275.401,378.725
	c2.674-2.771,5.462-5.432,8.304-8.035c-0.155-0.063-0.288-0.156-0.38-0.291c-0.369-0.531-0.708-1.066-1.035-1.602
	c-0.116,0-0.229-0.006-0.335-0.033c-13.104-3.391-28.163,11.475-30.876,23.576c-0.05,0.223-0.184,0.416-0.363,0.578
	c0.679,8.643,2.257,17.291,4.058,25.893c4.286-6.283,6.941-13.373,9.396-20.574c1.796-5.27,3.432-10.893,6.856-15.377
	c0.174-0.229,0.576-0.408,1.024-0.52C273.143,381.071,274.3,379.868,275.401,378.725z M263.329,318.975
	c-5.739,9.754-11.479,19.508-17.218,29.262c1.265-0.328,2.497-0.668,3.551-0.816c2.844-0.4,7.893-1.615,10.368,0.529
	c1.103,0.955-0.303,2.447-2.07,3.748c0.138,0.084,0.236,0.201,0.265,0.363c0.572,3.33-0.536,6.686-3.39,8.539
	c2.841,3.078,1.439,6.414-1.596,8.438c0.244,0.102,0.382,0.289,0.321,0.574c-0.576,2.732-1.558,5.383-3.329,7.498
	c0.226,0.148,0.368,0.383,0.344,0.723c-0.197,2.826-0.251,5.656-0.193,8.488c5.499-11.26,18.328-21.363,30.528-20.01
	c-2.593-5.154-3.776-10.49-5.899-16.16C271.119,339.756,267.021,329.44,263.329,318.975z M235.894,344.032
	c-0.093,0.158-0.232,0.291-0.396,0.4c1.348,1.621,3.069,4.043,5.095,4.453c0.638,0.129,1.35,0.127,2.098,0.049
	c8.771-14.906,17.542-29.813,26.313-44.721c0.558-0.947,2.67-1.043,2.907-0.236c13.277,1.555,24.451-4.264,27.5-17.674
	c-0.041-0.012-0.082-0.021-0.118-0.039c-3.292-1.615-6.584-3.229-9.876-4.844c-1.05,1.461-2.505,3.232-2.703,3.502
	c-1.315,1.799-2.637,3.592-3.964,5.383c-0.048,0.064-0.118,0.121-0.198,0.176c-0.349,0.445-1.197,0.924-1.792,0.914
	c-2.957-0.043-5.933-0.545-8.824-1.176c-0.317,0.016-0.591-0.059-0.808-0.191c-0.065-0.027-0.12-0.059-0.165-0.09
	c-0.084-0.061-0.129-0.129-0.142-0.201c-0.007-0.016-0.018-0.027-0.024-0.043c-1.176-3.193-2.353-6.387-3.529-9.578
	c-0.134-0.365,0.123-0.701,0.53-0.943c0.573-1.17,1.902-2.553,2.286-3.068c0.976-1.309,1.961-2.611,2.954-3.908
	c0.025-0.033,0.057-0.061,0.085-0.09c-3.18-2.348-6.359-4.695-9.54-7.045c-11.134,8.785-6.521,22.178-0.027,33
	c0.135,0.227-0.43,0.594-1.102,0.826c-0.006,0.012-0.007,0.021-0.014,0.031C253.592,313.956,244.743,328.995,235.894,344.032z
	 M242.738,288.426c0.452,1.217,0.876,2.436,1.246,3.648c2.69,8.844,3.184,17.93,3.531,27.094c3.159-5.369,6.318-10.738,9.478-16.105
	c-0.303-0.049-0.569-0.18-0.73-0.428C252.548,296.944,248.054,292.338,242.738,288.426z M227.75,276.051
	c-0.646-0.195-1.247-0.436-1.757-0.766c-2.011-1.307-8.703-9.293-10.642-5.631c0.332,0.033,0.6,0.156,0.708,0.404
	c9.388,21.625,11.417,46.67,11.495,70.047c2.428-0.064,4.379,0.854,6.181,2.482c4.035-6.857,8.069-13.715,12.104-20.57
	c-0.619-0.018-1.172-0.305-1.196-0.959c-0.29-7.873-0.394-15.926-2.292-23.617c-0.917-3.719-2.056-7.396-3.67-10.881
	c-0.187-0.402-0.363-0.828-0.537-1.258c-0.258-0.205-0.33-0.436-0.264-0.664c-0.801-2.061-1.578-4.275-2.897-5.918
	c-1.313-1.633-3.972-1.871-6.305-2.424C228.36,276.225,228.051,276.143,227.75,276.051z M206.875,269.331
	c1.225,5.078,0.847,10.027-0.337,15.861c-0.142,0.699-2.987,1.158-2.855,0.516c0.037-0.184,0.069-0.359,0.104-0.539
	c-0.396,0.006-0.712-0.086-0.791-0.33c-1.408-4.369-2.22-11.322-7.488-12.264c-1.425,2.764-2.492,5.801-3.657,8.352
	c0.011,0.045,0.032,0.09,0.042,0.135c1.444,6.344,1.979,13.014,2.889,19.445c1.595,11.291,3.156,22.588,4.667,33.891
	c0.863,6.455,2.281,13.143,2.444,19.666c0.002,0.107-0.041,0.209-0.12,0.305c7.805-3.959,15.112-8.939,22.882-13.535
	c-0.072-20.826-1.711-42.965-8.708-62.834c-0.342-0.971-0.684-1.943-1.052-2.904c-0.473-1.232-0.976-2.451-1.493-3.664
	c-0.321,0.039-0.626,0.018-0.862-0.072c-0.458,0.129-0.982,0.211-1.372,0.029C209.731,270.711,208.301,270.026,206.875,269.331z
	 M202.256,265.104c-0.036,0.064-0.064,0.139-0.104,0.197c-0.181,0.275-0.583,0.525-1.031,0.676c-0.01,0.008-0.018,0.014-0.028,0.021
	c-2.034,1.201-3.554,3.051-4.799,5.154c5.136,0.363,6.955,4.285,8.304,8.609C205.072,274.672,204.507,270.131,202.256,265.104z
	 M201.943,250.012c-8.083,0.203-16.526-1.727-23.452-4.09c-0.249-0.086-0.397-0.191-0.481-0.307
	c-9.257-2.064-17.272-9.445-19.564-18.723c-0.358,8.164-1.365,16.289-1.518,24.465c0.418-0.131,0.816-0.205,1.034-0.154
	c8.082,1.879,14.877,7.732,20.538,13.537c2.705,2.773,5.403,5.6,8.005,8.471c1.19,1.313,2.678,2.85,3.813,4.514
	c2.212-5.146,4.525-10.566,9.476-13.492c0.032-0.018,0.063-0.029,0.096-0.047c0.468-1.645,0.539-4.154,0.761-5.518
	C201.119,255.79,201.566,252.907,201.943,250.012z M166.261,122.514c25.66,1.092,30.218,36.344,27.645,56.137
	c-0.004,0.033-0.018,0.063-0.026,0.094c2.701,0.289,5.453,0.539,8.217,0.689c1.407-10.863,1.301-22.846-1.886-33.326
	c-4.017-13.209-14.142-27.193-29.435-25.813C169.081,120.624,167.529,121.381,166.261,122.514z M135.925,170.741
	c15.847,2.705,31.794,4.945,47.759,6.809c2.365,0.275,4.83,0.584,7.354,0.879c2.207-18.037-1.439-50.705-23.604-53.744
	C148.343,132.167,138.794,151.434,135.925,170.741z M169.543,180.667c-0.875-0.156-1.753-0.305-2.627-0.467
	c-1.268-0.234-2.535-0.479-3.802-0.725c-2.108,13.596-3.504,27.602-2.491,41.359c0.721,9.795,6.445,18.332,15.217,22.145
	c-5.035-4.59-7.838-11.666-8.615-18.563C165.593,209.936,167.3,194.995,169.543,180.667z M226.327,186.506
	c-0.006-0.104,0.018-0.205,0.055-0.301c-4.794,0.299-9.601,0.262-14.195-0.104c-13.357-1.057-26.716-2.688-39.934-4.955
	c-2.083,13.438-3.799,27.686-2.271,41.246c1.038,9.215,4.945,19.188,13.714,22.947c12.925,3.801,32.324,6.166,39.056-7.625
	c4.367-8.945,1.983-18.828,2.496-28.35c0.375-6.963,1.301-13.701,1.154-20.645c-0.515,0.365-1.185,0.471-1.795,0.359
	c-2.788-0.508-5.556-0.416-8.252,0.482c-1.746,0.58-2.166-1.131-0.455-1.701c3.401-1.135,6.931-1.172,10.434-0.533
	c0.009,0.002,0.013,0.01,0.022,0.012C226.343,187.063,226.343,186.788,226.327,186.506z M246.085,180.749
	c2.234-3.43-8.264-6.691-10.906-7.605c-3.081,2.244-6.436,3.893-9.971,5.066c-0.427,0.402-1.195,0.617-1.791,0.549
	c-6.184,1.762-12.836,2.219-19.439,2.068c-0.663,0.256-1.49,0.279-1.833-0.059c-4.481-0.176-8.917-0.596-13.141-1.045
	c-17.824-1.896-35.629-4.342-53.309-7.33c-0.021,0.16-0.042,0.32-0.062,0.48c19.173,2.395,37.979,7.244,57.184,9.6
	c12.812,1.572,25.326,3.123,38.225,1.932c2.098-0.195,5.805-0.25,9.085-0.854c2.456-0.451,4.673-1.209,5.792-2.568
	C245.985,180.905,246.034,180.827,246.085,180.749z M231.691,144.659c-0.619-2.02-1.364-3.994-2.261-5.906
	c-4.887-10.408-13.822-20.232-26.052-19.76c-0.141,0.33-0.462,0.639-0.996,0.809c-0.876,0.279-1.665,0.688-2.439,1.102
	c2.439,0.428,4.675,1.139,6.719,2.098c0.232,0.064,0.466,0.121,0.698,0.189c0.144,0.043,0.177,0.111,0.137,0.193
	c17.128,8.811,20.284,35.318,18.132,53.369c2.857-1.084,5.559-2.529,8.033-4.441c0.129-0.1,0.364-0.186,0.638-0.254
	c0.225-5.938,0.181-12.131-0.638-18.174C233.238,150.749,232.609,147.655,231.691,144.659z M188.553,121.516
	c-0.636-0.033-1.273-0.053-1.911-0.07c17.408,9.715,20.68,40.063,18.309,58.109c6.063,0.172,12.103-0.227,17.669-1.811
	c2.566-19.951-1.318-53.436-26.852-55.264c-0.149,0.018-0.292,0.047-0.447,0.053c-0.505,0.02-0.842-0.109-1.04-0.313
	c-0.061-0.063-0.105-0.135-0.14-0.209C192.288,121.778,190.425,121.614,188.553,121.516z M157.143,220.434
	c0.162-0.105,0.346-0.178,0.538-0.223c-0.318-6.121-0.254-12.252,0.125-18.369c-0.382-0.078-0.698-0.285-0.812-0.672
	c-1.656-5.613-8.343-2.947-10.767,0.646c-1.94,2.877-3.006,6.389-3.404,9.824c-0.43,3.703,0.273,7.074,4.217,8.516
	C149.804,221.167,154.461,222.221,157.143,220.434z M153.966,270.934c6.925,6.105,14.449,12.48,20.214,19.848
	c2.293-5.551,6.541-14.104,11.928-14.066c-1.075-1.279-2.27-2.459-3.3-3.529c-2.365-2.459-4.619-5.031-7.034-7.438
	c-5.382-5.365-11.525-10.926-18.981-13.066c-0.435,0.738-2.067,1.043-2.622,0.424c-0.173,0.1-0.407,0.223-0.709,0.375
	c-0.454,0.33-0.893,0.68-1.319,1.043c-1.134,1.002-2.246,2.041-3.214,3.207c-1.152,1.391-2.639,3.055-3.073,4.861
	C145.179,265.415,152.049,269.245,153.966,270.934z M133.861,267.737c4.811,3.705,8.852,8.316,12.184,13.395
	c8.791,13.393,14.017,29.113,17.03,44.766c2.265,11.766,4.097,24.633,1.987,36.594c5.888-0.348,11.816-0.508,17.586-1.496
	c6.503-1.113,12.373-3.313,17.967-6.057c-0.774,0.195-1.614,0.195-1.622-0.098c-0.164-6.525-1.58-13.213-2.445-19.668
	c-1.472-10.99-2.984-21.979-4.535-32.959c-0.945-6.693-1.632-13.514-2.971-20.145c-0.164-0.813-0.47-1.6-0.868-2.359
	c-0.188,0-0.342-0.033-0.437-0.115c-5.656-5.004-10.369,9.643-11.872,13.584c-0.214,0.563-2.497,1.191-2.874,0.66
	c-4.02-5.658-9.403-10.539-14.44-15.271c-4.809-4.518-10.399-8.398-15.084-12.975c-0.461-0.449-0.642-1.063-0.608-1.777
	C140.148,265.711,137.062,266.85,133.861,267.737z M104.685,271.329c-0.809,0.375-1.608,0.764-2.384,1.189
	c-3.595,1.975-7.443,5.896-2,7.563c0.229,0.016,0.411,0.068,0.511,0.174c15.274,2.779,19.454,23.432,21.243,36.141
	c2.003,14.227,2.795,29.629,0.357,43.91c0.178-0.078,0.356-0.156,0.535-0.236c4.2-3.904,12.685-6.385,16.616-1.037
	c2.545-0.371,5.216-0.285,7.382,0.885c2.425,1.311,2.095,3.619,0.75,5.217c4.717-1.473,9.606-2.088,14.547-2.455
	c1.683-9.922,0.542-20.555-1.063-30.373c-0.778-4.764-1.741-9.525-2.915-14.238c-0.994-3.988-2.157-7.938-3.487-11.822
	c-1.445-4.221-3.083-8.369-4.985-12.391c-5.142-10.863-12.313-22.344-23.285-28.133c-2.968-1.564-7.714,0.666-10.729,1.604
	c-0.86,0.268-1.729,0.541-2.599,0.818C110.308,269.057,107.416,270.063,104.685,271.329z M77,425.571
	c3.798,1.352,7.696,2.826,11.662,3.648c0.255-0.098,0.506-0.16,0.704-0.158c0.24,0.002,0.482-0.033,0.725-0.086
	c-0.331-0.67,0.839-1.711,1.866-1.525c0.253,0.047,0.507,0.08,0.76,0.123c1.854-1.496,3.548-3.76,4.613-5.045
	c2.543-3.066,4.896-6.287,7.127-9.588c4.659-6.887,8.915-14.023,13.295-21.088c4.773-7.695,10.188-15.785,17.28-21.523
	c2.647-2.145,4.479-3.152,7.693-4.068c3.979-1.135,3.875-5.514-0.416-5.85c-0.71-0.057-1.415-0.049-2.116-0.014
	c-0.223,0.938-2.269,1.516-2.752,0.664c-0.052-0.092-0.113-0.166-0.167-0.252c-0.335,0.078-0.671,0.15-1.003,0.25
	c-1.712,0.508-2.021-0.715-0.326-1.217c0.155-0.047,0.314-0.092,0.474-0.135c-2.805-2.869-7.489-1.883-10.563,0.621
	c0.02,0.295-0.201,0.619-0.803,0.887c-13.32,5.912-27.965,11.744-39.666,20.482c-12.4,9.26-19.116,22.771-20.74,37.967
	c0.042,0.043,0.083,0.082,0.118,0.133C66.868,422.874,73.694,424.393,77,425.571z M137.573,474.225
	c4.926-3.051,7.667-8.305,9.821-13.508c6.039-14.59,12.014-30.018,12.694-45.955c-21.17,10.748-43.263,18.813-67.569,14.947
	c-5.008,9.055-12.189,23.436-8.176,33.631c1.062,2.697,2.912,4.74,5.244,6.309c2.886,1.939,6.516,3.148,10.345,3.938
	c6.235,1.281,12.985,1.461,17.862,1.912C124.135,476.083,131.813,477.792,137.573,474.225z M228.889,383.114
	c0.708-0.447,1.939-0.605,2.288-0.26c5.41-0.713,10.619-2.158,15.319-5.678c0.313-0.232,0.729-0.328,1.128-0.318
	c1.648-1.934,2.501-4.375,3.034-6.9c0.001-0.006,0.006-0.012,0.007-0.02c-0.126-0.023-0.254-0.043-0.372-0.104
	c-0.599-0.303-0.189-0.945,0.243-1.176c2.979-1.58,4.031-4.344,1.563-6.967c-0.206-0.219-0.169-0.451,0.006-0.664
	c-0.293-0.334,0.053-0.844,0.428-1.049c2.399-1.314,3.148-4.045,2.855-6.611c-0.872,0.512-1.549,0.865-1.688,0.941
	c-1.049,0.594-3.556-0.088-1.85-1.053c0.299-0.168,7.22-4.307,4.315-4.482c-1.885-0.113-3.773,0.031-5.642,0.295
	c-3.125,0.439-6.582,1.836-9.731,1.773c-6.056-0.121-8.368-9.59-14.057-8.945c-12.999,7.672-24.752,16.656-39.716,20.133
	c-7.489,1.736-15.431,1.717-23.23,2.258c-0.524,0.15-1.109,0.203-1.464,0.104c-2.105,0.168-4.195,0.4-6.262,0.721
	c-0.941,0.145-1.877,0.313-2.807,0.504c-3.15,0.646-6.232,1.561-9.194,2.943c-1.11,0.521-2.334-0.199-1.967-0.943
	c-0.792,0.225-1.545,0.512-2.18,0.99c-3.272,2.469-6.284,5.223-8.89,8.398c-3.667,4.471-7.115,9.164-10.165,14.08
	c-5.707,9.203-11.123,18.658-17.653,27.314c-2.137,2.834-4.943,6.895-8.342,9.518c13.997,2.002,27.949,0.293,41.308-4.523
	c2.773-1,5.563-2.094,8.352-3.236c3.942-1.617,7.876-3.363,11.755-5.246c1.301-0.631,2.589-1.285,3.875-1.943
	c0-0.043,0.004-0.086,0.005-0.129c0.012-0.777,1.61-1.25,2.427-1.129c4.826-2.563,9.516-5.309,13.945-8.223
	c9.733-6.406,18.883-14.902,30.391-18.01C214.044,383.557,221.607,383.823,228.889,383.114z M258.433,462.235
	c1.405-7.68-0.93-15.918-2.42-23.426c-3.83-19.293-9.539-39.729-8.424-59.586c-0.164,0.045-0.33,0.074-0.498,0.082
	c-1.528,1.02-3.083,1.842-4.66,2.51c-1.335,0.566-2.688,1.02-4.055,1.391c-2.317,0.627-4.674,1.014-7.059,1.271
	c0.455,14.264,0.274,28.553,0.503,42.82c0.23,14.264-0.352,29.27,2.172,43.379c0.336-0.197,0.735-0.314,1.124-0.258
	C243.157,471.594,256.475,472.938,258.433,462.235z M312.84,416.024c5.442-10.557,8.198-22.525,13.724-33.049
	c-0.137-0.268-0.271-0.535-0.408-0.803c-0.328-0.646,0.646-1.234,1.57-1.309c0.486-0.848,0.987-1.686,1.518-2.508
	c5.671-8.775,9.34-18.723,18.63-24.441c0.09-0.057,0.192-0.098,0.301-0.135c3.654-2.777,7.373-5.438,9.907-9.467
	c2.96-4.709,5.339-10.783,9.682-14.422c3.25-2.725,12.241-7.461,10.129-12.721c-2.154-5.361-9.762,1.816-12.375,3.736
	c-0.045,0.033-0.098,0.063-0.15,0.092c-0.662,0.748-1.284,1.475-1.831,2.178c-0.515,0.66-2.97,0.699-2.851,0.543
	c0.731-0.939,1.596-1.924,2.521-2.943c-0.061-0.203,0.063-0.467,0.498-0.785c0.229-0.17,0.463-0.348,0.701-0.529
	c4.806-5.25,10.386-11.438,7.936-18.145c-6.918,2.854-10.501,11.34-15.426,16.492c-0.1,0.104-0.311,0.201-0.57,0.287
	c-0.715,0.672-3.251,0.881-2.578-0.166c2.291-3.568,4.866-6.943,7.07-10.572c1.729-2.848,6.122-8.813,4.646-12.447
	c-2.187-5.385-10.018,7.615-11.09,9.469c-1.927,3.324-3.543,7.064-5.937,10.088c-0.14,0.176-0.425,0.324-0.761,0.434
	c-0.787,1.305-1.444,2.357-1.858,3.029c-0.753,1.223-3.437,0.629-2.453-0.961c2.562-4.152,4.853-8.551,6.806-13.021
	c0.996-2.279,5.959-12.117,2.719-14.172c-5.491-3.482-15.258,22.111-16.901,25.877c-0.114,0.262-0.331,0.461-0.592,0.604
	c0.034,0.336,0.056,0.67,0.108,1.008c0.822,5.229,2.197,10.25,2.06,15.584c-0.034,1.359-2.981,1.76-2.94,0.201
	c0.222-8.611-2.896-16.324-1.756-25.023c0.332-2.525,0.723-5.326,0.237-7.855c-0.922-4.803-4.711-0.164-5.915,2.361
	c-5.322,11.156-7.105,25.703-6.634,38.021c0.239,0.24,0.258,0.584-0.155,1.014c-8.173,8.467-17.793,15.604-26.668,23.303
	c-5.202,4.512-10.418,9.061-15.202,14.021c-3.058,3.172-6.668,6.666-8.172,10.912c-0.122,0.346-0.43,0.59-0.799,0.736
	c-1.494,3.74-2.587,7.695-3.918,11.391c-2.443,6.779-5.285,13.293-9.7,19.041c-0.123,0.16-0.36,0.295-0.643,0.398
	c0.032,0.148,0.063,0.297,0.095,0.445c0.012,0.012,0.027,0.021,0.038,0.033c7.922,9.33,13.848,21.723,28.567,19.246
	C296.863,438.934,307.126,427.106,312.84,416.024z M350.022,429.247c-7.311-14.42-14.621-28.84-21.933-43.258
	c-0.649,1.334-1.269,2.688-1.831,4.078c-5.382,13.334-9.379,27.145-19.004,38.217c-0.346,0.395-0.704,0.791-1.063,1.184
	c0.369-0.129,0.709-0.221,0.869-0.221C321.382,429.247,335.702,429.247,350.022,429.247z M384.889,429.247
	c-0.021-0.043-0.043-0.086-0.065-0.129c-7.906-15.596-15.813-31.191-23.721-46.785c-10.377,0-20.754,0-31.131,0
	c-0.076,0.141-0.154,0.279-0.23,0.422c7.771,15.324,15.541,30.65,23.313,45.975c0.068,0.135,0.079,0.266,0.047,0.391
	c-0.011,0.043-0.031,0.086-0.052,0.127C363.661,429.247,374.274,429.247,384.889,429.247z M431.196,429.247
	c-7.93-15.641-15.858-31.277-23.787-46.914c-14.338,0-28.678,0-43.016,0c7.84,15.465,15.682,30.932,23.524,46.396
	c0.091,0.182,0.077,0.355-0.005,0.518C402.341,429.247,416.769,429.247,431.196,429.247z M466.062,429.247
	c-0.021-0.043-0.043-0.086-0.066-0.129c-7.906-15.596-15.813-31.191-23.721-46.785c-10.524,0-21.049,0-31.574,0
	c7.842,15.465,15.684,30.932,23.525,46.396c0.068,0.133,0.079,0.266,0.047,0.389c-0.011,0.045-0.031,0.086-0.052,0.129
	C444.834,429.247,455.448,429.247,466.062,429.247z M504.43,429.247c-7.929-15.641-15.858-31.277-23.786-46.914
	c-11.693,0-23.386,0-35.078,0c7.842,15.465,15.684,30.932,23.525,46.396c0.091,0.182,0.077,0.355-0.005,0.518
	C480.868,429.247,492.649,429.247,504.43,429.247z M539.295,429.247c-0.021-0.043-0.043-0.086-0.065-0.129
	c-7.906-15.596-15.813-31.191-23.722-46.785c-10.524,0-21.049,0-31.573,0c7.842,15.465,15.684,30.932,23.524,46.396
	c0.067,0.133,0.078,0.266,0.047,0.389c-0.011,0.045-0.03,0.086-0.052,0.129C518.067,429.247,528.682,429.247,539.295,429.247z
	 M335.659,228.592c-0.364-0.172-0.479-0.49-0.008-0.961c28.887-28.885,57.771-57.77,86.656-86.656
	c0.25-0.25,0.713-0.398,1.184-0.447c0.533-0.111,1.07-0.084,1.345,0.189c28.885,28.887,57.771,57.771,86.655,86.656
	c0.315,0.314,0.102,0.672-0.322,0.947c0.458,0.129,0.662,0.43,0.152,0.938c-28.771,28.771-57.539,57.539-86.31,86.309
	c-0.185,0.779-2.135,1.412-2.851,0.697c-28.885-28.885-57.771-57.77-86.655-86.654C335.155,229.26,335.298,228.885,335.659,228.592z
	 M338.034,228.264c0.047,0.031,0.095,0.063,0.134,0.104c28.526,28.525,57.054,57.053,85.581,85.58
	c28.41-28.41,56.82-56.82,85.23-85.23c0.014-0.014,0.033-0.025,0.049-0.039c-0.084-0.037-0.16-0.082-0.222-0.143
	c-28.507-28.508-57.014-57.018-85.522-85.523C394.868,171.43,366.45,199.846,338.034,228.264z" fill="#231f20"></path>
</svg>