<?xml version="1.0" encoding="utf-8"?>
<!-- Generator: Adobe Illustrator 25.4.1, SVG Export Plug-In . SVG Version: 6.00 Build 0)  -->
<svg version="1.1" id="Layer_1" xmlns="http://www.w3.org/2000/svg" xmlns:xlink="http://www.w3.org/1999/xlink" x="0px" y="0px"
	 viewBox="0 0 595.3 595.3" style="enable-background:new 0 0 595.3 595.3;" xml:space="preserve">
<style type="text/css">
	.st0{fill:#761214;}
	.st1{fill:#231F20;}
</style>
<path id="color_x5F_2" class="st0" d="M328.4,144.6l14.4-2.7c0,0-0.3,0.2-0.9,0.5c-3.9,0.6-7.9,1.3-11.8,2
	C329.6,144.4,329,144.5,328.4,144.6z M315.9,147.8c-4.2,1.8-9.1,3.9-12.3,7c-1.4,1.4-0.9,2,0.9,2.3c4.4,0.7,8.4-1,12.3-2.8
	c4.3-1.9,8.4-4.1,12.6-6.2c2.1-1,4.3-2,6.5-2.9c1.2-0.6,2.3-1.2,3.2-1.7c-1.8,0.3-3.6,0.6-5.4,0.9
	C328.2,145.6,321.6,146,315.9,147.8z M308.7,158.7c1.7,0.2,3.3,0,4.2-0.7c0.3-0.2,0.8-0.5,1.4-1c-1.4,0.6-2.9,1-4.4,1.5
	C309.7,158.6,309.3,158.6,308.7,158.7z M316.3,140.5c0,0,0.1,0,0.1,0c6.1-5.1,15.6-5.4,23.1-5.9c11.4-0.7,22.8-1.9,34.2-1.9
	c0.2,0,0.4,0,0.5,0.1c2.7-4.1,7.6-10.1,5.5-14.3c-2.5-5.1-13.3-1.6-17.6-1.2c-0.5,0-0.8,0-1-0.2c-13.8-2.2-28.8-5.9-42.6-2.7
	c-5.6,1.3-17.5,7-13.5,14.9C307.4,134,312,137.6,316.3,140.5z M505.1,444.9c-4.7-13.4-9.8-27.2-12.2-41.3c-1.1,0.5-2.1,1.1-3.2,1.6
	c-0.1,0-0.2,0.1-0.3,0.1c-3.6,1.8-7.1,3.6-10.2,6.2c6.4,19.6,10.6,39.9,16.3,59.8c6.4,0,12.9,0,19.3,0
	C511.5,462.6,508.2,453.7,505.1,444.9z M499.6,418.7c1.4,4.8,3,9.6,4.6,14.3L499.6,418.7z M458.3,463.9c-2.9-5-5.7-10-8.6-15l7.1,15
	c0,0,0,0-0.7,0.4C456.8,464.2,457.5,464.1,458.3,463.9z M444.4,427.4l-2.9,1.8c0.1,0,0.1,0,0.2,0.1
	C442.6,428.7,443.5,428.1,444.4,427.4z M439.6,477.4c0.6-1.2,1.4-2.4,2.2-3.5C440.5,475.3,439.9,476.5,439.6,477.4z M475.2,408.8
	C475.2,408.8,475.1,408.8,475.2,408.8c-1.3,0.8-2.5,1.5-3.7,2.3c0.1,0.1,0.1,0.3,0.2,0.4c0.5,1-1.6,1.8-2.6,1.1
	c-7.1,4.6-14.1,9.3-21,14.2c-0.1,0.6-0.9,1.1-1.7,1.2c-1.3,0.9-2.6,1.8-3.9,2.7c6.3,11.1,12.7,22.1,19,33.2c0.1,0.1,0.1,0.1,0.1,0.2
	c0,0,0,0.1,0.1,0.1c0.2,0.3-0.4,0.7-1.1,0.9c-0.3,0.2-0.6,0.3-0.9,0.3c-8.2,0.3-15.5,6.8-18.3,14.3c0.3-0.1,0.5-0.1,0.6-0.1
	c17.6,0,35.2,0,52.8,0c-7.1-23.1-11.6-47-19.3-69.9C475.4,409.3,475.3,409,475.2,408.8z M422,299.3l0.1,0.1
	C422.1,299.4,422.1,299.3,422,299.3C422,299.3,422,299.3,422,299.3z M434.3,305.9c0-0.1,0.1-0.2,0.2-0.3c-0.3,0.1-0.6,0.2-1,0.3
	H434.3z M469.5,282.3c5.6-4.9,11.2-10,16-15.7c1-1.2,6.2-6.7,5.2-9.1c-7.9-3.7-14.4-11.2-20.4-17.3c-8.5-8.7-16.8-17.8-24.5-27.2
	c-7.1-8.7-12.5-18.7-20.2-26.9c-10.6-11.3-23.7-17.9-39.2-19c-1.8-0.1-0.7-2,0.6-2.2c-1.5-0.8-3-1.5-4.5-2.2
	c-5.8,8.6-13.4,16-20.4,23.6c0.4,2.1,1.2,4.1,2.3,5.9c0.5,0,0.8,0.2,0.8,0.6c-0.4,6.3,1.6,11.7,4.8,16.7c-0.4-2.4-0.6-5-0.5-7.7
	c0-1.2,3-1.7,2.9-0.3c-0.5,12.7,5.9,21.9,12.6,32.1c6.6,10,8.4,22.5,15.5,32.1c1-0.3,2.5-0.3,2,0.3c-8.1,9.3-10.2,21.9-12.9,33.8
	c0,0,0,0,0,0c6,7.2,14.9,10.7,24,11.7c2.6-5.4,5.3-10.8,7.6-16.3c0-0.1,0-0.1,0-0.1c-0.1-0.3,0.1-0.6,0.4-0.8
	c2.2-5.4,4-10.8,5.1-16.5c1.4-7,1.9-14.2,0.3-21.2c-1.1-4.9-3-9.5-4.7-14.3c-3.6-10-7.2-20.1-11.7-29.7c-4-8.4-8.8-18-17-23
	c-1.2-0.7,1.5-1.9,2.3-1.4c8.1,4.9,13,14.1,17,22.4c4.8,10,8.5,20.5,12.3,30.9c2.1,5.8,4.6,11.4,5.2,17.6c0.7,6.7,0.4,13.4-1.2,19.9
	c-1.3,5.3-3.1,10.4-5.1,15.4c0.8,3.8,1.6,7.6,3.8,10.7c0,0,0,0,0,0c7,0.9,14.7-3.9,20.4-7.4C455.8,293.3,462.8,288,469.5,282.3z
	 M388.8,303c-0.4,1.6-0.8,3.3-1.3,4.9c4.2,3.1,9.4,7.3,14.9,9.5c0.2,0.1,0.5,0.1,0.7,0.2c0.1,0,0.3,0.1,0.4,0.1
	c2.3,0.6,4.4,1,5.9,1.3c0.3,0,0.5,0,0.8,0c0-0.1,0-0.3,0.1-0.4c1-2,1.9-4.1,2.9-6.1c-0.5,0.2-1.1,0.4-1.3,0.3
	C403.3,311.9,395,309,388.8,303z M388.1,311.5c0.8,0.8,1.9,1.7,3.5,2.5c0.3,0.2,0.6,0.3,1,0.5c-1.5-1-3-2-4.5-3.1
	C388.1,311.4,388.1,311.4,388.1,311.5z M437,305.1l1.9-1.1c-0.8,0.3-1.5,0.6-2.3,0.9C436.8,305,436.9,305,437,305.1z"/>
<path id="color_x5F_1" class="st1" d="M332.8,161.1c-1.3-1-2.2-2.4-2.7-3.9c-0.4-1.1,2.5-1.9,2.9-0.8c0.4,1.2,1,2.5,2.1,3.2
	C336.3,160.5,333.6,161.7,332.8,161.1z M345.3,169c-3.1,0.6-5.5,2.4-6.1,5.6c0,0.2,2.7,0.1,2.9-0.8c0.2-1.3,1.1-3.6,2.6-3.9
	c0.5-0.1,1.4-0.3,1.7-0.8C346.7,168.8,345.4,169,345.3,169z M328.9,151.2c-0.6,0-1.5,0.2-1.9,0.8c-0.7,1.1-1.2,2.4-2,3.6
	c-0.4,0.6,0.3,0.8,0.8,0.8c0.6,0,1.5-0.2,1.9-0.8c0.7-1.1,1.2-2.4,2-3.6C330.1,151.5,329.4,151.2,328.9,151.2z M385.6,480.1
	c-2.3-1.3-4.4-1.5-6.6,0.1c-0.6,0.4-1.3,0.7-2,0.5c-0.6-0.1-0.8-0.7-0.3-1.1c0.1-0.1,0.1-0.1,0.2-0.2c-0.2,0-0.3-0.1-0.4-0.2
	c-4.7-5.5-11.1-7.3-18.1-5.8c-1.7,0.4-2.2-1.1-0.4-1.4c1-0.2,2.1-0.4,3.1-0.5c-0.2-0.1-0.2-0.3-0.1-0.6c1.6-2.8,2.2-7-1.3-8.7
	c-3.3-1.6-6.1,0.6-7.2,3.8c0,0.1-0.1,0.1-0.1,0.2c0.7,0.5,1.2,1.1,1.8,1.8c0.9,1.1-1.9,2.2-2.7,1.2c-4.6-6.1-16.5-2-17.5,5.2
	c-0.1,0.7-1.1,1.2-1.9,1.1c-0.3,0.1-0.7,0.1-1,0c-4-1.5-7.5,0.4-9.9,3.6c-0.5,0.6-1.5,0.7-2.1,0.5c-0.5,0.4-1.3,0.6-1.8,0.5
	c-3.4-0.9-6.5-1.1-9.5,0.8c-1,0.6-3.5,0.1-1.8-0.9c1.5-0.9,3-1.5,4.5-1.9c-1.8-5.2-5.6-9.3-11.6-8.5c-0.3,0-0.5,0.1-0.7,0
	c-0.3,1.3-3.2,1.6-2.9,0.1c1.6-8.7-10.1-16.2-17.2-10.7c-1.2,0.9-3.5-0.2-1.9-1.4c1.1-0.8,2.2-1.4,3.5-1.8c-0.7,0.2-1.4,0.2-1.5-0.1
	c-5.4-12.3-19.6-6.6-24,3.5c0,0.1-0.1,0.1-0.1,0.2c-0.5,0.5-1.9,1-2.5,0.7c-5.2-2.6-10.1,1.4-11.7,6.3c-0.2,0.7-2,1.1-2.7,0.8
	c-0.8,0.4-2.1,0.6-2.3,0.2c0-0.1-0.1-0.1-0.1-0.2c-7.9,0.8-14,8.5-17.1,15.3c-0.1,0.2-0.5,0.4-0.9,0.5c-0.3,0.4-1.8,1-2.2,1
	c-0.8,0-1.5,0-2.3,0c-8.3,0-16.7,0-25,0c-0.2,0-0.3,0-0.5,0c-37.8,0-75.6,0-113.5,0c-1.4,0,1.2-1.2,1.9-1.2c6.3,0,12.6,0,19,0
	c-1.6-4.2-1.1-9.2-0.4-13.6c1.4-8.6,4.3-17,7.8-24.9c8.5-19.3,19.6-38.7,35.5-52.8c15.2-13.4,33.1-25.1,52.3-32
	c12.2-4.4,27.5-7.5,40.2-3c0.6-0.3,1.4-0.5,1.8-0.3c10.6,4.7,23.1,11,30.2,20.4c5.5,7.2,4.5,17.1,2.3,25.4
	c-3.1,11.4-8.6,21.8-14.2,32.1c5.5-2.7,11-5.4,16.5-8c11.2-5.3,22.6-10.6,34.5-14.2c0.4-0.4,1.8-0.9,2.5-0.8c4.5-1.4,14-4.3,16.9,0
	c1.8,2.6,5,7.8,3.4,11.2c-1.6,3.3-5.3,5.5-8.4,7.3c-0.7,0.4-1.4,0.8-2.1,1.2c0,0,0,0.1,0.1,0.1c0.1,0.4-1.1,0.9-2,1
	c-5.4,3.1-10.8,6.3-16.3,9.3c-5.7,3.1-12,5.3-17.8,8.3c1.6,1.2,2.9,2.9,3.9,5.3c0.1,0.2-0.5,0.6-1.2,0.8c8.5-2.7,19.9,3.5,18.6,13.2
	c0.3-0.2,0.7-0.4,1.1-0.4c3.1-0.4,6.6-0.4,9.2,1.5c2.6,1.9,4,4.6,4.9,7.6c1.7,0,3.4,0.2,5.2,0.6c0,0,0.1-0.1,0.1-0.1
	c3-4,7.8-6.3,12.6-5.1c2.2-6.8,12.1-10.8,18.8-8.2c1.9-3.6,6.1-5.9,10.2-4.7c5.2,1.5,5.7,6.5,3.3,10.8c-0.1,0.2-0.3,0.3-0.5,0.4
	c6.1-0.2,11.7,1.7,16,6.7c0,0,0,0,0,0c2.8-1.2,5.8-1.2,8.7,0.4C389.2,479.4,386.5,480.6,385.6,480.1z M303.8,412.2
	c2.5,6.2,6.3,11.8,8.8,18c3.8-2.1,8.9-5.1,8.4-9.1c-0.3-2.8-2-7.6-4.3-9.4c-2.3-1.7-5.7-1.1-8.3-0.6
	C306.8,411.4,305.3,411.8,303.8,412.2z M288.3,417.6c0.1,0,0.1,0.1,0.2,0.2c2.7,7.2,6.8,13.7,9.5,20.9c0,0,0,0.1,0,0.1
	c4-2.3,8-4.8,11.8-7.1c0,0,0.1-0.1,0.1-0.1c-2.6-6.4-6.5-12.2-9.1-18.6c-2.3,0.7-4.7,1.6-6.9,2.4
	C292.1,416.2,290.2,416.9,288.3,417.6z M273.5,423.9c0.1,0,0.2,0.1,0.2,0.2c2.8,7.4,6.6,14.3,9.4,21.6c2.2-1,4.5-2,6.7-2.9
	c2.3-0.9,4.5-2,6.7-3.2c-0.7,0.2-1.3,0.2-1.4-0.1c-2.7-7.1-6.8-13.6-9.5-20.7C281.6,420.4,277.5,422.1,273.5,423.9z M251.6,425.6
	c-4.8-2.1-10.1-2.9-14.6-5.8c-2,4-4.1,7.9-6.1,11.8c0.1,0,0.3,0.1,0.4,0.2c3.7,2.8,8.3,3.7,12.4,5.6c1.3-0.6,2.5-1.3,3.8-1.9
	c-0.6,0-1-0.3-0.7-0.9C248.4,431.6,250,428.6,251.6,425.6z M241.1,438.7c-3.8-1.7-7.9-2.7-11.4-4.9c-2.5,4.8-5,9.6-7.2,14.5
	c0.9-0.5,1.8-0.9,2.7-1.4c0,0,0-0.1,0-0.1c-0.1-0.4,1.3-1,2.2-1C232,443.4,236.6,441,241.1,438.7z M258.8,409.8c-0.3,0-0.5,0-0.7,0
	c-4.7-2.1-9.8-2.9-14.2-5.5c-0.5,1.4-1.1,2.8-1.6,4.1c-1.3,3.2-2.7,6.3-4.3,9.4c0.3,0,0.7,0,0.9,0.1c4.2,2.9,9.2,3.8,13.8,5.6
	C254.9,419.1,257.1,414.5,258.8,409.8z M262.3,395.5c-0.2,0-0.3,0-0.4-0.1c-4.7-2.1-9.8-2.9-14.2-5.5c-0.6,4.1-1.7,8.1-3,12
	c0.1,0,0.1,0.1,0.2,0.1c4.4,3,9.7,3.9,14.6,5.9c0.6-1.8,1.1-3.6,1.5-5.4C261.5,400.3,262,397.9,262.3,395.5z M240.7,363.7
	c6.6,6.5,8.2,15.2,7.3,23.9c0.3,0,0.5,0,0.7,0.1c4.2,2.9,9.2,3.8,13.9,5.6c0.5-6.1-0.5-12.1-4.9-16.8
	C252.9,371.4,247,367.2,240.7,363.7z M97.2,482.6c0,0.1,0,0.2-0.2,0.4c19.4,0,38.8,0,58.1,0c0.2-0.1,1.9-0.7,2.5-0.9
	c1.7-0.8,3.5-1.6,5.2-2.4c5.2-2.5,10.4-5.2,15.6-7.9c5.6-2.9,11.2-5.9,16.8-8.9c0-0.1,0-0.1-0.1-0.2c-0.2-0.4,1.4-1,2.3-1
	c7.3-3.9,14.5-7.7,21.8-11.6c8.8-20.4,24.1-39.8,26-62.6c0.7-8.3-0.9-17.2-7.4-23c-7.8-6.9-18.7-9.6-28.9-8.5
	c-22.6,2.4-44.4,15.5-61.9,29.4c-7.1,5.7-14.3,11.8-19.8,19.1c-8,10.6-14.9,22.5-20.5,34.4c-4.1,8.7-7.9,17.9-9.7,27.5
	C96.1,471.5,95.2,477.6,97.2,482.6z M186,483c-1.8-3.7-4.1-7.2-5.6-11c-3,1.6-6,3.1-9.1,4.7c-3.7,1.9-8.1,4.7-12.5,6.4
	C167.8,483,176.9,483,186,483z M204.4,483c-2.6-6.6-6.2-12.6-8.8-19.1c-4.2,2.2-8.4,4.5-12.6,6.7c1.7,4.4,4.3,8.2,6.3,12.4
	C194.3,483,199.4,483,204.4,483z M221.1,474c-0.5,0.1-0.9,0-1.3-0.1c0,0-0.1,0-0.1,0.1c0,0,0-0.1,0-0.1c0,0,0,0,0,0
	c-1.5-0.8-2.3-3.4-3-4.8c-2.3-4.2-4.5-8.6-6.3-13.1c-1,0.5-1.9,1-2.9,1.6c-3.1,1.6-6.2,3.3-9.3,5c2.7,6.9,6.7,13.3,9.3,20.3
	c0,0.1,0,0.1-0.1,0.2c2.2,0,4.5,0,6.7,0c0.3,0,0.5,0,0.8,0C216.5,479.7,218.6,476.6,221.1,474z M234.4,466.6
	c-2.6-6.4-6.1-12.4-8.7-18.8c-1.2,0.7-2.5,1.3-3.7,2c-0.2,0.2-0.6,0.4-1,0.5c-2.6,1.4-5.3,2.8-7.9,4.2c0,0,0,0,0,0
	c1.5,4,3.4,7.8,5.3,11.5c1,1.9,2.2,5.2,3.9,6.8C225.7,469.7,229.8,467.4,234.4,466.6z M249.9,458.1c-1.6-1.7-2.8-4.8-3.8-6.8
	c-2-3.7-4-7.4-5.5-11.3c-4.1,2.1-8.2,4.3-12.2,6.4c2.6,6.7,6.3,12.9,9,19.6C239.5,461.2,244.7,457.7,249.9,458.1z M252,458.4
	c0.1-0.2,0.2-0.3,0.3-0.5c-0.3,0.1-0.6,0.2-0.9,0.3C251.5,458.3,251.7,458.4,252,458.4z M276,449.2c1.5-0.8,3-1.5,4.5-2.3
	c0,0,0,0,0-0.1c-2.8-7.4-6.6-14.4-9.5-21.9c-4.3,2-8.6,4-12.9,6.1c0.1,0,0.2,0.1,0.2,0.2c2.1,5.5,5.1,10.6,7.2,16.1
	c0.2,0.5-2.6,1.5-2.9,0.8c-2-5.4-5-10.4-7-15.8c-3.6,1.8-7.2,3.6-10.9,5.5c0.1,0,0.1,0.1,0.2,0.1c0.9,0.5-0.3,1.2-1.3,1.5
	c1.5,3.8,3.5,7.5,5.5,11.1c1,1.8,2.2,4.9,3.6,6.5c0.1,0,0.2,0.1,0.2,0.2C257.8,449.7,268.7,444.8,276,449.2z M520.4,481.4
	c-44.3,0-88.7,0-133,0c-2,0,0.2-1.5,1.2-1.5c16.7,0,33.3,0,50,0c0.3-0.8,0.7-1.7,1.1-2.4c0.6-1.2,1.4-2.4,2.2-3.5
	c3.5-4.7,8.6-8.1,14.2-9.5c0.7-0.2,1.5-0.3,2.2-0.4c-2.9-5-5.7-10-8.6-15c-3.3-5.8-6.6-11.6-9.9-17.3c-0.7,0-1.1-0.2-0.4-0.6
	c0,0,0,0,0,0c-0.1-0.2-0.2-0.4-0.4-0.6c-0.3-0.5,1.6-1.3,2.5-1.1c0.1,0,0.1,0,0.2,0.1c0.9-0.6,1.8-1.3,2.7-1.9
	c0.2-0.1,0.4-0.3,0.6-0.4c-3.6-5.6-7.1-11.3-10.5-17.1c-4.1-7.1-10-15.4-11.2-23.7c-1.9-13.2-0.4-26.9,1.8-40
	c2.3-13.6,5.5-26.9,9.1-40.2c0,0,0-0.1,0-0.1c0-0.1,0.1-0.2,0.2-0.3c-0.3,0.1-0.6,0.2-1,0.3c-2.1,0.5-4.3,0.8-6.5,0.7
	c-0.3,0.1-0.7,0.2-1,0.2c-8.6,15.1-15,31.7-21.9,47.5c-0.1,0.3-0.4,0.5-0.8,0.6c-0.5,0.2-1,0.4-1.4,0.2c-1.3-0.5-2.7-1-4-1.5
	c-1.3-0.3-4.3,4.2-5.2,4.9c-1.6,1.2-3.1,1.9-5.1,2c-2.8,0.2-6-1.7-8.6-2.7c-6.1,10.6-10.6,22.4-15.4,33.5
	c-3.9,8.8-7.7,17.7-11.5,26.6c-0.1,0.3-0.5,0.6-1,0.7c-0.4,0.2-0.9,0.2-1.3,0.1c-0.8-0.3-1.5-0.6-2.3-1
	c-9.4,18.9-13.3,41.3-29.4,56.1c-0.5,0.8-3.1,1.1-2.8,0.2c6.3-20.5,15.4-39.9,24.7-59.2c0-0.1,0.1-0.1,0.1-0.2
	c-0.9-0.4-1.9-0.8-2.8-1.2c-1.4-0.6,0-1.8,1.1-1.9c0,0,0,0,0,0c3.8-8.7,7.7-17.4,11.6-26c4.8-10.6,9.2-21.6,15-31.6
	c0.3-0.5,1-0.7,1.7-0.8c-4.6-1.6-11.5-3-12.8-8.4c-0.6-2.6-0.5-5.2,0.3-7.8c-2.2-0.8-4.3-1.6-6.5-2.5c-0.5-0.2-0.7-0.5-0.6-0.8
	c0-0.1,0-0.2,0.1-0.3c3.8-8.7,7.7-17.4,11.6-26c4.8-10.6,9.2-21.6,15-31.6c0.2-0.4,0.7-0.6,1.2-0.7c0.5-0.4,1.2-0.7,1.8-0.5
	c5.2,1.3,10,3.7,14.9,5.7c1.6-4.5,3.7-8.8,6.7-12.7c-0.1-0.1-0.2-0.1-0.3-0.2c-3.9-5-6.1-10.8-8.4-16.7c-2.5-6.6-5.4-12.6-9.2-18.5
	c-3.6-5.5-6.9-10.6-8.9-16.3c-0.2,0-0.4-0.1-0.6-0.2c-5.6-6.5-9.4-13.7-8.9-22.5c-0.4,0-0.7-0.1-0.8-0.3c-1.2-2-2-4.1-2.4-6.3
	c-0.1-0.2-0.1-0.5,0.2-0.8c1.2-1.2,2.3-2.5,3.5-3.7c-2.4-1.8-4-4.5-6.7-5.9c-3.6,4-8.3,7.6-13.8,7.6c-6.9,0.1-11.2-4.6-14.1-10.4
	c-1.9,0.4-4,0.5-5.3-0.8c-1.7-1.8-0.3-4.4,1-6.1c-0.4,0-0.6-0.1-0.7-0.4c-1.2-3.9-3.8-7-5.6-10.7c-1.1,0.5-2.2,1-3.3,1.4
	c-1.4,0.6-2.9,1-4.4,1.5c-0.3,0.1-0.7,0.1-1.3,0.2c-3.8,0.4-12.3,0.1-7.4-4.2c4-3.5,9.1-5.8,13.9-7.9c0-1.3,0-2.5,0-3.8
	c-0.1,0-0.2-0.1-0.3-0.1c-5.1-3.3-12.4-8.3-13.3-14.8c-0.8-5.5,4.9-10.8,9.4-12.9c15.6-7.4,35.4-2.3,51.7,0.3
	c3.7-0.3,7.4-1.2,11.1-1.2c2.4,0,6.4-0.1,8,2.2c4.1,6-3.3,13.6-5.9,18.6c-0.2,0.4-0.8,0.7-1.3,0.7c-0.2,1.6-0.5,3.2-0.9,4.8
	c1.9,5.2,3.3,10.6,3.8,16.2c0.2,0,0.4,0.1,0.5,0.2c1.5,2.3,5,3.7,7.4,4.9c2.2,1.1,4.7,2.1,6.7,3.7c12.5,1.8,24,7.3,33.2,16.4
	c8.3,8.2,13.7,18.2,20.9,27.2c7.4,9.2,15.3,18,23.5,26.6c6.6,6.9,14.1,16.1,23,20.1c0.4,0.2,0.6,0.4,0.6,0.7
	c1.8,2.2-1.9,6.7-4.2,9.3c0.4,0.1,0.6,0.3,0.7,0.7c1.1,11,3.4,23.2,0.9,34.2c-2.5,10.9-8.7,21.1-13.5,31.1c-2.4,5-5.1,10-7.5,15.1
	c-0.7,1.4-1.3,2.9-2,4.3c-0.5,1.3-1.1,2.5-1.5,3.8c0.5,0,0.9,0.1,0.9,0.4c2.6,18.4,15.4,32.2,22.9,48.7c0.9-0.5,1.9-1,2.8-1.5
	c0,0,0,0,0,0c0-1,2.7-1.6,2.9-0.7c0.9,5.8,2.3,11.5,4,17.2c1.4,4.8,3,9.6,4.6,14.3c1.3,3.7,2.6,7.4,3.9,11
	c3.2,9.2,6.6,18.4,10.1,27.5c0,0.1,0,0.1,0.1,0.2c0,0,0,0.1,0,0.1c0.2,0.5-0.5,0.9-1.2,1.1c-0.3,0.1-0.5,0.2-0.8,0.2
	c-6.7,0-13.5,0-20.2,0c0.6,2.1,1.2,4.3,1.9,6.4c0,0.1,0,0.2-0.1,0.2c7.9,0,15.8,0,23.7,0C523.5,479.9,521.4,481.4,520.4,481.4z
	 M492.9,403.6c-1.1,0.5-2.1,1.1-3.2,1.6c-0.1,0-0.2,0.1-0.3,0.1c-3.6,1.8-7.1,3.6-10.2,6.2c6.4,19.6,10.6,39.9,16.3,59.8
	c6.4,0,12.9,0,19.3,0c-3.4-8.8-6.6-17.6-9.7-26.5C500.5,431.4,495.3,417.7,492.9,403.6z M470.8,409.7c1.2-0.8,2.5-1.5,3.7-2.3
	l-0.1-0.2L470.8,409.7C470.8,409.7,470.8,409.7,470.8,409.7z M349.7,141.1c5.3-1.2,10.7-2,16.2-2.4c0,0,0.1,0,0.1,0
	c1.7-0.1,3.3-0.2,5-0.2c0.1,0,0.1-0.1,0.2-0.1c0.2-1.2,0.4-2.3,0.6-3.5c-10.1,0.1-20,1.1-30.1,1.7c-7.5,0.4-17.4,0.2-23.4,5.3
	c0,0-0.1,0.1-0.1,0.1c0,1.4,0,2.8,0,4.2c0,0.1,0,0.1,0,0.1c3.4-0.8,6.9-1.3,10.3-1.8c0.6-0.1,1.1-0.2,1.7-0.3
	c3.9-0.7,7.9-1.3,11.8-2C344.5,141.9,347.1,141.5,349.7,141.1z M305.1,129.3c2.3,4.7,6.9,8.4,11.3,11.2c0,0,0.1,0,0.1,0
	c6.1-5.1,15.6-5.4,23.1-5.9c11.4-0.7,22.8-1.9,34.2-1.9c0.2,0,0.4,0,0.5,0.1c2.7-4.1,7.6-10.1,5.5-14.3c-2.5-5.1-13.3-1.6-17.6-1.2
	c-0.5,0-0.8,0-1-0.2c-13.8-2.2-28.8-5.9-42.6-2.7C312.9,115.6,301.1,121.3,305.1,129.3z M368.9,140.1c0.6,0.1,1.1,0.1,1.6,0.2
	c0-0.1-0.1-0.2-0.1-0.3C369.9,140.1,369.4,140.1,368.9,140.1z M316.9,154.5c4.3-1.9,8.4-4.1,12.6-6.2c2.1-1,4.3-2,6.5-2.9
	c1.9-0.8,3.9-1.5,5.8-2.1c-0.9,0.1-1.7,0.3-2.6,0.4c-1.8,0.3-3.6,0.6-5.4,0.9c-5.7,1-12.4,1.4-18,3.2c-4.2,1.8-9.1,3.9-12.3,7
	c-1.4,1.4-0.9,2,0.9,2.3C309,158,313,156.2,316.9,154.5z M364.6,180.3c5.6-5.9,11.3-12,15.7-18.8c-1.5-0.8-3.1-1.6-4.3-2.8
	c-5.1,2.8-10.3,5.4-16.3,4.9c-1.1,0.6-2.4,0.9-3.7,0.9c-2,0.1-1.3-2,0.3-2c5-0.2,4.6-6.4,2-9.2c-1.2-1.3-3.5-2.7-5.4-1.8
	c-1.9,1-1.2,3.4-0.5,4.9c0.4,0.8-1,1.5-2,1.4l-0.3,0.5c0,0-0.2-0.1-0.4-0.3c-0.6,0.2-1.2,0.3-1.5,0c-4.2-3.2-9.2-5.7-11.4-10.7
	c-0.1-0.3,0-0.5,0.2-0.7c0,0-0.1-0.1-0.1-0.1c-5.7,2.2-11,5.3-16.5,8c1.7,3.8,4.6,7.1,5.8,11.2c0,0,0,0.1,0,0.1
	c0.4,0,1.1,0.1,0.7,0.6c-1,1.2-2.4,3.3-1.5,4.9c0.7,1.2,2,1.3,3.2,1c0.3-0.2,0.8-0.3,1.2-0.4c0.5-0.2,1.4-0.5,1.9-0.1
	c0.3,0.3-0.2,0.6-0.6,0.8c1.9,3.9,5,8.6,9.7,9.4c5.9,1,10.5-3.2,14-7.4c0.6-0.7,3.2-0.9,2.8-0.1
	C360.6,175.7,362.3,178.3,364.6,180.3z M413.2,312.5c-0.5,0.2-1.1,0.4-1.3,0.3c-8.6-0.9-16.9-3.8-23-9.8c-0.4,1.6-0.8,3.3-1.3,4.9
	c4.2,3.1,9.4,7.3,14.9,9.5c0.1,0.1,0.3,0.1,0.4,0.2c0.1,0,0.2,0,0.3,0c0.1,0,0.3,0.1,0.4,0.1c0.2,0.1,0.4,0.2,0.5,0.3
	c1.8,0.6,3.6,1,5.4,1c0.3,0,0.5,0,0.8,0c0-0.1,0-0.3,0.1-0.4C411.2,316.5,412.2,314.5,413.2,312.5z M380.4,331.4
	c3,1.6,6.4,1.2,7.4-2.5c1-3.6-1.9-5.4-5.2-5.1c-0.4,0-0.7,0-0.9-0.1c-4,1.7-6,4.3-1.8,7.6c0,0,0,0,0,0
	C380.1,331.3,380.3,331.3,380.4,331.4z M388.3,320.2c5,0.5,8.9,3.1,12.7-1.5c-2.9-1-5.8-2.6-8.4-4.3c-1.5-1-3-2-4.5-3.1
	c0,0,0,0.1,0,0.1c-0.2,0.4-0.7,0.9-1.5,0.9c-6.2,0.2-12.1,4.2-14.8,9.9c-2.4,5-1.3,9.7,4.8,9.8c-4-4-1.5-8.1,3.9-10.1
	C383,321,385.7,320,388.3,320.2z M345.3,417c-1-0.4-2-0.8-2.9-1.2c-8.5,17.7-16.8,35.6-22.9,54.3C332.6,455.2,336.4,434.3,345.3,417
	z M376.6,357c-2.9-1.1-5.8-2.2-8.6-3.3c0.1,0.1,0,0.3-0.1,0.6c-6,10.3-10.6,21.7-15.5,32.6c-3.8,8.3-7.5,16.7-11.2,25.1
	c-0.1,0.2-0.3,0.4-0.5,0.5c3.1,1.3,6.2,2.6,9.3,3.8c3.7-8.7,7.5-17.4,11.3-26.1C366.1,379.2,370.5,367.5,376.6,357
	C376.6,357.1,376.6,357,376.6,357z M395.3,352.6c-12.8-4.9-25.6-9.7-38.4-14.6c-0.7,2.8-0.7,6.2,1.2,8.3c2.4,2.6,6.2,3.4,9.4,4.6
	c3.2,1.2,6.5,2.5,9.7,3.7c2.7,1,10.1,5.3,12.8,3.2c1.6-1.2,2.6-2.8,4-4.2C394.5,353.3,394.9,352.9,395.3,352.6z M424.3,305.1
	c-1-1.8-1.7-3.7-2.2-5.6c0-0.1,0-0.1,0-0.2c0,0,0,0,0,0.1c-2.9,6.5-6.1,12.9-9.1,19.3c0,0.1-0.1,0.2-0.2,0.3c0.3,0.2-0.7,0.9-1.5,1
	c-2.6,0.4-5.1,0.2-7.6-0.4c-2.9,3.9-6.4,5.1-11.3,3.9c-1.5-0.4-2.9-0.6-4.3-0.7c0.8,0.3,1.5,0.8,2,1.6c1.1,1.6,1.1,3.5,0.3,5.3
	c-2,4.5-7.4,5.6-11.5,3.7c-0.4,0.1-0.8,0-1.1-0.2c0,0-0.1-0.1-0.1-0.1c-0.4,0.5-1.1,0.9-1.7,0.9c-6.8,0.1-10.1-4.8-7.1-11.1
	c3.3-7,10.4-12,18.2-12.2c0,0,0.1,0,0.1,0c-0.8-0.6-1.6-1.2-2.4-1.8c0,0,0,0,0,0c-0.1-0.1-0.1-0.2-0.1-0.3
	c2.5-8.3,3.8-17.4,6.5-25.8c-0.1,0-0.2,0-0.3-0.1c-4.8-1.9-9.5-4.3-14.5-5.7c-5.8,10.1-10.3,21.2-15.1,31.9
	c-3.6,8.1-7.3,16.2-10.8,24.3c16.4,6.2,32.8,12.4,49.2,18.6c0,0,0,0,0,0c0.2,0,0.3,0.1,0.4,0.1c0.7,0.3,1.3,0.5,2,0.8
	c6.8-15.8,13.2-32.2,21.8-47.1C423.9,305.4,424.1,305.2,424.3,305.1z M448.3,297.9c7.5-4.6,14.6-9.9,21.2-15.6
	c5.6-4.9,11.2-10,16-15.7c1-1.2,6.2-6.7,5.2-9.1c-7.9-3.7-14.4-11.2-20.4-17.3c-8.5-8.7-16.8-17.8-24.5-27.2
	c-7.1-8.7-12.5-18.7-20.2-26.9c-10.6-11.3-23.7-17.9-39.2-19c-1.8-0.1-0.7-2,0.6-2.2c-1.5-0.8-3-1.5-4.5-2.2
	c-5.8,8.6-13.4,16-20.4,23.6c0.4,2.1,1.2,4.1,2.3,5.9c0.5,0,0.8,0.2,0.8,0.6c-0.4,6.3,1.6,11.7,4.8,16.7c-0.4-2.4-0.6-5-0.5-7.7
	c0-1.2,3-1.7,2.9-0.3c-0.5,12.7,5.9,21.9,12.6,32.1c6.6,10,8.4,22.5,15.5,32.1c1-0.3,2.5-0.3,2,0.3c-8.1,9.3-10.2,21.9-12.9,33.8
	c0,0,0,0,0,0c6,7.2,14.9,10.7,24,11.7c2.6-5.4,5.3-10.8,7.6-16.3c0,0,0-0.1,0-0.1c-0.1-0.3,0.1-0.6,0.4-0.8c2.2-5.4,4-10.8,5.1-16.5
	c1.4-7,1.9-14.2,0.3-21.2c-1.1-4.9-3-9.5-4.7-14.3c-3.6-10-7.2-20.1-11.7-29.7c-4-8.4-8.8-18-17-23c-1.2-0.7,1.5-1.9,2.3-1.4
	c8.1,4.9,13,14.1,17,22.4c4.8,10,8.5,20.5,12.3,30.9c2.1,5.8,4.6,11.4,5.2,17.6c0.7,6.7,0.4,13.4-1.2,19.9
	c-1.3,5.3-3.1,10.4-5.1,15.4c0.8,3.8,1.6,7.5,3.8,10.7c0,0,0,0,0,0C434.9,306.2,442.6,301.4,448.3,297.9z M436.6,304.9
	c0.2,0,0.3,0.1,0.4,0.2c0,0,0,0,0.1,0.1c1-0.5,2.5-1.3,4.3-2.2c-0.8,0.4-1.6,0.7-2.5,1.1C438.1,304.4,437.4,304.7,436.6,304.9z
	 M441.4,479.6c0.3-0.1,0.5-0.1,0.6-0.1c17.6,0,35.2,0,52.8,0c-7.1-23.1-11.6-47-19.3-69.9c-0.1-0.3-0.2-0.5-0.3-0.8c0,0,0,0-0.1,0
	c-1.2,0.7-2.4,1.5-3.6,2.3c0.1,0.1,0.1,0.3,0.2,0.4c0.5,1-1.6,1.8-2.6,1.1c-7.1,4.6-14.1,9.3-21,14.2c-0.1,0.6-0.9,1.1-1.7,1.2
	c-1.3,0.9-2.6,1.8-3.9,2.7c6.3,11.1,12.7,22.1,19,33.2c0.1,0.1,0.1,0.1,0.1,0.2c0,0,0,0.1,0.1,0.1c0.2,0.3-0.4,0.7-1.1,0.9
	c-0.3,0.2-0.6,0.3-0.9,0.3C451.5,465.6,444.3,472.1,441.4,479.6z M106.7,476.8c-0.5-10.6,3.2-21.2,7-30.9
	c4.3-10.9,10-21.4,16.6-31.1c15-22.2,38.4-39,64-46.7c1.7-0.5,1.3-2.1-0.4-1.6c-25.7,7.7-48.4,23.9-64.4,45.5
	c-7.4,10-13.2,21.3-18,32.7c-4.3,10.3-8.2,21.6-7.7,32.9C103.9,478.6,106.8,478,106.7,476.8z M218.2,436.5
	c8.3-10.1,13.2-24.1,16.3-36.7c2.6-10.8,4.9-28.2-8.1-33.1c-0.8-0.3-3.4,0.9-2.3,1.3c12.9,5,9.8,22.9,7.3,33.4
	c-2.9,12-7.9,25.6-15.8,35.2C214.8,437.4,217.6,437.1,218.2,436.5z M320.6,389.6c-1.8-1.6,0.1-4.4,1.3-5.7c0.3-0.4,1-0.6,1.5-0.7
	c0.2-0.3,0.7-0.5,0.9-0.6c0.5-0.2,1.4-0.4,1.9-0.1c1,0.6,2,1.4,2.7,2.3c0.4,0.6,0.8,1.2,0.8,2c-0.1,1.6-1.6,2.6-2.9,3.1
	c-1.2,0.4-2.4,0.6-3.7,0.6C322.1,390.4,321.2,390.2,320.6,389.6z M322.8,387.2C322.8,387.2,322.8,387.2,322.8,387.2
	c0,0.2,0,0.3,0,0.4c0,0.2,0.1,0.4,0.2,0.6c0,0,0,0,0,0c0,0,0,0,0,0c0,0,0.1,0.1,0.1,0.1c0.1,0.1,0.1,0.2,0.2,0.2
	c0.1,0.1,0.2,0.1,0.3,0.2c0,0,0,0,0,0c0.1,0,0.1,0,0.2,0.1c0.1,0,0.2,0.1,0.3,0.1c0,0,0.1,0,0.1,0c0.2,0,0.4,0.1,0.5,0.1
	c0,0,0,0,0.1,0c0.1,0,0.2,0,0.3,0c0,0,0,0,0,0c0.1,0,0.2,0,0.2,0c0,0,0,0,0,0c0.1,0,0.1,0,0.2-0.1c0,0,0.1,0,0.1,0c0,0,0,0,0.1,0
	c0.1,0,0.1-0.1,0.2-0.1c0,0,0,0,0,0c0.1-0.1,0.2-0.1,0.2-0.2c0,0,0,0,0,0c0,0,0,0,0,0c0.1-0.1,0.2-0.2,0.3-0.4c0,0,0,0,0,0
	c0,0,0-0.1,0.1-0.1c0-0.1,0.1-0.1,0.1-0.2s0-0.2,0.1-0.2c0,0,0-0.1,0-0.1c0,0,0,0,0,0c0-0.4-0.1-0.8-0.3-1.2
	c-0.4-0.8-1.3-1.6-2.1-2.2c-0.2,0.3-0.5,0.6-0.7,0.9c-0.2,0.3-0.4,0.6-0.5,1c-0.1,0.3-0.2,0.6-0.3,0.9
	C322.8,387,322.8,387.1,322.8,387.2C322.8,387.2,322.8,387.2,322.8,387.2z M367.4,432.2c-1.9,1.7-2.9,4.1-1.2,6.3s5.2,1.6,7.2,0.5
	c2.1-1.1,5-3.2,3.8-5.9c-1.1-2.6-4.8-3.1-7.2-3.1c-1,0-3.1,1.4-1.2,1.5c1.9,0,3.8,0.5,5.1,1.9c1.3,1.4,0.5,3.1-0.8,4.1
	c-3.7,3.1-6.5-2.3-3.4-5C370.9,431.4,368,431.6,367.4,432.2z M372.6,399.2c-4.7,7.5,7.3,11.1,11.8,6c2.7-3.1,1.2-6.7-2.3-8.1
	c-3.1-1.2-7.1-1.2-10.2,0c-1.9,0.7-0.1,1,1,0.6c4.3-1.6,11.9,1.2,9.5,6.7c-0.5,1.2-1.2,2.3-2.6,2.3c-1.2,0-2.4-0.5-3.4-1.2
	c-2.5-1.6-2.3-4.4-0.9-6.7C375.7,398.4,373.1,398.5,372.6,399.2z M303.5,453.4c-0.1-0.1-0.1-0.2,0.1-0.4c0.9-1,1.9-1.9,3.1-2.5
	c1.1-0.5,2.4-0.9,3.6-0.6c1.3,0.4,1.7,1.8,1.7,3c-0.1,1.9-0.9,3.7-2.8,4.4c-1.2,0.5-2.6,0.6-3.8-0.1c-1.2-0.7-2.1-1.9-2.8-3.1
	C302.5,454,302.9,453.7,303.5,453.4z M307.9,456.6C307.9,456.6,307.9,456.6,307.9,456.6C307.9,456.6,307.9,456.6,307.9,456.6
	C307.9,456.6,307.9,456.6,307.9,456.6z M308,451.1C308,451.1,308,451.1,308,451.1C307.9,451.1,307.9,451.1,308,451.1z M305.5,453.4
	C305.5,453.4,305.5,453.4,305.5,453.4c0.5,0.8,1.1,1.6,1.8,2.2c0.3,0.2,0.5,0.4,0.8,0.6c0,0,0.1,0,0.1,0.1c0,0,0-0.1,0.1-0.1
	c0,0,0,0,0,0c0.1-0.1,0.1-0.2,0.2-0.3c0.2-0.3,0.3-0.7,0.4-1.1c0-0.2,0.1-0.4,0.1-0.6c0,0,0-0.1,0-0.1c0,0,0,0,0,0c0,0,0,0,0,0
	c0-0.1,0-0.2,0-0.3c0-0.7-0.1-1.5-0.5-2.1c0,0,0,0,0,0c0,0,0,0,0,0c0,0,0-0.1-0.1-0.1c0-0.1-0.1-0.1-0.2-0.2c-0.1,0-0.1-0.1-0.2-0.1
	c0,0,0,0,0,0c-0.1,0.1-0.2,0.2-0.4,0.2c-0.1,0.1-0.3,0.2-0.4,0.3c0,0-0.1,0.1-0.1,0.1c-0.1,0.1-0.1,0.1-0.2,0.2
	c-0.3,0.3-0.6,0.6-0.9,0.9C306,453.1,305.8,453.3,305.5,453.4z"/>
</svg>
