<?xml version="1.0" encoding="utf-8"?>
<!-- Generator: Adobe Illustrator 25.4.1, SVG Export Plug-In . SVG Version: 6.00 Build 0)  -->
<svg version="1.1" id="Layer_1" xmlns="http://www.w3.org/2000/svg" xmlns:xlink="http://www.w3.org/1999/xlink" x="0px" y="0px"
	 viewBox="0 0 595.3 595.3" style="enable-background:new 0 0 595.3 595.3;" xml:space="preserve">
<style type="text/css">
	.st0{fill:#761214;}
	.st1{fill:#231F20;}
</style>
<path id="color_x5F_2" class="st0" d="M313.1,246.7c-0.4,2.6-0.8,5.2-1.3,7.9c-0.2,0.2-0.3,0.5-0.1,0.7c-0.8,4.5-1.7,9.1-2.6,13.6
	c-2.4,12.1-5,24.2-8.8,35.9c-0.1,0.2-0.1,0.3,0,0.5l-0.5,0.2c-11,1.9-22.4,1.9-33.5,1.5c-13.2-0.5-27.4-1.8-39.7-7l-2.3-1.4
	c0.4-1.8,2.1-4.7,2.4-5.6c2.1-5.3,4.3-10.5,6.4-15.8c4.2-10.7,9-22,10.7-33.5c1-0.2,2.1-1.3,0.4-1c-0.1,0-0.2,0-0.3,0
	c0-0.2,0.1-0.3,0.1-0.5c9.2,0,18.4-0.6,27.5-1.3c8.3-0.7,17.8-0.8,25.8-3.6c0.8,0.1,1.5,0.2,2.3,0.3c0,0,0,0.1-0.1,0.1
	c-1.4,3.3-2.5,7.4,0,10.4c1.7,2.1,5,2.4,7.5,2C309.6,249.5,311.6,248.3,313.1,246.7z M231.7,274.7c3.6-9,7.3-18.3,9.1-27.9
	l-7.8,24.5L231.7,274.7z M289.8,238.2c-2.6,0.4-8.5,0.7-13.5,1.3C280.7,239.2,285.4,239,289.8,238.2z M290.8,238.1
	c1.4-0.3,2.7-0.6,4-0.9C293.3,237.5,291.7,237.8,290.8,238.1C290.8,238.1,290.8,238.1,290.8,238.1z M332.3,247.1
	c-0.5-3.4-1.3-6.8-2.1-10.1c-0.5-2.1-0.8-5.3-2.1-7.2c-0.2-0.3-0.2-0.5,0-0.7c-2.8,0.2-5.6,0.2-8.4,0.3c-0.3,0.7-0.7,1.4-1.1,2
	c-0.4,0.5-0.8,1-1.2,1.4c0.1,0.1,0.2,0.3,0.1,0.5c-0.4,3.4-0.9,6.8-2.1,9.7c0.3,0.1,0.6,0.3,0.5,0.8c-0.5,3.4-1,6.8-1.5,10.3
	c3.8,0.6,8.2-0.4,11.7-1.4C329.4,251.7,332.9,251,332.3,247.1z M329.7,253.4c-0.6,0.2-1.3,0.4-1.9,0.6
	C328.4,253.8,329.1,253.6,329.7,253.4z M234.4,217.9c10.7,0.5,21.5,1.5,32.1,2.5c6.7,0.6,13.5,1.3,20.2,2c2.3,0.2,4.8,0.7,7.2,0.8
	c2.2-4.4,6.3-9.8,10.7-8.6c1.3-4.9,8.3-6.3,16-6.3c-3.2-2.3-6.9-4.2-10.4-6c-4.2-2.1-8.8-4.5-13.5-5c-0.1,1.3-0.5,2.5-1.1,3.7
	c-0.1,0.3-0.4,0.5-0.7,0.6l-0.2,0.8l-0.5-0.7c-0.2,0-0.5-0.1-0.7-0.2c-0.8-0.7-1.6-1.5-2.4-2.3c-0.5-0.5-1.2-1.2-1.6-1.9l-0.1,0.1
	c-1.1,1.6-2.5,3.1-3.8,4.6c-0.4,0.5-1.7,0.7-2.2,0.5c-4.5-1.9-10.1-3.1-13.9-6.4c-0.7-0.7-2.6-2.3-2.6-3.6
	c-12.3,1.9-24.9,3.7-36.5,8.6c-3.4,1.4-6.7,3.1-9.6,5.3c-0.7,0.5-6.3,5.3-5,5.5c6.6,0.9,12.7,3.1,19,5.3
	C235.2,217.4,234.9,217.7,234.4,217.9z M214.1,210.6c0.4-0.4,0.7-0.7,1.1-1.1c-0.8,0.6-1.3,0.9-1.3,0.9L214.1,210.6z M294.3,224.3
	c-0.1,0-0.2,0-0.3,0c-0.3,0-0.5,0-0.8,0l1.5,0.2l0.1-0.1C294.6,224.4,294.4,224.4,294.3,224.3z M282.1,223.1l4.9,0.5
	c-0.5-0.1-1-0.1-1.5-0.2C284.3,223.3,283.2,223.2,282.1,223.1z M238.9,197.3c-2.9,0.7-5.5,1.5-7.3,2.3c-0.5,0.2-1,0.5-1.5,0.7
	c2.4-0.9,4.8-1.8,7.1-2.5C237.8,197.6,238.3,197.5,238.9,197.3z M267.3,191.5l-0.9,0.2c0.3,0,0.6-0.1,0.9-0.1
	C267.3,191.5,267.3,191.5,267.3,191.5z M294.4,145c0,0.1,0.1,0.1,0.1,0.2c0-0.1,0-0.1,0.1-0.2C294.5,145,294.4,145,294.4,145z
	 M303.4,145.8c3.8,0.4,7.7,0.6,11.5,0.7c3.7,0.1,7.5,0.1,11.2-0.4c1.4-0.2,6-0.5,4.2-2.9c-0.1-0.1-0.1-0.1-0.1-0.2
	c0,0-0.1,0-0.1-0.1c0,0,0,0,0,0c-11.1,0-22,0.7-33,1.8C298.7,145.7,301.9,145.6,303.4,145.8z M277.6,127.8c-0.1,0.1-0.2,0.2-0.2,0.3
	c0.8-0.6,1.7-1.1,2.6-1.6C278.7,127,277.9,127.4,277.6,127.8z M269.1,139.8l-0.7,1.3l0.3,1C268.8,141.3,268.9,140.6,269.1,139.8z
	 M331.5,145.9c-0.4,0.2-0.9,0.4-1.5,0.6C330.7,146.3,331.2,146.1,331.5,145.9z M315.9,142c-0.1,0.2-0.4,0.3-0.6,0.4
	c1.8-0.1,3.6-0.2,5.4-0.3C318.7,142.1,317,142.1,315.9,142z M294.6,145.5c0,0-0.1-0.1-0.1-0.1C294.5,145.4,294.5,145.5,294.6,145.5
	c-0.1,0.1-0.1,0.1-0.1,0.1l0.2,0C294.7,145.5,294.6,145.5,294.6,145.5z M292.4,144.2c0,0,0,0.1,0,0.2c7.1-0.7,14.3-1.4,21.4-1.8
	c-0.1-0.1-0.2-0.1-0.2-0.3c-1-5.2-2.8-11-7.3-14.3c-2.4-1.8-5.1-2.8-8-3.3c-0.9-0.1-1.6-0.2-2.2-0.3c-2-0.2-4.1-0.1-6,0.2
	c-11.5,1.7-20.5,9.7-18.9,22L292.4,144.2z"/>
<path id="color_x5F_1" class="st1" d="M137.6,269.3c4.4,0.5,9.1-2.1,10.4-6.5c0.8-2.8-0.1-5.1-1.8-6.6c0.1-0.5-0.4-0.7-1-0.7
	c-1.4-0.9-3-1.3-4.8-1.4c-0.1,0-0.4,0.1-0.6,0.1c-3.9-0.4-7.5,1.6-8.6,5.7C130,264.5,132.9,268.8,137.6,269.3z M141.1,268.1
	c-2.4,0.7-4.2,0.1-5.5-1.2c0,0,0.1,0,0.1-0.1c3.3-2.7,6.3-5.6,9-8.8c0.4,0.6,0.7,1.4,0.9,2.3C146.3,263.5,144.2,267.2,141.1,268.1z
	 M138.6,255.4c0.2,0,0.5,0,0.8-0.1c1.5,0.1,2.8,0.6,3.9,1.4c-2.7,3.3-5.6,6.2-8.9,8.8C132.3,261.3,133.7,254.5,138.6,255.4z
	 M375.3,322.8C375.3,322.8,375.3,322.8,375.3,322.8c0,8.2,0.4,16.4,0.4,24.5c0.3,0,0.5,0,0.5,0.1c0,24.4,0,48.7,0,73.1
	c0,0.6-2.4,1-2.4,0.6c0-23.5,0-47,0-70.5c-0.3,0-0.5,0-0.5-0.1c0-8.7-0.4-17.4-0.4-26.1c0,0-0.1-0.1-0.1-0.1c0-9.4,7.7-16,16.5-17.4
	c0,0,0,0,0,0c0.1,0,0.2,0,0.3,0c0.3,0,0.5,0,0.5,0.1c8.3,1.5,15.1,7.9,15.1,16.7c0,0.1,0,0.1-0.1,0.2c0,23.6-0.4,47.2-0.4,70.9
	c0,0.6-2.4,1-2.4,0.6c0-24,0.4-47.9,0.4-71.9c0,0,0-0.1,0-0.1c-0.4-7.9-6.6-14-14.3-15.4C381.2,309.4,375.7,315.4,375.3,322.8z
	 M306.3,153.8c-0.4-0.7,2-1.5,2.4-0.6c1.7,3.5,8.4,18.1-0.4,17.1c-1.4-0.2,0.7-1.4,1.5-1.3c1.6,0.2-0.6-7.7-0.8-8.3
	C308.2,158.3,307.4,156,306.3,153.8z M312.7,158.6c0-0.4,0-0.8,0-1.2c0-0.6,0.9-0.9,1.3-1c0.5,0,1.1,0.2,1.1,0.8c0,0.4,0,0.8,0,1.2
	c0,0.6-0.9,0.9-1.3,1C313.2,159.4,312.7,159.2,312.7,158.6z M298.4,160.9c0-0.4,0-0.8,0-1.2c0-0.6,0.9-0.9,1.3-1
	c0.5,0,1.1,0.2,1.1,0.8c0,0.4,0,0.8,0,1.2c0,0.6-0.9,0.9-1.3,1C299,161.7,298.4,161.5,298.4,160.9z M294.2,171.4
	c0-0.6,2.4-1,2.4-0.6c0,0.6,0.3,0.9,0.8,1.1c0.4,0.2-0.7,0.6-0.7,0.6c-0.4,0.1-1.1,0.4-1.5,0.2C294.6,172.4,294.2,172,294.2,171.4z
	 M277.8,161.3c-0.1,0.6-0.8,1-1.3,1c-0.5,0-1,0-1.5,0c-0.5,0-1.2-0.2-1.1-0.8c0.1-0.6,0.8-1,1.3-1c0.5,0,1,0,1.5,0
	C277.2,160.5,277.9,160.6,277.8,161.3z M349.8,207.4c-0.4-0.4,0.2-1,0.6-1.2c2-0.8,3.4-0.4,4.4,0.6c1.9-1.3,4.4-1.6,6.3,0.1
	c1.8,1.7,2.5,4.5,2,6.8c-0.3,1.1-2.7,1.4-2.4,0.2c0.6-2.6-1.2-8.3-4.6-5.6c0,0,0,0,0,0c0.9,1.8,1.2,4.3,1.2,6.3c0,1-2.4,1.4-2.4,0.2
	c0-1.5-0.6-8.4-3.3-7.4C350.9,207.7,350.2,207.9,349.8,207.4z M410.5,104.7c-5.6,2.8-13.1,6.6-14.1,13.5c-0.1,0.7-2.4,0.9-2.4,0.6
	c1.1-7.4,9.2-11.4,15.1-14.4C409.6,104.2,411.9,104,410.5,104.7z M401,170.3c-6.4-1-7.8-7.5-9.1-12.9c-0.2-0.7,2.2-1.3,2.4-0.6
	c1.2,4.8,2.4,11.5,8.2,12.4C403.9,169.4,401.7,170.4,401,170.3z M496,104.5c-7.8-12.9-21.5-20.1-35.7-23.7
	c-7.1-1.8-14.4-2.5-21.7-2.8c-0.1,0-0.3-0.1-0.5-0.1c-0.1,0-0.3,0-0.4,0c-0.2,0-0.3,0-0.5,0c-0.1,0-0.2,0-0.4,0.1
	c-16.1,0.6-32.5,3.8-45.8,13.3c-11.2,8.1-17.7,20.6-19.9,34c-2.4,15.2-0.7,32.8,9,45.2c8.2,10.6,22.7,15.3,29.3,27.1
	c1,1.8,2.2,4.1,2.8,6.1c0.5,1.7-0.6,4.6-1.5,6.9c-2.5,0.7-4.6,2.6-5.6,5c-8.9-0.1-17.7-0.6-26.6-0.6c-0.2,0-0.6,0.1-1,0.3
	c-1.5-2.6-5.5-3.6-8.7-2.5c-0.4-2.9-1.8-5.6-4.8-6.1c-0.7-0.1-2.8,1.1-1.5,1.3c4.6,0.7,4.3,8.3,3.5,11.6c-0.5,2-1.2,3.8-2,5.4
	c0,0,0,0,0,0c-0.8,0.4-0.8,0.8-0.5,1c-1.6,2.9-3.7,5.3-6.6,7.8c-0.5,0.4-0.3,0.6,0.2,0.7c-1.8,5-3,10.3-4.5,15.3
	c-2.5,8.6-5.2,17.2-8.5,25.5c-1.2,3.1-2.6,6.3-4.4,9.1c-3.5,5.8-11.3,7.8-16.6,3.1c-3.7-3.3-5.3-9.6-6.7-14.1
	c-1.6-5.4-2.7-11.3-1.9-16.9c0-0.3-0.3-0.4-0.6-0.4c0-0.2,0.1-0.3,0.1-0.5c3.5,0.3,7.1-0.3,10.5-1.1c0.8-0.2,1.9-0.4,3.2-0.8
	c0.6-0.2,1.2-0.4,1.9-0.6c2.5-0.9,4.8-2.1,5.3-4c0.7-3.1-1-7.6-1.7-10.6c-0.7-2.9-1-7.3-2.8-9.9c3.9-0.4,7.7-1.1,11.4-2.4
	c0.1,2.9,0.7,5.9,2.4,8.1c0,0.1,0.1,0.1,0.2,0.1c-3.6,6.8-8.3,12.9-11.9,19.7c-3.3,6.3-5,13.3-6.6,20.1c-0.3,1.2,2.2,0.9,2.4-0.2
	c1.6-7.3,3.6-14.3,7.1-20.9c3.5-6.6,8.2-12.5,11.6-19.2c0.3-0.6-0.2-0.9-0.9-0.9c-3.1-4.4-2.2-11.8-1.4-16.8
	c0.3-1.7-1.7-9.8,2.3-7.9c2.3,1.1,3.2,5.1,3.1,7.4c0,1,2.4,0.6,2.4-0.3c0.2-5.3-5.5-13.1-10.4-6.7c-0.2,0.3-0.3,0.7-0.4,1.1
	c-3.4-0.3-10.6-1.4-17.8-1.7c-3.6-2.9-7.9-5-12-7.1c-4.5-2.3-9.4-4.7-14.5-5.1c-0.2,0-0.6,0.1-0.9,0.2c0-1.2-0.3-2.5-1-3.5
	c-0.3-0.5-1.2-0.5-1.7-0.1c1.7-4.4,3.6-6.6,9-8c4.3-1.1,8.8-2.1,12.4-5c3.9-3.2,4.5-7.5,3.9-12.2c-0.8-6.6-2.1-13.2-2.2-19.8
	c0.3,0,0.5,0,0.8,0c1.2,0,8-0.1,12.2-1.4c0.5-0.2,1-0.4,1.5-0.6c1.6-0.8,2.3-2,1.1-3.6c-0.1-0.2-0.3-0.2-0.6-0.2
	c0-0.1-0.1-0.1-0.3-0.1c-3.7,0-7.3,0.1-11,0.2c-1.8,0.1-3.6,0.2-5.4,0.3c0.3-0.1,0.5-0.3,0.6-0.4c0.1-0.1,0.1-0.3,0.1-0.4
	c-1.2-6.3-3.6-12.1-9.1-15.8c-4.9-3.3-11.8-3.3-17.4-2.4c-3.4,0.5-6.7,1.6-9.6,3.1c-0.9,0.5-1.8,1-2.6,1.6
	c-4.1,2.8-7.1,6.8-8.2,11.7c-0.2,0.8-0.3,1.5-0.4,2.3c-0.2,1.6-0.2,3.4,0.1,5.2c0,0.1,0.1,0.2,0.2,0.3c-0.3,2.9,0.7,5.8,2.1,8.3
	c0.1,0.2,0.3,0.3,0.6,0.3c-0.6,0.5-1.2,1.1-1.6,1.8c-3.8,5.9,2.5,13,8.2,10.7c-0.3,5.9-2.5,11.3-4.4,16.8c-0.1,0.2-0.1,0.3,0,0.5
	c-0.3,0.2-0.5,0.4-0.6,0.7c-0.5,0.1-0.9,0.2-1.1,0.3c-1.5,1.2-3.8,2.7-4.8,4.5c0,0,0,0.1,0,0.1c-0.3,0-0.6,0.1-0.9,0.1
	c-9.3,1.4-18.5,3-27.6,5.6c-0.5,0.2-1.1,0.3-1.6,0.5c-2.4,0.7-4.8,1.6-7.1,2.5c-5.5,2.2-10.7,5.1-15,9.2c-0.4,0.4-0.7,0.7-1.1,1.1
	c-0.6,0.6-1.1,1.2-1.6,1.8c-0.2,0.2-0.1,0.3,0,0.4c-2.4,0.5-4.9,3.9-6.2,5.3c-3.3,3.5-8.5,9.6-4.6,14.4c3.4,4.2,9.5,5.9,14.5,7.3
	c5,1.4,10.3,1.8,15.4,2.1c3.4,0.2,6.8,0.3,10.1,0.3c-0.1,0.1-0.2,0.2-0.2,0.3c0,0.2-0.1,0.5-0.1,0.7c-15.8,3.5-29.1,16.4-28.9,33.4
	c0,0.1,0.1,0.1,0.2,0.2c0.1,17.4,0.8,34.8,0.8,52.2c0,0,0,0.1,0.1,0.1c-3,10.2-6.2,20.4-9.7,30.5c-3,8.6-5.6,17.4-12.6,23.7
	c-13.2,11.7-32.3,13.7-49.2,13.8c-0.3,0-0.7,0.2-1,0.3c-0.5-0.1-1.2,0.1-1.6,0.4c0-32.1,0-64.3,0-96.4h19.6c2.7,0,4.9-2.2,4.9-4.9
	c0-2.7-2.2-4.9-4.9-4.9h-2.5c-0.2-5.6,0.8-10.6,7.1-12.1c4.4-1,8.5-1.9,11.8-5.1c4.1-3.8,3.6-10.4,3.6-15.5c0-6.5-0.7-12.9-0.9-19.4
	h0.4c4.7,0,8.6-3.8,8.6-8.6c0-4.7-3.8-8.6-8.6-8.6h-8.5v-20.9c0-4.7-3.8-8.6-8.6-8.6c-4.7,0-8.6,3.8-8.6,8.6v20.9h-28.6v-20.9
	c0-4.7-3.8-8.6-8.6-8.6c-4.7,0-8.6,3.8-8.6,8.6v20.9h-7.7c-4.7,0-8.6,3.8-8.6,8.6c0,4.7,3.8,8.6,8.6,8.6h0.5
	c-0.1,6.3-0.7,12.6-0.9,18.9c-0.1,5.8-0.5,12.6,4,16.8c3.1,2.9,7.4,3.5,11.4,4.5c6.1,1.4,7.2,6.5,7.1,11.9h-2.5
	c-2.7,0-4.9,2.2-4.9,4.9c0,2.7,2.2,4.9,4.9,4.9h17.8c-0.1,0.1-0.1,0.1-0.1,0.2c0,33,0,65.9,0,98.9c0,0.2,0.6,0.2,1.2,0
	c-1.8,5.3-1.3,11.3-0.5,16.8c0.8,5.5,2.2,11.4,4.9,16.3c-0.3,0.4-0.3,0.8,0.5,0.8c0.1,0,0.1,0,0.2,0c0.1,0,0.3,0,0.4,0
	c-0.5,0.1-1,0.4-1,0.8c-0.1,3.5,1,6.4,2.7,9.4c1.3,2.4,4.7,6.3,1,8.1c-9.4,4.6-23.6,1-28.1-8.6c-3.7-8.1-2.4-19-1.3-27.5
	c0.5-4.2,1.7-9.6,6.4-10.9c3.8-1.1,8.4-0.2,12.2-0.2c0.9,0,2.5-1.4,0.9-1.4c-8.4-0.1-17.5-1.7-20.9,7.9c-1.9,5.5-1.9,12.1-2,17.8
	c-0.1,6.1,0.5,12.1,3.5,17.5c5.3,9.6,20,10,29,7c2.6-0.8,5-2.5,4.2-5.5c-1.4-5-5.3-8.2-5.2-13.8c0-0.3-0.2-0.5-0.5-0.6
	c0.2,0,0.4,0,0.6,0c0,0.1,0,0.2,0.1,0.3c5.2,6.3,10.7,12.4,18.6,15c8,2.6,17.5,2.4,25.7,1c16.5-2.8,27-15.2,28.6-31.6
	c0,0,0-0.1,0-0.1c1.1-0.5,2.1-0.9,3.2-1.5c7.5-3.7,13.7-9.6,18.3-16.6c2.5-3.7,4.1-8.3,5.9-12.4c2.6-6,5.2-12.1,7.7-18.2
	c2.3-5.6,4.6-11.2,7-16.9c0.8-1.9,1.6-3.8,2.4-5.7c0.3-0.6,0.5-1.2,0.8-1.8c0.1,0,0.2,0,0.4-0.1c0.8-0.1,1.5-0.2,2.3-0.2
	c2.4-0.2,4.8-0.2,7.1-0.2c5.6,0,11.1,0.3,16.7,0.9c3.4,0.3,6.6,0.9,9.9,1.7c0,0,0,0,0,0c0,23.5,0,46.9,0,70.4
	c-0.5,0.2-0.9,0.5-0.8,1.1c0,0.4,0.1,0.9,0.1,1.3c-3.2,4.8-6.8,9.2-11,13.3c-0.7,0.7,0.3,1.1,0.9,1.1c3-0.1,6-0.2,9.1-0.3
	c-2.6,5-10.5,23.2-3.6,25.2c2.1,0.6,4.8,0.2,6.9,0.3c3.8,0.2,7.7,0.1,11.5,0c7.3-0.2,14.5-0.2,21.8,0c4.1,0.1,20.1,1.3,20.3-5.6
	c0.1-2.2-1-4-2.6-5.5c4.9-1.5,9.8-2.9,13.9-6.1c6.7-5.2,8.9-13.9,9.9-21.9c0-0.3-2.3-0.1-2.4,0.6c-0.9,7.7-3,15.5-8.9,20.8
	c-3.7,3.3-8.6,4.5-13.2,5.9c-1.9-1.5-4.2-2.6-6.1-3.4c-6-2.7-13-4.6-16.5-10.6c3.4,0,6.9,0,10.3,0c0.1,0,0.1,0,0.2,0
	c0.1,0,0.2,0,0.3,0c0.2-0.1,0.5-0.2,0.6-0.3c0,0,0,0,0,0c0.2-0.2,0.4-0.3,0.5-0.5c4.8-5.1,7.8-11.3,11.3-17.3
	c4.7-8.1,9-16.5,12.6-25.1c6.5-15.7,10.9-34.5,4.3-50.9c-5-12.3-17.5-20.3-29.1-25.7c-11.6-5.4-24.8-8.9-37.7-9.2
	c0.1-0.1,0.1-0.3,0.1-0.4c0-0.1,0.1-0.1,0.1-0.2c4.2-12.7,7.4-26.1,9.9-39.5c0.4,2.9,1.1,5.8,1.8,8.6c1.5,5.5,3.7,12.2,8.4,15.7
	c6.8,5,16.6-0.4,20.2-6.7c8.8-15.3,10.8-33.4,17-49.6c2.7-2.4,4.8-5,6.4-7.9c4.2-1.4,9.4-0.5,11.4-5c9,0,18,0,27,0
	c0.1,0,0.1,0,0.2,0c0.5,2.4,1.9,4.4,4,5.7c-2.5,1.5-4.1,4.2-4.1,7.3c0,4.7,3.8,8.6,8.6,8.6h4.1c0,0.1,0,0.3,0,0.4
	c3,6.4,9.1,9.7,15.6,10.2c0,42.5,0,85,0,127.4c-4.9,0-9.7,0-14.6,0c-1.6,0-3-0.2-3.6,1.5c-0.8,2.2-1.1,4.6-1.5,6.9
	c-0.2,1-0.9,6.4-1.3,7.4c-3.5,0-7,0-10.5,0c-2.9,0-6.1-0.4-8.9,0.1c-2.3,0.4-3.5,4.4-4.3,6.1c-0.7,1.5-2.7,9.2-4.6,9.6
	c-1.5,0.3-1.1,1.7,0.3,1.5c-0.1,0.1-0.1,0.2-0.1,0.3c-0.7,0-1.5,0.4-1.5,0.9c0,15.4,0,30.7,0,46.1c0,0.7,0.9,0.8,1.6,0.6
	c0.1,0.1,0.3,0.1,0.5,0.1c34.4,0,68.8,0,103.1,0c0.1,0,0.2,0,0.3,0c0.7,0.2,1.9-0.2,1.9-0.9c0-15.4,0-30.7,0-46.1
	c0-0.6-0.7-0.8-1.3-0.7c0.1-0.1,0.3-0.2,0.4-0.3c1-0.2,2.3-1.2,1-1.5c-2.2-0.4-4-7.2-4.7-9c-0.7-1.6-2-6.3-4.1-6.7
	c-2.7-0.5-5.8-0.1-8.6-0.1c-4.1,0-8.2,0-12.3,0c-0.9-0.9-1.2-5.3-1.4-6.2c-0.5-2.6-0.9-5.3-1.6-7.9c-0.6-2.3-2.3-1.7-4.5-1.7
	c-5.8,0-11.5,0-17.3,0c-0.1,0-0.2,0-0.2,0c0-42.5,0-84.9,0-127.4c7.5-0.2,15-3.9,18.7-10.6h5.8c4.7,0,8.6-3.8,8.6-8.6
	c0-3.1-1.7-5.8-4.1-7.3c2.5-1.5,4.1-4.2,4.1-7.3c0-2.7-1.3-5.2-3.3-6.7c-0.9-2.5-2.1-5.5-1.9-7.9c0.2-2.1,2.3-5.3,3.3-7
	c3.2-5.8,8.8-9.8,13.9-13.8c5.5-4.3,10.9-8.7,15-14.4c5.1-7,7.4-15.5,8.3-24C505.1,131.2,503.4,116.6,496,104.5z M155.6,201.2
	c0-3.3,2.7-6.1,6.1-6.1c3.3,0,6.1,2.7,6.1,6.1v20.6h-12.1L155.6,201.2L155.6,201.2z M109.9,201.2c0-3.3,2.7-6.1,6.1-6.1
	c3.3,0,6.1,2.7,6.1,6.1v20.6h-12.1V201.2z M99.7,236.8c-3.3,0-6.1-2.7-6.1-6.1s2.7-6.1,6.1-6.1h79c3.3,0,6.1,2.7,6.1,6.1
	s-2.7,6.1-6.1,6.1H99.7z M120.2,279.8c-3.8-2.1-8.4-2-12.3-4c-6.4-3.3-6.1-10.8-6.1-17.1c0-6.5,0.7-12.9,0.9-19.4h73.2
	c0.1,6.3,0.7,12.6,0.9,18.9c0.1,7,0.4,14.9-6.9,18.3c-3.8,1.8-8.2,1.5-11.8,3.9c-3.6,2.4-4.1,7-4,11.1h-29.8
	C124.5,287.2,124.1,282.1,120.2,279.8z M119.4,298.8c-1.3,0-2.4-1.1-2.4-2.4c0-1.3,1.1-2.4,2.4-2.4h2.5c0,0.7,1.5,0.5,2.1,0h30.3
	c0,0,0,0.1,0,0.1c0,0.5,1.4,0.4,2.1-0.1h2.8c1.3,0,2.4,1.1,2.4,2.4s-1.1,2.4-2.4,2.4H119.4z M300.2,304.8c-0.1,0.2-0.1,0.3,0,0.5
	c0,0.1,0,0.1,0,0.1c-0.2,0-0.3,0.1-0.5,0.1c-11,1.9-22.4,1.9-33.5,1.5c-13.2-0.5-27.4-1.8-39.7-7c-0.8-0.3-1.6-0.7-2.4-1.1
	c0-0.1,0-0.2,0.1-0.3c0.4-1.8,2.1-4.7,2.4-5.6c2.1-5.3,4.3-10.5,6.4-15.8c4.2-10.7,9-22,10.7-33.5c1-0.2,2.1-1.3,0.4-1
	c-0.1,0-0.2,0-0.3,0c0-0.2,0.1-0.3,0.1-0.5c9.2,0,18.4-0.6,27.5-1.3c8.3-0.7,17.8-0.8,25.8-3.6c0.8,0.1,1.5,0.2,2.3,0.3
	c0,0,0,0.1-0.1,0.1c-1.4,3.3-2.5,7.4,0,10.4c1.7,2.1,5,2.4,7.5,2c2.8-0.5,4.7-1.7,6.2-3.3c-0.4,2.6-0.8,5.2-1.3,7.9
	c-0.2,0.2-0.3,0.5-0.1,0.7c-0.8,4.5-1.7,9.1-2.6,13.6C306.6,280.9,304,293.1,300.2,304.8z M308.1,247.9c-2.1,0.8-4.8,0.8-6.5-0.9
	c-2.4-2.3-0.9-6.5,0.1-9c0-0.1,0.1-0.2,0.1-0.3c4.6,0.2,9.4-0.6,13.2-3C314.3,239.9,313.7,245.9,308.1,247.9z M326.1,252.7
	c-3.5,1-8,2-11.7,1.4c0.5-3.4,1.1-6.9,1.5-10.3c0.1-0.4-0.2-0.7-0.5-0.8c1.2-2.9,1.7-6.4,2.1-9.7c0-0.2,0-0.4-0.1-0.5
	c0.4-0.4,0.8-0.9,1.2-1.4c0.5-0.6,0.8-1.3,1.1-2c2.8,0,5.6-0.1,8.4-0.3c-0.1,0.2-0.2,0.5,0,0.7c1.3,1.8,1.6,5,2.1,7.2
	c0.8,3.4,1.6,6.7,2.1,10.1C332.9,251,329.4,251.7,326.1,252.7z M342,211.9c0.1,0.7,0.3,1.5,0.4,1.9c0.4,2.5-0.3,5.1-0.4,7.6
	c-0.1,1.3-0.2,2.6-0.1,4c-0.2,0-0.4,0-0.5,0.1c-6.8,2.4-14,2.5-21.1,2.5c0.7-2.8,0.1-6-1.6-8.3c-2.3-3.1-6.7-3-10-2
	c0,0-0.1,0-0.1,0.1c0-0.1-0.1-0.2-0.1-0.3c-0.5-0.6-0.9-1.1-1.4-1.5c0.7-9.9,28.8-4.4,34.8-4.1C341.8,212,341.9,212,342,211.9z
	 M294,199c-0.1-0.1-0.3-0.3-0.4-0.4c-0.4-0.4-1.9-1.7-1.8-2.4c0-0.3,0-0.5-0.2-0.6c0.1-0.2,0.2-0.5,0.1-0.7c0.7,0,1.8-0.2,1.9-0.7
	c0,0,0-0.1,0.1-0.1C294.5,195.5,294.4,197.3,294,199z M294.4,145c0.1,0,0.1,0,0.2,0c-0.1,0.1-0.1,0.1-0.1,0.2
	C294.4,145.1,294.4,145.1,294.4,145z M330.1,143C330.1,143,330.1,143,330.1,143c0.1,0,0.1,0,0.2,0c0,0,0,0,0,0.1
	c0,0.1,0,0.1,0.1,0.2c1.8,2.3-2.8,2.7-4.2,2.9c-3.7,0.5-7.5,0.5-11.2,0.4c-3.8-0.1-7.7-0.3-11.5-0.7c-1.6-0.2-4.8-0.1-6.3-1
	C308.1,143.7,319,143,330.1,143z M290.1,124.6c2-0.3,4-0.4,6-0.2c0.7,0.1,1.5,0.1,2.2,0.3c2.9,0.5,5.6,1.6,8,3.3
	c4.5,3.3,6.3,9.1,7.3,14.3c0,0.1,0.1,0.2,0.2,0.3c-7.2,0.4-14.3,1.1-21.4,1.8c0-0.1,0-0.2,0-0.2l-21.2,2.4
	C269.6,134.3,278.6,126.3,290.1,124.6z M276.2,185.8c2.2-6.2,4.7-12.3,4.6-19c0-1-1.4-1-2-0.5c-5.1,4.4-8.7-4.3-6.3-8.1
	c2.1-3.3,8.4-4,9.2,0.5c0.1,0.6,0.8,0.7,1.5,0.5c0.2,0.1,0.5,0.1,0.9,0c2.4-0.6,4.4-3.2,5.9-5c1.9-2.4,4.1-5.5,4.5-8.6
	c0,0,0,0,0-0.1c0-0.1,0-0.1,0-0.2c0,0,0,0.1,0.1,0.1c0,0,0.1,0.1,0.1,0.1c1.9,1.5,5.7,1.4,7.9,1.6c4.1,0.4,8.3,0.7,12.5,0.7
	c-0.2,0.1-0.4,0.3-0.4,0.5c0.1,6.2,1.4,12.3,2.1,18.5c0.3,2.9,0.6,5.6-0.1,8.4c-1.1,4.3-5.5,6.4-9.4,7.6c-3.7,1.1-7.7,1.6-11,3.6
	c-3.1,1.8-4,4.8-5.1,8c-0.2-0.1-0.3-0.1-0.6-0.1c-5.3,0.3-12.1-3.5-14.9-8.1C275.9,186.2,276.1,186,276.2,185.8z M273.5,187.4
	c2.9,4.6,9.1,8.2,14.8,8.8c-1,1.9-2.4,3.5-3.8,5.1c-3.5-1.4-7-2.5-10.3-4.3c-1.8-1-3.3-2.2-4.3-4
	C268.6,190.9,271.6,188.8,273.5,187.4z M230.5,201.2c11.5-4.9,24.2-6.8,36.5-8.6c0,1.3,1.9,3,2.6,3.6c3.8,3.3,9.3,4.5,13.9,6.4
	c0.6,0.2,1.8,0,2.2-0.5c1.4-1.5,2.7-2.9,3.8-4.6c0,0,0.1-0.1,0.1-0.1c0,0,0,0,0,0c0.4,0.7,1.2,1.4,1.6,1.9c0.8,0.8,1.6,1.6,2.4,2.3
	c0.2,0.2,0.4,0.2,0.7,0.2c0.2,0,0.5-0.1,0.7-0.1c0.3-0.1,0.6-0.4,0.7-0.6c0.5-1.1,0.9-2.4,1.1-3.7c4.7,0.5,9.3,2.9,13.5,5
	c3.5,1.7,7.2,3.6,10.4,6c-7.7,0-14.7,1.4-16,6.3c-4.4-1.2-8.5,4.2-10.7,8.6c-2.4-0.1-4.8-0.6-7.2-0.8c-6.7-0.7-13.4-1.4-20.2-2
	c-10.7-1-21.4-2-32.1-2.5c0.5-0.2,0.7-0.5,0.4-0.6c-6.3-2.3-12.4-4.4-19-5.3c-1.3-0.2,4.4-5,5-5.5
	C223.8,204.3,227.1,202.6,230.5,201.2z M239.6,241.1c-9.5-0.2-18.7-0.9-27.7-4.3c-5.5-2-11-5.7-8.4-12.3c1.5-3.9,5.8-8.3,9.3-10.8
	c0.2-0.1,0.4-0.2,0.5-0.2c0.1-0.1,0.2-0.2,0.3-0.3c0-0.1,0.1-0.1,0.1-0.2c6.2,0.8,11.8,2.7,17.7,4.8c-3.8-0.2-7.6-0.3-11.4-0.3
	c-0.5,0-2.7,1-1.6,1c15.5,0,31.1,1.5,46.6,3c5.7,0.5,11.4,1.1,17,1.7c1.1,0.1,2.3,0.2,3.4,0.3c0.5,0.1,1,0.1,1.5,0.2
	c2.1,0.3,4.2,0.6,6.3,0.7c0.3,0,0.5,0,0.8,0c0.1,0,0.2,0,0.3,0c0.2,0.1,0.3,0.1,0.5,0.1c0.6,0,1.2-0.2,1.5-0.7c1-2,2.1-3.8,3.5-5.5
	c1.6-1.8,3.2-2.1,4.7-1.2c0,0.4,0.1,0.8,0.2,1.3c0.1,0.6,1,0.7,1.6,0.4c0.4,0.3,1,0.3,1.5,0.1c0.1,0.2,0.5,0.4,1.2,0.2
	c8.9-2.9,11.4,8.1,6.5,13.5c-3.9,4.3-11.5,4.2-16.8,3.4c-0.4-0.1-1.1,0.2-1.6,0.6c-0.2,0-0.4,0.1-0.5,0.1c-0.6,0.2-1.1,0.4-1.7,0.5
	c-1.3,0.4-2.6,0.7-4,0.9c-0.3,0.1-0.6,0.1-0.9,0.2c-4.5,0.7-9.1,1-13.5,1.3c-0.7,0.1-1.4,0.1-2.1,0.2
	C262.7,240.7,251.2,241.3,239.6,241.1z M241.3,244.1c-0.1,0.9-0.3,1.8-0.5,2.7c-1.8,9.5-5.6,18.9-9.1,27.9c-0.4,1-0.8,1.9-1.1,2.9
	c-2.1,5.3-4.2,10.5-6.4,15.8c-0.4,1.1-2.4,4.5-2.6,6.3c-0.4,0.1-0.7,0.4-0.7,0.6c-1,7.1-3,14.1-5,20.9c-0.2-15.6-0.8-31.3-0.8-46.9
	c0,0,0-0.1-0.1-0.1C215.6,259.4,227,247.3,241.3,244.1z M187.9,449.7c-7.8,1.1-16.9,0.9-24.3-2.1c-6.4-2.6-11.2-8.1-15.5-13.4
	c16.5-0.7,33-4.3,48.9-8.6c6.3-1.7,12.8-3.3,19-5.7C214.1,435.9,204.1,447.3,187.9,449.7z M306,349.6c6.1,1.6,12,3.8,16,9
	c9.3,12.1-3,27.8-9.3,38.1c-3.6,5.8-6.3,12.1-9.7,18.1c-0.2,0.4-0.5,0.8-0.7,1.3c0-22.4,0-44.9,0-67.3
	C303.5,348.9,304.8,349.2,306,349.6z M326.4,435.1c5.1,9.3,17.3,8.7,24.2,15.6c1.4,1.4,2.4,3.6,1.8,5.6c-0.7,2.2-4,2.6-5.9,2.9
	c-4.3,0.6-8.8,0.3-13.1,0.2c-12.2-0.3-24.4,0.5-36.5-0.1c-6.2-0.3,1.1-19.1,3.6-24.4c8.8-0.2,17.5-0.1,26.3-0.1
	C326.5,434.9,326.4,435,326.4,435.1z M337.6,316.1c11.9,5.2,24.3,13.5,29.3,25.9c6.6,16.2,1.4,35-5,50.3
	c-3.3,7.8-7.3,15.4-11.5,22.7c-3.6,6.3-6.7,12.8-11.8,18.1c-15.8,0-31.6-0.2-47.4,0.3c3.2-3.3,5.9-6.8,8.4-10.4
	c0.7,0.4,2.2-0.2,2.1-1.1c-0.1-0.3-0.1-0.6-0.1-1c0.3-0.1,0.6-0.3,0.6-0.5c0-0.4,0-0.9,0-1.3c5.4-8.6,9.7-17.8,15.2-26.5
	c6.8-10.9,16.8-27.6,3.9-38.3c-5.1-4.2-11.6-5.8-17.9-7.4c-6.2-1.6-12.5-2.3-18.9-2.8c-1.1-0.1-14.2-0.6-20.4,0.3
	c0-0.1-0.1-0.2-0.3-0.2c0,0,0,0,0,0c-0.5-0.2-1.3-0.1-1.7,0.2c-0.2,0.2-0.5,0.4-0.7,0.7c-0.5,0.2-0.7,0.5-0.6,0.9c0,0,0,0,0,0
	c-0.7,1.4-1.2,3.1-1.7,4.3c-2.1,4.9-4.1,9.8-6.1,14.7c-4.5,10.8-8.8,21.7-13.9,32.2c-3.3,6.8-8.5,12.2-14.6,16.5
	c-7.5,5.2-16.9,7.3-25.6,9.7c-17.5,4.9-35.8,9-54.1,9.2c-2.6-4.5-3.8-10.1-4.7-15.1c-1.1-6.3-1.7-13.6,1.1-19.5
	c15.7-0.1,32-2,45.7-10.3c4.5-2.7,9.3-6.4,11.9-11c2.1-3.6,3.5-7.7,5-11.6c4.5-11.9,8.3-24.2,11.9-36.4c2.7-9.3,5.8-18.8,7.2-28.4
	c0,0,0.1,0,0.1,0c12.2,5.6,26.4,6.9,39.6,7.6c12.3,0.6,25.1,0.6,37.3-1.6c-0.1,0.5,0.2,1,1,1C313.7,307.6,326.3,311.1,337.6,316.1z
	 M374.4,222.3c-1.3,1.3-3.9,1.3-5.6,1.6c-0.6,0.1-1.2,0.2-1.9,0.4c0.8-1.8,1.4-3.7,1.8-5.9c0.2-1.2,0.4-2.7,0.3-4.2
	c0.1,0,0.3-0.1,0.4-0.1C374.2,212,377.8,218.8,374.4,222.3z M378.1,219c0.2-1.1,0.1-2.1-0.2-3c8.9,0.1,17.9,0.6,26.8,0.6
	c0.1,0,0.2,0,0.3,0c-0.2,0.8-0.3,1.6-0.3,2.4c0,0,0,0,0,0C395.7,219,386.9,219,378.1,219z M487.4,414.5c0,15.1,0,30.1,0,45.2
	c-34,0-68.1,0-102.1,0c-0.2,0-0.4,0.1-0.6,0.2c0-15.2,0-30.4,0-45.6c0-0.1,0-0.2-0.1-0.3c4.5,0,9.1,0,13.6,0v9.8
	c0,2.3,2.4,4.2,5.4,4.2s5.4-1.9,5.4-4.2v-9.8c17.6,0,35.1,0,52.7,0v9.8c0,2.3,2.4,4.2,5.4,4.2s5.4-1.9,5.4-4.2v-9.8
	c5,0,9.9,0,14.9,0c0.1,0,0.1,0,0.2,0C487.5,414.1,487.4,414.2,487.4,414.5z M407.4,414.5v9.2c0,1.4-1.7,2.5-3.8,2.5
	c-2,0-3.8-1.2-3.8-2.5v-9.2H407.4z M471,414.5v9.2c0,1.4-1.7,2.5-3.8,2.5c-2,0-3.8-1.2-3.8-2.5v-9.2H471z M473.2,397.5
	c1.3,0,5.6-0.7,6.6,0.2c2.4,2,3.4,6.8,4.6,9.6c0.5,1.3,1.3,3.7,2.6,5c-33.8,0-67.7,0-101.5,0c1-1,1.7-2.6,2.2-3.8
	c1.5-3.3,2.6-6.9,4.5-10c1.1-2,6-0.9,8.2-0.9c3.8,0,7.5,0,11.3,0c3.8,0,7.5,0,11.3,0c0,0,0.1,0,0.1,0c3.8,0,7.5,0,11.3,0
	c4.5,0,9,0,13.5,0c0.2,0.1,0.5,0.1,0.8,0c2.8,0,5.6,0,8.4,0c3.8,0,7.5,0,11.3,0C470,397.5,471.6,397.5,473.2,397.5z M424.7,396
	c0.4-1.1,0.5-2.6,0.7-3.6c0.2-1.2,0.4-2.3,0.7-3.5c0,0,8,0.2,8.8,0.2c2.7,0,5.4,0,8.1,0c2.6,0,2.5-0.3,3,2.2
	c0.2,1.1,0.3,3.2,0.8,4.7c-3.8,0-7.7,0-11.5,0C431.7,396,428.2,396,424.7,396z M450.3,381.8c1.4,0,4.1-0.7,4.6,0.8
	c0.3,1,0.5,2.1,0.7,3.1c0.5,2.6,1,5.2,1.5,7.8c0.1,0.6,0.2,1.6,0.5,2.5c-2.7,0-5.5,0-8.2,0c-1.1-1.2-1.1-6.1-1.6-7.7
	c-0.2-0.5-0.5-0.8-1-0.9c-3.3-0.3-6.7,0-10,0c-3.2,0-6.5,0-9.7,0c-0.8,0-2.5-0.2-3,0.8c-0.5,1.1-0.7,2.4-0.9,3.6
	c-0.1,0.6-0.3,3.2-0.6,4.1c-2.8,0-5.7,0-8.5,0c1.2-2.3,1.3-6.7,1.7-8.4c0.2-1.3,0.7-5.8,1.7-5.8c5.2,0,10.3,0,15.5,0
	c0,0.1,0,0.2,0,0.3c0,0.3,1.6,0.1,2.2-0.3C440.1,381.8,445.2,381.8,450.3,381.8z M435.2,251.1c0-0.3,0-0.6,0-0.9
	c0-0.3-2.4,0-2.4,0.6c0,0,0,0.1,0,0.1c-5.4-0.6-10.5-3.5-13.1-8.8h31.7C448.2,248,441.7,251,435.2,251.1z M465.7,233.6
	c0,3.3-2.7,6.1-6.1,6.1h-46.6c-3.3,0-6.1-2.7-6.1-6.1s2.7-6.1,6.1-6.1h46.6C463,227.5,465.7,230.3,465.7,233.6z M465.7,219
	c0,3.3-2.7,6.1-6.1,6.1h-46.6c-3.3,0-6.1-2.7-6.1-6.1c0-2.3,1.3-4.4,3.3-5.4c0.6,0.1,1.7-0.2,2-0.6c0.3,0,0.6-0.1,0.9-0.1h46.6
	c1.2,0,2.3,0.3,3.2,0.9c0.1,0.3,0.2,0.5,0.3,0.8c0.1,0.4,0.6,0.4,1.1,0.3C465.2,216.1,465.7,217.5,465.7,219z M497.3,161.6
	c-3.2,7.6-8.8,13.5-15.1,18.6c-5,4-10.3,7.6-14.6,12.3c-1.9,2.1-3.5,4.5-4.7,7c-0.7,1.5-2.3,3.8-2.3,5.7c0,1.8,0.5,3.7,1.2,5.5
	c-0.7-0.2-1.4-0.3-2.1-0.3h-46.5c0.8-2.2,1.7-4.6,1.6-6.6c-0.1-1.9-1.7-4.3-2.5-6c-2.6-5.5-7.4-9.4-12.2-13
	c-5.5-4.1-11.2-8-15.8-13.1c-6-6.6-9.4-15.1-10.6-23.9c-2-14.9-0.6-30.7,7.6-43.6c9.2-14.7,26-21.4,42.5-23.9
	c4.3-0.6,8.7-0.9,13.1-1.1c17.8,0.6,36.5,4.4,49.8,17.1c10.6,10.1,14.8,24.6,15.1,38.9C501.9,144.2,500.8,153.3,497.3,161.6z
	 M443.5,140.4c-2.5,0-5.4,0.3-8,0.2c1.3-2.5,1.8-7,2.3-9c1.1-4.1,2.3-8.3,3.1-12.5c0.2-1.1-1.5-1-2.2-0.2c-1.1,0.2-1.6,1.1-2.2,2.2
	c-2,3.4-3.8,6.8-5.6,10.2c-2.2,4.1-4.4,8.3-6.6,12.4c-0.8,1.5-2.8,4.1-2.8,5.9c0,0.3,0.9,0.1,1,0.1c4-0.8,8-1.2,12-1.5
	c0,0.1,0,0.2,0,0.3c0,0-0.1,0-0.1,0c0.2,0.8-0.6,3.2-0.9,4.2c-0.6,2.9-1.3,5.7-2,8.6c-0.7,2.9-1.5,5.9-2.2,8.8
	c-0.3,1.1-0.6,2.3-0.9,3.4c-0.3,1.1-0.7,1.3-0.1,1.1c-0.1,0.1-0.2,0.2-0.2,0.3c-1,1,0.9,1.4,1.6,1.1c0.2-0.1,0.3-0.2,0.5-0.4
	c0,0,0,0,0,0c3-3.2,5-8.2,7.3-12c4.4-7.3,8.8-14.7,13.4-21.8c0.3-0.4,0.3-0.8-0.1-1.1C449.2,139.6,445.1,140.4,443.5,140.4z
	 M436.1,161.6c-1.3,2.1-2.5,4.2-3.8,6.4c0.4-1.5,0.7-2.9,1.1-4.4c0.9-3.4,1.7-6.9,2.5-10.3c0.3-1.4,1.4-3.8,1-5.3
	c0-0.1,0-0.1-0.1-0.2c0.5-0.3,0.7-0.6-0.2-0.5c-4.3,0.3-8.5,0.7-12.7,1.4c0.2-1.3,1.6-3.2,2.2-4.2c1.7-3.3,3.5-6.7,5.2-10
	c1.8-3.4,3.6-6.8,5.5-10.1c0.3-0.6,0.7-1.4,1.1-2.1c-0.6,2.4-1.2,4.8-1.9,7.2c-0.7,2.6-1.4,5.3-2.1,7.9c-0.2,0.8-1.1,3.6-1,3.6
	c-0.6,0.5-0.5,1.4,0.4,1.5c2.3,0.2,4.6,0,6.9-0.1c1.4,0,6.1-0.7,8-0.3C444,148.4,440,155,436.1,161.6z"/>
</svg>
