<?xml version="1.0" encoding="utf-8"?>
<!-- Generator: Adobe Illustrator 25.4.1, SVG Export Plug-In . SVG Version: 6.00 Build 0)  -->
<svg version="1.1" id="Layer_1" xmlns="http://www.w3.org/2000/svg" xmlns:xlink="http://www.w3.org/1999/xlink" x="0px" y="0px"
	 viewBox="0 0 595.3 595.3" style="enable-background:new 0 0 595.3 595.3;" xml:space="preserve">
<style type="text/css">
	.st0{fill:#761214;}
	.st1{fill:#231F20;}
</style>
<path id="color_x5F_2" class="st0" d="M416.9,306.6c0.3,0,0.9-0.2,1.3-0.3l0,0c-0.3,0.1-0.6,0.3-1,0.4
	C417.1,306.6,417,306.6,416.9,306.6z M356.2,259.6l3.3,8.2C358.8,264.7,357.8,261.5,356.2,259.6z M289.9,249.5l4.1,0.4
	c0.5,0,1,0.1,1.6,0.1c0.6-0.5,1.7-0.5,2.1,0.2c11.1,0.9,22.3,2.5,33.4,3c5.7,0.3,11.3,0.3,16.9,1.4c3,0.7,8.2,1.3,10.3,3.8
	c3,3.7,3.7,9.7,4.6,14.3c1.4,7.2,2.5,14.4,3.7,21.7c0.4,2.8,0.9,5.7,1.5,8.4c0.3,1.7,0.5,2.6,1.3,3.3c0.2,0.1,0.3,0.2,0.3,0.3
	c0.4,0.3,1,0.6,1.7,1c9,4.3,19,5.1,28.7,3.5c4.3-1,7.7-2.1,7.7-2.1l1.5-0.3c2.1-0.7,4.1-1.4,6.1-2.3c0.9-0.3,1.8-0.9,2.8-0.9
	c0.3-8.3-0.1-16.8,0.2-25.1c0.2-5.3,0.3-10.7,1-16c0.3-3,0.5-6.5,2-9.1c3.1-5.5,8.1-10.1,11.9-15c4.5-5.9,8.9-12.4,10.9-19.7
	c2.3-9,2.3-18.7,2.3-27.8c0-2.8,0-5.6-0.1-8.3l-0.7-18.2c0,0,0,0-0.7-0.5c-0.1,0-0.1,0-0.2,0c-0.6,0-1.2-0.1-1.8-0.1
	c-2,0-4,0-5.9,0.3c-2,0.3-3.6,0.4-3.4,2.6c0.1,1.1,0.2,2.3,0.2,3.4c0.3,8.4,0.3,17-0.2,25.3c-0.5,8.3-3,15-9.1,21
	c-5.6,5.4-12.4,9.7-19.7,12.1c-1.6,0.8-2.9,1.5-3.7,2c-0.6,3-3.1,6.2-5,8.3c-0.3,0.4-2.1,1-2.4,0.4c-0.7-1.2-1.6-2.3-2.6-3.4
	l-3.4-2.4l-1.7,0.4c-0.2,0.3-0.4,0.5-0.6,0.9c-0.3,0.6-2.3,0.7-2.5,0.5c-0.3,0-0.6-0.1-0.8-0.3c-0.1-0.1-0.1-0.2-0.2-0.3h-0.3
	c-2,1.5-2.9,4.3-4.6,6.1c-0.4,0.4-1.7,0.9-2.2,0.3c-2-2.8-4.5-4.9-4.5-8.4c-0.1,0-0.2,0.1-0.3,0.1c-12.4,1.7-25,3.7-37.6,4
	c-6.6,0.1-13.3-0.3-19.9-0.8h-0.1c-10.7-0.5-21.1-1.2-21.1-1.2l-0.5,1.4c-0.5,2.2-0.6,4.5-0.7,6.6
	C290.1,245.7,289.7,247.9,289.9,249.5z M397.1,236.1l-2.2,2.6c0.1,0.1,0.2,0.2,0.2,0.3C395.8,238.1,396.5,237.1,397.1,236.1z
	 M287.3,249.2c0-0.7,0-1.4,0.1-2l-0.7,2H287.3z"/>
<path id="color_x5F_1" class="st1" d="M373.7,201.5c-1,1.7-2.3,3.1-2.7,5c0.1,0,0.2,0,0.2,0c1.7,0,1.2,1.7-0.3,1.7c-0.5,0-1,0-1.5,0
	s-1.2-0.1-1.1-0.8c0.1-2.4,1.7-4.3,3-6.3C371.8,200.3,374.4,200.2,373.7,201.5z M382.5,208.7c-0.6-0.2-1.3,0.1-1.7,0.4
	c-0.5,0.5-1.2,0.6-2,0.6c-0.6,0-1.3,0.2-1.7,0.7c-0.3,0.5,0.3,0.9,0.7,0.9c1.8,0,3.6-0.3,5-1.7C383.1,209.4,383,208.8,382.5,208.7z
	 M380.1,204.7c0.3-0.1,1.4-0.3,1.4-0.9c0-0.4,0.2-0.8,0.4-0.9c0.3-0.2,0.8-0.8,0.2-1c-0.5-0.3-1.3-0.1-1.8,0.3
	c-0.8,0.4-1.3,1.1-1.3,2C379,204.7,379.7,204.7,380.1,204.7z M370.2,200.1c0.5,0,1.3-0.2,1.7-0.6c0.5-0.5,1-1.2,1.2-1.9
	c0.3-0.4-0.9-0.3-1-0.3c-0.4,0.1-1.2,0.3-1.5,0.7c-0.3,0.6-0.6,1.1-1,1.6C369.1,200.1,369.9,200.1,370.2,200.1z M147.2,174.2
	c30.7-1.9,61.4-3.5,92.2-4.4c5.9-0.2,11.8-0.3,17.7-0.4c3.3-0.1,7-1.2,8.4,2.3c2.3,5.7,3.7,12,5.4,18c0.9,3.2,1.7,6.4,2.6,9.6
	c0.2,0.7,0.8,4,1.5,4.3c0.4,0.2,0.3,0.5-0.2,0.8c0.1,0,0.1,0,0.2,0c1.7,0.1,0.4,2-0.9,1.9c-11.2-0.7-22.8,0.3-34,0.7
	c-32,1.3-64,3-96,5.3c-5.3,0.3-10.7,0.8-16,1.3c-4.2,0.4-5.2-0.5-6.4-4.7c-1.9-6.3-2.8-13-3.7-19.6c-0.3-2.8-0.8-5.7-1-8.4
	c-0.1-0.8-0.5-2.2-0.2-2.9l0,0c-0.7-1.5,6.9-2,7.4-2C131.8,175.2,139.4,174.8,147.2,174.2z M184.8,173.4c-15,0.8-29.9,1.6-44.9,2.6
	c-5,0.3-10,0.7-15,1.1c-1.6,0.2-3.2,0.3-4.8,0.5c-0.3,0.1-0.7,0.1-1,0.2c0,0.2,0,0.3-0.1,0.5c-0.1,0.1,0.3,2.7,0.4,3.4
	c0.3,2.6,0.6,5.1,1,7.7c0.9,5.9,1.7,11.8,3.2,17.6c0.3,1.3,1,5,2.6,4.9c2.1-0.2,4.2-0.4,6.2-0.6c6-0.5,12.1-1,18.1-1.4
	c16.1-1.1,32.3-2,48.4-2.9c16-0.9,32-1.7,48-2.2c8.3-0.3,16.9-0.9,25.2-0.5c-0.6-0.9-0.9-2.5-1-3.2c-0.9-3-1.7-6.1-2.4-9
	c-1.7-6.3-3-13-5.6-19.2c-1-2.4-1.7-2.1-4.3-2.1c-2.4,0-4.8,0.1-7.2,0.1c-6.4,0.2-12.9,0.3-19.2,0.6
	C216.6,172,200.7,172.7,184.8,173.4z M163.4,280.1c-7.1,0.7-14.3,1-21.4,1.9c-0.1,0-0.3,0-0.3,0c-0.6,0.3-1.5,0.5-2,0.1
	c-1.1-0.8-1.3-5.3-1.6-6.5c-1-5-1.9-10.1-2.9-15.1c-1.4-7.3-2.6-14.7-4-22c0.1,0,0.1,0,0.2,0c-0.3-0.3-0.2-0.6,0.6-0.9l0,0
	c0.1-0.1,0.3-0.1,0.6-0.2c-0.3,0-0.5,0-0.5-0.2l0,0c-0.1-0.5,1.5-0.8,1.8-0.8c6.3-0.8,12.7-1.1,19-1.7c4.4-0.4,9-0.8,13.4-1.3
	c1.6-0.2,3.1-0.3,4.6-0.5c0.5-0.1,1-0.1,1.7-0.2c0.1,0,0.2,0,0.3,0c0.6-0.3,1.6-0.5,1.7-0.3l0,0c0.1,0,0.1,0.1,0.1,0.2
	c-1,1.2-4,1.1-5.3,1.3c-4.4,0.5-9,1-13.4,1.4c-4.9,0.4-9.8,0.8-14.7,1.2v0.1c2.4,11.7,4.2,23.7,6.2,35.6c0.1,0,0.3,0,0.5,0
	c1.2-0.1,2.5-0.2,3.7-0.3c3.7-0.3,7.4-0.6,11-1c3.9-0.3,7.8-0.7,11.7-1.1c1.6-0.2,3.2-0.3,4.8-0.5c0.1,0,0.1,0,0.2,0
	c-0.8-4-1.6-8-2.3-12c-1.4-7.6-2.8-15.2-4.2-22.8c0.1,0,0.1,0,0.1,0c-0.3-0.3-0.2-0.8,0.6-1l0,0c0.4-0.2,1.7-0.4,1.8,0.3
	c1.3,7,2.5,14.1,3.8,21.1c0.9,4.6,1.7,9.2,2.6,13.8c0.2,0,0.3,0.1,0.4,0.2c0.1,0.1,0.1,0.1,0.1,0.2c0,0.2-0.2,0.3-0.3,0.4
	c0,0.1,0,0.1,0,0.2c0.3,1.8,0.7,3.6,1.1,5.3c0.1,0.5,0.7,2.2,0.3,1.9l0,0c0.3,0.2,0.4,0.5,0.1,1l0,0c-0.4,0.5-1.5,0.8-2,0.3
	l-0.1-0.1c-1.4,0.3-3.2,0.3-4.2,0.4C172.7,279.2,168,279.6,163.4,280.1z M172.1,233.4c-0.1-0.1,0-0.2,0.2-0.3
	C172.1,233.1,172,233.2,172.1,233.4z M180.8,276.9C180.7,276.9,180.7,276.8,180.8,276.9c-0.2,0.2-0.2,0.3,0.1,0.7
	C180.6,277.3,180.6,277,180.8,276.9z M140.5,274.3c0.1,0.6,0.3,2.3,0.5,3.7l3.8-5.4c-2-11.7-3.7-23.7-6.2-35.3
	c-0.1-0.2,0.3-0.4,0.6-0.6c-2.1,0.2-4.1,0.4-6.2,0.6c-0.1,0-0.1,0-0.2,0c0.3,0,0.6,0.1,0.7,0.3c1.4,7.3,2.6,14.7,4,22
	C138.6,264.6,139.5,269.5,140.5,274.3z M161,278.4c4.4-0.4,9-0.8,13.4-1.3c1.7-0.2,3.4-0.3,5.1-0.6c0.3-0.1,0.7-0.1,1-0.2
	c-0.3-1.5-0.5-3.4-0.7-4.3c-0.2-0.7-0.3-1.3-0.4-2c-0.7,0.1-1.3,0.1-1.6,0.2c-4.1,0.5-8.2,0.9-12.3,1.3c-6.7,0.6-13.4,1.2-20.1,1.7
	c0,0-0.1,0-0.2,0l-4.3,6c0.1,0.3,0.2,0.7,0.3,1c0.2-0.1,0.4-0.2,0.6-0.2C148.4,279.3,154.8,279,161,278.4z M174.3,336.7
	c-7,0.7-14.2,1-21.2,1.9c-0.2,0-0.3,0.1-0.5,0.1c-0.6,0.3-1.6,0.5-1.9,0.2c-1.1-0.8-1.3-5.3-1.6-6.5c-1-5-1.9-10.1-2.9-15.1
	c-1.4-7.3-2.6-14.7-4-22c0.1,0,0.1,0,0.2,0c-0.2-0.2-0.1-0.3,0.6-0.7l0,0c0.1,0,0.2-0.1,0.3-0.1c-0.1-0.1-0.2-0.3-0.3-0.4l0,0
	c-0.1-0.8,0.8-1.1,1.4-1.2c6.3-0.8,12.7-1.1,19-1.7c4.4-0.4,9-0.8,13.4-1.3c1.7-0.2,3.4-0.3,5.1-0.6c0.5-0.1,1-0.1,1.5-0.2
	c0.3,0,0.3-0.1,0.4-0.1c0.6-0.3,1.3-0.3,1.7,0.1l0,0c0.3,0.3,0.1,0.7-0.1,0.9c0,0,0,0-0.1,0.1c0.5-0.1,1-0.1,1.1,0.3
	c1.4,7.3,2.6,14.7,4,22c0.8,4.3,1.7,8.6,2.4,13c0.2,0,0.3,0.1,0.4,0.2c0.1,0.1,0.1,0.1,0.1,0.2c0,0.2-0.2,0.3-0.3,0.4
	c0.1,0.3,0.1,0.5,0.2,0.9c0.3,1.7,0.7,3.4,1,5c0.1,0.5,0.7,1.9,0.3,1.7h-0.1c0.3,0.1,0.5,0.3,0.3,0.6l0,0c-0.3,0.5-1.6,1-2.2,0.6
	c-0.1,0-0.1-0.1-0.1-0.1c-1.4,0.3-3.2,0.3-4.1,0.4C183.6,335.8,179,336.3,174.3,336.7z M191.8,333.7L191.8,333.7
	c-0.2,0.2-0.2,0.3,0.1,0.6C191.6,334.2,191.6,333.9,191.8,333.7z M183.1,290.3c-0.3-0.3-0.2-0.7,0.2-1
	C183,289.5,182.8,289.8,183.1,290.3z M152.3,293.8c2.4,11.7,4.1,23.5,6.2,35.2c0.1,0,0.3,0,0.5,0c1.2-0.1,2.5-0.2,3.7-0.3
	c3.7-0.3,7.4-0.6,11-1c3.9-0.3,7.8-0.7,11.7-1.1c1.6-0.2,3.2-0.3,4.8-0.5c0.1,0,0.1,0,0.2,0c-0.8-4-1.6-8-2.3-12
	c-1.4-7.6-2.8-15.2-4.2-22.8c0.1,0,0.1,0,0.2,0c-0.1-0.1-0.2-0.3-0.1-0.3c-1.4,0.4-3.4,0.3-4.3,0.4c-4.7,0.5-9.3,1-14,1.4
	C161.2,293.2,156.8,293.5,152.3,293.8z M151.5,331.1c0.1,0.6,0.3,2.3,0.5,3.8l3.9-5.5c-2-11.7-3.7-23.7-6.2-35.3c0,0,0,0,0-0.1
	c-1.7,0.2-3.3,0.3-5,0.5c1.4,7.3,2.6,14.7,4,22C149.6,321.5,150.5,326.3,151.5,331.1z M172.1,335.4c4.4-0.4,9-0.8,13.4-1.3
	c1.7-0.2,3.4-0.3,5.1-0.6c0.3-0.1,0.7-0.1,1-0.2c-0.4-1.5-0.5-3.5-0.7-4.3c-0.2-0.7-0.3-1.3-0.4-2c-0.7,0.1-1.3,0.1-1.6,0.2
	c-4.1,0.5-8.2,0.9-12.3,1.3c-6.7,0.6-13.4,1.2-20.1,1.7c0,0-0.1,0-0.2,0l-4.3,6c0.1,0.4,0.2,0.8,0.3,1.1c0.2-0.1,0.4-0.2,0.6-0.2
	C159.5,336.3,165.8,335.9,172.1,335.4z M205.7,391.1L205.7,391.1c-0.3,0.5-1.8,0.9-2.3,0.5l0,0c-1.2,0.3-2.6,0.3-3.5,0.3
	c-4.5,0.5-9.1,1-13.7,1.4c-7.3,0.7-14.7,1-22.1,2c-0.1,0-0.2,0.1-0.3,0.1c-0.5,0.4-1.7,0.7-2.2,0.3c-1.1-0.8-1.3-5.3-1.6-6.5
	c-1-5-1.9-10.1-2.9-15.1c-1.4-7.3-2.6-14.7-4-22c0.1,0,0.1,0,0.2,0c-0.3-0.2-0.2-0.5,0.6-0.8c0,0,0.1,0,0.2-0.1
	c-0.1-0.1-0.1-0.2-0.1-0.3l0,0c-0.1-0.8,0.7-1.2,1.4-1.2c6.3-0.8,12.7-1.1,19-1.7c4.4-0.4,9-0.8,13.4-1.3c1.7-0.2,3.4-0.3,5.1-0.6
	c0.5-0.1,1-0.1,1.5-0.2c0.3-0.1,0.4-0.1,0.4-0.1c0.6-0.3,1.3-0.3,1.7,0.2l0,0c0.3,0.3,0.1,0.7-0.1,1c-0.1,0.1-0.3,0.3-0.3,0.3
	c0.4-0.2,1.4-0.3,1.5,0.1c1.4,7.3,2.6,14.7,4,22c0.8,4.3,1.6,8.5,2.4,12.8c0.2,0.1,0.3,0.1,0.4,0.3c0.1,0.1,0.1,0.3,0.1,0.3
	c0,0.2-0.2,0.3-0.3,0.5c0,0.2,0.1,0.4,0.1,0.7c0.3,1.1,0.5,6.2,1.5,6.9c0,0,0,0-0.1,0C205.8,390.9,205.9,391,205.7,391.1z
	 M194.2,347.1c-0.3-0.4-0.2-0.8,0.3-1.1C194.1,346.3,193.6,346.6,194.2,347.1z M163.4,350.7c2.4,11.6,4.1,23.3,6.1,34.9
	c5.2-0.4,10.5-0.9,15.7-1.3c3.8-0.3,7.7-0.7,11.6-1.1c1.5-0.2,3-0.3,4.4-0.5c0.1,0,0.2,0,0.2,0c-0.8-4.2-1.6-8.3-2.3-12.5
	c-1.4-7.3-2.6-14.7-4-22c0.1,0,0.1,0,0.2,0c-0.1-0.1-0.2-0.2,0-0.3c-1.4,0.4-3.5,0.4-4.5,0.5c-4.7,0.5-9.3,1-14,1.4
	C172.2,350,167.8,350.4,163.4,350.7z M162.5,387.9c0.1,0.6,0.3,2.3,0.5,3.7l3.8-5.4c-2-11.7-3.7-23.7-6.2-35.3l0,0
	c-1.7,0.2-3.3,0.3-5,0.5c1.4,7.3,2.6,14.6,4,21.9C160.7,378.3,161.5,383.1,162.5,387.9z M202.7,390.3c-0.4-1.7-0.6-4.2-0.8-5
	c-0.1-0.3-0.2-0.8-0.2-1.1c-0.7,0.1-1.4,0.1-1.7,0.2c-3.9,0.5-7.8,0.9-11.7,1.2c-6.7,0.6-13.4,1.2-20.1,1.7c-0.2,0-0.4,0-0.7-0.1
	l-4.2,5.8c0.1,0.4,0.2,0.9,0.3,1.2c0.2-0.1,0.4-0.1,0.6-0.2c6.3-0.8,12.7-1.1,19-1.7c4.4-0.4,9-0.8,13.4-1.3
	c1.7-0.2,3.4-0.3,5.1-0.6C202,390.4,202.3,390.3,202.7,390.3z M202.9,391.1c-0.2-0.2-0.2-0.3-0.1-0.4l0,0
	C202.7,390.8,202.7,391,202.9,391.1z M233.4,249.9c0.8,4.3,1.6,8.5,2.4,12.9c0.2,0,0.3,0.1,0.4,0.2c0.1,0.1,0.1,0.2,0.1,0.3
	c0,0.2-0.2,0.3-0.3,0.4c0.1,0.3,0.1,0.4,0.2,0.7c0.3,1.2,0.6,6.3,1.5,6.9l0,0c0.2,0.1,0.2,0.3,0,0.4l0,0c-0.4,0.6-1.7,1-2.3,0.4
	l-0.1-0.1c-1.2,0.3-2.6,0.3-3.5,0.3c-4.5,0.5-9.1,1-13.7,1.4c-7.3,0.7-14.7,1-22,2H196c-0.4,0.5-1.6,1-2.2,0.5
	c-1.2-0.9-1.4-4.8-1.7-6.1c-1-5-1.9-9.9-2.9-14.9c-1.4-7.6-2.8-15.2-4.2-22.8c0.1,0,0.1,0,0.2,0c-0.3-0.3-0.2-0.7,0.6-1
	c0,0,0.1,0,0.2-0.1c0-0.1,0-0.1-0.1-0.2l0,0c-0.1-0.8,0.8-1.1,1.4-1.2c6.3-0.8,12.7-1.1,19-1.7c4.4-0.4,9-0.8,13.4-1.3
	c1.7-0.2,3.4-0.3,5.1-0.6c0.5-0.1,1-0.1,1.5-0.2c0.2,0,0.3-0.1,0.3-0.1c0.6-0.3,1.3-0.3,1.7,0.1l0,0c0.3,0.3,0.1,0.6-0.1,0.9
	c-0.1,0.1-0.1,0.1-0.2,0.2c0.5-0.1,1.2-0.2,1.3,0.3C230.8,235.3,232,242.6,233.4,249.9z M226.1,227.6c-0.3-0.3-0.2-0.6,0.2-0.9
	C225.9,226.9,225.6,227.3,226.1,227.6z M195.2,231.2c2.4,11.6,4.1,23.4,6.1,35.1c5-0.4,10-0.8,15-1.2c3.9-0.3,7.8-0.7,11.7-1.1
	c1.6-0.2,3.1-0.3,4.6-0.5c0.2,0,0.4-0.1,0.6-0.1c-0.8-4.2-1.7-8.4-2.4-12.6c-1.4-7.3-2.6-14.7-4-22c0.1,0,0.1,0,0.2,0
	c-0.1-0.1-0.2-0.3-0.1-0.4c-1.4,0.4-3.4,0.3-4.4,0.5c-4.7,0.5-9.3,1-14,1.4C204.2,230.5,199.6,230.8,195.2,231.2z M194.2,267.9
	c0.2,0.7,0.4,2.6,0.7,4.3l3.8-5.4c-2-11.7-3.7-23.7-6.2-35.3v-0.1c-1.7,0.2-3.3,0.3-5,0.5l0,0c1.3,7,2.5,14.1,3.8,21.1
	C192.4,258.1,193.3,262.9,194.2,267.9z M234.7,271.2L234.7,271.2c-0.1,0.1-0.1,0.3,0.1,0.4C234.6,271.6,234.6,271.4,234.7,271.2z
	 M233.6,264.6c-0.7,0.1-1.4,0.1-1.7,0.2c-3.9,0.5-7.8,0.9-11.7,1.2c-6.7,0.6-13.4,1.2-20.1,1.7c-0.2,0-0.4,0-0.6,0l-4.1,5.7
	c0.1,0.5,0.2,1,0.3,1.3c0.2-0.1,0.4-0.1,0.6-0.2c6.3-0.8,12.7-1.1,19-1.7c4.4-0.4,9-0.8,13.4-1.3c1.7-0.2,3.4-0.3,5.1-0.6
	c0.3,0,0.7-0.1,1-0.2c-0.5-1.7-0.6-4.3-0.8-5C233.6,265.4,233.6,264.9,233.6,264.6z M237.7,283.3c0.6-0.3,1.3-0.3,1.7,0.1l0,0
	c0.2,0.2,0.1,0.5,0,0.7c0.4,0,0.9,0.1,1,0.6c1.3,7,2.5,14.1,3.8,21.1c0.9,4.5,1.7,9.1,2.6,13.7c0.2,0.1,0.3,0.1,0.4,0.2
	c0.1,0.1,0.1,0.3,0.1,0.3c0,0.2-0.2,0.3-0.3,0.5l0,0c0.3,1.8,0.7,3.6,1.1,5.3c0.1,0.6,0.7,2.2,0.3,1.9l0,0c0.3,0.3,0.5,0.6,0.2,1.1
	l0,0c-0.4,0.6-1.5,0.8-2,0.3c-0.1-0.1-0.3-0.2-0.3-0.3c-1.2,0.3-2.5,0.3-3.4,0.3c-4.5,0.5-9.1,1-13.7,1.4c-7.3,0.7-14.7,1-22,2
	c-0.2,0.1-0.3,0.1-0.5,0.1c-0.6,0.3-1.5,0.5-1.9,0.3c-1.1-0.8-1.3-5.3-1.6-6.4c-1-5-1.9-10.1-2.9-15.1c-1.4-7.3-2.6-14.7-4-22
	c0.1,0,0.1,0,0.2,0c-0.2-0.1-0.1-0.3,0.7-0.6l0,0c0.1,0,0.2-0.1,0.3-0.1c-0.2-0.1-0.3-0.3-0.3-0.4l0,0c-0.1-0.8,0.8-1.1,1.4-1.2
	c6.3-0.8,12.7-1.1,19-1.7c4.4-0.4,9-0.8,13.4-1.3c1.7-0.2,3.4-0.3,5.1-0.6C236.7,283.4,237.1,283.4,237.7,283.3
	C237.6,283.3,237.6,283.3,237.7,283.3z M237,284.5c-0.3-0.3-0.2-0.7,0.2-1C236.9,283.7,236.7,284.1,237,284.5z M205.4,325.3
	c0.1,0.6,0.3,2.3,0.5,3.8l3.9-5.5c-2-11.7-3.7-23.7-6.2-35.3c0,0,0,0,0-0.1c-1.7,0.2-3.3,0.3-5,0.5c1.4,7.3,2.6,14.7,4,22
	C203.5,315.6,204.4,320.5,205.4,325.3z M245.7,328L245.7,328c-0.1,0.1-0.2,0.3,0.1,0.5C245.6,328.3,245.6,328.2,245.7,328z
	 M244.5,321.5c-0.7,0.1-1.4,0.1-1.7,0.2c-3.9,0.5-7.8,0.9-11.7,1.2c-6.7,0.6-13.4,1.2-20.1,1.7c-0.2,0-0.4,0-0.7,0l-4.2,5.8
	c0.1,0.4,0.2,0.9,0.3,1.2c0.3-0.1,0.4-0.2,0.6-0.2c6.3-0.8,12.7-1.1,19-1.7c4.4-0.4,9-0.8,13.4-1.3c1.7-0.2,3.4-0.3,5.1-0.6
	c0.3-0.1,0.7-0.1,1-0.2c-0.4-1.6-0.5-3.6-0.7-4.4C244.8,322.6,244.7,322,244.5,321.5z M237.8,285.1c-1.4,0.3-3.3,0.3-4.3,0.4
	c-4.7,0.5-9.3,1-14,1.4c-4.4,0.4-8.9,0.7-13.3,1.1c2.4,11.6,4.1,23.3,6.1,35c5.2-0.4,10.5-0.9,15.7-1.3c3.8-0.3,7.7-0.7,11.6-1.1
	c1.5-0.2,3-0.3,4.4-0.5c0.1,0,0.2,0,0.2,0c-0.8-3.9-1.5-7.8-2.3-11.7c-1.4-7.6-2.8-15.2-4.2-22.8h0.1
	C237.9,285.4,237.9,285.2,237.8,285.1z M259.6,385.4L259.6,385.4c-0.4,0.6-1.7,1-2.3,0.5c0,0,0,0-0.1-0.1c-1.2,0.3-2.6,0.3-3.5,0.3
	c-4.5,0.5-9.1,1-13.7,1.4c-7.3,0.7-14.7,1-22.1,2c-0.1,0-0.1,0-0.2,0c-0.4,0.5-1.5,1-2.1,0.5c-1.2-0.9-1.4-4.8-1.7-6.1
	c-1-5-1.9-9.9-2.9-14.9c-1.4-7.6-2.8-15.2-4.2-22.8c0.1,0,0.1,0,0.2,0c-0.3-0.3-0.2-0.6,0.6-1l0,0c0.1,0,0.2-0.1,0.3-0.1
	c-0.1,0-0.1-0.1-0.2-0.2l0,0c-0.1-0.5,1.1-0.8,1.5-0.9c6.1-0.8,12.3-1.1,18.4-1.7c4.5-0.4,9-0.9,13.6-1.3c1.8-0.2,3.7-0.3,5.5-0.6
	c0.5-0.1,1-0.1,1.5-0.2c0.1,0,0.2,0,0.3,0c0.6-0.3,1.5-0.4,1.7-0.2l0,0c0.1,0.2,0.1,0.3,0,0.3c-1,1.1-3.9,1-5.1,1.2
	c-4.4,0.5-9,1-13.4,1.4c-4.6,0.4-9.8,0.8-14.7,1.2c2.4,11.7,4.1,23.5,6.2,35.2c5-0.4,9.9-0.8,15-1.2c3.9-0.3,7.8-0.7,11.7-1.1
	c1.6-0.2,3.1-0.3,4.6-0.5c0.2,0,0.4-0.1,0.6-0.1c-0.8-4.2-1.6-8.3-2.3-12.4c-1.4-7.3-2.6-14.7-4-22c0.1,0,0.1,0,0.2,0
	c-0.3-0.2-0.2-0.5,0.6-0.8c0.3-0.1,1.7-0.5,1.7,0.2c1.4,7.3,2.6,14.7,4,22c0.8,4.3,1.6,8.5,2.4,12.7c0.1,0,0.2,0.1,0.3,0.1
	c0.2,0.2,0.3,0.3,0.3,0.5s-0.2,0.3-0.3,0.5c0,0.2,0.1,0.4,0.1,0.6c0.3,1.2,0.6,6.3,1.5,6.9l0,0C259.8,385.1,259.8,385.2,259.6,385.4
	z M248.1,341.2c-0.1-0.1-0.1-0.3,0.1-0.3C248,341,247.9,341,248.1,341.2z M216.4,382.2c0.3,1.1,0.4,2.3,0.7,3.5l3.7-5.1
	c-2-11.7-3.7-23.7-6.2-35.3c0-0.2,0-0.3,0.1-0.4c-1.8,0.2-3.7,0.3-5.3,0.6c0.2,0.1,0.3,0.2,0.3,0.3c1.4,7.3,2.6,14.7,4,22
	C214.6,372.4,215.5,377.3,216.4,382.2z M256.6,384.4c-0.4-1.7-0.6-4.2-0.8-5c-0.1-0.3-0.1-0.7-0.2-1c-0.7,0.1-1.3,0.1-1.7,0.2
	c-3.9,0.5-7.8,0.9-11.7,1.2c-6.7,0.6-13.4,1.2-20.1,1.7c-0.2,0-0.5,0-0.8-0.1l-3.9,5.5c0,0.2,0.1,0.3,0.1,0.4c0.1,0.3,0.2,0.6,0.3,1
	c0.1,0,0.3-0.1,0.3-0.1c6.3-0.8,12.7-1.1,19-1.7c4.4-0.4,9-0.8,13.4-1.3c1.7-0.2,3.4-0.3,5.1-0.6
	C255.9,384.5,256.3,384.5,256.6,384.4z M256.7,384.9L256.7,384.9c-0.1,0.1-0.1,0.3,0.1,0.4C256.6,385.2,256.6,385.1,256.7,384.9z
	 M246,285.5c0.1,0,0.1,0,0.2,0c-0.3-0.3-0.2-0.8,0.6-1l0,0c0,0,0.1,0,0.2-0.1v-0.1l0,0c-0.1-0.6,1-0.9,1.5-1
	c6.3-0.8,12.6-1.1,19-1.7c4.4-0.4,9-0.8,13.4-1.3c1.7-0.2,3.4-0.3,5.1-0.6c0.5-0.1,1-0.1,1.5-0.2c0.1,0,0.2,0,0.3,0
	c0.6-0.3,1.5-0.4,1.7-0.1l0,0c0.2,0.2,0.1,0.3,0,0.4c-1,1.2-4,1.1-5.4,1.3c-4.5,0.5-9.1,1-13.7,1.4c-4.7,0.4-9.5,0.8-14.2,1.1
	c2.4,11.6,4.1,23.4,6.1,35.1c5-0.4,9.9-0.8,15-1.2c3.9-0.3,7.8-0.7,11.7-1.1c1.6-0.2,3.1-0.3,4.6-0.5c0.2,0,0.4-0.1,0.7-0.1
	c-0.8-4.2-1.6-8.3-2.3-12.4c-1.4-7.3-2.6-14.7-4-22c0.1,0,0.1,0,0.2,0c-0.3-0.2-0.2-0.4,0.6-0.7l0,0c0.3-0.1,1.7-0.5,1.7,0.1
	c1.4,7.3,2.6,14.7,4,22c0.8,4.3,1.6,8.4,2.4,12.7c0.1,0,0.2,0.1,0.3,0.1c0.2,0.2,0.3,0.3,0.3,0.6c-0.1,0.2-0.2,0.3-0.3,0.5
	c0,0.2,0.1,0.4,0.1,0.6c0.3,1.2,0.6,6.2,1.5,6.9l0,0c0.2,0.1,0.2,0.2,0,0.3l0,0c-0.3,0.5-1.7,0.9-2.3,0.5c-0.1-0.1-0.2-0.2-0.3-0.3
	c-1.1,0.2-2.3,0.3-3.1,0.3c-4.4,0.5-9,1-13.4,1.4c-7.5,0.7-15,1.1-22.5,2c0,0.2-0.1,0.3-0.2,0.5l0,0c-0.3,0.5-1.5,0.8-2,0.3
	c-1.2-0.9-1.4-4.8-1.7-6.2c-1-5-1.9-9.9-2.9-14.9C248.8,300.7,247.4,293,246,285.5z M286.9,280.3c-0.2-0.2-0.1-0.3,0.1-0.4
	C286.8,280,286.8,280.2,286.9,280.3z M295.7,324.2L295.7,324.2c-0.1,0.1-0.1,0.1,0,0.2C295.6,324.3,295.6,324.3,295.7,324.2z
	 M260.9,320.6c-0.2,0-0.5,0-0.8-0.1l-3.9,5.5c0,0,0,0,0,0.1c0.1,0.3,0.3,1.2,0.4,1.7c0.3-0.1,0.6-0.1,0.7-0.1
	c6.3-0.8,12.7-1.1,19-1.7c4.4-0.4,9-0.8,13.4-1.3c1.6-0.2,3.1-0.3,4.6-0.5c0.3-0.1,0.8-0.1,1.1-0.2c-0.5-1.7-0.7-4.4-0.9-5.4
	c-0.1-0.3-0.1-0.7-0.2-1c-0.7,0.1-1.3,0.1-1.7,0.2c-3.9,0.5-7.8,0.9-11.7,1.2C274.3,319.5,267.6,320.1,260.9,320.6z M253.5,283.9
	c-1.7,0.2-3.4,0.3-5.1,0.5c0.1,0.1,0.1,0.2,0.2,0.3c1.3,7,2.5,14.1,3.8,21.1c0.9,4.9,1.8,9.8,2.8,14.7c0.3,1.4,0.5,2.8,0.9,4.2
	l3.7-5.1c-2-11.7-3.7-23.7-6.2-35.3C253.5,284.2,253.5,284.1,253.5,283.9z M298.5,336.3c0.6-0.3,1.5-0.4,1.7-0.1l0,0
	c0.2,0.2,0.1,0.3,0,0.4c-0.1,0.2-0.3,0.3-0.4,0.3c0.5-0.1,1.3-0.1,1.4,0.4c1.3,7,2.5,14.1,3.8,21.1c0.9,4.5,1.7,9,2.6,13.6
	c0.1,0,0.2,0.1,0.3,0.1c0.2,0.2,0.3,0.3,0.3,0.5c0,0.2-0.2,0.3-0.3,0.5c0.3,1.7,0.7,3.6,1.1,5.3c0.1,0.5,0.6,2.2,0.3,1.9l0,0
	c0.3,0.2,0.4,0.5,0.1,1l0,0c-0.3,0.5-1.5,0.8-2,0.3c-0.2-0.1-0.3-0.3-0.4-0.5c-1.1,0.2-2.4,0.3-3.1,0.3c-4.4,0.5-9,1-13.4,1.4
	c-7.5,0.7-15,1.1-22.4,2c0,0.1,0,0.2-0.1,0.3l0,0c-0.3,0.5-1.6,1-2.2,0.6c-1.2-0.9-1.3-4.8-1.6-6.1c-1-5-1.9-9.9-2.9-14.9
	c-1.4-7.6-2.8-15.2-4.2-22.8c0.1,0,0.1,0,0.2,0c-0.3-0.3-0.2-0.6,0.6-0.9l0,0c0.1,0,0.1,0,0.2-0.1c-0.1-0.1-0.1-0.1-0.2-0.2l0,0
	c-0.1-0.6,1-0.9,1.5-1c6.3-0.8,12.6-1.1,19-1.7c4.4-0.4,9-0.8,13.4-1.3c1.7-0.2,3.4-0.3,5.1-0.6
	C297.5,336.4,297.9,336.4,298.5,336.3C298.3,336.3,298.4,336.3,298.5,336.3z M297.9,337.2c-0.2-0.2-0.1-0.3,0.1-0.5
	C297.8,336.8,297.7,337,297.9,337.2z M266.3,378.1c0.3,1.1,0.4,2.3,0.7,3.5l3.7-5.1c-2-11.7-3.7-23.7-6.2-35.3c0-0.1,0-0.3,0-0.3
	c-1.7,0.2-3.5,0.3-5.1,0.5c0.1,0.1,0.2,0.2,0.2,0.3c1.4,7.3,2.6,14.7,4,22C264.4,368.4,265.3,373.2,266.3,378.1z M306.7,381
	L306.7,381c-0.1,0.1-0.1,0.2-0.1,0.2C306.5,381.1,306.6,381.1,306.7,381z M305.4,374.3c-0.7,0.1-1.4,0.1-1.7,0.2
	c-3.9,0.5-7.8,0.9-11.7,1.2c-6.7,0.6-13.4,1.2-20.1,1.7c-0.2,0-0.4,0-0.7-0.1l-3.9,5.5c0,0.2,0.1,0.3,0.1,0.4
	c0.1,0.3,0.3,0.9,0.3,1.3c0.3-0.1,0.5-0.1,0.6-0.1c6.3-0.8,12.6-1.1,19-1.7c4.4-0.4,9-0.8,13.4-1.3c1.6-0.2,3.1-0.3,4.6-0.5
	c0.4-0.1,0.8-0.1,1.2-0.2c-0.5-1.6-0.6-3.8-0.8-4.8C305.7,375.4,305.6,374.8,305.4,374.3z M299,337.5c-1.3,0.4-3,0.4-4,0.5
	c-4.5,0.5-9.1,1-13.7,1.4c-4.7,0.4-9.5,0.8-14.2,1.1c2.4,11.7,4.1,23.5,6.2,35.1c5.2-0.4,10.5-0.9,15.7-1.3
	c3.8-0.3,7.7-0.7,11.6-1.1c1.5-0.2,3-0.3,4.4-0.5c0.1,0,0.2,0,0.2,0c-0.8-3.9-1.5-7.8-2.3-11.7c-1.4-7.6-2.8-15.2-4.2-22.8
	c0.1,0,0.1,0,0.2,0C298.7,338,298.7,337.7,299,337.5z M517.1,154.7c-18.6,8.3-37.2,16.9-54.5,27.7c-0.8,0.5-2.4,0.1-2.1-0.6
	c-0.7,0.3-1.7,0.3-1.7-0.4c-1-8.9-4.7-16.3-10.1-22.1c-0.3,1.1-0.8,2.3-1.3,3.3c-0.3,0.7-2.8,1-2.5,0.3c0.9-1.7,1.7-3.8,1.7-5.8
	c-5.7-5.5-13-9.4-21.1-11.9c3.7,5.9,4.7,13.8,10.3,18.6c0.3,0.3-1.9,1.3-2.3,0.9c-5.9-5-6.6-13.7-11-19.8c-0.1-0.1,0.2-0.3,0.5-0.4
	c-7.8-2.1-16.2-2.7-24.3-2c-3.7,5-7.3,10.3-11.8,14.7c-4.5,4.3-9.7,7.7-15.2,10.6c-5.7,3-11.5,6-17.2,9c-3.3,1.7-7.6,3.1-10.5,5.5
	c-0.6,0.5-2.9,0.4-2.2-0.3c-1.6,0.9-3.3,1.6-5.1,2.1c-15.8,4.8-29.1-5.4-40.6-15.1c-6.5-5.5-12.8-11.1-18.9-17
	c-6.2-6-13.1-12.8-21.7-15c-13.3-3.5-32.5,2.9-40.1,15c11.9-0.3,23.8-0.3,35.7-0.3c7.1,0,15.7,0,21.8,4.3c4,2.9,5.8,6.4,7.5,10.9
	c4.3,12,7.1,24.7,9.8,37.1c2.1,9.7,4.9,20.2,5,30.2c0,0.2-0.2,0.3-0.4,0.5c3.7,0.3,7.4,0.5,11,0.8c7.9,0.5,15.8,1.3,23.7,1.4
	c13.7,0.1,27.4-2.3,41.1-4.1c0.3,0,0.5,0,0.7,0.1c1.9-2.7,3.8-5.3,6.3-7.6c0.3-0.3,0.9-0.3,1.5-0.3c0.1-1.8-0.3-3.6-1.8-4.5
	c-1.7-1-3.8-1.3-5.8-1.7c-3-0.6-8.3-1.8-9.3-5.4c-1.1-4.2,1.7-9.1,3.7-12.7c2.4-4.3,5.3-8.4,8-12.7c-1.2-1.4-2-2.9-1.7-4.6
	c1.1-7.8,10.9-4.9,15-1.9c3.8,2.9,7,6.8,11.3,9c4.3,2.3,10.2,2.9,12.9,7.3c4.9,7.8-7,15.3-12.4,18.2c-0.2,0.1-0.5,0.2-0.9,0.2
	l-4.3,2.3c-0.4,1.2-0.4,3.3-0.3,5.3c0.2,0,0.3,0,0.3,0.1c1.9,1.5,6.1,3.4,7.3,6c11-2.7,22.9-10.2,27.8-20.4
	c3.7-7.7,2.9-17.8,2.9-26.2c0-4.3,0-8.6-0.3-12.9c-0.2-2-0.7-3.6,1.3-4.8c3.5-2.2,11.1-2.5,15-1.3c0.3,0.1,0.5,0.3,0.5,0.7l0,0
	c0,0.1,0,0.1,0,0.2c0.3,0,0.6,0.1,0.6,0.2c0,9.5,0.3,18.9,0.3,28.4c-0.1,8.3,0.2,17.1-1.9,25.1c-3.8,14.4-14.6,23.5-22.7,35.3
	c-1.9,2.8-2.1,7-2.4,10.3c-0.5,5.4-0.8,10.8-0.9,16.2c-0.2,8.3,0.1,16.6-0.2,24.9c3,20.2,6.8,41.8,16,60.2c1.6,3.1,3.6,6.1,5.7,8.9
	c5.5,5.5,12.8,12.4,18.9,18.1c9.4,7.8,19.5,14.8,29.3,22.1c0.5,0,0.9,0.1,0.8,0.3c-0.1,0.3-0.3,0.7-0.3,1c4.3,2.8,8,6.3,12.3,9.1
	c0.5-0.1,1,0,0.9,0.2c0,0.1-0.1,0.2-0.1,0.3c0,0,0,0,0.1,0c0.2,0.1,0,0.3-0.3,0.4c-4.1,11.3-10.9,21.1-16.5,31.7
	c-0.3,0.6-2.6,0.8-2.5,0.4c0.2-0.3,0.3-0.5,0.4-0.8c-0.3,0.3-1,0.6-1.4,0.6c-6.1,0-12.2-0.5-18.3,0.5c-1.3,0.3-1.1-0.4-0.4-0.9
	c-0.1-0.2,0-0.3,0.3-0.6c3-3,6.2-5.8,9-9c1.3-1.5,4.1-4.3,4.5-6.5c0.2-1.1-0.6-2.4-1-3.5c-1-2.9-1.7-5.8-2.3-8.9
	c-0.1-0.3,0.1-0.5,0.4-0.8c-0.1,0-0.1-0.1-0.2-0.1c-20.3-13.7-42.9-25-60.1-42.7c-2.2-2.2-4.3-4.6-6.2-7.1c-2.8-3-5-5.7-5.7-8
	c-0.1-0.2-0.2-0.3-0.2-0.5c-5.6-9-9.9-19-12.9-29c-5.4,9-14.1,15.4-19.4,24.4c-1.8,3.1-3,6.6-3.3,10.1c0.4,2.8,1.2,6.5,2.6,11.5
	c0.9,2.3,1.8,4.7,2.7,7c3.7,10.1,7,20.2,10.7,30.3c1.4,3.9,2.8,7.8,4.3,11.7c0.5,1.3,1,2.6,1.7,3.8c0.9,1.8,0.8,0.8-0.3,1.2
	c0.2,0,0.3,0.1,0.3,0.2c0,0,0,0,0,0.1c0.7-0.1,1.3-0.1,1,0.2c-0.3,0.3-0.6,0.4-0.9,0.5c1.3,5.7,3.8,10.8,6.2,16.1
	c0,0.1,0,0.2-0.2,0.3c0,0,0,0,0.1,0.1c0.6,1.1-1.8,2-2.3,1c0.1,0.2-3.2,0.1-4.2,0.1c-2.9,0-5.7,0.1-8.5,0.3
	c-7.4,0.3-14.7,0.6-22.1,1c-5,0.3-10.1,0.4-15,1h-0.1c-0.4,0.2-1.1,0.3-1.6,0c-0.3-0.3-0.3-0.7-0.1-1c0.2-0.3,0.5-0.4,0.9-0.6
	c0.1-0.1,0.3-0.2,0.3-0.3c1-0.7,2.1-1.5,3.2-2.1c2-1.3,4.1-2.5,6.3-3.7c5.2-2.8,10.5-5.3,16-7.7c0.2-0.1,0.3-0.1,0.4-0.1l0,0
	c-0.2-0.4-0.3-0.8-0.4-1.2l0,0l-2.9-8.1c-7.4-19-17.1-37.3-21.7-57.3c-2.7-11.8-1.4-22.7,3.4-33.9c2.3-5.6,5.2-11,8.1-16.3
	c5.4-13,10.2-23.6,10.2-23.6s0.1,0,0.2,0.1c-1.7-2.3-1.7-8.4-2.1-10.7c-1.1-7.2-2.2-14.4-3.6-21.7c-0.3-1.7-0.6-4-1.1-6.4
	c-0.6-3.1-1.6-6.3-3.3-8.2c-0.2-0.2-0.3-0.3-0.4-0.4c-4.3-3.7-12.4-4.1-17.7-4.4c-3.7-0.3-7.2-0.3-10.9-0.5c-7-0.5-14-1.3-21-1.9
	c-2.7-0.3-5.3-0.5-8-0.7c1.5,5.4,2.3,11,3.3,16.4c2.3,11.9,4.5,23.9,6.8,35.8c5,27.2,10,54.4,14.4,81.8c1,5.7,3,12.5,2.4,18.4
	c-1,10.9-11.5,17.9-21.3,19.6c-24.8,4-50,6.3-75,9c-13.6,1.5-27.2,2.9-40.8,4.1c-6.3,0.6-12.9,1.6-19.3,1.7c-4.3,1-8.9,1-13.2,0
	c-0.3,0.1-0.4,0.2-0.5,0.2l0,0c-0.6,0.1-0.9,0-1-0.2l0,0c-0.4-0.3-2.6-0.7-3.5-1c-2.4-0.7-4.9-1.5-7.3-2.3
	c-6.2-2.2-12.3-4.7-17.8-8.2c-4.7-3-9.6-6.8-11.6-12.2c-1.6-4.2-2.5-8.5-3.5-12.8c-3.2-14.1-5.8-28.3-8.4-42.4
	c-0.7-3.6-1.3-7.1-1.9-10.8c-0.7-3.2-1.3-6.5-1.8-9.7c-0.7-3.5-1.5-6.9-2.3-10.3c-0.1-0.3,0.2-0.4,0.4-0.7
	c-3.7-16.7-6.8-34.1-9.9-51.4c-4.7-26.3-9.5-52.6-12.9-79.1c-1-8.1-2.5-16.7,0.9-24.5c2.4-5.6,7.5-6.4,13-8.2
	c5.2-1.7,10.5-3.3,15.8-4.6c3.3-2,7.5-2.4,11.9-3c9.2-1.2,18.5-1.9,27.8-2.3c9.4-14.8,21.8-28.1,36.1-38.3
	c13.6-9.7,29.5-17.6,46.3-18.8c37.7-2.9,61,29,88.5,48.9c9,6.5,19.7,13,30.8,15.1c6,1.1,11.7,0.7,16.7-3c-0.4-0.2-0.6-0.5-0.2-1
	c2.8-3,6-5.6,9.5-7.7c0.3-0.3,0.5-0.5,0.8-0.8c13.7-14.4,31.3-24.3,50.7-29.1c19.9-5,39.5-3,58.1,5.8c13.9,6.6,26,15.9,37.1,26.6
	c0.6,0.6-1.7,1.6-2.3,1c-20-19.3-46.9-37-75.9-35c-17.7,1.2-35.7,7.8-50.3,17.8c-4.8,3.2-8.9,7-12.9,11c6.4-3,13.6-5,21-5.8
	c0.6-0.4,1.9-0.6,2.3-0.2c28.1-2.3,58.5,11.1,61.8,40.1c0,0.2,0,0.4-0.2,0.5c17.4-10.9,36.2-19.5,54.9-27.8
	C517.3,152.8,518.7,154.1,517.1,154.7z M145.6,434c-3.7-2.7-6.3-6.6-7.1-11.7c-1.2-7.4-2.5-14.8-3.8-22.1
	c-9.4-53.5-18.9-106.9-28.4-160.4c-3-16.5-6.8-33-9-49.7c-1-7.8-2.3-17.5,1.3-24.9c0.6-1.1,1.2-2.2,2-3c-5.7,1.5-11.5,3.3-17,5.3
	c-1.4,0.5-3.3,1-4.5,1.9c-2.3,1.9-3,7.2-3.4,9.9c-0.3,1.7-0.3,3.2-0.3,4.9c0.6,11.6,2.7,23.1,4.5,34.5c4.5,28.6,9.7,57.1,14.9,85.7
	c2.1,11.3,4.2,22.6,6.3,34c0.9,4.6,1.4,9.4,2.7,13.9h-0.1c0,0.2,0,0.4-0.2,0.6c0.3,1.9,0.7,3.9,1,5.8c2.6,13.9,5.1,27.8,8.3,41.7
	c1,4.4,1.9,9,3.5,13.2c2.1,5.7,7.2,9.7,12.4,12.7C133.9,429.5,139.7,432,145.6,434z M417.2,306.6c0.5,0.1,0.5,0.2,0.2,0.3l0.8-0.2
	c0-0.2,0-0.3,0-0.4l0,0c-0.4,0.3-1,0.4-1.3,0.3C417,306.6,417.1,306.6,417.2,306.6z M387.8,443.8c-1.8,1.7-5.1,4.1-9,3.7
	c-0.3,0-0.5-0.1-0.8-0.1c-2.3,0.2-4.9,0.3-7.4,0.6c-0.1,0.2-0.3,0.3-0.6,0.4c-6.3,2.7-12.5,5.6-18.4,9c-1.3,0.8-2.7,1.7-4,2.7
	c1,0,2.1,0,2.7,0c6.3-0.4,12.7-0.8,19-1.1c6.3-0.3,12.7-0.6,19-0.8c0.7,0,3-0.3,5-0.3C391.2,453.3,389.1,448.7,387.8,443.8z
	 M490.1,418c-2.5,4.5-7.2,7.3-11.1,10.7c-0.2,0.1-0.5,0.3-0.9,0.3c0.8,3.5,1.7,6.9,2.9,10.3c0.3,1,0.6,1.7,0.2,2.7
	c-2.6,6.1-8.7,10.6-13.2,15.2c5.6-0.7,11.2-0.3,16.9-0.3c0.4,0,0.6,0.1,0.7,0.2c5.5-10.1,12-19.7,15.9-30.6
	C497.5,423.9,494,420.8,490.1,418z M393.1,226.2c0,0.3,0.1,0.6,0.1,1c0.1,0.1,0.2,0.1,0,0.3c0.1,0.4,0.1,0.7,0.1,1
	c0.1,0.4-1,0.8-1.8,0.8c-1.5,1.5-2.9,3-4.2,4.5c0.1,0,0.2,0,0.3,0c3,0.5,5.4,2.7,7.2,5.1c0.1,0.1,0.2,0.2,0.2,0.3
	c0.7-0.9,1.4-1.9,2-3c1-1.7,1.7-3.3,1.4-4.6c-0.2-0.2-0.3-0.4-0.2-0.7C397.4,228.8,395.2,227.5,393.1,226.2z M380.4,228.8
	c-0.1,0.2-0.2,0.3-0.3,0.5c1.1,2.1,2.8,3.8,4.1,5.9c2-2.6,4.3-5,6.7-7.4c-0.4-3.4-1.4-9.7,2.1-10.8c0.6-0.2,1.2-0.7,0.5-0.2
	c0.5-0.4,1-0.8,1.6-1c2.8-1.2,1.4-7-0.3-6c-0.2,0.1-0.5,0.2-0.9,0.3c-0.5,0.3-1.3,0.5-1.7,0.3c-2.9-1-3.7-4.1-3.1-6.9
	c0.3-1.6,0.1-1.6-0.9-2.9c-0.3-0.5-0.9-1-1-1.7c-0.7-1.9-0.7-3.7-0.4-5.6c0-0.1,0.1-0.2,0.1-0.2l-0.2-0.2c-0.1,0-0.2,0-0.3,0.1
	c-2.7,0.2-7.8-1.3-11.2-3.8c-4.4,6.3-16.2,21.3-8.3,25.9c3.7,2.1,8.2,1.4,11.7,3.6C382.1,220.8,381.3,225.1,380.4,228.8z
	 M372.9,233.5c-0.3,3,1.6,5,3.3,7c1.5-2,2.4-4.3,4.8-5.6c-1.4-2-3-3.8-3.9-6c-0.3-0.5,0.4-1,1.1-1.1c0.1-0.4,0.2-1,0.3-1.4
	C376.4,228.5,374.5,230.9,372.9,233.5z M291.3,236.1c-0.3,0.5-0.4,1.1-0.5,1.7c-0.5,2.2-0.6,4.5-0.7,6.6c-0.1,1.4-0.4,3.5-0.2,5
	c0,0.1,0,0.1,0,0.2c0.5-0.1,1,0,0.7,0.3c0,0,0,0-0.1,0.1c1-0.1,2.1-0.2,2.2-0.2c0.4,0,0.8,0.1,1.2,0.1c0.5,0,1,0.1,1.6,0.1
	c0.6-0.5,1.7-0.5,2.1,0.2c11.1,0.9,22.3,2.5,33.4,3c5.7,0.3,11.3,0.3,16.9,1.4c3,0.7,8.2,1.3,10.3,3.8c3,3.7,3.7,9.7,4.6,14.3
	c1.4,7.2,2.5,14.4,3.7,21.7c0.4,2.8,0.9,5.7,1.5,8.4c0.3,1.7,0.5,2.6,1.3,3.3c0.2,0.1,0.3,0.2,0.3,0.3c0.4,0.3,1,0.6,1.7,1
	c9,4.3,19,5.1,28.7,3.5c4.3-1,7.7-2.1,7.7-2.1l1.5-0.3c2.1-0.7,4.1-1.4,6.1-2.3c0.9-0.3,1.8-0.9,2.8-0.9c0.3-8.3-0.1-16.8,0.2-25.1
	c0.2-5.3,0.3-10.7,1-16c0.3-3,0.5-6.5,2-9.1c3.1-5.5,8.1-10.1,11.9-15c4.5-5.9,8.9-12.4,10.9-19.7c2.3-9,2.3-18.7,2.3-27.8
	c0-2.8,0-5.6-0.1-8.3c-0.1-6.1-0.2-12.3-0.2-18.4v-0.1c-0.3-0.1-0.6-0.3-0.6-0.7c0,0.8,0.6,0.6-0.5,0.5c-0.1,0-0.1,0-0.2,0
	c-0.6,0-1.2-0.1-1.8-0.1c-2,0-4,0-5.9,0.3c-2,0.3-3.6,0.4-3.4,2.6c0.1,1.1,0.2,2.3,0.2,3.4c0.3,8.4,0.3,17-0.2,25.3s-3,15-9.1,21
	c-5.6,5.4-12.4,9.7-19.7,12.1c-1.2,0.4-2.3,0.7-3.6,1v0.1c0,0.3-0.1,0.6-0.1,0.9c-0.6,3-3.1,6.2-5,8.3c-0.3,0.4-2.1,1-2.4,0.4
	c-0.7-1.2-1.6-2.3-2.6-3.4c-1.2-1.3-2.8-2.3-4.4-2.9c-0.2,0.3-0.4,0.5-0.6,0.9c-0.2,0.3-0.4,0.5-0.6,0.9c-0.3,0.6-2.3,0.7-2.5,0.5
	c-0.3,0-0.6-0.1-0.8-0.3c-0.1-0.1-0.1-0.2-0.2-0.3c0-0.1-0.1-0.1-0.1-0.2c-0.1,0.1-0.2,0.1-0.2,0.2c-2,1.5-2.9,4.3-4.6,6.1
	c-0.4,0.4-1.7,0.9-2.2,0.3c-2-2.8-4.5-4.9-4.5-8.4c-0.1,0-0.2,0.1-0.3,0.1c-12.4,1.7-25,3.7-37.6,4c-6.6,0.1-13.3-0.3-19.9-0.8h-0.1
	c-4.1-0.3-8.1-0.5-12.2-0.9C299.4,236.7,291.5,235.7,291.3,236.1z M284.6,267.1L284.6,267.1c-0.2,0.1-0.2,0.3,0,0.4
	C284.4,267.5,284.5,267.3,284.6,267.1z M283.2,260.7c-0.6,0.1-1.2,0.1-1.6,0.2c-3.9,0.5-7.8,0.9-11.7,1.2
	c-6.7,0.6-13.4,1.2-20.1,1.7c-0.2,0-0.5,0-0.8-0.1l-4.1,5.7c0.1,0.5,0.3,1,0.3,1.3c0.3-0.1,0.4-0.1,0.6-0.2c6.3-0.8,12.7-1.1,19-1.7
	c4.4-0.4,9-0.8,13.4-1.3c1.7-0.2,3.4-0.3,5.1-0.6c0.3-0.1,0.8-0.1,1.1-0.2c-0.1-0.5-0.2-1-0.3-1.3
	C283.9,264,283.6,262.3,283.2,260.7z M237,227.7c0.3,0,0.4,0.1,0.4,0.2c1.4,7.3,2.6,14.7,4,22c0.9,4.9,1.8,9.7,2.8,14.5
	c0.1,0.6,0.3,2.3,0.5,3.8l3.9-5.5c-2-11.7-3.7-23.7-6.2-35.3c0-0.1,0-0.3,0-0.3c-1.7,0.2-3.6,0.3-5.3,0.6
	C237.1,227.7,237.1,227.7,237,227.7z M277,253.3c3.6-2,3.8-6.6,0.4-9.2c-2.8,1-5.2,1-5.4-2.1c-0.3-3.4,1.2-5.7,3.5-7
	c-4.4-0.3-9.1-1.9-13.5-1c-1.3,0.3-3,2.6-1.9,3.8c0.6,0.7,1.4,1.1,2.3,1.5c2.3,0.8,4.8,1,7.1,0.8c1.7-0.2,0.9,1.3-0.3,1.4
	c-0.3,0-0.6,0.1-1,0.1c-0.1,3.4,0.2,7.1,2.2,9.9c1.1,1.7,3.5,3.1,5.6,2.4c0.2-0.1,0.3-0.2,0.5-0.3
	C276.5,253.5,276.8,253.4,277,253.3z M279,253.2c3.3,0.9,6.2,0,8.5-2.3c-0.2-0.5-0.3-1.1-0.3-1.7c0-0.7,0-1.4,0.1-2
	c0.1-1,0.2-1.8,0.2-2.5c0.1-2.5,0-6,1.2-8.4c-0.1,0-0.2,0-0.3-0.1c-2.1-1-4.9-1.7-7.4-1.5c-0.2,0.5-2.4,1-2.5,0.5v-0.1
	c-2.3,0.8-4,2.6-4.2,5.8c-0.2,5.1,7.2-0.3,8.7-2c0.5-0.5,3-0.8,2.3,0c-0.8,0.9-3.3,2.8-5.9,4.2c0.1,0,0.1,0,0.2,0.1
	C283.9,246.3,282.6,250.9,279,253.2z M290.9,250.6c0.2-0.1,0.3-0.3,0.1-0.4C291.1,250.2,291.1,250.4,290.9,250.6z M214.3,152.8
	c-0.1,0.1-0.2,0.3-0.2,0.3c-0.3,0.7-2.9,1-2.3,0c0-0.1,0.1-0.2,0.2-0.3c-8.9,0.3-17.7,0.8-26.6,1.7c-0.3,0.3-0.8,0.5-1.2,0.5
	c-13.2,0-26.4,0-39.6,0.6l0,0c-0.3,0.6-2.8,1-2.3,0.1c-6.3,0.3-12.4,0.8-18.7,1.4c-5.5,0.6-12.2,0.4-17.2,2.8c0,0.3-0.3,0.8-1,0.9
	c-0.3,0.1-0.7,0.2-1,0.3c-2,1.4-3.6,3.4-4.3,6.3c-2.3,7.9-1.3,16.6,0.1,24.6c7.5,44,16,87.8,23.7,131.8c4.5,25.6,9,51.1,13.5,76.6
	c1.1,6.7,2.3,13.3,3.5,20c2.1,12.3,13.8,18,25.2,16.4c0.2-0.4,0.6-0.8,1.2-0.8c0.9,0,1.7,0,2.6,0c0.3-0.1,0.8-0.3,1.1-0.3
	c0.6-0.2,1-0.1,1.2,0.3c3.6-0.3,7.2-0.7,10.8-1c10.3-1,20.5-2,30.8-3c27.4-2.8,54.8-5.7,82.1-9.3c10.3-1.4,20.9-2.6,25.3-14.2
	c2.5-6.5,0.2-13.8-0.9-20.5c-4.3-27-9.2-54-14.3-81c-2.3-12.6-4.7-25.2-7.1-37.8c-1.1-5.9-2-12.2-3.7-18l0,0
	c-1.2-0.1-2.3-0.2-3.6-0.3c-0.4,0-1-0.1-1.4,0c-0.1,0-0.1,0-0.2,0c-0.2,0.1-0.3,0.1-0.4,0.2c-0.2,0.1-0.4,0.2-0.6,0.3
	c-1.5,1.2-3.1,2.1-4.9,2.6c0.3,0.1,0.4,0.3,0.4,0.5c0.3,1.3,0.5,2.6,0.8,3.9c0.2,0,0.3,0.1,0.4,0.2c0.2,0.2,0.3,0.3,0.3,0.5
	c-0.1,0.3-0.2,0.4-0.4,0.7c0.3,1.3,0.5,2.7,0.9,4c0.2,0.9,0.3,1.7,0.6,2.5c0.3,0.8,0.4,0.7-0.1,0.5c0.4,0.2,0.6,0.6,0.3,1.2l0,0
	c-0.3,0.5-1.2,0.6-1.7,0.4c-0.3-0.1-0.4-0.3-0.6-0.6c-1.2,0.3-2.6,0.3-3.4,0.3c-4.5,0.5-9.1,1-13.7,1.4c-7.3,0.7-14.7,1-22,2
	c-0.1,0-0.2,0.1-0.3,0.1c-0.5,0.4-1.7,0.8-2.2,0.4c-1.1-0.8-1.3-5.3-1.6-6.4c-1-5-1.9-10.1-2.9-15.1c-1.4-7.3-2.6-14.7-4-22
	c0.1,0,0.1,0,0.2,0c-0.2-0.1-0.1-0.3,0.6-0.6c0.1,0,0.3-0.1,0.7-0.2c-0.3,0-0.7-0.1-0.7-0.3l0,0c-0.1-0.6,1-0.9,1.5-1
	c6.3-0.8,12.7-1.1,19-1.7c4.4-0.4,9-0.8,13.4-1.3c1.7-0.2,3.4-0.3,5.1-0.6c0.5-0.1,1-0.1,1.5-0.2c0.1,0,0.2,0,0.3,0
	c0.6-0.3,1.5-0.4,1.7-0.1l0,0c0.2,0.2,0.1,0.3,0,0.4c-1,1.2-4,1.1-5.4,1.3c-4.5,0.5-9.1,1-13.7,1.4c-4.7,0.4-9.5,0.8-14.2,1.1
	c2.4,11.6,4.1,23.4,6.1,35.1c5-0.4,9.9-0.8,15-1.2c3.9-0.3,7.8-0.7,11.7-1.1c1.6-0.2,3.1-0.3,4.6-0.5c0.2,0,0.3,0,0.5-0.1
	c-0.3-1.2-0.5-2.5-0.7-3.7c-0.1-0.3,0.1-0.6,0.3-0.9c-1.7,0.3-3.6,0.3-5.3-0.3c-0.3,0.1-0.4,0.2-0.7,0.3c-2.5,0.8-5.6,0.8-7.7-1.1
	c-3.1-3-3.4-7.8-3.2-11.8c-4.7-0.3-11-2-7.4-6.6c4.1-5.1,13.7-1.4,19-1.2c0.5,0,0.7,0.2,0.7,0.3c0.2,0,0.3-0.1,0.4-0.1
	c-0.4-2.2-0.8-4.4-1.2-6.6c-0.2-0.9-0.2-1.8-0.5-2.7c-0.2-0.4,2.3-1.2,2.5-0.7c0.3,1,0.3,2.2,0.6,3.1c0.3,2.2,0.8,4.3,1.1,6.4
	c3.2-0.3,6.6,0.3,9,1.3c0.7-0.3,1.5-0.4,2.3-0.3c-0.2-9.3-2.7-18.9-4.5-27.9c-2.5-12.3-5.3-24.5-9.3-36.4c-1.3-3.8-2.5-8.3-5.6-11.2
	c-6.4-6-15.4-6.3-23.7-6.3C237.6,152.6,226,152.6,214.3,152.8z M275.9,223c-0.2,0.2-0.3,0.3-0.1,0.5
	C275.7,223.4,275.8,223.2,275.9,223z M361.1,160.1c-1,0.6-2.2,1.1-3.4,1.7c-8,3.1-17.2,0.5-24.8-2.7c-9.5-4-18.1-9.6-26.1-15.9
	c-16.8-13.3-31.7-29.5-51.3-39c-41.9-20.4-87.9,15.6-109.8,49.9c13.1-0.6,26.3-0.6,39.4-0.6c0.3,0,0.6,0.1,0.7,0.2
	c9-1,17.9-1.6,26.9-1.8c6.5-10.5,21.4-16.5,33-17.4c15.7-1.2,26.6,9.5,37.1,19.8c6.1,6,12.6,11.6,19.3,16.9
	c7,5.6,15.9,12.5,25.4,12.8C343,184.3,351.9,171.1,361.1,160.1z M395.8,142.7c-8.7,1.1-17,3.9-24,8.4c-0.3,0.3-0.5,0.5-0.8,0.8
	c-1,1-1.8,1.9-2.8,2.8c0,0.1-0.1,0.3-0.3,0.4c-7.5,7.7-13.7,17.9-22.6,24.3c1.4-0.7,2.9-1.3,4.2-2c5.8-3,11.7-5.8,17.4-8.9
	c5.9-3.1,11.9-6.3,16.9-11C388.4,153,392,147.8,395.8,142.7z M207.5,140.4c-7.1-0.2-13.2-3.5-19.2-7c-2.7-1.6-5.7-3.7-8.9-3.4
	c-1.1,0.1-2.2,1.4-0.4,1.1c1.7-0.2,3.9,1.4,5.3,2.2c2.2,1.2,4.3,2.5,6.5,3.7c4.9,2.7,10.1,4.3,15.7,4.5
	C207.2,141.6,209.1,140.5,207.5,140.4z M201.3,147.1c-7,0-14.1-0.6-21-1.2c-4.8-0.3-10.1-1.3-14.9-0.5c-1.3,0.2-2,2-0.3,1.7
	c4.6-0.7,9.7,0.2,14.3,0.5c7,0.5,14,1.1,21,1.2C201.5,148.8,202.9,147.1,201.3,147.1z M216.3,133.2c-6.4-1.9-11.8-5.6-17.1-9.6
	c-2.1-1.7-5.2-4.6-8.2-3.5c-1.5,0.5-1,2.3,0.4,1.7c2.3-0.8,7.4,4.4,9,5.7c4.4,3.2,9.1,5.8,14.4,7.4
	C216,135.3,217.9,133.6,216.3,133.2z M226.5,128c-1.5-0.2-3.2-2.3-4.2-3.3c-2-2-3.8-4.1-5.6-6.3c-1.6-1.8-3-3.7-4.5-5.7
	c-0.3-0.4-2.4-3-2.3-3.3c0.3-1-2.2-0.6-2.5,0.3c-0.3,0.8,1.5,2.6,1.8,3.1c1.8,2.5,3.7,4.9,5.7,7.2c2.4,2.9,6.4,9,10.6,9.4
	C226.6,129.7,228.2,128.2,226.5,128z M227.3,104.1c-0.3-1-2.9-0.3-2.5,0.7c2.6,7.5,7,14.3,9.6,21.7c0.3,1,2.9,0.3,2.5-0.7
	C234.3,118.4,229.9,111.6,227.3,104.1z M249,107.6c-0.1-0.7-2.6-0.2-2.5,0.7c1,5.9,2.7,11.7,4.3,17.4c0.3,0.8,2.7,0.1,2.5-0.7
	C251.7,119.3,250,113.6,249,107.6z M263,117.9c1.8,4.8,2.6,9.7,3.5,14.8c0.2,0.9,2.7,0.3,2.5-0.7c-0.9-5-1.7-10-3.5-14.8
	C265.2,116.3,262.8,117,263,117.9z M279.6,128c-0.1,4.3-0.8,8.7-0.9,13c0,1.2,2.5,0.9,2.5-0.3c0.1-4.3,0.8-8.7,0.9-13
	C282.2,126.6,279.6,127,279.6,128z M290,136.7c-1,4.7-1.7,9.4-0.9,14.2c0.2,1.2,2.7,0.5,2.5-0.7c-0.8-4.6,0-9.1,0.9-13.7
	C292.8,135.3,290.3,135.6,290,136.7z M297.8,145.4c0,4.6,0,9.3,0,13.9c0,1.3,2.5,0.9,2.5-0.3c0-4.6,0-9.3,0-13.9
	C300.3,144,297.8,144.4,297.8,145.4z M307.4,152.4c0,5.2,0,10.4,0,15.7c0,1.2,2.5,0.8,2.5-0.3c0-5.2,0-10.4,0-15.7
	C309.9,150.9,307.4,151.4,307.4,152.4z M317,157.9c0,4.6,0,9.2-0.9,13.7c-0.2,1,2.3,0.5,2.5-0.3c0.9-4.6,0.9-9.4,0.9-14.1
	C319.5,156.5,317,156.9,317,157.9z M328.3,162c-0.9,5.5-1,11-1.7,16.5c-0.2,1.3,2.4,1,2.5-0.2c0.7-5.5,0.9-11,1.7-16.5
	C331.1,160.5,328.4,160.8,328.3,162z M338.7,164.7c-1,3.7-1.7,7.6-1.7,11.5c0,0.6,2.5,0.2,2.5-0.7c0.1-3.7,0.9-7.5,1.7-11.1
	C341.4,163.6,338.9,164,338.7,164.7z M444.7,122.4c-11.6,4.5-22.6,10.9-35,12.9c-1,0.2-2.2,1.4-0.4,1c12.9-2.1,24.4-8.5,36.4-13.2
	C447.3,122.5,445.8,122,444.7,122.4z M432.3,142.2c12.5-3.7,23.6-10.7,35.4-15.8c1.5-0.7-0.9-0.5-1.4-0.3
	c-11.5,5-22.1,11.8-34.2,15.5C430.6,142,430.8,142.7,432.3,142.2z M447.1,149.8c8.2-7,18.4-10.2,27.6-15.5c1.5-0.9-0.8-0.9-1.5-0.5
	c-9.3,5.4-19.8,8.7-28.1,15.8C444.1,150.5,446.6,150.2,447.1,149.8z M461.9,156.1c6.6-7.1,15.7-10.9,24.1-15.5
	c1.5-0.8-0.7-1.2-1.6-0.8c-8.5,4.7-17.9,8.5-24.6,15.8C458.8,156.7,461.3,156.7,461.9,156.1z M465.9,166.4
	c10.3-5.5,21.8-9.1,30.9-16.8c0.5-0.5-1.8-0.3-2.3,0.2c-8.7,7.5-20,11-30,16.3C463,166.8,465.3,166.8,465.9,166.4z M192.8,204.4
	c-1.2,0.1-2.3,0.1-3.6,0.2c-0.1,0-0.3-0.1-0.3-0.2c-3.1-3.3-6.2-6.7-9.3-10c-0.6-0.6-1-1.2-0.9-2.1c0-0.3,0-0.7,0-1c0.3,0,0.6,0,1,0
	c1.9,0,3.8-0.3,5.6-1.2c1.3-0.7,2.2-1.8,2.3-3.3c0-0.1,0-0.3,0-0.3s0-0.2,0-0.3c-3.3,0.2-6.5,0.3-9.9,0.4c0.4-0.7,0.9-1.3,1.2-2
	c0.2-0.4,0.5-0.5,1-0.5c2.3-0.1,4.6-0.2,6.9-0.3c0.2,0,0.3,0,0.5,0c-0.2-0.3-0.3-0.4-0.3-0.6c-1-1.1-2.2-1.7-3.6-1.7s-2.9,0-4.3,0
	c-0.4,0-0.9,0-1.4,0.1c0.5-0.9,1-1.7,1.5-2.3c0.1-0.1,0.3-0.1,0.3-0.1c3-0.2,6.1-0.3,9.1-0.4c2.2-0.1,4.3-0.2,6.5-0.3
	c0.2,0,0.3,0,0.5,0c-0.1,0.1-0.1,0.2-0.1,0.3c-0.3,0.7-0.8,1.3-1.1,2c-0.1,0.2-0.3,0.3-0.4,0.3c-1.4,0.1-2.7,0.1-4,0.2
	c0.4,0.9,1,1.7,1.5,2.7c1.5-0.1,3-0.2,4.6-0.2c-0.5,0.9-1,1.7-1.4,2.4c-0.1,0.1-0.2,0.1-0.3,0.1c-0.8,0.1-1.6,0.1-2.3,0.2
	c-0.3,0-0.4,0.1-0.4,0.4c-0.4,2.5-1.8,4.3-4.1,5.3c-0.6,0.3-1.3,0.5-2,0.7c-0.7,0.2-1.4,0.3-2.1,0.4c0.2,0.2,0.3,0.3,0.4,0.5
	c3,3.5,6.1,6.9,9.1,10.3c0.2,0.2,0.2,0.4,0.3,0.6C192.8,204.2,192.8,204.3,192.8,204.4z M223.5,202.8c-1.2,0.1-2.3,0.1-3.6,0.2
	c-0.1,0-0.3-0.1-0.3-0.2c-3.1-3.3-6.2-6.7-9.3-10c-0.6-0.6-1-1.2-0.9-2.1c0-0.3,0-0.7,0-1c0.3,0,0.6,0,1,0c1.9,0,3.8-0.3,5.6-1.2
	c1.3-0.7,2.2-1.8,2.3-3.3c0-0.1,0-0.3,0-0.3s0-0.2,0-0.3c-3.3,0.2-6.5,0.3-9.9,0.4c0.4-0.7,0.9-1.3,1.2-2c0.2-0.4,0.5-0.5,1-0.5
	c2.3-0.1,4.6-0.2,6.9-0.3c0.2,0,0.3,0,0.5,0c-0.2-0.3-0.3-0.4-0.3-0.6c-1-1.1-2.2-1.7-3.6-1.7c-1.4-0.1-2.9,0-4.3,0
	c-0.4,0-0.9,0-1.4,0.1c0.5-0.9,1-1.7,1.5-2.3c0.1-0.1,0.3-0.1,0.3-0.1c3-0.2,6.1-0.3,9.1-0.4c2.2-0.1,4.3-0.2,6.5-0.3
	c0.2,0,0.3,0,0.5,0c-0.1,0.1-0.1,0.2-0.1,0.3c-0.3,0.7-0.8,1.3-1.1,2c-0.1,0.2-0.3,0.3-0.4,0.3c-1.4,0.1-2.7,0.1-4,0.2
	c0.4,0.9,1,1.7,1.5,2.7c1.5-0.1,3-0.2,4.6-0.2c-0.5,0.9-1,1.7-1.4,2.4c-0.1,0.1-0.2,0.1-0.3,0.1c-0.8,0.1-1.6,0.1-2.3,0.2
	c-0.3,0-0.4,0.1-0.4,0.4c-0.4,2.5-1.8,4.3-4.1,5.3c-0.6,0.3-1.3,0.5-2,0.7c-0.7,0.2-1.4,0.3-2.1,0.4c0.2,0.2,0.3,0.3,0.4,0.5
	c3,3.5,6.1,6.9,9.1,10.3c0.2,0.2,0.2,0.4,0.3,0.6C223.5,202.7,223.5,202.7,223.5,202.8z M254.8,201.5c-1.2,0.1-2.3,0.1-3.6,0.2
	c-0.1,0-0.3-0.1-0.3-0.2c-3.1-3.3-6.2-6.7-9.3-10c-0.6-0.6-1-1.2-0.9-2.1c0-0.3,0-0.7,0-1c0.3,0,0.6,0,1,0c1.9,0,3.8-0.3,5.6-1.2
	c1.3-0.7,2.2-1.8,2.3-3.3c0-0.1,0-0.3,0-0.3c0-0.1,0-0.2,0-0.3c-3.3,0.2-6.5,0.3-9.9,0.4c0.4-0.7,0.9-1.3,1.2-2
	c0.2-0.4,0.5-0.5,1-0.5c2.3-0.1,4.6-0.2,6.9-0.3c0.2,0,0.3,0,0.5,0c-0.2-0.3-0.3-0.4-0.3-0.6c-1-1.1-2.2-1.7-3.6-1.7
	c-1.4-0.1-2.9,0-4.3,0c-0.4,0-0.9,0-1.4,0.1c0.5-0.9,1-1.7,1.5-2.3c0.1-0.1,0.3-0.1,0.3-0.1c3-0.2,6.1-0.3,9.1-0.4
	c2.2-0.1,4.3-0.2,6.5-0.3c0.2,0,0.3,0,0.5,0c-0.1,0.1-0.1,0.2-0.1,0.3c-0.3,0.7-0.8,1.3-1.1,2c-0.1,0.2-0.3,0.3-0.4,0.3
	c-1.4,0.1-2.7,0.1-4,0.2c0.4,0.9,1,1.7,1.5,2.7c1.5-0.1,3-0.2,4.6-0.2c-0.5,0.9-1,1.7-1.4,2.4c-0.1,0.1-0.2,0.1-0.3,0.1
	c-0.8,0.1-1.6,0.1-2.3,0.2c-0.3,0-0.4,0.1-0.4,0.4c-0.4,2.5-1.8,4.3-4.1,5.3c-0.6,0.3-1.3,0.5-2,0.7c-0.7,0.2-1.4,0.3-2.1,0.4
	c0.2,0.2,0.3,0.3,0.4,0.5c3,3.5,6.1,6.9,9.1,10.3c0.2,0.2,0.2,0.4,0.3,0.6C254.9,201.5,254.9,201.5,254.8,201.5z"/>
</svg>
