<?xml version="1.0" encoding="utf-8"?>
<!-- Generator: Adobe Illustrator 25.4.1, SVG Export Plug-In . SVG Version: 6.00 Build 0)  -->
<svg version="1.1" id="Layer_1" xmlns="http://www.w3.org/2000/svg" xmlns:xlink="http://www.w3.org/1999/xlink" x="0px" y="0px"
	 viewBox="0 0 595.3 595.3" style="enable-background:new 0 0 595.3 595.3;" xml:space="preserve">
<style type="text/css">
	.st0{fill:#761214;}
	.st1{fill:#231F20;}
</style>
<path id="color_x5F_2" class="st0" d="M567.3,424l-18,33.7L525,457l9.4-7.8l7.1-6.3l3.1-8.6l-80.8-13.3l31.4-38.4L567.3,424z
	 M269.4,407.7l-3.3,0.6l41.6,40l-32.2,14.9h66.7l-33.7-62.8L269.4,407.7z M373.5,228.6c-7.1-7.1-29.8-1.6-37.7,4.7
	c-7.8,6.3-3.1,14.1-3.1,14.1l9.4,11.8l4.7,11.8l29,33l9.4,17.3l11,6.3l9.4-5.5c0,0,11-5.5,11.8-11.8c0.8-6.3-23.5-43.2-23.5-43.2
	S380.6,235.7,373.5,228.6z"/>
<path id="color_x5F_1" class="st1" d="M238.4,225.7c0.3,0.6-1.2,0.6-1.4,0.6c-0.5,0-1-0.1-1.5-0.2c-0.2-0.1-0.8-0.2-0.9-0.4
	c-0.5-0.9-1.1-1.7-1.6-2.6c-0.3-0.6,1.2-0.6,1.4-0.6c0.5,0,1,0.1,1.5,0.2c0.2,0.1,0.8,0.2,0.9,0.4
	C237.2,223.9,237.9,224.7,238.4,225.7z M257.4,258.5c-0.9-0.2-1.8-0.3-2.7-0.2c-1.3,0.2-2.7-0.9-3.8-1.6c-0.6-0.5-1.6-0.5-2.4-0.5
	c-0.1,0-1.7,0-1.4,0.2c3.1,2.2,7.1,3.2,10.9,2.6C258.8,258.9,257.5,258.5,257.4,258.5z M280.2,247.6c1.2,0,2.4,0.4,3.2,1.3
	c0.6,0.6,1.6,0.3,2.3-0.2c0.4-0.3,1.6-1.5,0.9-2c-1.4-1.3-3.1-1.9-5.1-1.9c-0.9,0-1.9,0.8-2.3,1.6C279,247,279.4,247.5,280.2,247.6z
	 M295,245.1c0.9,0.1,1.6-0.7,1.3-1.6c-0.5-1.4-1.4-2.8-1.5-4.3c0-0.9-0.9-1.8-1.8-2c-0.8-0.2-1.8,0.1-1.7,1c0.1,1.9,1,3.4,1.6,5.1
	C293.2,244.3,294,245,295,245.1z M319.4,284.1c-0.1,1.3,3.6,2.1,3.7,1.4c0.5-7.5-0.8-15.8-5.3-21.9c-0.6-0.8-4.2-1.6-3.5-0.5
	C318.6,268.9,319.9,277.1,319.4,284.1z M543.5,434.8c-13.7-2.7-27.9-2.6-41.7-5.3c-13.6-2.7-27.3-4.2-41-6.1
	c-1.2-0.2-2.5-1.1-1.6-2.4c0.9-1.3,1.9-2.6,2.8-3.8c-7.1,2.4-14-2.8-19.8-6.7c-9.3-6.4-20.5-10.6-31.2-13.8
	c-10.2-3.1-21-6-31.1-10.1c-1.4,11.4-12.5,21.7-20.5,28.7c-5.5,4.8-11.3,9.3-17.5,12.9c-3.8,2.3-8.1,4.6-12.5,5.5
	c4.6,9.4,8.9,18.8,14,27.9c0.6,0.4,1.1,0.8,0.9,0.9l0,0c9.6,0,19.1,0,28.6,0c1,0,2.7,3.1,2.1,3.1c-21.2,0-42.4,0-63.6,0
	c-0.4,0-0.8,0-1.3,0c-7.8,0.2-15.6,0.3-23.4,0.1c-1.9-0.1-3.8-0.1-5.8-0.2c-9.7,0-19.5,0-29.3,0c-1,0-2.7-3.1-2.1-3.1
	c7.3,0,14.6,0,21.9,0c5.9-3.4,12.2-5.8,18.4-8.4c3.5-1.4,6.9-2.8,10.2-4.5c0.6-0.3,5.3-2.2,4.2-3.3c-1.2-1.3-2.4-2.5-3.5-3.8
	c-0.9-0.9-1.9-1.9-2.8-2.7c-0.2,0.2-0.5,0.2-0.6,0.2c-12.9,0.9-25-8.2-33.6-16.9c-5-5-9.3-10.9-13.7-16.4
	c-5.1-6.3-10.1-12.6-15.1-18.8h-0.1c0.1,0.1-0.1,0.2-0.5,0.2c-0.3,0.1-0.5,0.2-0.9,0.2c-0.8,0.2-2,0.1-2.7-0.5
	c-0.5-0.4-0.2-0.7,0.3-0.9c-4.5-4-8.6-8.3-12.7-12.6c-4.5-4.5-8.5-8.6-9.6-10.5c-0.3-0.3-0.6-0.6-0.9-0.9c-0.5-0.2-1-0.4-1.5-0.7
	c-6.8,4.8-14.9,7-22.8,2.7c-0.2-0.1,0-0.2,0.3-0.5c-5.6-3.5-11.1-8.5-7.1-15.4c0.2-0.4,0.8-0.7,1.3-0.9c-1.4-4.1-1-8.1,1.6-11.6
	c0.6-0.8,2-0.5,2.6,0.1c0.9,1.1,1.8,1.6,2.7,1.8c-0.4-0.5-0.8-0.9-1-1.2c-3.2-3.3-6.4-6.6-9.5-9.9c-17.5-18.4-34.8-37.2-51.6-56.3
	c-8.1-9.2-16.2-18.4-23.9-27.9c-3.9-4.9-8.3-9.9-11.5-15.5l-0.8-0.9c-0.3,0.2-0.6,0.4-0.9,0.6c-2,1.3-4.2-1.5-2.1-2.9
	c0.5-0.3,1-0.7,1.6-1l-0.2-0.8l1.6-0.2c0.5-0.4,1.1-0.7,1.6-1.1c0.7-0.5,1.4-0.4,2-0.1c0.2,0,0.2-0.1,0.4-0.1c0.1-1.3,2.9-1,3.6,0.5
	c1.5,3.1,3.5,6.1,5.6,9l81.7,92c0.7,0.7,1.4,1.5,2.1,2.2c2,2.1,4.1,4.2,6.1,6.4c3.3-6,14.3,1,16.3,7.5c1.3-0.5,2.9-0.6,4.8-0.5
	c3.1-7.5,13.7-8.7,21.1-11.4c13.4-4.8,24.1-14.8,31.3-26.8c4.7-7.8,7.5-16.6,11.5-24.8c-0.3-0.1-0.5-0.2-0.5-0.3
	c0-5.9-0.8-12.8,3-17.7c-0.2-0.1-0.3-0.1-0.4-0.2c-0.5-0.3-1-0.6-1.5-0.9c-0.2,0.2-0.4,0.4-0.6,0.5c-6.7,4.8-19.9,15.5-28.4,8.3
	c-5.7-4.8-8.2-13.4-10.8-20.1c-3.1-7.8-6.1-15.5-10.5-22.6c-0.1-0.2-0.2-0.4-0.1-0.5c-0.2-0.4,0.1-0.9,0.9-1.4
	c5.2-3.1,10.8-5.4,16.5-7.6c-7.8-8.9,3.2-22.2,10.6-27.6c10.8-7.9,29.4-7.7,40.6-0.5c8.8,5.6,10.9,16.4,12.5,26.1
	c1.6,9.9,2.9,23.2,14.5,26.1c0.9,0.2,1.9,1.3,2,2c2.8,1.3,5.5,2.9,8.1,4.9c-0.9-5.4,2.7-9.7,7.6-12.9c-1-1.4-2-2.8-3-4.3
	c-0.4-0.5-0.4-1.1-0.3-1.6c-0.9-0.5-0.9-1.6,0.6-2.1c5-1.6,9.4-4.5,14.2-6.7c0.3-0.2,0.7-0.2,1-0.2c0.8-0.8,2.9-0.4,3.4,1
	c0.9,2.4,2.5,4.3,4.3,6.1c4.9-1,9.7-1.2,14,2.1c6,4.6,9.9,11.5,13,18.3c4,8.6,7.1,17.7,11.6,26.1c4.9,9,10.4,17.7,15.7,26.4
	c3.2,5.3,9.2,14.4,5.2,20.8c-2,3.2-5.1,5-8.5,6.5c-3.5,1.6-6.7,3.1-9.6,5.6c5.8,3.8,11.5,7.7,17.2,11.8c10.6,7.5,21,15.5,32.3,21.8
	c10.7,6,22.2,10,33,15.6c1.6,0.9,5.9,4.1,7.8,6.9c0.5-0.9,1.1-1.9,1.6-2.9c0.2-0.4,0.5-0.6,0.9-0.8c0.2-1,1.5-1.4,2.6,0
	c0.8,1,1.8,2,2.8,3l42.7,24.6c6.2,3.2,12.4,6.4,18.7,9.6c2.3,1.1,4.5,2.3,6.7,3.4c0.4,0.2,0.9,0.4,1.3,0.6c0.9-0.2,1.9,0.1,2.4,0.8
	c1.2,1.6-0.9,4-1.6,5.3c-2.2,3.8-4.4,7.8-6.7,11.6c-2.4,4-4.7,8.1-7.1,12.1c-1,1.7-2,3.8-3.3,5.3c-0.3,0.3-0.9,0.4-1.4,0.3l-0.5,0.9
	l-3.8-0.2c-7.2,1.2-14.6,0.1-21.9,0c-1.7,0-1.7-1-0.9-1.7c-0.2-0.4-0.1-0.9,0.6-1.4c3.9-2.7,7.9-5.6,12.3-7.5l4.9-4.4
	c0.4-0.9,0.8-1.6,1.2-2.5l2-5.6C543.8,434.9,543.6,434.9,543.5,434.8z M527.2,455.8c6.7,0.3,13.7,1.3,20.3-0.5
	c0.2-0.1,0.4-0.1,0.5-0.1c0-0.2,0.1-0.4,0.2-0.6c0,0,0,0-0.1,0c0.8-0.8,2.3-3.7,3.1-5.2c2.2-3.6,4.3-7.3,6.4-10.9
	c2.1-3.6,4.2-7.2,6.3-10.8c0.6-1.1,1.3-2.3,1.9-3.4c-0.5-0.2-1-0.5-1.6-0.8c-2.7-1.4-5.6-2.8-8.3-4.2c-8.1-4.1-16.1-8.2-24-12.4
	c-8.4-4.5-16.8-9-24.9-14c-4.2-2.6-8.9-5.3-12.3-8.9c-5.4,9.8-13.6,17.3-21.3,25.3l-9.1,11.1l5.1,0.9c11.1,1.5,22.4,2.9,33.4,5.1
	c13.7,2.8,27.9,2.6,41.7,5.3c0.2,0,0.2,0.1,0.3,0.1c0.3-0.9,0.5-1.8,0.9-2.7c0.6-2.2,4.5-1.3,3.8,0.9c-1.6,5.2-3.1,10.3-5.6,15.1
	c1.3,0.5,1.2,2.1-0.7,2.5C537.2,448.8,532.2,452.3,527.2,455.8z M538,446.5c0.8-0.3,1.6-0.5,2.4-0.8c-0.2-0.3-0.3-0.6-0.3-1
	L538,446.5z M549.1,457.4L549.1,457.4L549.1,457.4L549.1,457.4z M279,268.3c-0.2,0.2-0.4,0.4-0.4,0.4s0.2-3.4,0.6-7
	c-0.5,2.4-0.7,4.7-0.6,7.1C278.7,268.7,278.9,268.4,279,268.3z M346.4,220.6c-0.8,0.4-1.6,0.8-2.4,1.2c1.5,1.2,2.7,2.5,3.8,4.1
	c0.8-0.3,1.6-0.5,2.3-0.8c-1.1-1.5-2.2-3-3.5-4.3C346.5,220.7,346.5,220.7,346.4,220.6z M359.5,225.8c-0.4,0.1-0.8,0.2-1.2,0.3
	c-7.6,2-28.3,7.9-22.8,19.5c0.3,0.6,0.2,1.1-0.2,1.5c3,2.8,5.7,5.9,8.1,9c0.2,0.2-0.1,0.4-0.4,0.6c2,3.2,4.3,6.7,4.5,10.4
	c0.1,0,0.2,0.1,0.2,0.1c1.3,4.3,5.2,8.2,8,11.5c4.5,5.3,9.1,10.3,13.7,15.5c4.1,4.7,8.4,9.5,11.7,14.8c0.6,1,1.5,2.4,2.2,3.8
	c0.4,0.2,0.7,0.5,0.9,0.9c1,2.4,2.4,4.6,4.1,6.6c1.3-0.2,2.4,0.2,1.6,1.5c-0.1,0.1-0.1,0.2-0.2,0.2c2.4,1.4,4.9,2.9,7.3,4.4
	c2.4-2,4.9-3.6,7.8-4.9c1.5-0.7,3.2-1.3,4.9-2.2c1.6-1.1,3.4-2.5,4.9-4.1c3.5-6-2.4-14.4-5.5-19.4c-4.7-7.8-9.7-15.4-14-23.4
	c-4.1-7.5-7.3-15.4-10.6-23.3c-2.7-6.5-5.7-13.5-10.5-18.8c-1.1-1.2-2.4-2.4-3.8-3.5c-2-0.8-4.6-1.2-7.7-1.2
	C361.4,225.7,360.5,225.7,359.5,225.8z M382.9,318.7c-0.2,0.3-0.5,0.5-0.7,0.8c0.3-0.2,0.6-0.2,1-0.3
	C383.1,319,383,318.9,382.9,318.7z M343.3,264c-0.5-1.6-1.4-3.1-2.4-4.6c0.2,0.9,0.5,1.7,0.7,2.5C342.3,262.5,342.8,263.2,343.3,264
	z M312.8,305.5c-0.1,0.2-0.2,0.3-0.2,0.5L312.8,305.5C312.8,305.5,312.8,305.5,312.8,305.5z M365.4,225.1c-0.2,0-0.4,0-0.5,0
	c0.4,0,0.7,0.1,1.1,0.1C365.8,225.1,365.6,225.1,365.4,225.1z M349.4,219.1c1.5,1.5,2.7,3.2,4,4.9c0.6-0.2,1.3-0.3,1.8-0.5
	c-1.5-1.6-2.8-3.4-3.8-5.4C350.7,218.5,350,218.8,349.4,219.1z M341.5,228.6c1.5-0.8,3-1.4,4.5-2c-0.1-0.1-0.1-0.1-0.2-0.2
	c-0.9-1.4-2-2.5-3.5-3.5c-0.1-0.1-0.2-0.2-0.3-0.2c-1.2,0.5-2.4,1.1-3.7,1.5C339.4,225.7,340.5,227.2,341.5,228.6z M244.9,211.5
	c2.8-1,5.6-2.1,8.3-3.2c-0.2-0.5,0-0.9,0.5-1c6.8-0.9,14.9-8,19,1.4c3.1,7.3-6,9.1-11,11.5c0.2,0.3,0.3,0.7,0.5,1
	c4.4,10.4,8.6,21.3,14.5,31.2c1.2,0.6,2.4,1.3,3.6,2l0,0c6.5-5.6,14.9-8.5,22.7-12.1c-2.4-4.3-4-9.1-3.6-14.1
	c0.2-2.3,4.1-1.9,3.9,0.4c-0.3,4.3,1.2,8.4,3.1,12.2c1.8-0.9,3.8-1.7,5.7-2.4c0.8-0.4,1.4-0.8,1.8-1c0.6-0.4,1.2-0.5,1.7-0.7
	c-14.5-8.3-10-30.1-17.3-43.9c-2.9-5.3-7.1-8.3-13-9.7c-8.2-1.9-17.7-2.2-25.3,1.8c-5.2,2.7-9.5,7-12.6,11.8
	C244.7,200.9,241.5,207.1,244.9,211.5z M264.8,243.7c-1.1,2.6-3.4,4.6-6,5c0.2,0.3,0.5,0.6,0.8,0.9c3.6,3.8,7,3.1,10.2-0.9
	c0.1-0.2,0.2-0.2,0.3-0.3c-3-5.8-5.6-11.9-8.1-18c0,0.2-0.2,0.3-0.4,0.4c-2.9,0.6-5.6-0.5-7.3-2.9c-0.2-0.4-0.9-1.6-0.1-1.8
	c0.8-0.2,1.6,0.8,2,1.3c0.1,0.1,0.2,0.2,0.4,0.2c0.2,0.1,0.5,0.2,0.9,0.2c0.7,0.1,1.3,0,2-0.2c0.5-0.2,1.3,0.5,1.9,1.1
	c-0.1-0.2-0.2-0.5-0.3-0.7c-1.4-3.3-2.8-6.7-4.2-10c0,0.5-0.1,1-0.5,1.3c-1.4,1-2.7,2.2-4.2,3.1c-0.8,0.5-1.8-0.5-2.1-1.1
	c-0.4-0.8-0.5-1.8,0.3-2.4c1.4-1,2.7-2.2,4.2-3.1c0.6-0.4,1.3,0.1,1.8,0.6c-0.2-0.3-0.2-0.6-0.4-0.9c-0.2-0.6-1.7-3.9-2.1-4.9
	c-2.7,1.1-5.5,2.1-8.2,3.1c0.6,0.5,1.3,1,1.3,1.6c0.8,3.5,2.6,6.5,3.8,9.8c0.8,2,2.6,6.4,1.2,8.6c-1.1,1.6-3.5,2.2-4.4,4
	c-1.7,3.5,1.6,3.1,3.8,2.2c0.4-1.2,2-1.6,2.7,0.2c0.2,0.4,0.4,0.8,0.5,1.2c0.4,0.5,0.6,0.9,0.5,0.9l-0.1,0.1c0.7,1.5,1.5,3,2.4,4.3
	c0.5-0.2,0.9-0.2,1.4-0.2c1.6,0.2,2.1-0.9,2.7-2.3c0.3-0.8,1.5-1.3,2.3-1.4C264.3,242.8,265.2,242.9,264.8,243.7z M260.4,216.6
	c3.5-1.3,9-2.7,9.9-6c1.3-4.8-4.6-3.7-6.9-2.7c-1.9,0.8-3.8,1.6-5.8,2.2C258.6,212.3,259.4,214.5,260.4,216.6z M273.6,254.9
	c-0.1-0.1-0.1-0.2-0.2-0.2c-0.3-0.2-0.6-0.3-0.9-0.5c-0.5-0.3-0.5-0.9-0.2-1.4c-0.2-0.2-0.3-0.5-0.4-0.7c-7.9,9.5-15.8-0.5-19.7-8.5
	c-1.7,0.3-3.5-0.2-5-1.7c-1.4-1.3-3.8-4.1-2.8-6.2c1.8-3.8,5.9-3.1,4.9-8.5c-0.9-4.6-3.5-8.5-4.9-12.8c-5.2,2-10.3,4.1-15,6.7
	c3.6,6,6.3,12.4,8.9,18.9c2.4,6.2,4.6,13.1,8.4,18.8C254,269.8,265.7,260.4,273.6,254.9z M205.1,351.9c0.5,2.6,2.7,9.7,6.3,8.4
	c-0.2-0.1-0.5-0.1-0.8-0.2c0.2,0,1.5-0.7,2.6-1l0.3-0.2l0.2,0.2c0.1,0,0.1,0,0.2,0c0.6-0.2,1.4-0.2,2,0.4c21.2,4.8,42.5-0.3,60.1-13
	c11.2-8.2,20.6-18.6,27.9-30.4c-0.1-0.2-0.2-0.2-0.3-0.4c-0.9-1,0.6-2.3,2-2.4c2-3.5,3.8-7,5.3-10.6c-0.1-0.1-0.2-0.2-0.2-0.3
	c-0.1-0.2,0.2-0.5,0.7-0.8c0.5-1,0.9-2.1,1.3-3.2c0.4-1,3.8-0.7,3.8-0.9c-0.5,1.4-1.1,2.7-1.7,4.1c7.8,11.6,19.7,20.8,33.8,22.5
	c3.1,0.4,6.3,0.6,9.4,0.7c9.3-0.8,18.1-2.7,18.1-2.7l1.4-0.5c1.1-0.7,2-1.6,2.7-2.7c0.1-0.2,0.2-0.2,0.4-0.4c-0.5,0-0.9,0-1,0.1
	c2.2-2.7-1.5-7.8-3-10c-3.6-5.3-7.8-10.2-12.2-15.1c-4.5-5.1-9.1-10.1-13.5-15.3c-1.8-2.1-4-4.5-5.5-7.1c-0.7-0.2-1.4-0.6-1.7-1.1
	c-4.8-7.6-11.6-16.5-20.5-19.6c-4.6-1.6-9.9-2.1-14.9-1.2c0.1,0.2,0,0.3,0,0.3c-12.4,4.4-22,12.4-28.2,24c-5.1,9.5-8,20-13.7,29.2
	c-7.2,11.7-17.3,21.8-30.5,26.5c-8.9,3.1-22.8,4.2-22.7,16.4c0,0.4-2.7-1.6-2.7-2.7c0-0.9,0.1-1.9,0.2-2.7c-0.2,0.1-0.5,0.1-0.7,0.1
	C204.3,339.8,204.3,348.1,205.1,351.9z M235.6,384.4c-1-0.9-2-1.8-3.1-2.7l2.7,3.2C235.3,384.8,235.5,384.6,235.6,384.4z
	 M205.5,360.9c-4.7-4.4-6.5-15-2.2-20.2c-0.1-0.2-0.2-0.3-0.2-0.5c-0.2-2.9-2.7-5.7-4.9-7.4c-1-0.8-2.4-1.7-3.7-1.8
	c-0.9-0.1-1.1,2.1-1.1,2.6c0,0.1,0,0.1,0,0.1c0.1,0.1,0.2,0.2,0.3,0.3c0.2,0.2,0.4,0.3,0.5,0.5c-0.2-0.1-0.5-0.2-0.9-0.2
	c-0.1,0-0.2,0.1-0.2,0.1c0.9,0.2,2,0.9,2.3,1.7c0.1,0.3,0,0.5-0.2,0.8c-0.2,0.5-0.7,0.5-1.2,0.5c-0.1,0.1-0.2,0.2-0.2,0.3
	c-3.2,4-8.1,5.4-11.9,2.5c-1.1,2.3-0.8,4.7,0.2,7.2c0.6,1.6-0.9,2.4-2.1,2c-2.2,5.7,3.1,9.7,7.8,12.5c0.4,0.2,0.4,0.6,0.1,1
	C194.2,366.5,200,365.3,205.5,360.9z M295.7,437.2c-9.3-8.7-19.1-16.8-28.1-25.8c-0.9-0.2-1.6-0.9-1.6-1.9c0-0.3,0.1-0.5,0.2-0.8
	l0,0l-0.2-0.8l0.8-0.2c0.2-0.2,0.3-0.3,0.5-0.5c-7.5-1.7-14.3-6.4-16.2-14.3c-2.1-8.4,0.2-17.1,5.3-24c7.5-10.3,19.9-13.6,31.2-17.9
	c4.3-1.6,8.9-2.7,13.3-4.2c4.2-1.4,10.3-3.4,11.8-8c0.2-0.5,0.5-0.8,0.9-1c-3.8-5-7.3-10.4-10.3-15.9c-0.1-0.1-0.1-0.2-0.1-0.2
	c-19.6,27.1-51.3,45-85.3,39.9c6.9,7.5,13.7,15.1,21.7,21.5c1.2,0.9,0.5,2.1-0.5,2.6c-0.1,0.1-0.2,0.2-0.2,0.2
	c4.9,6.1,9.9,12.3,14.8,18.4c4.3,5.3,8.5,11.1,13.3,15.9C274.3,428,284.5,436.2,295.7,437.2z M308.8,447.8c0.2,0.2,0.3,0.3,0.1,0.4
	c-6.1,3.8-12.9,6.4-19.5,9l-11,5.1c19.1,0,38.3,0,57.4,0c1.5-0.2,3-0.5,4.2-1c-4.1-7.3-7.8-14.8-11.4-22.4l-20.2-37.7
	c-0.1-0.1-0.2-0.2-0.2-0.3l-20.1,3.7c-0.2,0.1-0.5,0.1-0.7,0.2c-4.1,1-8.2,2-12.2,3.3c-1.4,0.5-2.8,0.9-4.2,1.6
	c-0.7,0.3-1.3,1.1-1.3,0.4c0,0.2-0.1,0.5-0.2,0.6c9.1,9.4,19.4,17.7,28.9,26.6c0.5,0,0.9,0,1.4-0.1c0.7-0.1,0.4,0.5-0.2,1.2
	C302.8,441.5,305.9,444.6,308.8,447.8z M318.8,418.9c-0.8-1.5-1.6-3.1-2.4-4.6L318.8,418.9z M376.3,384.9c-2.7-1.3-5.4-2.6-8-4.1
	c-11.7,4.4-24.5,2.1-36.6,4c-6.7,1-16.9,0.3-22.4,5.1c-2,1.7-2.3,3.7-3.1,6c-0.2,0.4-0.3,0.8-0.5,1.1c0.5-0.1,1-0.2,1.6-0.3
	c1.4-0.3,2.8,1.2,2.8,2.3c7.1,9.9,12.7,20.7,18,31.7c4.6-0.7,8.9-3.2,12.7-5.6c5.6-3.5,11.1-7.5,16-11.8c4.9-4.4,9.7-9.1,13.6-14.5
	C373.2,394.7,376.2,390,376.3,384.9z M464.8,413.8c2.6-3,5.3-5.9,8.2-8.7c-2.8-0.5-5.6-1-8.4-1.1c-2.4-0.1-2.4-2,0-2
	c3.5,0.1,6.8,0.7,10.2,1.3c2.2-2.2,4.4-4.5,6.4-6.7c-0.2-0.2-0.3-0.5-0.4-0.5c-1.7-3-2.9-6.1-4.1-9.3c-0.1-0.2-0.5-1.5,0.2-1
	c0.7,0.5,1.3,1.4,1.6,2.2c1,2.5,1.8,5.1,3.2,7.5c0,0.1,0.1,0.2,0.2,0.3c1.9-2.1,3.7-4.2,5.3-6.5c-0.8-0.2,0-1,1-1.4l0.1-0.1
	c-1,0.2-0.4,0.2-1-0.9c-0.5-0.9-1-1.7-1.7-2.5c-1-1.2-2.1-2.7-3.5-3.5c-4.6-2.7-9.6-4.5-14.4-6.7c-9.9-4.5-19.8-9-28.9-15.1
	c-14-9.3-27.4-19.5-41.4-28.6c-0.7,0.1-1.5-0.2-2-0.7c-2-2.4-5.7-2.8-8.2-4.6c-21.1,24.4-60.7,13.5-81.6-7c-0.5,0.8-1,1.5-1.6,2.3
	c0.9-0.3,2.4-0.2,2.7,0.6c4.7,9,10.9,17.4,17.8,24.9c6.7,7.3,14.8,15.3,24.7,17.7c2.5,0.6,0,3-1.8,2.5c-10-2.5-18.6-10.4-25.4-17.8
	c-2.2-2.4-4.3-4.9-6.4-7.4c-3.2,6.7-12.6,8.9-19.1,10.9c-4.7,1.4-9.3,3.1-13.9,4.7c-6.3,2.3-13.2,4.6-18.3,9.1
	c-6.4,5.7-11.1,14-10.3,22.9c0.9,9.3,7.6,14.7,16.6,15.9c0.7,0.1,1.1,0.4,1.3,0.8c2.2-0.8,4.5-1.4,6.7-2c-2.3-1.4-4.4-2.9-6.5-4.6
	c-0.5-0.3-1.1-1.2-0.2-1.4c0.9-0.2,2,0.2,2.6,0.6c2,1.6,4.2,3.1,6.4,4.5c0.1,0.1,0.2,0.1,0.2,0.2c0.5-0.2,1.1-0.3,1.6-0.4
	c1.6-0.4,3.2-0.8,4.9-1.2c0-0.2,0-0.3,0-0.4c1-3.1,2.1-6.3,3.1-9.4c0.4-1.3,4.3-0.9,3.8,0.8c-0.9,2.7-1.8,5.4-2.7,8.2
	c2.6-0.5,5.2-1.2,7.8-1.7c1.7-1.7,2.4-3.7,3.3-6.1c0.7-2,1.7-3.8,3.6-4.7c6-3.1,12.5-3.6,19.1-4.4c6.8-0.9,13.6-1.1,20.4-1.4
	c6.3-0.2,12.6-0.6,18.6-2.7c-3-2-5.9-4.1-8.6-6.5c-1.5-1.3,1.6-3.7,2.9-2.5c14.3,12.9,34.1,17.9,52,23.2c9.9,3,19.9,6.7,29,11.7
	c5.9,3.3,15.3,13.2,22.5,9.1C463.7,413.4,464.4,413.5,464.8,413.8z M194.2,334.7C194.5,334.9,194.5,334.8,194.2,334.7L194.2,334.7z
	 M31,322.3c0.9-2.6,1.6-5.2,3.1-7.5c0.8-1.2-1.7-4.2-2.6-2.8c-1.6,2.5-2.4,5.3-3.2,8.2C27.7,321.3,30.4,324.1,31,322.3z M39.6,299.6
	c0.8-2.8,2.2-5.2,3.8-7.5c0.8-1.2-1.6-4.3-2.4-2.9c-1.7,2.6-3.2,5.2-4.1,8.2C36.5,298.6,39,301.4,39.6,299.6z M50.3,281.8
	c0.8-2.3,2.1-4.3,3.8-6c0.6-0.7-0.4-1.2-0.9-1.3c-0.9-0.1-1.9,0.2-2.6,0.9c-1.8,1.9-3.2,4.1-4.1,6.6C46,283.4,49.8,283.1,50.3,281.8
	z M57.3,268.6c0.9,0.4,1.8,0.2,2.3-0.8c0.6-1.3,1.3-2.5,2.7-3.2c0.9-0.5,0.6-1.8,0.1-2.4c-0.7-0.8-1.7-1-2.6-0.5
	c-1.8,0.9-2.7,2.8-3.7,4.6C55.6,267.1,56.6,268.2,57.3,268.6z M70,252.1c0.8-1.6,1.6-3.1,2.4-4.7c0.2-0.4-0.8-1.5-0.9-1.7
	c-0.1-0.1-1.3-1.6-1.4-1.4c-0.8,1.6-1.6,3.1-2.4,4.7c-0.2,0.4,0.8,1.5,0.9,1.7C68.7,250.8,69.9,252.3,70,252.1z M77,239.9
	c0.9-0.2,1.7-0.8,2.1-1.6c0.5-1.1,1.1-2.4,1.9-3.3c0.4-0.4,0.9-1.3-0.1-1.5c-0.9-0.2-1.9,0.5-2.5,1c-1.3,1.3-2,3-2.8,4.6
	C75.3,240,76.5,240.1,77,239.9z M80,250.9c-0.5-0.2-2-0.5-2,0.4c0,1.2,0.2,2.7-0.7,3.6c-0.5,0.6,0.5,1.7,0.9,2
	c0.6,0.4,1.6,0.8,2.3,0.2c1-1.1,0.9-2.8,0.9-4.2C81.5,251.9,80.8,251.2,80,250.9z M71.6,272.2c0,1.3-0.1,2.4-0.6,3.5
	c-0.9,1.9,2.8,3.1,3.6,1.3c0.7-1.4,0.9-2.7,0.9-4.3c0-1-0.8-1.6-1.7-1.7C73.1,270.9,71.6,271.2,71.6,272.2z M65.2,299
	c0.9,0.5,2,0.2,2.7-0.5c0.5-0.5,0.9-1.1,1.3-1.7s0.5-0.9,1.1-1.4c0.6-0.6,0.6-1.7-0.2-2.2c-0.9-0.5-2-0.2-2.7,0.5
	c-0.5,0.5-0.9,1.1-1.3,1.7c-0.4,0.6-0.5,0.9-1.1,1.4C64.4,297.5,64.4,298.5,65.2,299z M91.2,252.9c0-1.8,0-3.7,0-5.5
	c0-2.4-3.9-2.3-3.9,0c0,1.8,0,3.7,0,5.5C87.3,255.2,91.2,255.2,91.2,252.9z M85.8,275.9c0,1,0,2.1,0,3.1c0,0.9,1,0.9,1.6,0.8
	c0.5-0.1,1-0.2,1.4-0.5c0.2-0.2,0.7-0.5,0.7-0.8c0-1,0-2.1,0-3.1c0-0.9-1-0.9-1.6-0.8c-0.5,0.1-1,0.2-1.4,0.5
	C86.3,275.3,85.8,275.6,85.8,275.9z M84.9,295.4c0,1,0,2.1,0,3.1c0,0.9,1.3,1.3,2,1.3c0.9-0.1,1.8-0.5,1.8-1.6s0-2.1,0-3.1
	c0-0.9-1.3-1.3-2-1.3C85.9,293.9,84.9,294.4,84.9,295.4z M46.7,428.5c12.8,1.5,25.7,0.8,38.4,0.8c2.4,0,0.1-2.9-1.3-2.9
	c-12.8,0-25.7,0.7-38.4-0.8C43.1,425.4,45.3,428.3,46.7,428.5z M575.1,458.7c-21.2,0-42.4,0-63.6,0c-2.6,0-0.5,2.7,1.2,2.7
	c21.2,0,42.4,0,63.6,0C578.9,461.4,576.8,458.7,575.1,458.7z"/>
</svg>
