<svg xmlns="http://www.w3.org/2000/svg" xmlns:xlink="http://www.w3.org/1999/xlink" viewBox="0 0 595.28 419.53"><defs><style>.cls-1{fill:url(#linear-gradient);}.cls-2{fill:#fff;fill-rule:evenodd;}</style><linearGradient id="linear-gradient" x1="25.19" y1="217.76" x2="295.81" y2="217.76" gradientUnits="userSpaceOnUse"><stop offset="0.01" stop-color="#b42025"/><stop offset="0.36" stop-color="#9d221d"/><stop offset="0.73" stop-color="#8b2416"/><stop offset="1" stop-color="#852514"/></linearGradient></defs><g id="New_Layer" data-name="New Layer"><path class="cls-1" d="M114,138.89c-5.68.93-11.29,3.12-18.51,7.23A118.48,118.48,0,0,0,80,157.2a149.66,149.66,0,0,0-13,13.09,182.71,182.71,0,0,0-12.86,17.78c-5.24,8.56-9.28,17.75-10.46,23.84-1.59,8.27-.27,15.1,3.72,19.12a9.31,9.31,0,0,0,5.13,2.88c3.23.81,9.9.53,15.19-.69,7.68-1.73,17.36-5.89,28.95-12.42a107.37,107.37,0,0,0,13.85-8.91c4.54-3.39,4.84-3.58,6.46-3.83a4,4,0,0,0,1.52-.49c.3-.25.35-.21.35.3a4.81,4.81,0,0,0,.55,1.64c1.11,2.08,1,7.14-.34,19.19-1.5,13.34-3.19,22.62-5.73,31.35-3.46,11.86-10.75,20.22-20.45,23.45-8.91,3-22.35,2.29-34.86-1.75-10.13-3.26-19-8.48-29.18-17.11-1.64-1.39-2.72-1.62-3.35-.69s-.44,1.77.42,3.53c3.55,7.39,16.62,17.45,30.29,23.32a90.23,90.23,0,0,0,17.7,5.28,58.1,58.1,0,0,0,19.3,0,25.48,25.48,0,0,0,7.85-2.84c12.49-6.56,21.38-20,26.92-40.66,2-7.38,2.89-12.37,5.33-28.88a382.91,382.91,0,0,0,4.37-44.67,133.22,133.22,0,0,1,1.66-16.57,52.7,52.7,0,0,0,.85-9.75c0-4.13,0-4.15-.64-5.51-1.76-3.58-6.28-6.47-12.36-7.92a26.4,26.4,0,0,0-6.83-.67A38.67,38.67,0,0,0,114,138.89Zm4.92,10.39c4.29.88,6.67,3.33,7.41,7.57.32,2,.28,2.5-1.2,15.52-1.2,10.64-1.71,13.89-2.47,16.11-1.8,5.08-7.39,11.2-14.59,16-10,6.63-23.89,13.07-32,14.82a39.33,39.33,0,0,1-9.35.33c-3.33-.65-5.66-2.22-6.79-4.6-.69-1.45-.72-1.64-.69-4.29,0-3.93,1.13-7.64,4-13.71,6.35-13.3,20.31-29.67,34.19-40.06,6.14-4.61,11.45-7.64,14-8A27.71,27.71,0,0,1,118.89,149.28Zm112.4,17.11a23.41,23.41,0,0,1,6.88,7,23.73,23.73,0,0,1,2.61,14.52c-1,5.84-5.45,13.85-11.77,20.91-1.64,1.85-2.77,3.65-2.77,4.46a3.53,3.53,0,0,1-1,1.43,5.47,5.47,0,0,0-.95,1.08,3.49,3.49,0,0,0,1.13-.3,3.52,3.52,0,0,1,2.17-.13c2,.43,4.67-.35,11.73-3.42a408.32,408.32,0,0,0,41.44-21.24c2.1-1.25,5-2.84,6.35-3.58s3.53-1.89,4.75-2.56c2.38-1.32,2.87-1.45,3.56-.92,1.06.76.07,3.76-2,6a62.12,62.12,0,0,1-9.07,7c-4.67,3.09-14.57,8.42-24.13,13-12.12,5.77-32.22,14.59-42.36,18.58a132.66,132.66,0,0,0-13.73,6.21c-7,3.51-9.58,4.39-13.74,4.76-5.52.48-10.5-.79-12-3.09a3.08,3.08,0,0,1,1.06-4.39c2-1.39,7.64-3.56,12.79-5,10.87-3,12.14-3.51,16-6.09,9.16-6.12,18.93-19.58,21.4-29.46a21.54,21.54,0,0,0,0-8.54,12.53,12.53,0,0,0-6.25-8.19c-4.88-2.38-8.82-1.94-16.26,1.82a75.15,75.15,0,0,0-20.24,14.8,140.72,140.72,0,0,0-18.79,24.28c-5.94,9.47-6.7,11.06-8.31,17.57-2,7.78-2.73,13.71-3.95,30.63-.86,11.62-1.78,18-3,20.37a6.6,6.6,0,0,1-3.16,2.84c-2.72.9-6.81-.81-8-3.35-.83-1.78-.44-6.3,2.1-24.13.76-5.4,1.55-11.17,1.73-12.81,1.64-13.8,2.52-25.35,2.77-35.67.49-20.38.88-25.83,2.22-30.33.81-2.7,2.59-5,4.53-5.79,2.84-1.2,6.53.69,7.59,3.87.58,1.74.32,5-.92,11.71-2.5,13.34-2.61,14.59-1.46,16.37a15.38,15.38,0,0,1,.81,1.5c.3.67.3.67.81.23a9.77,9.77,0,0,1,1.64-1c1.29-.64,1.45-.83,5.93-7.15A94.35,94.35,0,0,1,181.54,186a106,106,0,0,1,13.67-11.77c8.68-6.28,15-9.26,21.52-10C222.66,163.53,227.37,164.24,231.29,166.39Z"/><path class="cls-2" d="M171.06,243.24c-3.34.95-5.74,3.62-6.83,7.57a21.56,21.56,0,0,0-.25,7.85c.67,3.81,2.28,6.28,5,7.6,1.43.71,1.69.76,4,.76a17.67,17.67,0,0,0,3.65-.33l1.2-.3V253.51h-6.23v3.7h2.07v6h-.8c-1.67,0-3-1.18-3.74-3.28a23.23,23.23,0,0,1,0-9.1,5,5,0,0,1,5.54-3.71,15.73,15.73,0,0,1,1.75.18c.25.07.44-.41.72-1.8l.39-1.89-.72-.25A13,13,0,0,0,171.06,243.24Z"/><path class="cls-2" d="M323.89,243.24c-3.35.95-5.75,3.62-6.83,7.57a21.56,21.56,0,0,0-.26,7.85c.67,3.81,2.29,6.28,5,7.6,1.43.71,1.68.76,4,.76a17.56,17.56,0,0,0,3.64-.33l1.2-.3V253.51h-6.23v3.7h2.08v6h-.81c-1.66,0-3-1.18-3.74-3.28a23.23,23.23,0,0,1,0-9.1,5,5,0,0,1,5.54-3.71,16,16,0,0,1,1.76.18c.25.07.44-.41.71-1.8l.39-1.89-.71-.25A13,13,0,0,0,323.89,243.24Z"/><path class="cls-2" d="M546.87,243.42a8.94,8.94,0,0,0-5.4,5.06,19,19,0,0,0,.09,13.87,9.26,9.26,0,0,0,4.09,4.14,11.44,11.44,0,0,0,5.7.41l1.34-.27-.12-.84c-.06-.48-.18-1.33-.27-1.91l-.14-1.06-1.64.09c-2,.11-2.91-.28-4-1.71-1.87-2.47-2-9-.19-12a4.4,4.4,0,0,1,5.1-2l.7.16.27-1.45c.16-.81.35-1.69.4-1.94.11-.42,0-.53-.93-.76A8.9,8.9,0,0,0,546.87,243.42Z"/><path class="cls-2" d="M193.23,243.24c0,.18-4.85,22.76-5,23.27s0,.42,2.15.35l2.26-.07.51-2.66c.27-1.45.5-2.68.5-2.72s1-.05,2.11-.05c2.37,0,2-.37,2.72,3.23l.39,2.2,2.26.07c2.24.07,2.27.07,2.13-.47-.05-.3-1-5.42-2.19-11.38s-2.15-11.08-2.2-11.38c-.11-.48-.21-.51-2.88-.51A15.65,15.65,0,0,0,193.23,243.24Zm3.46,9.33c.37,2.58.69,4.84.69,5s-.39.32-1.64.32H194.1l.12-.65c.07-.34.48-2.7.88-5.21a39,39,0,0,1,.83-4.39C196,247.76,196.3,250,196.69,252.57Z"/><path class="cls-2" d="M214.23,251.25c0,8.45.17,10.34,1,12.24a6.28,6.28,0,0,0,6.56,3.57,5.7,5.7,0,0,0,5.24-3.55c.95-2.1,1.09-3.74,1.09-12.38v-8h-4.6l-.07,9c-.07,8.52-.09,9.12-.51,9.82-.92,1.5-2.54,1.43-3.46-.17-.46-.76-.48-1.22-.55-9.76l-.07-8.94h-4.6Z"/><path class="cls-2" d="M243,243.26l-1.44.23-.76.12V266.9h4.62v-9.46h.71c1.67,0,2.13.78,2.78,4.66.25,1.57.57,3.28.71,3.81l.23,1h2.4a16.09,16.09,0,0,0,2.4-.09,3,3,0,0,0-.23-.69c-.11-.33-.53-2.1-.92-3.95-.83-4-1.13-4.78-2.19-5.77l-.84-.74.88-.6a6.92,6.92,0,0,0,.9-9.95c-1.34-1.36-2.65-1.78-5.91-1.87C244.87,243.19,243.37,243.22,243,243.26Zm5.35,4.07c1,.83,1.32,3.39.56,4.8a3.1,3.1,0,0,1-2.5,1.75l-1,.16v-3.6c0-3.55,0-3.6.53-3.67A3.79,3.79,0,0,1,248.33,247.33Z"/><path class="cls-2" d="M269.18,243.24c0,.18-4.85,22.76-5,23.27s.05.42,2.15.35l2.26-.07.51-2.66c.28-1.45.51-2.68.51-2.72s.94-.05,2.1-.05c2.37,0,2-.37,2.72,3.23l.39,2.2,2.27.07c2.23.07,2.26.07,2.12-.47-.05-.3-1-5.42-2.19-11.38s-2.15-11.08-2.2-11.38c-.11-.48-.2-.51-2.88-.51A15.65,15.65,0,0,0,269.18,243.24Zm3.46,9.33c.37,2.58.69,4.84.69,5s-.39.32-1.64.32h-1.64l.12-.65c.07-.34.48-2.7.88-5.21a39,39,0,0,1,.83-4.39C271.9,247.76,272.25,250,272.64,252.57Z"/><path class="cls-2" d="M290.88,255V266.9h3.95l-.07-7.94c-.05-4.36-.05-7.94,0-7.92s.37,1.09.76,2.36,1.74,4.82,3,7.89l2.19,5.61h4.09V243.12h-4l.13,6.63c.1,3.67.23,7.32.3,8.15.12,1.48.1,1.43-1.47-2.77-.88-2.36-2.27-6-3.1-8.08l-1.47-3.81-2.13-.07-2.12-.07Z"/><path class="cls-2" d="M359.44,243.26l-1.31.23-.77.12V266.9H362v-8.7l1.52-.14a9.47,9.47,0,0,0,4.69-1.85c3.12-2.88,3-9.32-.14-11.56a9.51,9.51,0,0,0-1.87-1A28.43,28.43,0,0,0,359.44,243.26Zm5.36,4.16a4.26,4.26,0,0,1,1.11,3.21c0,2.31-1.27,3.81-3.21,3.81H362v-3.65a19.67,19.67,0,0,1,.19-3.83C362.44,246.66,364.29,247,364.8,247.42Z"/><path class="cls-2" d="M383.91,243.24c0,.18-4.85,22.76-5,23.27s0,.42,2.14.35l2.26-.07.51-2.66c.28-1.45.51-2.68.51-2.72s.95-.05,2.1-.05c2.38,0,2.06-.37,2.73,3.23l.39,2.2,2.26.07c2.24.07,2.26.07,2.12-.47,0-.3-1-5.42-2.19-11.38s-2.15-11.08-2.19-11.38c-.12-.48-.21-.51-2.89-.51A15.74,15.74,0,0,0,383.91,243.24Zm3.46,9.33c.37,2.58.7,4.84.7,5s-.39.32-1.64.32h-1.64l.11-.65c.07-.34.49-2.7.88-5.21s.79-4.51.83-4.39S387,250,387.37,252.57Z"/><polygon class="cls-2" points="402.15 245.2 402.15 247.28 404.23 247.28 406.31 247.28 406.31 257.09 406.31 266.9 408.61 266.9 410.92 266.9 410.92 257.09 410.92 247.28 413 247.28 415.08 247.28 415.08 245.2 415.08 243.12 408.61 243.12 402.15 243.12 402.15 245.2"/><polygon class="cls-2" points="426.39 255.01 426.39 266.9 431.7 266.9 437.01 266.9 437.01 264.94 437.01 262.98 434.01 262.98 431.01 262.98 431.01 259.75 431.01 256.51 433.66 256.51 436.32 256.51 436.32 254.55 436.32 252.59 433.66 252.59 431.01 252.59 431.01 249.82 431.01 247.05 433.89 247.05 436.78 247.05 436.78 245.09 436.78 243.12 431.58 243.12 426.39 243.12 426.39 255.01"/><polygon class="cls-2" points="449.01 255.01 449.01 266.9 454.32 266.9 459.63 266.9 459.63 264.94 459.63 262.98 456.63 262.98 453.63 262.98 453.63 253.05 453.63 243.12 451.32 243.12 449.01 243.12 449.01 255.01"/><path class="cls-2" d="M487.34,243.26l-1.32.23-.76.12V266.9h4.61v-8.7l1.53-.14a9.47,9.47,0,0,0,4.68-1.85c3.12-2.88,3-9.32-.13-11.56a9.8,9.8,0,0,0-1.87-1A28.46,28.46,0,0,0,487.34,243.26Zm5.35,4.16a4.22,4.22,0,0,1,1.11,3.21c0,2.31-1.27,3.81-3.21,3.81h-.72v-3.65a19.67,19.67,0,0,1,.19-3.83C490.34,246.66,492.18,247,492.69,247.42Z"/><path class="cls-2" d="M510.24,253.91c-.42,5.93-.84,11.28-.9,11.88l-.14,1.11h2c1.73,0,2,0,2-.41,0-.21.19-3.88.4-8.13l.39-7.73.53,2.77c.3,1.52,1.06,5.08,1.73,7.89l1.2,5.15h1.66a6.65,6.65,0,0,0,1.69-.11c0-.07.53-2.34,1.18-5s1.4-6.14,1.73-7.64.6-2.79.64-2.84a26.38,26.38,0,0,1,.12,3.14c0,1.78.14,5,.25,7.11s.23,4.32.23,4.85v1h4.18l-.14-1.8c-.18-2.47-1.27-20.61-1.27-21.35v-.63h-4.82l-.23.86c-.49,1.89-2.19,10-2.68,12.88a8.78,8.78,0,0,1-.65,2.65c0-.18-.6-2.67-1.2-5.54s-1.36-6.44-1.7-8l-.63-2.77-2.42-.07-2.4-.07Z"/><path class="cls-2" d="M187.45,280.52V287h1.39v-3.24c0-3.37.23-4.38,1-4.7.6-.21.78-.17,1.27.32s.46.76.46,4V287H193v-3.58a15.14,15.14,0,0,0-.33-4.39c-.55-1.31-1.73-1.64-3.07-.81l-.76.47v-4.62h-1.39Z"/><polygon class="cls-2" points="514.58 280.52 514.58 286.99 515.27 286.99 515.96 286.99 515.96 280.52 515.96 274.06 515.27 274.06 514.58 274.06 514.58 280.52"/><path class="cls-2" d="M322.94,274.64c-1.34.71-1.7,2.95-.78,4.75.37.67.34.72-.26,1.18a4.22,4.22,0,0,0-1.15,4.64c.81,1.92,2.66,2.49,4.62,1.43,1.11-.6,1.13-.6,1.45-.12A1.24,1.24,0,0,0,328,287h.81l-.81-1.07c-.78-1-.81-1.08-.48-1.73a19.76,19.76,0,0,0,1-3.74c0-.09-.26-.16-.56-.16-.57,0-.83.37-.83,1.23a7.16,7.16,0,0,1-.25,1.43l-.26.92-.55-.69c-.32-.39-.88-1.18-1.25-1.76l-.64-1.08.69-.65a3.73,3.73,0,0,0,1.34-3A2.15,2.15,0,0,0,322.94,274.64Zm1.87,1.24a2.62,2.62,0,0,1-.27,2.57,3,3,0,0,1-.79.85c-.62.21-1.06-2.45-.55-3.42a1,1,0,0,1,1.61,0Zm-.32,7.27,1.32,1.85-.63.53a1.91,1.91,0,0,1-2.58,0,3,3,0,0,1-.33-3.58c.26-.43.58-.73.7-.69A17.57,17.57,0,0,1,324.49,283.15Z"/><path class="cls-2" d="M169,274.66c0,.07-.63,2.84-1.39,6.14s-1.38,6-1.38,6.09.3.1.67.1c.62,0,.66-.07,1-1.85l.42-1.87,1.41.07,1.41.07.27,1.15c.14.63.35,1.43.42,1.78.11.53.28.65.85.65s.67-.07.58-.42-.65-2.79-1.29-5.7-1.25-5.54-1.32-5.84-.28-.51-.9-.51C169.33,274.52,169,274.59,169,274.66Zm1.82,7.06c0,.35-.18.42-1.15.42s-1.16-.05-1-.42,1-4.84,1.08-5.54A56,56,0,0,1,170.81,281.72Z"/><path class="cls-2" d="M196.23,274.87c-.6.71.3,1.89,1,1.29a.9.9,0,0,0,.1-1.36A.67.67,0,0,0,196.23,274.87Z"/><path class="cls-2" d="M257.43,274.91A3.08,3.08,0,0,0,255.9,279a6.77,6.77,0,0,0,1.76,1.89c1.61,1.25,2.14,2.13,1.94,3.23-.23,1.3-1.48,1.83-3.26,1.41-.64-.16-.74-.14-.83.39s0,.63.72.84a3.56,3.56,0,0,0,2.79-.14c2.75-1.11,2.7-4.48-.07-6.54-2.05-1.52-2.45-2.4-1.55-3.55a2,2,0,0,1,2.27-.65c.62.19.73.16.87-.25.19-.65-.16-.9-1.34-1A3.06,3.06,0,0,0,257.43,274.91Z"/><path class="cls-2" d="M335.73,274.68l-.53.09V287h1.39v-5l1.2-.16a3.54,3.54,0,0,0,3.07-3C341.32,275.72,339.22,274,335.73,274.68Zm3.1,1.55c.57.48.64.71.64,1.87s-.07,1.36-.76,2a2.29,2.29,0,0,1-1.43.67h-.69v-5.08h.78A2.34,2.34,0,0,1,338.83,276.23Z"/><path class="cls-2" d="M356.9,274.87c-.6.71.3,1.89,1,1.29a.9.9,0,0,0,.09-1.36A.67.67,0,0,0,356.9,274.87Z"/><path class="cls-2" d="M386,275.4c0,.92-.37,7.15-.58,9.92l-.14,1.69.65-.07.65-.07.2-5,.21-5,1.27,5c1.76,6.95,1.69,7,3.79-1.31l1-3.93.14,3.58c.09,2,.16,4.27.18,5.13l0,1.57h1.38l-.11-1.8c-.23-3.31-.58-9.15-.58-9.91s-.05-.76-.81-.76-.81.07-1,1c-.39,1.47-2.07,8.61-2.07,8.86s-2.54-9.49-2.54-9.72a2.13,2.13,0,0,0-.81-.09C386,274.52,386,274.54,386,275.4Z"/><path class="cls-2" d="M477.87,275.05a4,4,0,0,0-1.71,1.78c-.69,1.22-.71,1.36-.71,4,0,2.42.07,2.91.53,3.85a3.9,3.9,0,0,0,4.31,2.17c.67-.13.81-.25.81-.73s0-.58-.85-.47c-2.06.35-3.33-1.24-3.49-4.34-.11-2.33.21-3.62,1.23-4.71a1.81,1.81,0,0,1,1.82-.83c.85,0,1.08-.07,1.2-.44C481.31,274.41,479.46,274.2,477.87,275.05Z"/><path class="cls-2" d="M201.26,275.84c-.32.07-.42.34-.42,1.13s0,1-.57,1-.58.12-.58.58.12.58.55.58h.58l.07,3.48c.07,3.37.09,3.49.62,3.93.81.64,2.2.53,2.29-.21.07-.42,0-.51-.51-.51-.88,0-1.06-.62-1.06-3.78v-2.91H203c.71,0,.81-.07.81-.58s-.1-.58-.81-.58h-.81v-1.15C202.23,275.65,202.16,275.61,201.26,275.84Z"/><path class="cls-2" d="M221.34,275.84c-.32.07-.41.34-.41,1.13s-.05,1-.58,1-.58.12-.58.58.12.58.56.58h.58l.06,3.48c.07,3.37.1,3.49.63,3.93.81.64,2.19.53,2.28-.21.07-.42,0-.51-.5-.51-.88,0-1.07-.62-1.07-3.78v-2.91h.81c.72,0,.81-.07.81-.58s-.09-.58-.81-.58h-.81v-1.15C222.31,275.65,222.24,275.61,221.34,275.84Z"/><path class="cls-2" d="M264.28,275.84c-.32.07-.41.34-.41,1.13s-.05,1-.58,1-.58.12-.58.58.12.58.56.58h.57l.07,3.48c.07,3.37.1,3.49.63,3.93.81.64,2.19.53,2.28-.21.07-.42,0-.51-.51-.51-.87,0-1.06-.62-1.06-3.78v-2.91h.81c.72,0,.81-.07.81-.58s-.09-.58-.81-.58h-.81v-1.15C265.25,275.65,265.18,275.61,264.28,275.84Z"/><path class="cls-2" d="M290.83,275.84c-.32.07-.41.34-.41,1.13s-.05,1-.58,1-.58.12-.58.58.12.58.56.58h.57l.07,3.48c.07,3.37.09,3.49.63,3.93.8.64,2.19.53,2.28-.21.07-.42,0-.51-.51-.51-.87,0-1.06-.62-1.06-3.78v-2.91h.81c.71,0,.81-.07.81-.58s-.1-.58-.81-.58h-.81v-1.15C291.8,275.65,291.73,275.61,290.83,275.84Z"/><path class="cls-2" d="M376.48,275.84c-.32.07-.42.34-.42,1.13s0,1-.57,1-.58.12-.58.58.11.58.55.58H376l.07,3.48c.07,3.37.09,3.49.62,3.93.81.64,2.2.53,2.29-.21.07-.42,0-.51-.51-.51-.88,0-1.06-.62-1.06-3.78v-2.91h.81c.71,0,.8-.07.8-.58s-.09-.58-.8-.58h-.81v-1.15C377.45,275.65,377.38,275.61,376.48,275.84Z"/><path class="cls-2" d="M467,275.84c-.32.07-.41.34-.41,1.13s-.05,1-.58,1-.58.12-.58.58.12.58.56.58h.57l.07,3.48c.07,3.37.1,3.49.63,3.93.81.64,2.19.53,2.28-.21.07-.42,0-.51-.5-.51-.88,0-1.07-.62-1.07-3.78v-2.91h.81c.72,0,.81-.07.81-.58s-.09-.58-.81-.58h-.81v-1.15C467.94,275.65,467.87,275.61,467,275.84Z"/><path class="cls-2" d="M519.84,275.84c-.32.07-.42.34-.42,1.13s0,1-.57,1-.58.12-.58.58.11.58.55.58h.58l.07,3.48c.07,3.37.09,3.49.62,3.93.81.64,2.2.53,2.29-.21.07-.42,0-.51-.51-.51-.88,0-1.06-.62-1.06-3.78v-2.91h.81c.71,0,.8-.07.8-.58s-.09-.58-.8-.58h-.81v-1.15C520.81,275.65,520.74,275.61,519.84,275.84Z"/><path class="cls-2" d="M541.77,275.84c-.32.07-.41.34-.41,1.13s-.05,1-.58,1-.58.12-.58.58.12.58.55.58h.58l.07,3.48c.07,3.37.09,3.49.62,3.93.81.64,2.2.53,2.29-.21.07-.42,0-.51-.51-.51-.88,0-1.06-.62-1.06-3.78v-2.91h.81c.71,0,.81-.07.81-.58s-.1-.58-.81-.58h-.81v-1.15C542.74,275.65,542.67,275.61,541.77,275.84Z"/><path class="cls-2" d="M178.11,278a3.49,3.49,0,0,0-.86.74c-.39.48-.39.48-.41-.16s-.1-.63-.58-.63h-.58v9h1.39V284.1c0-3.39.3-4.39,1.38-4.8.53-.21.69-.39.69-.9C179.14,277.71,178.84,277.61,178.11,278Z"/><path class="cls-2" d="M182.93,278.08c-2.33,1-3,5.88-1,7.94,1.11,1.2,3.49,1.31,3.49.16,0-.51-.07-.56-.7-.44-1.43.3-2.53-1.15-2.53-3.37s1.1-3.67,2.53-3.37c.63.11.7.07.7-.42C185.38,277.73,184.27,277.5,182.93,278.08Z"/><path class="cls-2" d="M207.49,278.12c-1.87,1-2.37,5.61-.85,7.74a3.22,3.22,0,0,0,3.12,1c.87-.11,1-.21,1-.69s-.07-.56-1-.44a2.52,2.52,0,0,1-1.51-.14,3.24,3.24,0,0,1-1.17-2.42c0-.58,0-.58,2.08-.58h2.07v-.88C211.23,278.77,209.43,277.06,207.49,278.12Zm2,1.48a3.28,3.28,0,0,1,.35,1.27c0,.55,0,.58-1.41.58H207l.14-.74C207.54,278.91,208.81,278.28,209.5,279.6Z"/><path class="cls-2" d="M215.48,278.08c-2.33,1-3,5.88-1,7.94,1.11,1.2,3.49,1.31,3.49.16,0-.51-.07-.56-.7-.44-1.43.3-2.53-1.15-2.53-3.37s1.1-3.67,2.53-3.37c.63.11.7.07.7-.42C217.93,277.73,216.82,277.5,215.48,278.08Z"/><path class="cls-2" d="M237,278a3.64,3.64,0,0,0-.85.74c-.39.48-.39.48-.42-.16s-.09-.63-.57-.63h-.58v9h1.38V284.1c0-3.39.3-4.39,1.39-4.8.53-.21.69-.39.69-.9C238,277.71,237.71,277.61,237,278Z"/><path class="cls-2" d="M241.43,278.12c-1.87,1-2.38,5.61-.86,7.74a3.23,3.23,0,0,0,3.12,1c.88-.11,1-.21,1-.69s-.07-.56-1-.44a2.48,2.48,0,0,1-1.5-.14,3.21,3.21,0,0,1-1.18-2.42c0-.58,0-.58,2.08-.58h2.08v-.88C245.17,278.77,243.37,277.06,241.43,278.12Zm2,1.48a3.44,3.44,0,0,1,.34,1.27c0,.55,0,.58-1.4.58H241l.14-.74C241.47,278.91,242.74,278.28,243.44,279.6Z"/><path class="cls-2" d="M271.6,278a3.45,3.45,0,0,0-.85.74c-.4.48-.4.48-.42-.16s-.09-.63-.58-.63h-.57v9h1.38V284.1c0-3.39.3-4.39,1.39-4.8.53-.21.69-.39.69-.9C272.64,277.71,272.34,277.61,271.6,278Z"/><path class="cls-2" d="M285,278.08c-2.33,1-3,5.88-1,7.94,1.11,1.2,3.48,1.31,3.48.16,0-.51-.06-.56-.69-.44-1.43.3-2.54-1.15-2.54-3.37s1.11-3.67,2.54-3.37c.63.11.69.07.69-.42C287.41,277.73,286.31,277.5,285,278.08Z"/><path class="cls-2" d="M306.46,278a3.45,3.45,0,0,0-.85.74c-.4.48-.4.48-.42-.16s-.09-.63-.58-.63H304v9h1.38V284.1c0-3.39.3-4.39,1.39-4.8.53-.21.69-.39.69-.9C307.5,277.71,307.2,277.61,306.46,278Z"/><path class="cls-2" d="M310.92,278.12c-1.87,1-2.38,5.61-.86,7.74a3.22,3.22,0,0,0,3.12,1c.88-.11,1-.21,1-.69s-.07-.56-1-.44a2.48,2.48,0,0,1-1.5-.14,3.21,3.21,0,0,1-1.18-2.42c0-.58,0-.58,2.08-.58h2.08v-.88C314.66,278.77,312.85,277.06,310.92,278.12Zm2,1.48a3.28,3.28,0,0,1,.35,1.27c0,.55,0,.58-1.41.58h-1.41l.14-.74C311,278.91,312.23,278.28,312.92,279.6Z"/><path class="cls-2" d="M345.71,278a3.49,3.49,0,0,0-.86.74c-.39.48-.39.48-.41-.16s-.1-.63-.58-.63h-.58v9h1.39V284.1c0-3.39.3-4.39,1.38-4.8.53-.21.69-.39.69-.9C346.74,277.71,346.44,277.61,345.71,278Z"/><path class="cls-2" d="M350.05,278.21c-1.07.63-1.53,1.69-1.64,3.7-.12,2.21.23,3.55,1.24,4.57.72.71.88.78,1.78.67,1.76-.23,2.7-1.87,2.7-4.66,0-1.92-.37-3.08-1.27-4A2,2,0,0,0,350.05,278.21Zm2.17,1.32c.32.48.41,1.11.41,3,0,2.63-.37,3.57-1.38,3.57s-1.39-.94-1.39-3.57.37-3.58,1.39-3.58A1.21,1.21,0,0,1,352.22,279.53Z"/><path class="cls-2" d="M362.63,278.12c-1.87,1-2.38,5.61-.86,7.74a3.22,3.22,0,0,0,3.12,1c.88-.11,1-.21,1-.69s-.07-.56-1-.44a2.48,2.48,0,0,1-1.5-.14,3.21,3.21,0,0,1-1.18-2.42c0-.58,0-.58,2.08-.58h2.08v-.88C366.37,278.77,364.57,277.06,362.63,278.12Zm2,1.48a3.44,3.44,0,0,1,.34,1.27c0,.55,0,.58-1.41.58h-1.4l.13-.74C362.67,278.91,363.94,278.28,364.64,279.6Z"/><path class="cls-2" d="M370.85,278.08c-2.34,1-3,5.88-1,7.94,1.1,1.2,3.48,1.31,3.48.16,0-.51-.07-.56-.69-.44-1.43.3-2.54-1.15-2.54-3.37s1.11-3.67,2.54-3.37c.62.11.69.07.69-.42C373.29,277.73,372.18,277.5,370.85,278.08Z"/><path class="cls-2" d="M398.18,278c-.67.25-.74.39-.51,1,.09.27.25.3.76.09a1.44,1.44,0,0,1,2.1.88c.35,1,.17,1.5-.57,1.5a3.51,3.51,0,0,0-2.75,1.7c-.67,1.44-.3,3.14.81,3.72a1.67,1.67,0,0,0,2.12-.11c.69-.56.86-.58.86-.12,0,.21.2.35.57.35h.58v-3.3c0-3.54-.21-4.71-.92-5.36A3.75,3.75,0,0,0,398.18,278Zm2.58,5.56c0,1.59-.39,2.35-1.27,2.45s-1.26-.42-1.26-1.53a2.35,2.35,0,0,1,1.93-2.12C400.74,282.37,400.76,282.44,400.76,283.57Z"/><path class="cls-2" d="M407.69,277.91a3.75,3.75,0,0,0-.85.6l-.54.47v-.49c0-.39-.13-.51-.57-.51h-.58v9h1.39v-3.24c0-3.37.23-4.38,1-4.7.6-.21.79-.17,1.27.32s.47.76.47,4V287h1.38v-3.58c0-2.61-.09-3.81-.35-4.39A2,2,0,0,0,407.69,277.91Z"/><path class="cls-2" d="M414.57,278c-.67.25-.74.39-.51,1,.09.27.26.3.76.09a1.44,1.44,0,0,1,2.1.88c.35,1,.17,1.5-.57,1.5a3.53,3.53,0,0,0-2.75,1.7c-.67,1.44-.3,3.14.81,3.72a1.67,1.67,0,0,0,2.12-.11c.69-.56.86-.58.86-.12,0,.21.2.35.57.35h.58v-3.3c0-3.54-.21-4.71-.92-5.36A3.75,3.75,0,0,0,414.57,278Zm2.59,5.56c0,1.59-.4,2.35-1.27,2.45s-1.27-.42-1.27-1.53a2.35,2.35,0,0,1,1.93-2.12C417.13,282.37,417.16,282.44,417.16,283.57Z"/><path class="cls-2" d="M423,278c-1.29.53-2,2.45-1.89,5,.11,1.89.67,3.23,1.59,3.69a1.64,1.64,0,0,0,2.17-.16l.65-.51-.14,1.34a3.17,3.17,0,0,1-.67,1.92c-.49.5-.67.55-1.71.43s-1.2-.09-1.32.35c-.16.6.28.79,1.85.79a2.85,2.85,0,0,0,1.85-.49c1.24-.92,1.34-1.36,1.4-7.09l.1-5.24h-.6c-.46,0-.6.12-.6.49s0,.46-.72-.12A1.59,1.59,0,0,0,423,278Zm1.75,1.39c.63.62.77,1.29.67,3.58-.07,1.61-.18,2-.6,2.44a1.14,1.14,0,0,1-1.89-.3,9.38,9.38,0,0,1-.39-4.17c.16-.93.94-2,1.43-2A1.45,1.45,0,0,1,424.77,279.37Z"/><path class="cls-2" d="M431.19,278.12c-1.87,1-2.38,5.61-.85,7.74a3.2,3.2,0,0,0,3.11,1c.88-.11,1-.21,1-.69s-.07-.56-1-.44a2.48,2.48,0,0,1-1.5-.14,3.24,3.24,0,0,1-1.17-2.42c0-.58,0-.58,2.07-.58h2.08v-.88C434.93,278.77,433.13,277.06,431.19,278.12Zm2,1.48a3.47,3.47,0,0,1,.35,1.27c0,.55-.05.58-1.41.58h-1.41l.14-.74C431.24,278.91,432.51,278.28,433.2,279.6Z"/><path class="cls-2" d="M440,277.91a3.75,3.75,0,0,0-.85.6l-.54.47v-.49c0-.39-.13-.51-.57-.51h-.58v9h1.36l.07-3.6c.07-3.47.09-3.63.62-4s1-.56,1.55-.12c.39.3.44.69.51,4l.07,3.72H443v-3.44c0-3.28,0-3.49.53-4.09s.67-.6,1.13-.48c.88.23,1.11,1.2,1.11,4.8V287h1.39v-3.47c0-2.58-.1-3.67-.37-4.34a2,2,0,0,0-3.42-.73c-.74.64-.81.66-.92.27A2,2,0,0,0,440,277.91Z"/><path class="cls-2" d="M451.51,278.12c-1.87,1-2.38,5.61-.86,7.74a3.22,3.22,0,0,0,3.12,1c.88-.11,1-.21,1-.69s-.06-.56-1-.44a2.48,2.48,0,0,1-1.5-.14,3.21,3.21,0,0,1-1.18-2.42c0-.58,0-.58,2.08-.58h2.08v-.88C455.25,278.77,453.45,277.06,451.51,278.12Zm2,1.48a3.28,3.28,0,0,1,.35,1.27c0,.55-.05.58-1.41.58H451l.14-.74C451.55,278.91,452.82,278.28,453.51,279.6Z"/><path class="cls-2" d="M460.09,277.91a4,4,0,0,0-.85.6l-.53.47v-.49c0-.39-.14-.51-.58-.51h-.58v9h1.39v-3.24c0-3.37.23-4.38,1-4.7.6-.21.78-.17,1.27.32s.46.76.46,4V287h1.39v-3.58c0-2.61-.1-3.81-.35-4.39A2,2,0,0,0,460.09,277.91Z"/><path class="cls-2" d="M484.63,278.21c-1.06.63-1.52,1.69-1.64,3.7-.11,2.21.24,3.55,1.25,4.57.72.71.88.78,1.78.67,1.75-.23,2.7-1.87,2.7-4.66,0-1.92-.37-3.08-1.27-4A2,2,0,0,0,484.63,278.21Zm2.17,1.32c.33.48.42,1.11.42,3,0,2.63-.37,3.57-1.39,3.57s-1.38-.94-1.38-3.57.37-3.58,1.38-3.58A1.19,1.19,0,0,1,486.8,279.53Z"/><path class="cls-2" d="M493.8,277.91a3.77,3.77,0,0,0-.86.6l-.53.47v-.49c0-.39-.13-.51-.57-.51h-.58v9h1.38v-3.24c0-3.37.24-4.38,1-4.7.6-.21.79-.17,1.27.32s.46.76.46,4V287h1.39v-3.58c0-2.61-.09-3.81-.35-4.39A2,2,0,0,0,493.8,277.91Z"/><path class="cls-2" d="M500.59,278.19a2.31,2.31,0,0,0-1,2.75,6,6,0,0,0,1.5,1.78c1,.83,1.25,1.22,1.25,1.73A1.45,1.45,0,0,1,500,285.6c-.34-.18-.46-.14-.58.26-.2.64.1.9,1.21,1.06a2.61,2.61,0,0,0,2.72-1.32c.72-1.38.21-2.7-1.55-4-1.2-.9-1.43-1.61-.71-2.31.27-.3.6-.34,1.24-.25s.86.07,1-.35,0-.53-.44-.69A2.36,2.36,0,0,0,500.59,278.19Z"/><path class="cls-2" d="M525.61,278c-.67.25-.74.39-.51,1,.1.27.26.3.76.09A1.45,1.45,0,0,1,528,280c.34,1,.16,1.5-.58,1.5a3.55,3.55,0,0,0-2.75,1.7c-.67,1.44-.3,3.14.81,3.72a1.67,1.67,0,0,0,2.12-.11c.7-.56.86-.58.86-.12,0,.21.2.35.57.35h.58v-3.3c0-3.54-.21-4.71-.92-5.36A3.75,3.75,0,0,0,525.61,278Zm2.59,5.56c0,1.59-.4,2.35-1.27,2.45s-1.27-.42-1.27-1.53a2.35,2.35,0,0,1,1.94-2.12C528.17,282.37,528.2,282.44,528.2,283.57Z"/><path class="cls-2" d="M534.89,277.91a3.75,3.75,0,0,0-.85.6l-.53.47v-.49c0-.39-.14-.51-.58-.51h-.58v9h1.39v-3.24c0-3.37.23-4.38,1-4.7.6-.21.78-.17,1.27.32s.46.76.46,4V287h1.38v-3.58c0-2.61-.09-3.81-.34-4.39A2,2,0,0,0,534.89,277.91Z"/><path class="cls-2" d="M547.22,278.19a2.31,2.31,0,0,0-1,2.75,5.67,5.67,0,0,0,1.5,1.78c1,.83,1.24,1.22,1.24,1.73,0,1.17-1.17,1.75-2.31,1.15-.34-.18-.46-.14-.57.26-.21.64.09.9,1.2,1.06A2.6,2.6,0,0,0,550,285.6c.72-1.38.21-2.7-1.54-4-1.21-.9-1.44-1.61-.72-2.31.28-.3.6-.34,1.25-.25s.85.07,1-.35,0-.53-.44-.69A2.38,2.38,0,0,0,547.22,278.19Z"/><polygon class="cls-2" points="196 282.49 196 286.99 196.69 286.99 197.38 286.99 197.38 282.49 197.38 277.98 196.69 277.98 196 277.98 196 282.49"/><path class="cls-2" d="M226.28,281.72c.1,4.11.28,4.83,1.37,5.27a2.25,2.25,0,0,0,2.31-.37c.34-.42.66-.42.66,0,0,.21.21.35.58.35h.58v-9h-1.39v3.44c0,3.28,0,3.49-.53,4.09s-.67.6-1.13.48c-.88-.23-1.11-1.2-1.11-4.8V278h-1.43Z"/><path class="cls-2" d="M274.76,281.72c.1,4.11.28,4.83,1.37,5.27a2.24,2.24,0,0,0,2.3-.37c.35-.42.67-.42.67,0,0,.21.21.35.58.35h.58v-9h-1.39v3.44c0,3.28,0,3.49-.53,4.09s-.67.6-1.13.48c-.88-.23-1.11-1.2-1.11-4.8V278h-1.43Z"/><path class="cls-2" d="M295.77,281.72c.09,4.11.28,4.83,1.36,5.27a2.25,2.25,0,0,0,2.31-.37c.35-.42.67-.42.67,0,0,.21.21.35.58.35h.58v-9h-1.39v3.44c0,3.28,0,3.49-.53,4.09s-.67.6-1.13.48c-.88-.23-1.11-1.2-1.11-4.8V278h-1.43Z"/><path class="cls-2" d="M356.86,283.32l-.07,5.33-.74.62c-1.27,1.06-.9,1.94.51,1.27s1.61-1.18,1.68-7.2l.07-5.36h-1.38Z"/><path class="cls-2" d="M506.08,281.72c.09,4.11.28,4.83,1.36,5.27a2.25,2.25,0,0,0,2.31-.37c.35-.42.67-.42.67,0,0,.21.21.35.58.35h.57v-9h-1.38v3.44c0,3.28,0,3.49-.53,4.09s-.67.6-1.13.48c-.88-.23-1.11-1.2-1.11-4.8V278H506l.09,3.74Z"/><path class="cls-2" d="M247.5,287a11.31,11.31,0,0,0-.42,2.19c.24.23.9-.25,1.14-.81.11-.32.48-1.24.78-2.05l.55-1.43H248Z"/></g><g id="MasterLayer_1" data-name="MasterLayer 1"><path class="cls-2" d="M556.66,198.24c-.31,0-.81.07-1.18.12a12.73,12.73,0,0,0-10.66,10.58,14,14,0,0,0-.07,3.48,12.7,12.7,0,0,0,5,8.65,12.54,12.54,0,0,0,6.19,2.49,15.31,15.31,0,0,0,2.79,0A12.75,12.75,0,0,0,570,212a14.88,14.88,0,0,0,0-2.41,12.71,12.71,0,0,0-3.64-7.58,12.42,12.42,0,0,0-2-1.62,12.72,12.72,0,0,0-6.14-2.11C558,198.23,557,198.22,556.66,198.24Zm2.11,2,.71.11a10.78,10.78,0,0,1,7.59,5.88,11.16,11.16,0,0,1,1,3.52,18,18,0,0,1,0,2.32,10.71,10.71,0,0,1-4.48,7.61,10.9,10.9,0,0,1-5.05,1.92,22.64,22.64,0,0,1-2.33,0,10.73,10.73,0,0,1-9.5-9.34,14.33,14.33,0,0,1,0-2.62A10.76,10.76,0,0,1,553.2,201a10.49,10.49,0,0,1,3.14-.79A14.11,14.11,0,0,1,558.77,200.27Z"/><path class="cls-2" d="M553.48,210.93v5.87h1.93v-4.3H558l.08.12.58.92c.29.44.73,1.14,1,1.56s.62,1,.78,1.22l.3.48h1.95l0-.07-.58-.92c-1.66-2.59-2.2-3.45-2.19-3.46a1.28,1.28,0,0,1,.28-.08,4.63,4.63,0,0,0,1.5-.64,3.46,3.46,0,0,0,.78-.8,2.56,2.56,0,0,0,.42-1.11,4.29,4.29,0,0,0,0-1.82,2.51,2.51,0,0,0-.7-1.51,3,3,0,0,0-1.36-.91,5.22,5.22,0,0,0-1.18-.35,31.08,31.08,0,0,0-3.19,0l-2.92,0Zm5.48-4.24.37.06a2.22,2.22,0,0,1,.89.42,1.26,1.26,0,0,1,.57.59,1.61,1.61,0,0,1,.17,1,2,2,0,0,1-.08.63,1.77,1.77,0,0,1-.36.64,2.34,2.34,0,0,1-.58.45l-.56.17a3.67,3.67,0,0,1-.78.19c-.17,0-.9,0-1.73,0h-1.44v-4.19h1.69C558.23,206.65,558.85,206.67,559,206.69Z"/></g></svg>