<svg id="New_Layer" data-name="New Layer" xmlns="http://www.w3.org/2000/svg" viewBox="0 0 270.62 158.27"><defs><style>.cls-1{fill:#fff;}</style></defs><path class="cls-1" d="M269.27,113.48c-5.68.93-11.29,3.12-18.52,7.23a117.54,117.54,0,0,0-15.42,11.08,151.08,151.08,0,0,0-13,13.09,182.46,182.46,0,0,0-12.85,17.77c-5.24,8.57-9.28,17.76-10.46,23.85-1.59,8.27-.28,15.1,3.72,19.12a9.31,9.31,0,0,0,5.12,2.88c3.23.81,9.9.53,15.19-.69q11.53-2.59,28.95-12.42a106.68,106.68,0,0,0,13.85-8.91c4.55-3.4,4.85-3.58,6.47-3.83a4.38,4.38,0,0,0,1.52-.49c.3-.25.34-.21.34.3a4.94,4.94,0,0,0,.56,1.64c1.11,2.08,1,7.13-.35,19.18-1.5,13.35-3.18,22.63-5.72,31.35-3.47,11.87-10.76,20.23-20.46,23.46-8.91,3-22.34,2.28-34.86-1.76-10.13-3.25-19-8.47-29.18-17.1-1.63-1.39-2.72-1.62-3.34-.69s-.44,1.77.41,3.53c3.56,7.39,16.62,17.45,30.29,23.31a90.36,90.36,0,0,0,17.71,5.29,57.82,57.82,0,0,0,19.3,0,25.57,25.57,0,0,0,7.85-2.84c12.49-6.55,21.37-20,26.91-40.65,2-7.39,2.89-12.37,5.34-28.88A384.88,384.88,0,0,0,293,153.65a135.5,135.5,0,0,1,1.66-16.58,51.8,51.8,0,0,0,.86-9.74c0-4.13,0-4.15-.65-5.51-1.75-3.58-6.28-6.47-12.35-7.92a26.5,26.5,0,0,0-6.83-.67A38.67,38.67,0,0,0,269.27,113.48Zm4.91,10.39c4.3.88,6.68,3.32,7.42,7.57.32,2,.27,2.5-1.21,15.52-1.2,10.64-1.7,13.89-2.47,16.11-1.8,5.08-7.38,11.2-14.59,16-10,6.63-23.89,13.07-32,14.82a39.33,39.33,0,0,1-9.35.33c-3.32-.65-5.65-2.22-6.79-4.6-.69-1.45-.71-1.64-.69-4.29.05-3.93,1.13-7.64,4-13.72,6.35-13.29,20.32-29.66,34.19-40.05,6.14-4.62,11.45-7.64,14-8A27.25,27.25,0,0,1,274.18,123.87ZM386.59,141a23.49,23.49,0,0,1,6.88,7,23.92,23.92,0,0,1,2.61,14.53c-1,5.84-5.45,13.85-11.78,20.91-1.64,1.85-2.77,3.65-2.77,4.46a3.6,3.6,0,0,1-1,1.43,4.87,4.87,0,0,0-.94,1.08,3.62,3.62,0,0,0,1.13-.3,3.59,3.59,0,0,1,2.17-.14c2,.44,4.66-.34,11.73-3.41A411.28,411.28,0,0,0,436,165.31c2.1-1.25,5-2.84,6.35-3.58s3.53-1.89,4.76-2.56c2.38-1.32,2.86-1.46,3.55-.93,1.07.77.07,3.77-2,6a61.54,61.54,0,0,1-9.07,7c-4.66,3.1-14.56,8.43-24.12,13-12.12,5.77-32.23,14.59-42.36,18.58A128.63,128.63,0,0,0,359.37,209c-7,3.51-9.58,4.39-13.74,4.76-5.51.48-10.5-.79-12-3.1a3.08,3.08,0,0,1,1.06-4.38c2.06-1.39,7.64-3.56,12.79-5,10.87-3,12.14-3.51,16-6.09,9.17-6.12,18.93-19.58,21.4-29.46a21.73,21.73,0,0,0,0-8.54,12.6,12.6,0,0,0-6.26-8.2c-4.87-2.37-8.82-1.94-16.25,1.83a75.32,75.32,0,0,0-20.25,14.79,141.71,141.71,0,0,0-18.79,24.29c-5.93,9.47-6.69,11.06-8.31,17.57-2,7.78-2.72,13.71-3.95,30.63-.85,11.62-1.78,18-2.95,20.36a6.57,6.57,0,0,1-3.17,2.84c-2.72.9-6.81-.8-8-3.34-.83-1.78-.44-6.31,2.1-24.13.76-5.4,1.54-11.17,1.73-12.81,1.64-13.81,2.51-25.35,2.77-35.67.48-20.38.88-25.83,2.22-30.33.8-2.7,2.58-5,4.52-5.8,2.84-1.2,6.53.7,7.59,3.88.58,1.73.33,5-.92,11.71-2.49,13.34-2.61,14.59-1.45,16.36.27.47.64,1.14.81,1.5.3.67.3.67.8.24a9.54,9.54,0,0,1,1.64-1c1.3-.65,1.46-.83,5.94-7.16a93.62,93.62,0,0,1,12.07-14.22,104.65,104.65,0,0,1,13.67-11.77c8.68-6.28,15.05-9.26,21.51-10C378,138.11,382.66,138.83,386.59,141Z" transform="translate(-180.49 -113.21)"/></svg>