<?xml version="1.0" encoding="UTF-8" standalone="no" ?>
<!DOCTYPE svg PUBLIC "-//W3C//DTD SVG 1.1//EN" "http://www.w3.org/Graphics/SVG/1.1/DTD/svg11.dtd">
<svg xmlns="http://www.w3.org/2000/svg" xmlns:xlink="http://www.w3.org/1999/xlink" version="1.1" width="122" height="71" viewBox="0 0 122 71" xml:space="preserve">
<desc>Created with Fabric.js 3.6.3</desc>
<defs>
</defs>
<rect x="0" y="0" width="100%" height="100%" fill="rgba(35, 35, 35, 0)"></rect>
<g transform="matrix(0.45 0 0 0.45 61.3 35.95)" id="New_Layer"  >
<path style="stroke: none; stroke-width: 1; stroke-dasharray: none; stroke-linecap: butt; stroke-dashoffset: 0; stroke-linejoin: miter; stroke-miterlimit: 4; fill: rgb(191,17,0); fill-rule: nonzero; opacity: 1;"  transform=" translate(-315.78, -192.34)" d="M 269.27 113.48 c -5.68 0.93 -11.29 3.12 -18.52 7.23 a 117.54 117.54 0 0 0 -15.42 11.08 a 151.08 151.08 0 0 0 -13 13.09 a 182.46 182.46 0 0 0 -12.85 17.77 c -5.24 8.57 -9.28 17.76 -10.46 23.85 c -1.59 8.27 -0.28 15.1 3.72 19.12 a 9.31 9.31 0 0 0 5.12 2.88 c 3.23 0.81 9.9 0.53 15.19 -0.69 q 11.53 -2.59 28.95 -12.42 a 106.68 106.68 0 0 0 13.85 -8.91 c 4.55 -3.4 4.85 -3.58 6.47 -3.83 a 4.38 4.38 0 0 0 1.52 -0.49 c 0.3 -0.25 0.34 -0.21 0.34 0.3 a 4.94 4.94 0 0 0 0.56 1.64 c 1.11 2.08 1 7.13 -0.35 19.18 c -1.5 13.35 -3.18 22.63 -5.72 31.35 c -3.47 11.87 -10.76 20.23 -20.46 23.46 c -8.91 3 -22.34 2.28 -34.86 -1.76 c -10.13 -3.25 -19 -8.47 -29.18 -17.1 c -1.63 -1.39 -2.72 -1.62 -3.34 -0.69 s -0.44 1.77 0.41 3.53 c 3.56 7.39 16.62 17.45 30.29 23.31 a 90.36 90.36 0 0 0 17.71 5.29 a 57.82 57.82 0 0 0 19.3 0 a 25.57 25.57 0 0 0 7.85 -2.84 c 12.49 -6.55 21.37 -20 26.91 -40.65 c 2 -7.39 2.89 -12.37 5.34 -28.88 A 384.88 384.88 0 0 0 293 153.65 a 135.5 135.5 0 0 1 1.66 -16.58 a 51.8 51.8 0 0 0 0.86 -9.74 c 0 -4.13 0 -4.15 -0.65 -5.51 c -1.75 -3.58 -6.28 -6.47 -12.35 -7.92 a 26.5 26.5 0 0 0 -6.83 -0.67 A 38.67 38.67 0 0 0 269.27 113.48 Z m 4.91 10.39 c 4.3 0.88 6.68 3.32 7.42 7.57 c 0.32 2 0.27 2.5 -1.21 15.52 c -1.2 10.64 -1.7 13.89 -2.47 16.11 c -1.8 5.08 -7.38 11.2 -14.59 16 c -10 6.63 -23.89 13.07 -32 14.82 a 39.33 39.33 0 0 1 -9.35 0.33 c -3.32 -0.65 -5.65 -2.22 -6.79 -4.6 c -0.69 -1.45 -0.71 -1.64 -0.69 -4.29 c 0.05 -3.93 1.13 -7.64 4 -13.72 c 6.35 -13.29 20.32 -29.66 34.19 -40.05 c 6.14 -4.62 11.45 -7.64 14 -8 A 27.25 27.25 0 0 1 274.18 123.87 Z M 386.59 141 a 23.49 23.49 0 0 1 6.88 7 a 23.92 23.92 0 0 1 2.61 14.53 c -1 5.84 -5.45 13.85 -11.78 20.91 c -1.64 1.85 -2.77 3.65 -2.77 4.46 a 3.6 3.6 0 0 1 -1 1.43 a 4.87 4.87 0 0 0 -0.94 1.08 a 3.62 3.62 0 0 0 1.13 -0.3 a 3.59 3.59 0 0 1 2.17 -0.14 c 2 0.44 4.66 -0.34 11.73 -3.41 A 411.28 411.28 0 0 0 436 165.31 c 2.1 -1.25 5 -2.84 6.35 -3.58 s 3.53 -1.89 4.76 -2.56 c 2.38 -1.32 2.86 -1.46 3.55 -0.93 c 1.07 0.77 0.07 3.77 -2 6 a 61.54 61.54 0 0 1 -9.07 7 c -4.66 3.1 -14.56 8.43 -24.12 13 c -12.12 5.77 -32.23 14.59 -42.36 18.58 A 128.63 128.63 0 0 0 359.37 209 c -7 3.51 -9.58 4.39 -13.74 4.76 c -5.51 0.48 -10.5 -0.79 -12 -3.1 a 3.08 3.08 0 0 1 1.06 -4.38 c 2.06 -1.39 7.64 -3.56 12.79 -5 c 10.87 -3 12.14 -3.51 16 -6.09 c 9.17 -6.12 18.93 -19.58 21.4 -29.46 a 21.73 21.73 0 0 0 0 -8.54 a 12.6 12.6 0 0 0 -6.26 -8.2 c -4.87 -2.37 -8.82 -1.94 -16.25 1.83 a 75.32 75.32 0 0 0 -20.25 14.79 a 141.71 141.71 0 0 0 -18.79 24.29 c -5.93 9.47 -6.69 11.06 -8.31 17.57 c -2 7.78 -2.72 13.71 -3.95 30.63 c -0.85 11.62 -1.78 18 -2.95 20.36 a 6.57 6.57 0 0 1 -3.17 2.84 c -2.72 0.9 -6.81 -0.8 -8 -3.34 c -0.83 -1.78 -0.44 -6.31 2.1 -24.13 c 0.76 -5.4 1.54 -11.17 1.73 -12.81 c 1.64 -13.81 2.51 -25.35 2.77 -35.67 c 0.48 -20.38 0.88 -25.83 2.22 -30.33 c 0.8 -2.7 2.58 -5 4.52 -5.8 c 2.84 -1.2 6.53 0.7 7.59 3.88 c 0.58 1.73 0.33 5 -0.92 11.71 c -2.49 13.34 -2.61 14.59 -1.45 16.36 c 0.27 0.47 0.64 1.14 0.81 1.5 c 0.3 0.67 0.3 0.67 0.8 0.24 a 9.54 9.54 0 0 1 1.64 -1 c 1.3 -0.65 1.46 -0.83 5.94 -7.16 a 93.62 93.62 0 0 1 12.07 -14.22 a 104.65 104.65 0 0 1 13.67 -11.77 c 8.68 -6.28 15.05 -9.26 21.51 -10 C 378 138.11 382.66 138.83 386.59 141 Z" stroke-linecap="round" />
</g>
</svg>