<?xml version="1.0" encoding="UTF-8" standalone="no" ?>
<!DOCTYPE svg PUBLIC "-//W3C//DTD SVG 1.1//EN" "http://www.w3.org/Graphics/SVG/1.1/DTD/svg11.dtd">
<svg xmlns="http://www.w3.org/2000/svg" xmlns:xlink="http://www.w3.org/1999/xlink" version="1.1" width="233" height="68" viewBox="0 0 233 68" xml:space="preserve">
<desc>Created with Fabric.js 3.6.3</desc>
<defs>
</defs>
<g transform="matrix(0.43 0 0 0.43 116.56 30.19)"  >
<g style=""   >
		<g transform="matrix(1 0 0 1 -137.14 7.97)"  >
<linearGradient id="SVGID_8" gradientUnits="userSpaceOnUse" gradientTransform="matrix(1 0 0 1 0 0)"  x1="25.19" y1="217.76" x2="295.81" y2="217.76">
<stop offset="1%" style="stop-color:rgb(180,32,37);stop-opacity: 1"/>
<stop offset="36%" style="stop-color:rgb(157,34,29);stop-opacity: 1"/>
<stop offset="73%" style="stop-color:rgb(139,36,22);stop-opacity: 1"/>
<stop offset="100%" style="stop-color:rgb(133,37,20);stop-opacity: 1"/>
</linearGradient>
<path style="stroke: none; stroke-width: 1; stroke-dasharray: none; stroke-linecap: butt; stroke-dashoffset: 0; stroke-linejoin: miter; stroke-miterlimit: 4; fill: url(#SVGID_8); fill-rule: nonzero; opacity: 1;"  transform=" translate(-160.5, -217.73)" d="M 114 138.89 c -5.68 0.93 -11.29 3.12 -18.51 7.23 A 118.48 118.48 0 0 0 80 157.2 a 149.66 149.66 0 0 0 -13 13.09 a 182.71 182.71 0 0 0 -12.86 17.78 c -5.24 8.56 -9.28 17.75 -10.46 23.84 c -1.59 8.27 -0.27 15.1 3.72 19.12 a 9.31 9.31 0 0 0 5.13 2.88 c 3.23 0.81 9.9 0.53 15.19 -0.69 c 7.68 -1.73 17.36 -5.89 28.95 -12.42 a 107.37 107.37 0 0 0 13.85 -8.91 c 4.54 -3.39 4.84 -3.58 6.46 -3.83 a 4 4 0 0 0 1.52 -0.49 c 0.3 -0.25 0.35 -0.21 0.35 0.3 a 4.81 4.81 0 0 0 0.55 1.64 c 1.11 2.08 1 7.14 -0.34 19.19 c -1.5 13.34 -3.19 22.62 -5.73 31.35 c -3.46 11.86 -10.75 20.22 -20.45 23.45 c -8.91 3 -22.35 2.29 -34.86 -1.75 c -10.13 -3.26 -19 -8.48 -29.18 -17.11 c -1.64 -1.39 -2.72 -1.62 -3.35 -0.69 s -0.44 1.77 0.42 3.53 c 3.55 7.39 16.62 17.45 30.29 23.32 a 90.23 90.23 0 0 0 17.7 5.28 a 58.1 58.1 0 0 0 19.3 0 a 25.48 25.48 0 0 0 7.85 -2.84 c 12.49 -6.56 21.38 -20 26.92 -40.66 c 2 -7.38 2.89 -12.37 5.33 -28.88 a 382.91 382.91 0 0 0 4.37 -44.67 a 133.22 133.22 0 0 1 1.66 -16.57 a 52.7 52.7 0 0 0 0.85 -9.75 c 0 -4.13 0 -4.15 -0.64 -5.51 c -1.76 -3.58 -6.28 -6.47 -12.36 -7.92 a 26.4 26.4 0 0 0 -6.83 -0.67 A 38.67 38.67 0 0 0 114 138.89 Z m 4.92 10.39 c 4.29 0.88 6.67 3.33 7.41 7.57 c 0.32 2 0.28 2.5 -1.2 15.52 c -1.2 10.64 -1.71 13.89 -2.47 16.11 c -1.8 5.08 -7.39 11.2 -14.59 16 c -10 6.63 -23.89 13.07 -32 14.82 a 39.33 39.33 0 0 1 -9.35 0.33 c -3.33 -0.65 -5.66 -2.22 -6.79 -4.6 c -0.69 -1.45 -0.72 -1.64 -0.69 -4.29 c 0 -3.93 1.13 -7.64 4 -13.71 c 6.35 -13.3 20.31 -29.67 34.19 -40.06 c 6.14 -4.61 11.45 -7.64 14 -8 A 27.71 27.71 0 0 1 118.89 149.28 Z m 112.4 17.11 a 23.41 23.41 0 0 1 6.88 7 a 23.73 23.73 0 0 1 2.61 14.52 c -1 5.84 -5.45 13.85 -11.77 20.91 c -1.64 1.85 -2.77 3.65 -2.77 4.46 a 3.53 3.53 0 0 1 -1 1.43 a 5.47 5.47 0 0 0 -0.95 1.08 a 3.49 3.49 0 0 0 1.13 -0.3 a 3.52 3.52 0 0 1 2.17 -0.13 c 2 0.43 4.67 -0.35 11.73 -3.42 a 408.32 408.32 0 0 0 41.44 -21.24 c 2.1 -1.25 5 -2.84 6.35 -3.58 s 3.53 -1.89 4.75 -2.56 c 2.38 -1.32 2.87 -1.45 3.56 -0.92 c 1.06 0.76 0.07 3.76 -2 6 a 62.12 62.12 0 0 1 -9.07 7 c -4.67 3.09 -14.57 8.42 -24.13 13 c -12.12 5.77 -32.22 14.59 -42.36 18.58 a 132.66 132.66 0 0 0 -13.73 6.21 c -7 3.51 -9.58 4.39 -13.74 4.76 c -5.52 0.48 -10.5 -0.79 -12 -3.09 a 3.08 3.08 0 0 1 1.06 -4.39 c 2 -1.39 7.64 -3.56 12.79 -5 c 10.87 -3 12.14 -3.51 16 -6.09 c 9.16 -6.12 18.93 -19.58 21.4 -29.46 a 21.54 21.54 0 0 0 0 -8.54 a 12.53 12.53 0 0 0 -6.25 -8.19 c -4.88 -2.38 -8.82 -1.94 -16.26 1.82 a 75.15 75.15 0 0 0 -20.24 14.8 a 140.72 140.72 0 0 0 -18.79 24.28 c -5.94 9.47 -6.7 11.06 -8.31 17.57 c -2 7.78 -2.73 13.71 -3.95 30.63 c -0.86 11.62 -1.78 18 -3 20.37 a 6.6 6.6 0 0 1 -3.16 2.84 c -2.72 0.9 -6.81 -0.81 -8 -3.35 c -0.83 -1.78 -0.44 -6.3 2.1 -24.13 c 0.76 -5.4 1.55 -11.17 1.73 -12.81 c 1.64 -13.8 2.52 -25.35 2.77 -35.67 c 0.49 -20.38 0.88 -25.83 2.22 -30.33 c 0.81 -2.7 2.59 -5 4.53 -5.79 c 2.84 -1.2 6.53 0.69 7.59 3.87 c 0.58 1.74 0.32 5 -0.92 11.71 c -2.5 13.34 -2.61 14.59 -1.46 16.37 a 15.38 15.38 0 0 1 0.81 1.5 c 0.3 0.67 0.3 0.67 0.81 0.23 a 9.77 9.77 0 0 1 1.64 -1 c 1.29 -0.64 1.45 -0.83 5.93 -7.15 A 94.35 94.35 0 0 1 181.54 186 a 106 106 0 0 1 13.67 -11.77 c 8.68 -6.28 15 -9.26 21.52 -10 C 222.66 163.53 227.37 164.24 231.29 166.39 Z" stroke-linecap="round" />
</g>
		<g transform="matrix(1 0 0 1 -126.86 45.23)"  >
<path style="stroke: none; stroke-width: 1; stroke-dasharray: none; stroke-linecap: butt; stroke-dashoffset: 0; stroke-linejoin: miter; stroke-miterlimit: 4; fill: rgb(255,255,255); fill-rule: evenodd; opacity: 1;"  transform=" translate(-170.78, -255)" d="M 171.06 243.24 c -3.34 0.95 -5.74 3.62 -6.83 7.57 a 21.56 21.56 0 0 0 -0.25 7.85 c 0.67 3.81 2.28 6.28 5 7.6 c 1.43 0.71 1.69 0.76 4 0.76 a 17.67 17.67 0 0 0 3.65 -0.33 l 1.2 -0.3 V 253.51 h -6.23 v 3.7 h 2.07 v 6 h -0.8 c -1.67 0 -3 -1.18 -3.74 -3.28 a 23.23 23.23 0 0 1 0 -9.1 a 5 5 0 0 1 5.54 -3.71 a 15.73 15.73 0 0 1 1.75 0.18 c 0.25 0.07 0.44 -0.41 0.72 -1.8 l 0.39 -1.89 l -0.72 -0.25 A 13 13 0 0 0 171.06 243.24 Z" stroke-linecap="round" />
</g>
		<g transform="matrix(1 0 0 1 25.96 45.23)"  >
<path style="stroke: none; stroke-width: 1; stroke-dasharray: none; stroke-linecap: butt; stroke-dashoffset: 0; stroke-linejoin: miter; stroke-miterlimit: 4; fill: rgb(255,255,255); fill-rule: evenodd; opacity: 1;"  transform=" translate(-323.6, -255)" d="M 323.89 243.24 c -3.35 0.95 -5.75 3.62 -6.83 7.57 a 21.56 21.56 0 0 0 -0.26 7.85 c 0.67 3.81 2.29 6.28 5 7.6 c 1.43 0.71 1.68 0.76 4 0.76 a 17.56 17.56 0 0 0 3.64 -0.33 l 1.2 -0.3 V 253.51 h -6.23 v 3.7 h 2.08 v 6 h -0.81 c -1.66 0 -3 -1.18 -3.74 -3.28 a 23.23 23.23 0 0 1 0 -9.1 a 5 5 0 0 1 5.54 -3.71 a 16 16 0 0 1 1.76 0.18 c 0.25 0.07 0.44 -0.41 0.71 -1.8 l 0.39 -1.89 l -0.71 -0.25 A 13 13 0 0 0 323.89 243.24 Z" stroke-linecap="round" />
</g>
		<g transform="matrix(1 0 0 1 248.88 45.25)"  >
<path style="stroke: none; stroke-width: 1; stroke-dasharray: none; stroke-linecap: butt; stroke-dashoffset: 0; stroke-linejoin: miter; stroke-miterlimit: 4; fill: rgb(255,255,255); fill-rule: evenodd; opacity: 1;"  transform=" translate(-546.52, -255.02)" d="M 546.87 243.42 a 8.94 8.94 0 0 0 -5.4 5.06 a 19 19 0 0 0 0.09 13.87 a 9.26 9.26 0 0 0 4.09 4.14 a 11.44 11.44 0 0 0 5.7 0.41 l 1.34 -0.27 l -0.12 -0.84 c -0.06 -0.48 -0.18 -1.33 -0.27 -1.91 l -0.14 -1.06 l -1.64 0.09 c -2 0.11 -2.91 -0.28 -4 -1.71 c -1.87 -2.47 -2 -9 -0.19 -12 a 4.4 4.4 0 0 1 5.1 -2 l 0.7 0.16 l 0.27 -1.45 c 0.16 -0.81 0.35 -1.69 0.4 -1.94 c 0.11 -0.42 0 -0.53 -0.93 -0.76 A 8.9 8.9 0 0 0 546.87 243.42 Z" stroke-linecap="round" />
</g>
		<g transform="matrix(1 0 0 1 -101.89 45.25)"  >
<path style="stroke: none; stroke-width: 1; stroke-dasharray: none; stroke-linecap: butt; stroke-dashoffset: 0; stroke-linejoin: miter; stroke-miterlimit: 4; fill: rgb(255,255,255); fill-rule: evenodd; opacity: 1;"  transform=" translate(-195.75, -255.01)" d="M 193.23 243.24 c 0 0.18 -4.85 22.76 -5 23.27 s 0 0.42 2.15 0.35 l 2.26 -0.07 l 0.51 -2.66 c 0.27 -1.45 0.5 -2.68 0.5 -2.72 s 1 -0.05 2.11 -0.05 c 2.37 0 2 -0.37 2.72 3.23 l 0.39 2.2 l 2.26 0.07 c 2.24 0.07 2.27 0.07 2.13 -0.47 c -0.05 -0.3 -1 -5.42 -2.19 -11.38 s -2.15 -11.08 -2.2 -11.38 c -0.11 -0.48 -0.21 -0.51 -2.88 -0.51 A 15.65 15.65 0 0 0 193.23 243.24 Z m 3.46 9.33 c 0.37 2.58 0.69 4.84 0.69 5 s -0.39 0.32 -1.64 0.32 H 194.1 l 0.12 -0.65 c 0.07 -0.34 0.48 -2.7 0.88 -5.21 a 39 39 0 0 1 0.83 -4.39 C 196 247.76 196.3 250 196.69 252.57 Z" stroke-linecap="round" />
</g>
		<g transform="matrix(1 0 0 1 -76.46 45.33)"  >
<path style="stroke: none; stroke-width: 1; stroke-dasharray: none; stroke-linecap: butt; stroke-dashoffset: 0; stroke-linejoin: miter; stroke-miterlimit: 4; fill: rgb(255,255,255); fill-rule: evenodd; opacity: 1;"  transform=" translate(-221.18, -255.1)" d="M 214.23 251.25 c 0 8.45 0.17 10.34 1 12.24 a 6.28 6.28 0 0 0 6.56 3.57 a 5.7 5.7 0 0 0 5.24 -3.55 c 0.95 -2.1 1.09 -3.74 1.09 -12.38 v -8 h -4.6 l -0.07 9 c -0.07 8.52 -0.09 9.12 -0.51 9.82 c -0.92 1.5 -2.54 1.43 -3.46 -0.17 c -0.46 -0.76 -0.48 -1.22 -0.55 -9.76 l -0.07 -8.94 h -4.6 Z" stroke-linecap="round" />
</g>
		<g transform="matrix(1 0 0 1 -49.91 45.3)"  >
<path style="stroke: none; stroke-width: 1; stroke-dasharray: none; stroke-linecap: butt; stroke-dashoffset: 0; stroke-linejoin: miter; stroke-miterlimit: 4; fill: rgb(255,255,255); fill-rule: evenodd; opacity: 1;"  transform=" translate(-247.73, -255.07)" d="M 243 243.26 l -1.44 0.23 l -0.76 0.12 V 266.9 h 4.62 v -9.46 h 0.71 c 1.67 0 2.13 0.78 2.78 4.66 c 0.25 1.57 0.57 3.28 0.71 3.81 l 0.23 1 h 2.4 a 16.09 16.09 0 0 0 2.4 -0.09 a 3 3 0 0 0 -0.23 -0.69 c -0.11 -0.33 -0.53 -2.1 -0.92 -3.95 c -0.83 -4 -1.13 -4.78 -2.19 -5.77 l -0.84 -0.74 l 0.88 -0.6 a 6.92 6.92 0 0 0 0.9 -9.95 c -1.34 -1.36 -2.65 -1.78 -5.91 -1.87 C 244.87 243.19 243.37 243.22 243 243.26 Z m 5.35 4.07 c 1 0.83 1.32 3.39 0.56 4.8 a 3.1 3.1 0 0 1 -2.5 1.75 l -1 0.16 v -3.6 c 0 -3.55 0 -3.6 0.53 -3.67 A 3.79 3.79 0 0 1 248.33 247.33 Z" stroke-linecap="round" />
</g>
		<g transform="matrix(1 0 0 1 -25.94 45.25)"  >
<path style="stroke: none; stroke-width: 1; stroke-dasharray: none; stroke-linecap: butt; stroke-dashoffset: 0; stroke-linejoin: miter; stroke-miterlimit: 4; fill: rgb(255,255,255); fill-rule: evenodd; opacity: 1;"  transform=" translate(-271.7, -255.01)" d="M 269.18 243.24 c 0 0.18 -4.85 22.76 -5 23.27 s 0.05 0.42 2.15 0.35 l 2.26 -0.07 l 0.51 -2.66 c 0.28 -1.45 0.51 -2.68 0.51 -2.72 s 0.94 -0.05 2.1 -0.05 c 2.37 0 2 -0.37 2.72 3.23 l 0.39 2.2 l 2.27 0.07 c 2.23 0.07 2.26 0.07 2.12 -0.47 c -0.05 -0.3 -1 -5.42 -2.19 -11.38 s -2.15 -11.08 -2.2 -11.38 c -0.11 -0.48 -0.2 -0.51 -2.88 -0.51 A 15.65 15.65 0 0 0 269.18 243.24 Z m 3.46 9.33 c 0.37 2.58 0.69 4.84 0.69 5 s -0.39 0.32 -1.64 0.32 h -1.64 l 0.12 -0.65 c 0.07 -0.34 0.48 -2.7 0.88 -5.21 a 39 39 0 0 1 0.83 -4.39 C 271.9 247.76 272.25 250 272.64 252.57 Z" stroke-linecap="round" />
</g>
		<g transform="matrix(1 0 0 1 0.2 45.23)"  >
<path style="stroke: none; stroke-width: 1; stroke-dasharray: none; stroke-linecap: butt; stroke-dashoffset: 0; stroke-linejoin: miter; stroke-miterlimit: 4; fill: rgb(255,255,255); fill-rule: evenodd; opacity: 1;"  transform=" translate(-297.84, -255)" d="M 290.88 255 V 266.9 h 3.95 l -0.07 -7.94 c -0.05 -4.36 -0.05 -7.94 0 -7.92 s 0.37 1.09 0.76 2.36 s 1.74 4.82 3 7.89 l 2.19 5.61 h 4.09 V 243.12 h -4 l 0.13 6.63 c 0.1 3.67 0.23 7.32 0.3 8.15 c 0.12 1.48 0.1 1.43 -1.47 -2.77 c -0.88 -2.36 -2.27 -6 -3.1 -8.08 l -1.47 -3.81 l -2.13 -0.07 l -2.12 -0.07 Z" stroke-linecap="round" />
</g>
		<g transform="matrix(1 0 0 1 66.28 45.29)"  >
<path style="stroke: none; stroke-width: 1; stroke-dasharray: none; stroke-linecap: butt; stroke-dashoffset: 0; stroke-linejoin: miter; stroke-miterlimit: 4; fill: rgb(255,255,255); fill-rule: evenodd; opacity: 1;"  transform=" translate(-363.92, -255.05)" d="M 359.44 243.26 l -1.31 0.23 l -0.77 0.12 V 266.9 H 362 v -8.7 l 1.52 -0.14 a 9.47 9.47 0 0 0 4.69 -1.85 c 3.12 -2.88 3 -9.32 -0.14 -11.56 a 9.51 9.51 0 0 0 -1.87 -1 A 28.43 28.43 0 0 0 359.44 243.26 Z m 5.36 4.16 a 4.26 4.26 0 0 1 1.11 3.21 c 0 2.31 -1.27 3.81 -3.21 3.81 H 362 v -3.65 a 19.67 19.67 0 0 1 0.19 -3.83 C 362.44 246.66 364.29 247 364.8 247.42 Z" stroke-linecap="round" />
</g>
		<g transform="matrix(1 0 0 1 88.79 45.24)"  >
<path style="stroke: none; stroke-width: 1; stroke-dasharray: none; stroke-linecap: butt; stroke-dashoffset: 0; stroke-linejoin: miter; stroke-miterlimit: 4; fill: rgb(255,255,255); fill-rule: evenodd; opacity: 1;"  transform=" translate(-386.42, -255.01)" d="M 383.91 243.24 c 0 0.18 -4.85 22.76 -5 23.27 s 0 0.42 2.14 0.35 l 2.26 -0.07 l 0.51 -2.66 c 0.28 -1.45 0.51 -2.68 0.51 -2.72 s 0.95 -0.05 2.1 -0.05 c 2.38 0 2.06 -0.37 2.73 3.23 l 0.39 2.2 l 2.26 0.07 c 2.24 0.07 2.26 0.07 2.12 -0.47 c 0 -0.3 -1 -5.42 -2.19 -11.38 s -2.15 -11.08 -2.19 -11.38 c -0.12 -0.48 -0.21 -0.51 -2.89 -0.51 A 15.74 15.74 0 0 0 383.91 243.24 Z m 3.46 9.33 c 0.37 2.58 0.7 4.84 0.7 5 s -0.39 0.32 -1.64 0.32 h -1.64 l 0.11 -0.65 c 0.07 -0.34 0.49 -2.7 0.88 -5.21 s 0.79 -4.51 0.83 -4.39 S 387 250 387.37 252.57 Z" stroke-linecap="round" />
</g>
		<g transform="matrix(1 0 0 1 110.98 45.25)"  >
<polygon style="stroke: none; stroke-width: 1; stroke-dasharray: none; stroke-linecap: butt; stroke-dashoffset: 0; stroke-linejoin: miter; stroke-miterlimit: 4; fill: rgb(255,255,255); fill-rule: evenodd; opacity: 1;"  points="-6.47,-9.81 -6.47,-7.73 -4.38,-7.73 -2.31,-7.73 -2.31,2.08 -2.31,11.89 0,11.89 2.31,11.89 2.31,2.08 2.31,-7.73 4.38,-7.73 6.46,-7.73 6.46,-9.81 6.46,-11.89 0,-11.89 -6.47,-11.89 -6.47,-9.81 " />
</g>
		<g transform="matrix(1 0 0 1 134.06 45.25)"  >
<polygon style="stroke: none; stroke-width: 1; stroke-dasharray: none; stroke-linecap: butt; stroke-dashoffset: 0; stroke-linejoin: miter; stroke-miterlimit: 4; fill: rgb(255,255,255); fill-rule: evenodd; opacity: 1;"  points="-5.31,0 -5.31,11.89 0,11.89 5.31,11.89 5.31,9.93 5.31,7.97 2.31,7.97 -0.69,7.97 -0.69,4.74 -0.69,1.5 1.96,1.5 4.62,1.5 4.62,-0.46 4.62,-2.42 1.96,-2.42 -0.69,-2.42 -0.69,-5.19 -0.69,-7.96 2.19,-7.96 5.08,-7.96 5.08,-9.92 5.08,-11.89 -0.12,-11.89 -5.31,-11.89 -5.31,0 " />
</g>
		<g transform="matrix(1 0 0 1 156.68 45.25)"  >
<polygon style="stroke: none; stroke-width: 1; stroke-dasharray: none; stroke-linecap: butt; stroke-dashoffset: 0; stroke-linejoin: miter; stroke-miterlimit: 4; fill: rgb(255,255,255); fill-rule: evenodd; opacity: 1;"  points="-5.31,0 -5.31,11.89 0,11.89 5.31,11.89 5.31,9.93 5.31,7.97 2.31,7.97 -0.69,7.97 -0.69,-1.96 -0.69,-11.89 -3,-11.89 -5.31,-11.89 -5.31,0 " />
</g>
		<g transform="matrix(1 0 0 1 194.17 45.29)"  >
<path style="stroke: none; stroke-width: 1; stroke-dasharray: none; stroke-linecap: butt; stroke-dashoffset: 0; stroke-linejoin: miter; stroke-miterlimit: 4; fill: rgb(255,255,255); fill-rule: evenodd; opacity: 1;"  transform=" translate(-491.81, -255.05)" d="M 487.34 243.26 l -1.32 0.23 l -0.76 0.12 V 266.9 h 4.61 v -8.7 l 1.53 -0.14 a 9.47 9.47 0 0 0 4.68 -1.85 c 3.12 -2.88 3 -9.32 -0.13 -11.56 a 9.8 9.8 0 0 0 -1.87 -1 A 28.46 28.46 0 0 0 487.34 243.26 Z m 5.35 4.16 a 4.22 4.22 0 0 1 1.11 3.21 c 0 2.31 -1.27 3.81 -3.21 3.81 h -0.72 v -3.65 a 19.67 19.67 0 0 1 0.19 -3.83 C 490.34 246.66 492.18 247 492.69 247.42 Z" stroke-linecap="round" />
</g>
		<g transform="matrix(1 0 0 1 221.52 45.27)"  >
<path style="stroke: none; stroke-width: 1; stroke-dasharray: none; stroke-linecap: butt; stroke-dashoffset: 0; stroke-linejoin: miter; stroke-miterlimit: 4; fill: rgb(255,255,255); fill-rule: evenodd; opacity: 1;"  transform=" translate(-519.16, -255.03)" d="M 510.24 253.91 c -0.42 5.93 -0.84 11.28 -0.9 11.88 l -0.14 1.11 h 2 c 1.73 0 2 0 2 -0.41 c 0 -0.21 0.19 -3.88 0.4 -8.13 l 0.39 -7.73 l 0.53 2.77 c 0.3 1.52 1.06 5.08 1.73 7.89 l 1.2 5.15 h 1.66 a 6.65 6.65 0 0 0 1.69 -0.11 c 0 -0.07 0.53 -2.34 1.18 -5 s 1.4 -6.14 1.73 -7.64 s 0.6 -2.79 0.64 -2.84 a 26.38 26.38 0 0 1 0.12 3.14 c 0 1.78 0.14 5 0.25 7.11 s 0.23 4.32 0.23 4.85 v 1 h 4.18 l -0.14 -1.8 c -0.18 -2.47 -1.27 -20.61 -1.27 -21.35 v -0.63 h -4.82 l -0.23 0.86 c -0.49 1.89 -2.19 10 -2.68 12.88 a 8.78 8.78 0 0 1 -0.65 2.65 c 0 -0.18 -0.6 -2.67 -1.2 -5.54 s -1.36 -6.44 -1.7 -8 l -0.63 -2.77 l -2.42 -0.07 l -2.4 -0.07 Z" stroke-linecap="round" />
</g>
		<g transform="matrix(1 0 0 1 -107.4 70.77)"  >
<path style="stroke: none; stroke-width: 1; stroke-dasharray: none; stroke-linecap: butt; stroke-dashoffset: 0; stroke-linejoin: miter; stroke-miterlimit: 4; fill: rgb(255,255,255); fill-rule: evenodd; opacity: 1;"  transform=" translate(-190.24, -280.54)" d="M 187.45 280.52 V 287 h 1.39 v -3.24 c 0 -3.37 0.23 -4.38 1 -4.7 c 0.6 -0.21 0.78 -0.17 1.27 0.32 s 0.46 0.76 0.46 4 V 287 H 193 v -3.58 a 15.14 15.14 0 0 0 -0.33 -4.39 c -0.55 -1.31 -1.73 -1.64 -3.07 -0.81 l -0.76 0.47 v -4.62 h -1.39 Z" stroke-linecap="round" />
</g>
		<g transform="matrix(1 0 0 1 217.63 70.75)"  >
<polygon style="stroke: none; stroke-width: 1; stroke-dasharray: none; stroke-linecap: butt; stroke-dashoffset: 0; stroke-linejoin: miter; stroke-miterlimit: 4; fill: rgb(255,255,255); fill-rule: evenodd; opacity: 1;"  points="-0.69,0 -0.69,6.47 0,6.47 0.69,6.47 0.69,0 0.69,-6.46 0,-6.46 -0.69,-6.46 -0.69,0 " />
</g>
		<g transform="matrix(1 0 0 1 27 70.97)"  >
<path style="stroke: none; stroke-width: 1; stroke-dasharray: none; stroke-linecap: butt; stroke-dashoffset: 0; stroke-linejoin: miter; stroke-miterlimit: 4; fill: rgb(255,255,255); fill-rule: evenodd; opacity: 1;"  transform=" translate(-324.65, -280.74)" d="M 322.94 274.64 c -1.34 0.71 -1.7 2.95 -0.78 4.75 c 0.37 0.67 0.34 0.72 -0.26 1.18 a 4.22 4.22 0 0 0 -1.15 4.64 c 0.81 1.92 2.66 2.49 4.62 1.43 c 1.11 -0.6 1.13 -0.6 1.45 -0.12 A 1.24 1.24 0 0 0 328 287 h 0.81 l -0.81 -1.07 c -0.78 -1 -0.81 -1.08 -0.48 -1.73 a 19.76 19.76 0 0 0 1 -3.74 c 0 -0.09 -0.26 -0.16 -0.56 -0.16 c -0.57 0 -0.83 0.37 -0.83 1.23 a 7.16 7.16 0 0 1 -0.25 1.43 l -0.26 0.92 l -0.55 -0.69 c -0.32 -0.39 -0.88 -1.18 -1.25 -1.76 l -0.64 -1.08 l 0.69 -0.65 a 3.73 3.73 0 0 0 1.34 -3 A 2.15 2.15 0 0 0 322.94 274.64 Z m 1.87 1.24 a 2.62 2.62 0 0 1 -0.27 2.57 a 3 3 0 0 1 -0.79 0.85 c -0.62 0.21 -1.06 -2.45 -0.55 -3.42 a 1 1 0 0 1 1.61 0 Z m -0.32 7.27 l 1.32 1.85 l -0.63 0.53 a 1.91 1.91 0 0 1 -2.58 0 a 3 3 0 0 1 -0.33 -3.58 c 0.26 -0.43 0.58 -0.73 0.7 -0.69 A 17.57 17.57 0 0 1 324.49 283.15 Z" stroke-linecap="round" />
</g>
		<g transform="matrix(1 0 0 1 -127.88 70.99)"  >
<path style="stroke: none; stroke-width: 1; stroke-dasharray: none; stroke-linecap: butt; stroke-dashoffset: 0; stroke-linejoin: miter; stroke-miterlimit: 4; fill: rgb(255,255,255); fill-rule: evenodd; opacity: 1;"  transform=" translate(-169.76, -280.75)" d="M 169 274.66 c 0 0.07 -0.63 2.84 -1.39 6.14 s -1.38 6 -1.38 6.09 s 0.3 0.1 0.67 0.1 c 0.62 0 0.66 -0.07 1 -1.85 l 0.42 -1.87 l 1.41 0.07 l 1.41 0.07 l 0.27 1.15 c 0.14 0.63 0.35 1.43 0.42 1.78 c 0.11 0.53 0.28 0.65 0.85 0.65 s 0.67 -0.07 0.58 -0.42 s -0.65 -2.79 -1.29 -5.7 s -1.25 -5.54 -1.32 -5.84 s -0.28 -0.51 -0.9 -0.51 C 169.33 274.52 169 274.59 169 274.66 Z m 1.82 7.06 c 0 0.35 -0.18 0.42 -1.15 0.42 s -1.16 -0.05 -1 -0.42 s 1 -4.84 1.08 -5.54 A 56 56 0 0 1 170.81 281.72 Z" stroke-linecap="round" />
</g>
		<g transform="matrix(1 0 0 1 -100.83 65.67)"  >
<path style="stroke: none; stroke-width: 1; stroke-dasharray: none; stroke-linecap: butt; stroke-dashoffset: 0; stroke-linejoin: miter; stroke-miterlimit: 4; fill: rgb(255,255,255); fill-rule: evenodd; opacity: 1;"  transform=" translate(-196.81, -275.43)" d="M 196.23 274.87 c -0.6 0.71 0.3 1.89 1 1.29 a 0.9 0.9 0 0 0 0.1 -1.36 A 0.67 0.67 0 0 0 196.23 274.87 Z" stroke-linecap="round" />
</g>
		<g transform="matrix(1 0 0 1 -39.37 71.02)"  >
<path style="stroke: none; stroke-width: 1; stroke-dasharray: none; stroke-linecap: butt; stroke-dashoffset: 0; stroke-linejoin: miter; stroke-miterlimit: 4; fill: rgb(255,255,255); fill-rule: evenodd; opacity: 1;"  transform=" translate(-258.27, -280.79)" d="M 257.43 274.91 A 3.08 3.08 0 0 0 255.9 279 a 6.77 6.77 0 0 0 1.76 1.89 c 1.61 1.25 2.14 2.13 1.94 3.23 c -0.23 1.3 -1.48 1.83 -3.26 1.41 c -0.64 -0.16 -0.74 -0.14 -0.83 0.39 s 0 0.63 0.72 0.84 a 3.56 3.56 0 0 0 2.79 -0.14 c 2.75 -1.11 2.7 -4.48 -0.07 -6.54 c -2.05 -1.52 -2.45 -2.4 -1.55 -3.55 a 2 2 0 0 1 2.27 -0.65 c 0.62 0.19 0.73 0.16 0.87 -0.25 c 0.19 -0.65 -0.16 -0.9 -1.34 -1 A 3.06 3.06 0 0 0 257.43 274.91 Z" stroke-linecap="round" />
</g>
		<g transform="matrix(1 0 0 1 40.42 71)"  >
<path style="stroke: none; stroke-width: 1; stroke-dasharray: none; stroke-linecap: butt; stroke-dashoffset: 0; stroke-linejoin: miter; stroke-miterlimit: 4; fill: rgb(255,255,255); fill-rule: evenodd; opacity: 1;"  transform=" translate(-338.06, -280.77)" d="M 335.73 274.68 l -0.53 0.09 V 287 h 1.39 v -5 l 1.2 -0.16 a 3.54 3.54 0 0 0 3.07 -3 C 341.32 275.72 339.22 274 335.73 274.68 Z m 3.1 1.55 c 0.57 0.48 0.64 0.71 0.64 1.87 s -0.07 1.36 -0.76 2 a 2.29 2.29 0 0 1 -1.43 0.67 h -0.69 v -5.08 h 0.78 A 2.34 2.34 0 0 1 338.83 276.23 Z" stroke-linecap="round" />
</g>
		<g transform="matrix(1 0 0 1 59.84 65.68)"  >
<path style="stroke: none; stroke-width: 1; stroke-dasharray: none; stroke-linecap: butt; stroke-dashoffset: 0; stroke-linejoin: miter; stroke-miterlimit: 4; fill: rgb(255,255,255); fill-rule: evenodd; opacity: 1;"  transform=" translate(-357.48, -275.44)" d="M 356.9 274.87 c -0.6 0.71 0.3 1.89 1 1.29 a 0.9 0.9 0 0 0 0.09 -1.36 A 0.67 0.67 0 0 0 356.9 274.87 Z" stroke-linecap="round" />
</g>
		<g transform="matrix(1 0 0 1 92.37 70.96)"  >
<path style="stroke: none; stroke-width: 1; stroke-dasharray: none; stroke-linecap: butt; stroke-dashoffset: 0; stroke-linejoin: miter; stroke-miterlimit: 4; fill: rgb(255,255,255); fill-rule: evenodd; opacity: 1;"  transform=" translate(-390.01, -280.72)" d="M 386 275.4 c 0 0.92 -0.37 7.15 -0.58 9.92 l -0.14 1.69 l 0.65 -0.07 l 0.65 -0.07 l 0.2 -5 l 0.21 -5 l 1.27 5 c 1.76 6.95 1.69 7 3.79 -1.31 l 1 -3.93 l 0.14 3.58 c 0.09 2 0.16 4.27 0.18 5.13 l 0 1.57 h 1.38 l -0.11 -1.8 c -0.23 -3.31 -0.58 -9.15 -0.58 -9.91 s -0.05 -0.76 -0.81 -0.76 s -0.81 0.07 -1 1 c -0.39 1.47 -2.07 8.61 -2.07 8.86 s -2.54 -9.49 -2.54 -9.72 a 2.13 2.13 0 0 0 -0.81 -0.09 C 386 274.52 386 274.54 386 275.4 Z" stroke-linecap="round" />
</g>
		<g transform="matrix(1 0 0 1 180.63 70.96)"  >
<path style="stroke: none; stroke-width: 1; stroke-dasharray: none; stroke-linecap: butt; stroke-dashoffset: 0; stroke-linejoin: miter; stroke-miterlimit: 4; fill: rgb(255,255,255); fill-rule: evenodd; opacity: 1;"  transform=" translate(-478.28, -280.72)" d="M 477.87 275.05 a 4 4 0 0 0 -1.71 1.78 c -0.69 1.22 -0.71 1.36 -0.71 4 c 0 2.42 0.07 2.91 0.53 3.85 a 3.9 3.9 0 0 0 4.31 2.17 c 0.67 -0.13 0.81 -0.25 0.81 -0.73 s 0 -0.58 -0.85 -0.47 c -2.06 0.35 -3.33 -1.24 -3.49 -4.34 c -0.11 -2.33 0.21 -3.62 1.23 -4.71 a 1.81 1.81 0 0 1 1.82 -0.83 c 0.85 0 1.08 -0.07 1.2 -0.44 C 481.31 274.41 479.46 274.2 477.87 275.05 Z" stroke-linecap="round" />
</g>
		<g transform="matrix(1 0 0 1 -95.88 71.58)"  >
<path style="stroke: none; stroke-width: 1; stroke-dasharray: none; stroke-linecap: butt; stroke-dashoffset: 0; stroke-linejoin: miter; stroke-miterlimit: 4; fill: rgb(255,255,255); fill-rule: evenodd; opacity: 1;"  transform=" translate(-201.76, -281.34)" d="M 201.26 275.84 c -0.32 0.07 -0.42 0.34 -0.42 1.13 s 0 1 -0.57 1 s -0.58 0.12 -0.58 0.58 s 0.12 0.58 0.55 0.58 h 0.58 l 0.07 3.48 c 0.07 3.37 0.09 3.49 0.62 3.93 c 0.81 0.64 2.2 0.53 2.29 -0.21 c 0.07 -0.42 0 -0.51 -0.51 -0.51 c -0.88 0 -1.06 -0.62 -1.06 -3.78 v -2.91 H 203 c 0.71 0 0.81 -0.07 0.81 -0.58 s -0.1 -0.58 -0.81 -0.58 h -0.81 v -1.15 C 202.23 275.65 202.16 275.61 201.26 275.84 Z" stroke-linecap="round" />
</g>
		<g transform="matrix(1 0 0 1 -75.79 71.58)"  >
<path style="stroke: none; stroke-width: 1; stroke-dasharray: none; stroke-linecap: butt; stroke-dashoffset: 0; stroke-linejoin: miter; stroke-miterlimit: 4; fill: rgb(255,255,255); fill-rule: evenodd; opacity: 1;"  transform=" translate(-221.85, -281.34)" d="M 221.34 275.84 c -0.32 0.07 -0.41 0.34 -0.41 1.13 s -0.05 1 -0.58 1 s -0.58 0.12 -0.58 0.58 s 0.12 0.58 0.56 0.58 h 0.58 l 0.06 3.48 c 0.07 3.37 0.1 3.49 0.63 3.93 c 0.81 0.64 2.19 0.53 2.28 -0.21 c 0.07 -0.42 0 -0.51 -0.5 -0.51 c -0.88 0 -1.07 -0.62 -1.07 -3.78 v -2.91 h 0.81 c 0.72 0 0.81 -0.07 0.81 -0.58 s -0.09 -0.58 -0.81 -0.58 h -0.81 v -1.15 C 222.31 275.65 222.24 275.61 221.34 275.84 Z" stroke-linecap="round" />
</g>
		<g transform="matrix(1 0 0 1 -32.85 71.58)"  >
<path style="stroke: none; stroke-width: 1; stroke-dasharray: none; stroke-linecap: butt; stroke-dashoffset: 0; stroke-linejoin: miter; stroke-miterlimit: 4; fill: rgb(255,255,255); fill-rule: evenodd; opacity: 1;"  transform=" translate(-264.79, -281.34)" d="M 264.28 275.84 c -0.32 0.07 -0.41 0.34 -0.41 1.13 s -0.05 1 -0.58 1 s -0.58 0.12 -0.58 0.58 s 0.12 0.58 0.56 0.58 h 0.57 l 0.07 3.48 c 0.07 3.37 0.1 3.49 0.63 3.93 c 0.81 0.64 2.19 0.53 2.28 -0.21 c 0.07 -0.42 0 -0.51 -0.51 -0.51 c -0.87 0 -1.06 -0.62 -1.06 -3.78 v -2.91 h 0.81 c 0.72 0 0.81 -0.07 0.81 -0.58 s -0.09 -0.58 -0.81 -0.58 h -0.81 v -1.15 C 265.25 275.65 265.18 275.61 264.28 275.84 Z" stroke-linecap="round" />
</g>
		<g transform="matrix(1 0 0 1 -6.3 71.58)"  >
<path style="stroke: none; stroke-width: 1; stroke-dasharray: none; stroke-linecap: butt; stroke-dashoffset: 0; stroke-linejoin: miter; stroke-miterlimit: 4; fill: rgb(255,255,255); fill-rule: evenodd; opacity: 1;"  transform=" translate(-291.34, -281.34)" d="M 290.83 275.84 c -0.32 0.07 -0.41 0.34 -0.41 1.13 s -0.05 1 -0.58 1 s -0.58 0.12 -0.58 0.58 s 0.12 0.58 0.56 0.58 h 0.57 l 0.07 3.48 c 0.07 3.37 0.09 3.49 0.63 3.93 c 0.8 0.64 2.19 0.53 2.28 -0.21 c 0.07 -0.42 0 -0.51 -0.51 -0.51 c -0.87 0 -1.06 -0.62 -1.06 -3.78 v -2.91 h 0.81 c 0.71 0 0.81 -0.07 0.81 -0.58 s -0.1 -0.58 -0.81 -0.58 h -0.81 v -1.15 C 291.8 275.65 291.73 275.61 290.83 275.84 Z" stroke-linecap="round" />
</g>
		<g transform="matrix(1 0 0 1 79.33 71.58)"  >
<path style="stroke: none; stroke-width: 1; stroke-dasharray: none; stroke-linecap: butt; stroke-dashoffset: 0; stroke-linejoin: miter; stroke-miterlimit: 4; fill: rgb(255,255,255); fill-rule: evenodd; opacity: 1;"  transform=" translate(-376.97, -281.34)" d="M 376.48 275.84 c -0.32 0.07 -0.42 0.34 -0.42 1.13 s 0 1 -0.57 1 s -0.58 0.12 -0.58 0.58 s 0.11 0.58 0.55 0.58 H 376 l 0.07 3.48 c 0.07 3.37 0.09 3.49 0.62 3.93 c 0.81 0.64 2.2 0.53 2.29 -0.21 c 0.07 -0.42 0 -0.51 -0.51 -0.51 c -0.88 0 -1.06 -0.62 -1.06 -3.78 v -2.91 h 0.81 c 0.71 0 0.8 -0.07 0.8 -0.58 s -0.09 -0.58 -0.8 -0.58 h -0.81 v -1.15 C 377.45 275.65 377.38 275.61 376.48 275.84 Z" stroke-linecap="round" />
</g>
		<g transform="matrix(1 0 0 1 169.87 71.58)"  >
<path style="stroke: none; stroke-width: 1; stroke-dasharray: none; stroke-linecap: butt; stroke-dashoffset: 0; stroke-linejoin: miter; stroke-miterlimit: 4; fill: rgb(255,255,255); fill-rule: evenodd; opacity: 1;"  transform=" translate(-467.51, -281.34)" d="M 467 275.84 c -0.32 0.07 -0.41 0.34 -0.41 1.13 s -0.05 1 -0.58 1 s -0.58 0.12 -0.58 0.58 s 0.12 0.58 0.56 0.58 h 0.57 l 0.07 3.48 c 0.07 3.37 0.1 3.49 0.63 3.93 c 0.81 0.64 2.19 0.53 2.28 -0.21 c 0.07 -0.42 0 -0.51 -0.5 -0.51 c -0.88 0 -1.07 -0.62 -1.07 -3.78 v -2.91 h 0.81 c 0.72 0 0.81 -0.07 0.81 -0.58 s -0.09 -0.58 -0.81 -0.58 h -0.81 v -1.15 C 467.94 275.65 467.87 275.61 467 275.84 Z" stroke-linecap="round" />
</g>
		<g transform="matrix(1 0 0 1 222.7 71.58)"  >
<path style="stroke: none; stroke-width: 1; stroke-dasharray: none; stroke-linecap: butt; stroke-dashoffset: 0; stroke-linejoin: miter; stroke-miterlimit: 4; fill: rgb(255,255,255); fill-rule: evenodd; opacity: 1;"  transform=" translate(-520.35, -281.34)" d="M 519.84 275.84 c -0.32 0.07 -0.42 0.34 -0.42 1.13 s 0 1 -0.57 1 s -0.58 0.12 -0.58 0.58 s 0.11 0.58 0.55 0.58 h 0.58 l 0.07 3.48 c 0.07 3.37 0.09 3.49 0.62 3.93 c 0.81 0.64 2.2 0.53 2.29 -0.21 c 0.07 -0.42 0 -0.51 -0.51 -0.51 c -0.88 0 -1.06 -0.62 -1.06 -3.78 v -2.91 h 0.81 c 0.71 0 0.8 -0.07 0.8 -0.58 s -0.09 -0.58 -0.8 -0.58 h -0.81 v -1.15 C 520.81 275.65 520.74 275.61 519.84 275.84 Z" stroke-linecap="round" />
</g>
		<g transform="matrix(1 0 0 1 244.64 71.58)"  >
<path style="stroke: none; stroke-width: 1; stroke-dasharray: none; stroke-linecap: butt; stroke-dashoffset: 0; stroke-linejoin: miter; stroke-miterlimit: 4; fill: rgb(255,255,255); fill-rule: evenodd; opacity: 1;"  transform=" translate(-542.28, -281.34)" d="M 541.77 275.84 c -0.32 0.07 -0.41 0.34 -0.41 1.13 s -0.05 1 -0.58 1 s -0.58 0.12 -0.58 0.58 s 0.12 0.58 0.55 0.58 h 0.58 l 0.07 3.48 c 0.07 3.37 0.09 3.49 0.62 3.93 c 0.81 0.64 2.2 0.53 2.29 -0.21 c 0.07 -0.42 0 -0.51 -0.51 -0.51 c -0.88 0 -1.06 -0.62 -1.06 -3.78 v -2.91 h 0.81 c 0.71 0 0.81 -0.07 0.81 -0.58 s -0.1 -0.58 -0.81 -0.58 h -0.81 v -1.15 C 542.74 275.65 542.67 275.61 541.77 275.84 Z" stroke-linecap="round" />
</g>
		<g transform="matrix(1 0 0 1 -120.23 72.6)"  >
<path style="stroke: none; stroke-width: 1; stroke-dasharray: none; stroke-linecap: butt; stroke-dashoffset: 0; stroke-linejoin: miter; stroke-miterlimit: 4; fill: rgb(255,255,255); fill-rule: evenodd; opacity: 1;"  transform=" translate(-177.41, -282.36)" d="M 178.11 278 a 3.49 3.49 0 0 0 -0.86 0.74 c -0.39 0.48 -0.39 0.48 -0.41 -0.16 s -0.1 -0.63 -0.58 -0.63 h -0.58 v 9 h 1.39 V 284.1 c 0 -3.39 0.3 -4.39 1.38 -4.8 c 0.53 -0.21 0.69 -0.39 0.69 -0.9 C 179.14 277.71 178.84 277.61 178.11 278 Z" stroke-linecap="round" />
</g>
		<g transform="matrix(1 0 0 1 -114.55 72.6)"  >
<path style="stroke: none; stroke-width: 1; stroke-dasharray: none; stroke-linecap: butt; stroke-dashoffset: 0; stroke-linejoin: miter; stroke-miterlimit: 4; fill: rgb(255,255,255); fill-rule: evenodd; opacity: 1;"  transform=" translate(-183.08, -282.37)" d="M 182.93 278.08 c -2.33 1 -3 5.88 -1 7.94 c 1.11 1.2 3.49 1.31 3.49 0.16 c 0 -0.51 -0.07 -0.56 -0.7 -0.44 c -1.43 0.3 -2.53 -1.15 -2.53 -3.37 s 1.1 -3.67 2.53 -3.37 c 0.63 0.11 0.7 0.07 0.7 -0.42 C 185.38 277.73 184.27 277.5 182.93 278.08 Z" stroke-linecap="round" />
</g>
		<g transform="matrix(1 0 0 1 -89.16 72.61)"  >
<path style="stroke: none; stroke-width: 1; stroke-dasharray: none; stroke-linecap: butt; stroke-dashoffset: 0; stroke-linejoin: miter; stroke-miterlimit: 4; fill: rgb(255,255,255); fill-rule: evenodd; opacity: 1;"  transform=" translate(-208.49, -282.37)" d="M 207.49 278.12 c -1.87 1 -2.37 5.61 -0.85 7.74 a 3.22 3.22 0 0 0 3.12 1 c 0.87 -0.11 1 -0.21 1 -0.69 s -0.07 -0.56 -1 -0.44 a 2.52 2.52 0 0 1 -1.51 -0.14 a 3.24 3.24 0 0 1 -1.17 -2.42 c 0 -0.58 0 -0.58 2.08 -0.58 h 2.07 v -0.88 C 211.23 278.77 209.43 277.06 207.49 278.12 Z m 2 1.48 a 3.28 3.28 0 0 1 0.35 1.27 c 0 0.55 0 0.58 -1.41 0.58 H 207 l 0.14 -0.74 C 207.54 278.91 208.81 278.28 209.5 279.6 Z" stroke-linecap="round" />
</g>
		<g transform="matrix(1 0 0 1 -82 72.6)"  >
<path style="stroke: none; stroke-width: 1; stroke-dasharray: none; stroke-linecap: butt; stroke-dashoffset: 0; stroke-linejoin: miter; stroke-miterlimit: 4; fill: rgb(255,255,255); fill-rule: evenodd; opacity: 1;"  transform=" translate(-215.63, -282.37)" d="M 215.48 278.08 c -2.33 1 -3 5.88 -1 7.94 c 1.11 1.2 3.49 1.31 3.49 0.16 c 0 -0.51 -0.07 -0.56 -0.7 -0.44 c -1.43 0.3 -2.53 -1.15 -2.53 -3.37 s 1.1 -3.67 2.53 -3.37 c 0.63 0.11 0.7 0.07 0.7 -0.42 C 217.93 277.73 216.82 277.5 215.48 278.08 Z" stroke-linecap="round" />
</g>
		<g transform="matrix(1 0 0 1 -61.33 72.6)"  >
<path style="stroke: none; stroke-width: 1; stroke-dasharray: none; stroke-linecap: butt; stroke-dashoffset: 0; stroke-linejoin: miter; stroke-miterlimit: 4; fill: rgb(255,255,255); fill-rule: evenodd; opacity: 1;"  transform=" translate(-236.31, -282.36)" d="M 237 278 a 3.64 3.64 0 0 0 -0.85 0.74 c -0.39 0.48 -0.39 0.48 -0.42 -0.16 s -0.09 -0.63 -0.57 -0.63 h -0.58 v 9 h 1.38 V 284.1 c 0 -3.39 0.3 -4.39 1.39 -4.8 c 0.53 -0.21 0.69 -0.39 0.69 -0.9 C 238 277.71 237.71 277.61 237 278 Z" stroke-linecap="round" />
</g>
		<g transform="matrix(1 0 0 1 -55.21 72.61)"  >
<path style="stroke: none; stroke-width: 1; stroke-dasharray: none; stroke-linecap: butt; stroke-dashoffset: 0; stroke-linejoin: miter; stroke-miterlimit: 4; fill: rgb(255,255,255); fill-rule: evenodd; opacity: 1;"  transform=" translate(-242.42, -282.37)" d="M 241.43 278.12 c -1.87 1 -2.38 5.61 -0.86 7.74 a 3.23 3.23 0 0 0 3.12 1 c 0.88 -0.11 1 -0.21 1 -0.69 s -0.07 -0.56 -1 -0.44 a 2.48 2.48 0 0 1 -1.5 -0.14 a 3.21 3.21 0 0 1 -1.18 -2.42 c 0 -0.58 0 -0.58 2.08 -0.58 h 2.08 v -0.88 C 245.17 278.77 243.37 277.06 241.43 278.12 Z m 2 1.48 a 3.44 3.44 0 0 1 0.34 1.27 c 0 0.55 0 0.58 -1.4 0.58 H 241 l 0.14 -0.74 C 241.47 278.91 242.74 278.28 243.44 279.6 Z" stroke-linecap="round" />
</g>
		<g transform="matrix(1 0 0 1 -26.73 72.6)"  >
<path style="stroke: none; stroke-width: 1; stroke-dasharray: none; stroke-linecap: butt; stroke-dashoffset: 0; stroke-linejoin: miter; stroke-miterlimit: 4; fill: rgb(255,255,255); fill-rule: evenodd; opacity: 1;"  transform=" translate(-270.91, -282.36)" d="M 271.6 278 a 3.45 3.45 0 0 0 -0.85 0.74 c -0.4 0.48 -0.4 0.48 -0.42 -0.16 s -0.09 -0.63 -0.58 -0.63 h -0.57 v 9 h 1.38 V 284.1 c 0 -3.39 0.3 -4.39 1.39 -4.8 c 0.53 -0.21 0.69 -0.39 0.69 -0.9 C 272.64 277.71 272.34 277.61 271.6 278 Z" stroke-linecap="round" />
</g>
		<g transform="matrix(1 0 0 1 -12.49 72.6)"  >
<path style="stroke: none; stroke-width: 1; stroke-dasharray: none; stroke-linecap: butt; stroke-dashoffset: 0; stroke-linejoin: miter; stroke-miterlimit: 4; fill: rgb(255,255,255); fill-rule: evenodd; opacity: 1;"  transform=" translate(-285.15, -282.37)" d="M 285 278.08 c -2.33 1 -3 5.88 -1 7.94 c 1.11 1.2 3.48 1.31 3.48 0.16 c 0 -0.51 -0.06 -0.56 -0.69 -0.44 c -1.43 0.3 -2.54 -1.15 -2.54 -3.37 s 1.11 -3.67 2.54 -3.37 c 0.63 0.11 0.69 0.07 0.69 -0.42 C 287.41 277.73 286.31 277.5 285 278.08 Z" stroke-linecap="round" />
</g>
		<g transform="matrix(1 0 0 1 8.09 72.6)"  >
<path style="stroke: none; stroke-width: 1; stroke-dasharray: none; stroke-linecap: butt; stroke-dashoffset: 0; stroke-linejoin: miter; stroke-miterlimit: 4; fill: rgb(255,255,255); fill-rule: evenodd; opacity: 1;"  transform=" translate(-305.73, -282.36)" d="M 306.46 278 a 3.45 3.45 0 0 0 -0.85 0.74 c -0.4 0.48 -0.4 0.48 -0.42 -0.16 s -0.09 -0.63 -0.58 -0.63 H 304 v 9 h 1.38 V 284.1 c 0 -3.39 0.3 -4.39 1.39 -4.8 c 0.53 -0.21 0.69 -0.39 0.69 -0.9 C 307.5 277.71 307.2 277.61 306.46 278 Z" stroke-linecap="round" />
</g>
		<g transform="matrix(1 0 0 1 14.28 72.61)"  >
<path style="stroke: none; stroke-width: 1; stroke-dasharray: none; stroke-linecap: butt; stroke-dashoffset: 0; stroke-linejoin: miter; stroke-miterlimit: 4; fill: rgb(255,255,255); fill-rule: evenodd; opacity: 1;"  transform=" translate(-311.91, -282.37)" d="M 310.92 278.12 c -1.87 1 -2.38 5.61 -0.86 7.74 a 3.22 3.22 0 0 0 3.12 1 c 0.88 -0.11 1 -0.21 1 -0.69 s -0.07 -0.56 -1 -0.44 a 2.48 2.48 0 0 1 -1.5 -0.14 a 3.21 3.21 0 0 1 -1.18 -2.42 c 0 -0.58 0 -0.58 2.08 -0.58 h 2.08 v -0.88 C 314.66 278.77 312.85 277.06 310.92 278.12 Z m 2 1.48 a 3.28 3.28 0 0 1 0.35 1.27 c 0 0.55 0 0.58 -1.41 0.58 h -1.41 l 0.14 -0.74 C 311 278.91 312.23 278.28 312.92 279.6 Z" stroke-linecap="round" />
</g>
		<g transform="matrix(1 0 0 1 47.37 72.6)"  >
<path style="stroke: none; stroke-width: 1; stroke-dasharray: none; stroke-linecap: butt; stroke-dashoffset: 0; stroke-linejoin: miter; stroke-miterlimit: 4; fill: rgb(255,255,255); fill-rule: evenodd; opacity: 1;"  transform=" translate(-345.01, -282.36)" d="M 345.71 278 a 3.49 3.49 0 0 0 -0.86 0.74 c -0.39 0.48 -0.39 0.48 -0.41 -0.16 s -0.1 -0.63 -0.58 -0.63 h -0.58 v 9 h 1.39 V 284.1 c 0 -3.39 0.3 -4.39 1.38 -4.8 c 0.53 -0.21 0.69 -0.39 0.69 -0.9 C 346.74 277.71 346.44 277.61 345.71 278 Z" stroke-linecap="round" />
</g>
		<g transform="matrix(1 0 0 1 53.62 72.71)"  >
<path style="stroke: none; stroke-width: 1; stroke-dasharray: none; stroke-linecap: butt; stroke-dashoffset: 0; stroke-linejoin: miter; stroke-miterlimit: 4; fill: rgb(255,255,255); fill-rule: evenodd; opacity: 1;"  transform=" translate(-351.26, -282.48)" d="M 350.05 278.21 c -1.07 0.63 -1.53 1.69 -1.64 3.7 c -0.12 2.21 0.23 3.55 1.24 4.57 c 0.72 0.71 0.88 0.78 1.78 0.67 c 1.76 -0.23 2.7 -1.87 2.7 -4.66 c 0 -1.92 -0.37 -3.08 -1.27 -4 A 2 2 0 0 0 350.05 278.21 Z m 2.17 1.32 c 0.32 0.48 0.41 1.11 0.41 3 c 0 2.63 -0.37 3.57 -1.38 3.57 s -1.39 -0.94 -1.39 -3.57 s 0.37 -3.58 1.39 -3.58 A 1.21 1.21 0 0 1 352.22 279.53 Z" stroke-linecap="round" />
</g>
		<g transform="matrix(1 0 0 1 65.99 72.61)"  >
<path style="stroke: none; stroke-width: 1; stroke-dasharray: none; stroke-linecap: butt; stroke-dashoffset: 0; stroke-linejoin: miter; stroke-miterlimit: 4; fill: rgb(255,255,255); fill-rule: evenodd; opacity: 1;"  transform=" translate(-363.62, -282.37)" d="M 362.63 278.12 c -1.87 1 -2.38 5.61 -0.86 7.74 a 3.22 3.22 0 0 0 3.12 1 c 0.88 -0.11 1 -0.21 1 -0.69 s -0.07 -0.56 -1 -0.44 a 2.48 2.48 0 0 1 -1.5 -0.14 a 3.21 3.21 0 0 1 -1.18 -2.42 c 0 -0.58 0 -0.58 2.08 -0.58 h 2.08 v -0.88 C 366.37 278.77 364.57 277.06 362.63 278.12 Z m 2 1.48 a 3.44 3.44 0 0 1 0.34 1.27 c 0 0.55 0 0.58 -1.41 0.58 h -1.4 l 0.13 -0.74 C 362.67 278.91 363.94 278.28 364.64 279.6 Z" stroke-linecap="round" />
</g>
		<g transform="matrix(1 0 0 1 73.35 72.6)"  >
<path style="stroke: none; stroke-width: 1; stroke-dasharray: none; stroke-linecap: butt; stroke-dashoffset: 0; stroke-linejoin: miter; stroke-miterlimit: 4; fill: rgb(255,255,255); fill-rule: evenodd; opacity: 1;"  transform=" translate(-371, -282.37)" d="M 370.85 278.08 c -2.34 1 -3 5.88 -1 7.94 c 1.1 1.2 3.48 1.31 3.48 0.16 c 0 -0.51 -0.07 -0.56 -0.69 -0.44 c -1.43 0.3 -2.54 -1.15 -2.54 -3.37 s 1.11 -3.67 2.54 -3.37 c 0.62 0.11 0.69 0.07 0.69 -0.42 C 373.29 277.73 372.18 277.5 370.85 278.08 Z" stroke-linecap="round" />
</g>
		<g transform="matrix(1 0 0 1 101.88 72.76)"  >
<path style="stroke: none; stroke-width: 1; stroke-dasharray: none; stroke-linecap: butt; stroke-dashoffset: 0; stroke-linejoin: miter; stroke-miterlimit: 4; fill: rgb(255,255,255); fill-rule: evenodd; opacity: 1;"  transform=" translate(-399.51, -282.52)" d="M 398.18 278 c -0.67 0.25 -0.74 0.39 -0.51 1 c 0.09 0.27 0.25 0.3 0.76 0.09 a 1.44 1.44 0 0 1 2.1 0.88 c 0.35 1 0.17 1.5 -0.57 1.5 a 3.51 3.51 0 0 0 -2.75 1.7 c -0.67 1.44 -0.3 3.14 0.81 3.72 a 1.67 1.67 0 0 0 2.12 -0.11 c 0.69 -0.56 0.86 -0.58 0.86 -0.12 c 0 0.21 0.2 0.35 0.57 0.35 h 0.58 v -3.3 c 0 -3.54 -0.21 -4.71 -0.92 -5.36 A 3.75 3.75 0 0 0 398.18 278 Z m 2.58 5.56 c 0 1.59 -0.39 2.35 -1.27 2.45 s -1.26 -0.42 -1.26 -1.53 a 2.35 2.35 0 0 1 1.93 -2.12 C 400.74 282.37 400.76 282.44 400.76 283.57 Z" stroke-linecap="round" />
</g>
		<g transform="matrix(1 0 0 1 110.27 72.62)"  >
<path style="stroke: none; stroke-width: 1; stroke-dasharray: none; stroke-linecap: butt; stroke-dashoffset: 0; stroke-linejoin: miter; stroke-miterlimit: 4; fill: rgb(255,255,255); fill-rule: evenodd; opacity: 1;"  transform=" translate(-407.9, -282.38)" d="M 407.69 277.91 a 3.75 3.75 0 0 0 -0.85 0.6 l -0.54 0.47 v -0.49 c 0 -0.39 -0.13 -0.51 -0.57 -0.51 h -0.58 v 9 h 1.39 v -3.24 c 0 -3.37 0.23 -4.38 1 -4.7 c 0.6 -0.21 0.79 -0.17 1.27 0.32 s 0.47 0.76 0.47 4 V 287 h 1.38 v -3.58 c 0 -2.61 -0.09 -3.81 -0.35 -4.39 A 2 2 0 0 0 407.69 277.91 Z" stroke-linecap="round" />
</g>
		<g transform="matrix(1 0 0 1 118.27 72.76)"  >
<path style="stroke: none; stroke-width: 1; stroke-dasharray: none; stroke-linecap: butt; stroke-dashoffset: 0; stroke-linejoin: miter; stroke-miterlimit: 4; fill: rgb(255,255,255); fill-rule: evenodd; opacity: 1;"  transform=" translate(-415.9, -282.52)" d="M 414.57 278 c -0.67 0.25 -0.74 0.39 -0.51 1 c 0.09 0.27 0.26 0.3 0.76 0.09 a 1.44 1.44 0 0 1 2.1 0.88 c 0.35 1 0.17 1.5 -0.57 1.5 a 3.53 3.53 0 0 0 -2.75 1.7 c -0.67 1.44 -0.3 3.14 0.81 3.72 a 1.67 1.67 0 0 0 2.12 -0.11 c 0.69 -0.56 0.86 -0.58 0.86 -0.12 c 0 0.21 0.2 0.35 0.57 0.35 h 0.58 v -3.3 c 0 -3.54 -0.21 -4.71 -0.92 -5.36 A 3.75 3.75 0 0 0 414.57 278 Z m 2.59 5.56 c 0 1.59 -0.4 2.35 -1.27 2.45 s -1.27 -0.42 -1.27 -1.53 a 2.35 2.35 0 0 1 1.93 -2.12 C 417.13 282.37 417.16 282.44 417.16 283.57 Z" stroke-linecap="round" />
</g>
		<g transform="matrix(1 0 0 1 126.35 74.58)"  >
<path style="stroke: none; stroke-width: 1; stroke-dasharray: none; stroke-linecap: butt; stroke-dashoffset: 0; stroke-linejoin: miter; stroke-miterlimit: 4; fill: rgb(255,255,255); fill-rule: evenodd; opacity: 1;"  transform=" translate(-423.99, -284.34)" d="M 423 278 c -1.29 0.53 -2 2.45 -1.89 5 c 0.11 1.89 0.67 3.23 1.59 3.69 a 1.64 1.64 0 0 0 2.17 -0.16 l 0.65 -0.51 l -0.14 1.34 a 3.17 3.17 0 0 1 -0.67 1.92 c -0.49 0.5 -0.67 0.55 -1.71 0.43 s -1.2 -0.09 -1.32 0.35 c -0.16 0.6 0.28 0.79 1.85 0.79 a 2.85 2.85 0 0 0 1.85 -0.49 c 1.24 -0.92 1.34 -1.36 1.4 -7.09 l 0.1 -5.24 h -0.6 c -0.46 0 -0.6 0.12 -0.6 0.49 s 0 0.46 -0.72 -0.12 A 1.59 1.59 0 0 0 423 278 Z m 1.75 1.39 c 0.63 0.62 0.77 1.29 0.67 3.58 c -0.07 1.61 -0.18 2 -0.6 2.44 a 1.14 1.14 0 0 1 -1.89 -0.3 a 9.38 9.38 0 0 1 -0.39 -4.17 c 0.16 -0.93 0.94 -2 1.43 -2 A 1.45 1.45 0 0 1 424.77 279.37 Z" stroke-linecap="round" />
</g>
		<g transform="matrix(1 0 0 1 134.55 72.61)"  >
<path style="stroke: none; stroke-width: 1; stroke-dasharray: none; stroke-linecap: butt; stroke-dashoffset: 0; stroke-linejoin: miter; stroke-miterlimit: 4; fill: rgb(255,255,255); fill-rule: evenodd; opacity: 1;"  transform=" translate(-432.18, -282.37)" d="M 431.19 278.12 c -1.87 1 -2.38 5.61 -0.85 7.74 a 3.2 3.2 0 0 0 3.11 1 c 0.88 -0.11 1 -0.21 1 -0.69 s -0.07 -0.56 -1 -0.44 a 2.48 2.48 0 0 1 -1.5 -0.14 a 3.24 3.24 0 0 1 -1.17 -2.42 c 0 -0.58 0 -0.58 2.07 -0.58 h 2.08 v -0.88 C 434.93 278.77 433.13 277.06 431.19 278.12 Z m 2 1.48 a 3.47 3.47 0 0 1 0.35 1.27 c 0 0.55 -0.05 0.58 -1.41 0.58 h -1.41 l 0.14 -0.74 C 431.24 278.91 432.51 278.28 433.2 279.6 Z" stroke-linecap="round" />
</g>
		<g transform="matrix(1 0 0 1 144.67 72.62)"  >
<path style="stroke: none; stroke-width: 1; stroke-dasharray: none; stroke-linecap: butt; stroke-dashoffset: 0; stroke-linejoin: miter; stroke-miterlimit: 4; fill: rgb(255,255,255); fill-rule: evenodd; opacity: 1;"  transform=" translate(-442.31, -282.38)" d="M 440 277.91 a 3.75 3.75 0 0 0 -0.85 0.6 l -0.54 0.47 v -0.49 c 0 -0.39 -0.13 -0.51 -0.57 -0.51 h -0.58 v 9 h 1.36 l 0.07 -3.6 c 0.07 -3.47 0.09 -3.63 0.62 -4 s 1 -0.56 1.55 -0.12 c 0.39 0.3 0.44 0.69 0.51 4 l 0.07 3.72 H 443 v -3.44 c 0 -3.28 0 -3.49 0.53 -4.09 s 0.67 -0.6 1.13 -0.48 c 0.88 0.23 1.11 1.2 1.11 4.8 V 287 h 1.39 v -3.47 c 0 -2.58 -0.1 -3.67 -0.37 -4.34 a 2 2 0 0 0 -3.42 -0.73 c -0.74 0.64 -0.81 0.66 -0.92 0.27 A 2 2 0 0 0 440 277.91 Z" stroke-linecap="round" />
</g>
		<g transform="matrix(1 0 0 1 154.87 72.61)"  >
<path style="stroke: none; stroke-width: 1; stroke-dasharray: none; stroke-linecap: butt; stroke-dashoffset: 0; stroke-linejoin: miter; stroke-miterlimit: 4; fill: rgb(255,255,255); fill-rule: evenodd; opacity: 1;"  transform=" translate(-452.5, -282.37)" d="M 451.51 278.12 c -1.87 1 -2.38 5.61 -0.86 7.74 a 3.22 3.22 0 0 0 3.12 1 c 0.88 -0.11 1 -0.21 1 -0.69 s -0.06 -0.56 -1 -0.44 a 2.48 2.48 0 0 1 -1.5 -0.14 a 3.21 3.21 0 0 1 -1.18 -2.42 c 0 -0.58 0 -0.58 2.08 -0.58 h 2.08 v -0.88 C 455.25 278.77 453.45 277.06 451.51 278.12 Z m 2 1.48 a 3.28 3.28 0 0 1 0.35 1.27 c 0 0.55 -0.05 0.58 -1.41 0.58 H 451 l 0.14 -0.74 C 451.55 278.91 452.82 278.28 453.51 279.6 Z" stroke-linecap="round" />
</g>
		<g transform="matrix(1 0 0 1 162.66 72.62)"  >
<path style="stroke: none; stroke-width: 1; stroke-dasharray: none; stroke-linecap: butt; stroke-dashoffset: 0; stroke-linejoin: miter; stroke-miterlimit: 4; fill: rgb(255,255,255); fill-rule: evenodd; opacity: 1;"  transform=" translate(-460.3, -282.38)" d="M 460.09 277.91 a 4 4 0 0 0 -0.85 0.6 l -0.53 0.47 v -0.49 c 0 -0.39 -0.14 -0.51 -0.58 -0.51 h -0.58 v 9 h 1.39 v -3.24 c 0 -3.37 0.23 -4.38 1 -4.7 c 0.6 -0.21 0.78 -0.17 1.27 0.32 s 0.46 0.76 0.46 4 V 287 h 1.39 v -3.58 c 0 -2.61 -0.1 -3.81 -0.35 -4.39 A 2 2 0 0 0 460.09 277.91 Z" stroke-linecap="round" />
</g>
		<g transform="matrix(1 0 0 1 188.2 72.71)"  >
<path style="stroke: none; stroke-width: 1; stroke-dasharray: none; stroke-linecap: butt; stroke-dashoffset: 0; stroke-linejoin: miter; stroke-miterlimit: 4; fill: rgb(255,255,255); fill-rule: evenodd; opacity: 1;"  transform=" translate(-485.85, -282.47)" d="M 484.63 278.21 c -1.06 0.63 -1.52 1.69 -1.64 3.7 c -0.11 2.21 0.24 3.55 1.25 4.57 c 0.72 0.71 0.88 0.78 1.78 0.67 c 1.75 -0.23 2.7 -1.87 2.7 -4.66 c 0 -1.92 -0.37 -3.08 -1.27 -4 A 2 2 0 0 0 484.63 278.21 Z m 2.17 1.32 c 0.33 0.48 0.42 1.11 0.42 3 c 0 2.63 -0.37 3.57 -1.39 3.57 s -1.38 -0.94 -1.38 -3.57 s 0.37 -3.58 1.38 -3.58 A 1.19 1.19 0 0 1 486.8 279.53 Z" stroke-linecap="round" />
</g>
		<g transform="matrix(1 0 0 1 196.37 72.62)"  >
<path style="stroke: none; stroke-width: 1; stroke-dasharray: none; stroke-linecap: butt; stroke-dashoffset: 0; stroke-linejoin: miter; stroke-miterlimit: 4; fill: rgb(255,255,255); fill-rule: evenodd; opacity: 1;"  transform=" translate(-494.01, -282.38)" d="M 493.8 277.91 a 3.77 3.77 0 0 0 -0.86 0.6 l -0.53 0.47 v -0.49 c 0 -0.39 -0.13 -0.51 -0.57 -0.51 h -0.58 v 9 h 1.38 v -3.24 c 0 -3.37 0.24 -4.38 1 -4.7 c 0.6 -0.21 0.79 -0.17 1.27 0.32 s 0.46 0.76 0.46 4 V 287 h 1.39 v -3.58 c 0 -2.61 -0.09 -3.81 -0.35 -4.39 A 2 2 0 0 0 493.8 277.91 Z" stroke-linecap="round" />
</g>
		<g transform="matrix(1 0 0 1 203.87 72.6)"  >
<path style="stroke: none; stroke-width: 1; stroke-dasharray: none; stroke-linecap: butt; stroke-dashoffset: 0; stroke-linejoin: miter; stroke-miterlimit: 4; fill: rgb(255,255,255); fill-rule: evenodd; opacity: 1;"  transform=" translate(-501.51, -282.37)" d="M 500.59 278.19 a 2.31 2.31 0 0 0 -1 2.75 a 6 6 0 0 0 1.5 1.78 c 1 0.83 1.25 1.22 1.25 1.73 A 1.45 1.45 0 0 1 500 285.6 c -0.34 -0.18 -0.46 -0.14 -0.58 0.26 c -0.2 0.64 0.1 0.9 1.21 1.06 a 2.61 2.61 0 0 0 2.72 -1.32 c 0.72 -1.38 0.21 -2.7 -1.55 -4 c -1.2 -0.9 -1.43 -1.61 -0.71 -2.31 c 0.27 -0.3 0.6 -0.34 1.24 -0.25 s 0.86 0.07 1 -0.35 s 0 -0.53 -0.44 -0.69 A 2.36 2.36 0 0 0 500.59 278.19 Z" stroke-linecap="round" />
</g>
		<g transform="matrix(1 0 0 1 229.34 72.77)"  >
<path style="stroke: none; stroke-width: 1; stroke-dasharray: none; stroke-linecap: butt; stroke-dashoffset: 0; stroke-linejoin: miter; stroke-miterlimit: 4; fill: rgb(255,255,255); fill-rule: evenodd; opacity: 1;"  transform=" translate(-526.97, -282.54)" d="M 525.61 278 c -0.67 0.25 -0.74 0.39 -0.51 1 c 0.1 0.27 0.26 0.3 0.76 0.09 A 1.45 1.45 0 0 1 528 280 c 0.34 1 0.16 1.5 -0.58 1.5 a 3.55 3.55 0 0 0 -2.75 1.7 c -0.67 1.44 -0.3 3.14 0.81 3.72 a 1.67 1.67 0 0 0 2.12 -0.11 c 0.7 -0.56 0.86 -0.58 0.86 -0.12 c 0 0.21 0.2 0.35 0.57 0.35 h 0.58 v -3.3 c 0 -3.54 -0.21 -4.71 -0.92 -5.36 A 3.75 3.75 0 0 0 525.61 278 Z m 2.59 5.56 c 0 1.59 -0.4 2.35 -1.27 2.45 s -1.27 -0.42 -1.27 -1.53 a 2.35 2.35 0 0 1 1.94 -2.12 C 528.17 282.37 528.2 282.44 528.2 283.57 Z" stroke-linecap="round" />
</g>
		<g transform="matrix(1 0 0 1 237.46 72.62)"  >
<path style="stroke: none; stroke-width: 1; stroke-dasharray: none; stroke-linecap: butt; stroke-dashoffset: 0; stroke-linejoin: miter; stroke-miterlimit: 4; fill: rgb(255,255,255); fill-rule: evenodd; opacity: 1;"  transform=" translate(-535.1, -282.38)" d="M 534.89 277.91 a 3.75 3.75 0 0 0 -0.85 0.6 l -0.53 0.47 v -0.49 c 0 -0.39 -0.14 -0.51 -0.58 -0.51 h -0.58 v 9 h 1.39 v -3.24 c 0 -3.37 0.23 -4.38 1 -4.7 c 0.6 -0.21 0.78 -0.17 1.27 0.32 s 0.46 0.76 0.46 4 V 287 h 1.38 v -3.58 c 0 -2.61 -0.09 -3.81 -0.34 -4.39 A 2 2 0 0 0 534.89 277.91 Z" stroke-linecap="round" />
</g>
		<g transform="matrix(1 0 0 1 250.53 72.61)"  >
<path style="stroke: none; stroke-width: 1; stroke-dasharray: none; stroke-linecap: butt; stroke-dashoffset: 0; stroke-linejoin: miter; stroke-miterlimit: 4; fill: rgb(255,255,255); fill-rule: evenodd; opacity: 1;"  transform=" translate(-548.17, -282.37)" d="M 547.22 278.19 a 2.31 2.31 0 0 0 -1 2.75 a 5.67 5.67 0 0 0 1.5 1.78 c 1 0.83 1.24 1.22 1.24 1.73 c 0 1.17 -1.17 1.75 -2.31 1.15 c -0.34 -0.18 -0.46 -0.14 -0.57 0.26 c -0.21 0.64 0.09 0.9 1.2 1.06 A 2.6 2.6 0 0 0 550 285.6 c 0.72 -1.38 0.21 -2.7 -1.54 -4 c -1.21 -0.9 -1.44 -1.61 -0.72 -2.31 c 0.28 -0.3 0.6 -0.34 1.25 -0.25 s 0.85 0.07 1 -0.35 s 0 -0.53 -0.44 -0.69 A 2.38 2.38 0 0 0 547.22 278.19 Z" stroke-linecap="round" />
</g>
		<g transform="matrix(1 0 0 1 -100.95 72.72)"  >
<polygon style="stroke: none; stroke-width: 1; stroke-dasharray: none; stroke-linecap: butt; stroke-dashoffset: 0; stroke-linejoin: miter; stroke-miterlimit: 4; fill: rgb(255,255,255); fill-rule: evenodd; opacity: 1;"  points="-0.69,0 -0.69,4.5 0,4.5 0.69,4.5 0.69,0 0.69,-4.5 0,-4.5 -0.69,-4.5 -0.69,0 " />
</g>
		<g transform="matrix(1 0 0 1 -68.66 72.8)"  >
<path style="stroke: none; stroke-width: 1; stroke-dasharray: none; stroke-linecap: butt; stroke-dashoffset: 0; stroke-linejoin: miter; stroke-miterlimit: 4; fill: rgb(255,255,255); fill-rule: evenodd; opacity: 1;"  transform=" translate(-228.99, -282.56)" d="M 226.28 281.72 c 0.1 4.11 0.28 4.83 1.37 5.27 a 2.25 2.25 0 0 0 2.31 -0.37 c 0.34 -0.42 0.66 -0.42 0.66 0 c 0 0.21 0.21 0.35 0.58 0.35 h 0.58 v -9 h -1.39 v 3.44 c 0 3.28 0 3.49 -0.53 4.09 s -0.67 0.6 -1.13 0.48 c -0.88 -0.23 -1.11 -1.2 -1.11 -4.8 V 278 h -1.43 Z" stroke-linecap="round" />
</g>
		<g transform="matrix(1 0 0 1 -20.18 72.8)"  >
<path style="stroke: none; stroke-width: 1; stroke-dasharray: none; stroke-linecap: butt; stroke-dashoffset: 0; stroke-linejoin: miter; stroke-miterlimit: 4; fill: rgb(255,255,255); fill-rule: evenodd; opacity: 1;"  transform=" translate(-277.47, -282.56)" d="M 274.76 281.72 c 0.1 4.11 0.28 4.83 1.37 5.27 a 2.24 2.24 0 0 0 2.3 -0.37 c 0.35 -0.42 0.67 -0.42 0.67 0 c 0 0.21 0.21 0.35 0.58 0.35 h 0.58 v -9 h -1.39 v 3.44 c 0 3.28 0 3.49 -0.53 4.09 s -0.67 0.6 -1.13 0.48 c -0.88 -0.23 -1.11 -1.2 -1.11 -4.8 V 278 h -1.43 Z" stroke-linecap="round" />
</g>
		<g transform="matrix(1 0 0 1 0.83 72.8)"  >
<path style="stroke: none; stroke-width: 1; stroke-dasharray: none; stroke-linecap: butt; stroke-dashoffset: 0; stroke-linejoin: miter; stroke-miterlimit: 4; fill: rgb(255,255,255); fill-rule: evenodd; opacity: 1;"  transform=" translate(-298.48, -282.56)" d="M 295.77 281.72 c 0.09 4.11 0.28 4.83 1.36 5.27 a 2.25 2.25 0 0 0 2.31 -0.37 c 0.35 -0.42 0.67 -0.42 0.67 0 c 0 0.21 0.21 0.35 0.58 0.35 h 0.58 v -9 h -1.39 v 3.44 c 0 3.28 0 3.49 -0.53 4.09 s -0.67 0.6 -1.13 0.48 c -0.88 -0.23 -1.11 -1.2 -1.11 -4.8 V 278 h -1.43 Z" stroke-linecap="round" />
</g>
		<g transform="matrix(1 0 0 1 59.15 74.61)"  >
<path style="stroke: none; stroke-width: 1; stroke-dasharray: none; stroke-linecap: butt; stroke-dashoffset: 0; stroke-linejoin: miter; stroke-miterlimit: 4; fill: rgb(255,255,255); fill-rule: evenodd; opacity: 1;"  transform=" translate(-356.79, -284.38)" d="M 356.86 283.32 l -0.07 5.33 l -0.74 0.62 c -1.27 1.06 -0.9 1.94 0.51 1.27 s 1.61 -1.18 1.68 -7.2 l 0.07 -5.36 h -1.38 Z" stroke-linecap="round" />
</g>
		<g transform="matrix(1 0 0 1 211.15 72.8)"  >
<path style="stroke: none; stroke-width: 1; stroke-dasharray: none; stroke-linecap: butt; stroke-dashoffset: 0; stroke-linejoin: miter; stroke-miterlimit: 4; fill: rgb(255,255,255); fill-rule: evenodd; opacity: 1;"  transform=" translate(-508.78, -282.56)" d="M 506.08 281.72 c 0.09 4.11 0.28 4.83 1.36 5.27 a 2.25 2.25 0 0 0 2.31 -0.37 c 0.35 -0.42 0.67 -0.42 0.67 0 c 0 0.21 0.21 0.35 0.58 0.35 h 0.57 v -9 h -1.38 v 3.44 c 0 3.28 0 3.49 -0.53 4.09 s -0.67 0.6 -1.13 0.48 c -0.88 -0.23 -1.11 -1.2 -1.11 -4.8 V 278 H 506 l 0.09 3.74 Z" stroke-linecap="round" />
</g>
		<g transform="matrix(1 0 0 1 -49.33 77.3)"  >
<path style="stroke: none; stroke-width: 1; stroke-dasharray: none; stroke-linecap: butt; stroke-dashoffset: 0; stroke-linejoin: miter; stroke-miterlimit: 4; fill: rgb(255,255,255); fill-rule: evenodd; opacity: 1;"  transform=" translate(-248.31, -287.07)" d="M 247.5 287 a 11.31 11.31 0 0 0 -0.42 2.19 c 0.24 0.23 0.9 -0.25 1.14 -0.81 c 0.11 -0.32 0.48 -1.24 0.78 -2.05 l 0.55 -1.43 H 248 Z" stroke-linecap="round" />
</g>
		<g transform="matrix(1 0 0 1 259.72 1.17)"  >
<path style="stroke: none; stroke-width: 1; stroke-dasharray: none; stroke-linecap: butt; stroke-dashoffset: 0; stroke-linejoin: miter; stroke-miterlimit: 4; fill: rgb(255,255,255); fill-rule: evenodd; opacity: 1;"  transform=" translate(-557.36, -210.93)" d="M 556.66 198.24 c -0.31 0 -0.81 0.07 -1.18 0.12 a 12.73 12.73 0 0 0 -10.66 10.58 a 14 14 0 0 0 -0.07 3.48 a 12.7 12.7 0 0 0 5 8.65 a 12.54 12.54 0 0 0 6.19 2.49 a 15.31 15.31 0 0 0 2.79 0 A 12.75 12.75 0 0 0 570 212 a 14.88 14.88 0 0 0 0 -2.41 a 12.71 12.71 0 0 0 -3.64 -7.58 a 12.42 12.42 0 0 0 -2 -1.62 a 12.72 12.72 0 0 0 -6.14 -2.11 C 558 198.23 557 198.22 556.66 198.24 Z m 2.11 2 l 0.71 0.11 a 10.78 10.78 0 0 1 7.59 5.88 a 11.16 11.16 0 0 1 1 3.52 a 18 18 0 0 1 0 2.32 a 10.71 10.71 0 0 1 -4.48 7.61 a 10.9 10.9 0 0 1 -5.05 1.92 a 22.64 22.64 0 0 1 -2.33 0 a 10.73 10.73 0 0 1 -9.5 -9.34 a 14.33 14.33 0 0 1 0 -2.62 A 10.76 10.76 0 0 1 553.2 201 a 10.49 10.49 0 0 1 3.14 -0.79 A 14.11 14.11 0 0 1 558.77 200.27 Z" stroke-linecap="round" />
</g>
		<g transform="matrix(1 0 0 1 260.6 1.18)"  >
<path style="stroke: none; stroke-width: 1; stroke-dasharray: none; stroke-linecap: butt; stroke-dashoffset: 0; stroke-linejoin: miter; stroke-miterlimit: 4; fill: rgb(255,255,255); fill-rule: evenodd; opacity: 1;"  transform=" translate(-558.24, -210.94)" d="M 553.48 210.93 v 5.87 h 1.93 v -4.3 H 558 l 0.08 0.12 l 0.58 0.92 c 0.29 0.44 0.73 1.14 1 1.56 s 0.62 1 0.78 1.22 l 0.3 0.48 h 1.95 l 0 -0.07 l -0.58 -0.92 c -1.66 -2.59 -2.2 -3.45 -2.19 -3.46 a 1.28 1.28 0 0 1 0.28 -0.08 a 4.63 4.63 0 0 0 1.5 -0.64 a 3.46 3.46 0 0 0 0.78 -0.8 a 2.56 2.56 0 0 0 0.42 -1.11 a 4.29 4.29 0 0 0 0 -1.82 a 2.51 2.51 0 0 0 -0.7 -1.51 a 3 3 0 0 0 -1.36 -0.91 a 5.22 5.22 0 0 0 -1.18 -0.35 a 31.08 31.08 0 0 0 -3.19 0 l -2.92 0 Z m 5.48 -4.24 l 0.37 0.06 a 2.22 2.22 0 0 1 0.89 0.42 a 1.26 1.26 0 0 1 0.57 0.59 a 1.61 1.61 0 0 1 0.17 1 a 2 2 0 0 1 -0.08 0.63 a 1.77 1.77 0 0 1 -0.36 0.64 a 2.34 2.34 0 0 1 -0.58 0.45 l -0.56 0.17 a 3.67 3.67 0 0 1 -0.78 0.19 c -0.17 0 -0.9 0 -1.73 0 h -1.44 v -4.19 h 1.69 C 558.23 206.65 558.85 206.67 559 206.69 Z" stroke-linecap="round" />
</g>
</g>
</g>
</svg>