<svg id="Layer_1" data-name="Layer 1" xmlns="http://www.w3.org/2000/svg" viewBox="0 0 752.75 205.66"><defs><style>.cls-1{fill:#14037c;}.cls-2{fill:#18077e;}.cls-3{fill:#17057d;}.cls-4{fill:#0c489d;}.cls-5{fill:#1a087e;}.cls-6{fill:#0d3c97;}.cls-7{fill:#ff0905;}.cls-8{fill:#0f3192;}.cls-9{fill:#0f248c;}.cls-10{fill:#0d449b;}.cls-11{fill:#ff0b06;}.cls-12{fill:#ff0704;}.cls-13{fill:#0f2b90;}.cls-14{fill:#0da3c8;}.cls-15{fill:#101b88;}.cls-16{fill:#120f82;}.cls-17{fill:#1e0b80;}.cls-18{fill:#b7e4ef;}.cls-19{fill:#fefdfe;}.cls-20{fill:#f8f5fa;}.cls-21{fill:#0b50a1;}.cls-22{fill:#fffcfa;}.cls-23{fill:#0a58a5;}.cls-24{fill:#076eaf;}.cls-25{fill:#0966ab;}.cls-26{fill:#0960a8;}.cls-27{fill:#0874b2;}.cls-28{fill:#0880b7;}.cls-29{fill:#0c8cbd;}</style></defs><path class="cls-1" d="M156.33,307.42V199c.53,0,1-.08,1.46-.08q25,0,50.05,0a33,33,0,0,1,9.62,1.33c7.21,2.23,12.09,7.07,14.89,13.93a30.57,30.57,0,0,1,.4,22.48,21.1,21.1,0,0,1-11,12.3c-.41.2-.81.42-1.44.75.68.27,1.15.47,1.63.64,9.43,3.27,14.68,10,16.25,19.72a36.55,36.55,0,0,1-2.2,20.54,31.32,31.32,0,0,1-2.29,4.37,22.29,22.29,0,0,1-16,10.77,117,117,0,0,1-19.86,1.73c-13.17-.14-26.34,0-39.5,0ZM184.11,284c5.69,0,11.23,0,16.77,0a13.26,13.26,0,0,0,3.44-.67,8.81,8.81,0,0,0,6-5.76,13.48,13.48,0,0,0,.53-7.25c-.76-4-3.08-6.63-7.13-7.48a27.83,27.83,0,0,0-5.22-.59c-4.42-.09-8.85,0-13.27,0-.36,0-.71.06-1.09.09Zm0-42.56c4.88,0,9.62,0,14.36,0a12.54,12.54,0,0,0,3.12-.59,7.29,7.29,0,0,0,5.21-5,14.63,14.63,0,0,0,.39-8,7.9,7.9,0,0,0-7-6.53,25.45,25.45,0,0,0-3.81-.34c-3.67,0-7.35,0-11,0-.41,0-.82,0-1.29.06Z" transform="translate(-46.69 -198.83)"/><path class="cls-1" d="M323.29,239.38v22.13H280.78v21.4H328.1c0,8.11,0,16.19,0,24.38h-75V199h73.56v23.17H280.75v17.25Z" transform="translate(-46.69 -198.83)"/><path class="cls-1" d="M449.08,199h30.17q16.68,54.15,33.39,108.4H483.8l-4.45-17.74H448.12c-1.48,5.89-3,11.76-4.46,17.71H415.85s-.09-.06-.11-.1a.21.21,0,0,1,0-.16,4.44,4.44,0,0,1,.1-.62ZM473.49,266c-3.21-12.89-6.39-25.62-9.57-38.35l-.28,0c-3.2,12.76-6.4,25.52-9.62,38.38Z" transform="translate(-46.69 -198.83)"/><path class="cls-1" d="M420.47,225.76h-28v81.56H364.91V225.75h-28.1V199h83.66Z" transform="translate(-46.69 -198.83)"/><path class="cls-2" d="M748.28,306.66h-7.1v-32l-.34-.05c-1,3.46-1.64,7-2.46,10.5s-1.62,7.16-2.44,10.74-1.64,7.15-2.47,10.76h-7.54l-7.26-32-.26,0v32l-3.57.06h-3.49c-.33-1.17-.44-39.91-.13-42.45h11.62l3.4,14.16c1.12,4.71,2.24,9.41,3.65,14.13q1.68-7.12,3.37-14.24l3.32-14.07h11.7Z" transform="translate(-46.69 -198.83)"/><path class="cls-1" d="M665.13,243.29h-7.45V199c.41,0,.82-.1,1.23-.1,1.81,0,3.62,0,5.43,0a1.54,1.54,0,0,1,1.62,1c.69,1.38,1.47,2.71,2.22,4.06l12.66,22.94c.23.42.48.83.85,1.47a19.24,19.24,0,0,0,.18-4.22c0-1.39,0-2.77,0-4.16V199h7.36v44.26h-8q-7.87-14.19-15.81-28.52l-.26.07Z" transform="translate(-46.69 -198.83)"/><path class="cls-3" d="M639.49,264c6.27.12,12.39.16,18.51.4a11.93,11.93,0,0,1,8.83,4.55,19.57,19.57,0,0,1,4.28,9.65,37,37,0,0,1-.39,15.53,22.39,22.39,0,0,1-1.09,3.17c-2.28,5.51-6.37,8.86-12.34,9.18s-11.8.07-17.8.07Zm7.86,7.37v28c2.9,0,5.72.14,8.51,0,3.87-.24,5.72-1.86,6.86-5.58a13.46,13.46,0,0,0,.35-1.39,38.43,38.43,0,0,0,.43-11,15.31,15.31,0,0,0-1.33-5.4,7.11,7.11,0,0,0-5.55-4.31C653.56,271.21,650.48,271.46,647.35,271.41Z" transform="translate(-46.69 -198.83)"/><path class="cls-3" d="M736.77,206.48v9.82h19.66a28.37,28.37,0,0,1,.1,7.48H737c-.34,1.25-.44,9-.17,12.09,2.4.06,4.83,0,7.25,0h14.82v7.39H728.73V199h29.34v7.49Z" transform="translate(-46.69 -198.83)"/><path class="cls-3" d="M702.79,206.44v9.88h19.86v7.44H703c-.36,1.28-.47,8-.21,12.08,1.81.14,3.65,0,5.49.06s3.73,0,5.6,0H725v7.38H694.78V199h29.3v7.44Z" transform="translate(-46.69 -198.83)"/><path class="cls-3" d="M705.29,264.34v7c-6.85.08-13.68,0-20.59.05v9.32h19.19c0,1.28.05,2.43.06,3.57s0,2.34,0,3.7H684.7v11.48h21.36v7c-1,.32-26.77.43-29.18.11V264.4C678,264.1,703.45,264,705.29,264.34Z" transform="translate(-46.69 -198.83)"/><path class="cls-3" d="M523.31,306.63l15-42.42h8.28q7.66,21.07,15.44,42.42h-8.41l-3.3-9.49H534.74q-1.59,4.75-3.18,9.49Zm24.38-16.87c-1.83-5.21-3.42-10.27-5.38-15.58-1.78,5.41-3.44,10.43-5.14,15.58Z" transform="translate(-46.69 -198.83)"/><path class="cls-3" d="M636.78,306.67h-8.4c-1.09-3.12-2.18-6.27-3.31-9.51H609.53q-1.59,4.72-3.18,9.5h-8.26c5-14.2,10-28.28,14.95-42.42h8.31Zm-14.3-16.91c-1.78-5.22-3.5-10.24-5.22-15.27l-.27.05c-1.66,5-3.32,10.06-5,15.22Z" transform="translate(-46.69 -198.83)"/><path class="cls-3" d="M596.73,275.89l-7.59,2c-.23-.64-.41-1.18-.61-1.72-2.46-6.57-9.94-6.48-13.43-3.25a10.28,10.28,0,0,0-3.11,5.47,30.26,30.26,0,0,0,.21,14.71,8.75,8.75,0,0,0,6.09,6.62,7.65,7.65,0,0,0,9.1-3.51,22.85,22.85,0,0,0,1.45-3.36c.21-.53.34-1.09.53-1.71a7.32,7.32,0,0,1,.84.21l6.47,2.19c-.4,6.16-5.68,12.19-11.74,13.47-9.34,2-17.56-2.79-20.41-12a31.47,31.47,0,0,1,.3-19.66c1.78-5.26,5.19-9.15,10.58-11a17.58,17.58,0,0,1,11.61,0C592.47,266.21,595.37,270.31,596.73,275.89Z" transform="translate(-46.69 -198.83)"/><path class="cls-2" d="M569.35,206.46H556V199h35.88c0,1.18,0,2.38,0,3.59s0,2.43,0,3.8H578.55v36.9h-9.2Z" transform="translate(-46.69 -198.83)"/><path class="cls-4" d="M46.8,271.15c0-.63-.08-1.26-.08-1.89q0-8.1,0-16.2c0-.58.05-1.16.08-1.74.84,0,.75-.81.94-1.3,1.12-2.87,2-5.85,3.32-8.62a44.76,44.76,0,0,1,6.32-9.52,45.77,45.77,0,0,1,9-8.06A42.63,42.63,0,0,1,74,219.61a46.61,46.61,0,0,1,17.6-3.82l-1,4.07H83.92l1.32,1.65a6.55,6.55,0,0,1-1.38.68,45.2,45.2,0,0,0-12.38,4.93,40.38,40.38,0,0,0-10.25,8.78,40.8,40.8,0,0,0-9.16,21.16,50.62,50.62,0,0,0,.16,11.47A40.81,40.81,0,0,0,56,280.47a40.28,40.28,0,0,0,11.41,13.95,10.85,10.85,0,0,0,1.37.79l-3.18,4.17A37.59,37.59,0,0,1,62,296.72a47.14,47.14,0,0,1-6.44-7,40.12,40.12,0,0,1-5.31-9.39c-.92-2.59-1.68-5.24-2.56-7.85C47.57,272,47.64,271.21,46.8,271.15Z" transform="translate(-46.69 -198.83)"/><path class="cls-5" d="M779.74,243.3h-8.16V206.48H759.81v-7.32c1.16-.33,27.83-.47,31.52-.16v7.44H779.74Z" transform="translate(-46.69 -198.83)"/><path class="cls-6" d="M91.62,215.79A46.61,46.61,0,0,0,74,219.61a42.63,42.63,0,0,0-7.67,4.21,45.77,45.77,0,0,0-9,8.06,44.76,44.76,0,0,0-6.32,9.52c-1.33,2.77-2.2,5.75-3.32,8.62-.19.49-.1,1.25-.94,1.3q0-6.25-.08-12.51c0-.74.05-1.48.08-2.21.76,0,1.07-.58,1.41-1.14a33.45,33.45,0,0,1,1.91-2.93A55,55,0,0,1,58,223.61a57.9,57.9,0,0,1,10-7,51.86,51.86,0,0,1,23-6.2,58.81,58.81,0,0,1,6.35.31,50,50,0,0,1,5,.66,48.28,48.28,0,0,1,13.24,4.44,50.41,50.41,0,0,1,10.2,6.75,45.32,45.32,0,0,1,8.13,8.7c1.06,1.59,2.18,3.13,3.26,4.7.3.44.48,1,1.15,1v9.93c-.82-.11-.87-.87-1.14-1.41-1.26-2.57-2.39-5.21-3.75-7.73a43.86,43.86,0,0,0-10-11.92A42.79,42.79,0,0,0,110.74,218c-5.53-2.14-11.18-3.65-17.17-3.48l-.84-2.2Z" transform="translate(-46.69 -198.83)"/><path class="cls-3" d="M768.86,281c3-5.75,5.94-11.25,8.87-16.78h8.88c-.29.57-.52,1.07-.8,1.55q-6.27,11-12.56,21.89a5.06,5.06,0,0,0-.73,2.71c0,4.79,0,9.59,0,14.39v1.84h-7.75c0-.44,0-1,0-1.45,0-5,0-9.92,0-14.87a5.15,5.15,0,0,0-.72-2.71q-6.28-10.86-12.51-21.74c-.28-.49-.53-1-.89-1.67,2.93,0,5.63,0,8.34,0,.76,0,1,.48,1.27,1q3.15,5.83,6.32,11.66Z" transform="translate(-46.69 -198.83)"/><path class="cls-7" d="M658.78,350.09c1.39-6.37,2.78-12.73,4.19-19.16h7.3V360h-4.41c-.08-2.3,0-4.67,0-7V338.72a.51.51,0,0,0-.12-.05c-.05,0-.13,0-.14.05a1.38,1.38,0,0,0-.21.42C663.9,346.07,662.46,353,661,360h-4.73q-2.25-10.71-4.52-21.48l-.28,0V360H647V330.93h7.22c1.42,6.45,2.83,12.81,4.25,19.18Z" transform="translate(-46.69 -198.83)"/><path class="cls-8" d="M138.32,236.91c-.67,0-.85-.53-1.15-1-1.08-1.57-2.2-3.11-3.26-4.7a45.32,45.32,0,0,0-8.13-8.7,50.41,50.41,0,0,0-10.2-6.75,48.28,48.28,0,0,0-13.24-4.44,50,50,0,0,0-5-.66,58.81,58.81,0,0,0-6.35-.31,51.86,51.86,0,0,0-23,6.2,57.9,57.9,0,0,0-10,7,55,55,0,0,0-7.87,8.92,33.45,33.45,0,0,0-1.91,2.93c-.34.56-.65,1.11-1.41,1.14v-7.36a8.33,8.33,0,0,0,1.42-.94,25.54,25.54,0,0,0,2-2.3,46,46,0,0,1,8.09-7.87,55.85,55.85,0,0,1,12.78-7.43,51.73,51.73,0,0,1,17.07-4.12,56.12,56.12,0,0,1,15.07.86,58.36,58.36,0,0,1,19.39,7.77,67,67,0,0,1,7.07,5.4,64.39,64.39,0,0,1,6.26,6.54c.75.83,1.07,2.15,2.41,2.4Z" transform="translate(-46.69 -198.83)"/><path class="cls-9" d="M46.8,223.8v-6.08a1.74,1.74,0,0,0,1.53-.69,55.6,55.6,0,0,1,7.86-6.66A57.08,57.08,0,0,1,67.85,204c2.39-1,4.86-1.77,7.29-2.67.51-.18,1.23-.2,1.13-1.06.37,0,.74-.07,1.11-.07h31.7c.37,0,.73.05,1.1.07,0,.49.18.74.67.91,1.45.51,2.87,1.11,4.31,1.63a56.37,56.37,0,0,1,11.51,5.71,52.85,52.85,0,0,1,9.79,7.8,8.36,8.36,0,0,0,1.86,1.12v6.4c-.82.1-1.26-.45-1.72-1s-1-1.26-1.54-1.81c-1.15-1.1-2.38-2.11-3.52-3.22a51.13,51.13,0,0,0-12.27-8.46,55.5,55.5,0,0,0-10.51-4.11A61.13,61.13,0,0,0,94.37,203a49.35,49.35,0,0,0-7,.31,73.2,73.2,0,0,0-7.84,1.1,54.93,54.93,0,0,0-17,6.67,53.88,53.88,0,0,0-10.85,8.27c-1.19,1.21-2.39,2.43-3.62,3.6A7.61,7.61,0,0,1,46.8,223.8Z" transform="translate(-46.69 -198.83)"/><path class="cls-10" d="M93.57,214.51c6-.17,11.64,1.34,17.17,3.48a42.79,42.79,0,0,1,12.71,7.79,43.86,43.86,0,0,1,10,11.92c1.36,2.52,2.49,5.16,3.75,7.73.27.54.32,1.3,1.14,1.41,0,.36.07.73.07,1.1v28.19c0,.37,0,.74-.07,1.11-.9.2-1,1-1.23,1.7a45.59,45.59,0,0,1-4.92,9.79,50.62,50.62,0,0,1-8.26,9.45,32,32,0,0,1-3.29,2.46L118,297.45c1.68-.43,2.82-1.69,4-2.79a45.73,45.73,0,0,0,8.75-11.09,46.79,46.79,0,0,0,5.06-15c.46-2.55.19-5.1.3-7.65a33.75,33.75,0,0,0-1.19-9.43A44,44,0,0,0,130.8,241a38.66,38.66,0,0,0-6.54-9,67.31,67.31,0,0,0-5.35-4.76,40.91,40.91,0,0,0-13.21-6.9,8,8,0,0,0-4.37-.65l-1.36,0c0-.87-.82-.91-1.37-1-1.33-.21-2.68-.27-4-.39Z" transform="translate(-46.69 -198.83)"/><path class="cls-2" d="M543.23,199h8.87c.35,1.23.5,39.87.17,44.29h-9Z" transform="translate(-46.69 -198.83)"/><path class="cls-1" d="M527.68,243.28V199h9v44.25Z" transform="translate(-46.69 -198.83)"/><path class="cls-9" d="M138.32,298v6.72a4.73,4.73,0,0,0-1.38.64c-1,.92-2,1.92-2.95,2.9a42.36,42.36,0,0,1-7.81,6,83.66,83.66,0,0,1-8.55,4.6,51.35,51.35,0,0,1-6.7,2.5c-2.17.68-4.42,1.11-6.62,1.7-.52.14-1.23.2-1.16,1-.21,0-.42.07-.63.07H75.93a4.5,4.5,0,0,1-.63-.07c0-1-.75-1-1.39-1.23a63.22,63.22,0,0,1-17.55-8.5,49.6,49.6,0,0,1-7.81-6.51c-.48-.5-.94-1-1.75-.92v-8.64a7.88,7.88,0,0,1,1.63,1.17A64.41,64.41,0,0,0,57.07,308l-1.27,1.12,1.72,2.76,1.25-.8,1.5.89c1.78,1.05,3.49,2.25,5.35,3.13a65.38,65.38,0,0,0,10.5,4.12,56,56,0,0,0,14.07,2.19,40.69,40.69,0,0,0,8.1-.27c2.54-.47,5.15-.58,7.66-1.16a59.22,59.22,0,0,0,18.68-7.88,7.34,7.34,0,0,0,1.29-1.37l1.72,1.23c.57-1.07,1-1.93,1.44-2.73l-1-1.2c.67-.71,1.33-1.44,2-2.14,1.93-2,3.87-3.9,5.82-5.82C136.67,299.3,137.18,298.29,138.32,298Z" transform="translate(-46.69 -198.83)"/><path class="cls-7" d="M549.57,347.25a15.27,15.27,0,0,1,4.66,5.8c1.08,2,2.13,4.05,3.19,6.09.13.26.21.56.35.93H552l-3.21-5.69c-.68-1.21-1.43-2.38-2.05-3.62-1.21-2.37-3.1-3.23-5.83-2.71v12h-4.81V331a3.46,3.46,0,0,1,.61-.12c4,0,8.1,0,12.15.14,4.22.16,6.73,2.78,7,7a14.59,14.59,0,0,1,0,2.56,7.12,7.12,0,0,1-5.05,6.36ZM541,343.09c2.46,0,4.84.09,7.21,0a2.71,2.71,0,0,0,2.57-2.62,7.55,7.55,0,0,0,0-1.9,2.69,2.69,0,0,0-2.57-2.61c-2.37-.13-4.76,0-7.22,0Z" transform="translate(-46.69 -198.83)"/><path class="cls-11" d="M612.94,339l-4.72,1.06c-.16-.36-.32-.63-.42-.92-1.62-4.58-7-4.44-9.49-2.13a7.85,7.85,0,0,0-2.37,4.44,18.49,18.49,0,0,0,.24,8.56c1.48,5.4,6.34,7.16,11,4a2.16,2.16,0,0,0,1.18-2.22,20.56,20.56,0,0,1,0-2.38h-5.56v-4.73a57.5,57.5,0,0,1,10.48-.08c0,.34.08.7.08,1.07,0,3.09,0,6.18,0,9.28a2.12,2.12,0,0,1-.69,1.85c-3.79,3.14-8,4.56-12.93,3.42a10.5,10.5,0,0,1-6.81-5.16,19,19,0,0,1-2.35-10.78,17.73,17.73,0,0,1,2.13-8.11,11.5,11.5,0,0,1,15.08-4.79C610.85,332.86,612.32,335.52,612.94,339Z" transform="translate(-46.69 -198.83)"/><path class="cls-11" d="M452.53,349.36H447V344.5h10.46c0,.37.09.68.09,1,0,3.2,0,6.4,0,9.6a2,2,0,0,1-.69,1.69c-3.77,3.16-8,4.58-12.91,3.46a10.65,10.65,0,0,1-7.08-5.55,18.93,18.93,0,0,1-2.13-9.88,18.22,18.22,0,0,1,2.05-8.46,11.47,11.47,0,0,1,15-5c3.22,1.45,4.73,4.13,5.38,7.66l-4.71,1.11c-.16-.36-.3-.63-.41-.91-1.69-4.71-7.14-4.44-9.6-2.08a8.16,8.16,0,0,0-2.31,4.48,18.34,18.34,0,0,0,.26,8.4c1.7,6.19,7,6.85,11.21,3.89a1.87,1.87,0,0,0,.94-1.86C452.47,351.2,452.53,350.41,452.53,349.36Z" transform="translate(-46.69 -198.83)"/><path class="cls-12" d="M431.37,360.07h-4.8l-9.5-18.39-.32,0c0,2,0,3.95,0,5.93V360h-4.44V331a7.75,7.75,0,0,1,.94-.11h3.71l9.68,18.89.27-.07V330.84h4.33C431.55,332.08,431.68,357.1,431.37,360.07Z" transform="translate(-46.69 -198.83)"/><path class="cls-12" d="M587.15,360.07h-4.8l-9.5-18.38-.33,0c0,2,0,4,0,5.93s0,4.16,0,6.24v6.22h-4.45v-29.2h4.69l9.65,18.82.27-.07V330.88l2.29,0h2.18Z" transform="translate(-46.69 -198.83)"/><path class="cls-12" d="M469.55,330.93h4.68l9.64,18.8.26-.05V330.94a34.58,34.58,0,0,1,4.54-.07V360h-4.89l-9.44-18.29a1,1,0,0,0-.24.07s-.09.06-.09.09q0,9-.07,17.9c0,.05,0,.09-.11.24h-4.28Z" transform="translate(-46.69 -198.83)"/><path class="cls-11" d="M240,360.07h-4.67q-4.53-9.18-9-18.33l-.25.05V360h-4.22c-.3-1-.42-26.49-.09-29.15h4.41l9.13,18.69.34,0c.1-6.12,0-12.25.06-18.55a29.51,29.51,0,0,1,4.31-.05Z" transform="translate(-46.69 -198.83)"/><path class="cls-11" d="M341.72,341.86V360h-4.26V330.93h4.48l9.16,18.76.25-.05V331h4.4V360h-4.7l-9-18.24Z" transform="translate(-46.69 -198.83)"/><path class="cls-13" d="M46.8,223.8a7.61,7.61,0,0,0,1.31-.82c1.23-1.17,2.43-2.39,3.62-3.6a53.88,53.88,0,0,1,10.85-8.27,54.93,54.93,0,0,1,17-6.67,73.2,73.2,0,0,1,7.84-1.1,49.35,49.35,0,0,1,7-.31,61.13,61.13,0,0,1,14.39,2.19,55.5,55.5,0,0,1,10.51,4.11,51.13,51.13,0,0,1,12.27,8.46c1.14,1.11,2.37,2.12,3.52,3.22.57.55,1,1.21,1.54,1.81s.9,1.08,1.72,1v5.75c-1.34-.25-1.66-1.57-2.41-2.4a64.39,64.39,0,0,0-6.26-6.54,67,67,0,0,0-7.07-5.4,58.36,58.36,0,0,0-19.39-7.77,56.12,56.12,0,0,0-15.07-.86,51.73,51.73,0,0,0-17.07,4.12,55.85,55.85,0,0,0-12.78,7.43A46,46,0,0,0,50.18,226a25.54,25.54,0,0,1-2,2.3,8.33,8.33,0,0,1-1.42.94Z" transform="translate(-46.69 -198.83)"/><path class="cls-12" d="M695.72,360.08v-29c.12-.07.21-.18.29-.18,3.73,0,7.46,0,11.18.12,3,.12,5,1.84,6.52,4.29a14.46,14.46,0,0,1,1.92,5.55,26.64,26.64,0,0,1-.43,11.24,18.58,18.58,0,0,1-.87,2.4,8.6,8.6,0,0,1-7.9,5.55C702.93,360.2,699.41,360.08,695.72,360.08Zm4.85-5c1.82,0,3.47.1,5.1,0,2.87-.21,4-1.25,4.73-4.08a23.37,23.37,0,0,0,.43-8.25,18.07,18.07,0,0,0-.81-3.71,4.25,4.25,0,0,0-2.83-2.85c-2.16-.66-4.38-.36-6.62-.4Z" transform="translate(-46.69 -198.83)"/><path class="cls-11" d="M390.59,330.94h17.9v4.84h-13v6.29a16.73,16.73,0,0,0,3.88.15c1.39,0,2.77,0,4.16,0h4.05v5c-4,.08-8,0-12.09.05v7.91h13.46V360H390.59Z" transform="translate(-46.69 -198.83)"/><path class="cls-7" d="M514.53,330.93h17.89v4.83h-13v6.46h12v5h-12v7.94h13.42V360H514.53Z" transform="translate(-46.69 -198.83)"/><path class="cls-11" d="M334.63,345.48a21.28,21.28,0,0,1-1.51,8.43c-1.3,2.94-3.22,5.31-6.44,6.22-4.67,1.33-10,.19-12.72-5.47a21.56,21.56,0,0,1-1.76-11.23A18.38,18.38,0,0,1,314,336.2c1.88-3.67,4.79-5.75,9-5.84a10.09,10.09,0,0,1,9.54,5.55C334.24,338.88,334.57,342.15,334.63,345.48Zm-4.65-.05-.15,0c-.09-1.17-.13-2.34-.29-3.5a10.48,10.48,0,0,0-.6-2.31,5.75,5.75,0,0,0-6-4.11,5.6,5.6,0,0,0-5.12,4.16,17.59,17.59,0,0,0-.05,11.44,6,6,0,0,0,5.6,4.49c2.52,0,4.74-1.73,5.59-4.67A47.24,47.24,0,0,0,330,345.43Z" transform="translate(-46.69 -198.83)"/><path class="cls-11" d="M173.88,345.37c.3-2,.5-4.11.94-6.13a15,15,0,0,1,1.41-3.54c3.6-7,13.39-7,17.45-1.06a14.73,14.73,0,0,1,2.34,5.55,24.78,24.78,0,0,1-.39,12,15.72,15.72,0,0,1-1.22,2.94,9.72,9.72,0,0,1-9.22,5.48A9.82,9.82,0,0,1,176,355,22.08,22.08,0,0,1,173.88,345.37Zm5,.08c0,.85,0,1.71.13,2.55a9.45,9.45,0,0,0,2.48,5.91,5.18,5.18,0,0,0,7.78-.18,9.45,9.45,0,0,0,1.8-3.31,16.25,16.25,0,0,0,.5-7.43,16,16,0,0,0-1.16-4.28,5.31,5.31,0,0,0-5.53-3.25,5.69,5.69,0,0,0-4.95,3.74A14.64,14.64,0,0,0,178.88,345.45Z" transform="translate(-46.69 -198.83)"/><path class="cls-11" d="M244,330.84h2.57c2.56,0,5.12.05,7.68.1a7.56,7.56,0,0,1,6.9,4.41,19.25,19.25,0,0,1,1.75,5.1,25.77,25.77,0,0,1-.42,12,16.61,16.61,0,0,1-1,2.54,8.05,8.05,0,0,1-7.07,5c-3.44.18-6.9,0-10.44,0Zm4.64,24.28c1.66,0,3.15.09,4.62,0,2.89-.2,4.06-1.22,4.72-4.07a24.42,24.42,0,0,0-.36-12,4.18,4.18,0,0,0-3.1-3,26.17,26.17,0,0,0-5.88-.28Z" transform="translate(-46.69 -198.83)"/><path class="cls-7" d="M510.77,331v4.82h-13v6.45h12.09v5H497.78v7.93h13.48V360H492.9V331Z" transform="translate(-46.69 -198.83)"/><path class="cls-12" d="M691.16,342.18v5h-12v7.92h13.36V360H674.25V331H692v4.79H679.16v6.43Z" transform="translate(-46.69 -198.83)"/><path class="cls-7" d="M765.33,353.52h-9.71c-.67,2.17-1.35,4.34-2,6.54H748.4c3.15-9.78,6.27-19.48,9.4-29.17h5.25c3.2,9.64,6.4,19.31,9.65,29.12h-5.28Q766.42,356.89,765.33,353.52Zm-1.59-5-3.21-10.37h-.27l-3.14,10.37Z" transform="translate(-46.69 -198.83)"/><path class="cls-5" d="M719.47,384.87h-5.54c0-.69-.07-1.27-.11-1.85a98.67,98.67,0,0,0-3.34,10.33c-1.07,3.5-2.06,7-3.09,10.59h-4.2l-6.74-22.84h4.1l4.68,16.39h.28c1.47-5.46,3-10.91,4.45-16.42H728.8v3.77l-5.5.14V403.9h-3.83Z" transform="translate(-46.69 -198.83)"/><path class="cls-11" d="M199.23,330.84h3.58c.31,0,.62.08,1,.13v1.79c0,5.6,0,11.2.05,16.8a11.16,11.16,0,0,0,.39,3,4.25,4.25,0,0,0,4.72,3,3.85,3.85,0,0,0,3.81-3.79c.16-1.59.18-3.19.19-4.79,0-4.8,0-9.6,0-14.4,0-.52,0-1,.07-1.63h4.53c0,.34.07.61.07.87,0,5.76,0,11.52-.05,17.27a31.39,31.39,0,0,1-.57,5.56,7.06,7.06,0,0,1-5.77,5.73,12.52,12.52,0,0,1-5.71-.05,7.29,7.29,0,0,1-5.81-5.92,20.39,20.39,0,0,1-.53-4.11C199.2,343.88,199.23,337.49,199.23,330.84Z" transform="translate(-46.69 -198.83)"/><path class="cls-7" d="M287.19,360a5.29,5.29,0,0,1-.75.12h-4.26c-.35-1.13-.7-2.23-1-3.33s-.64-2.13-1-3.31h-9.26c-.66,2.2-1.31,4.37-2,6.56h-5l9-29.11H278C281,340.6,284.1,350.26,287.19,360Zm-11.64-21.89h-.25l-3,10.4h6.31Z" transform="translate(-46.69 -198.83)"/><path class="cls-11" d="M747.5,339l-4.57,1.33c-.23-.64-.4-1.19-.63-1.72a5,5,0,0,0-8.6-1.22,8.45,8.45,0,0,0-1.55,3.27,22.37,22.37,0,0,0,0,10,6.84,6.84,0,0,0,1.74,3.37,4.71,4.71,0,0,0,7.63-.8,28.6,28.6,0,0,0,1.59-3.74c.73.26,1.47.51,2.2.78s1.47.57,2.18.85a10.29,10.29,0,0,1-6.6,9.05,9.89,9.89,0,0,1-10.85-3,14.48,14.48,0,0,1-3.13-7.24,24,24,0,0,1,.71-11.36,15.68,15.68,0,0,1,1.55-3.32,10.14,10.14,0,0,1,11.63-4.47A9.5,9.5,0,0,1,747.5,339Z" transform="translate(-46.69 -198.83)"/><path class="cls-2" d="M309.51,381c1.23,0,2.39,0,3.55,0,2.13,0,4.26.12,6.39.17,3.38.07,5.13,3.25,4.93,6.1a5.9,5.9,0,0,1-2.32,4.41c.1.14.16.33.28.38,3.78,1.76,3.56,7.64,1.38,10a4.65,4.65,0,0,1-3.43,1.8c-3.56.06-7.12,0-10.78,0Zm3.78,19.12c1.85,0,3.59,0,5.33,0a2.54,2.54,0,0,0,2.72-2.69c.11-1.84-.75-3.12-2.48-3.26s-3.68,0-5.57,0Zm0-10c1.77,0,3.36,0,5,0a2.69,2.69,0,0,0,1.07-.27,2.49,2.49,0,0,0,1.38-2.65,2.25,2.25,0,0,0-1.55-2.18,18,18,0,0,0-5.85,0Z" transform="translate(-46.69 -198.83)"/><path class="cls-11" d="M172.11,331v4.81H161v6.95h9.5v5H161v12.4h-4.47c-.31-1.16-.44-25.67-.14-29.11Z" transform="translate(-46.69 -198.83)"/><path class="cls-5" d="M452.46,403.92V381.06c.45,0,.86-.09,1.26-.08,3.09.06,6.18.07,9.26.21a4.65,4.65,0,0,1,4.57,4,11.31,11.31,0,0,1,.15,4.1c-.37,2.45-2,3.93-4.56,4.6,3,2.76,4.25,6.49,6.27,10a23.62,23.62,0,0,1-4.57.11l-3.29-5.89c-.29-.51-.57-1-.88-1.52-1.2-1.93-1.85-2.24-4.4-2.05v9.41Zm3.84-13.23c1.72,0,3.37.11,5,0a2.88,2.88,0,0,0,2.41-4.29,2,2,0,0,0-1.51-1.3,32.22,32.22,0,0,0-5.9-.15Z" transform="translate(-46.69 -198.83)"/><path class="cls-5" d="M515.22,393.88a37.43,37.43,0,0,1,6,10h-4.43l-2.34-4.2c-.57-1-1.2-2-1.73-3.06a3.81,3.81,0,0,0-4.5-2.15v9.42h-3.79V381.09a10.93,10.93,0,0,1,1.25-.11c3.08,0,6.18,0,9.26.22a4.92,4.92,0,0,1,4.76,4.55,11.68,11.68,0,0,1,0,3.18,5.33,5.33,0,0,1-3.64,4.63Zm-7-3.25c1.94,0,3.68,0,5.42,0a2.1,2.1,0,0,0,2.13-1.81,3.17,3.17,0,0,0-.72-3.25,2.17,2.17,0,0,0-1-.49,36.8,36.8,0,0,0-5.85-.16Z" transform="translate(-46.69 -198.83)"/><path class="cls-2" d="M386.37,389.77v14.16h-3.49V381.09h3.7L394,395.7h.28l0-4.8v-9.81h3.47V403.9H394q-3.62-7.08-7.29-14.22Z" transform="translate(-46.69 -198.83)"/><path class="cls-2" d="M559,404h-3.79c-2.4-4.69-4.86-9.47-7.32-14.26l-.31.08v14.17h-3.32c-.3-1.08-.42-19.9-.12-22.85h3.62l7.45,14.64a21.93,21.93,0,0,0,.32-4.83c0-1.6,0-3.19,0-4.79v-5H559Z" transform="translate(-46.69 -198.83)"/><path class="cls-5" d="M777.71,381c3.31,0,6.56-.29,9.77.26a6.36,6.36,0,0,1,4.46,3.58,13,13,0,0,1,1.46,5,19.63,19.63,0,0,1-.74,8.68c-1.33,3.77-3.57,5.41-7.53,5.46-2.44,0-4.89,0-7.42,0Zm3.8,19.1c1.43,0,2.76.06,4.08,0A3.36,3.36,0,0,0,789,397.3a15.13,15.13,0,0,0,.54-3.78A34.3,34.3,0,0,0,789,388a3.35,3.35,0,0,0-2.56-2.8,13.76,13.76,0,0,0-5-.18Z" transform="translate(-46.69 -198.83)"/><path class="cls-5" d="M491.4,400.12h10.44v3.8H487.59V381.05h13.88v3.82h-10v5h9.32v4H491.4Z" transform="translate(-46.69 -198.83)"/><path class="cls-5" d="M663.93,381.08v3.79h-10v5h9.34v3.94h-9.36v6.29h10.41v3.64c-1.11.32-10.27.44-14.11.18-.3-1.1-.4-20.32-.11-22.87Z" transform="translate(-46.69 -198.83)"/><path class="cls-5" d="M342.06,400.09v3.83H327.79V381.05h13.88v3.81H331.62v5H341v3.89h-9.3v6.3Z" transform="translate(-46.69 -198.83)"/><path class="cls-5" d="M484.69,381.07v3.78h-10V390H484v3.89h-9.33v6.24H485V404c-4.66.06-9.37,0-14.18,0V381.07Z" transform="translate(-46.69 -198.83)"/><path class="cls-5" d="M576,387.6l-3.56.16c-.09-.31-.18-.6-.28-.88a3.67,3.67,0,0,0-5.6-1.8,1.89,1.89,0,0,0,.07,3.3,16.73,16.73,0,0,0,2.79,1.16c1.2.45,2.44.79,3.59,1.32,3.18,1.47,4.1,4.6,3.57,8a6.3,6.3,0,0,1-6,5.49l-.64.05c-5.16.38-8.24-2.35-8.59-7.81l3.53-.43a20.72,20.72,0,0,0,.7,2.07,4.06,4.06,0,0,0,6,1.64,2.89,2.89,0,0,0,1.3-2.75A2.33,2.33,0,0,0,571.1,395c-1.6-.57-3.23-1.07-4.83-1.65a6.33,6.33,0,0,1-4.16-4.69c-.75-3.1.67-7.17,5-7.89a10,10,0,0,1,4.59.23A6.08,6.08,0,0,1,576,387.6Z" transform="translate(-46.69 -198.83)"/><path class="cls-12" d="M303,330.93v4.79h-6.82V360h-4.65c-.05-1.95,0-3.95,0-5.94s0-4,0-6.08V335.88h-6.82v-4.95Z" transform="translate(-46.69 -198.83)"/><path class="cls-12" d="M774.46,331.14h4.73c0,2.63,0,5.27,0,7.91v16.13h12.11V360H774.46Z" transform="translate(-46.69 -198.83)"/><path class="cls-5" d="M356,404c2.49-7.76,4.92-15.33,7.35-22.94h4.1c2.49,7.55,5,15.16,7.54,22.9H370.9c-.54-1.64-1.09-3.33-1.65-5.05h-7.58c-.52,1.67-1.06,3.38-1.6,5.09Zm9.49-17.18-.25,0c-.8,2.66-1.59,5.33-2.41,8.06H368Z" transform="translate(-46.69 -198.83)"/><path class="cls-5" d="M437.82,398.89l-1.59,5.05h-4c2.46-7.7,4.89-15.28,7.33-22.9h4.11c2.47,7.52,5,15.12,7.53,22.87h-4.11c-.53-1.6-1.08-3.3-1.64-5Zm3.88-12-.3,0-2.4,8h5.15C443.31,392.15,442.51,389.52,441.7,386.9Z" transform="translate(-46.69 -198.83)"/><path class="cls-5" d="M616.37,381.05H620c0,.58.07,1.1.07,1.61,0,4.37,0,8.75,0,13.12a7.73,7.73,0,0,0,.35,2.35,3.44,3.44,0,0,0,3.94,2.28,3.1,3.1,0,0,0,3-3,23,23,0,0,0,.12-2.88c0-3.94,0-7.89,0-11.83v-1.66h3.7a6.08,6.08,0,0,1,.12.87c0,4.53,0,9.07,0,13.6a27.81,27.81,0,0,1-.33,3.65,5.65,5.65,0,0,1-4.74,5,15.26,15.26,0,0,1-4.91-.05c-2.62-.47-4.12-2.29-4.7-4.86a10.31,10.31,0,0,1-.3-2.21C616.36,391.76,616.37,386.49,616.37,381.05Z" transform="translate(-46.69 -198.83)"/><path class="cls-2" d="M685.36,395.34v8.57h-3.74v-22.8a9.12,9.12,0,0,1,1-.13c2.71,0,5.43.08,8.14.16s4.08,1.67,4.83,4a9.59,9.59,0,0,1,0,5.83,5.37,5.37,0,0,1-4.68,4.21c-.9.1-1.8.15-2.71.18S686.49,395.34,685.36,395.34Zm.09-3.79a45.34,45.34,0,0,0,4.62-.35c1.4-.25,2.11-1.53,2.06-3.18s-.86-2.76-2.18-2.92-2.93-.19-4.5-.27Z" transform="translate(-46.69 -198.83)"/><path class="cls-5" d="M431.51,387.41l-3.58,1c-.23-.57-.39-1-.59-1.43a3.87,3.87,0,0,0-6.69-.82,6.22,6.22,0,0,0-1.1,2.27,16.83,16.83,0,0,0,.05,8.37,5.87,5.87,0,0,0,1.28,2.35,3.61,3.61,0,0,0,5.95-.6,23,23,0,0,0,1.24-2.95l3.53,1.33a10.46,10.46,0,0,1-2,4.74,7.64,7.64,0,0,1-11.09.73,9.85,9.85,0,0,1-2.68-4.47,18.15,18.15,0,0,1,.22-11.31c1.11-3.17,3.18-5.44,6.68-5.93C427.2,380.07,430.74,382.73,431.51,387.41Z" transform="translate(-46.69 -198.83)"/><path class="cls-14" d="M622.77,202.37H627c.35,1.12.5,34.65.16,38.2h-4.2C622.58,239.47,622.42,206.4,622.77,202.37Z" transform="translate(-46.69 -198.83)"/><path class="cls-6" d="M46.8,271.15c.84.06.77.81.93,1.3.88,2.61,1.64,5.26,2.56,7.85a40.12,40.12,0,0,0,5.31,9.39,47.14,47.14,0,0,0,6.44,7,37.59,37.59,0,0,0,3.54,2.66l-4.35,4.73a9.39,9.39,0,0,0-1.1-1.47c-1.25-1.14-2.62-2.15-3.83-3.33a53.33,53.33,0,0,1-8.45-10.7c-.21-.35-.69-.55-1.05-.82,0-1.58-.08-3.16-.08-4.75C46.73,279.08,46.77,275.12,46.8,271.15Z" transform="translate(-46.69 -198.83)"/><path class="cls-2" d="M180,404V384.24a8.57,8.57,0,0,1,1.08-.13c2,0,3.94,0,5.91,0a5.62,5.62,0,0,1,5.44,3.52,15.48,15.48,0,0,1-.06,13,5.31,5.31,0,0,1-4.75,3.29C185.08,404.05,182.59,404,180,404Zm3.32-16.54v13.24c1.2,0,2.31.08,3.41,0a3.07,3.07,0,0,0,3.19-2.78,18.17,18.17,0,0,0,.13-7,5.69,5.69,0,0,0-.58-1.65,2.71,2.71,0,0,0-2.08-1.58C186,387.5,184.71,387.49,183.27,387.41Z" transform="translate(-46.69 -198.83)"/><path class="cls-15" d="M103.15,324.15c-.07-.85.64-.91,1.16-1,2.2-.59,4.45-1,6.62-1.7a51.35,51.35,0,0,0,6.7-2.5,83.66,83.66,0,0,0,8.55-4.6,42.36,42.36,0,0,0,7.81-6c1-1,1.92-2,2.95-2.9a4.73,4.73,0,0,1,1.38-.64c0,2.13,0,4.27,0,6.4a2.53,2.53,0,0,0-.72.29c-1.08.84-2.16,1.69-3.21,2.57a64.6,64.6,0,0,1-13.95,8.71c-.58.28-1.33.52-1.28,1.42-3.59,0-7.18.06-10.77.07C106.64,324.22,104.9,324.17,103.15,324.15Z" transform="translate(-46.69 -198.83)"/><path class="cls-15" d="M46.8,307c.81-.12,1.27.42,1.75.92a49.6,49.6,0,0,0,7.81,6.51,63.22,63.22,0,0,0,17.55,8.5c.64.2,1.42.27,1.39,1.23H59.63c.1-.82-.49-1.08-1.07-1.39a65,65,0,0,1-10.1-6.92A9,9,0,0,0,46.8,315Z" transform="translate(-46.69 -198.83)"/><path class="cls-15" d="M76.27,200.23c.1.86-.62.88-1.13,1.06-2.43.9-4.9,1.69-7.29,2.67a57.08,57.08,0,0,0-11.66,6.41A55.6,55.6,0,0,0,48.33,217a1.74,1.74,0,0,1-1.53.69v-7.36a17.53,17.53,0,0,0,1.89-1.09c1.66-1.22,3.22-2.57,4.92-3.71,2.24-1.5,4.57-2.86,6.87-4.25.43-.27.83-.49.75-1.08Z" transform="translate(-46.69 -198.83)"/><path class="cls-15" d="M138.32,217.4a8.36,8.36,0,0,1-1.86-1.12,52.85,52.85,0,0,0-9.79-7.8,56.37,56.37,0,0,0-11.51-5.71c-1.44-.52-2.86-1.12-4.31-1.63-.49-.17-.7-.42-.67-.91h15c-.13,1.07.81,1.34,1.44,1.68a61,61,0,0,1,10.25,7.14,5.91,5.91,0,0,0,1.41.67Z" transform="translate(-46.69 -198.83)"/><path class="cls-5" d="M156.86,384.14h3.56c2.15,6.52,4.31,13.06,6.51,19.76h-3.56L162,399.59h-6.57c-.45,1.43-.89,2.85-1.36,4.33h-3.5C152.65,397.3,154.74,390.75,156.86,384.14Zm1.76,4.64-2.19,7.29h4.43Z" transform="translate(-46.69 -198.83)"/><path class="cls-12" d="M723.71,360.07h-4.64V331h4.64Z" transform="translate(-46.69 -198.83)"/><path class="cls-5" d="M776,381.1v3.75h-5.51v19.07h-3.83V385H761v-3.72C762.14,380.91,772.85,380.8,776,381.1Z" transform="translate(-46.69 -198.83)"/><path class="cls-5" d="M648.21,384.94H642.7v19h-3.79V385h-5.57v-3.89h14.87Z" transform="translate(-46.69 -198.83)"/><path class="cls-12" d="M564.1,360.07h-4.63V331h4.63Z" transform="translate(-46.69 -198.83)"/><path class="cls-12" d="M460.91,330.9h4.67V360h-4.67Z" transform="translate(-46.69 -198.83)"/><path class="cls-5" d="M605.19,403.91v-19h-5.47V381.1h14.85v3.76h-5.5v19.05Z" transform="translate(-46.69 -198.83)"/><path class="cls-5" d="M592.71,384.9h-5.53v19h-3.83c0-1.52,0-3.09,0-4.66V384.89h-5.6v-3.64c1.11-.35,11.57-.47,14.92-.16A24.86,24.86,0,0,1,592.71,384.9Z" transform="translate(-46.69 -198.83)"/><path class="cls-5" d="M352.7,404h-3.87v-19h-5.6v-3.86h14.9v3.77H352.7Z" transform="translate(-46.69 -198.83)"/><path class="cls-5" d="M752.74,400.12h9.45v3.79H749.08V381.27h3.66Z" transform="translate(-46.69 -198.83)"/><path class="cls-12" d="M305.07,330.92h4.42v29.13h-4.42Z" transform="translate(-46.69 -198.83)"/><path class="cls-16" d="M119.15,324.15c-.05-.9.7-1.14,1.28-1.42A64.6,64.6,0,0,0,134.38,314c1.05-.88,2.13-1.73,3.21-2.57a2.53,2.53,0,0,1,.72-.29v13c-.3,0-.55.09-.8.09l-17.73,0C119.57,324.21,119.36,324.17,119.15,324.15Z" transform="translate(-46.69 -198.83)"/><path class="cls-14" d="M375.89,357.4h-4.57V333.63h4.57Z" transform="translate(-46.69 -198.83)"/><path class="cls-14" d="M628.54,333.58h4.4c.35,1.15.41,22,.07,23.83-.33,0-.69.07-1,.07h-3.42Z" transform="translate(-46.69 -198.83)"/><path class="cls-6" d="M120.62,300.64a32,32,0,0,0,3.29-2.46,50.62,50.62,0,0,0,8.26-9.45,45.59,45.59,0,0,0,4.92-9.79c.22-.67.33-1.5,1.23-1.7V287.8a4.59,4.59,0,0,0-1,.85,51.68,51.68,0,0,1-5.53,7.55c-1.82,1.84-3.71,3.61-5.47,5.52-.77.83-2.17,1.06-2.36,2.44Z" transform="translate(-46.69 -198.83)"/><path class="cls-8" d="M46.8,287.79c.36.27.84.47,1.05.82a53.33,53.33,0,0,0,8.45,10.7c1.21,1.18,2.58,2.19,3.83,3.33a9.39,9.39,0,0,1,1.1,1.47L57.07,308a64.41,64.41,0,0,1-8.64-8.44,7.88,7.88,0,0,0-1.63-1.17Z" transform="translate(-46.69 -198.83)"/><path class="cls-5" d="M287.7,396.76a9.45,9.45,0,0,1-1.36,4.86,5.62,5.62,0,0,1-9.78-.12,9,9,0,0,1,.25-9.71,5.58,5.58,0,0,1,9.41,0A9.22,9.22,0,0,1,287.7,396.76Zm-3.05,0a15.08,15.08,0,0,0-.94-3,2.41,2.41,0,0,0-4.38,0,6.14,6.14,0,0,0,0,6.11,2.44,2.44,0,0,0,4.47-.12A17.27,17.27,0,0,0,284.65,396.75Z" transform="translate(-46.69 -198.83)"/><path class="cls-5" d="M242.17,404.35a5.43,5.43,0,0,1-5.23-3.29,9.56,9.56,0,0,1,0-8.35,5.55,5.55,0,0,1,5.14-3.46,5.37,5.37,0,0,1,5.25,3.25,9.08,9.08,0,0,1-.25,9A5.42,5.42,0,0,1,242.17,404.35Zm3.09-7.58a14.45,14.45,0,0,0-.82-2.86,2.45,2.45,0,0,0-4.54,0,6.42,6.42,0,0,0,0,5.85,2.5,2.5,0,0,0,4.63-.12A22.15,22.15,0,0,0,245.26,396.77Z" transform="translate(-46.69 -198.83)"/><path class="cls-8" d="M123.92,304.16c.19-1.38,1.59-1.61,2.36-2.44,1.76-1.91,3.65-3.68,5.47-5.52a51.68,51.68,0,0,0,5.53-7.55,4.59,4.59,0,0,1,1-.85V298c-1.14.25-1.65,1.26-2.39,2-2,1.92-3.89,3.87-5.82,5.82-.69.7-1.35,1.43-2,2.14Z" transform="translate(-46.69 -198.83)"/><path class="cls-5" d="M218.06,399.91l2.95-.53c.22.42.38.81.6,1.15a2.7,2.7,0,0,0,3.68.65,2,2,0,0,0,.62-1.2c.06-.62-.46-.91-1-1.08-1.26-.42-2.56-.75-3.79-1.25a4.11,4.11,0,0,1-2.53-5.32,3.84,3.84,0,0,1,2.65-2.75,7.31,7.31,0,0,1,4.71,0,4.24,4.24,0,0,1,2.72,3.42l-2.75.72a2.68,2.68,0,0,0-3.2-1.68c-.61.11-1.18.27-1.29,1s.41,1.05,1,1.25c1.31.45,2.66.79,3.94,1.31a4,4,0,0,1,2.5,5.42,5.22,5.22,0,0,1-1.5,2.19A5.86,5.86,0,0,1,218.06,399.91Z" transform="translate(-46.69 -198.83)"/><path class="cls-5" d="M260.83,404H257.7V402c0-2.45,0-4.9-.05-7.35,0-1.53-.7-2.38-1.75-2.48a2.41,2.41,0,0,0-2.45,2.08,12.71,12.71,0,0,0-.24,2.54c0,2.33,0,4.67,0,7.11h-3.11V389.66h2.76c.05.52.11,1,.17,1.68.5-.46.86-.83,1.26-1.15a3.85,3.85,0,0,1,6.35,2.15,5.22,5.22,0,0,1,.2,1.09C260.84,396.89,260.83,400.34,260.83,404Z" transform="translate(-46.69 -198.83)"/><path class="cls-17" d="M289.82,392.77l-1.7-.3v-2.81l1.6-.18c.08-1,.11-1.87.23-2.76a3,3,0,0,1,3.19-2.92,24.13,24.13,0,0,1,3,.3l-.4,2.62c-2.63-.05-2.86.2-2.61,2.77l2.19.14c0,.45.07.9.09,1.36s0,.95,0,1.5l-2.39.24V404h-3.16Z" transform="translate(-46.69 -198.83)"/><path class="cls-5" d="M598,381.08V404c-.33,0-.58.06-.84.06h-2.81V381.08Z" transform="translate(-46.69 -198.83)"/><path class="cls-5" d="M541,404h-3.64V381.08h3.47C541.19,382.2,541.34,399.42,541,404Z" transform="translate(-46.69 -198.83)"/><path class="cls-5" d="M379.83,403.94h-3.64V381.09h3.64Z" transform="translate(-46.69 -198.83)"/><path class="cls-5" d="M207.54,404h-2.93l-4.72-14.28h3.31l2.86,9.47c1-3.36,2-6.39,2.9-9.48h3.21C210.62,394.46,209.08,399.18,207.54,404Z" transform="translate(-46.69 -198.83)"/><path class="cls-16" d="M61.23,200.23c.08.59-.32.81-.75,1.08-2.3,1.39-4.63,2.75-6.87,4.25-1.7,1.14-3.26,2.49-4.92,3.71a17.53,17.53,0,0,1-1.89,1.09V200.23Z" transform="translate(-46.69 -198.83)"/><path class="cls-17" d="M57.32,333.92l-2.08.14a6.69,6.69,0,0,0-1.36-1.57,3.14,3.14,0,0,0-1.69-.21,1.29,1.29,0,0,0-1.39,1.09c-.09.68.46,1,1,1.24,1.11.38,2.25.66,3.33,1.1a3.82,3.82,0,0,1,2.21,5.11,4,4,0,0,1-.73,1.23c-1.12,1.3-3.83,1.77-5.83,1-1.79-.68-2.53-2.12-2.71-4l2.13-.34c.17.42.29.76.45,1.08a2.6,2.6,0,0,0,3.54,1.15,1.6,1.6,0,0,0,1-1.51,1.32,1.32,0,0,0-1-1.28c-1.06-.37-2.14-.66-3.2-1a3.52,3.52,0,0,1-2.31-2.26,3.42,3.42,0,0,1,1.87-4.39,5.73,5.73,0,0,1,4.66.06A3.65,3.65,0,0,1,57.32,333.92Z" transform="translate(-46.69 -198.83)"/><path class="cls-16" d="M138.32,209.72a5.91,5.91,0,0,1-1.41-.67,61,61,0,0,0-10.25-7.14c-.63-.34-1.57-.61-1.44-1.68h13.11c.14,1.55,0,3.13,0,4.7S138.34,208.12,138.32,209.72Z" transform="translate(-46.69 -198.83)"/><path class="cls-16" d="M46.8,315a9,9,0,0,1,1.66.86,65,65,0,0,0,10.1,6.92c.58.31,1.17.57,1.07,1.39H46.78C46.67,321.08,46.65,318,46.8,315Z" transform="translate(-46.69 -198.83)"/><path class="cls-17" d="M127.63,336.87c-.17,1.22-.25,2.45-.53,3.63a3.44,3.44,0,0,1-6.78.1,14,14,0,0,1,0-7.56,3.39,3.39,0,0,1,3.4-2.81,3.43,3.43,0,0,1,3.37,2.85C127.39,334.31,127.45,335.59,127.63,336.87Zm-3.22-4h0c-.65-.71-1.1-.79-1.52-.14a3.15,3.15,0,0,0-.5,1.47c-.06,1.7,0,3.39,0,5.08a3.08,3.08,0,0,0,.38,1.36,1,1,0,0,0,1.9,0,1.9,1.9,0,0,0,.28-.89c0-2,0-4.11,0-6.16C124.88,333.37,124.58,333.14,124.41,332.9Z" transform="translate(-46.69 -198.83)"/><path class="cls-17" d="M118.37,337.27a31.17,31.17,0,0,1-.52,3.36,3.42,3.42,0,0,1-6.72,0,14.61,14.61,0,0,1,0-7.57,3.39,3.39,0,0,1,3.38-2.82,3.48,3.48,0,0,1,3.39,2.84,5.67,5.67,0,0,1,.26,1.08C118.23,335.05,118.28,336,118.37,337.27Zm-2.33-.42c-.13-1.11-.22-2.28-.4-3.42a1.17,1.17,0,0,0-1.16-1.12c-.68,0-1,.53-1.15,1.14a17.86,17.86,0,0,0,0,6.64c.11.6.4,1.13,1.11,1.17s1.14-.53,1.24-1.19C115.84,339,115.91,338,116,336.85Z" transform="translate(-46.69 -198.83)"/><path class="cls-17" d="M132.36,334.62c2.38-.23,3.74.54,4.4,2.49a5.11,5.11,0,0,1-1.71,5.72c-2.4,1.53-5.29.13-5.85-3l2-.26a10.1,10.1,0,0,0,.68,1.17,1.46,1.46,0,0,0,2.51-.29,3.5,3.5,0,0,0,.08-3,1.68,1.68,0,0,0-2.56-.67c-1.09.59-1.09.59-2.49.18l1.12-6.56h5.88v2.23h-4.06c-.11.64-.19,1.14-.28,1.65,0,.13,0,.27.05.4Z" transform="translate(-46.69 -198.83)"/><path class="cls-17" d="M103.61,334.26l-2-.19c.07-2.72,1.63-4.05,4.28-3.81a3.49,3.49,0,0,1,3.14,4.31,6.84,6.84,0,0,1-2,3.57l-2.52,2.69H109v2.24h-7.75a4.48,4.48,0,0,1,1.11-3c.77-1,1.67-1.93,2.51-2.89a17.86,17.86,0,0,0,1.43-1.72,3.12,3.12,0,0,0,.44-1.34,1.53,1.53,0,0,0-1-1.77,1.49,1.49,0,0,0-1.87,1.06A6.57,6.57,0,0,0,103.61,334.26Z" transform="translate(-46.69 -198.83)"/><path class="cls-17" d="M72,343.11H69.78c0-1.42,0-2.79,0-4.16,0-.69,0-1.38-.11-2.07a1.32,1.32,0,0,0-1.28-1.37,1.63,1.63,0,0,0-1.65,1.25,10.81,10.81,0,0,0-.19,2.06c0,1.38,0,2.75,0,4.24H64.33v-9.12h1.9l.28.81a11.92,11.92,0,0,1,1.06-.73A2.78,2.78,0,0,1,72,336.15C72.14,338.41,72,340.7,72,343.11Z" transform="translate(-46.69 -198.83)"/><path class="cls-17" d="M88.25,340.67c.77-.87,1.55-.11,2.48-.08a3.41,3.41,0,0,1-2.84,2.72,3.92,3.92,0,0,1-4.1-1.51A6.53,6.53,0,0,1,84,335a3.73,3.73,0,0,1,6.11.32,6.4,6.4,0,0,1,.81,3.86H85.08l.66,1.49,0,0,.36.37h0c.89.7,1,.7,1.79,0h0l.36-.37Zm-2.89-3a8.58,8.58,0,0,0,3.31-.12c-.4-1.57-1-2.13-1.88-2S85.47,336.22,85.36,337.63Z" transform="translate(-46.69 -198.83)"/><path class="cls-17" d="M198.78,404h-3v-14.3h3Z" transform="translate(-46.69 -198.83)"/><path class="cls-17" d="M213.51,403.93V389.68h3v14.25Z" transform="translate(-46.69 -198.83)"/><path class="cls-5" d="M234.21,404l-1.34.06h-1.66V389.67h2.85C234.38,390.8,234.49,400.19,234.21,404Z" transform="translate(-46.69 -198.83)"/><path class="cls-17" d="M81.67,336.59l-1.79.38c-.14-.09-.27-.13-.3-.2a1.54,1.54,0,0,0-1.82-1.19,1.82,1.82,0,0,0-1.47,1.84,9.64,9.64,0,0,0,0,2.08,1.78,1.78,0,0,0,1.52,1.79,1.51,1.51,0,0,0,1.77-1.24,1.8,1.8,0,0,1,.32-.44l1.82.37a3.22,3.22,0,0,1-2.53,3.25,3.75,3.75,0,0,1-4.39-1.42,6.24,6.24,0,0,1-.26-6.25,3.84,3.84,0,0,1,4.21-1.94A3.22,3.22,0,0,1,81.67,336.59Z" transform="translate(-46.69 -198.83)"/><path class="cls-5" d="M61.83,343.11H59.74v-9.19h2.09Z" transform="translate(-46.69 -198.83)"/><path class="cls-17" d="M799.44,404H796v-4.22h3.47Z" transform="translate(-46.69 -198.83)"/><path class="cls-17" d="M731.11,403.94h-3.45v-4.22h3.45Z" transform="translate(-46.69 -198.83)"/><path class="cls-17" d="M198.81,387.6h-3v-3.38h3Z" transform="translate(-46.69 -198.83)"/><path class="cls-17" d="M216.54,387.56h-3v-3.35h3Z" transform="translate(-46.69 -198.83)"/><path class="cls-17" d="M231.2,384.18h3v3.35h-3Z" transform="translate(-46.69 -198.83)"/><path class="cls-17" d="M59.75,330.32h2.08v2.14H59.75Z" transform="translate(-46.69 -198.83)"/><path class="cls-18" d="M85.74,340.67c.09-.74.46-1.05,1.25-1.05a1.08,1.08,0,0,1,1.26,1.05l0,0-.36.37h0l-1.79,0h0l-.36-.37Z" transform="translate(-46.69 -198.83)"/><path class="cls-18" d="M222.08,399.11l2.54.82C223.61,401.07,223.22,401,222.08,399.11Z" transform="translate(-46.69 -198.83)"/><path class="cls-19" d="M184.11,284V262.24c.38,0,.73-.09,1.09-.09,4.42,0,8.85-.06,13.27,0a27.83,27.83,0,0,1,5.22.59c4.05.85,6.37,3.5,7.13,7.48a13.48,13.48,0,0,1-.53,7.25,8.81,8.81,0,0,1-6,5.76,13.26,13.26,0,0,1-3.44.67C195.34,284,189.8,284,184.11,284Z" transform="translate(-46.69 -198.83)"/><path class="cls-19" d="M184.12,241.4V221c.47,0,.88-.06,1.29-.06,3.67,0,7.35,0,11,0a25.45,25.45,0,0,1,3.81.34,7.9,7.9,0,0,1,7,6.53,14.63,14.63,0,0,1-.39,8,7.29,7.29,0,0,1-5.21,5,12.54,12.54,0,0,1-3.12.59C193.74,241.43,189,241.4,184.12,241.4Z" transform="translate(-46.69 -198.83)"/><path class="cls-19" d="M473.49,266H454c3.22-12.86,6.42-25.62,9.62-38.38l.28,0C467.1,240.38,470.28,253.11,473.49,266Z" transform="translate(-46.69 -198.83)"/><path class="cls-19" d="M647.35,271.41c3.13,0,6.21-.2,9.27.3a7.11,7.11,0,0,1,5.55,4.31,15.31,15.31,0,0,1,1.33,5.4,38.43,38.43,0,0,1-.43,11,13.46,13.46,0,0,1-.35,1.39c-1.14,3.72-3,5.34-6.86,5.58-2.79.17-5.61,0-8.51,0Z" transform="translate(-46.69 -198.83)"/><path class="cls-20" d="M547.69,289.76H537.17c1.7-5.15,3.36-10.17,5.14-15.58C544.27,279.49,545.86,284.55,547.69,289.76Z" transform="translate(-46.69 -198.83)"/><path class="cls-20" d="M622.48,289.76H612c1.71-5.16,3.37-10.19,5-15.22l.27-.05C619,279.52,620.7,284.54,622.48,289.76Z" transform="translate(-46.69 -198.83)"/><path class="cls-21" d="M68.76,295.21a10.85,10.85,0,0,1-1.37-.79A40.28,40.28,0,0,1,56,280.47a40.81,40.81,0,0,1-3.75-11.94,50.62,50.62,0,0,1-.16-11.47,40.8,40.8,0,0,1,9.16-21.16,40.38,40.38,0,0,1,10.25-8.78,45.2,45.2,0,0,1,12.38-4.93,6.55,6.55,0,0,0,1.38-.68c1.14,1,2.26,2,3.41,2.91a.76.76,0,0,1,.08,1.29,12.11,12.11,0,0,0-1.91.07,39.16,39.16,0,0,0-15.47,6.37,37.4,37.4,0,0,0-9.2,9.37,35.82,35.82,0,0,0-4.27,8.69,41.93,41.93,0,0,0-2.05,10.23A32.69,32.69,0,0,0,57,271.3a36,36,0,0,0,12.58,19.61,6,6,0,0,1,1,1.55Z" transform="translate(-46.69 -198.83)"/><path class="cls-20" d="M68.76,295.21l1.81-2.75,1.93-3.22,1.65-3.32,1.45-3.24,1.62-3.52,1.57-4.48c.12-.3.26-.58.36-.88a91.29,91.29,0,0,0,3.44-16.66c.41-3.63.51-7.29.75-10.95l.15-5.12.21-1.56h2.73l.12,4.12-.31,6.72-.66,7L85,260.7c-.38,2.3-.76,4.61-1.13,6.91l-2.7,9.88q-1.67,4.35-3.35,8.7-1.74,3.38-3.5,6.73-1.77,2.71-3.55,5.43L67,303.15,63.38,307,61.13,309l-2.36,2-1.25.8-1.72-2.76L57.07,308l4.16-3.85,4.35-4.73Z" transform="translate(-46.69 -198.83)"/><path class="cls-20" d="M88.73,225.71a.76.76,0,0,0-.08-1.29c-1.15-.95-2.27-1.94-3.41-2.91l-1.32-1.65h6.69l1-4.07,1.11-3.48.84,2.2,1,3.84.36,1.39h5l1.36,0c0,.22,0,.49-.11.64-.32.38-.7.71-1.06,1.06-1.11.92-2.23,1.81-3.3,2.75-.23.21-.28.61-.41.92l1.11,4.21.67,3.12c-.49-.37-1-.7-1.48-1.11-1.3-1.16-2.58-2.35-3.93-3.59-.55.46-1,.84-1.43,1.2l-3.92,3.23L88,229.3Z" transform="translate(-46.69 -198.83)"/><path class="cls-20" d="M123.92,304.16l4.17,3.83,1,1.2c-.42.8-.87,1.66-1.44,2.73l-1.72-1.23-1.8-1.53L121.75,307l-3.81-4-3.51-4.43-3.81-5.84c-.24-.46-.47-.93-.71-1.4l-3.57-7L103.1,275c0-.25-.09-.51-.15-.76-.69-2.74-1.37-5.48-2.06-8.21l-1.31-8.31q-.36-3.86-.73-7.7l-.27-6.39.14-4.14,2.92.09v3.73c0,.37-.06.74,0,1.11a112.17,112.17,0,0,0,2.65,22.74c.81,3.44,2,6.8,3,10.2q1.13,2.85,2.27,5.7c.51,1.1,1,2.2,1.54,3.29l1.29,2.43,2.3,3.85,2.22,3.26,1.13,1.56,2.63,3.19Z" transform="translate(-46.69 -198.83)"/><path class="cls-4" d="M118,297.45l-1.13-1.56a14.2,14.2,0,0,1,1.17-1.28c1.19-1.05,2.5-2,3.6-3.11a45.05,45.05,0,0,0,3.83-4.46,40.35,40.35,0,0,0,6.82-14.11,72.22,72.22,0,0,0,1.38-8.28,30.21,30.21,0,0,0-.27-7.91,40.91,40.91,0,0,0-3.21-11.28,43.9,43.9,0,0,0-8.08-12.12c-.86-.94-1.91-1.68-2.84-2.55a33.62,33.62,0,0,0-6.62-4.66,52.19,52.19,0,0,0-12.48-4.73c.36-.35.74-.68,1.06-1.06.12-.15.08-.42.11-.64a8,8,0,0,1,4.37.65,40.91,40.91,0,0,1,13.21,6.9,67.31,67.31,0,0,1,5.35,4.76,38.66,38.66,0,0,1,6.54,9,44,44,0,0,1,4.11,10.51,33.75,33.75,0,0,1,1.19,9.43c-.11,2.55.16,5.1-.3,7.65a46.79,46.79,0,0,1-5.06,15A45.73,45.73,0,0,1,122,294.66C120.81,295.76,119.67,297,118,297.45Z" transform="translate(-46.69 -198.83)"/><path class="cls-4" d="M100,219.74h-5l-.36-1.39c1.34.12,2.69.18,4,.39C99.15,218.83,99.92,218.87,100,219.74Z" transform="translate(-46.69 -198.83)"/><path class="cls-13" d="M124.12,309.16l1.8,1.53a7.34,7.34,0,0,1-1.29,1.37A59.22,59.22,0,0,1,106,319.94c-2.51.58-5.12.69-7.66,1.16a40.69,40.69,0,0,1-8.1.27,56,56,0,0,1-14.07-2.19,65.38,65.38,0,0,1-10.5-4.12c-1.86-.88-3.57-2.08-5.35-3.13l-1.5-.89,2.36-2a8.42,8.42,0,0,0,1,1,51.93,51.93,0,0,0,11.14,5.48,53.41,53.41,0,0,0,10.3,2.66,68.82,68.82,0,0,0,7.59.69,57.26,57.26,0,0,0,6.67-.3,47.31,47.31,0,0,0,5.82-.78A51.18,51.18,0,0,0,113,315c1.76-.73,3.57-1.39,5.26-2.29C120.26,311.62,122.17,310.34,124.12,309.16Z" transform="translate(-46.69 -198.83)"/><path class="cls-22" d="M541,343.09V335.9c2.46,0,4.85-.1,7.22,0a2.69,2.69,0,0,1,2.57,2.61,7.55,7.55,0,0,1,0,1.9,2.71,2.71,0,0,1-2.57,2.62C545.82,343.18,543.44,343.09,541,343.09Z" transform="translate(-46.69 -198.83)"/><path class="cls-22" d="M700.57,355.11V335.8c2.24,0,4.46-.26,6.62.4a4.25,4.25,0,0,1,2.83,2.85,18.07,18.07,0,0,1,.81,3.71,23.37,23.37,0,0,1-.43,8.25c-.71,2.83-1.86,3.87-4.73,4.08C704,355.21,702.39,355.11,700.57,355.11Z" transform="translate(-46.69 -198.83)"/><path class="cls-22" d="M330,345.43a47.24,47.24,0,0,1-1,5.46c-.85,2.94-3.07,4.67-5.59,4.67a6,6,0,0,1-5.6-4.49,17.59,17.59,0,0,1,.05-11.44,5.6,5.6,0,0,1,5.12-4.16,5.75,5.75,0,0,1,6,4.11,10.48,10.48,0,0,1,.6,2.31c.16,1.16.2,2.33.29,3.5Z" transform="translate(-46.69 -198.83)"/><path class="cls-22" d="M178.88,345.45a14.64,14.64,0,0,1,1.05-6.25,5.69,5.69,0,0,1,4.95-3.74,5.31,5.31,0,0,1,5.53,3.25,16,16,0,0,1,1.16,4.28,16.25,16.25,0,0,1-.5,7.43,9.45,9.45,0,0,1-1.8,3.31,5.18,5.18,0,0,1-7.78.18A9.45,9.45,0,0,1,179,348C178.9,347.16,178.92,346.3,178.88,345.45Z" transform="translate(-46.69 -198.83)"/><path class="cls-22" d="M248.64,355.12V335.81a26.17,26.17,0,0,1,5.88.28,4.18,4.18,0,0,1,3.1,3,24.42,24.42,0,0,1,.36,12c-.66,2.85-1.83,3.87-4.72,4.07C251.79,355.21,250.3,355.12,248.64,355.12Z" transform="translate(-46.69 -198.83)"/><path class="cls-20" d="M763.74,348.52h-6.62l3.14-10.37h.27ZM760.55,340a39.43,39.43,0,0,0-2.52,8,45.33,45.33,0,0,0,4.94-.05C762.12,345.09,761.34,342.52,760.55,340Z" transform="translate(-46.69 -198.83)"/><path class="cls-20" d="M275.55,338.11l3.06,10.41H272.3l3-10.4Zm-2.5,9.75h4.8c-.78-2.66-1.52-5.18-2.25-7.69h-.33C274.55,342.67,273.83,345.17,273.05,347.86Z" transform="translate(-46.69 -198.83)"/><path class="cls-20" d="M313.29,400.1v-6c1.89,0,3.74-.12,5.57,0s2.59,1.42,2.48,3.26a2.54,2.54,0,0,1-2.72,2.69C316.88,400.15,315.14,400.1,313.29,400.1Z" transform="translate(-46.69 -198.83)"/><path class="cls-20" d="M313.28,390.15v-5.08a18,18,0,0,1,5.85,0,2.25,2.25,0,0,1,1.55,2.18,2.49,2.49,0,0,1-1.38,2.65,2.69,2.69,0,0,1-1.07.27C316.64,390.16,315.05,390.15,313.28,390.15Z" transform="translate(-46.69 -198.83)"/><path class="cls-20" d="M456.3,390.69v-5.76a32.22,32.22,0,0,1,5.9.15,2,2,0,0,1,1.51,1.3,2.88,2.88,0,0,1-2.41,4.29C459.67,390.8,458,390.69,456.3,390.69Z" transform="translate(-46.69 -198.83)"/><path class="cls-20" d="M508.25,390.63v-5.72a36.8,36.8,0,0,1,5.85.16,2.17,2.17,0,0,1,1,.49,3.17,3.17,0,0,1,.72,3.25,2.1,2.1,0,0,1-2.13,1.81C511.93,390.66,510.19,390.63,508.25,390.63Z" transform="translate(-46.69 -198.83)"/><path class="cls-20" d="M781.51,400.1V385a13.76,13.76,0,0,1,5,.18A3.35,3.35,0,0,1,789,388a34.3,34.3,0,0,1,.53,5.54,15.13,15.13,0,0,1-.54,3.78,3.36,3.36,0,0,1-3.44,2.79C784.27,400.16,782.94,400.1,781.51,400.1Z" transform="translate(-46.69 -198.83)"/><path class="cls-20" d="M365.51,386.79l2.5,8.1h-5.16c.82-2.73,1.61-5.4,2.41-8.06Z" transform="translate(-46.69 -198.83)"/><path class="cls-20" d="M441.7,386.9c.81,2.62,1.61,5.25,2.45,8H439l2.4-8Zm.06,3.56-.38-.06c-.32,1.14-.64,2.27-1,3.48h2.3C442.35,392.62,442.06,391.54,441.76,390.46Z" transform="translate(-46.69 -198.83)"/><path class="cls-20" d="M685.45,391.55v-6.72c1.57.08,3,.08,4.5.27s2.13,1.37,2.18,2.92-.66,2.93-2.06,3.18A45.34,45.34,0,0,1,685.45,391.55Z" transform="translate(-46.69 -198.83)"/><path class="cls-20" d="M183.27,387.41c1.44.08,2.76.09,4.07.25a2.71,2.71,0,0,1,2.08,1.58,5.69,5.69,0,0,1,.58,1.65,18.17,18.17,0,0,1-.13,7,3.07,3.07,0,0,1-3.19,2.78c-1.1.09-2.21,0-3.41,0Z" transform="translate(-46.69 -198.83)"/><path class="cls-20" d="M158.62,388.78l2.24,7.29h-4.43Zm.13,3.94-.3,0-.55,2.16h1.54Z" transform="translate(-46.69 -198.83)"/><path class="cls-20" d="M284.65,396.75a17.27,17.27,0,0,1-.85,3,2.44,2.44,0,0,1-4.47.12,6.14,6.14,0,0,1,0-6.11,2.41,2.41,0,0,1,4.38,0A15.08,15.08,0,0,1,284.65,396.75Z" transform="translate(-46.69 -198.83)"/><path class="cls-20" d="M245.26,396.77a22.15,22.15,0,0,1-.75,2.84,2.5,2.5,0,0,1-4.63.12,6.42,6.42,0,0,1,0-5.85,2.45,2.45,0,0,1,4.54,0A14.45,14.45,0,0,1,245.26,396.77Z" transform="translate(-46.69 -198.83)"/><path class="cls-20" d="M124.41,332.9c.17.24.47.47.48.71,0,2.05.06,4.11,0,6.16a1.9,1.9,0,0,1-.28.89,1,1,0,0,1-1.9,0,3.08,3.08,0,0,1-.38-1.36c0-1.69-.05-3.38,0-5.08a3.15,3.15,0,0,1,.5-1.47c.42-.65.87-.57,1.52.14-.67,0-1.24,0-1.42.9a15.24,15.24,0,0,0,0,6c.1.54.37.87,1.2.67a12.63,12.63,0,0,0,.36-2.2C124.57,336.47,124.47,334.69,124.41,332.9Z" transform="translate(-46.69 -198.83)"/><path class="cls-20" d="M116,336.85c-.13,1.11-.2,2.17-.37,3.22-.1.66-.44,1.23-1.24,1.19s-1-.57-1.11-1.17a17.86,17.86,0,0,1,0-6.64c.12-.61.47-1.13,1.15-1.14a1.17,1.17,0,0,1,1.16,1.12C115.82,334.57,115.91,335.74,116,336.85Zm-1.57,3.71c1.41-1.84.63-3.94.82-5.91a1.47,1.47,0,0,0-.82-1.72,1.51,1.51,0,0,0-.76,1.63C113.87,336.56,113.2,338.65,114.47,340.56Z" transform="translate(-46.69 -198.83)"/><path class="cls-19" d="M132.36,334.62l-.25.14c0-.13,0-.27-.05-.4Z" transform="translate(-46.69 -198.83)"/><path class="cls-18" d="M85.36,337.63c.11-1.41.54-2,1.43-2.14s1.48.45,1.88,2A8.58,8.58,0,0,1,85.36,337.63Z" transform="translate(-46.69 -198.83)"/><path class="cls-19" d="M86.1,341l1.79,0C87.1,341.7,87,341.7,86.1,341Z" transform="translate(-46.69 -198.83)"/><path class="cls-19" d="M85.78,340.64l.36.37Z" transform="translate(-46.69 -198.83)"/><path class="cls-19" d="M87.85,341l.36-.37Z" transform="translate(-46.69 -198.83)"/><path class="cls-23" d="M88.73,225.71,88,229.3a18.24,18.24,0,0,0-3,.27,46,46,0,0,0-5.15,1.63,30,30,0,0,0-10.6,6.89,37.86,37.86,0,0,0-4.91,6.22,29.58,29.58,0,0,0-5,16.51c0,1,0,2,0,3a25.38,25.38,0,0,0,1.67,9.5,33.33,33.33,0,0,0,8.21,12.94c1.06,1,2.21,2,3.31,2.94l-1.93,3.22a6,6,0,0,0-1-1.55A36,36,0,0,1,57,271.3a32.69,32.69,0,0,1-1.15-10.86,41.93,41.93,0,0,1,2.05-10.23,35.82,35.82,0,0,1,4.27-8.69,37.4,37.4,0,0,1,9.2-9.37,39.16,39.16,0,0,1,15.47-6.37A12.11,12.11,0,0,1,88.73,225.71Z" transform="translate(-46.69 -198.83)"/><path class="cls-24" d="M109.51,283.06q-1.14-2.85-2.27-5.7a20.28,20.28,0,0,0,1.7-1.64A21.41,21.41,0,0,0,113.66,264a21.05,21.05,0,0,0-2.31-11.54,20.59,20.59,0,0,0-5.45-6.77c-1.25-1-2.53-2.13-4.26-2.34v-3.73l-2.92-.09a6.58,6.58,0,0,1-.79-.09,24.18,24.18,0,0,0-11.5.11H83.7l-.21,1.56a9,9,0,0,0-1.66.44,20.05,20.05,0,0,0-8,6.81,23.13,23.13,0,0,0-4.28,17.12,24.73,24.73,0,0,0,6.09,12.88,1.78,1.78,0,0,0,1.62.84l-1.62,3.52c-1.42-.42-2.15-1.65-3.08-2.63A22.41,22.41,0,0,1,68,272.81a38.14,38.14,0,0,1-1.77-5.93,28.72,28.72,0,0,1-.45-4.74c0-.72.3-1.47.27-2.19a18.07,18.07,0,0,1,1.11-6.24,26.38,26.38,0,0,1,10-13.48,26.09,26.09,0,0,1,15.07-4.87,30.38,30.38,0,0,1,5.35.57A24.8,24.8,0,0,1,111.29,243a25.77,25.77,0,0,1,6.14,9.4A22.83,22.83,0,0,1,119.1,260a53.18,53.18,0,0,1-.3,6.67,21.49,21.49,0,0,1-2.5,7.85A27.3,27.3,0,0,1,109.51,283.06Z" transform="translate(-46.69 -198.83)"/><path class="cls-25" d="M109.51,283.06a27.3,27.3,0,0,0,6.79-8.54,21.49,21.49,0,0,0,2.5-7.85,53.18,53.18,0,0,0,.3-6.67,22.83,22.83,0,0,0-1.67-7.58,25.77,25.77,0,0,0-6.14-9.4,24.8,24.8,0,0,0-13.79-7.09,30.38,30.38,0,0,0-5.35-.57,26.09,26.09,0,0,0-15.07,4.87,26.38,26.38,0,0,0-10,13.48A18.07,18.07,0,0,0,66,260c0,.72-.3,1.47-.27,2.19a28.72,28.72,0,0,0,.45,4.74A38.14,38.14,0,0,0,68,272.81a22.41,22.41,0,0,0,4.56,7.24c.93,1,1.66,2.21,3.08,2.63-.49,1.08-1,2.16-1.45,3.24a5.17,5.17,0,0,1-.88-.34,21.46,21.46,0,0,1-5.36-5.6,29.14,29.14,0,0,1-4.67-10.05,25,25,0,0,1-1-7.84,51.29,51.29,0,0,1,.63-5.66,29.1,29.1,0,0,1,8.08-15.56,32.9,32.9,0,0,1,4.23-3.59,26.57,26.57,0,0,1,12.11-4.9l.23-.28,0,0,3.92-3.23c.45-.36.88-.74,1.43-1.2,1.35,1.24,2.63,2.43,3.93,3.59.46.41,1,.74,1.48,1.11.71.21,1.42.45,2.13.64a28.74,28.74,0,0,1,15.91,10.49,27.91,27.91,0,0,1,4.88,9.22,48.4,48.4,0,0,1,1.32,7,27.36,27.36,0,0,1-.28,7.58,26.77,26.77,0,0,1-3.43,9.84,34.22,34.22,0,0,1-6,7.58l-1.71,1.61Z" transform="translate(-46.69 -198.83)"/><path class="cls-10" d="M114.43,298.51l3.51,4.43a4.21,4.21,0,0,1-.84.89,52.35,52.35,0,0,1-11.83,5,46,46,0,0,1-9.35,1.67,48.58,48.58,0,0,1-13-.9,46.63,46.63,0,0,1-16-6.43l3.82-4.8a42.5,42.5,0,0,0,12.06,4.9,13.69,13.69,0,0,0,2,.23l.13,4.4c1.73-.33,2-.61,2-2,0-.47.05-.95.07-1.42,1.86,0,3.72,0,5.59,0,2.06-.06,4.13-.11,6.18-.32a39.09,39.09,0,0,0,12.69-3.92A32.4,32.4,0,0,0,114.43,298.51Z" transform="translate(-46.69 -198.83)"/><path class="cls-6" d="M67,303.15a46.63,46.63,0,0,0,16,6.43,48.58,48.58,0,0,0,13,.9,46,46,0,0,0,9.35-1.67,52.35,52.35,0,0,0,11.83-5,4.21,4.21,0,0,0,.84-.89l3.81,4c-.52.24-1.06.46-1.57.72-2.21,1.15-4.36,2.45-6.65,3.42a58.71,58.71,0,0,1-12.78,3.7c-2.83.5-5.68.46-8.52.78-.81.1-1.67-.29-2.5-.26a38.55,38.55,0,0,1-8.63-1.15A53.56,53.56,0,0,1,66,308.41c-.88-.47-1.75-1-2.62-1.45Z" transform="translate(-46.69 -198.83)"/><path class="cls-26" d="M87.26,232.38a26.57,26.57,0,0,0-12.11,4.9,32.9,32.9,0,0,0-4.23,3.59,29.1,29.1,0,0,0-8.08,15.56,51.29,51.29,0,0,0-.63,5.66,25,25,0,0,0,1,7.84A29.14,29.14,0,0,0,67.91,280a21.46,21.46,0,0,0,5.36,5.6,5.17,5.17,0,0,0,.88.34l-1.65,3.32c-1.1-1-2.25-1.91-3.31-2.94A33.33,33.33,0,0,1,61,273.36a25.38,25.38,0,0,1-1.67-9.5c0-1,0-2,0-3a29.58,29.58,0,0,1,5-16.51,37.86,37.86,0,0,1,4.91-6.22,30,30,0,0,1,10.6-6.89A46,46,0,0,1,85,229.57a18.24,18.24,0,0,1,3-.27l-.51,2.83,0,0Z" transform="translate(-46.69 -198.83)"/><path class="cls-8" d="M63.38,307c.87.48,1.74,1,2.62,1.45a53.56,53.56,0,0,0,15.1,5.78,38.55,38.55,0,0,0,8.63,1.15c.83,0,1.69.36,2.5.26,2.84-.32,5.69-.28,8.52-.78a58.71,58.71,0,0,0,12.78-3.7c2.29-1,4.44-2.27,6.65-3.42.51-.26,1-.48,1.57-.72l2.37,2.18c-2,1.18-3.86,2.46-5.87,3.52-1.69.9-3.5,1.56-5.26,2.29a51.18,51.18,0,0,1-9.3,2.75,47.31,47.31,0,0,1-5.82.78,57.26,57.26,0,0,1-6.67.3,68.82,68.82,0,0,1-7.59-.69,53.41,53.41,0,0,1-10.3-2.66A51.93,51.93,0,0,1,62.17,310a8.42,8.42,0,0,1-1-1Z" transform="translate(-46.69 -198.83)"/><path class="cls-27" d="M77.22,279.16a1.78,1.78,0,0,1-1.62-.84,24.73,24.73,0,0,1-6.09-12.88,23.13,23.13,0,0,1,4.28-17.12,20.05,20.05,0,0,1,8-6.81,9,9,0,0,1,1.66-.44l-.15,5.12a5.47,5.47,0,0,0-1.61.55,25.34,25.34,0,0,0-2.88,2.49,18.08,18.08,0,0,0-5.11,12,18.94,18.94,0,0,0,2.84,11.08c.55.9,1,2.06,2.21,2.35Z" transform="translate(-46.69 -198.83)"/><path class="cls-28" d="M78.79,274.68c-1.25-.29-1.66-1.45-2.21-2.35a18.94,18.94,0,0,1-2.84-11.08,18.08,18.08,0,0,1,5.11-12,25.34,25.34,0,0,1,2.88-2.49,5.47,5.47,0,0,1,1.61-.55c-.24,3.66-.34,7.32-.75,10.95a91.29,91.29,0,0,1-3.44,16.66C79.05,274.1,78.91,274.38,78.79,274.68Z" transform="translate(-46.69 -198.83)"/><path class="cls-14" d="M99.58,257.72l1.31,8.31a9,9,0,0,0-.82.65c-1,1-2,2-2.95,3.05a6,6,0,0,0-.56.76l-.15-.45c-.78-2.25-1.59-4.48-3.35-6.2a2.45,2.45,0,0,0-3.66-.25,6.22,6.22,0,0,0-1.59,1.73c-.64,1.14-1.1,2.39-1.64,3.59l-1.07-.61-1.19-.69c.37-2.3.75-4.61,1.13-6.91l.54-3.3c.74.11,1.13-.43,1.63-.83A9.21,9.21,0,0,1,89.4,255a8,8,0,0,1,9,2.08C98.64,257.43,99.18,257.53,99.58,257.72Z" transform="translate(-46.69 -198.83)"/><path class="cls-21" d="M84.91,303.48a13.69,13.69,0,0,1-2-.23,42.5,42.5,0,0,1-12.06-4.9q1.78-2.72,3.55-5.43c1.44.67,2.87,1.36,4.33,2a18.46,18.46,0,0,0,6.37,1.85Z" transform="translate(-46.69 -198.83)"/><path class="cls-29" d="M99.58,257.72c-.4-.19-.94-.29-1.19-.6a8,8,0,0,0-9-2.08,9.21,9.21,0,0,0-2.19,1.53c-.5.4-.89.94-1.63.83l.66-7c.55-.17,1.09-.39,1.64-.52a23.75,23.75,0,0,1,4.78-1,20.43,20.43,0,0,1,4.33.88c.61.13,1.24.19,1.86.29Q99.23,253.86,99.58,257.72Z" transform="translate(-46.69 -198.83)"/><path class="cls-28" d="M98.85,250c-.62-.1-1.25-.16-1.86-.29a20.43,20.43,0,0,0-4.33-.88,23.75,23.75,0,0,0-4.78,1c-.55.13-1.09.35-1.64.52q.15-3.36.31-6.72c.88-.17,1.75-.39,2.64-.51,1.71-.23,3.39-.72,5.18-.19a30.81,30.81,0,0,0,4.21.7Z" transform="translate(-46.69 -198.83)"/><path class="cls-26" d="M85.06,296.76a18.46,18.46,0,0,1-6.37-1.85c-1.46-.63-2.89-1.32-4.33-2q1.76-3.36,3.5-6.73c.6.2,1.21.35,1.79.59,1.85.75,3.7,1.53,5.55,2.3C85.15,291.64,85.11,294.2,85.06,296.76Z" transform="translate(-46.69 -198.83)"/><path class="cls-27" d="M85.2,289.08c-1.85-.77-3.7-1.55-5.55-2.3-.58-.24-1.19-.39-1.79-.59q1.68-4.35,3.35-8.7a13.81,13.81,0,0,1,2.11.94,3.38,3.38,0,0,0,2.19.72C85.41,282.46,85.3,285.77,85.2,289.08Z" transform="translate(-46.69 -198.83)"/><path class="cls-27" d="M98.58,243.63a30.81,30.81,0,0,1-4.21-.7c-1.79-.53-3.47,0-5.18.19-.89.12-1.76.34-2.64.51l-.12-4.12a24.18,24.18,0,0,1,11.5-.11,6.58,6.58,0,0,0,.79.09C98.67,240.87,98.63,242.25,98.58,243.63Z" transform="translate(-46.69 -198.83)"/><path class="cls-29" d="M85.51,279.15a3.38,3.38,0,0,1-2.19-.72,13.81,13.81,0,0,0-2.11-.94l2.7-9.88,1.19.69,1.07.61c-.12,1.2-.27,2.4-.34,3.61C85.7,274.73,85.61,276.94,85.51,279.15Z" transform="translate(-46.69 -198.83)"/><path class="cls-21" d="M100.16,221.4a52.19,52.19,0,0,1,12.48,4.73,33.62,33.62,0,0,1,6.62,4.66c.93.87,2,1.61,2.84,2.55a43.9,43.9,0,0,1,8.08,12.12,40.91,40.91,0,0,1,3.21,11.28,30.21,30.21,0,0,1,.27,7.91,72.22,72.22,0,0,1-1.38,8.28A40.35,40.35,0,0,1,125.46,287a45.05,45.05,0,0,1-3.83,4.46c-1.1,1.13-2.41,2.06-3.6,3.11a14.2,14.2,0,0,0-1.17,1.28l-2.22-3.26c1.08-.92,2.2-1.81,3.23-2.78a36.15,36.15,0,0,0,6.16-7.46c3.54-5.76,5.79-11.9,5.67-18.77a47.68,47.68,0,0,0-.36-8.1A38.53,38.53,0,0,0,123,240.38a36.74,36.74,0,0,0-8.71-8.75,35.32,35.32,0,0,0-10.19-5.11,24.1,24.1,0,0,0-7.61-1.45c.13-.31.18-.71.41-.92C97.93,223.21,99.05,222.32,100.16,221.4Z" transform="translate(-46.69 -198.83)"/><path class="cls-23" d="M96.45,225.07a24.1,24.1,0,0,1,7.61,1.45,35.32,35.32,0,0,1,10.19,5.11,36.74,36.74,0,0,1,8.71,8.75,38.53,38.53,0,0,1,6.38,15.14,47.68,47.68,0,0,1,.36,8.1c.12,6.87-2.13,13-5.67,18.77a36.15,36.15,0,0,1-6.16,7.46c-1,1-2.15,1.86-3.23,2.78l-2.3-3.85c.36-.09.81-.06,1.06-.27a27.26,27.26,0,0,0,3.42-3.1,52.71,52.71,0,0,0,4.26-5.72,29.89,29.89,0,0,0,4.76-15.81c0-2.12-.18-4.24-.3-6.36a28.29,28.29,0,0,0-3.7-11.6,35.28,35.28,0,0,0-6.5-8.22A31.93,31.93,0,0,0,101.93,230a9.16,9.16,0,0,0-4.37-.7Z" transform="translate(-46.69 -198.83)"/><path class="cls-26" d="M97.56,229.28a9.16,9.16,0,0,1,4.37.7,31.93,31.93,0,0,1,13.41,7.72,35.28,35.28,0,0,1,6.5,8.22,28.29,28.29,0,0,1,3.7,11.6c.12,2.12.33,4.24.3,6.36a29.89,29.89,0,0,1-4.76,15.81,52.71,52.71,0,0,1-4.26,5.72,27.26,27.26,0,0,1-3.42,3.1c-.25.21-.7.18-1.06.27l-1.29-2.43,1.71-1.61a34.22,34.22,0,0,0,6-7.58,26.77,26.77,0,0,0,3.43-9.84,27.36,27.36,0,0,0,.28-7.58,48.4,48.4,0,0,0-1.32-7,27.91,27.91,0,0,0-4.88-9.22A28.74,28.74,0,0,0,100.36,233c-.71-.19-1.42-.43-2.13-.64C98,231.36,97.78,230.32,97.56,229.28Z" transform="translate(-46.69 -198.83)"/><path class="cls-28" d="M101.64,243.31c1.73.21,3,1.33,4.26,2.34a20.59,20.59,0,0,1,5.45,6.77A21.05,21.05,0,0,1,113.66,264a21.41,21.41,0,0,1-4.72,11.76,20.28,20.28,0,0,1-1.7,1.64c-1-3.4-2.19-6.76-3-10.2a112.17,112.17,0,0,1-2.65-22.74C101.58,244.05,101.62,243.68,101.64,243.31Z" transform="translate(-46.69 -198.83)"/><path class="cls-21" d="M114.43,298.51a32.4,32.4,0,0,1-2.83,1.68,39.09,39.09,0,0,1-12.69,3.92c-2,.21-4.12.26-6.18.32-1.87,0-3.73,0-5.59,0L87,297.09l3,0c.14,1.43.14,1.46,1.09,1.5a11.08,11.08,0,0,0,7.51-2c.49.75,1.22.56,1.85.37a58.82,58.82,0,0,0,6.27-2c1.37-.57,2.9-1,3.92-2.24Z" transform="translate(-46.69 -198.83)"/><path class="cls-26" d="M110.62,292.67c-1,1.25-2.55,1.67-3.92,2.24a58.82,58.82,0,0,1-6.27,2c-.63.19-1.36.38-1.85-.37a8.27,8.27,0,0,0,2-6.13l-.27-3.61c1.62-.73,3.24-1.47,4.87-2.19a11.37,11.37,0,0,1,1.17-.37l3.57,7C110.15,291.74,110.38,292.21,110.62,292.67Z" transform="translate(-46.69 -198.83)"/><path class="cls-27" d="M106.34,284.28a11.37,11.37,0,0,0-1.17.37c-1.63.72-3.25,1.46-4.87,2.19a4.63,4.63,0,0,0-3.74-3.47c-.82-.19-1.63-.43-2.43-.7-1.45-.5-1.59-.95-.68-2.17.66-.88,1.35-1.75,2-2.62a12.39,12.39,0,0,0,5.32-1.93,18.06,18.06,0,0,1,2.31-.95Z" transform="translate(-46.69 -198.83)"/><path class="cls-29" d="M103.1,275a18.06,18.06,0,0,0-2.31.95,12.39,12.39,0,0,1-5.32,1.93c.19-.49.39-1,.54-1.48a11.23,11.23,0,0,0,.55-5.91,6,6,0,0,1,.56-.76c1-1,2-2,2.95-3.05a9,9,0,0,1,.82-.65c.69,2.73,1.37,5.47,2.06,8.21C103,274.49,103.05,274.75,103.1,275Z" transform="translate(-46.69 -198.83)"/><path class="cls-18" d="M760.55,340c.79,2.56,1.57,5.13,2.42,7.92a45.33,45.33,0,0,1-4.94.05A39.43,39.43,0,0,1,760.55,340Z" transform="translate(-46.69 -198.83)"/><path class="cls-18" d="M273.05,347.86c.78-2.69,1.5-5.19,2.22-7.7h.33c.73,2.51,1.47,5,2.25,7.69Z" transform="translate(-46.69 -198.83)"/><path class="cls-18" d="M441.76,390.46c.3,1.08.59,2.16.93,3.42h-2.3c.35-1.21.67-2.34,1-3.48Z" transform="translate(-46.69 -198.83)"/><path class="cls-18" d="M158.75,392.72l.69,2.19H157.9l.55-2.16Z" transform="translate(-46.69 -198.83)"/><path class="cls-18" d="M124.41,332.9c.06,1.79.16,3.57.15,5.35a12.63,12.63,0,0,1-.36,2.2c-.83.2-1.1-.13-1.2-.67a15.24,15.24,0,0,1,0-6c.18-.86.75-.91,1.42-.9Z" transform="translate(-46.69 -198.83)"/><path class="cls-18" d="M114.47,340.56c-1.27-1.91-.6-4-.76-6a1.51,1.51,0,0,1,.76-1.63,1.47,1.47,0,0,1,.82,1.72C115.1,336.62,115.88,338.72,114.47,340.56Z" transform="translate(-46.69 -198.83)"/><path class="cls-20" d="M87.26,232.38l.23-.28Z" transform="translate(-46.69 -198.83)"/><path class="cls-20" d="M96.56,270.49A11.23,11.23,0,0,1,96,276.4c-.15.5-.35,1-.54,1.48-.67.87-1.36,1.74-2,2.62-.91,1.22-.77,1.67.68,2.17.8.27,1.61.51,2.43.7a4.63,4.63,0,0,1,3.74,3.47l.27,3.61a8.27,8.27,0,0,1-2,6.13,11.08,11.08,0,0,1-7.51,2c-.95,0-.95-.07-1.09-1.5l1.76-.06a6.21,6.21,0,0,0,5.69-8.33,4.18,4.18,0,0,0-.15-.61c-.72-1.86-2.35-2.65-4.07-3.2a2.5,2.5,0,0,1-1.6-1.37,3.36,3.36,0,0,1,.09-3.57c.71-.93,1.49-1.81,2.12-2.78a7.25,7.25,0,0,0,.75-6.71c-.34-.9-.62-1.82-1-2.67a11,11,0,0,0-1.4-2.11,1.57,1.57,0,0,0-2.57,0,6.4,6.4,0,0,0-1.77,3.47c-.62,3.22-.36,6.46-.4,9.7-.08,3.42-.15,6.83-.23,10.25l-.18,8c0,2.45.11,4.9.16,7.35,0,.47-.06.95-.07,1.42,0,1.41-.3,1.69-2,2l-.13-4.4.15-6.72c0-2.56.09-5.12.14-7.68.1-3.31.21-6.62.31-9.93.1-2.21.19-4.42.32-6.63.07-1.21.22-2.41.34-3.61.54-1.2,1-2.45,1.64-3.59a6.22,6.22,0,0,1,1.59-1.73,2.45,2.45,0,0,1,3.66.25c1.76,1.72,2.57,4,3.35,6.2Z" transform="translate(-46.69 -198.83)"/><path class="cls-26" d="M97.43,288.68A6.21,6.21,0,0,1,91.74,297l-1.76.06-3,0,.18-8c1.4.13,2.83.16,4.21.41a15.91,15.91,0,0,0,5.42-.4C97,289.05,97.21,288.82,97.43,288.68Z" transform="translate(-46.69 -198.83)"/><path class="cls-29" d="M87.39,278.83c0-3.24-.22-6.48.4-9.7a6.4,6.4,0,0,1,1.77-3.47,1.57,1.57,0,0,1,2.57,0,11,11,0,0,1,1.4,2.11c.42.85.7,1.77,1,2.67a7.25,7.25,0,0,1-.75,6.71c-.63,1-1.41,1.85-2.12,2.78-.1-.11-.2-.3-.32-.33C90.05,279.33,88.72,279.08,87.39,278.83Z" transform="translate(-46.69 -198.83)"/><path class="cls-27" d="M87.39,278.83c1.33.25,2.66.5,4,.77.12,0,.22.22.32.33a3.36,3.36,0,0,0-.09,3.57,2.5,2.5,0,0,0,1.6,1.37c1.72.55,3.35,1.34,4.07,3.2a4.18,4.18,0,0,1,.15.61c-.22.14-.41.37-.64.41a15.91,15.91,0,0,1-5.42.4c-1.38-.25-2.81-.28-4.21-.41C87.24,285.66,87.31,282.25,87.39,278.83Z" transform="translate(-46.69 -198.83)"/></svg>