<svg id="Layer_1" data-name="Layer 1" xmlns="http://www.w3.org/2000/svg" viewBox="0 0 165.37 140.42"><defs><style>.cls-1{fill:#ce9e32;}</style></defs><path class="cls-1" d="M370.93,347.3c5.19,4.52,10.73,3.15,16.21.83,9.93-4.21,19.8-8.57,29.69-12.86l.5-1.77c-2.13-1.1-4.51-1.89-6.34-3.37-3.07-2.49-6.43-5-8.45-8.3-1.48-2.39,1.13-3.9,3.67-3.28a6.5,6.5,0,0,1,3.6,2.51c2.72,4.25,6,3.17,8.61.57,1.8-1.78,2.53-4.64,3.73-7-2.22-1-4.37-2.39-6.7-3a8.09,8.09,0,0,0-4.88.68c-3.61,1.6-5.19-.16-6.32-3.17a14.31,14.31,0,0,1,21.64,8.8c1,4.13-.62,7.17-4.28,9.16-1.74,1-3.56,1.76-5.56,2.73l2.46,4.41c5.78-1.65,11.51-3.67,16.47,1.43-5.12-.56-10,0-14,3.63-3.09,1.07-6.27,1.94-9.27,3.24-9,3.87-17.83,7.91-26.76,12.31,4.21-1.11,8.56-1.84,12.58-3.42,5.72-2.24,11.19-5.1,16.76-7.69,3.7-1.72,3.71-1.72,7.29,2.13C412,351,403,356.81,391.83,357.63a3.43,3.43,0,0,1-1,.06c-13.84-3.64-28.79-3-41.54-10.81-.83-.51-1.61-1.1-1.78-1.21l25.08,6.55.61-1.54L371,347.2Z" transform="translate(-331.1 -217.29)"/><path class="cls-1" d="M425.39,310.16c3.09-4.65,6-3.68,8.33-1.12,2.12,2.3,3.74,2.21,6.4.89,7.34-3.63,10-1.94,10.22,6.14.18,6.33.48,12.68.21,19s2.12,10.92,7.57,14a32.51,32.51,0,0,1,2.9,2.28c-10.32-3.14-15.13-8.72-15.5-17.81-.27-6.6,0-13.21,0-20.87l-5.12,3.13c2.08,5.33,5.68,10.73-.09,15.22-3.63,2.82-7.43.6-10.29-2.19-3.46-3.37-2.36-7.15,4.61-16.05l-4.15-1.19C428.94,311.2,427.46,310.76,425.39,310.16Zm7.14,18.36c5.58-1.88,6.37-4.06,3.85-10Z" transform="translate(-331.1 -217.29)"/><path class="cls-1" d="M404.71,290.14c6.71-4.39,7.57-10.64,7.49-17.34-.12-9.66.12-19.32-.19-29-.08-2.56-1.6-5.07-2.41-7.45h13.9c-.77,2.27-2.12,4.48-2.2,6.74-.33,10.31-.16,20.64-.46,30.95C420.6,282.28,413.41,289.56,404.71,290.14Z" transform="translate(-331.1 -217.29)"/><path class="cls-1" d="M348.9,316.26l2.74,1.56a89.4,89.4,0,0,1,6-7.58c1.49-1.53,3.6-2.44,5.44-3.62,1.28,2.39,3.48,4.7,3.68,7.18.56,6.8.28,13.66.33,20.49,0,4.69.44,9.29,3.81,13l.09-.1c-5.94-2.42-8.46-7.14-8.6-13.26s0-12.26,0-18.8c-6.84,4.85-8.23,8.7-6.5,15.66a37.24,37.24,0,0,1,1.17,8.84c0,4-2.3,5.18-6,3.59-6.43-2.77-8.5-10-4.79-16.76,1.75-3.2,4.93-6,2.69-10.26ZM353.08,329l-1.75-.36a64.26,64.26,0,0,0-2.74,7.21c-.23.88.76,2.07,1.19,3.12,1.1-.75,3-1.36,3.15-2.27C353.37,334.23,353.08,331.61,353.08,329Z" transform="translate(-331.1 -217.29)"/><path class="cls-1" d="M478.66,314a17,17,0,0,0-2.83,1,14.42,14.42,0,0,0-1.69,1.57c.79,2.22,2.26,4.31,2.06,6.24-.26,2.68-1.1,6.64-2.91,7.5-2.28,1.07-6.09.24-8.66-1-3.07-1.48-3.32-4.79-1.88-7.87,3-6.38,8.17-10.46,14.54-13,3.47-1.36,6,.76,6.16,4.73.19,6.66.63,13.35.23,20-.45,7.53,2.34,12.86,8.78,16.53,1.28.72,2.41,1.7,4,2.84-9.21-1.52-17.46-10.27-17.76-18.74C478.48,327.46,478.66,321,478.66,314Z" transform="translate(-331.1 -217.29)"/><path class="cls-1" d="M374.17,318.17l7.89-3.69,2.86,3.55c-1.73,3.89-4.32,5.39-8.14,4.09-3.48-1.19-8-7.31-7.09-10,1.22-3.81,4.48-5.4,7.89-4s6.3,4.05,9.24,6.38c1.23,1,2,2.54,3,3.85l11.33-8.67,3.76,4.21c-3.33,2.78-6.76,5.16-9.51,8.16-1.27,1.37-1.78,4-1.65,6,.25,3.62,1.59,7.17,1.83,10.79.32,4.8-2.4,6.31-6.7,4.12-7-3.54-8.14-10.77-3-18.81,3.14-4.9,1.78-9.07-3.6-11.06C378.24,311.57,375.94,312.59,374.17,318.17Zm17.37,10.75-1.78-.45a61.86,61.86,0,0,0-2.79,7.2c-.24.9.76,2.13,1.2,3.21,1.12-.72,3.06-1.31,3.21-2.21C391.83,334.15,391.54,331.51,391.54,328.92Z" transform="translate(-331.1 -217.29)"/><path class="cls-1" d="M455.05,260c-.87,5.93-4.57,8.78-10.21,10-2.69.56-5.23,1.9-7.79,2.88l-.8-3.56,4-2.14c-.49-.82-.94-1.58-1.45-2.42l5.6-1.1-2.5-2.67,8-3.07-5.08-5.07,1-.94c3,3.66,6.67,2,9.18-4.25,5.48,8.73,2.81,23.59-5.71,29.53l.37-4.33-4.29,2.56c.35,2.13,1.15,3.82.61,4.66s-2.42.55-4.32.88c.5.85,1.3,3.17,2,3.14,1.57-.09,3.07-1.3,5.55-2.52-.62,1.61-.78,3.49-1.77,4.18s-3.66,1.21-4.39.52c-1.4-1.31-3.06-3.89-2.6-5.28a20.09,20.09,0,0,1,4.93-7.18c2.42-2.47,5.7-4.15,7.95-6.74,1.94-2.24,3-5.27,4.41-7.95l-1.11-.7-1.68,1.78c-.25-.62-.49-1.24-.74-1.87l-7.72,3.49C450.66,265.77,452.75,262.43,455.05,260Z" transform="translate(-331.1 -217.29)"/><path class="cls-1" d="M380.89,281.26c-8.48-7.57-10.61-28.54-3.69-37.16,1.06-1.31,2.62-2.21,5-4.14l-1.31,5,5.79-2.68L374.05,255l1.19,1.54c3.63-5.59,9-6.1,15-5.4-3.7,3.36-7.77,6.41-11,10.2-1.78,2.11-2.1,5.45-2.55,8.41,4.38-5.57,6.91-6.44,10.09-2.4-4.38-1.23-8-.6-7.7,4.21a9.2,9.2,0,0,0,4.07,6.42c2.53,1.41,5.3.37,3.73-5.25L389,274c.43,1.06,1.45,2.84,1.19,3.06a23.24,23.24,0,0,1-5.11,3.08,20,20,0,0,1-4,1Z" transform="translate(-331.1 -217.29)"/><path class="cls-1" d="M471.43,353.94c-4.21-2.91-8.64-5.55-12.53-8.84-1.87-1.58-3.73-4.35-3.83-6.65-.41-9.91-.18-19.86-.18-29.91,3-.06,4.18,1.58,4.2,4.61,0,6.66.57,13.35.21,20-.42,7.47,2.16,12.9,8.69,16.55a44.8,44.8,0,0,1,4.33,3.13Z" transform="translate(-331.1 -217.29)"/><path class="cls-1" d="M349,316.21c-3.13-2-5.93-5.22-10.2-3.13-1.48.72-2.66,2.1-4,3.18l1,1.87,8.56-3.8c.33,1.67,1.72,4.24,1,5.66-1.77,3.28-5,3.41-8.18,1.48a9.24,9.24,0,0,1-2.54-2.37c-2-2.71-5.34-5.4-2.1-9.09,3.07-3.49,7-3,10.36-.5,2.39,1.76,4.08,4.46,6.08,6.75Z" transform="translate(-331.1 -217.29)"/><path class="cls-1" d="M427.09,223.66l3.5-4.33,4.73,5.43,2.35-1.12c.3,2.6.58,4.94.84,7.16h7.8c-2.67,1.74-5.27,2.58-6.27,4.33s-.21,4.27-.21,5.56l-6.23,5.59C435.89,237.06,438.56,227.83,427.09,223.66Z" transform="translate(-331.1 -217.29)"/><path class="cls-1" d="M401,221.43a76.43,76.43,0,0,1,4.61,7.3c.19.37-1.64,1.78-3.09,2.5.06-3.11,1.78-6.53-3-7.15-3.61-.48-6.37.78-7.48,4.3s.05,5.89,4.56,6.14l-1.11,1.71c-1.41-.74-4.08-1.56-4-2.2.24-3.58.24-7.67,2-10.54,2.42-3.92,8.38-4.42,12.68-2.38,3.94,1.88,5.55,5.19,5.34,9.32-.05,1.1-1.18,2.26-2.08,3.13-.3.29-1.4-.25-2.13-.41a28.87,28.87,0,0,1,1-3.07C410.3,225.55,406.89,221.81,401,221.43Z" transform="translate(-331.1 -217.29)"/><path class="cls-1" d="M395.17,250.62h4.27l1.45,1.61-6.3,6.8-1.25-1.5,4.8,4.17c-4.43.77-9.21-.59-9.47,5.62-2-4.5.25-7.49,2.34-10.6,3.92-5.82,3.33-9.64-2.74-14.8l7.75,1.79Z" transform="translate(-331.1 -217.29)"/><path class="cls-1" d="M403.08,267.5l-3.65-3.15c3.14-1.8,8.86.47,7.82-6.27l1.84.88c-.83,2.87-1.15,6-2.58,8.57-3.49,6.25-3.65,8.13.61,14l-5.59-.81.33-6.16-4.19-.7Z" transform="translate(-331.1 -217.29)"/><path class="cls-1" d="M381.06,281.08c8,2.47,10.6,1.33,12.71-6.49l4.68,7.89c-4.37,2.92-8.49,7.12-2.05,13.51L385,287.75l.74-1.14,5.81,3.4,1.3-6.32c-4.14-.25-9,2.76-11.95-2.43Z" transform="translate(-331.1 -217.29)"/><path class="cls-1" d="M420.89,339.14c1.08,1,2.1,2.08,3.25,3,2.83,2.26,6.34,3.43,9,.84,1.53-1.47,1.25-4.81,1.78-7.32,4.6,4.67,5.61,8.3,3.08,11.13-3,3.35-8.13,2.72-12.69-1.82A50.22,50.22,0,0,1,420.89,339.14Z" transform="translate(-331.1 -217.29)"/><path class="cls-1" d="M397.21,289.79l3.13,4.71,1.1-3.43c1.66,4.36,3.56,8,8.35,7.3.09-1.91.16-3.52.24-5.13,1.37.11,3.57-.23,3.94.45a5.24,5.24,0,0,1,0,4.43c-1.72,3-7.63,3.48-13.21,0C398.91,296.89,394.79,294.1,397.21,289.79Z" transform="translate(-331.1 -217.29)"/><path class="cls-1" d="M421.62,292.27l10,4.89c-4.13,2.49-8.2,1.2-10.82-4.23l-2.57,1.48-1.07-1.22c1.07-1,2-2.65,3.24-2.83,5.17-.74,8.74-3,9.56-8.63C433.6,286.15,433,287,421.62,292.27Z" transform="translate(-331.1 -217.29)"/><path class="cls-1" d="M433.38,237.07l-4.91.25c.27-3.78-8.59-2-4.92-7.72L430.6,231Z" transform="translate(-331.1 -217.29)"/><path class="cls-1" d="M423.53,267.27c.74,6.22,8.36,12,.07,17.62C429.82,279.26,419.45,273.43,423.53,267.27Z" transform="translate(-331.1 -217.29)"/><path class="cls-1" d="M433.87,263c.56-2.05,1.12-4.1,1.58-5.8.43,1.4,1,3.11,1.77,5.71l-2.75,5.14-1.91-1.79c-.42-3.2-.85-6.41-1.26-9.53C433.87,256.83,433.87,256.83,433.87,263Z" transform="translate(-331.1 -217.29)"/><path class="cls-1" d="M443.5,246.19l-4.13,11.51c-.82-2.9-2.63-5.79-1.84-7.48C438.45,248.26,440.1,244.41,443.5,246.19Z" transform="translate(-331.1 -217.29)"/><path class="cls-1" d="M415,225c1.32,2.42,2.85,5.2,4.31,7.86l-6,1.79C414,231.4,414.53,228,415,225Z" transform="translate(-331.1 -217.29)"/><path class="cls-1" d="M402,240.41c.18,4.09.32,7.17.45,10.25l-.58.65c-1-2-2.51-3.87-2.66-5.89C399.13,244,400.88,242.36,402,240.41Z" transform="translate(-331.1 -217.29)"/><path class="cls-1" d="M423.92,261.05l-.33-5.2,3.7-1.89,1.2.56-3.25,7.14Z" transform="translate(-331.1 -217.29)"/><path class="cls-1" d="M428.78,246.22l3.24,3.91-9.27.73-.42-1.33Z" transform="translate(-331.1 -217.29)"/><path class="cls-1" d="M421.33,226.53c.7-1.74,1.39-3.49,1.79-4.49L419,219c.66-.6,1.79-1.79,1.91-1.7,1.16.92,3,2,3,3.13.08,2.09-.89,4.22-1.41,6.34Z" transform="translate(-331.1 -217.29)"/><path class="cls-1" d="M455.05,260c-2.3,2.47-4.39,5.81-8.59,1.78l7.72-3.49c.25.63.49,1.25.74,1.87Z" transform="translate(-331.1 -217.29)"/></svg>