<svg id="Layer_1" data-name="Layer 1" xmlns="http://www.w3.org/2000/svg" viewBox="0 0 669.37 435.22"><defs><style>.cls-1{fill:#fff;}.cls-2{fill:#012b75;}.cls-3{fill:#fd0002;}</style></defs><path class="cls-1" d="M720.69,450.39h-600v49.29h600ZM366.08,329.52c6.35,1.58,11,2.86,15.64,3.84,3.27.69,4.6,1.7,4,5.65-1.71,11.77-2.75,23.64-4.15,36.35,1.3-1.53,2.06-2.37,2.76-3.25a115.9,115.9,0,0,1,40.75-33c37.28-18.22,75.46-17.89,113.88-4.24,25.65,9.11,41.35,26.85,45,54.53,2.53,19-5.22,34.38-21.46,39-6.72,1.92-14.08,2-21.16,2.09-4.77,0-9.57-1.42-14.35-2.21,17,10.59,35.14,13.53,54.35,7.6C599.74,430.22,611,418,614.51,399c3.89-21.3-1.08-41-12-59.3-13-21.88-33-35.21-56.42-43.8-28.45-10.44-57.84-12.14-87.61-8.42-25.7,3.21-50,10.82-71.71,25.46C379.88,317.64,373.67,323.41,366.08,329.52Zm-31.77-77c-.94-1.32-1.38-2-1.86-2.61-19.4-25.17-54-30.61-79.1-22.71-20.84,6.56-33,25.37-30.84,46.36,2.13,20.21,11.11,36.71,27.76,48.12,10.36,7.1,21.89,12.54,33.11,18.31,20.22,10.4,36,24.75,43.52,46.9,14-15.43,13.49-44.06-1.21-59.64-10.85-11.51-24.6-18.72-38.71-25.13-16.28-7.4-25.26-20.12-28.54-37.18-3.38-17.56,6.27-29.73,24.07-28.8,10.11.53,20.26,3.31,30,6.3C319.85,244.68,326.58,248.85,334.31,252.52Zm5.46,102.61a80.57,80.57,0,0,1-7.15,32.33c-7.37,16.24-23.08,25.6-40.15,23.53-11.6-1.42-21.39-7.12-30.31-14.32-18.55-15-32.49-33.74-43.94-54.46-3.48-6.31-6.44-12.92-10.06-20.25-2.63,12.93-5.09,25-7.62,37.42l-25.48-9c8.52,20.71,19.3,38.6,34.12,53.77,20.63,21.1,45.11,33.32,75.43,30.8a58,58,0,0,0,34.75-14.81C338.89,402.57,343.5,380.12,339.77,355.13ZM389.63,80.31c1,2.17,2,4.33,3,6.5,3.92,8.46,6.3,17.28,4.94,26.64-.67,4.64-1.81,9.4-6.58,12.13-8.4-15.63-13.89-21.39-20.87-21.78.45,1.15.8,2.24,1.27,3.27,6.4,14.24,5.8,18.06-5.71,28.6-9.2,8.42-14.89,18.17-14.18,31.06a49.62,49.62,0,0,0,8.21,24.81c3.64,5.59,8.44,6.91,15,4.24-12.33-10.74-13.25-21.73-3.5-33.4,1.58-1.9,1.42-5.51,1.48-8.35,0-1.83-1-3.68-1.52-5.53l1.4-1.06c3.58,3.83,7.16,7.66,11.06,11.85,4.95-8,.71-15.33-2.8-23.88,9.44,6.14,15.6,12.64,16.22,23.26.11,2,2.34,3.8,3.59,5.7,1-2,3-4,2.88-6-.13-3.3-1.51-6.55-2.41-10a28.64,28.64,0,0,1,14.1,15c4.78,13-1.64,23-10,33.34,12.81,0,24.27,0,35.74,0,8.89,0,11.57-2.37,14.24-10.84,4.68-14.88-.78-29.05-2-44.43-6.84,7.76-7.85,16.15-8.48,24.94a50.61,50.61,0,0,1-4,15.62c-.72,1.7-4.61,2.06-7.06,3-.62-2.51-2.27-5.31-1.66-7.46,1.17-4.09,3.6-7.83,5.57-11.68,4.34-8.51,8-17.21,8.58-26.92.85-14.36-8.88-31.14-21.5-36.33a30.45,30.45,0,0,1,2.43,5.09c1.4,5.39,3,10.78,3.67,16.28.4,3.47-1.09,7.42-5.15,8.14-4.31.76-6.44-2.71-8-6.15a8.76,8.76,0,0,1-.9-3.84C417.53,102.11,405,90.4,389.63,80.31ZM396,425.69c.41-9.69-1.85-15.29-5-23.38-7.42-18.81-14.18-37.89-20.67-57.05-7.4-21.84-14-44-21.44-65.79a32.76,32.76,0,0,0-8.22-12.72,153.26,153.26,0,0,0-19.27-15c-4.29-2.93-9.25-4.86-13.91-7.24,2.19,4.83,4.82,8.67,7.07,12.71,10.08,18.16,15.81,38,21.72,57.7,7.39,24.65,14.38,49.43,22.06,74C364.13,407.61,376.09,420.57,396,425.69Zm-9-120.2c12.59-4.95,25.05-9.85,37.51-14.77.59-.23,1.53-.66,1.58-1.07.59-5.79,1.57-11.62,1.28-17.37-.11-2.27-.5-3.89.54-6.22,1.38-3.11,2.65-7.26,1.7-10.22-3-9.33-1.89-18.06,1.71-26.76,1.62-3.93,3.56-7.73,5.34-11.56H374.54c.66,1.24,1,2,1.44,2.69,6.9,11.34,11,23.12,6.36,36.53a7.44,7.44,0,0,0,.3,5.34c2.4,4.55,2,9,1.91,14C384.39,286.17,386.15,296.28,387,305.49Zm66.4-23.73c11.66-.3,21.94-1,32.18-.65,5.81.21,8.57-1.32,10.93-6.89,5.68-13.37,13.69-25.55,27.26-32,23.6-11.24,46.23-9.38,67.37,7.38a10.36,10.36,0,0,0-.52-2,43.61,43.61,0,0,0-2.23-3.87c-5.87-8.88-14.37-14.31-24.23-17.5-20.6-6.66-41.26-5.84-61.84.41-15.05,4.56-27.64,12.65-35.41,26.59C461.88,262.34,458,272.07,453.43,281.76Zm101.23,68-31.43-13.54C517.7,346.75,512,356,507.86,365.91c-5.46,13-7.28,26.9-1.43,40.26,2.56,5.83,6.67,13.31,11.83,15.17,10.83,3.9,22.81,4.57,35.24,6.73-3.86-5.06-7.19-8.55-9.51-12.61-7.91-13.91-6.1-28.18-.35-42.22C546.77,365.6,550.64,358.26,554.66,349.76Zm-132.15,77.8c2.43-.55,4.4-.81,6.26-1.44,18.08-6.14,31.61-17.84,37.77-35.8,5.2-15.15,7.9-31.16,11.58-46.82,1-4.27,1.53-8.65,2.37-13.49a120,120,0,0,0-34.94,6.17c-1.17.39-2.2,2.67-2.42,4.19-2,14.16-3.63,28.39-5.87,42.52-1.66,10.52-3.71,21.25-10.7,29.69C422.85,417.07,422.07,421.51,422.51,427.56Zm.3-82.69a103.07,103.07,0,0,0-27.44,21.93c-.9,1-1,3.08-.85,4.58q3.27,28.22,6.76,56.42c.63,5.19,3.26,7.38,8.28,7.11,4.84-.27,6.3-3.26,6.63-7.66.7-9.61,1.77-19.19,2.54-28.8C420.12,380.91,421.41,363.35,422.81,344.87ZM562.56,241.4c10.05,19.23-2,33.51-10,48.28l28,17.95c9.11-14.64,14.46-32.29,13.57-46.17a12,12,0,0,0-3-6.94C583.56,246.43,573.91,242.49,562.56,241.4Zm-476.39,228,26.09,22.72c-8.75,8.05-17,15.6-25.46,23.44h68.59C144.24,511,133,507,121.72,503.15c-2.7-.91-4-2.11-3.89-5.23.21-8.14.13-16.31-.18-24.45-.05-1.4-1.76-3.88-2.77-3.92C105.81,469.24,96.72,469.37,86.17,469.37ZM686.06,515c.07.17.13.35.2.52h68l1.23-1.6L730.67,491l24.51-21.41H724c0,9.22-.17,18.17.07,27.1.11,3.75-1.08,5.49-4.77,6.68C708.16,507,697.14,511.06,686.06,515ZM365.5,202.33c3.08,8.23,3.39,8.42,11.25,8.41q28.46,0,56.91,0c8.19,0,8.27-.06,11-8.41Zm341.07,302-.19-.59H683.51v8.09Zm-548.78,7.38v-8.2H135.16l-.19.76Z" transform="translate(-86.17 -80.31)"/><path class="cls-2" d="M720.69,450.39v49.29h-600V450.39Zm-66.44,36.35c3.82,1.23,5-.19,4.83-3.48a45.39,45.39,0,0,1,.16-9c.19-1.19,2-2.14,3-3.19,1,1.05,2.69,2,2.87,3.18a41.89,41.89,0,0,1,.22,9c-.22,3.83,1.33,4.66,5,3.31,0-3.72-.33-7.41.16-11,.21-1.6,2.09-3,3.22-4.44,1.12,1.53,3,3,3.2,4.62.5,3.55.16,7.23.16,10.84,3.52,1.15,5.14.52,4.91-3.14-.19-3,.17-6,0-9-.39-6.26-4.28-8.86-10.21-7-.94.29-1.89.93-2.79.86-4.83-.36-9.65-.89-14.71-1.38ZM622.59,467a43.43,43.43,0,0,0-5,0c-5,.56-8.46,5.06-8.41,10.64,0,5.74,3.2,9.7,8.36,9.86a87.33,87.33,0,0,0,10.07-.77V459.2C621.05,458.71,623.8,463.71,622.59,467ZM248.67,477.6,243,465.85c-2.13,4.7-3.68,8.12-5.26,11.63-6.31-10.2-6.31-10.2-9.2-9.68,2.54,6.73,5,13.37,7.53,20l1.56-.1c1.73-3.59,3.46-7.18,5.5-11.44l5.76,11.6,1.37-.1c2.49-6.67,5-13.34,7.69-20.66C249.63,467.1,252.55,475.05,248.67,477.6Zm319.38,10.34c.45-.57.91-1.14,1.36-1.72-3.23-8.16-6.43-16.33-9.73-24.46a3.11,3.11,0,0,0-1.93-1.81c-.6-.05-1.62.94-1.92,1.69-3.37,8.26-6.63,16.57-10,25.08,3.3.76,5.56,1.09,6.79-2.6.38-1.14,3.13-2.13,4.72-2,2,.11,4,1.24,5.77,2.25A48.7,48.7,0,0,1,568.05,487.94Zm81.83-9.11c.88-6.25-.87-9.81-5.26-11.43a10.62,10.62,0,0,0-12.22,4.28c-2.41,4-1.73,10.52,1.41,13.46,3.49,3.27,9.35,3.35,15.62-.8-2.79-.58-4.31-1.22-5.79-1.15-3.2.16-6.32.55-7.32-4.36ZM359.27,479h9.16c4.93,0,6.76-2.61,4-6.75a13.23,13.23,0,0,0-7.32-5c-4.69-1.14-8.36,1.3-10.38,5.75-1.89,4.17-.82,9.81,2.21,12.44,3.5,3,9.06,3.11,15.25-.78-2.62-.7-4.08-1.49-5.47-1.39C363.48,483.43,360.39,483.88,359.27,479ZM151.89,465.08l1.58-.65c-.4-1.37-.35-3.39-1.25-4-3.82-2.52-10.78-.66-12.79,3.1s-.24,8.19,4.69,10.91c.73.4,1.7.62,2.14,1.23,1.33,1.83,2.45,3.81,3.66,5.73-2.13.44-4.57,1.76-6.32,1.15-3.83-1.36-4.18.49-4.59,3.18a13.44,13.44,0,0,0,2,1.15c5.94,2.08,11.79.2,13.76-4.39,1.73-4-.54-8-6.43-11.26-.29-.16-.71-.2-.88-.44-1.16-1.58-2.27-3.2-3.4-4.8,2-.54,4-1.15,6-1.56C150.63,464.33,151.29,464.85,151.89,465.08Zm118.8,7.21c-.1.35-.2.69-.29,1-2.64.71-5.76.79-7.77,2.33a9.19,9.19,0,0,0-3.17,6.57c0,1.67,2.35,4.52,4,4.76,4.42.66,9,.23,13.23.23-.28-4.44-.36-8.25-.8-12-.93-7.88-7.24-10.75-15.86-5.75,2.69.78,4.17,1.24,5.67,1.63C267.33,471.53,269,471.9,270.69,472.29Zm161,14.59c-.22-3.57-.48-6.84-.62-10.11-.39-9-6.23-12.42-16.18-7.58,2.64.93,4,1.51,5.48,1.91,1.78.5,3.6.84,5.39,1.25-3,1.72-6.2,1.77-8.12,3.37s-3.34,4.8-3,7c.26,1.79,3.3,4.15,5.39,4.48C423.76,487.81,427.73,487.07,431.67,486.88ZM684.4,467.73c2.22,5.63,4.53,11.25,6.64,16.95,1,2.59,1.5,5.17-2.48,6.13-1,.26-1.72,2.08-2.57,3.18.59.63,1.18,1.27,1.76,1.91,2.54-1.71,6.26-2.84,7.39-5.22,3.55-7.39,6.12-15.25,9.4-23.79-8.92.6-6.36,8.9-10.41,12.61-1-2.67-2.07-5.24-3.08-7.82C689.93,468.84,688.94,465.8,684.4,467.73Zm-84.34,4.09-.18,1.56c-2.38.57-5.29.5-7,1.89A10.49,10.49,0,0,0,589,482c-.08,1.69,2.47,4.74,4.23,5.05,4.23.75,8.68.24,12.75.24-.23-4.21-.47-7.81-.61-11.42-.29-7.24-5.46-11-12.15-8.65-.84.29-1.35,1.51-2,2.3a8.46,8.46,0,0,0,2.54,1.59C595.84,471.54,598,471.61,600.06,471.82ZM169.12,472l-.49,1.14c-2.76.95-5.83,1.43-8.22,3-4,2.59-3.69,9.6.61,10.55,4.55,1,9.51.23,14.06.23-.28-3.94-.61-7.39-.74-10.83-.28-7.22-3.76-10.21-10.94-9-1.17.19-2.15,1.47-3.21,2.24a15.8,15.8,0,0,0,3.28,1.76A50.45,50.45,0,0,0,169.12,472Zm35.14,0-.24,1.3c-2.47.65-5.4.7-7.28,2.13a10.09,10.09,0,0,0-3.44,6.39c-.17,1.56,1.79,4.66,3.07,4.82,4.69.59,9.5.23,14,.23-.3-3.94-.68-7.37-.8-10.81-.27-7.44-4.5-10.77-11.79-8.95-.94.24-1.63,1.54-2.43,2.34a13.42,13.42,0,0,0,3,1.6C200.24,471.6,202.27,471.77,204.26,472.07ZM470.56,467c-6-.05-9.94,4.1-9.94,10.56,0,5.88,3.81,10,9.36,10.14,6,.14,10.23-4.22,10.16-10.42C480.07,470.8,476.52,467,470.56,467Zm45.63,5.26c-.09.4-.17.8-.26,1.2-2.5.6-5.44.58-7.39,2s-3.73,4.11-3.76,6.27c0,1.82,2.35,5,4.06,5.27,4.35.76,8.91.25,13.06.25-.23-4.13-.45-7.56-.6-11-.32-7.36-4.23-10.57-11.4-9.05-1.06.23-1.85,1.68-2.76,2.56a16.24,16.24,0,0,0,3,1.45C512.15,471.62,514.18,471.86,516.19,472.21ZM407,486.7c3.52,1,5.21.37,5.07-3-.13-3.15.19-6.34-.17-9.45-.49-4.15-2.44-7.36-7.25-7.26-3.37.07-6.73.48-10.05.73v19.43l4.66-.25c0-3.88.11-7.5,0-11.12-.11-2.74.63-4.55,3.69-4.7s3.95,2,4.05,4.5C407.06,479.21,407,482.85,407,486.7Zm89.19,1.53c2.36-1.33,4.79-2,4.82-2.81.14-4.6.39-9.41-.81-13.75-.57-2-4.1-3.85-6.63-4.6s-5.53-.25-8.26.14c-.75.11-1.78,1.78-1.82,2.77-.21,4.47,0,9-.16,13.45-.11,4,1.74,4.36,5.06,3.13,0-3.85.06-7.49,0-11.13-.06-2.9,1.36-4.82,4.08-4.15a6.07,6.07,0,0,1,3.57,4.17C496.51,479,496.14,482.7,496.14,488.23ZM317.69,467.65c0,5.32.08,10.76,0,16.2-.07,3.49,1.62,3.87,4.77,2.77,0-3.71-.38-7.57.17-11.28.24-1.56,2.44-2.83,3.74-4.23,1.3,1.35,3.49,2.57,3.71,4.07.54,3.72.18,7.56.18,11.66h5c0-4.49.27-8.81-.07-13.07-.36-4.42-3.09-6.9-7.64-6.82C324.44,467,321.33,467.38,317.69,467.65Zm123.18-5.55c-3.71.83-7.31,5.56-6.63,8.14.8,3,1.36,6.06,2,9.1.36,1.77,0,4.43,1.09,5.15a19.46,19.46,0,0,0,7.75,2.76c.76.13,1.88-1.92,3.49-3.69-7.83-.4-8.27-1.41-6.78-12.2.74-.07,1.54-.12,2.33-.22s1.58-.23,2.37-.34c.22-.48.45-.95.68-1.43l-5.65-3.47C441.35,465,441.11,463.53,440.87,462.1ZM286,461.92c-4.07,1.25-7.56,6-6.81,8.45.81,2.63,1.39,5.33,2,8,.43,2.09,0,5.1,1.2,6.12,2,1.66,5,2.29,7.74,2.77.68.12,1.76-2,2.36-2.73-2.64-1.45-5.52-2.12-5.81-3.39-.71-3.09-.23-6.47-.23-9.64l4.81-.81.72-1.32-5.54-3.84C286.37,465.15,286.22,463.71,286,461.92Zm300.22,8.36c-.15-.54-.3-1.08-.46-1.63-5.36-2.89-11.1-2.07-14.32,2a11.11,11.11,0,0,0,.32,13.79c3.44,4,8.88,4.34,15.92,0-2.64-.7-4.07-1-5.47-1.45-2.36-.7-5.56-.8-6.8-2.4s-1-5.25.12-6.78,4.37-1.77,6.7-2.51C583.56,470.94,584.91,470.64,586.24,470.28Zm-360.59-2a8.55,8.55,0,0,0-2.19-1c-3.87-.62-8.13-1.09-9.9,3.3s1.77,6.52,5.18,8.23c.44.22,1.07.28,1.33.62.7,1,1.25,2,1.87,3.07a28.29,28.29,0,0,1-3.53,1c-.59.1-1.34-.58-1.89-.44a14.41,14.41,0,0,0-2.71,1.32c.49.86.76,2.13,1.5,2.52,3.91,2,9.82.42,11.45-2.93s-.08-6.23-5-8.77a36.5,36.5,0,0,1-4.39-3.28C225,470.22,225,470.22,225.65,468.29ZM352.3,484.62l-1.18-1.32c-5.86-.07-7-2.88-5-11.13l5-2.79-5.48-3.76c-.1-.63-.32-2-.54-3.46-4.28,1-7.71,6.13-6.23,8.7a14.78,14.78,0,0,1,1.81,5c.39,2.6,0,5.37.59,7.88,1,3.89,4.34,4.28,7.58,3.64C350.15,487.14,351.17,485.58,352.3,484.62Zm180.13-25-2.37-1.15c-1,1.37-2.93,2.7-3,4.11-.32,6.81-.29,13.63-.12,20.45.11,4.58,2.13,5.44,5.49,3.52Zm-220.14.84c-3.37-1.08-5.07-.62-5,3.1.16,6.61.09,13.23,0,19.84-.06,3.82,1.64,4.5,5,3.19ZM184.2,486.85c0-3.73,0-7.18,0-10.62,0-3,1.15-4.93,4.59-5.27,1.37-.13,2.62-1.54,3.92-2.38-.24-.38-.49-.76-.73-1.15H179.4v19.42Zm197.6.11c0-3.87-.09-7.18,0-10.47s1.21-5.32,5-5.5c1.29-.07,2.51-1.7,3.76-2.62l-.77-1H377.17V487ZM457,467.4a26.44,26.44,0,0,0-4.84-.25,4.44,4.44,0,0,0-2.7,1.45c-.27.35.65,1.58,1,2.43.54,1.38,1.43,2.76,1.5,4.17.21,3.91.07,7.83.07,11.74l1.5.85c1.16-1.05,3.26-2,3.33-3.17C457.18,479.05,457,473.44,457,467.4Z" transform="translate(-86.17 -80.31)"/><path class="cls-2" d="M366.08,329.52c7.59-6.11,13.8-11.88,20.74-16.56,21.66-14.64,46-22.25,71.71-25.46,29.77-3.72,59.16-2,87.61,8.42,23.43,8.59,43.4,21.92,56.42,43.8,10.87,18.25,15.84,38,12,59.3-3.47,19-14.77,31.2-33.11,36.85-19.21,5.93-37.32,3-54.35-7.6,4.78.79,9.58,2.26,14.35,2.21,7.08-.06,14.44-.17,21.16-2.09,16.24-4.65,24-20.07,21.46-39-3.69-27.68-19.39-45.42-45-54.53-38.42-13.65-76.6-14-113.88,4.24a115.9,115.9,0,0,0-40.75,33c-.7.88-1.46,1.72-2.76,3.25,1.4-12.71,2.44-24.58,4.15-36.35.58-3.95-.75-5-4-5.65C377,332.38,372.43,331.1,366.08,329.52Z" transform="translate(-86.17 -80.31)"/><path class="cls-2" d="M334.31,252.52c-7.73-3.67-14.46-7.84-21.78-10.08-9.76-3-19.91-5.77-30-6.3-17.8-.93-27.45,11.24-24.07,28.8C261.72,282,270.7,294.72,287,302.12c14.11,6.41,27.86,13.62,38.71,25.13,14.7,15.58,15.25,44.21,1.21,59.64-7.48-22.15-23.3-36.5-43.52-46.9-11.22-5.77-22.75-11.21-33.11-18.31-16.65-11.41-25.63-27.91-27.76-48.12-2.21-21,10-39.8,30.84-46.36,25.11-7.9,59.7-2.46,79.1,22.71C332.93,250.54,333.37,251.2,334.31,252.52Z" transform="translate(-86.17 -80.31)"/><path class="cls-2" d="M339.77,355.13c3.73,25-.88,47.44-20.41,65A58,58,0,0,1,284.61,435c-30.32,2.52-54.8-9.7-75.43-30.8-14.82-15.17-25.6-33.06-34.12-53.77l25.48,9c2.53-12.41,5-24.49,7.62-37.42,3.62,7.33,6.58,13.94,10.06,20.25,11.45,20.72,25.39,39.48,43.94,54.46,8.92,7.2,18.71,12.9,30.31,14.32,17.07,2.07,32.78-7.29,40.15-23.53A80.57,80.57,0,0,0,339.77,355.13Z" transform="translate(-86.17 -80.31)"/><path class="cls-3" d="M389.63,80.31c15.36,10.09,27.9,21.8,27.13,41.92a8.76,8.76,0,0,0,.9,3.84c1.59,3.44,3.72,6.91,8,6.15,4.06-.72,5.55-4.67,5.15-8.14-.64-5.5-2.27-10.89-3.67-16.28a30.45,30.45,0,0,0-2.43-5.09c12.62,5.19,22.35,22,21.5,36.33-.57,9.71-4.24,18.41-8.58,26.92-2,3.85-4.4,7.59-5.57,11.68-.61,2.15,1,5,1.66,7.46,2.45-1,6.34-1.34,7.06-3a50.61,50.61,0,0,0,4-15.62c.63-8.79,1.64-17.18,8.48-24.94,1.18,15.38,6.64,29.55,2,44.43-2.67,8.47-5.35,10.83-14.24,10.84-11.47,0-22.93,0-35.74,0,8.4-10.35,14.82-20.37,10-33.34a28.64,28.64,0,0,0-14.1-15c.9,3.44,2.28,6.69,2.41,10,.07,1.95-1.85,4-2.88,6-1.25-1.9-3.48-3.74-3.59-5.7-.62-10.62-6.78-17.12-16.22-23.26,3.51,8.55,7.75,15.88,2.8,23.88-3.9-4.19-7.48-8-11.06-11.85l-1.4,1.06c.54,1.85,1.56,3.7,1.52,5.53-.06,2.84.1,6.45-1.48,8.35-9.75,11.67-8.83,22.66,3.5,33.4-6.59,2.67-11.39,1.35-15-4.24a49.62,49.62,0,0,1-8.21-24.81c-.71-12.89,5-22.64,14.18-31.06,11.51-10.54,12.11-14.36,5.71-28.6-.47-1-.82-2.12-1.27-3.27,7,.39,12.47,6.15,20.87,21.78,4.77-2.73,5.91-7.49,6.58-12.13,1.36-9.36-1-18.18-4.94-26.64C391.66,84.64,390.64,82.48,389.63,80.31Z" transform="translate(-86.17 -80.31)"/><path class="cls-2" d="M396,425.69c-19.9-5.12-31.86-18.08-37.7-36.75-7.68-24.56-14.67-49.34-22.06-74-5.91-19.73-11.64-39.54-21.72-57.7-2.25-4-4.88-7.88-7.07-12.71,4.66,2.38,9.62,4.31,13.91,7.24a153.26,153.26,0,0,1,19.27,15,32.76,32.76,0,0,1,8.22,12.72c7.44,21.83,14,43.95,21.44,65.79,6.49,19.16,13.25,38.24,20.67,57.05C394.14,410.4,396.4,416,396,425.69Z" transform="translate(-86.17 -80.31)"/><path class="cls-2" d="M387,305.49c-.88-9.21-2.64-19.32-2.48-29.4.08-5,.49-9.46-1.91-14a7.44,7.44,0,0,1-.3-5.34c4.68-13.41.54-25.19-6.36-36.53-.43-.7-.78-1.45-1.44-2.69h62.15c-1.78,3.83-3.72,7.63-5.34,11.56-3.6,8.7-4.72,17.43-1.71,26.76.95,3-.32,7.11-1.7,10.22-1,2.33-.65,3.95-.54,6.22.29,5.75-.69,11.58-1.28,17.37-.05.41-1,.84-1.58,1.07C412.08,295.64,399.62,300.54,387,305.49Z" transform="translate(-86.17 -80.31)"/><path class="cls-2" d="M453.43,281.76c4.54-9.69,8.45-19.42,13.51-28.51,7.77-13.94,20.36-22,35.41-26.59,20.58-6.25,41.24-7.07,61.84-.41,9.86,3.19,18.36,8.62,24.23,17.5a43.61,43.61,0,0,1,2.23,3.87,10.36,10.36,0,0,1,.52,2C570,232.82,547.4,231,523.8,242.2c-13.57,6.47-21.58,18.65-27.26,32-2.36,5.57-5.12,7.1-10.93,6.89C475.37,280.73,465.09,281.46,453.43,281.76Z" transform="translate(-86.17 -80.31)"/><path class="cls-2" d="M554.66,349.76c-4,8.5-7.89,15.84-11,23.48-5.75,14-7.56,28.31.35,42.22,2.32,4.06,5.65,7.55,9.51,12.61-12.43-2.16-24.41-2.83-35.24-6.73-5.16-1.86-9.27-9.34-11.83-15.17-5.85-13.36-4-27.23,1.43-40.26,4.14-9.9,9.84-19.16,15.37-29.69Z" transform="translate(-86.17 -80.31)"/><path class="cls-2" d="M422.51,427.56c-.44-6.05.34-10.49,4.05-15,7-8.44,9-19.17,10.7-29.69,2.24-14.13,3.83-28.36,5.87-42.52.22-1.52,1.25-3.8,2.42-4.19A120,120,0,0,1,480.49,330c-.84,4.84-1.37,9.22-2.37,13.49-3.68,15.66-6.38,31.67-11.58,46.82-6.16,18-19.69,29.66-37.77,35.8C426.91,426.75,424.94,427,422.51,427.56Z" transform="translate(-86.17 -80.31)"/><path class="cls-2" d="M422.81,344.87c-1.4,18.48-2.69,36-4.08,53.58-.77,9.61-1.84,19.19-2.54,28.8-.33,4.4-1.79,7.39-6.63,7.66-5,.27-7.65-1.92-8.28-7.11q-3.45-28.2-6.76-56.42c-.17-1.5,0-3.6.85-4.58A103.07,103.07,0,0,1,422.81,344.87Z" transform="translate(-86.17 -80.31)"/><path class="cls-2" d="M562.56,241.4c11.35,1.09,21,5,28.58,13.12a12,12,0,0,1,3,6.94c.89,13.88-4.46,31.53-13.57,46.17l-28-17.95C560.59,274.91,572.61,260.63,562.56,241.4Z" transform="translate(-86.17 -80.31)"/><path class="cls-2" d="M86.17,469.37c10.55,0,19.64-.13,28.71.18,1,0,2.72,2.52,2.77,3.92.31,8.14.39,16.31.18,24.45-.08,3.12,1.19,4.32,3.89,5.23C133,507,144.24,511,155.39,515.53H86.8c8.5-7.84,16.71-15.39,25.46-23.44Z" transform="translate(-86.17 -80.31)"/><path class="cls-2" d="M686.06,515c11.08-3.89,22.1-8,33.28-11.56,3.69-1.19,4.88-2.93,4.77-6.68-.24-8.93-.07-17.88-.07-27.1h31.14L730.67,491l24.87,22.85-1.23,1.6h-68C686.19,515.3,686.13,515.12,686.06,515Z" transform="translate(-86.17 -80.31)"/><path class="cls-2" d="M365.5,202.33h79.16c-2.73,8.35-2.81,8.41-11,8.41q-28.46,0-56.91,0C368.89,210.75,368.58,210.56,365.5,202.33Z" transform="translate(-86.17 -80.31)"/><path class="cls-2" d="M706.57,504.34l-23.06,7.5v-8.09h22.87Z" transform="translate(-86.17 -80.31)"/><path class="cls-2" d="M157.79,511.72,135,504.28l.19-.76h22.63Z" transform="translate(-86.17 -80.31)"/><path class="cls-1" d="M654.25,486.74V467c5.06.49,9.88,1,14.71,1.38.9.07,1.85-.57,2.79-.86,5.93-1.87,9.82.73,10.21,7,.19,3-.17,6,0,9,.23,3.66-1.39,4.29-4.91,3.14,0-3.61.34-7.29-.16-10.84-.23-1.66-2.08-3.09-3.2-4.62-1.13,1.47-3,2.84-3.22,4.44-.49,3.58-.16,7.27-.16,11-3.65,1.35-5.2.52-5-3.31a41.89,41.89,0,0,0-.22-9c-.18-1.18-1.87-2.13-2.87-3.18-1.06,1.05-2.83,2-3,3.19a45.39,45.39,0,0,0-.16,9C659.23,486.55,658.07,488,654.25,486.74Z" transform="translate(-86.17 -80.31)"/><path class="cls-1" d="M622.59,467c1.21-3.3-1.54-8.3,5-7.81v27.57a87.33,87.33,0,0,1-10.07.77c-5.16-.16-8.31-4.12-8.36-9.86-.05-5.58,3.45-10.08,8.41-10.64A43.43,43.43,0,0,1,622.59,467ZM624,478.24c-1.53-3.3.55-7.12-4.35-7.07-4.14.05-5.25,3-5.29,6.4s1.83,6.12,5.39,5.44C621.45,482.7,622.64,479.91,624,478.24Z" transform="translate(-86.17 -80.31)"/><path class="cls-1" d="M248.67,477.6c3.88-2.55,1-10.5,9.32-10.49-2.72,7.32-5.2,14-7.69,20.66l-1.37.1-5.76-11.6c-2,4.26-3.77,7.85-5.5,11.44l-1.56.1c-2.5-6.64-5-13.28-7.53-20,2.89-.52,2.89-.52,9.2,9.68,1.58-3.51,3.13-6.93,5.26-11.63Z" transform="translate(-86.17 -80.31)"/><path class="cls-1" d="M568.05,487.94a48.7,48.7,0,0,0-4.94-3.61c-1.8-1-3.8-2.14-5.77-2.25-1.59-.09-4.34.9-4.72,2-1.23,3.69-3.49,3.36-6.79,2.6,3.37-8.51,6.63-16.82,10-25.08.3-.75,1.32-1.74,1.92-1.69a3.11,3.11,0,0,1,1.93,1.81c3.3,8.13,6.5,16.3,9.73,24.46C569,486.8,568.5,487.37,568.05,487.94Zm-10.41-19.29c-1.13,3.56-1.91,6-2.85,9l5.89.26Z" transform="translate(-86.17 -80.31)"/><path class="cls-1" d="M649.88,478.83H636.32c1,4.91,4.12,4.52,7.32,4.36,1.48-.07,3,.57,5.79,1.15-6.27,4.15-12.13,4.07-15.62.8-3.14-2.94-3.82-9.46-1.41-13.46a10.62,10.62,0,0,1,12.22-4.28C649,469,650.76,472.58,649.88,478.83Zm-4.2-4.11c-3.75-5.06-6.59-4.82-8.85,0Z" transform="translate(-86.17 -80.31)"/><path class="cls-1" d="M359.27,479c1.12,4.93,4.21,4.48,7.45,4.23,1.39-.1,2.85.69,5.47,1.39-6.19,3.89-11.75,3.82-15.25.78-3-2.63-4.1-8.27-2.21-12.44,2-4.45,5.69-6.89,10.38-5.75a13.23,13.23,0,0,1,7.32,5c2.76,4.14.93,6.73-4,6.75Zm8.54-4.1c.21-.56.41-1.12.61-1.68-1.71-.68-3.44-1.94-5.11-1.86-1.39.06-2.71,1.68-4.06,2.62l.69.92Z" transform="translate(-86.17 -80.31)"/><path class="cls-1" d="M151.89,465.08c-.6-.23-1.26-.75-1.79-.64-2,.41-4,1-6,1.56,1.13,1.6,2.24,3.22,3.4,4.8.17.24.59.28.88.44,5.89,3.24,8.16,7.22,6.43,11.26-2,4.59-7.82,6.47-13.76,4.39a13.44,13.44,0,0,1-2-1.15c.41-2.69.76-4.54,4.59-3.18,1.75.61,4.19-.71,6.32-1.15-1.21-1.92-2.33-3.9-3.66-5.73-.44-.61-1.41-.83-2.14-1.23-4.93-2.72-6.78-7-4.69-10.91s9-5.62,12.79-3.1c.9.6.85,2.62,1.25,4Z" transform="translate(-86.17 -80.31)"/><path class="cls-1" d="M270.69,472.29c-1.68-.39-3.36-.76-5-1.2-1.5-.39-3-.85-5.67-1.63,8.62-5,14.93-2.13,15.86,5.75.44,3.75.52,7.56.8,12-4.23,0-8.81.43-13.23-.23-1.61-.24-4-3.09-4-4.76a9.19,9.19,0,0,1,3.17-6.57c2-1.54,5.13-1.62,7.77-2.33C270.49,473,270.59,472.64,270.69,472.29Zm-.14,4.52-6.26,3.92c.82,1,1.63,2.86,2.47,2.87C270,483.66,271.36,481.7,270.55,476.81Z" transform="translate(-86.17 -80.31)"/><path class="cls-1" d="M431.67,486.88c-3.94.19-7.91.93-11.68.34-2.09-.33-5.13-2.69-5.39-4.48-.32-2.22,1.2-5.5,3-7s5.12-1.65,8.12-3.37c-1.79-.41-3.61-.75-5.39-1.25-1.44-.4-2.84-1-5.48-1.91,9.95-4.84,15.79-1.44,16.18,7.58C431.19,480,431.45,483.31,431.67,486.88Zm-5.88-10.33-6.52,4.32c.72.94,1.38,2.61,2.18,2.69C424.75,483.86,426.31,482.06,425.79,476.55Z" transform="translate(-86.17 -80.31)"/><path class="cls-1" d="M684.4,467.73c4.54-1.93,5.53,1.11,6.65,3.95,1,2.58,2,5.15,3.08,7.82,4-3.71,1.49-12,10.41-12.61-3.28,8.54-5.85,16.4-9.4,23.79-1.13,2.38-4.85,3.51-7.39,5.22-.58-.64-1.17-1.28-1.76-1.91.85-1.1,1.52-2.92,2.57-3.18,4-1,3.43-3.54,2.48-6.13C688.93,479,686.62,473.36,684.4,467.73Z" transform="translate(-86.17 -80.31)"/><path class="cls-1" d="M600.06,471.82c-2.1-.21-4.22-.28-6.28-.68a8.46,8.46,0,0,1-2.54-1.59c.67-.79,1.18-2,2-2.3,6.69-2.35,11.86,1.41,12.15,8.65.14,3.61.38,7.21.61,11.42-4.07,0-8.52.51-12.75-.24-1.76-.31-4.31-3.36-4.23-5.05a10.49,10.49,0,0,1,3.83-6.76c1.72-1.39,4.63-1.32,7-1.89Zm-.38,5.07-5.93,3.95c1.06,1,2.14,2.76,3.16,2.72C600.05,483.44,600.75,481.25,599.68,476.89Z" transform="translate(-86.17 -80.31)"/><path class="cls-1" d="M169.12,472a50.45,50.45,0,0,1-5.65-.95,15.8,15.8,0,0,1-3.28-1.76c1.06-.77,2-2.05,3.21-2.24,7.18-1.21,10.66,1.78,10.94,9,.13,3.44.46,6.89.74,10.83-4.55,0-9.51.78-14.06-.23-4.3-.95-4.64-8-.61-10.55,2.39-1.53,5.46-2,8.22-3Zm-.35,4.66L162.58,481c1,.92,1.9,2.59,2.88,2.61C168.54,483.66,169.78,481.75,168.77,476.69Z" transform="translate(-86.17 -80.31)"/><path class="cls-1" d="M204.26,472.07c-2-.3-4-.47-6-.95a13.42,13.42,0,0,1-3-1.6c.8-.8,1.49-2.1,2.43-2.34,7.29-1.82,11.52,1.51,11.79,8.95.12,3.44.5,6.87.8,10.81-4.47,0-9.28.36-14-.23-1.28-.16-3.24-3.26-3.07-4.82a10.09,10.09,0,0,1,3.44-6.39c1.88-1.43,4.81-1.48,7.28-2.13Zm1.22,7.75-2-2.66L198,480.91c.91.94,2.35,2.83,2.63,2.67A36.94,36.94,0,0,0,205.48,479.82Z" transform="translate(-86.17 -80.31)"/><path class="cls-1" d="M470.56,467c6,.05,9.51,3.85,9.58,10.28.07,6.2-4.18,10.56-10.16,10.42-5.55-.14-9.36-4.26-9.36-10.14C460.62,471.05,464.53,466.9,470.56,467ZM476,478.34c-1.63-3.86-1.28-7.48-5.66-7.29-3.79.17-4.28,3-4.28,6s.18,6.77,4.16,6.33C472.28,483.16,474.06,480.11,476,478.34Z" transform="translate(-86.17 -80.31)"/><path class="cls-1" d="M516.19,472.21c-2-.35-4-.59-6-1.08a16.24,16.24,0,0,1-3-1.45c.91-.88,1.7-2.33,2.76-2.56,7.17-1.52,11.08,1.69,11.4,9.05.15,3.44.37,6.87.6,11-4.15,0-8.71.51-13.06-.25-1.71-.3-4.09-3.45-4.06-5.27,0-2.16,1.87-4.93,3.76-6.27s4.89-1.37,7.39-2C516,473,516.1,472.61,516.19,472.21Zm-.94,4.25-5.75,4.94c1.07.77,2.19,2.24,3.21,2.17C515.75,483.36,516.88,481.44,515.25,476.46Z" transform="translate(-86.17 -80.31)"/><path class="cls-1" d="M407,486.7c0-3.85.11-7.49,0-11.12-.1-2.48-.85-4.66-4.05-4.5s-3.8,2-3.69,4.7c.15,3.62,0,7.24,0,11.12l-4.66.25V467.72c3.32-.25,6.68-.66,10.05-.73,4.81-.1,6.76,3.11,7.25,7.26.36,3.11,0,6.3.17,9.45C412.16,487.07,410.47,487.7,407,486.7Z" transform="translate(-86.17 -80.31)"/><path class="cls-1" d="M496.14,488.23c0-5.53.37-9.22-.17-12.78a6.07,6.07,0,0,0-3.57-4.17c-2.72-.67-4.14,1.25-4.08,4.15.08,3.64,0,7.28,0,11.13-3.32,1.23-5.17.84-5.06-3.13.13-4.49,0-9,.16-13.45,0-1,1.07-2.66,1.82-2.77,2.73-.39,5.72-.89,8.26-.14s6.06,2.56,6.63,4.6c1.2,4.34,1,9.15.81,13.75C500.93,486.2,498.5,486.9,496.14,488.23Z" transform="translate(-86.17 -80.31)"/><path class="cls-1" d="M317.69,467.65c3.64-.27,6.75-.65,9.86-.7,4.55-.08,7.28,2.4,7.64,6.82.34,4.26.07,8.58.07,13.07h-5c0-4.1.36-7.94-.18-11.66-.22-1.5-2.41-2.72-3.71-4.07-1.3,1.4-3.5,2.67-3.74,4.23-.55,3.71-.17,7.57-.17,11.28-3.15,1.1-4.84.72-4.77-2.77C317.77,478.41,317.69,473,317.69,467.65Z" transform="translate(-86.17 -80.31)"/><path class="cls-1" d="M440.87,462.1c.24,1.43.48,2.85.63,3.8l5.65,3.47c-.23.48-.46.95-.68,1.43-.79.11-1.58.24-2.37.34s-1.59.15-2.33.22c-1.49,10.79-1,11.8,6.78,12.2-1.61,1.77-2.73,3.82-3.49,3.69a19.46,19.46,0,0,1-7.75-2.76c-1.05-.72-.73-3.38-1.09-5.15-.62-3-1.18-6.1-2-9.1C433.56,467.66,437.16,462.93,440.87,462.1Z" transform="translate(-86.17 -80.31)"/><path class="cls-1" d="M286,461.92c.2,1.79.35,3.23.4,3.64L292,469.4l-.72,1.32-4.81.81c0,3.17-.48,6.55.23,9.64.29,1.27,3.17,1.94,5.81,3.39-.6.74-1.68,2.85-2.36,2.73-2.7-.48-5.73-1.11-7.74-2.77-1.24-1-.77-4-1.2-6.12-.57-2.7-1.15-5.4-2-8C278.46,467.94,282,463.17,286,461.92Z" transform="translate(-86.17 -80.31)"/><path class="cls-1" d="M586.24,470.28c-1.33.36-2.68.66-4,1.08-2.33.74-5.47.91-6.7,2.51s-1.26,5.32-.12,6.78,4.44,1.7,6.8,2.4c1.4.42,2.83.75,5.47,1.45-7,4.32-12.48,3.95-15.92,0a11.11,11.11,0,0,1-.32-13.79c3.22-4.11,9-4.93,14.32-2C585.94,469.2,586.09,469.74,586.24,470.28Z" transform="translate(-86.17 -80.31)"/><path class="cls-1" d="M225.65,468.29c-.68,1.93-.68,1.93-8.24,3.63a36.5,36.5,0,0,0,4.39,3.28c4.88,2.54,6.6,5.44,5,8.77s-7.54,4.95-11.45,2.93c-.74-.39-1-1.66-1.5-2.52a14.41,14.41,0,0,1,2.71-1.32c.55-.14,1.3.54,1.89.44a28.29,28.29,0,0,0,3.53-1c-.62-1-1.17-2.11-1.87-3.07-.26-.34-.89-.4-1.33-.62-3.41-1.71-7-3.78-5.18-8.23s6-3.92,9.9-3.3A8.55,8.55,0,0,1,225.65,468.29Z" transform="translate(-86.17 -80.31)"/><path class="cls-1" d="M352.3,484.62c-1.13,1-2.15,2.52-3.42,2.77-3.24.64-6.6.25-7.58-3.64-.63-2.51-.2-5.28-.59-7.88a14.78,14.78,0,0,0-1.81-5c-1.48-2.57,2-7.69,6.23-8.7.22,1.43.44,2.83.54,3.46l5.48,3.76-5,2.79c-2,8.25-.84,11.06,5,11.13Z" transform="translate(-86.17 -80.31)"/><path class="cls-1" d="M532.43,459.63v26.93c-3.36,1.92-5.38,1.06-5.49-3.52-.17-6.82-.2-13.64.12-20.45.07-1.41,2-2.74,3-4.11Z" transform="translate(-86.17 -80.31)"/><path class="cls-1" d="M312.29,460.47V486.6c-3.36,1.31-5.06.63-5-3.19.11-6.61.18-13.23,0-19.84C307.22,459.85,308.92,459.39,312.29,460.47Z" transform="translate(-86.17 -80.31)"/><path class="cls-1" d="M184.2,486.85h-4.8V467.43H192c.24.39.49.77.73,1.15-1.3.84-2.55,2.25-3.92,2.38-3.44.34-4.55,2.25-4.59,5.27C184.17,479.67,184.2,483.12,184.2,486.85Z" transform="translate(-86.17 -80.31)"/><path class="cls-1" d="M381.8,487h-4.63V467.35H389.8l.77,1c-1.25.92-2.47,2.55-3.76,2.62-3.78.18-4.88,2.36-5,5.5S381.8,483.09,381.8,487Z" transform="translate(-86.17 -80.31)"/><path class="cls-1" d="M457,467.4c0,6,.18,11.65-.16,17.22-.07,1.13-2.17,2.12-3.33,3.17l-1.5-.85c0-3.91.14-7.83-.07-11.74-.07-1.41-1-2.79-1.5-4.17-.33-.85-1.25-2.08-1-2.43a4.44,4.44,0,0,1,2.7-1.45A26.44,26.44,0,0,1,457,467.4Z" transform="translate(-86.17 -80.31)"/><path class="cls-2" d="M624,478.24c-1.4,1.67-2.59,4.46-4.25,4.77-3.56.68-5.42-1.93-5.39-5.44s1.15-6.35,5.29-6.4C624.59,471.12,622.51,474.94,624,478.24Z" transform="translate(-86.17 -80.31)"/><path class="cls-2" d="M557.64,468.65l3,9.28-5.89-.26C555.73,474.67,556.51,472.21,557.64,468.65Z" transform="translate(-86.17 -80.31)"/><path class="cls-2" d="M645.68,474.72h-8.85C639.09,469.9,641.93,469.66,645.68,474.72Z" transform="translate(-86.17 -80.31)"/><path class="cls-2" d="M367.81,474.85h-7.87l-.69-.92c1.35-.94,2.67-2.56,4.06-2.62,1.67-.08,3.4,1.18,5.11,1.86C368.22,473.73,368,474.29,367.81,474.85Z" transform="translate(-86.17 -80.31)"/><path class="cls-2" d="M270.55,476.81c.81,4.89-.53,6.85-3.79,6.79-.84,0-1.65-1.86-2.47-2.87Z" transform="translate(-86.17 -80.31)"/><path class="cls-2" d="M425.79,476.55c.52,5.51-1,7.31-4.34,7-.8-.08-1.46-1.75-2.18-2.69Z" transform="translate(-86.17 -80.31)"/><path class="cls-2" d="M599.68,476.89c1.07,4.36.37,6.55-2.77,6.67-1,0-2.1-1.76-3.16-2.72Z" transform="translate(-86.17 -80.31)"/><path class="cls-2" d="M168.77,476.69c1,5.06-.23,7-3.31,6.9-1,0-1.92-1.69-2.88-2.61Z" transform="translate(-86.17 -80.31)"/><path class="cls-2" d="M205.48,479.82a36.94,36.94,0,0,1-4.86,3.76c-.28.16-1.72-1.73-2.63-2.67l5.47-3.75Z" transform="translate(-86.17 -80.31)"/><path class="cls-2" d="M476,478.34c-1.91,1.77-3.69,4.82-5.78,5.05-4,.44-4.15-3.29-4.16-6.33s.49-5.84,4.28-6C474.69,470.86,474.34,474.48,476,478.34Z" transform="translate(-86.17 -80.31)"/><path class="cls-2" d="M515.25,476.46c1.63,5,.5,6.9-2.54,7.11-1,.07-2.14-1.4-3.21-2.17Z" transform="translate(-86.17 -80.31)"/></svg>