<svg id="Layer_1" data-name="Layer 1" xmlns="http://www.w3.org/2000/svg" xmlns:xlink="http://www.w3.org/1999/xlink" viewBox="0 0 3826.56 1905.02"><defs><style>.cls-1{fill:url(#linear-gradient);}.cls-2{font-size:350px;fill:#5fbd94;font-family:OpenSans-Bold, Open Sans;font-weight:700;}.cls-3{fill:#559fc9;}</style><linearGradient id="linear-gradient" x1="375.21" y1="3107.83" x2="4073.81" y2="251.69" gradientUnits="userSpaceOnUse"><stop offset="0" stop-color="#5fbd95"/><stop offset="0.22" stop-color="#5eb997"/><stop offset="0.46" stop-color="#5aac9c"/><stop offset="0.71" stop-color="#5596a5"/><stop offset="0.96" stop-color="#4c78b1"/><stop offset="1" stop-color="#4b72b3"/></linearGradient></defs><path class="cls-1" d="M2572.57,1020c-24,7.28-130.86,14.76-142.55,14.76-109.29,0-230.19-15.62-307.32-30.33-104.43-19.92-210,8.32-289.82,77.48-74.66,64.73-107.75,155.9-105.49,245.22,5.7,224.68,90.71,451.92,158.08,709.82,19.7,75.44,49.81,144,104.42,180.77,43.92,29.54,100.46,37.88,170,13.5,86.81-30.45,197.83-103.87,271.19-157,85.87,116.36,166.17,172.37,244.54,170.52,125.77-2.7,170.83-119.86,193.82-207.75,50.93-195,139-515.48,158.07-709.82C3048.1,1117.24,2819.43,945.12,2572.57,1020ZM2284.33,2044.69c-21.84,15.65-86.34,64-140.77,92.29-72.92,37.85-123.37,22.58-145.77-7.05-15.14-20-30.81-53.15-44.44-108-35.21-141.69-100-352.82-128.43-522.49-16.39-98-13.86-132.36-14.13-147.45-1.14-61.37,20.29-124.88,70.51-170.66,54.06-49.29,125.48-69.45,195.94-55.31,63.68,12.78,158.53,26.08,250.88,29.75-70.62,49.62-109.36,81.63-188.85,61.13a40.25,40.25,0,0,0-19.89,78c193,49.68,216.39-111.37,466.08-167.8,114.23-11.8,212.36,49.31,243.5,135.46C2914.59,1499.55,2504.68,1886.66,2284.33,2044.69Zm453.5-28c-51.24,205.17-151.09,177.93-272.07,5.54,134.45-110.27,276.24-251.74,374.79-396.77C2807.56,1764.86,2765.05,1907.68,2737.83,2016.66Zm-1039.26-535,.3-.15-4.27,2.54c-7.31,2.81-12.38,8.39-17.47,14-8.12,6.06-16.1,12.25-21.22,21.3-6.42,5.36-10.76,12.24-14.34,19.68a97.2,97.2,0,0,0-16.18,32.15c-3.53,6.72-6.21,13.72-6.76,21.38-14.35,53.09-5.87,102.57,23.51,148.74l-.11-.27,4.66,7.07c7.43,12.18,17.89,21.64,28.13,31.29,9.25,9.13,19.34,17.1,31.18,22.66,13.86,8.86,28.67,15.46,44.85,18.76,28.09,9.29,56.7,9.28,85.35,3.77,21.77-4.19,43-10.25,60.9-24.42l-.26.09a4.27,4.27,0,0,0,4.94-2.54l-.29.15a3.31,3.31,0,0,0,2.2-.54,23.28,23.28,0,0,0,12-9.06c5.79-5.11,13.43-8.32,16.62-16.11l2.5-2.72-.06.24c8.78-4.39,13.46-12.53,18.55-20.3,7.88-9.69,14.42-20.16,18.51-32,5-12.23,11.52-23.94,12.23-37.56q.14-4.65.28-9.29c3.66-2.17,3.14-6.1,3.49-9.36,4.28-40.28-2.9-78.36-22.55-113.92-1-1.86-1.61-4.51-4.64-4.39l.13.24c1.19-2.73-.51-3.91-2.62-4.87-5.44-14.94-17.54-24.51-28.32-35.15-14.95-15.18-32-27.28-51.91-35.12A91.71,91.71,0,0,0,1850,1458l-2.22-.57-4.25-1.27,0-.51-.23.46-3-.36-2.54-.42-2.94-.75a.73.73,0,0,0-1.09-.29l-5.23-.89-14.14-1.82-4.73-.21c-12.65-.78-25.26-.77-37.73,2l-6.16,1.15c-22.56,3.83-43.93,10.71-62.48,24.69l.28-.05A4.28,4.28,0,0,0,1698.57,1481.64Zm-366.73-21,.17-.16-8.85,6.2-7.57,4.9C1179.18,1568,1051,1676.78,897.94,1748.38c32.22-3.13,63.08-10.5,93.27-20.66,122.54-41.25,228.5-112.79,334.92-183.48,4.27-2.46,8.64-4.78,12.8-7.41,37.63-23.74,74.92-48,112.94-71.15,30-18.27,61-35.1,91.51-52.56,5.86-2.31,11.91-4.24,17.57-7,76.08-36.86,155.38-62.29,240.24-68.12,4.47.12,8.94.4,13.4.33,72.85-1.13,143.61,10,212.17,35.07,81.62,29.87,154.18,75.79,224.61,125.6,4.61,3.26,9.27,6.44,13.91,9.66A648.47,648.47,0,0,0,2119.8,1368.5,662.1,662.1,0,0,0,2002,1302.35c-59.73-25.73-120.78-41.91-186-40.85l-14.53.16-6.38.1a59.54,59.54,0,0,0-7.43-.16c-40.94,4-81.28,9.46-121.11,21.69-38.75,11.9-77.08,23.9-113.14,42.53l-14.94,6.92-3.35,1.86c-68.94,33-132.93,74-194.21,119.47A17.92,17.92,0,0,0,1331.84,1460.61Zm1039.93,261.83c-7.95,1.62-13.6,7.07-19.68,11.79l-137.88,88.69c-49.43,29-98.84,58-150.63,82.63-39.44,16.09-79.28,31-120.5,42-33.35,6.2-66.86,11.16-100.79,12.75a25.23,25.23,0,0,0-14.48,0l-30.42-1c-24.26-3.35-48.58-6.3-72.75-10.16-20.78-3.31-40.54-11.65-61.73-13.21l0,.26-3.26-3c-3.3-1.72-6.44-3.87-9.91-5.1-65.59-23.27-125-58-182.17-97.16-15.17-10.39-30.4-20.68-45.86-31.2-1.63,4.11.67,5.47,2.06,7.09,42.64,49.88,89.7,95,144.25,131.78,29.76,20.08,60,39.42,94.24,51.4l.06-.12a6.58,6.58,0,0,0,6.12,3.5c53.5,23.76,108.94,39,168,38A411.06,411.06,0,0,0,1954,2019.22c39-8.54,77.09-19.85,113-37.79,8.84-3.84,17.79-7.47,26.52-11.54,44.48-20.72,87.35-44.26,127.45-72.67,32.38-19.2,62.51-41.65,93-63.72,23.32-16.91,47.43-32.73,69.57-51.24,24.79-17,49-34.76,72.47-53.56,15.81-9.74,29.57-22.4,44.92-32.61,39.68-26.39,79.17-53.14,120.52-77,27-15.54,54.59-29.86,82.36-44-79.44,10.21-151.51,40.53-220.53,79.31-34.55,17.8-67.61,38.12-99.91,59.7l-2.75,1.57-6.45,6A2.43,2.43,0,0,0,2371.77,1722.44Z" transform="translate(-249.88 -998.16)"/><text class="cls-2" transform="translate(0 1802.49)">Roshani <tspan class="cls-3" x="1210.92" y="0">Eye &amp; Dental Clinic</tspan></text></svg>