<svg id="Layer_1" data-name="Layer 1" xmlns="http://www.w3.org/2000/svg" viewBox="0 0 2160 1296"><defs><style>.cls-1{fill:none;stroke:#000;stroke-miterlimit:22.93;stroke-width:0.22px;}.cls-2{fill:#177628;}.cls-2,.cls-3{fill-rule:evenodd;}.cls-3{fill:#114465;}</style></defs><rect class="cls-1" y="2.23" width="2160" height="1296"/><path class="cls-2" d="M698.77,86.09h612a63.27,63.27,0,0,0-12.35,18.6H717.36V444.45H698.77V86.09ZM1102.87,830v18.59h358.36v-549h-18.59V830Z"/><polygon class="cls-3" points="698.77 848.55 698.77 467.32 782.64 467.32 889.38 695.3 996.13 467.32 1080 467.32 1080 848.55 889.38 848.55 698.77 848.55"/><path class="cls-3" d="M1313.35,276.71V232q0-20.27,7.59-32.55t23-16.66l54.82-16.58c5.83-1.77,9.71-3.79,11.66-6s2.89-5.62,2.89-10.06v-7.6c0-7-1.6-11.74-4.79-14.42s-8.85-4-16.93-4h-8.33c-8,0-13.59,1.38-16.74,4.1s-4.75,7.51-4.75,14.29v10.62h-46.62V136.33q0-24.27,15.15-37.29t43.6-13h27.41c18.6,0,33.28,4.36,43.94,13.08s16,20.72,16,35.87v15.58q0,20.79-8.59,33.41t-25.9,17.31l-53.35,14.33c-4.19,1.17-7.08,2.59-8.59,4.23s-2.25,4.19-2.25,7.64V235h97.38v41.7Z"/><path class="cls-3" d="M575.59,926.84H640.4v165.74H597.17V970.8L564,1092.58H519.59L486.14,969.47v123.11H442.92V926.84h64.8l33.9,119.88,34-119.88Zm170.9,114.44H789V1043q0,9,4.77,12.53c3.19,2.4,8.8,3.57,16.88,3.57H821.8c6.75,0,11.45-.91,14.14-2.73s4.06-5,4.06-9.61v-7.22c0-3.92-1.06-6.77-3.23-8.44s-7-3-14.52-3.91l-36-3.91c-13.39-1.49-23.21-5.67-29.39-12.62s-9.25-17.25-9.25-30.89V969.47a54.49,54.49,0,0,1,3.68-20.67A36.45,36.45,0,0,1,762,934a34.94,34.94,0,0,1,14.52-7.11c5.69-1.37,14.22-2.05,25.52-2.05h26.58q24.81,0,37.88,10t13.12,29v11.36H837v-1.78c0-5-1.18-8.44-3.49-10.38s-6.56-2.88-12.63-2.88H810.69c-7.06,0-11.87.83-14.53,2.5s-3.94,4.56-3.94,8.63v6.91c0,6.08,5.95,9.81,17.9,11.14h0L842.88,993c14.18,1.64,24.72,5.74,31.7,12.39s10.46,16,10.46,28v15.92q0,20.58-12.77,32.94t-34.36,12.39H801.78q-28.95,0-42.13-10t-13.16-31.88v-11.44Zm205-45.1v27.28q0,21.27,4.78,26.71t20,5.47h14.33l-13.23-11.36L994.89,1024l14.56,12.47V996.18q0-21.13-4.89-26.78t-20.09-5.63h-8.23q-15.13,0-20,5.59c-3.22,3.68-4.85,12.65-4.85,26.82Zm-45.28-3.68q0-37.74,14.11-52.74t49.18-15h21.76q35.22,0,49.37,15.05t14.15,52.66v34.42q0,16.47-2.13,25.53c-1.4,6.08-3.71,10.87-7,14.44l12.78,10.91-16.88,20.74-14.33-11.82a41.17,41.17,0,0,1-15,6,115.53,115.53,0,0,1-23,1.9H969.45q-35.1,0-49.18-15t-14.11-52.74V992.5Zm176.13-65.66h44.14v96.62c0,13.45,1.67,22.15,5,26.18s10.28,6,20.71,6h8.11q15.53,0,20.51-5.88c3.34-4,5-12.69,5-26.3V926.84H1230v100.08q0,22.29-2.73,32.75a45,45,0,0,1-9.25,18.13,43.08,43.08,0,0,1-19.42,12.91q-11.6,3.94-31.4,3.92h-21.84q-19.79,0-31.39-3.92a42.29,42.29,0,0,1-19.3-12.91,46,46,0,0,1-9.48-18.43q-2.85-10.61-2.85-32.45V926.84Zm225.5,103H1344l-16.41-68.65h-2.89l-16.91,68.65Zm-63.21,62.7,47.55-165.74h68.22l46.45,165.74h-47.55l-7.43-29h-52.14l-7.55,29Zm227.51-85.72h24.8c7.39,0,12.44-1.29,15.09-3.91s4-7.37,4-14.37v-6.34c0-7-1.36-11.89-4.06-14.51s-7.73-4-15-4h-24.8v43.09Zm-44.36,85.72V926.84h66.7q38.22,0,52.4,10.07t14.22,35.34v13.33q0,16.81-8.12,26.33t-24,11.52c11.18,1.86,19.34,5.58,24.42,11.13s7.66,13.52,7.66,23.82v34.2h-45.28v-29.83q0-10.61-4-14.55c-2.7-2.62-7.74-4-15.06-4h-24.57v48.33Zm163.31,0V926.84H1715.3v36.93h-79.89V992.5H1713v31.91h-77.58v31.23h81.67v36.94Z"/><path class="cls-3" d="M497.45,1187.65l9.64,2.44q-3,11.85-10.86,18.06T477,1214.37q-11.73,0-19.1-4.79a29.76,29.76,0,0,1-11.18-13.84,49.49,49.49,0,0,1-3.84-19.48,42.86,42.86,0,0,1,4.33-19.8,29.69,29.69,0,0,1,12.34-12.84,35.93,35.93,0,0,1,17.6-4.39q10.9,0,18.33,5.55a28.82,28.82,0,0,1,10.35,15.61l-9.44,2.23c-1.68-5.28-4.13-9.14-7.33-11.54a19.44,19.44,0,0,0-12.08-3.62c-5.57,0-10.24,1.33-14,4a21.19,21.19,0,0,0-7.89,10.78,43.49,43.49,0,0,0-2.28,14,44.31,44.31,0,0,0,2.69,16.18,20.06,20.06,0,0,0,8.38,10.34,23.32,23.32,0,0,0,12.3,3.42,20.59,20.59,0,0,0,13.64-4.66c3.72-3.11,6.25-7.71,7.57-13.84Zm18.59-9.88q0-18.07,9.74-28.32t25.09-10.22A34.92,34.92,0,0,1,569,1144a31.26,31.26,0,0,1,12.32,13.4,43.37,43.37,0,0,1,4.25,19.48,42.72,42.72,0,0,1-4.47,19.77,30.35,30.35,0,0,1-12.64,13.2,36.2,36.2,0,0,1-17.67,4.48,34.48,34.48,0,0,1-18.36-4.95,31.87,31.87,0,0,1-12.25-13.53,40.81,40.81,0,0,1-4.17-18.12Zm10,.17q0,13.13,7,20.66a24.67,24.67,0,0,0,35.59-.07q7-7.6,7-21.63a37.24,37.24,0,0,0-3-15.46,23.06,23.06,0,0,0-8.77-10.24,23.91,23.91,0,0,0-13-3.64,24.59,24.59,0,0,0-17.56,7q-7.36,7-7.36,23.38Zm71.87,35.22v-72.71h9.89l38.14,57.07v-57.07h9.24v72.71h-9.88l-38.15-57.07v57.07Zm70.29-23.36,9-.81a20.29,20.29,0,0,0,3,9,16.54,16.54,0,0,0,7.31,5.69,27.62,27.62,0,0,0,11.15,2.16,26.51,26.51,0,0,0,9.72-1.64,13.41,13.41,0,0,0,6.26-4.52,10.47,10.47,0,0,0,2.06-6.22,9.47,9.47,0,0,0-2-6,14.79,14.79,0,0,0-6.54-4.28,133.64,133.64,0,0,0-12.95-3.54c-6.69-1.61-11.36-3.11-14-4.54a19.67,19.67,0,0,1-7.74-6.78,16.54,16.54,0,0,1-2.55-9.06A18.46,18.46,0,0,1,674,1149a19.28,19.28,0,0,1,9.12-7.28,34.5,34.5,0,0,1,13.34-2.49,36.19,36.19,0,0,1,14.25,2.61,20.45,20.45,0,0,1,9.49,7.66A22,22,0,0,1,723.8,1161l-9.24.71q-.73-6.87-5-10.39c-2.86-2.35-7.1-3.52-12.68-3.52q-8.73,0-12.73,3.2a9.62,9.62,0,0,0-4,7.72,8.33,8.33,0,0,0,2.83,6.45c1.86,1.67,6.68,3.41,14.5,5.17s13.18,3.32,16.09,4.64a21.94,21.94,0,0,1,9.36,7.4,17.9,17.9,0,0,1,3,10.3,19.65,19.65,0,0,1-3.32,10.92,21.77,21.77,0,0,1-9.53,8,33.2,33.2,0,0,1-14,2.84q-9.84,0-16.5-2.87a23,23,0,0,1-10.44-8.65,24.33,24.33,0,0,1-4-13Zm118.5-49.35h9.64v42q0,11-2.47,17.41a21.24,21.24,0,0,1-8.93,10.48c-4.32,2.69-9.95,4-17,4-6.79,0-12.35-1.16-16.67-3.52a20,20,0,0,1-9.26-10.18q-2.76-6.69-2.77-18.23v-42h9.64v42c0,6.31.6,11,1.76,14a13.27,13.27,0,0,0,6,6.93,20.8,20.8,0,0,0,10.44,2.43q10.56,0,15.06-4.8c3-3.22,4.49-9.38,4.49-18.52v-42Zm25.3,72.71v-72.71h9.65v64.18h35.74v8.53Zm67.83,0h9.65V1149h24v-8.53H855.83V1149h24v64.18Zm45.17,0v-72.71h9.65v72.71Zm26.49,0v-72.71h9.88l38.15,57.07v-57.07h9.24v72.71h-9.89l-38.14-57.07v57.07Zm107.45-28.54v-8.53h30.76V1203a54.07,54.07,0,0,1-14.62,8.5,43.4,43.4,0,0,1-15.47,2.84,41.26,41.26,0,0,1-19.46-4.58,30.29,30.29,0,0,1-13.2-13.25,41.75,41.75,0,0,1-4.47-19.38,44.89,44.89,0,0,1,4.44-19.82,29.41,29.41,0,0,1,12.76-13.64,39.92,39.92,0,0,1,19.19-4.47,37.91,37.91,0,0,1,14.25,2.56,23.65,23.65,0,0,1,10,7.11,31.42,31.42,0,0,1,5.5,11.91l-8.68,2.37a27.55,27.55,0,0,0-4.06-8.73,16.6,16.6,0,0,0-6.94-5.08,25.36,25.36,0,0,0-10-1.91,29.46,29.46,0,0,0-11.39,2,21.24,21.24,0,0,0-7.75,5.3,25,25,0,0,0-4.57,7.19,38.27,38.27,0,0,0-2.78,14.66q0,9.75,3.34,16.31a21.42,21.42,0,0,0,9.73,9.73,30,30,0,0,0,13.57,3.18,32.12,32.12,0,0,0,12.19-2.42,31.27,31.27,0,0,0,9-5.17v-13.63Zm73.38,28.54v-72.71h52.5V1149h-42.86v22.34H1182v8.53h-40.11v24.78h44.58v8.53Zm67.42,0v-72.71h9.89l38.14,57.07v-57.07H1257v72.71h-9.88l-38.15-57.07v57.07Zm107.45-28.54v-8.53h30.77V1203a54.22,54.22,0,0,1-14.62,8.5,43.44,43.44,0,0,1-15.47,2.84,41.26,41.26,0,0,1-19.46-4.58,30.29,30.29,0,0,1-13.2-13.25,41.75,41.75,0,0,1-4.47-19.38,45,45,0,0,1,4.43-19.82,29.41,29.41,0,0,1,12.76-13.64,40,40,0,0,1,19.2-4.47,37.82,37.82,0,0,1,14.24,2.56,23.69,23.69,0,0,1,10,7.11,31.42,31.42,0,0,1,5.5,11.91l-8.68,2.37a27.77,27.77,0,0,0-4.06-8.73,16.66,16.66,0,0,0-6.94-5.08,25.39,25.39,0,0,0-10-1.91,29.43,29.43,0,0,0-11.39,2,21.24,21.24,0,0,0-7.75,5.3,24.82,24.82,0,0,0-4.57,7.19,38.27,38.27,0,0,0-2.78,14.66q0,9.75,3.33,16.31a21.49,21.49,0,0,0,9.74,9.73,30,30,0,0,0,13.57,3.18,32.07,32.07,0,0,0,12.18-2.42,31.34,31.34,0,0,0,9-5.17v-13.63Zm46.59,28.54v-72.71h9.65v72.71Zm26.49,0v-72.71h9.88l38.15,57.07v-57.07h9.24v72.71h-9.88l-38.15-57.07v57.07Zm73.64,0v-72.71h52.49V1149h-42.85v22.34h40.11v8.53h-40.11v24.78h44.58v8.53Zm67.73,0v-72.71h52.49V1149h-42.85v22.34h40.11v8.53h-40.11v24.78h44.58v8.53Zm67.72,0v-72.71h32.23q9.72,0,14.77,2a16.21,16.21,0,0,1,8.08,6.91,20.64,20.64,0,0,1,3,11,18.34,18.34,0,0,1-5,13q-5,5.29-15.45,6.73a25,25,0,0,1,5.8,3.62,49.18,49.18,0,0,1,8,9.68l12.57,19.81h-12l-9.61-15.13c-2.79-4.39-5.11-7.72-6.92-10a22,22,0,0,0-4.89-4.86,15.08,15.08,0,0,0-4.38-1.93,30,30,0,0,0-5.35-.34H1599v32.3Zm9.65-40.62h20.65a30.76,30.76,0,0,0,10.29-1.37,10.77,10.77,0,0,0,5.62-4.37,11.83,11.83,0,0,0,1.93-6.51,10.89,10.89,0,0,0-3.73-8.5q-3.72-3.33-11.78-3.32h-23v24.07Zm60.34,17.26,9-.81a20.16,20.16,0,0,0,3,9,16.54,16.54,0,0,0,7.31,5.69,27.62,27.62,0,0,0,11.15,2.16,26.54,26.54,0,0,0,9.72-1.64,13.41,13.41,0,0,0,6.26-4.52,10.47,10.47,0,0,0,2.06-6.22,9.47,9.47,0,0,0-2-6,14.77,14.77,0,0,0-6.55-4.28,132.26,132.26,0,0,0-12.94-3.54c-6.69-1.61-11.36-3.11-14-4.54a19.6,19.6,0,0,1-7.74-6.78,16.54,16.54,0,0,1-2.55-9.06,18.46,18.46,0,0,1,3.13-10.3,19.28,19.28,0,0,1,9.12-7.28,34.46,34.46,0,0,1,13.34-2.49,36.19,36.19,0,0,1,14.25,2.61,20.45,20.45,0,0,1,9.49,7.66A22,22,0,0,1,1715,1161l-9.24.71q-.74-6.87-5-10.39t-12.67-3.52q-8.73,0-12.73,3.2a9.59,9.59,0,0,0-4,7.72,8.35,8.35,0,0,0,2.82,6.45c1.87,1.67,6.69,3.41,14.51,5.17s13.18,3.32,16.09,4.64a21.94,21.94,0,0,1,9.36,7.4,17.9,17.9,0,0,1,3,10.3,19.72,19.72,0,0,1-3.31,10.92,21.82,21.82,0,0,1-9.53,8,33.2,33.2,0,0,1-14,2.84q-9.84,0-16.5-2.87a23,23,0,0,1-10.44-8.65A24.33,24.33,0,0,1,1659.31,1189.8Z"/></svg>