<svg id="Layer_1" data-name="Layer 1" xmlns="http://www.w3.org/2000/svg" viewBox="0 0 159.43 138.11"><defs><style>.cls-1{fill:#4194aa;}</style></defs><path class="cls-1" d="M355.26,264.82l-1.8,4.6,2,1.53-4.8,1.23,5.07,1.64-3.8,1.14c-2.58,3.65,2.51,6.27,1,9.67l5.48,6.08-3.52,1.63,4.66,1.87-.81,1.7-9.47.9c.55,4.55,3.21,7.49,6.27,10.91h-9.93l-.47-10.51-2.08-2V276.55l-.65-.2c-.27.5-.53,1-.82,1.51s-.63.94-1.08,1.61c-1.12-3.36,1.15-5.73,1.72-8.37,1.45-6.78.51-13.46.77-20.16s.06-13.25.06-20.45c5.57,0,10.63-.14,15.68.11,1,.05,1.92,1.6,2.87,2.46-3.4-2.3-7.07-2-11-1.46l.42,2.72-7-3.5c0,5.22,0,9.46,0,13.69s-.11,8.32,0,12.47-.54,8.29,1,12.28c1.77-10.88-.26-21.84.68-33.09,5.56,1.47,7,5.69,9.32,9.35a38.13,38.13,0,0,0-2.27-7.32c-.54-1.35-1.19-2.65-1.79-4l3.1,1.92c6,10,1.56,19-.52,28.15a3,3,0,0,0,.76.55A3.12,3.12,0,0,0,355.26,264.82Z" transform="translate(-340.2 -221.31)"/><path class="cls-1" d="M477.34,233.11c1.45-.94,2.85-2.57,4.37-2.7,4.43-.36,8.92-.13,13.65-.13,2.27,16.34-2.37,32.85,3.07,48.84L496,275.91c0,4.41.13,8.14,0,11.85-.15,3.55,1.2,7.44-2.31,10.14v9.67H483.9c2.09-3.08,4.42-6.49,7.37-10.84l-10.79-.61-.4-1.09,6.34-3.62c.38-5.12.79-10.47,1.22-16.16l-4.36-1.54,4.64-1.11-4.24-1.71,1.68-1.32c-.47-1.42-1-2.95-1.47-4.48.28-1.15.93-2.36.77-3.45a72.41,72.41,0,0,0-1.9-8.62,21,21,0,0,1,1.55-15.87l5.37-5.63C484.83,231.18,480.89,230.65,477.34,233.11Zm17.38-1.47c-5.81,1.47-10.48,7.73-9.79,12.32,2.13-2.88,2.41-7.91,8.8-7.09v32l1,0Z" transform="translate(-340.2 -221.31)"/><path class="cls-1" d="M355.26,264.82a3.12,3.12,0,0,1-1,0,3,3,0,0,1-.76-.55c2.08-9.12,6.5-18.15.52-28.15l-3.1-1.92.09.09-.42-2.72c3.91-.58,7.58-.84,11,1.46,6.22,4.61,7.46,11.93,2.93,18.84C361.63,256.33,358.36,260.52,355.26,264.82Z" transform="translate(-340.2 -221.31)"/><path class="cls-1" d="M412.6,270.38c-.64-2.19-1.12-4.44-2-6.55a15.7,15.7,0,0,0-16.8-9.78A15.94,15.94,0,0,0,380,268.29c-1.13,11.11,5,18.73,16.26,19.66,8,.67,13.39,4.6,16.55,11.72,2.88,6.51,1.63,17.58-6,22.88-7.86,5.47-16.11,5.23-23.27-1.17a16.26,16.26,0,0,1-5.06-14.14c.64,2,1.13,3.2,1.4,4.43a16.31,16.31,0,0,0,21.56,12,17.49,17.49,0,0,0,9.68-23.88c-3.15-6.81-8.68-9.94-15.82-10.32-11.49-.62-18-10.94-17.2-20,.67-7.54,4.33-13.29,11.53-16.15,6.88-2.74,13.18-1.22,18.44,3.83a18.22,18.22,0,0,1,5.84,12.93Z" transform="translate(-340.2 -221.31)"/><path class="cls-1" d="M477.34,233.11c3.55-2.46,7.49-1.93,12.34-1.59l-5.37,5.63A21,21,0,0,0,482.76,253a72.41,72.41,0,0,1,1.9,8.62c.16,1.09-.49,2.3-.77,3.45-2.36-3.17-5.22-6.08-6.94-9.57-2.55-5.15-6.49-10.3-3.79-16.61C474.08,236.78,475.92,235,477.34,233.11Z" transform="translate(-340.2 -221.31)"/><path class="cls-1" d="M432.77,257.14c4-5,9.27-5.95,15-4.34,8.46,2.37,14.14,11.13,13.23,19.94a18.13,18.13,0,0,1-17,16.69c-8,.62-13.83,4.19-16.67,12a17.68,17.68,0,0,0,10.53,22.35c8.36,3.13,17.87-1.79,21-10.87.53-1.55.93-3.13,1.46-5,1.18,4.15-.78,9.72-4.54,13.17-5.63,5.17-12.11,7.05-19.29,3.9s-11.08-9-11.69-17.11c-.76-10.17,8.2-19.41,18-20.05,14-.92,21.1-15.07,13.8-26.54a15.75,15.75,0,0,0-20.51-5.77C435,256.1,433.88,256.61,432.77,257.14Z" transform="translate(-340.2 -221.31)"/><path class="cls-1" d="M481,346c.07,7.53-5.3,13.3-12.49,13.42-7.36.12-13.14-5.71-13.2-13.32a12.82,12.82,0,0,1,12.84-13.14C475.45,332.85,481,338.45,481,346Zm-22.89-.15c-.13,5.9,4.24,11,9.65,11.2,5.57.22,10.74-5,10.74-10.82,0-6.11-4.2-10.59-10.05-10.7S458.3,339.65,458.15,345.8Z" transform="translate(-340.2 -221.31)"/><path class="cls-1" d="M394.2,333.33c6.64-.14,12.92-1.33,17,5.18,3.44,5.44,3.2,10.71-.37,15.86-4.18,6-10.38,4.59-16.67,4.45Zm2.26,22.53c7.77,1.17,10.54.24,13-4.35a10.7,10.7,0,0,0-.62-11.75c-2.87-4.19-6.18-5-12.39-3.31Z" transform="translate(-340.2 -221.31)"/><path class="cls-1" d="M495.81,221.31v3.22c-.18,0-.42.18-.62.13-1.81-.48-3.61-1.41-5.42-1.42-18.47-.12-36.94-.08-55.42-.08-28,0-55.92,0-83.88.05-2.33,0-5.07-1-7.17,2l-.24-3.64c16.93,1.21,33.74.36,50.52.53,17.14.18,34.29.23,51.43,0C461.87,221.79,478.78,223.1,495.81,221.31Z" transform="translate(-340.2 -221.31)"/><path class="cls-1" d="M493.5,350.43l4.72,7.77-1,.75c-4.65-2-5.49-7.3-9.05-11.14l5.69-1c3.21-3,3.88-5.32,2.4-8.2s-4.42-3.59-10.38-1.9v22.74c-2.43-3.2-3-16.07-1.71-26.14,2.63,0,5.39-.16,8.12,0,3.16.23,5.83,1.4,6.8,4.84,1.06,3.78.7,7.27-2.25,10.12A22.43,22.43,0,0,1,493.5,350.43Z" transform="translate(-340.2 -221.31)"/><path class="cls-1" d="M355.33,358.53c2.94-8.71,5.88-17.33,10.3-25.5,3.32,2.67,11.16,21.57,10.92,25.85-3.83-1.41-2.81-5.81-5.31-8.12h-9.53C358.37,352.9,359.67,357.81,355.33,358.53Zm15.16-10.77-3.71-8.82-1.07.05L362,347.76Z" transform="translate(-340.2 -221.31)"/><path class="cls-1" d="M430.37,346.09c-3.77,2.66-7.83.35-11.71,1.91v8L430,357c-3.06,2.33-8.16,2.56-13.77,1.28V333.64h14.44c-4.07,3.58-8.56.6-12.08,3.1v6.79C421.92,346,426.67,342.71,430.37,346.09Z" transform="translate(-340.2 -221.31)"/><path class="cls-1" d="M353.38,340.65l-3.5-5-5.42.32-.9,6c3,1.31,5.67,2.25,8.11,3.57,3.21,1.73,4.48,6.08,3.06,9.56-1.15,2.84-5,4.82-8.24,4.23-3.88-.71-5.87-3.29-5.88-7.78,3.47-.72,2.13,3.18,3.91,4,5.05,2.71,7.14,1.53,8.22-5.39-1.45-.88-3.16-2-4.94-3a43.25,43.25,0,0,1-4.42-2.19,6.37,6.37,0,0,1-2.08-8,7.45,7.45,0,0,1,7.91-3.89,6.26,6.26,0,0,1,5.34,6.13C354.56,339.39,354.18,339.65,353.38,340.65Z" transform="translate(-340.2 -221.31)"/><path class="cls-1" d="M453.83,351.85c-.63,5.39-5.75,8.21-11.32,7.45-6.22-.86-10.68-6.2-10.78-12.92-.11-7,4-12.24,10.27-13.26,5.89-1,11.14,1.72,13.07,7.56a21.49,21.49,0,0,1-3.58-2.23c-3.36-3.39-7.28-3.85-11.44-2.08-3.73,1.58-6.27,6.54-5.88,10.71a11.17,11.17,0,0,0,7.67,9.51,9,9,0,0,0,8.79-2.06Z" transform="translate(-340.2 -221.31)"/><path class="cls-1" d="M448.05,242.57l-4.15,2.58c-4.81-1.05-6.57-3.37-5.76-7.16.63-2.91,3.22-4.29,6.6-3.51S449.08,237.29,448.05,242.57Z" transform="translate(-340.2 -221.31)"/><path class="cls-1" d="M407.41,270.24c-3.08-9.13-6.35-12.15-12-11.86-4.74.23-8.95,4.05-10,9.07-1.17,5.63,1.53,9.49,9.83,14-3.81.78-7.8-1.42-10.07-5.56-2.57-4.68-1.54-11.68,2.31-15.76,2.91-3.09,9.24-4.23,13.5-2.44S408.07,264.33,407.41,270.24Z" transform="translate(-340.2 -221.31)"/><path class="cls-1" d="M412.08,256.57c-7.1-7.63-15.7-9.82-24.89-5.34-10.53,5.13-13.07,14.68-11.33,25.94-5.25-7.66,1.11-21.22,8-25.89C392.8,245.27,406.57,247.67,412.08,256.57Z" transform="translate(-340.2 -221.31)"/><path class="cls-1" d="M402.45,313.42c-5.67,3.71-9.89,3.62-13.29-.29-2.37-2.73-2.34-9.34.06-12.14,2.92-3.4,8.31-3.84,12.24-1C405.13,302.64,405.5,307.64,402.45,313.42Zm-10.17.28c6.07,1,8.94,0,10.24-3.62,1.24-3.45,0-7.59-2.8-9.24a7.3,7.3,0,0,0-9.37,1.64C387.91,305.71,388.51,309.48,392.28,313.7Z" transform="translate(-340.2 -221.31)"/><path class="cls-1" d="M391.53,236.21l.42-.39,4.21-1.64c4.71,2.88,5.8,5.65,3.69,8.5-1.91,2.59-4.42,2.52-8.64-.65C391.3,240.37,391.42,238.29,391.53,236.21Z" transform="translate(-340.2 -221.31)"/><path class="cls-1" d="M443,298.05a8.64,8.64,0,0,1,8.89,8.71c.12,5.17-3.88,9.54-8.72,9.51a9.06,9.06,0,0,1-8.69-9.07A8.7,8.7,0,0,1,443,298.05Zm3.45,15.75c4.28-3.79,5.08-6.93,2.7-10.71a7.29,7.29,0,0,0-9.2-2.56c-3.08,1.38-4.59,5.1-3.61,8.91S440.28,314.66,446.41,313.8Z" transform="translate(-340.2 -221.31)"/><path class="cls-1" d="M450.84,278.86c4.41-10.46,3.28-16.07-3.23-19.43-6-3.11-10.11-.83-16.21,9.09.39-6,3.67-10.39,8.45-11.3,6.48-1.23,11.68,1.1,14.31,6.41C456.51,268.36,455.42,274.63,450.84,278.86Z" transform="translate(-340.2 -221.31)"/><path class="cls-1" d="M388.38,265.8c5-5.72,8.39-6.29,12.56-1.76-4.52-1.19-8.67-2-11,2.84-1.7,3.48-.31,6.11,5.46,10.67C389.43,277.44,387.24,273.87,388.38,265.8Z" transform="translate(-340.2 -221.31)"/><path class="cls-1" d="M380.27,359.1c-1.87-4.19-1.93-21.47.07-26.45,1.61,5.08.92,9.42.84,13.63S382.2,354.6,380.27,359.1Z" transform="translate(-340.2 -221.31)"/><path class="cls-1" d="M393.81,273.08c-.48-1.37-1.58-3-1.44-4.47.19-2.16,1.9-3.34,4.86-3l2.48,3.1C399.38,272,397.92,273.35,393.81,273.08Z" transform="translate(-340.2 -221.31)"/><path class="cls-1" d="M450.84,266.11c.7,8.08-1.18,11.08-7.89,11.64,4.4-3.06,9-5.79,5.89-11.48-2.32-4.26-6.32-3.91-10.89-1.92C442.14,259.35,445.92,260.05,450.84,266.11Z" transform="translate(-340.2 -221.31)"/><path class="cls-1" d="M440.23,271.83V267c2.09-2,4.09-2.15,5.42-.19a5.27,5.27,0,0,1,.51,4.43C445.09,273.48,443,273.9,440.23,271.83Z" transform="translate(-340.2 -221.31)"/><path class="cls-1" d="M436.15,250.14c8.82-4.93,20.35-.76,25.45,9.27C455,251.17,447,246.81,436.15,250.14Z" transform="translate(-340.2 -221.31)"/><path class="cls-1" d="M391.53,236.21c-.11,2.08-.23,4.16-.32,5.82,4.22,3.17,6.73,3.24,8.64.65,2.11-2.85,1-5.62-3.69-8.5L392,235.82c1.1-3,3.55-2.4,6.26-2.26l3.26,2.85c.76,5.24,0,7.5-2.9,8.81a5.91,5.91,0,0,1-7.22-1.44C389.53,241.67,389.58,239.5,391.53,236.21Z" transform="translate(-340.2 -221.31)"/><path class="cls-1" d="M351,234.23c.6,1.32,1.25,2.62,1.79,4a38.13,38.13,0,0,1,2.27,7.32c-2.3-3.66-3.76-7.88-9.32-9.35-.94,11.25,1.09,22.21-.68,33.09-1.5-4-.84-8.18-1-12.28s0-8.31,0-12.47,0-8.47,0-13.69l7,3.5Z" transform="translate(-340.2 -221.31)"/><path class="cls-1" d="M494.72,231.64V268.8l-1,0v-32c-6.39-.82-6.67,4.21-8.8,7.09C484.24,239.37,488.91,233.11,494.72,231.64Z" transform="translate(-340.2 -221.31)"/><path class="cls-1" d="M392.35,304.27c-1.18,6.22,0,7.58,5.82,6.77,2.22-2.06,2.86-4.51.89-7S394.75,302.26,392.35,304.27Z" transform="translate(-340.2 -221.31)"/><path class="cls-1" d="M392.35,304.27c2.4-2,4.7-2.77,6.71-.23s1.33,4.94-.89,7C392.36,311.85,391.17,310.49,392.35,304.27Z" transform="translate(-340.2 -221.31)"/><path class="cls-1" d="M446.81,304.42v6.3l-5.54.74c-2.78-2.57-2.92-4.95-1.35-7.58C442.2,302,444.39,302.05,446.81,304.42Z" transform="translate(-340.2 -221.31)"/></svg>