<svg id="Layer_1" data-name="Layer 1" xmlns="http://www.w3.org/2000/svg" xmlns:xlink="http://www.w3.org/1999/xlink" viewBox="0 0 1296.57 864.57"><defs><style>.cls-1,.cls-2{fill:none;}.cls-2{stroke:#000;stroke-width:0.57px;}.cls-2,.cls-8{stroke-miterlimit:22.93;}.cls-3{clip-path:url(#clip-path);}.cls-4{fill:#fff;}.cls-5{fill:#8e8e93;}.cls-6{fill:#1a72ad;}.cls-7{fill:#8f8f8f;}.cls-8{fill:#255f8d;stroke:#01a0c6;stroke-width:0.22px;fill-rule:evenodd;}</style><clipPath id="clip-path" transform="translate(0.28 0.28)"><rect class="cls-1" x="321.59" y="69.5" width="628.15" height="380.17"/></clipPath></defs><rect class="cls-2" x="0.28" y="0.28" width="1296" height="864"/><g class="cls-3"><path class="cls-4" d="M626.62,449.66h-305V69.5H772.06l2,19.79a97.51,97.51,0,0,1,.12,18.32,84.51,84.51,0,0,1-3.83,17.9A71.8,71.8,0,0,1,756,150.77c-.65.76-1.27,1.55-1.87,2.35-1.57,2.08-.93,4.22-.16,6.38,1.46,4.11,3,8.17,4.29,12.34A103.49,103.49,0,0,1,762.4,197a116.49,116.49,0,0,1-1.26,23.67A104.06,104.06,0,0,1,755.4,243c-1.43,3.58-2.74,7.2-4.22,11.13,0-.74,0-1.14,0-1.53.67-6.19,1.42-12.37,2-18.57.54-5.93,1.22-11.86,1.25-17.8a139.85,139.85,0,0,0-1.16-16.59,63.71,63.71,0,0,0-3.83-16.18c-2.32-6-5-11.75-7.62-17.59a1.51,1.51,0,0,0-1.18-.57,3.67,3.67,0,0,0-1.49.42c-5.64,2.45-11.35,4.77-16.89,7.43a251.36,251.36,0,0,0-31.86,18.37c-11.07,7.47-21.61,15.59-30.4,25.73a132.78,132.78,0,0,0-9.64,12.53,76.22,76.22,0,0,0-10.42,22.54,77.74,77.74,0,0,0-2.49,14.75,7,7,0,0,0,.19,1.28c.57-.73.92-1.16,1.24-1.6,3.35-4.63,6.65-9.29,10.06-13.88,4.65-6.24,10-11.71,16.88-15.59,7.15-4.05,14.71-6.63,23-6.23a22.65,22.65,0,0,1,12.85,4.43c5.19,3.94,7.89,9.42,9.38,15.6a55.29,55.29,0,0,1,1,17.4,81.67,81.67,0,0,1-5.3,22.58c-2.14,5.62-4.65,11.13-7.25,16.56A175.08,175.08,0,0,1,685,332c-5,7.25-10.36,14.31-15.54,21.47-.29.39-.51.83-.76,1.24a1.68,1.68,0,0,0,1.13-.22,158.06,158.06,0,0,0,18.08-12.62q7.26-5.72,14.38-11.58c5.93-4.87,12-9.56,17.63-14.79,7.35-6.88,14.38-14.1,21.36-21.36a238.18,238.18,0,0,0,18-21.34,198.7,198.7,0,0,0,14.19-21.08c3.4-5.92,6.51-12,9.49-18.16a137.89,137.89,0,0,0,9.13-24.46c1.72-6.36,3.06-12.83,4.3-19.3a124.5,124.5,0,0,0,2-20.85,170.88,170.88,0,0,0-1.82-29.63,190.71,190.71,0,0,0-5.6-25.26,264.65,264.65,0,0,0-10.41-29c-2.31-5.43-4.46-11-8.32-15.6H949.67V390.86c-4.19-4.88-8.46-9.69-12.54-14.66a28.22,28.22,0,0,1-6.58-19.8,101.14,101.14,0,0,1,1.72-11.95c.38-2.18.43-2.23-1.84-2-5.84.54-11.69,1.05-17.54,1.6-7.83.73-15.67,1.4-23.49,2.26s-15.39,1.8-23.06,2.88c-8,1.13-16,2.4-23.91,3.73q-9.75,1.62-19.45,3.55-8.52,1.69-17,3.74c-7.42,1.79-14.86,3.56-22.2,5.65q-12.73,3.65-25.3,7.86c-7.72,2.61-15.4,5.39-22.93,8.5-8.79,3.62-17.52,7.43-26.06,11.61-9.58,4.69-19,9.79-28.34,14.87-6.21,3.38-12.3,7-18.39,10.6a229.09,229.09,0,0,0-23.65,15.51,2.82,2.82,0,0,0-1.23,2.54c.09,3.51.16,7,.15,10.55,0,1,.3,1.58,1.28,1.78H631.9a1.4,1.4,0,0,0,1.26-1.67c0-1.23.14-2.47.18-3.71.08-2.51.1-5,.22-7.55a2,2,0,0,0-1.15-1.91q-6-3.68-12.07-7.38c-5-3.12-10-6.31-15.06-9.39-7.69-4.66-15.28-9.52-23.17-13.81-8.91-4.85-18-9.45-27.22-13.64-10-4.55-20.28-8.68-30.56-12.66-7.26-2.82-14.68-5.22-22.12-7.54-8.77-2.74-17.57-5.41-26.47-7.7-10.14-2.61-20.35-4.93-30.6-7.05-9.27-1.92-18.61-3.49-27.95-5.06-6.19-1-12.41-1.82-18.63-2.66-4.55-.61-9.11-1.19-13.67-1.69s-9.15-.89-13.72-1.32q-6.37-.59-12.77-1.13c-3.66-.31-7.32-.58-11-.86q-3.65-.29-7.3-.52c-.68,0-1.34,0-1.12,1,.33,1.48.64,3,.94,4.46a42,42,0,0,1,.45,14.18,33.57,33.57,0,0,1-7.59,16.85c-3.17,3.85-6.68,7.42-10,11.12-.29.32-.53.68-1,1.3.8,0,1.23,0,1.66,0,2.54-.26,5.09-.45,7.62-.83,5.76-.86,11.5-1.91,17.28-2.7,5.34-.73,10.7-1.35,16.07-1.77,7.37-.58,14.75-1.16,22.13-1.32,11.83-.27,23.66-.3,35.48.61,6.21.48,12.44.84,18.63,1.51,7,.77,14.05,1.62,21,2.8,8.07,1.36,16.1,3,24.1,4.74q9.43,2,18.75,4.59c7.36,2,14.69,4.16,21.94,6.55,8.24,2.7,16.45,5.52,24.52,8.69,7.51,2.94,14.88,6.26,22.19,9.68,9.26,4.33,18.44,8.87,27.59,13.45,4.89,2.45,9.62,5.21,14.46,7.79,2.49,1.32,5,2.64,7.59,3.77A18.49,18.49,0,0,0,626.62,449.66Zm-2.39-63.54.23-.32A9.21,9.21,0,0,0,624,385c-3.92-5.21-7.92-10.35-11.74-15.63a142.31,142.31,0,0,1-15.81-27.88,85.61,85.61,0,0,1-6.83-25.12,43.36,43.36,0,0,1,1.22-16.74,20.07,20.07,0,0,1,7.32-11c4.81-3.52,10.28-3.85,15.83-2.73a38.86,38.86,0,0,1,19.45,10.56c4.61,4.44,8.2,9.69,12,14.82,1,1.43,2.14,2.82,3.38,4.46a4.63,4.63,0,0,0,.23-.9,61.75,61.75,0,0,0-.46-6.68,56.58,56.58,0,0,0-4.57-14.1,71.51,71.51,0,0,0-11.48-18.19,139.32,139.32,0,0,0-15.67-14.45,131.65,131.65,0,0,0-19.42-13.39c-5.8-3.21-11.61-6.43-17.53-9.43-3.91-2-8-3.58-12-5.37a1.82,1.82,0,0,0-2.46.67A39.45,39.45,0,0,0,558,248.64c-2.19,7.76-2.6,15.75-2.57,23.76,0,4.54.34,9.1.66,13.64.37,5.18.9,10.34,1.33,15.52.06.65,0,1.31,0,2a2.89,2.89,0,0,1-.7-1.23c-2-6.21-4.05-12.39-5.79-18.66a65.72,65.72,0,0,1-2.54-16.91,88,88,0,0,1,1-16.37,99.65,99.65,0,0,1,3.73-15.12c1.14-3.32,2.07-6.72,3.09-10.08a2,2,0,0,0-.74-2.41,32.6,32.6,0,0,1-7.09-8.38A60.11,60.11,0,0,1,542,200.28a70.7,70.7,0,0,1-3.25-18.12c-.27-6.94.82-13.79,1.35-20.68.14-1.76.27-3.52.4-5.28l-.44-.13c-.34.46-.71.9-1,1.38-4.68,7.62-7.87,15.89-10.67,24.33a205.76,205.76,0,0,0-6.4,24.45,129.6,129.6,0,0,0-2.63,20.07,127.05,127.05,0,0,0,2,29,140.5,140.5,0,0,0,7.66,26.2,160.72,160.72,0,0,0,15.39,29.11,200.08,200.08,0,0,0,14.91,19.67,227.61,227.61,0,0,0,23,23.28c7.83,6.88,15.84,13.57,23.94,20.13,4.56,3.69,9.46,7,14.25,10.36A40.33,40.33,0,0,0,624.23,386.12Zm3.44,36.6c-.07-.36,0-.63-.17-.79a29.74,29.74,0,0,0-3-3.66c-2.14-2-4.5-3.71-6.67-5.65-3.19-2.85-6.15-6-9.45-8.68-9.23-7.58-18.48-15.15-27.93-22.45a229.61,229.61,0,0,0-25.91-17.32c-8.8-5.06-17.6-10.13-26.68-14.66-8.61-4.3-17.52-8-26.38-11.77a285.31,285.31,0,0,0-33.15-11.59c-9.83-2.81-19.76-5.3-29.72-7.62-7.73-1.81-15.56-3.25-23.39-4.62-5.94-1.05-11.93-1.78-17.91-2.54-5.71-.73-11.43-1.3-17.14-2-.84-.1-1.22.08-1.11,1,.92,7.59-2.16,13.5-7.69,18.43-2.08,1.86-4,3.86-6,5.87a6.47,6.47,0,0,0-.89,1.89,11.94,11.94,0,0,0,2,.47c3.14.22,6.3.3,9.45.57,6.32.56,12.65,1.11,18.95,1.86,8.37,1,16.75,1.95,25.07,3.3,9.07,1.46,18.09,3.25,27.09,5.08,5.44,1.1,10.83,2.46,16.21,3.84q8.66,2.2,17.24,4.67c4.8,1.37,9.57,2.89,14.33,4.41s9.36,3,14,4.68q11.38,4.14,22.66,8.54c5.55,2.17,11,4.49,16.51,6.83q7.28,3.12,14.46,6.43c4.68,2.15,9.39,4.26,13.95,6.65,6.05,3.18,12,6.59,17.93,9.95,4.94,2.79,9.84,5.65,14.77,8.48l17.69,10.12A4.46,4.46,0,0,0,627.67,422.72Zm14.89.6.25.27c.65-.35,1.31-.68,1.94-1,7.46-4.34,14.89-8.75,22.39-13,6.14-3.5,12.32-7,18.57-10.26q10.44-5.52,21.06-10.69c6.3-3,12.69-5.89,19.1-8.68,6-2.64,12.11-5.2,18.25-7.62q8.91-3.52,18-6.66c6.83-2.38,13.69-4.68,20.6-6.82q9.31-2.89,18.78-5.37c7.41-2,14.87-3.79,22.35-5.46,6.16-1.39,12.37-2.52,18.58-3.66,4.75-.88,9.52-1.66,14.29-2.39,3.83-.58,7.68-1.09,11.52-1.53,6.27-.73,12.54-1.46,18.82-2,5.13-.47,10.28-.7,15.42-1,1.23-.08,2.47-.18,3.7-.28.82-.07,1.09-.47.64-1.2a12.1,12.1,0,0,0-1.49-2.15c-2-2-4.11-3.91-6.16-5.87-3.28-3.15-5.75-6.8-6.44-11.38a39.66,39.66,0,0,1-.15-6c0-1-.35-1.26-1.31-1.13-2.25.33-4.52.54-6.77.85-8.35,1.17-16.71,2.19-25,3.58q-13.11,2.19-26.13,5c-8,1.73-15.85,3.78-23.73,5.84-5.33,1.4-10.65,2.91-15.87,4.64-7.32,2.43-14.61,5-21.8,7.74-6.93,2.69-13.77,5.61-20.53,8.69-5.85,2.66-11.61,5.55-17.27,8.59-6.3,3.38-12.59,6.83-18.64,10.64-7.56,4.77-15,9.81-22.28,15-5.22,3.68-10.28,7.61-15.23,11.65-7.18,5.86-14.21,11.9-21.29,17.88-.83.69-1.63,1.42-2.42,2.15l-8.71,8.05A14.44,14.44,0,0,0,642.56,423.32Zm-92.69-266-.25.41c5.35,7.87,11.9,14.84,17.36,22.63a7.49,7.49,0,0,1-1.64-1.23c-.76-.79-1.23-.63-1.86.23a61.35,61.35,0,0,0-9.18,17,25.37,25.37,0,0,0-1.21,12.86c1.07,5.67,4.26,10,8.8,13.41,6.15,4.62,13,6.92,20.76,6.18,5-.48,9.52-2.14,12.82-6a97.83,97.83,0,0,0,7.8-10.45c1.53-2.38,2.39-5.19,3.51-7.83.39-.9-.09-1.44-1-1.7-.42-.12-.83-.28-1.26-.39l-5.07-1.24a2.38,2.38,0,0,1,1.15-.07c2.22.27,4.43.61,6.66.8,1,.08,1.3.43,1.29,1.39,0,3.16,0,6.32,0,9.48,0,2.19,0,4.4,0,6.59a1.41,1.41,0,0,0,.85,1c.65.18,1-.27,1-1,0-.36,0-.71,0-1.07V204.08c0-1.78,0-1.82,1.84-1.54q9.54,1.49,19.07,3a13.74,13.74,0,0,0,1.84,0c-.3-.46-.47-.76-.68-1q-14-17.59-28-35.19c-2-2.49-4-4.6-7.49-5-6.62-.79-13.2-1.86-19.8-2.85-7.74-1.17-15.47-2.38-23.21-3.56C552.69,157.67,551.28,157.51,549.87,157.33ZM848.48,280.91a9.89,9.89,0,0,0-1.63.19c-6,1.83-12.06,3.46-18,5.59-7.37,2.66-14.61,5.65-21.85,8.65-5.68,2.36-11.3,4.87-16.89,7.44-5.41,2.48-10.81,5-16.11,7.71-10,5.12-20.08,10.24-30,15.66-6,3.3-11.85,7-17.54,10.82q-11.41,7.71-22.46,16c-5.85,4.38-11.48,9.06-17.08,13.76-3.33,2.79-6.48,5.8-9.6,8.82-2.18,2.11-4.1,4.48-6.27,6.59-1.45,1.41-3.35,2.4-4.68,3.9-4.08,4.61-8,9.35-11.94,14.08a28.23,28.23,0,0,0-1.9,2.89l.33.31a10.48,10.48,0,0,0,1.65-.8c1.67-1.18,3.31-2.38,4.92-3.64,10-7.77,19.75-15.75,29.87-23.3,7.33-5.46,15-10.54,22.67-15.46a249.5,249.5,0,0,1,28.42-15.71q11.26-5.29,22.81-10c5.6-2.32,11.35-4.31,17.08-6.32s11.48-4,17.28-5.77q9.15-2.86,18.4-5.41,9.42-2.58,18.92-4.84a170.18,170.18,0,0,1,24.77-4.3c.65-.06,1.29-.23,2.24-.4a19.08,19.08,0,0,0-1.66-2.06c-2.51-2.34-5.14-4.56-7.6-6.95-4.47-4.38-6.09-9.63-4.51-15.78C848.32,282.09,848.36,281.62,848.48,280.91ZM409.86,307.14a7.64,7.64,0,0,0,1.07.34c2.34.32,4.69.53,7,1,6.05,1.12,12.1,2.23,18.11,3.56,6.24,1.38,12.46,2.89,18.62,4.59,7.43,2.06,14.81,4.31,22.17,6.61,5.72,1.78,11.42,3.65,17.05,5.69q9.86,3.57,19.58,7.52c5.3,2.15,10.61,4.31,15.7,6.89q11.87,6,23.41,12.63c5.78,3.32,11.44,6.9,16.91,10.71,9.31,6.49,18.49,13.17,27.6,19.94a210.07,210.07,0,0,1,19.41,15.83A26.41,26.41,0,0,0,620,404.8l.25-.29a2.08,2.08,0,0,0-.2-.51,53.92,53.92,0,0,0-4.12-5.44c-6.32-6.63-12.75-13.15-19.14-19.7-.92-.95-1.83-1.91-2.77-2.83-3.14-3.06-6.25-6.17-9.47-9.15-2.69-2.5-5.43-5-8.3-7.25-6.37-5.08-12.69-10.24-19.31-15-6.23-4.47-12.67-8.67-19.26-12.58q-12.12-7.17-24.65-13.63c-8.89-4.56-17.94-8.82-27-13-7.6-3.47-15.32-6.67-23-9.85-6.25-2.58-12.56-5-18.87-7.39-5.22-2-10.48-3.92-15.73-5.84-1.64-.6-3.3-1.13-5.3-1.81.22,1.14.42,1.93.52,2.73a29.2,29.2,0,0,1,.57,5.55c-.2,3.22-2.07,5.78-4.18,8-2.92,3.12-6,6.07-9.05,9.09C410.56,306.31,410.27,306.67,409.86,307.14Zm351-235.07-.18-.31c-.34,0-.69,0-1,.11-2.95.47-5.91,1-8.87,1.42-5.73.88-11.46,1.71-17.18,2.59-5.29.81-10.57,1.7-15.86,2.49-5.1.76-10.21,1.41-15.31,2.17a13.51,13.51,0,0,0-9,5.22c-2.17,2.82-4.29,5.68-6.51,8.46q-14.55,18.23-29.15,36.42a11.83,11.83,0,0,0-.64,1.09,7.21,7.21,0,0,0,.83,0l22.39-3.49c1.35-.21,1.46-.13,1.47,1.22,0,3.44,0,6.88,0,10.32v12c0,.76,0,1.44,1.08,1.5s1.37-.4,1.36-1.41c0-7.36,0-14.72,0-22.08a2.92,2.92,0,0,1,.07-1.3,2.11,2.11,0,0,1,1.16-1.07c2.31-.41,4.66-.66,7-1,7.39-1.1,14.77-2.3,22.17-3.3A14.2,14.2,0,0,0,724,117.6Q735.18,103.82,746.27,90q5.64-7,11.29-14C758.63,74.63,759.76,73.36,760.87,72.07ZM743,97.36l-2.87,3.47c-5.43,6.55-10.83,13.13-16.34,19.61a14.52,14.52,0,0,1-3.91,3.08c-3,1.7-6.46,2-9.81,2.55-6.28.94-12.58,1.68-18.88,2.48-1,.13-1.36.57-1.06,1.52a19.86,19.86,0,0,0,1,3.19c2.14,4,4.22,8.07,6.62,11.92,2.31,3.69,4.89,7.24,8.61,9.72,2.06,1.37,3.72,3.36,6.47,3.63s5.59.91,8.4,1.31a28.86,28.86,0,0,0,20.42-4.18c7.93-5.14,13.17-12.22,14.91-21.55,1.35-7.27-.26-14.14-4-20.51-2.47-4.25-5-8.47-7.48-12.71C744.51,99.81,743.83,98.73,743,97.36Zm-59.7,70.56c2,0,2.13-.14,1.87-2.12-.22-1.66-.43-3.32-.72-5-.2-1.16-.38-2.22.53-3.25a2,2,0,0,0-.35-2.6,2.09,2.09,0,0,0-2.75,0,1.77,1.77,0,0,0-.42,2.55,4,4,0,0,1,.54,3.08q-.3,3.16-.63,6.31c-.07.65.2,1,.85,1C682.57,167.93,682.93,167.92,683.29,167.92Zm-73.9,63.58c1.55,0,1.7-.23,1.46-1.77s-.4-3-.5-4.52a2.88,2.88,0,0,1,.38-1.45c.47-.88.46-1.75-.37-2.21a2.25,2.25,0,0,0-1.93,0c-.82.52-.69,1.4-.23,2.24a2.45,2.45,0,0,1,.29,1.33c-.14,1.55-.37,3.09-.57,4.63S607.93,231.5,609.39,231.5Z" transform="translate(0.28 0.28)"/><path class="cls-4" d="M949.67,391.34v58.32H644.86a2.84,2.84,0,0,1,.56-.19,23.55,23.55,0,0,0,9.09-2.87c5-2.78,10-5.72,15-8.57,9.56-5.45,19.42-10.31,29.44-14.85a352.37,352.37,0,0,1,34.39-13.73c9.51-3.17,19-6.33,28.71-9,10.44-2.87,21-5.24,31.57-7.64,5.1-1.15,10.29-1.92,15.45-2.76,5.6-.9,11.2-1.8,16.83-2.49,5.34-.66,10.72-1.16,16.09-1.55,7.53-.54,15.07-1.07,22.61-1.33a333.38,333.38,0,0,1,34.62.95c3.67.25,7.33.61,11,1,4.21.47,8.4,1,12.61,1.54,6.34.77,12.68,1.56,19,2.31C944.42,390.82,947.05,391.07,949.67,391.34Z" transform="translate(0.28 0.28)"/><path class="cls-5" d="M772.3,69.5c3.86,4.62,6,10.17,8.32,15.6a264.65,264.65,0,0,1,10.41,29,190.71,190.71,0,0,1,5.6,25.26A170.88,170.88,0,0,1,798.45,169a124.5,124.5,0,0,1-2,20.85c-1.24,6.47-2.58,12.94-4.3,19.3A137.89,137.89,0,0,1,783,233.59c-3,6.14-6.09,12.24-9.49,18.16a198.7,198.7,0,0,1-14.19,21.08,238.18,238.18,0,0,1-18,21.34c-7,7.26-14,14.48-21.36,21.36-5.6,5.23-11.7,9.92-17.63,14.79q-7.12,5.85-14.38,11.58a158.06,158.06,0,0,1-18.08,12.62,1.68,1.68,0,0,1-1.13.22c.25-.41.47-.85.76-1.24C674.65,346.34,680,339.28,685,332a175.08,175.08,0,0,0,14.52-24.41c2.6-5.43,5.11-10.94,7.25-16.56a81.67,81.67,0,0,0,5.3-22.58,55.29,55.29,0,0,0-1-17.4c-1.49-6.18-4.19-11.66-9.38-15.6a22.65,22.65,0,0,0-12.85-4.43c-8.34-.4-15.9,2.18-23,6.23-6.85,3.88-12.23,9.35-16.88,15.59-3.41,4.59-6.71,9.25-10.06,13.88-.32.44-.67.87-1.24,1.6a7,7,0,0,1-.19-1.28,77.74,77.74,0,0,1,2.49-14.75,76.22,76.22,0,0,1,10.42-22.54A132.78,132.78,0,0,1,660,217.25c8.79-10.14,19.33-18.26,30.4-25.73a251.36,251.36,0,0,1,31.86-18.37c5.54-2.66,11.25-5,16.89-7.43a3.67,3.67,0,0,1,1.49-.42,1.51,1.51,0,0,1,1.18.57c2.6,5.84,5.3,11.64,7.62,17.59a63.71,63.71,0,0,1,3.83,16.18,139.85,139.85,0,0,1,1.16,16.59c0,5.94-.71,11.87-1.25,17.8-.58,6.2-1.33,12.38-2,18.57,0,.39,0,.79,0,1.53,1.48-3.93,2.79-7.55,4.22-11.13a104.06,104.06,0,0,0,5.74-22.36A116.49,116.49,0,0,0,762.4,197a103.49,103.49,0,0,0-4.16-25.13c-1.24-4.17-2.83-8.23-4.29-12.34-.77-2.16-1.41-4.3.16-6.38.6-.8,1.22-1.59,1.87-2.35a71.8,71.8,0,0,0,14.35-25.26,84.51,84.51,0,0,0,3.83-17.9A97.51,97.51,0,0,0,774,89.29l-2-19.79Z" transform="translate(0.28 0.28)"/><path class="cls-5" d="M949.67,391.34c-2.62-.27-5.25-.52-7.86-.83-6.34-.75-12.68-1.54-19-2.31-4.21-.52-8.4-1.07-12.61-1.54-3.65-.4-7.31-.76-11-1a333.38,333.38,0,0,0-34.62-.95C857,385,849.5,385.49,842,386c-5.37.39-10.75.89-16.09,1.55-5.63.69-11.23,1.59-16.83,2.49-5.16.84-10.35,1.61-15.45,2.76-10.56,2.4-21.13,4.77-31.57,7.64-9.66,2.65-19.2,5.81-28.71,9a352.37,352.37,0,0,0-34.39,13.73c-10,4.54-19.88,9.4-29.44,14.85-5,2.85-9.94,5.79-15,8.57a23.55,23.55,0,0,1-9.09,2.87,2.84,2.84,0,0,0-.56.19h-5.52c-1-.2-1.28-.78-1.28-1.78,0-3.52-.06-7-.15-10.55a2.82,2.82,0,0,1,1.23-2.54,229.09,229.09,0,0,1,23.65-15.51c6.09-3.6,12.18-7.22,18.39-10.6,9.38-5.08,18.76-10.18,28.34-14.87,8.54-4.18,17.27-8,26.06-11.61,7.53-3.11,15.21-5.89,22.93-8.5q12.56-4.23,25.3-7.86c7.34-2.09,14.78-3.86,22.2-5.65q8.44-2,17-3.74,9.69-1.93,19.45-3.55c8-1.33,15.92-2.6,23.91-3.73q11.5-1.62,23.06-2.88c7.82-.86,15.66-1.53,23.49-2.26,5.85-.55,11.7-1.06,17.54-1.6,2.27-.21,2.22-.16,1.84,2a101.14,101.14,0,0,0-1.72,11.95,28.22,28.22,0,0,0,6.58,19.8c4.08,5,8.35,9.78,12.54,14.66Z" transform="translate(0.28 0.28)"/><path class="cls-6" d="M626.62,449.66a18.49,18.49,0,0,1-3.85-.76c-2.59-1.13-5.1-2.45-7.59-3.77-4.84-2.58-9.57-5.34-14.46-7.79-9.15-4.58-18.33-9.12-27.59-13.45-7.31-3.42-14.68-6.74-22.19-9.68-8.07-3.17-16.28-6-24.52-8.69-7.25-2.39-14.58-4.53-21.94-6.55q-9.3-2.57-18.75-4.59c-8-1.73-16-3.38-24.1-4.74-7-1.18-14-2-21-2.8-6.19-.67-12.42-1-18.63-1.51-11.82-.91-23.65-.88-35.48-.61-7.38.16-14.76.74-22.13,1.32-5.37.42-10.73,1-16.07,1.77-5.78.79-11.52,1.84-17.28,2.7-2.53.38-5.08.57-7.62.83-.43,0-.86,0-1.66,0,.48-.62.72-1,1-1.3,3.36-3.7,6.87-7.27,10-11.12a33.57,33.57,0,0,0,7.59-16.85,42,42,0,0,0-.45-14.18c-.3-1.49-.61-3-.94-4.46-.22-1,.44-1.07,1.12-1q3.66.24,7.3.52c3.66.28,7.32.55,11,.86q6.39.54,12.77,1.13c4.57.43,9.15.82,13.72,1.32s9.12,1.08,13.67,1.69c6.22.84,12.44,1.62,18.63,2.66,9.34,1.57,18.68,3.14,27.95,5.06,10.25,2.12,20.46,4.44,30.6,7.05,8.9,2.29,17.7,5,26.47,7.7,7.44,2.32,14.86,4.72,22.12,7.54,10.28,4,20.52,8.11,30.56,12.66,9.24,4.19,18.31,8.79,27.22,13.64,7.89,4.29,15.48,9.15,23.17,13.81,5.05,3.08,10,6.27,15.06,9.39q6,3.72,12.07,7.38a2,2,0,0,1,1.15,1.91c-.12,2.52-.14,5-.22,7.55,0,1.24-.22,2.48-.18,3.71a1.4,1.4,0,0,1-1.26,1.67Z" transform="translate(0.28 0.28)"/><path class="cls-6" d="M624.23,386.12a40.33,40.33,0,0,1-3.7-2.07c-4.79-3.4-9.69-6.67-14.25-10.36-8.1-6.56-16.11-13.25-23.94-20.13a227.61,227.61,0,0,1-23-23.28,200.08,200.08,0,0,1-14.91-19.67,160.72,160.72,0,0,1-15.39-29.11,140.5,140.5,0,0,1-7.66-26.2,127.05,127.05,0,0,1-2-29A129.6,129.6,0,0,1,522,206.23a205.76,205.76,0,0,1,6.4-24.45c2.8-8.44,6-16.71,10.67-24.33.3-.48.67-.92,1-1.38l.44.13c-.13,1.76-.26,3.52-.4,5.28-.53,6.89-1.62,13.74-1.35,20.68A70.7,70.7,0,0,0,542,200.28a60.11,60.11,0,0,0,6.28,14.09,32.6,32.6,0,0,0,7.09,8.38,2,2,0,0,1,.74,2.41c-1,3.36-1.95,6.76-3.09,10.08a99.65,99.65,0,0,0-3.73,15.12,88,88,0,0,0-1,16.37,65.72,65.72,0,0,0,2.54,16.91c1.74,6.27,3.83,12.45,5.79,18.66a2.89,2.89,0,0,0,.7,1.23c0-.66.05-1.32,0-2-.43-5.18-1-10.34-1.33-15.52-.32-4.54-.65-9.1-.66-13.64,0-8,.38-16,2.57-23.76A39.45,39.45,0,0,1,565.34,234a1.82,1.82,0,0,1,2.46-.67c4,1.79,8.13,3.39,12,5.37,5.92,3,11.73,6.22,17.53,9.43a131.65,131.65,0,0,1,19.42,13.39,139.32,139.32,0,0,1,15.67,14.45,71.51,71.51,0,0,1,11.48,18.19,56.58,56.58,0,0,1,4.57,14.1,61.75,61.75,0,0,1,.46,6.68,4.63,4.63,0,0,1-.23.9c-1.24-1.64-2.33-3-3.38-4.46-3.75-5.13-7.34-10.38-12-14.82A38.86,38.86,0,0,0,614,286c-5.55-1.12-11-.79-15.83,2.73a20.07,20.07,0,0,0-7.32,11,43.36,43.36,0,0,0-1.22,16.74,85.61,85.61,0,0,0,6.83,25.12,142.31,142.31,0,0,0,15.81,27.88c3.82,5.28,7.82,10.42,11.74,15.63a9.21,9.21,0,0,1,.49.78Z" transform="translate(0.28 0.28)"/><path class="cls-6" d="M627.67,422.72a4.46,4.46,0,0,1-.88-.24L609.1,412.36c-4.93-2.83-9.83-5.69-14.77-8.48-6-3.36-11.88-6.77-17.93-9.95-4.56-2.39-9.27-4.5-13.95-6.65s-9.61-4.35-14.46-6.43c-5.48-2.34-11-4.66-16.51-6.83q-11.28-4.39-22.66-8.54c-4.62-1.68-9.3-3.17-14-4.68s-9.53-3-14.33-4.41q-8.58-2.46-17.24-4.67c-5.38-1.38-10.77-2.74-16.21-3.84-9-1.83-18-3.62-27.09-5.08-8.32-1.35-16.7-2.32-25.07-3.3-6.3-.75-12.63-1.3-18.95-1.86-3.15-.27-6.31-.35-9.45-.57a11.94,11.94,0,0,1-2-.47,6.47,6.47,0,0,1,.89-1.89c1.94-2,3.9-4,6-5.87,5.53-4.93,8.61-10.84,7.69-18.43-.11-.92.27-1.1,1.11-1,5.71.66,11.43,1.23,17.14,2,6,.76,12,1.49,17.91,2.54,7.83,1.37,15.66,2.81,23.39,4.62,10,2.32,19.89,4.81,29.72,7.62a285.31,285.31,0,0,1,33.15,11.59c8.86,3.78,17.77,7.47,26.38,11.77,9.08,4.53,17.88,9.6,26.68,14.66a229.61,229.61,0,0,1,25.91,17.32c9.45,7.3,18.7,14.87,27.93,22.45,3.3,2.71,6.26,5.83,9.45,8.68,2.17,1.94,4.53,3.67,6.67,5.65a29.74,29.74,0,0,1,3,3.66C627.62,422.09,627.6,422.36,627.67,422.72Z" transform="translate(0.28 0.28)"/><path class="cls-5" d="M642.56,423.32a14.44,14.44,0,0,1,3-3.71l8.71-8.05c.79-.73,1.59-1.46,2.42-2.15,7.08-6,14.11-12,21.29-17.88,4.95-4,10-8,15.23-11.65,7.31-5.16,14.72-10.2,22.28-15,6-3.81,12.34-7.26,18.64-10.64,5.66-3,11.42-5.93,17.27-8.59,6.76-3.08,13.6-6,20.53-8.69,7.19-2.78,14.48-5.31,21.8-7.74,5.22-1.73,10.54-3.24,15.87-4.64,7.88-2.06,15.77-4.11,23.73-5.84q13-2.83,26.13-5c8.31-1.39,16.67-2.41,25-3.58,2.25-.31,4.52-.52,6.77-.85,1-.13,1.31.16,1.31,1.13a39.66,39.66,0,0,0,.15,6c.69,4.58,3.16,8.23,6.44,11.38,2.05,2,4.15,3.87,6.16,5.87a12.1,12.1,0,0,1,1.49,2.15c.45.73.18,1.13-.64,1.2-1.23.1-2.47.2-3.7.28-5.14.33-10.29.56-15.42,1-6.28.57-12.55,1.3-18.82,2-3.84.44-7.69.95-11.52,1.53-4.77.73-9.54,1.51-14.29,2.39-6.21,1.14-12.42,2.27-18.58,3.66-7.48,1.67-14.94,3.51-22.35,5.46q-9.45,2.47-18.78,5.37c-6.91,2.14-13.77,4.44-20.6,6.82q-9.06,3.15-18,6.66c-6.14,2.42-12.21,5-18.25,7.62-6.41,2.79-12.8,5.64-19.1,8.68q-10.62,5.15-21.06,10.69c-6.25,3.3-12.43,6.76-18.57,10.26-7.5,4.28-14.93,8.69-22.39,13-.63.37-1.29.7-1.94,1Z" transform="translate(0.28 0.28)"/><path class="cls-7" d="M549.87,157.33c1.41.18,2.82.34,4.23.55,7.74,1.18,15.47,2.39,23.21,3.56,6.6,1,13.18,2.06,19.8,2.85,3.48.42,5.51,2.53,7.49,5q14,17.63,28,35.19c.21.26.38.56.68,1a13.74,13.74,0,0,1-1.84,0q-9.54-1.47-19.07-3c-1.8-.28-1.83-.24-1.84,1.54v14.28c0,.36,0,.71,0,1.07,0,.69-.39,1.14-1,1a1.41,1.41,0,0,1-.85-1c-.08-2.19,0-4.4,0-6.59,0-3.16,0-6.32,0-9.48,0-1-.3-1.31-1.29-1.39-2.23-.19-4.44-.53-6.66-.8a2.38,2.38,0,0,0-1.15.07l5.07,1.24c.43.11.84.27,1.26.39.87.26,1.35.8,1,1.7-1.12,2.64-2,5.45-3.51,7.83a97.83,97.83,0,0,1-7.8,10.45c-3.3,3.88-7.87,5.54-12.82,6-7.72.74-14.61-1.56-20.76-6.18-4.54-3.4-7.73-7.74-8.8-13.41a25.37,25.37,0,0,1,1.21-12.86,61.35,61.35,0,0,1,9.18-17c.63-.86,1.1-1,1.86-.23a7.49,7.49,0,0,0,1.64,1.23c-5.46-7.79-12-14.76-17.36-22.63Z" transform="translate(0.28 0.28)"/><path class="cls-5" d="M848.48,280.91c-.12.71-.16,1.18-.27,1.63-1.58,6.15,0,11.4,4.51,15.78,2.46,2.39,5.09,4.61,7.6,6.95a19.08,19.08,0,0,1,1.66,2.06c-1,.17-1.59.34-2.24.4A170.18,170.18,0,0,0,835,312q-9.5,2.27-18.92,4.84-9.25,2.55-18.4,5.41c-5.8,1.81-11.55,3.76-17.28,5.77s-11.48,4-17.08,6.32q-11.52,4.75-22.81,10a249.5,249.5,0,0,0-28.42,15.71c-7.71,4.92-15.34,10-22.67,15.46-10.12,7.55-19.92,15.53-29.87,23.3-1.61,1.26-3.25,2.46-4.92,3.64a10.48,10.48,0,0,1-1.65.8l-.33-.31a28.23,28.23,0,0,1,1.9-2.89c3.94-4.73,7.86-9.47,11.94-14.08,1.33-1.5,3.23-2.49,4.68-3.9,2.17-2.11,4.09-4.48,6.27-6.59,3.12-3,6.27-6,9.6-8.82,5.6-4.7,11.23-9.38,17.08-13.76q11-8.26,22.46-16c5.69-3.85,11.52-7.52,17.54-10.82,9.88-5.42,19.92-10.54,30-15.66,5.3-2.71,10.7-5.23,16.11-7.71,5.59-2.57,11.21-5.08,16.89-7.44,7.24-3,14.48-6,21.85-8.65,5.89-2.13,12-3.76,18-5.59A9.89,9.89,0,0,1,848.48,280.91Z" transform="translate(0.28 0.28)"/><path class="cls-6" d="M409.86,307.14c.41-.47.7-.83,1-1.16,3-3,6.13-6,9.05-9.09,2.11-2.26,4-4.82,4.18-8a29.2,29.2,0,0,0-.57-5.55c-.1-.8-.3-1.59-.52-2.73,2,.68,3.66,1.21,5.3,1.81,5.25,1.92,10.51,3.84,15.73,5.84,6.31,2.41,12.62,4.81,18.87,7.39,7.72,3.18,15.44,6.38,23,9.85,9.08,4.15,18.13,8.41,27,13q12.53,6.44,24.65,13.63c6.59,3.91,13,8.11,19.26,12.58,6.62,4.75,12.94,9.91,19.31,15,2.87,2.29,5.61,4.75,8.3,7.25,3.22,3,6.33,6.09,9.47,9.15.94.92,1.85,1.88,2.77,2.83,6.39,6.55,12.82,13.07,19.14,19.7A53.92,53.92,0,0,1,620,404a2.08,2.08,0,0,1,.2.51l-.25.29a26.41,26.41,0,0,1-3.45-2.39,210.07,210.07,0,0,0-19.41-15.83c-9.11-6.77-18.29-13.45-27.6-19.94-5.47-3.81-11.13-7.39-16.91-10.71Q541,349.3,529.17,343.3c-5.09-2.58-10.4-4.74-15.7-6.89q-9.72-3.95-19.58-7.52c-5.63-2-11.33-3.91-17.05-5.69-7.36-2.3-14.74-4.55-22.17-6.61-6.16-1.7-12.38-3.21-18.62-4.59-6-1.33-12.06-2.44-18.11-3.56-2.32-.43-4.67-.64-7-1A7.64,7.64,0,0,1,409.86,307.14Z" transform="translate(0.28 0.28)"/><path class="cls-6" d="M760.87,72.07c-1.11,1.29-2.24,2.56-3.31,3.88q-5.67,7-11.29,14Q735.14,103.78,724,117.6a14.2,14.2,0,0,1-9.37,5.51c-7.4,1-14.78,2.2-22.17,3.3-2.33.35-4.68.6-7,1a2.11,2.11,0,0,0-1.16,1.07,2.92,2.92,0,0,0-.07,1.3c0,7.36,0,14.72,0,22.08,0,1-.28,1.47-1.36,1.41s-1.08-.74-1.08-1.5v-12c0-3.44,0-6.88,0-10.32,0-1.35-.12-1.43-1.47-1.22L658,131.73a7.21,7.21,0,0,1-.83,0,11.83,11.83,0,0,1,.64-1.09q14.58-18.21,29.15-36.42c2.22-2.78,4.34-5.64,6.51-8.46a13.51,13.51,0,0,1,9-5.22c5.1-.76,10.21-1.41,15.31-2.17,5.29-.79,10.57-1.68,15.86-2.49,5.72-.88,11.45-1.71,17.18-2.59,3-.45,5.92-1,8.87-1.42.34-.06.69-.07,1-.11Z" transform="translate(0.28 0.28)"/><path class="cls-6" d="M743,97.36c.84,1.37,1.52,2.45,2.16,3.53,2.5,4.24,5,8.46,7.48,12.71,3.71,6.37,5.32,13.24,4,20.51-1.74,9.33-7,16.41-14.91,21.55a28.86,28.86,0,0,1-20.42,4.18c-2.81-.4-5.59-1-8.4-1.31s-4.41-2.26-6.47-3.63c-3.72-2.48-6.3-6-8.61-9.72-2.4-3.85-4.48-7.91-6.62-11.92a19.86,19.86,0,0,1-1-3.19c-.3-.95.06-1.39,1.06-1.52,6.3-.8,12.6-1.54,18.88-2.48,3.35-.5,6.8-.85,9.81-2.55a14.52,14.52,0,0,0,3.91-3.08c5.51-6.48,10.91-13.06,16.34-19.61Z" transform="translate(0.28 0.28)"/><path class="cls-6" d="M683.29,167.92c-.36,0-.72,0-1.08,0-.65,0-.92-.35-.85-1q.33-3.15.63-6.31a4,4,0,0,0-.54-3.08,1.77,1.77,0,0,1,.42-2.55,2.09,2.09,0,0,1,2.75,0,2,2,0,0,1,.35,2.6c-.91,1-.73,2.09-.53,3.25.29,1.65.5,3.31.72,5C685.42,167.78,685.27,167.94,683.29,167.92Z" transform="translate(0.28 0.28)"/><path class="cls-7" d="M609.39,231.5c-1.46,0-1.66-.23-1.47-1.71s.43-3.08.57-4.63a2.45,2.45,0,0,0-.29-1.33c-.46-.84-.59-1.72.23-2.24a2.25,2.25,0,0,1,1.93,0c.83.46.84,1.33.37,2.21a2.88,2.88,0,0,0-.38,1.45c.1,1.51.26,3,.5,4.52S610.94,231.5,609.39,231.5Z" transform="translate(0.28 0.28)"/></g><path class="cls-8" d="M314.24,512.32l-12.61,24.6-2.17-1.23c.05-.52.08-.92.08-1.23,0-1.72-1.51-3.61-4.49-5.59q-13.8-9.5-32.38-9.49a48,48,0,0,0-14.49,2,17.29,17.29,0,0,0-7.38,4.6,9.73,9.73,0,0,0-2.83,6.67c0,3.92,2.41,6.59,7.19,8,2.49.7,7.8,1.49,16,2.3l12.16,1.23a99.25,99.25,0,0,1,17.53,3.13,41,41,0,0,1,11.87,5.6A26,26,0,0,1,311,562.8a28.88,28.88,0,0,1,3.07,13.07,29.65,29.65,0,0,1-7.19,19.61q-6.51,7.85-20.22,11.58a81.74,81.74,0,0,1-21.92,2.83,93.75,93.75,0,0,1-41.42-10c-2.88-1.34-4.6-2-5.18-2s-1.72.55-3.17,1.67l-2.25-1.15,11.45-25.64,2.24,1.07v1q0,3.45,3.33,6.35,5,4.44,15.57,7.66a68.13,68.13,0,0,0,20,3.22q10.31,0,17.58-3.45a16.6,16.6,0,0,0,6.42-5.1,10.7,10.7,0,0,0,2.41-6.61c0-3.48-1.88-5.94-5.66-7.43q-3.91-1.53-15.94-2.82l-11.92-1.23a167,167,0,0,1-17-2.33,44.35,44.35,0,0,1-9.91-3.58,25.44,25.44,0,0,1-11-10.33A27.6,27.6,0,0,1,216.59,535q0-13.25,9.22-21.91,12.06-11.4,36.25-11.4a83.46,83.46,0,0,1,18.87,2,145.5,145.5,0,0,1,21.86,7.46c3,1.17,4.81,1.77,5.5,1.77a6.47,6.47,0,0,0,3.78-1.77l2.17,1.15Zm88.84,69.07H355l-7.11,14.72a11.7,11.7,0,0,0-1.48,4.81c0,2.25,1.71,3.82,5.2,4.68v2.46h-35V605.6a9.59,9.59,0,0,0,4.74-2.14,20.68,20.68,0,0,0,3.7-6L364,517.15a15.15,15.15,0,0,0,1.85-6.14c0-2.35-1.48-4-4.49-5.05v-2.45H398.8V506c-3,.87-4.57,2.38-4.57,4.53a11.24,11.24,0,0,0,1.48,5L436,596.11a26.86,26.86,0,0,0,4.49,7,9.92,9.92,0,0,0,5.18,2.48v2.46H406.81V605.6c3.41-.55,5.1-2.14,5.1-4.76a11.71,11.71,0,0,0-1.56-4.73l-7.27-14.72Zm-6.63-14.33-17.16-37.25-17.42,37.25Zm84.3-30.61V600a5.32,5.32,0,0,0,1.08,3.6,8.3,8.3,0,0,0,3.89,2v2.46H454.63V605.6a8.15,8.15,0,0,0,3.89-2,5.32,5.32,0,0,0,1.08-3.6V511.48a5.21,5.21,0,0,0-1.08-3.53,8.24,8.24,0,0,0-3.89-2v-2.45h35.95V506q-3.33.82-3.33,3.53c0,1.23.71,2.56,2.17,4.06l58.31,60v-62a5.21,5.21,0,0,0-1.08-3.53,8.24,8.24,0,0,0-3.89-2v-2.45h31.09V506a8.45,8.45,0,0,0-3.89,2,5.21,5.21,0,0,0-1.08,3.53V600a5.32,5.32,0,0,0,1.08,3.6,8.35,8.35,0,0,0,3.89,2v2.46H540.54V605.6q3.26-.71,3.25-3.29c0-1-1.26-2.8-3.8-5.36l-59.24-60.5Zm210.47-24.13-12.61,24.6-2.17-1.23a10.78,10.78,0,0,0,.08-1.23c0-1.72-1.5-3.61-4.49-5.59q-13.8-9.5-32.38-9.49a48,48,0,0,0-14.49,2,17.29,17.29,0,0,0-7.38,4.6,9.72,9.72,0,0,0-2.82,6.67q0,5.88,7.19,8c2.48.7,7.8,1.49,16,2.3l12.16,1.23a99.25,99.25,0,0,1,17.53,3.13,41,41,0,0,1,11.87,5.6A26,26,0,0,1,688,562.8a28.88,28.88,0,0,1,3.07,13.07,29.6,29.6,0,0,1-7.19,19.61q-6.5,7.85-20.22,11.58a81.72,81.72,0,0,1-21.91,2.83,93.76,93.76,0,0,1-41.43-10c-2.88-1.34-4.6-2-5.18-2s-1.72.55-3.17,1.67l-2.25-1.15,11.45-25.64,2.24,1.07v1c0,2.3,1.12,4.42,3.33,6.35,3.36,3,8.54,5.52,15.58,7.66a68,68,0,0,0,20,3.22q10.32,0,17.58-3.45a16.71,16.71,0,0,0,6.43-5.1,10.75,10.75,0,0,0,2.4-6.61c0-3.48-1.88-5.94-5.66-7.43q-3.91-1.53-15.94-2.82l-11.92-1.23a167.45,167.45,0,0,1-17-2.33,44.35,44.35,0,0,1-9.91-3.58,25.44,25.44,0,0,1-11-10.33A27.6,27.6,0,0,1,593.57,535q0-13.25,9.23-21.91,12-11.4,36.24-11.4a83.46,83.46,0,0,1,18.87,2,145.5,145.5,0,0,1,21.86,7.46c3,1.17,4.81,1.77,5.5,1.77a6.44,6.44,0,0,0,3.78-1.77l2.17,1.15Zm59.85,46.95L735.13,572v28a5.21,5.21,0,0,0,1.13,3.63,7.42,7.42,0,0,0,3.84,2v2.46h-33V605.6a8.15,8.15,0,0,0,3.89-2,5.32,5.32,0,0,0,1.08-3.6V511.48A5.21,5.21,0,0,0,711,508a8.24,8.24,0,0,0-3.89-2v-2.45h33V506a7.48,7.48,0,0,0-3.89,2,5.35,5.35,0,0,0-1.08,3.56v36.6l43.51-35.14q3-2.46,3-3.92c0-1.46-1.5-2.51-4.49-3.06v-2.45h43.22V506a13,13,0,0,0-3.86,1.23c-.79.45-3,2.2-6.74,5.2l-6,4.89-35.95,28.55,40.77,48.5a70.82,70.82,0,0,0,8.16,8.71,13.42,13.42,0,0,0,6.32,2.56v2.46H781.81V605.6c2.75-.55,4.12-1.54,4.12-2.9q0-1.1-3.72-5.67l-31.14-37.76Zm160.67,22.12H863.68l-7.11,14.72a11.7,11.7,0,0,0-1.48,4.81c0,2.25,1.72,3.82,5.2,4.68v2.46h-35V605.6a9.59,9.59,0,0,0,4.73-2.14,20.68,20.68,0,0,0,3.7-6l38.88-80.32a15,15,0,0,0,1.85-6.14c0-2.35-1.48-4-4.49-5.05v-2.45h37.48V506c-3,.87-4.57,2.38-4.57,4.53a11.24,11.24,0,0,0,1.48,5l40.29,80.58a27.12,27.12,0,0,0,4.49,7,10,10,0,0,0,5.18,2.48v2.46H915.46V605.6c3.41-.55,5.1-2.14,5.1-4.76a11.82,11.82,0,0,0-1.55-4.73l-7.27-14.72Zm-6.64-14.33-17.16-37.25-17.42,37.25Zm86.23-1.67v34.69a5,5,0,0,0,1.14,3.56,7.38,7.38,0,0,0,3.83,2v2.46h-33V605.6a8.15,8.15,0,0,0,3.89-2,5.19,5.19,0,0,0,1.08-3.53V511.56a5.33,5.33,0,0,0-1.08-3.61,8.24,8.24,0,0,0-3.89-2v-2.45h66.14a105.71,105.71,0,0,1,19.17,1.38A34.33,34.33,0,0,1,1061,509.7a24.76,24.76,0,0,1,9.14,10.8,35,35,0,0,1,2.86,14.09q0,25.6-28.74,30l20.54,28.87c3.6,5.07,6.27,8.31,7.93,9.78a10.32,10.32,0,0,0,6.16,2.4v2.46H1040.6V605.6q4-.63,4-2.74c0-.94-1.22-3.17-3.65-6.67l-21.41-30.8Zm0-17.23H1027a90.64,90.64,0,0,0,11.16-.47,17.25,17.25,0,0,0,6-1.91c3.93-2.09,5.89-5.85,5.89-11.34s-2-9.23-5.89-11.33a17.08,17.08,0,0,0-5.92-2,96.49,96.49,0,0,0-11.19-.42H991.33Z" transform="translate(0.28 0.28)"/><path class="cls-8" d="M475.74,680l9,13.37-1.23.84a3.72,3.72,0,0,0-2.19-1.21q-.84,0-4.79,2.26a66.89,66.89,0,0,1-13.72,6.25,48.05,48.05,0,0,1-13.25,1.62c-10.19,0-18.58-2.39-25.11-7.17a30.19,30.19,0,0,1-9.11-10.37A32.2,32.2,0,0,1,411.52,670a31.32,31.32,0,0,1,6.88-20.19q10.34-12.9,31.23-12.9a47.55,47.55,0,0,1,13.19,1.6,67.27,67.27,0,0,1,13.73,6.27c2.63,1.47,4.23,2.19,4.79,2.19a3.72,3.72,0,0,0,2.19-1.21l1.23.85-9,13.36-1.27-.85a10.74,10.74,0,0,0,.09-1.26,3.54,3.54,0,0,0-1.18-2.55,19.74,19.74,0,0,0-4.22-2.88,35.89,35.89,0,0,0-17.77-4.69q-11.08,0-17.69,5.49a22,22,0,0,0,0,33.55q6.62,5.49,17.69,5.49a35.89,35.89,0,0,0,17.77-4.69,19.74,19.74,0,0,0,4.22-2.88,3.56,3.56,0,0,0,1.18-2.56,9.73,9.73,0,0,0-.09-1.22l1.27-.9Zm64.88,5.68H511.2l-4.36,9a7.27,7.27,0,0,0-.9,3c0,1.38,1.05,2.34,3.19,2.86V702H487.7v-1.51a5.71,5.71,0,0,0,2.9-1.31,12.53,12.53,0,0,0,2.26-3.66l23.81-49.17a9.28,9.28,0,0,0,1.13-3.76c0-1.44-.91-2.46-2.75-3.09V638h23v1.5c-1.87.53-2.81,1.46-2.81,2.77a6.88,6.88,0,0,0,.91,3.09l24.66,49.32a16.4,16.4,0,0,0,2.75,4.29,6,6,0,0,0,3.18,1.52V702H542.9v-1.51c2.08-.33,3.12-1.31,3.12-2.91a7.33,7.33,0,0,0-.95-2.9l-4.45-9Zm-4.06-8.77-10.51-22.8-10.66,22.8ZM612,702l-23.85-44.22v39.29a3.24,3.24,0,0,0,.66,2.21,5.14,5.14,0,0,0,2.38,1.21V702h-19v-1.51a5,5,0,0,0,2.38-1.21,3.29,3.29,0,0,0,.66-2.21V642.88a3.19,3.19,0,0,0-.66-2.16,5,5,0,0,0-2.38-1.22V638h25v1.5a2.52,2.52,0,0,0-2.23,2.58,4.83,4.83,0,0,0,.66,2.16l17.64,33.06,17.86-32.5a7.66,7.66,0,0,0,1.19-3.14c0-1.28-.78-2-2.37-2.16V638h24.47v1.5a5.05,5.05,0,0,0-2.38,1.22,3.14,3.14,0,0,0-.66,2.16v54.19a3.24,3.24,0,0,0,.66,2.21,5.14,5.14,0,0,0,2.38,1.21V702H634.13v-1.51a4.38,4.38,0,0,0,2.34-1.2,3.15,3.15,0,0,0,.7-2.22V657.78L612,702Zm71.15-26v21.1a3.08,3.08,0,0,0,.7,2.17,4.42,4.42,0,0,0,2.34,1.2V702H666v-1.51a5,5,0,0,0,2.38-1.21,3.17,3.17,0,0,0,.66-2.16V642.93a3.22,3.22,0,0,0-.66-2.21A5,5,0,0,0,666,639.5V638H706.4a53.38,53.38,0,0,1,11.21.94,20,20,0,0,1,7.31,3.23,16.18,16.18,0,0,1,5.13,6.28A20.31,20.31,0,0,1,731.9,657a19,19,0,0,1-3.51,11.35,16.5,16.5,0,0,1-8,5.92c-3.35,1.17-8,1.76-14,1.76Zm0-10.54h21.57c4.3,0,7.31-.45,9.06-1.36a6.58,6.58,0,0,0,2.67-2.84,9.45,9.45,0,0,0,0-8.54,6.58,6.58,0,0,0-2.67-2.84c-1.72-.91-4.72-1.36-9.06-1.36H683.16v16.94Zm123-22.55v35.86q0,10.15-3.79,15.24-6.84,9.09-28.22,9.09c-10.29,0-18.19-1.65-23.64-4.93a15.07,15.07,0,0,1-6.65-7.78,33.57,33.57,0,0,1-1.8-11.62V642.93a3.22,3.22,0,0,0-.66-2.21A5,5,0,0,0,739,639.5V638h20.24v1.5a4.68,4.68,0,0,0-2.39,1.2,3.27,3.27,0,0,0-.68,2.23v31.91a39.27,39.27,0,0,0,.62,8.18,9.14,9.14,0,0,0,2.32,4.43q4.54,4.78,15.56,4.79t15.58-4.79a9.43,9.43,0,0,0,2.28-4.43,40.15,40.15,0,0,0,.61-8.18V642.93a3.22,3.22,0,0,0-.66-2.21,5,5,0,0,0-2.38-1.22V638h19.08v1.5a5.05,5.05,0,0,0-2.38,1.22,3.28,3.28,0,0,0-.66,2.21Zm73.58.46L872,658.45l-1.33-.75c0-.32.05-.56.05-.75,0-1.06-.92-2.21-2.75-3.43a34.14,34.14,0,0,0-19.83-5.81,29.15,29.15,0,0,0-8.86,1.22,10.55,10.55,0,0,0-4.52,2.82,5.89,5.89,0,0,0-1.73,4.08c0,2.4,1.47,4,4.4,4.91a71,71,0,0,0,9.78,1.41l7.44.75a60.3,60.3,0,0,1,10.73,1.92,25,25,0,0,1,7.26,3.43,15.86,15.86,0,0,1,5.1,6,17.67,17.67,0,0,1,1.88,8,18.14,18.14,0,0,1-4.4,12c-2.66,3.2-6.78,5.55-12.38,7.09a50.33,50.33,0,0,1-13.42,1.73,57.29,57.29,0,0,1-25.35-6.1,13.53,13.53,0,0,0-3.18-1.22,4,4,0,0,0-1.94,1l-1.37-.71,7-15.69,1.38.65v.61a5.14,5.14,0,0,0,2,3.89q3.07,2.71,9.53,4.69a41.92,41.92,0,0,0,12.22,2,24.9,24.9,0,0,0,10.76-2.12,10.16,10.16,0,0,0,3.93-3.12,6.54,6.54,0,0,0,1.47-4q0-3.18-3.46-4.54c-1.6-.63-4.86-1.2-9.76-1.73l-7.3-.75A102.14,102.14,0,0,1,835,674.5a26.74,26.74,0,0,1-6.07-2.19,15.52,15.52,0,0,1-6.77-6.32,16.86,16.86,0,0,1-2.23-8.72,17.61,17.61,0,0,1,5.65-13.42q7.38-7,22.18-7a51,51,0,0,1,11.56,1.24,89.41,89.41,0,0,1,13.38,4.57,14.6,14.6,0,0,0,3.36,1.08,3.92,3.92,0,0,0,2.32-1.08Z" transform="translate(0.28 0.28)"/></svg>