<svg id="Layer_1" data-name="Layer 1" xmlns="http://www.w3.org/2000/svg" xmlns:xlink="http://www.w3.org/1999/xlink" viewBox="0 0 2160 1296"><defs><style>.cls-1,.cls-8{fill:none;}.cls-1,.cls-6{stroke:#000;}.cls-1,.cls-10,.cls-11,.cls-12,.cls-6,.cls-8{stroke-miterlimit:22.93;}.cls-1{stroke-width:0.22px;}.cls-2,.cls-3,.cls-4,.cls-7,.cls-8{fill-rule:evenodd;}.cls-2{fill:url(#GradientFill_1);}.cls-3{fill:url(#GradientFill_1-2);}.cls-4{fill:url(#GradientFill_1-3);}.cls-5{fill:#b0aba1;}.cls-6{fill:#fff;stroke-width:0.28px;}.cls-7,.cls-9{fill:#070606;}.cls-8{stroke:#fff;stroke-width:8.52px;stroke-dasharray:42.62 42.62;}.cls-10,.cls-11,.cls-12{fill:#f5fa04;stroke:#070606;}.cls-10{stroke-width:0.57px;}.cls-11{stroke-width:0.71px;}.cls-12{stroke-width:1.42px;}.cls-13{font-size:182.53px;font-family:Georgia;}.cls-14{font-size:76.28px;font-family:TimesNewRomanPSMT, Times New Roman;}.cls-15{letter-spacing:0.02em;}.cls-16{letter-spacing:-0.04em;}.cls-17{letter-spacing:0.02em;}.cls-18{letter-spacing:-0.07em;}.cls-19{letter-spacing:-0.06em;}</style><linearGradient id="GradientFill_1" x1="941.09" y1="618.7" x2="1057.32" y2="618.7" gradientUnits="userSpaceOnUse"><stop offset="0" stop-color="#362e2f"/><stop offset="0.08" stop-color="#433c3c"/><stop offset="0.52" stop-color="#8c8984"/><stop offset="0.84" stop-color="#bab9b1"/><stop offset="1" stop-color="#cccbc2"/></linearGradient><linearGradient id="GradientFill_1-2" x1="662.36" y1="471.94" x2="734.44" y2="471.94" xlink:href="#GradientFill_1"/><linearGradient id="GradientFill_1-3" x1="336" y1="384.32" x2="389.87" y2="384.32" xlink:href="#GradientFill_1"/></defs><rect class="cls-1" width="2160" height="1296"/><path class="cls-2" d="M941.09,479.52h116.23c-40.65,95.54-39.93,188.28,0,278.36H941.09C978.83,663.71,977.74,571,941.09,479.52Z"/><path class="cls-3" d="M662.36,373.91h72.08c-25.21,67.29-24.76,132.62,0,196.07H662.36C685.77,503.65,685.09,438.32,662.36,373.91Z"/><path class="cls-4" d="M336,311.06h53.87c-18.84,50.29-18.51,99.1,0,146.51H336C353.49,408,353,359.19,336,311.06Z"/><rect class="cls-5" x="1085.11" y="48.84" width="143.01" height="525.18"/><rect class="cls-5" x="941.86" y="108.32" width="143.25" height="390.42"/><rect class="cls-5" x="1228.85" y="186.99" width="143.25" height="525.18"/><rect class="cls-6" x="1107.41" y="87.92" width="19.18" height="26.71"/><rect class="cls-6" x="1126.59" y="87.92" width="19.18" height="26.71"/><rect class="cls-6" x="1107.41" y="114.63" width="19.18" height="26.71"/><rect class="cls-6" x="1126.59" y="114.63" width="19.18" height="26.71"/><rect class="cls-6" x="1167.47" y="87.92" width="19.18" height="26.71"/><rect class="cls-6" x="1186.65" y="87.92" width="19.18" height="26.71"/><rect class="cls-6" x="1167.47" y="114.63" width="19.18" height="26.71"/><rect class="cls-6" x="1186.65" y="114.63" width="19.18" height="26.71"/><rect class="cls-6" x="1107.41" y="183.99" width="19.18" height="26.71"/><rect class="cls-6" x="1126.59" y="183.99" width="19.18" height="26.71"/><rect class="cls-6" x="1107.41" y="210.7" width="19.18" height="26.71"/><rect class="cls-6" x="1126.59" y="210.7" width="19.18" height="26.71"/><rect class="cls-6" x="1167.47" y="183.99" width="19.18" height="26.71"/><rect class="cls-6" x="1186.65" y="183.99" width="19.18" height="26.71"/><rect class="cls-6" x="1167.47" y="210.7" width="19.18" height="26.71"/><rect class="cls-6" x="1186.65" y="210.7" width="19.18" height="26.71"/><rect class="cls-6" x="1107.41" y="280.06" width="19.18" height="26.71"/><rect class="cls-6" x="1126.59" y="280.06" width="19.18" height="26.71"/><rect class="cls-6" x="1107.41" y="306.77" width="19.18" height="26.71"/><rect class="cls-6" x="1126.59" y="306.77" width="19.18" height="26.71"/><rect class="cls-6" x="1167.47" y="280.06" width="19.18" height="26.71"/><rect class="cls-6" x="1186.65" y="280.06" width="19.18" height="26.71"/><rect class="cls-6" x="1167.47" y="306.77" width="19.18" height="26.71"/><rect class="cls-6" x="1186.65" y="306.77" width="19.18" height="26.71"/><rect class="cls-6" x="1107.41" y="376.13" width="19.18" height="26.71"/><rect class="cls-6" x="1126.59" y="376.13" width="19.18" height="26.71"/><rect class="cls-6" x="1107.41" y="402.84" width="19.18" height="26.71"/><rect class="cls-6" x="1126.59" y="402.84" width="19.18" height="26.71"/><rect class="cls-6" x="1251.27" y="209.5" width="19.18" height="26.71"/><rect class="cls-6" x="1270.45" y="209.5" width="19.18" height="26.71"/><rect class="cls-6" x="1251.27" y="236.21" width="19.18" height="26.71"/><rect class="cls-6" x="1270.45" y="236.21" width="19.18" height="26.71"/><rect class="cls-6" x="1311.33" y="209.5" width="19.18" height="26.71"/><rect class="cls-6" x="1330.51" y="209.5" width="19.18" height="26.71"/><rect class="cls-6" x="1311.33" y="236.21" width="19.18" height="26.71"/><rect class="cls-6" x="1330.51" y="236.21" width="19.18" height="26.71"/><rect class="cls-6" x="1311.33" y="294.43" width="19.18" height="26.71"/><rect class="cls-6" x="1330.51" y="294.43" width="19.18" height="26.71"/><rect class="cls-6" x="1311.33" y="321.14" width="19.18" height="26.71"/><rect class="cls-6" x="1330.51" y="321.14" width="19.18" height="26.71"/><rect class="cls-6" x="1311.33" y="464.29" width="19.18" height="26.71"/><rect class="cls-6" x="1330.51" y="464.29" width="19.18" height="26.71"/><rect class="cls-6" x="1311.33" y="491" width="19.18" height="26.71"/><rect class="cls-6" x="1330.51" y="491" width="19.18" height="26.71"/><rect class="cls-6" x="964.28" y="127.41" width="19.18" height="26.71"/><rect class="cls-6" x="983.46" y="127.41" width="19.18" height="26.71"/><rect class="cls-6" x="964.28" y="154.12" width="19.18" height="26.71"/><rect class="cls-6" x="983.46" y="154.12" width="19.18" height="26.71"/><rect class="cls-6" x="1024.34" y="127.41" width="19.18" height="26.71"/><rect class="cls-6" x="1043.52" y="127.41" width="19.18" height="26.71"/><rect class="cls-6" x="1024.34" y="154.12" width="19.18" height="26.71"/><rect class="cls-6" x="1043.52" y="154.12" width="19.18" height="26.71"/><rect class="cls-6" x="1024.34" y="226.34" width="19.18" height="26.71"/><rect class="cls-6" x="1043.52" y="226.34" width="19.18" height="26.71"/><rect class="cls-6" x="1024.34" y="253.04" width="19.18" height="26.71"/><rect class="cls-6" x="1043.52" y="253.04" width="19.18" height="26.71"/><rect class="cls-6" x="1024.34" y="325.26" width="19.18" height="26.71"/><rect class="cls-6" x="1043.52" y="325.26" width="19.18" height="26.71"/><rect class="cls-6" x="1024.34" y="351.97" width="19.18" height="26.71"/><rect class="cls-6" x="1043.52" y="351.97" width="19.18" height="26.71"/><rect class="cls-6" x="964.28" y="424.18" width="19.18" height="26.71"/><rect class="cls-6" x="983.46" y="424.18" width="19.18" height="26.71"/><rect class="cls-6" x="964.28" y="450.89" width="19.18" height="26.71"/><rect class="cls-6" x="983.46" y="450.89" width="19.18" height="26.71"/><rect class="cls-6" x="1024.34" y="424.18" width="19.18" height="26.71"/><rect class="cls-6" x="1043.52" y="424.18" width="19.18" height="26.71"/><rect class="cls-6" x="1024.34" y="450.89" width="19.18" height="26.71"/><rect class="cls-6" x="1043.52" y="450.89" width="19.18" height="26.71"/><polygon class="cls-7" points="298.24 286.54 331.02 286.79 363.8 287.27 396.09 288.48 428.38 289.94 460.19 291.88 492 294.07 523.32 296.98 554.64 300.14 585.48 303.54 616.07 307.42 646.42 311.79 676.52 316.65 706.14 321.75 735.53 327.09 764.66 332.92 793.31 338.99 821.72 345.54 849.64 352.58 877.32 359.62 904.51 367.39 931.46 375.16 957.93 383.42 983.91 391.92 1009.41 400.9 1034.66 410.13 1059.18 419.6 1083.46 429.31 1107.25 439.5 1130.56 449.7 1153.38 460.38 1175.72 471.31 1197.58 482.72 1218.94 494.13 1239.82 505.79 1259.98 517.93 1279.64 530.07 1298.82 542.69 1317.52 555.57 1335.49 568.43 1352.97 581.78 1369.72 595.14 1385.99 608.98 1401.77 622.82 1416.58 636.9 1431.15 651.23 1444.74 665.8 1457.86 680.6 1470.24 695.42 1481.89 710.47 1493.06 725.77 1503.26 741.31 1512.97 757.09 1521.96 772.87 1530.21 788.65 1537.74 804.92 1544.29 821.19 1550.36 837.45 1555.46 854.21 1560.08 870.72 1563.72 887.71 1566.39 904.47 1568.57 921.71 1569.79 938.7 1569.89 964.92 666.66 966.48 728 943.8 744.75 937.25 761.02 930.69 777.04 923.89 792.58 916.85 807.64 909.81 822.21 902.77 836.29 895.48 849.88 888.2 863 880.91 875.62 873.39 887.76 865.86 899.66 858.09 910.83 850.32 921.51 842.31 931.46 834.54 941.18 826.53 950.16 818.27 958.9 810.02 966.91 801.76 974.2 793.51 981.24 785.01 987.55 776.51 993.38 768.01 998.48 759.52 1003.09 750.77 1007.22 742.03 1010.62 733.05 1013.29 724.31 1015.48 715.33 1017.17 706.34 1018.15 697.36 1018.39 688.38 1018.15 680.36 1017.42 672.59 1016.2 664.58 1014.5 656.81 1012.32 649.04 1009.89 641.51 1006.73 633.75 1003.33 626.22 999.21 618.69 994.84 611.16 989.98 603.64 984.88 596.11 979.05 588.83 972.98 581.54 966.43 574.26 959.39 566.98 952.1 559.93 944.33 552.89 936.08 545.85 927.34 538.81 918.35 532.01 909.13 524.97 899.41 518.41 889.22 511.62 878.53 505.06 867.61 498.5 856.44 491.95 844.78 485.64 832.89 479.08 820.51 473.01 807.64 466.7 794.77 460.63 781.17 454.56 767.58 448.73 753.49 442.9 739.17 437.08 724.36 431.25 709.3 425.66 694.01 420.32 678.23 414.74 662.2 409.4 645.93 404.3 629.42 399.2 612.42 394.1 595.43 389 577.95 384.14 560.22 379.53 542.26 374.92 523.8 370.31 505.35 365.94 486.65 361.57 467.47 357.19 448.05 353.07 428.63 349.18 408.72 345.3 388.81 341.41 347.77 334.13 306.01 327.33 263.52 321.02 220.06 315.19 183.4 311.06 183.4 289.45 200.39 288.48 224.67 287.51 249.2 287.02 273.72 286.54 298.24 286.54 298.24 286.54"/><path class="cls-8" d="M183.4,300.26c598,.65,1231.39,259.57,1009.75,647.7"/><rect class="cls-9" x="439.96" y="227.31" width="5.16" height="66.9"/><rect class="cls-10" x="424.7" y="209.47" width="35.69" height="35.69" transform="translate(-31.12 379.5) rotate(-45)"/><rect class="cls-9" x="707.28" y="246.69" width="6.61" height="85.61"/><rect class="cls-10" x="687.74" y="223.85" width="45.67" height="45.67" transform="translate(33.69 574.71) rotate(-45)"/><rect class="cls-9" x="956.01" y="289.3" width="8.26" height="106.96"/><rect class="cls-11" x="931.61" y="260.77" width="57.06" height="57.06" transform="translate(76.65 763.65) rotate(-45)"/><rect class="cls-9" x="1250.67" y="392.05" width="11.78" height="152.58"/><rect class="cls-11" x="1215.85" y="351.35" width="81.4" height="81.4" transform="translate(90.82 1003.35) rotate(-45)"/><rect class="cls-9" x="1482.68" y="580.68" width="17.04" height="220.71"/><rect class="cls-12" x="1432.32" y="521.81" width="117.74" height="117.74" transform="translate(26.16 1224.51) rotate(-45)"/><text class="cls-13" transform="translate(264.87 1136.54)">THE SETU NIRMAN</text><rect x="257.66" y="1160.69" width="1718.94" height="7.31"/><text class="cls-14" transform="translate(571.51 1246.52)"><tspan class="cls-15">STRUCTURA</tspan><tspan class="cls-16" x="470.33" y="0">L</tspan><tspan class="cls-17" x="514.09" y="0" xml:space="preserve"> CONSU</tspan><tspan class="cls-18" x="802.94" y="0">L</tspan><tspan class="cls-19" x="844.41" y="0">T</tspan><tspan class="cls-15" x="886.76" y="0">ANT</tspan><tspan x="1049.14" y="0">S</tspan></text></svg>