<svg id="Layer_1" data-name="Layer 1" xmlns="http://www.w3.org/2000/svg" viewBox="0 0 563 309.65"><defs><style>.cls-1{fill:#fefefe;}.cls-2{fill:#0e7e4e;}.cls-3{fill:#f5f9f8;}.cls-4{fill:#2f9067;}</style></defs><path class="cls-1" d="M122,142.81H685V452.46H122ZM260.44,297.22c-.43,78.65,62.44,142.62,140.67,143.11,78.89.5,143.12-62.11,143.69-140.09.58-79.1-62.42-143.19-141.1-143.55S260.87,219.14,260.44,297.22Z" transform="translate(-122 -142.81)"/><path class="cls-2" d="M260.44,297.22c.43-78.08,64.46-140.89,143.26-140.53s141.68,64.45,141.1,143.55c-.57,78-64.8,140.59-143.69,140.09C322.88,439.84,260,375.87,260.44,297.22ZM402.64,435.3A136.79,136.79,0,1,0,265.49,298.09,136.52,136.52,0,0,0,402.64,435.3Z" transform="translate(-122 -142.81)"/><path class="cls-3" d="M402.64,435.3A136.79,136.79,0,1,1,539.75,298.93,136.53,136.53,0,0,1,402.64,435.3Zm-106-164,3-.38c-6.68-6.86,3-7.82,5.13-12-6.5-.81-12.2-1.75-17.93-2.08-1.79-.1-3.69,1.46-5.53,2.25,1.12,1.73,1.88,4,3.44,5.07C288.52,266.81,292.65,269,296.63,271.29ZM348.3,393.12c-.54-1.81-1.09-3.62-2.2-7.33L333,405.92l2.64,1.79L348.37,393l-5.73,18.56,1.65.73,4.83-6.31c1,3.69,2,7.1,2.94,10.51h2.54L362.94,397l-2.07-1L354.09,405V391.64ZM474.08,212.33l1.6,1.29c-.46,3.12-.93,6.24-1.39,9.36l2.86.73L491,207.05l-2.19-2c-2.12,1.36-4.25,2.72-6.65,4.24V198.82l-2.11-.84-14,17,2,2.05Zm27.08,85.34c0-53-44-95.52-99-95.46-54.37.06-98.36,42.33-98.82,94.94s44.11,95.84,98.75,95.91C457.05,393.14,501.15,350.66,501.16,297.67Zm-211.94,14-1.37-2.12,9.89-5.7c-.85-1.05-1.27-1.88-1.53-1.83-3.35.61-6.65,1.64-10,2-12.16,1.32-12.36,1.5-8.91,13.16l20.45-1.93v-2.46Zm214.34-40.94,1.35,1.82c3.37-1.76,6.58-4,10.13-5.19,10.7-3.69,10.92-4,4.93-15l-19.79,7.2c.3.88.59,1.77.88,2.66l9.36-1.42,1.29,1.59Zm-48.8,125.09-1.05-3.4c-2.86,1.28-8.32,3.31-8.19,3.72a84.62,84.62,0,0,0,6.77,17.09c.56,1,5.12.2,7.68-.41.91-.22,1.79-2.27,2-3.58.7-5.31-4.39-9.82-10.11-9.39-1,.08-2.1-.72-5.05-1.84ZM308.09,256.63c.52-6.06,2.75-11.89.83-14a22.82,22.82,0,0,0-14.07-6.94c-2.71-.2-5.87,5.41-9.43,9ZM436.52,417.21l-.1,2.43c2.43,0,5.22.74,7.15-.24,1.54-.78,3.11-3.89,2.74-5.54A45,45,0,0,0,441.49,401c-.92-1.58-4.92-3-6.4-2.24-2,1-4.28,4.28-4.08,6.36.52,5.47,2.75,10.24,10,8.45.33-.08,1,1,2.08,2.36Zm79.09-119.74c-.94-1-1.87-2-2.8-3-2,2.23-4.85,4.18-5.72,6.78-.6,1.79,1.58,6.47,2.45,6.45,4.31-.06,8.61-1.27,12.6-2-2.16,5,1.94,4.61,5.08,1.92,1.89-1.61,1.54-5.83,2.2-8.88-3.28-.17-6.85-1.23-9.77-.3-3.15,1-5.71,3.89-8.53,5.95l-1.51-2.17Zm-141.5-123.1-3.49.81c1.19,6,2,12.21,3.82,18.07.52,1.68,4.13,3.64,6,3.36,2.4-.36,6.4-2.87,6.38-4.42-.07-6.46-1.4-12.9-2.27-19.34l-3.49.44,1.58,19.46-3.35.41Zm48.69,22.52,1.81-1.84c-.51-6.22-.87-12.46-1.67-18.64a5,5,0,0,0-3-3.42c-1-.26-3.2,1.08-3.66,2.21-2.42,5.93-4.45,12-6.63,18C415.53,189.28,419.8,188.41,422.8,196.89Zm-74.44-15c3.25,8.44,5.78,15,9.15,23.75,4.38-4,9.93-6.85,9.77-9.34a28.75,28.75,0,0,0-6.17-15.45C359.73,179.11,353.55,181.29,348.36,181.84ZM297.24,288l.81-2.9-8.67-3.56,1.56-2c-3-2.44-6-6.94-8.95-6.91-7.92.07-5.29,7.06-6.55,12.42Zm177.08-93.26c-5-3.41-7.53-6.17-10.57-6.94-4-1-12.55,9.48-11.55,15,.49,2.74,4.48,4.85,6.89,7.25ZM324.24,389.56l-3-.26c-.14,2.81-1.33,6.24-.13,8.25s5.42,3.69,7.16,2.92c2.32-1,4.45-4.4,5-7.08.57-3-.75-6.44-1.25-9.68l1.81-.23,2.52,6.37,2.16-.2c0-2.44.75-5.26-.23-7.21-.85-1.66-3.8-3.41-5.63-3.22-6,.62-6.08,5-5.31,9.79.39,2.45.07,5,.07,7.54l-2.64-.42ZM477,401.72c-4.23-6-7.6-11.11-11.57-15.72-.36-.42-4.65,2.54-7.12,3.93q5.55,8.38,11.08,16.79Zm51-124.41c-.25-1.18-.49-2.36-.73-3.53-5.86.87-11.87,1.26-17.51,2.89-1.81.53-3.8,4.4-3.66,6.62s2.75,6.19,4.34,6.22c6.23.1,12.48-1,18.73-1.72L529,284H509.63c0-.84.07-1.69.11-2.53ZM374.84,407.54l2.39-1.42c-1.47-2.31-2.55-6-4.53-6.56-2.27-.66-6.6.65-7.78,2.52-2.24,3.53-3.94,8.13-3.77,12.2.12,2.61,3.58,6.17,6.33,7.16,1.59.57,4.72-3.1,7.16-4.86l-1.79-2.29-8.36,4.11c1.95-6.55,3.33-11.18,5.06-17ZM322.31,230.76l1-2.41c-6.36-3.06-12.7-6.18-19.18-9-.24-.1-3.16,4-2.7,4.61,3.85,5.61,8.19,10.88,12.38,16.25l2.13-1.37c-.54-2.45-1.08-4.9-1.78-8.11Zm82.53-52.44,1.84-2.16c-2.23-1.77-4.45-4.93-6.68-4.93s-6.18,2.7-6.65,4.82a27.29,27.29,0,0,0,.35,13.53c.65,2.11,5.21,4.44,7.68,4.13,2-.25,3.6-4.25,5.38-6.59l-2.2-1.53-6.42,5.2V174.36ZM388.71,426c.14-.7.29-1.39.43-2.09l-5.8-6,7.33-3.75-7.32-5.8,9.53-2.2-.13-2.06-11-2.32c-1.47,7.74-2.79,14.72-4.22,22.24ZM343.63,188.44l-1.49-2.05-10,5.78c4,6.93,7.61,13.11,11.35,19.57l11.44-7.36-11.06-.67c1-2.57,1.93-5.15,3.11-8.31l-9.66,1.23ZM431.2,198l2,.06,8.94-20.44L432.87,175C432.26,183.31,431.73,190.66,431.2,198Zm95.53,128.92c.47-2.57,1.21-6.71,1.65-9.13h-23l.27,2.14ZM512.8,235.28l-18,14.32.86,1.58L517,243.73Zm-212,91.58.05-1.59-22.79,1.44c.75,2.81,1.81,6.74,2.38,8.88ZM426.28,424.4l2.79-.79c-1.46-7.27-2.91-14.54-4.11-20.5l-6.06,3.56Zm28.41-241.79-4-1.61q-4.32,10.22-8.65,20.42l3.68,1.56ZM297.12,296.22V294h-22v2.19Z" transform="translate(-122 -142.81)"/><path class="cls-2" d="M501.16,297.67c0,53-44.11,95.47-99,95.39-54.64-.07-99.21-43.36-98.75-95.91s44.45-94.88,98.82-94.94C457.13,202.15,501.18,244.64,501.16,297.67ZM372.85,373.59l.17.34,0-.2c-7.19-6.79-14.46-7.78-22.91-2.21Zm61.39-55.9-5.46,10.25,15.5,1.23,1-1.72q-5.58-4.79-11.14-9.59c-2.56-5.08-3.52-5.62-10.26-3.38-4.33,1.45-9.49,2.67-10.47,8.39Zm-74.74,13L376,327.14c-1.92-2.71-3.81-5.4-5.7-8.09l.93-2.19,19,6.38,1.3-1.79c-3.35-2.29-6.42-5.54-10.11-6.57-3.39-.94-8.51-.79-11,1.2-4.65,3.72-7.94,9.12-11.79,13.82l-1.07,1.51Zm-4.29-70.58.76,1.21a4.7,4.7,0,0,0,.47-.6,10.27,10.27,0,0,0-1-.87l9.06-19.12L367.9,242l-4.32,22.58,1.93.64,9.41-11.76c0,18.56-19.13,24.65-23.19,39.77h20.79c3.45-8.8,5.85-16.79,9.58-24.11,8.47-16.62,5.71-25.24-10.13-31.19L368.25,226c-3.92,5.39-7.21,10.68-11.26,15.29C350.88,248.24,350.1,253.58,355.21,260.09Zm-9.75,29.25c-10.19-2.89-10.12-2.86-5.2-12.35,1-2,2.11-4.4,2-6.56-.63-14.07,3.76-26,13.41-36.41,3-3.29,3.91-8.58,5.77-13l-2.82-1.62c-14.64,7.24-26.27,17.84-35.57,32.06l15.56,5.16-.45,2.32c-6.46,0-14.8-2.46-18.88.65-4.66,3.54-5.53,12-8.26,18.92,14.75-1.53,14.75-1.53,19.67,11C332.55,294.27,341.06,294.5,345.46,289.34Zm54.85-19.85c5.23-1.08,10.49-2.23,15.77-3.25,14.17-2.71,28.5-4.74,42.47-8.25,11.86-3,14.7-14.32,6.58-24.93l-8.87,11,10.5,4.64-10.89,8.42c-7.81-13.39-18.67-19-32.84-16.1C408,244.12,401.79,255,400.31,269.49Zm3.82,35.17c2.63.75,5.79,2.36,9,2.41,14.89.28,29.78.34,44.66-.08,2.67-.07,5.27-2.78,7.9-4.27-2.54-1.33-5.07-3.79-7.61-3.81q-53.87-.37-107.72,0c-2.51,0-5,2.54-7.49,3.9,2.65,1.46,5.27,4.11,8,4.19,14.29.42,28.61.35,42.91.08C397.15,307,400.56,305.53,404.13,304.66Zm-35.91-91.07c0,1,0,1.93.07,2.9,9.62,8.42,19.16,16.95,29,25.16,1.47,1.23,4.22.94,7.9,1.65-5.54-9.91-9.9-17.69-14.26-25.47l3-1.88q8.49,10.59,17,21.19c2-2.63,2.4-5,1.87-7.06-1.34-5.35-2.6-10.83-4.95-15.75-1.13-2.36-4.78-5.24-7.06-5.05C389.83,210.18,379,212.06,368.22,213.59ZM434,290.84l-.3-3.59-17.08,1.39,0-1.47,11.58-6.91-1.28-3.08-17.19,3.59-.5-1.36,9.07-6.67a34.44,34.44,0,0,0-33.16,21.53C401.7,291.9,418.25,297.13,434,290.84Zm28.18,66.9c0-1,0-2.05.05-3.07a65.76,65.76,0,0,0-50.33,9.4c-5.61,3.61-9.64,4.47-15.55.42-14.49-9.93-31-12.78-48.34-11.38-2.47.19-4.88,1.18-7.32,1.8,1.43,2.08,2.48,2.57,3.46,2.45,19.88-2.46,38.33.76,54.31,13.61,5.14,4.14,9.05,1.73,13.09-1.7,11.79-10,25.72-13,40.78-12.14C455.59,357.32,458.87,357.53,462.15,357.74Zm-58.66-10.61c7.56-9.53,7.56-19,0-33.71C394.49,326.55,394.49,337.62,403.49,347.13Zm23-78.18,15.74,25.13,7.68-4.82-8.51-7c1.93-2,4.26-4.46,8.05-8.4H435.2l5.8-7.74Zm-109.31,14.5c.11,4,.85,6.35.06,7.9-1.52,2.94-5,5.22-5.58,8.19-.42,2,2.18,6.3,4.18,6.85,3.13.86,6.9-.58,10.4-1-.71-2.55-1.49-5.08-2.13-7.64a29.05,29.05,0,0,1-1.14-5.92c-.09-2.49,1.32-6.37.24-7.17C321.24,283.17,317.92,283.56,317.16,283.45Zm129.06-16.72c8.38,7.41,15.72,7.13,25.13-.22,6-4.69,7.25-10.38,3.53-18C472.19,265,457.87,263.57,446.22,266.73Zm38.27,30-1.2.28c-.91,3-1.83,6-2.74,9,3.82,0,8.52,1.49,11.26-.2,5.9-3.64,3.49-8.57,0-13.22-1.28-1.7-1.19-4.43-2.19-8.62-.94.25-6.21.51-6.57,2C482.23,289.22,483.86,293.1,484.49,296.74Zm-72.52-88c6.12,8.74,4.1,19.58,14.93,25.06,1.08-8.25,1.89-14.41,2.76-21.08Zm75.95,117.21H452.4c2.08,7.42,6.92,8.22,13,7.47a43.13,43.13,0,0,1,11.63,0C484.58,334.55,488.13,331.67,487.92,325.93Zm-171,0c-.36,5.42,2.87,8.37,9.91,7.63a63.28,63.28,0,0,1,13.34.06c6.76.75,9.84-1.22,10.94-7.69Zm162.28-57.6-26.81,12.88C462.71,287.26,477,279.47,479.15,268.33ZM347.72,319.91c.38-.93.76-1.86,1.13-2.79-1.51-.67-3-1.79-4.54-1.93a129.89,129.89,0,0,0-16.94-.78c-1.46.06-2.82,2.76-4.23,4.25,1.49,1.4,2.86,3.81,4.49,4a80.81,80.81,0,0,0,15,.18C344.39,322.7,346,320.93,347.72,319.91ZM365,347.73l1.71-3.08-14.2-9-10.05,12.09Zm97.53,0c-5.7-5.53-7.72-13.47-16.05-8.92-3.07,1.67-5.49,4.54-8.21,6.86l1.74,2.06Zm2.71-31.1-.25-1.2a41.76,41.76,0,0,0-7.18,1.36c-.34.12.07,4.37.52,4.45,2.54.45,5.21.06,7.82.21,2.85.17,5.7.9,8.54.86a11.5,11.5,0,0,0,6.09-1.59c.72-.48.63-4-.18-4.56a10.26,10.26,0,0,0-6.24-1.74C471.31,314.65,468.31,315.83,465.27,316.62Zm-18.21-96.91-12.47-5.52v18.07C444.59,233.71,442.15,224.23,447.06,219.71Zm-30,130.88c10.05,1.32,14.73-2.11,20.53-18.33-3.92,2.2-6.82,3.12-8.73,5C424.45,341.73,420.51,346.65,417.06,350.59Zm-13.68,30.46.48,2.36c4.89-1.52,9.72-3.94,14.7-4.31,5.33-.39,10.82,1.16,18,2.09C424,369.64,413.72,375.92,403.38,381.05Zm43.26-145.32c6.39,3.58,6.39,3.58,14.38-7L451,222.17ZM387.46,351c-3.71-4.4-7.33-9.2-11.51-13.46-1.95-2-5-2.9-7.53-4.3C371.76,344.16,376.05,353.15,387.46,351Zm68.07-59.44c8.6,3,16.32,4,20.9-6.84Zm20.68,60,7.06-10.35H466.78Zm-63.72,6-1.57-2.36H393.46l10.47,10Zm-.26-13.69c12.17-2.35,10-10,8.26-17.52Zm-90.93-2.66,7.09,10.18,10-10.95ZM385,327.41l-2.83,1.18c-.92,6.62-.67,12.67,9.6,15.43Zm85.63-15.05,2.18,1c1.17-2.37,3.5-4.86,3.25-7.06-.38-3.3-2.56-6.4-4-9.59l-2.38,1Q470.17,305,470.62,312.36ZM339,297.85l-2.24-1.14c-1.49,2.77-3.84,5.43-4.21,8.34-.33,2.55,1.58,5.38,2.5,8.09l2.55-.67Q338.3,305.17,339,297.85Zm44.51-14.58,13.27-10.66C387.75,271,383.19,273.27,383.52,283.27Z" transform="translate(-122 -142.81)"/><path class="cls-4" d="M474.08,212.33l-6,4.73L466,215l14-17,2.11.84V209.3c2.4-1.52,4.53-2.88,6.65-4.24l2.19,2-13.88,16.66-2.86-.73c.46-3.12.93-6.24,1.38-9.36l.09-2Z" transform="translate(-122 -142.81)"/><path class="cls-2" d="M289.22,311.63l8.51,1.13v2.46l-20.45,1.93c-3.45-11.66-3.25-11.84,8.91-13.16,3.37-.37,6.67-1.4,10-2,.26-.05.68.78,1.53,1.83l-9.89,5.7Z" transform="translate(-122 -142.81)"/><path class="cls-2" d="M503.56,270.69l8.15-8.34-1.29-1.59-9.36,1.42c-.29-.89-.58-1.78-.88-2.66l19.79-7.2c6,11,5.77,11.31-4.93,15-3.55,1.22-6.76,3.43-10.13,5.19Z" transform="translate(-122 -142.81)"/><path class="cls-2" d="M348.3,393.12l5.79-1.48V405l6.78-9.05,2.07,1-8.34,19.52h-2.54c-1-3.41-1.91-6.82-2.94-10.51l-4.83,6.31-1.65-.73L348.37,393Z" transform="translate(-122 -142.81)"/><path class="cls-4" d="M454.76,395.78l-8,2.19c3,1.12,4,1.92,5.05,1.84,5.72-.43,10.81,4.08,10.11,9.39-.17,1.31-1.05,3.36-2,3.58-2.56.61-7.12,1.43-7.68.41a84.62,84.62,0,0,1-6.77-17.09c-.13-.41,5.33-2.44,8.19-3.72Z" transform="translate(-122 -142.81)"/><path class="cls-4" d="M308.09,256.63l-22.67-11.95c3.56-3.61,6.72-9.22,9.43-9a22.82,22.82,0,0,1,14.07,6.94C310.84,244.74,308.61,250.57,308.09,256.63Zm-15.44-16.28-.58,2.72L304.91,250l2.13-2.58c-2.34-2-4.42-4.58-7.09-6C297.91,240.31,295.11,240.65,292.65,240.35Z" transform="translate(-122 -142.81)"/><path class="cls-4" d="M436.52,417.21l6.59-1.25c-1.13-1.31-1.75-2.44-2.08-2.36-7.27,1.79-9.5-3-10-8.45-.2-2.08,2.07-5.34,4.08-6.36,1.48-.74,5.48.66,6.4,2.24a45,45,0,0,1,4.82,12.83c.37,1.65-1.2,4.76-2.74,5.54-1.93,1-4.72.24-7.15.24Z" transform="translate(-122 -142.81)"/><path class="cls-4" d="M515.61,297.47l-6,4.69,1.51,2.17c2.82-2.06,5.38-4.93,8.53-5.95,2.92-.93,6.49.13,9.77.3-.66,3.05-.31,7.27-2.2,8.88-3.14,2.69-7.24,3.07-5.08-1.92-4,.75-8.29,2-12.6,2-.87,0-3.05-4.66-2.45-6.45.87-2.6,3.71-4.55,5.72-6.78C513.74,295.45,514.67,296.46,515.61,297.47Z" transform="translate(-122 -142.81)"/><path class="cls-4" d="M374.11,174.37l5.19,18.79,3.35-.41-1.58-19.46,3.49-.44c.87,6.44,2.2,12.88,2.27,19.34,0,1.55-4,4.06-6.38,4.42-1.88.28-5.49-1.68-6-3.36-1.82-5.86-2.63-12-3.82-18.07Z" transform="translate(-122 -142.81)"/><path class="cls-2" d="M422.8,196.89c-3-8.48-7.27-7.61-13.16-3.65,2.18-6,4.21-12.11,6.63-18,.46-1.13,2.66-2.47,3.66-2.21a5,5,0,0,1,3,3.42c.8,6.18,1.16,12.42,1.67,18.64Z" transform="translate(-122 -142.81)"/><path class="cls-4" d="M348.36,181.84c5.19-.55,11.37-2.73,12.75-1a28.75,28.75,0,0,1,6.17,15.45c.16,2.49-5.39,5.35-9.77,9.34C354.14,196.86,351.61,190.28,348.36,181.84Zm9.2,1.64-3,1,5,14.25,2.68-.87C364.54,191.85,361.64,187.48,357.56,183.48Z" transform="translate(-122 -142.81)"/><path class="cls-4" d="M297.24,288l-21.8-2.93c1.26-5.36-1.37-12.35,6.55-12.42,3,0,6,4.47,8.95,6.91l-1.56,2,8.67,3.56Z" transform="translate(-122 -142.81)"/><path class="cls-4" d="M474.32,194.74,459.09,210.1c-2.41-2.4-6.4-4.51-6.89-7.25-1-5.57,7.51-16.08,11.55-15C466.79,188.57,469.32,191.33,474.32,194.74ZM467,193.13l-3.62-2-7.55,13.42,3.62,2Q463.25,199.83,467,193.13Z" transform="translate(-122 -142.81)"/><path class="cls-4" d="M324.24,389.56l.49,6.57,2.64.42c0-2.52.32-5.09-.07-7.54-.77-4.79-.65-9.17,5.31-9.79,1.83-.19,4.78,1.56,5.63,3.22,1,1.95.23,4.77.23,7.21l-2.16.2-2.52-6.37-1.81.23c.5,3.24,1.82,6.64,1.25,9.68-.5,2.68-2.63,6.06-5,7.08-1.74.77-6-1-7.16-2.92s0-5.44.13-8.25Z" transform="translate(-122 -142.81)"/><path class="cls-2" d="M477,401.72l-7.61,5q-5.53-8.4-11.08-16.79c2.47-1.39,6.76-4.35,7.12-3.93C469.39,390.61,472.76,395.74,477,401.72Z" transform="translate(-122 -142.81)"/><path class="cls-4" d="M528,277.31l-18.29,4.12c0,.84-.07,1.69-.11,2.53H529l.18,3.83c-6.25.68-12.5,1.82-18.73,1.72-1.59,0-4.21-4-4.34-6.22s1.85-6.09,3.66-6.62c5.64-1.63,11.65-2,17.51-2.89C527.54,275,527.78,276.13,528,277.31Z" transform="translate(-122 -142.81)"/><path class="cls-4" d="M374.84,407.54l-5.29-6.15c-1.73,5.83-3.11,10.46-5.06,17l8.36-4.11,1.79,2.29c-2.44,1.76-5.57,5.43-7.16,4.86-2.75-1-6.21-4.55-6.33-7.16-.17-4.07,1.53-8.67,3.77-12.2,1.18-1.87,5.51-3.18,7.78-2.52,2,.58,3.06,4.25,4.53,6.56Z" transform="translate(-122 -142.81)"/><path class="cls-2" d="M322.31,230.76h-8.14c.7,3.21,1.24,5.66,1.78,8.11l-2.13,1.37c-4.19-5.37-8.53-10.64-12.38-16.25-.46-.66,2.46-4.71,2.7-4.61,6.48,2.79,12.82,5.91,19.18,9Z" transform="translate(-122 -142.81)"/><path class="cls-4" d="M404.84,178.32l-6.7-4v16.43l6.42-5.2,2.2,1.53c-1.78,2.34-3.34,6.34-5.38,6.59-2.47.31-7-2-7.68-4.13a27.29,27.29,0,0,1-.35-13.53c.47-2.12,4.33-4.83,6.65-4.82s4.45,3.16,6.68,4.93Z" transform="translate(-122 -142.81)"/><path class="cls-4" d="M388.71,426l-11.2-2c1.43-7.52,2.75-14.5,4.22-22.24l11,2.32.13,2.06-9.53,2.2,7.32,5.8-7.33,3.75,5.8,6C389,424.59,388.85,425.28,388.71,426Z" transform="translate(-122 -142.81)"/><path class="cls-4" d="M343.63,188.44l-6.35,8.19,9.66-1.23c-1.18,3.16-2.14,5.74-3.11,8.31l11.06.67-11.44,7.36c-3.74-6.46-7.33-12.64-11.35-19.57l10-5.78Z" transform="translate(-122 -142.81)"/><path class="cls-2" d="M296.63,271.29c-4-2.34-8.11-4.48-11.87-7.14-1.56-1.11-2.32-3.34-3.44-5.07,1.84-.79,3.74-2.35,5.53-2.25,5.73.33,11.43,1.27,17.93,2.08-2.17,4.18-11.81,5.14-5.13,12Zm-2.26-7.91-1.92-2.55c-.57.44-1.68,1-1.61,1.28a4.16,4.16,0,0,0,1.46,2.26C292.61,264.58,293.61,263.77,294.37,263.38Z" transform="translate(-122 -142.81)"/><path class="cls-4" d="M431.2,198c.53-7.35,1.06-14.7,1.67-23.06l9.25,2.68-8.94,20.44Z" transform="translate(-122 -142.81)"/><path class="cls-4" d="M526.73,326.93l-21.12-7-.27-2.14h23C527.94,320.22,527.2,324.36,526.73,326.93Z" transform="translate(-122 -142.81)"/><path class="cls-4" d="M512.8,235.28l4.21,8.45-21.38,7.45-.86-1.58Z" transform="translate(-122 -142.81)"/><path class="cls-2" d="M300.81,326.86l-20.36,8.73c-.57-2.14-1.63-6.07-2.38-8.88l22.79-1.44Z" transform="translate(-122 -142.81)"/><path class="cls-4" d="M426.28,424.4l-7.38-17.73,6.06-3.56c1.2,6,2.65,13.23,4.11,20.5Z" transform="translate(-122 -142.81)"/><path class="cls-4" d="M348.37,393l-12.73,14.69L333,405.92l13.1-20.13c1.11,3.71,1.66,5.52,2.2,7.33Z" transform="translate(-122 -142.81)"/><path class="cls-4" d="M454.69,182.61l-9,20.37L442,201.42q4.33-10.21,8.65-20.42Z" transform="translate(-122 -142.81)"/><path class="cls-2" d="M297.12,296.22h-22V294h22Z" transform="translate(-122 -142.81)"/><path class="cls-2" d="M299.65,270.91l-3,.38Z" transform="translate(-122 -142.81)"/><path class="cls-3" d="M345.46,289.34c-4.4,5.16-12.91,4.93-14.76.22-4.92-12.53-4.92-12.53-19.67-11,2.73-6.88,3.6-15.38,8.26-18.92,4.08-3.11,12.42-.65,18.88-.65l.45-2.32-15.56-5.16c9.3-14.22,20.93-24.82,35.57-32.06l2.82,1.62c-1.86,4.37-2.73,9.66-5.77,13-9.65,10.44-14,22.34-13.41,36.41.1,2.16-1,4.55-2,6.56C335.34,286.48,335.27,286.45,345.46,289.34Z" transform="translate(-122 -142.81)"/><path class="cls-3" d="M400.31,269.49C401.79,255,408,244.12,423,241.06c14.17-2.89,25,2.71,32.84,16.1l10.89-8.42-10.5-4.64,8.87-11c8.12,10.61,5.28,21.95-6.58,24.93-14,3.51-28.3,5.54-42.47,8.25C410.8,267.26,405.54,268.41,400.31,269.49Z" transform="translate(-122 -142.81)"/><path class="cls-3" d="M355.21,260.09c-5.11-6.51-4.33-11.85,1.78-18.81,4.05-4.61,7.34-9.9,11.26-15.29l3.72,11.9c15.84,6,18.6,14.57,10.13,31.19-3.73,7.32-6.13,15.31-9.58,24.11H351.73c4.06-15.12,23.2-21.21,23.19-39.77l-9.41,11.76-1.93-.64L367.9,242l-3.39-1.25-9.06,19.12Z" transform="translate(-122 -142.81)"/><path class="cls-3" d="M404.13,304.66c-3.57.87-7,2.36-10.42,2.42-14.3.27-28.62.34-42.91-.08-2.69-.08-5.31-2.73-8-4.19,2.49-1.36,5-3.88,7.49-3.9q53.85-.37,107.72,0c2.54,0,5.07,2.48,7.61,3.81-2.63,1.49-5.23,4.2-7.9,4.27-14.88.42-29.77.36-44.66.08C409.92,307,406.76,305.41,404.13,304.66Z" transform="translate(-122 -142.81)"/><path class="cls-3" d="M368.22,213.59c10.82-1.53,21.61-3.41,32.48-4.31,2.28-.19,5.93,2.69,7.06,5.05,2.35,4.92,3.61,10.4,4.95,15.75.53,2.09.09,4.43-1.87,7.06q-8.49-10.6-17-21.19l-3,1.88c4.36,7.78,8.72,15.56,14.26,25.47-3.68-.71-6.43-.42-7.9-1.65-9.81-8.21-19.35-16.74-29-25.16C368.27,215.52,368.25,214.55,368.22,213.59Z" transform="translate(-122 -142.81)"/><path class="cls-3" d="M434,290.84c-15.72,6.29-32.27,1.06-48.88,3.43a34.44,34.44,0,0,1,33.16-21.53l-9.07,6.67.5,1.36,17.19-3.59,1.28,3.08-11.58,6.91,0,1.47,17.08-1.39Z" transform="translate(-122 -142.81)"/><path class="cls-3" d="M462.15,357.74c-3.28-.21-6.56-.42-9.85-.61-15.06-.86-29,2.1-40.78,12.14-4,3.43-7.95,5.84-13.09,1.7-16-12.85-34.43-16.07-54.31-13.61-1,.12-2-.37-3.46-2.45,2.44-.62,4.85-1.61,7.32-1.8,17.32-1.4,33.85,1.45,48.34,11.38,5.91,4.05,9.94,3.19,15.55-.42a65.76,65.76,0,0,1,50.33-9.4C462.18,355.69,462.17,356.72,462.15,357.74Z" transform="translate(-122 -142.81)"/><path class="cls-3" d="M403.49,347.13c-9-9.51-9-20.58,0-33.71C411.05,328.1,411.05,337.6,403.49,347.13Z" transform="translate(-122 -142.81)"/><path class="cls-3" d="M426.47,269,441,266.08l-5.8,7.74h14.23c-3.79,3.94-6.12,6.38-8.05,8.4l8.51,7-7.68,4.82Z" transform="translate(-122 -142.81)"/><path class="cls-3" d="M317.16,283.45c.76.11,4.08-.28,6,1.17,1.08.8-.33,4.68-.24,7.17a29.05,29.05,0,0,0,1.14,5.92c.64,2.56,1.42,5.09,2.13,7.64-3.5.46-7.27,1.9-10.4,1-2-.55-4.6-4.81-4.18-6.85.62-3,4.06-5.25,5.58-8.19C318,289.8,317.27,287.47,317.16,283.45Z" transform="translate(-122 -142.81)"/><path class="cls-3" d="M446.22,266.73c11.65-3.16,26-1.75,28.66-18.27,3.72,7.67,2.48,13.36-3.53,18C461.94,273.86,454.6,274.14,446.22,266.73Z" transform="translate(-122 -142.81)"/><path class="cls-3" d="M484.49,296.74c-.63-3.64-2.26-7.52-1.45-10.81.36-1.47,5.63-1.73,6.57-2,1,4.19.91,6.92,2.19,8.62,3.5,4.65,5.91,9.58,0,13.22-2.74,1.69-7.44.23-11.26.2.91-3,1.83-6,2.74-9Z" transform="translate(-122 -142.81)"/><path class="cls-3" d="M412,208.72l17.69,4c-.87,6.67-1.68,12.83-2.76,21.08C416.07,228.3,418.09,217.46,412,208.72Z" transform="translate(-122 -142.81)"/><path class="cls-3" d="M487.92,325.93c.21,5.74-3.34,8.62-10.9,7.48a43.13,43.13,0,0,0-11.63,0c-6.07.75-10.91,0-13-7.47Z" transform="translate(-122 -142.81)"/><path class="cls-3" d="M358.67,329.9c3.85-4.7,7.14-10.1,11.79-13.82,2.48-2,7.6-2.14,11-1.2,3.69,1,6.76,4.28,10.11,6.57l-1.3,1.79-19-6.38-.93,2.19c1.89,2.69,3.78,5.38,5.7,8.09l-16.52,3.53Z" transform="translate(-122 -142.81)"/><path class="cls-3" d="M316.87,325.93h34.19c-1.1,6.47-4.18,8.44-10.94,7.69a63.28,63.28,0,0,0-13.34-.06C319.74,334.3,316.51,331.35,316.87,325.93Z" transform="translate(-122 -142.81)"/><path class="cls-3" d="M479.15,268.33c-2.2,11.14-16.44,18.93-26.81,12.88Z" transform="translate(-122 -142.81)"/><path class="cls-3" d="M347.72,319.91c-1.69,1-3.33,2.79-5.09,2.92a80.81,80.81,0,0,1-15-.18c-1.63-.18-3-2.59-4.49-4,1.41-1.49,2.77-4.19,4.23-4.25a129.89,129.89,0,0,1,16.94.78c1.56.14,3,1.26,4.54,1.93C348.48,318.05,348.1,319,347.72,319.91Z" transform="translate(-122 -142.81)"/><path class="cls-3" d="M365,347.73H342.49l10.05-12.09,14.2,9Z" transform="translate(-122 -142.81)"/><path class="cls-3" d="M462.56,347.72H440l-1.74-2.06c2.72-2.32,5.14-5.19,8.21-6.86C454.84,334.25,456.86,342.19,462.56,347.72Z" transform="translate(-122 -142.81)"/><path class="cls-3" d="M465.27,316.62c3-.79,6-2,9.12-2.21a10.26,10.26,0,0,1,6.24,1.74c.81.57.9,4.08.18,4.56a11.5,11.5,0,0,1-6.09,1.59c-2.84,0-5.69-.69-8.54-.86-2.61-.15-5.28.24-7.82-.21-.45-.08-.86-4.33-.52-4.45a41.76,41.76,0,0,1,7.18-1.36Z" transform="translate(-122 -142.81)"/><path class="cls-3" d="M447.06,219.71c-4.91,4.52-2.47,14-12.47,12.55V214.19Z" transform="translate(-122 -142.81)"/><path class="cls-3" d="M417.06,350.59c3.45-3.94,7.39-8.86,11.8-13.29,1.91-1.92,4.81-2.84,8.73-5C431.79,348.48,427.11,351.91,417.06,350.59Z" transform="translate(-122 -142.81)"/><path class="cls-3" d="M403.38,381.05c10.34-5.13,20.65-11.41,33.17.14-7.17-.93-12.66-2.48-18-2.09-5,.37-9.81,2.79-14.7,4.31Z" transform="translate(-122 -142.81)"/><path class="cls-3" d="M446.64,235.73,451,222.17,461,228.7C453,239.31,453,239.31,446.64,235.73Z" transform="translate(-122 -142.81)"/><path class="cls-3" d="M387.46,351c-11.41,2.13-15.7-6.86-19-17.76,2.55,1.4,5.58,2.32,7.53,4.3C380.13,341.82,383.75,346.62,387.46,351Z" transform="translate(-122 -142.81)"/><path class="cls-3" d="M455.53,291.58l20.9-6.84C471.85,295.59,464.13,294.54,455.53,291.58Z" transform="translate(-122 -142.81)"/><path class="cls-3" d="M434.24,317.69l-20.87,5.18c1-5.72,6.14-6.94,10.47-8.39,6.74-2.24,7.7-1.7,10.26,3.38Z" transform="translate(-122 -142.81)"/><path class="cls-3" d="M476.21,351.55l-9.43-10.35h16.49Z" transform="translate(-122 -142.81)"/><path class="cls-3" d="M434.1,317.86q5.56,4.8,11.14,9.59l-1,1.72-15.5-1.23,5.46-10.25Z" transform="translate(-122 -142.81)"/><path class="cls-3" d="M412.49,357.51l-8.56,7.62-10.47-10h17.46Z" transform="translate(-122 -142.81)"/><path class="cls-3" d="M412.23,343.82l8.26-17.52C422.25,333.81,424.4,341.47,412.23,343.82Z" transform="translate(-122 -142.81)"/><path class="cls-3" d="M321.3,341.16l17.13-.77-10,10.95Z" transform="translate(-122 -142.81)"/><path class="cls-3" d="M385,327.41,391.76,344c-10.27-2.76-10.52-8.81-9.6-15.43Z" transform="translate(-122 -142.81)"/><path class="cls-3" d="M372.85,373.61l-22.78-2.09c8.45-5.57,15.72-4.58,22.91,2.21Z" transform="translate(-122 -142.81)"/><path class="cls-3" d="M470.62,312.36q-.47-7.37-.92-14.73l2.38-1c1.41,3.19,3.59,6.29,4,9.59.25,2.2-2.08,4.69-3.25,7.06Z" transform="translate(-122 -142.81)"/><path class="cls-3" d="M339,297.85q-.7,7.32-1.4,14.62l-2.55.67c-.92-2.71-2.83-5.54-2.5-8.09.37-2.91,2.72-5.57,4.21-8.34Z" transform="translate(-122 -142.81)"/><path class="cls-3" d="M383.52,283.27c-.33-10,4.23-12.32,13.27-10.66Z" transform="translate(-122 -142.81)"/><path class="cls-3" d="M373,373.73l0,.2s-.17-.34-.17-.33Z" transform="translate(-122 -142.81)"/><path class="cls-3" d="M359.5,330.67l-1.9.74,1.07-1.51Z" transform="translate(-122 -142.81)"/><path class="cls-3" d="M355.45,259.83a10.27,10.27,0,0,1,1,.87,4.7,4.7,0,0,1-.47.6l-.76-1.21Z" transform="translate(-122 -142.81)"/><path class="cls-3" d="M474.08,212.33l1.68-.7-.09,2Z" transform="translate(-122 -142.81)"/><path class="cls-3" d="M292.65,240.35c2.46.3,5.26,0,7.3,1,2.67,1.41,4.75,3.94,7.09,6L304.91,250l-12.84-6.89Z" transform="translate(-122 -142.81)"/><path class="cls-3" d="M357.56,183.48c4.08,4,7,8.37,4.68,14.38l-2.68.87-5-14.25Z" transform="translate(-122 -142.81)"/><path class="cls-3" d="M467,193.13q-3.78,6.7-7.55,13.41l-3.62-2,7.55-13.42Z" transform="translate(-122 -142.81)"/><path class="cls-4" d="M294.37,263.38c-.76.39-1.76,1.2-2.07,1a4.16,4.16,0,0,1-1.46-2.26c-.07-.26,1-.84,1.61-1.28Z" transform="translate(-122 -142.81)"/></svg>